<svg id="svg" version="1.1" xmlns="http://www.w3.org/2000/svg" xmlns:xlink="http://www.w3.org/1999/xlink" width="400" height="225" viewBox="0, 0, 400,225"><g id="svgg"><path id="path0" d="M151.354 76.042 C 140.526 77.996,134.611 89.661,139.470 99.479 C 147.148 114.994,170.417 109.467,170.417 92.128 C 170.417 82.127,161.117 74.280,151.354 76.042 M190.350 76.055 C 178.881 77.374,172.385 89.696,177.727 100.000 C 182.158 108.548,193.220 111.328,201.345 105.934 C 201.980 105.513,202.500 105.079,202.500 104.970 C 202.500 104.718,198.707 100.390,198.553 100.466 C 198.489 100.498,197.922 100.795,197.292 101.126 C 190.010 104.959,181.570 98.884,182.897 90.765 C 183.918 84.514,190.655 80.761,196.458 83.209 C 197.203 83.524,197.938 83.797,198.091 83.817 C 198.687 83.896,202.284 79.516,201.940 79.129 C 200.290 77.275,194.074 75.627,190.350 76.055 M111.458 92.281 L 111.458 108.125 114.583 108.125 L 117.708 108.125 117.708 101.762 L 117.708 95.399 119.317 95.460 L 120.925 95.521 123.848 101.816 L 126.771 108.110 130.136 108.118 L 133.502 108.125 130.397 101.436 C 126.845 93.784,127.098 94.546,127.969 94.123 C 134.557 90.918,134.162 80.721,127.319 77.337 L 125.752 76.563 118.605 76.500 L 111.458 76.438 111.458 92.281 M208.333 92.292 L 208.333 108.125 211.458 108.125 L 214.583 108.125 214.583 102.129 L 214.583 96.133 215.846 94.889 C 216.956 93.796,217.138 93.687,217.356 93.986 C 217.493 94.174,219.337 97.431,221.454 101.226 L 225.304 108.125 229.006 108.125 C 231.042 108.125,232.708 108.087,232.708 108.040 C 232.708 107.992,230.286 103.844,227.324 98.821 C 224.363 93.797,221.829 89.478,221.693 89.221 C 221.464 88.788,221.820 88.339,226.722 82.867 C 229.623 79.629,232.069 76.862,232.157 76.719 C 232.282 76.514,231.428 76.458,228.142 76.458 L 223.968 76.458 219.432 81.458 C 216.937 84.208,214.826 86.458,214.740 86.458 C 214.654 86.458,214.583 84.208,214.583 81.458 L 214.583 76.458 211.458 76.458 L 208.333 76.458 208.333 92.292 M238.542 92.292 L 238.542 108.125 249.063 108.125 L 259.583 108.125 259.583 105.000 L 259.583 101.875 252.182 101.875 L 244.782 101.875 244.839 98.385 L 244.896 94.896 250.990 94.841 L 257.083 94.785 257.083 91.664 L 257.083 88.542 250.938 88.542 L 244.792 88.542 244.792 85.625 L 244.792 82.708 252.188 82.708 L 259.583 82.708 259.583 79.583 L 259.583 76.458 249.063 76.458 L 238.542 76.458 238.542 92.292 M264.792 79.583 L 264.792 82.708 269.167 82.708 L 273.542 82.708 273.542 95.417 L 273.542 108.125 276.667 108.125 L 279.792 108.125 279.792 95.417 L 279.792 82.708 284.167 82.708 L 288.542 82.708 288.542 79.583 L 288.542 76.458 276.667 76.458 L 264.792 76.458 264.792 79.583 M156.555 82.611 C 163.999 84.550,166.546 93.825,161.123 99.248 C 155.661 104.710,146.434 102.160,144.477 94.647 C 142.610 87.479,149.372 80.740,156.555 82.611 M125.000 83.177 C 126.428 84.152,126.892 86.177,125.990 87.502 C 124.999 88.957,124.701 89.055,121.027 89.133 L 117.708 89.203 117.708 85.956 L 117.708 82.708 121.011 82.708 C 124.093 82.708,124.359 82.740,125.000 83.177 M233.475 116.472 C 222.099 117.779,215.576 129.967,220.749 140.248 C 221.330 141.400,221.848 142.144,223.461 144.141 C 223.496 144.184,223.880 144.079,224.314 143.907 C 224.749 143.736,225.667 143.527,226.354 143.444 C 227.042 143.361,228.471 142.962,229.530 142.557 L 231.455 141.821 230.467 141.203 C 224.065 137.194,224.487 127.354,231.204 124.011 C 234.356 122.443,237.199 122.524,241.176 124.296 C 241.668 124.516,245.415 119.939,245.065 119.546 C 243.416 117.692,237.199 116.044,233.475 116.472 M135.440 116.774 C 130.557 118.146,127.763 122.210,128.487 126.885 C 129.120 130.974,131.381 133.170,136.817 134.975 C 142.395 136.827,144.113 139.092,141.919 141.700 C 140.158 143.793,135.019 143.032,131.814 140.205 L 130.815 139.324 129.494 140.547 C 127.670 142.238,127.801 142.424,130.938 142.594 C 132.177 142.661,133.201 142.850,133.958 143.152 C 134.943 143.544,135.532 143.611,138.145 143.627 C 140.142 143.639,141.287 143.730,141.481 143.891 C 142.524 144.756,146.585 145.764,147.111 145.287 C 148.456 144.070,149.392 140.609,148.997 138.311 C 148.223 133.792,144.784 130.815,137.920 128.720 C 135.155 127.877,134.033 126.265,134.930 124.429 C 136.066 122.104,139.800 122.140,143.644 124.512 C 144.508 125.045,145.269 125.425,145.337 125.358 C 145.404 125.290,146.149 124.127,146.992 122.774 L 148.525 120.313 147.981 119.863 C 144.743 117.186,139.003 115.773,135.440 116.774 M167.587 119.208 C 166.940 120.503,163.655 126.967,160.288 133.572 C 153.229 147.421,153.916 145.741,155.156 146.118 C 155.701 146.283,156.802 146.700,157.604 147.043 C 160.017 148.078,159.824 148.168,161.331 145.313 L 162.651 142.813 169.297 142.758 L 175.943 142.703 177.117 145.257 L 178.291 147.811 179.823 148.168 C 181.455 148.548,185.105 148.669,185.302 148.350 C 185.367 148.245,182.108 141.143,178.060 132.569 L 170.700 116.979 169.732 116.916 L 168.765 116.853 167.587 119.208 M189.375 127.769 C 189.375 139.851,189.380 139.905,190.745 142.502 C 192.620 146.070,194.602 147.472,198.064 147.678 C 207.111 148.216,209.910 147.220,212.326 142.604 C 213.744 139.896,213.750 139.831,213.750 127.730 L 213.750 116.875 210.625 116.875 L 207.500 116.875 207.500 127.359 C 207.500 139.154,207.517 139.004,205.982 140.748 C 203.233 143.870,198.205 143.219,196.180 139.479 C 195.736 138.659,195.728 138.471,195.670 127.760 L 195.611 116.875 192.493 116.875 L 189.375 116.875 189.375 127.769 M251.458 128.021 C 251.458 134.151,251.482 139.166,251.510 139.164 C 251.539 139.163,252.005 139.028,252.547 138.863 C 253.088 138.699,254.217 138.565,255.055 138.565 C 257.470 138.565,257.677 138.424,257.751 136.728 L 257.813 135.313 263.906 135.257 L 270.000 135.202 270.000 132.080 L 270.000 128.958 263.854 128.958 L 257.708 128.958 257.708 126.042 L 257.708 123.125 265.208 123.125 L 272.708 123.125 272.708 120.000 L 272.708 116.875 262.083 116.875 L 251.458 116.875 251.458 128.021 M171.278 132.806 C 172.153 134.688,172.817 136.280,172.754 136.343 C 172.612 136.486,166.042 136.498,166.042 136.356 C 166.042 136.148,169.477 129.375,169.580 129.379 C 169.639 129.382,170.403 130.924,171.278 132.806 M199.603 206.639 C 199.351 206.994,198.720 208.199,198.201 209.319 C 197.683 210.438,196.805 212.292,196.251 213.438 C 195.697 214.583,195.087 216.083,194.896 216.771 C 194.627 217.737,192.940 223.106,192.392 224.740 C 192.335 224.909,192.520 225.000,192.919 225.000 C 193.421 225.000,193.556 224.895,193.655 224.427 C 194.382 221.000,195.719 216.903,196.868 214.583 C 197.294 213.724,198.146 211.779,198.761 210.260 C 199.376 208.742,199.990 207.500,200.124 207.500 C 200.884 207.500,204.931 218.901,206.133 224.427 C 206.216 224.806,206.391 225.000,206.651 225.000 C 207.027 225.000,207.023 224.923,206.538 223.177 C 206.259 222.174,205.796 220.434,205.509 219.309 C 204.924 217.023,204.058 214.773,201.905 209.952 C 199.952 205.577,200.153 205.867,199.603 206.639 M202.188 219.792 C 201.815 219.952,201.831 219.972,202.331 219.985 C 202.640 219.993,202.950 219.906,203.021 219.792 C 203.175 219.543,202.766 219.543,202.188 219.792 M202.344 221.185 C 202.544 221.238,202.872 221.238,203.073 221.185 C 203.273 221.133,203.109 221.090,202.708 221.090 C 202.307 221.090,202.143 221.133,202.344 221.185 M202.396 222.083 L 201.771 222.242 202.396 222.246 C 202.740 222.248,203.255 222.175,203.542 222.083 L 204.063 221.917 203.542 221.920 C 203.255 221.923,202.740 221.996,202.396 222.083 M202.188 223.125 L 201.563 223.284 202.292 223.284 C 202.693 223.284,203.302 223.212,203.646 223.125 L 204.271 222.966 203.542 222.966 C 203.141 222.966,202.531 223.038,202.188 223.125 M202.873 224.151 C 202.334 224.226,201.834 224.347,201.762 224.418 C 201.606 224.575,203.186 224.400,204.063 224.164 C 204.802 223.965,204.248 223.959,202.873 224.151 " stroke="none" fill="#f9f9f9" fill-rule="evenodd"></path><path id="path1" d="M0.000 112.500 L 0.000 225.000 96.048 225.000 C 172.708 225.000,192.112 224.947,192.172 224.740 C 192.213 224.596,192.717 223.026,193.292 221.250 C 193.866 219.474,194.492 217.458,194.681 216.771 C 195.260 214.670,199.509 205.971,200.000 205.881 C 200.224 205.839,200.841 207.022,202.175 210.047 C 204.719 215.816,205.088 216.808,206.054 220.467 C 206.516 222.215,206.990 223.951,207.109 224.323 L 207.324 225.000 303.662 225.000 L 400.000 225.000 400.000 112.500 L 400.000 0.000 200.000 0.000 L 0.000 0.000 0.000 112.500 M157.708 76.179 C 167.810 78.248,173.490 89.750,169.051 99.148 C 163.515 110.869,147.301 112.080,140.327 101.294 C 132.254 88.806,143.066 73.182,157.708 76.179 M196.354 76.345 C 198.357 76.886,202.292 78.885,202.292 79.361 C 202.292 79.444,201.395 80.558,200.300 81.836 L 198.308 84.161 197.253 83.626 C 191.698 80.811,184.765 83.826,183.228 89.725 C 181.050 98.087,189.437 104.945,197.112 101.079 L 198.703 100.277 200.653 102.532 C 203.037 105.290,202.960 104.938,201.407 105.984 C 190.475 113.344,175.771 105.557,175.752 92.396 C 175.736 81.576,186.033 73.553,196.354 76.345 M125.250 76.481 C 133.405 78.189,135.594 89.213,128.680 93.759 L 127.349 94.634 130.446 101.305 C 132.148 104.975,133.542 108.057,133.542 108.155 C 133.542 108.456,126.958 108.376,126.730 108.073 C 126.622 107.930,125.236 105.023,123.650 101.615 L 120.767 95.417 119.238 95.417 L 117.708 95.417 117.708 101.771 L 117.708 108.125 114.479 108.125 L 111.250 108.125 111.250 92.188 L 111.250 76.250 117.698 76.250 C 121.619 76.250,124.579 76.341,125.250 76.481 M214.840 81.283 L 214.896 86.317 219.454 81.283 L 224.011 76.250 228.273 76.250 C 230.922 76.250,232.508 76.326,232.465 76.451 C 232.427 76.562,230.005 79.332,227.083 82.606 C 224.161 85.881,221.748 88.673,221.719 88.811 C 221.691 88.949,224.187 93.328,227.266 98.542 L 232.864 108.021 229.199 108.078 C 227.184 108.109,225.436 108.097,225.315 108.051 C 225.194 108.004,223.316 104.773,221.141 100.871 L 217.188 93.776 215.990 94.954 L 214.792 96.133 214.792 102.129 L 214.792 108.125 211.563 108.125 L 208.333 108.125 208.333 92.188 L 208.333 76.250 211.559 76.250 L 214.784 76.250 214.840 81.283 M259.745 79.531 L 259.803 82.708 252.401 82.708 L 245.000 82.708 245.000 85.625 L 245.000 88.542 251.042 88.542 L 257.083 88.542 257.083 91.771 L 257.083 95.000 251.042 95.000 L 245.000 95.000 245.000 98.333 L 245.000 101.667 252.297 101.667 L 259.594 101.667 259.537 104.948 L 259.479 108.229 248.958 108.229 L 238.438 108.229 238.384 92.500 C 238.354 83.849,238.375 76.653,238.430 76.509 C 238.509 76.301,240.757 76.258,249.109 76.300 L 259.688 76.354 259.745 79.531 M288.750 79.479 L 288.750 82.708 284.377 82.708 L 280.003 82.708 279.950 95.469 L 279.896 108.229 276.720 108.287 L 273.545 108.344 273.491 95.578 L 273.438 82.813 269.010 82.756 L 264.583 82.700 264.583 79.475 L 264.583 76.250 276.667 76.250 L 288.750 76.250 288.750 79.479 M151.354 82.793 C 144.042 85.115,141.860 94.165,147.370 99.320 C 155.479 106.905,167.818 97.586,162.793 87.670 C 160.795 83.728,155.508 81.473,151.354 82.793 M117.708 85.833 L 117.708 88.958 120.889 88.958 C 125.256 88.958,126.785 87.967,126.354 85.415 C 125.994 83.287,124.793 82.708,120.736 82.708 L 117.708 82.708 117.708 85.833 M142.397 116.890 C 144.464 117.527,148.542 119.743,148.542 120.229 C 148.542 120.402,145.741 125.100,145.410 125.483 C 145.329 125.577,144.758 125.332,144.142 124.939 C 139.401 121.913,134.792 122.162,134.792 125.443 C 134.792 127.270,135.372 127.756,138.983 128.957 C 146.069 131.313,149.355 134.925,149.126 140.104 C 148.700 149.742,136.358 152.429,127.344 144.846 C 125.940 143.665,125.896 143.812,128.363 141.478 C 130.938 139.042,130.588 139.157,132.028 140.274 C 136.676 143.881,142.687 143.479,142.705 139.559 C 142.712 137.905,140.219 135.999,136.875 135.103 C 131.172 133.574,128.438 130.467,128.438 125.516 C 128.438 118.715,135.054 114.626,142.397 116.890 M239.479 116.761 C 241.526 117.315,245.417 119.304,245.417 119.796 C 245.417 119.889,244.518 121.002,243.420 122.269 L 241.423 124.573 240.373 124.041 C 234.823 121.228,227.889 124.246,226.353 130.142 C 224.175 138.503,232.567 145.360,240.244 141.492 L 241.843 140.686 243.838 142.984 C 246.190 145.692,246.116 145.397,244.688 146.344 C 235.142 152.681,222.167 147.895,219.383 137.010 C 216.255 124.780,227.443 113.506,239.479 116.761 M178.158 132.500 C 182.251 141.151,185.605 148.349,185.612 148.495 C 185.622 148.702,184.859 148.748,182.135 148.703 L 178.646 148.646 178.125 147.604 C 177.838 147.031,177.195 145.695,176.695 144.635 L 175.787 142.708 169.300 142.711 L 162.813 142.713 161.250 145.729 L 159.688 148.745 156.210 148.747 C 154.298 148.749,152.696 148.680,152.650 148.594 C 152.604 148.508,154.009 145.625,155.771 142.188 C 157.533 138.750,161.183 131.597,163.881 126.291 L 168.786 116.645 169.752 116.708 L 170.717 116.771 178.158 132.500 M195.625 127.046 C 195.625 135.645,195.678 137.604,195.936 138.472 C 197.452 143.577,204.528 144.118,206.857 139.307 C 207.309 138.374,207.316 138.219,207.356 127.566 L 207.396 116.771 210.625 116.771 L 213.854 116.771 213.908 127.244 C 213.953 135.868,213.907 137.982,213.652 139.223 C 211.259 150.833,195.702 152.772,190.417 142.118 C 189.227 139.719,189.174 139.092,189.170 127.344 L 189.167 116.667 192.396 116.667 L 195.625 116.667 195.625 127.046 M272.708 119.896 L 272.708 123.125 265.313 123.125 L 257.917 123.125 257.917 126.042 L 257.917 128.958 264.063 128.958 L 270.208 128.958 270.208 132.188 L 270.208 135.417 264.063 135.417 L 257.917 135.417 257.917 138.750 L 257.917 142.083 265.208 142.083 L 272.500 142.083 272.500 145.417 L 272.500 148.750 261.979 148.750 L 251.458 148.750 251.458 132.708 L 251.458 116.667 262.083 116.667 L 272.708 116.667 272.708 119.896 M167.861 132.814 C 166.975 134.591,166.250 136.091,166.250 136.148 C 166.250 136.204,167.703 136.250,169.479 136.250 C 171.255 136.250,172.708 136.212,172.708 136.165 C 172.708 136.018,169.612 129.583,169.541 129.583 C 169.503 129.583,168.748 131.037,167.861 132.814 M199.472 209.102 C 199.150 209.882,198.144 212.208,197.238 214.271 C 195.804 217.533,194.682 220.920,193.874 224.427 L 193.742 225.000 197.696 225.000 C 199.870 225.000,202.375 224.892,203.262 224.760 C 204.479 224.579,204.894 224.579,204.955 224.760 C 205.147 225.338,206.055 225.025,205.922 224.427 C 204.814 219.433,201.202 208.954,200.210 207.852 C 200.126 207.759,199.794 208.321,199.472 209.102 M202.771 217.604 C 202.794 217.719,202.508 217.842,202.135 217.878 C 201.429 217.946,201.188 217.603,201.823 217.433 C 202.343 217.294,202.724 217.363,202.771 217.604 M203.125 218.733 C 203.125 218.977,201.957 219.242,201.668 219.064 C 201.549 218.990,201.505 218.842,201.571 218.736 C 201.727 218.484,203.125 218.482,203.125 218.733 M203.480 219.712 C 203.582 220.018,201.876 220.293,201.598 220.015 C 201.384 219.800,201.528 219.710,202.396 219.513 C 203.003 219.376,203.392 219.447,203.480 219.712 M203.799 221.076 C 203.479 221.396,201.250 221.584,201.250 221.291 C 201.250 221.007,201.736 220.887,203.010 220.858 C 203.795 220.839,203.984 220.891,203.799 221.076 M204.054 221.861 C 204.237 222.158,203.899 222.282,202.518 222.427 C 201.263 222.558,200.644 222.221,201.719 221.991 C 201.977 221.936,202.375 221.852,202.604 221.803 C 203.366 221.642,203.932 221.664,204.054 221.861 M204.375 222.894 C 204.375 223.316,201.403 223.750,201.164 223.363 C 201.084 223.233,201.227 223.093,201.502 223.033 C 203.002 222.706,204.375 222.640,204.375 222.894 M196.354 223.333 C 196.425 223.448,196.290 223.542,196.054 223.542 C 195.818 223.542,195.625 223.448,195.625 223.333 C 195.625 223.219,195.760 223.125,195.925 223.125 C 196.090 223.125,196.283 223.219,196.354 223.333 M204.681 223.947 C 204.862 224.241,203.399 224.582,201.979 224.576 C 200.451 224.570,200.814 224.246,202.650 223.977 C 204.351 223.728,204.543 223.725,204.681 223.947 M196.146 224.375 C 196.217 224.490,196.087 224.583,195.858 224.583 C 195.629 224.583,195.383 224.490,195.313 224.375 C 195.242 224.260,195.371 224.167,195.600 224.167 C 195.830 224.167,196.075 224.260,196.146 224.375 " stroke="none" fill="#343434" fill-rule="evenodd"></path><path id="path2" d="M256.803 138.475 C 256.726 138.552,255.817 138.636,254.784 138.662 C 253.555 138.692,252.656 138.826,252.182 139.051 L 251.458 139.395 251.458 143.968 L 251.458 148.542 261.979 148.542 L 272.500 148.542 272.500 145.417 L 272.500 142.292 265.208 142.292 L 257.917 142.292 257.917 140.313 C 257.917 138.332,257.550 137.727,256.803 138.475 M240.288 141.560 C 237.965 142.807,235.266 142.974,232.186 142.063 C 231.438 141.842,231.234 141.870,230.207 142.336 C 228.659 143.040,227.874 143.267,226.086 143.532 C 223.447 143.922,223.295 144.187,224.948 145.504 C 230.753 150.131,239.056 150.359,244.959 146.052 L 245.855 145.398 243.902 143.180 C 241.607 140.574,241.889 140.701,240.288 141.560 M127.014 142.881 L 126.235 143.679 127.232 144.608 C 130.558 147.710,134.081 149.057,138.870 149.060 L 141.802 149.063 143.557 148.191 C 144.523 147.711,145.671 146.950,146.109 146.500 L 146.905 145.681 144.996 145.219 C 143.946 144.964,142.510 144.480,141.804 144.143 C 140.550 143.545,140.468 143.534,138.217 143.665 C 136.082 143.790,135.778 143.758,134.051 143.225 C 132.783 142.834,131.673 142.640,130.575 142.619 C 129.631 142.601,128.858 142.483,128.711 142.336 C 128.280 141.905,127.823 142.053,127.014 142.881 M153.336 147.077 C 152.991 147.762,152.708 148.373,152.708 148.436 C 152.708 148.696,159.861 148.440,159.948 148.177 C 159.996 148.034,159.884 147.917,159.700 147.917 C 159.516 147.917,158.735 147.626,157.964 147.271 C 156.549 146.620,154.455 145.833,154.137 145.833 C 154.042 145.833,153.682 146.393,153.336 147.077 M206.250 147.519 C 204.587 147.934,201.511 148.013,197.751 147.738 C 195.480 147.571,195.562 147.834,198.021 148.596 C 200.825 149.464,204.458 149.143,207.127 147.791 C 208.718 146.984,208.573 146.939,206.250 147.519 M178.463 148.220 C 178.555 148.461,178.883 148.537,179.762 148.524 C 180.988 148.505,180.789 148.357,179.118 148.044 C 178.467 147.923,178.360 147.952,178.463 148.220 " stroke="none" fill="#fa3636" fill-rule="evenodd"></path><path id="path3" d="M209.958 76.405 C 210.909 76.444,212.409 76.444,213.291 76.405 C 214.174 76.366,213.396 76.334,211.563 76.334 C 209.729 76.335,209.007 76.366,209.958 76.405 M226.105 76.406 C 227.343 76.442,229.312 76.442,230.480 76.405 C 231.648 76.368,230.635 76.338,228.229 76.338 C 225.823 76.338,224.867 76.369,226.105 76.406 M238.429 76.510 C 238.375 76.654,238.354 83.849,238.384 92.500 L 238.438 108.229 248.906 108.232 L 259.375 108.235 248.958 108.178 L 238.542 108.121 238.542 92.292 L 238.542 76.462 249.115 76.406 L 259.688 76.350 249.108 76.300 C 240.799 76.261,238.507 76.306,238.429 76.510 M270.573 76.406 C 273.924 76.438,279.409 76.438,282.760 76.406 C 286.112 76.374,283.370 76.348,276.667 76.348 C 269.964 76.348,267.221 76.374,270.573 76.406 M153.597 82.441 C 153.913 82.489,154.382 82.488,154.638 82.438 C 154.895 82.389,154.635 82.350,154.063 82.351 C 153.490 82.353,153.280 82.393,153.597 82.441 M244.874 85.729 C 244.874 87.333,244.907 87.962,244.947 87.126 C 244.986 86.291,244.986 84.978,244.946 84.210 C 244.906 83.441,244.874 84.125,244.874 85.729 M137.557 92.292 C 137.557 92.807,137.597 93.018,137.647 92.760 C 137.697 92.503,137.697 92.081,137.647 91.823 C 137.597 91.565,137.557 91.776,137.557 92.292 M215.930 94.844 L 214.896 95.938 215.990 94.904 C 216.591 94.335,217.083 93.843,217.083 93.810 C 217.083 93.654,216.890 93.827,215.930 94.844 M244.888 98.333 L 244.896 101.771 252.188 101.775 L 259.479 101.779 252.245 101.720 L 245.010 101.661 244.945 98.279 L 244.879 94.896 244.888 98.333 M146.458 98.607 C 146.458 98.643,146.763 98.947,147.135 99.284 L 147.813 99.896 147.201 99.219 C 146.630 98.588,146.458 98.446,146.458 98.607 M128.490 108.280 C 129.435 108.319,130.982 108.319,131.927 108.280 C 132.872 108.241,132.099 108.210,130.208 108.210 C 128.318 108.210,127.544 108.241,128.490 108.280 M275.052 108.280 C 275.940 108.319,277.393 108.319,278.281 108.280 C 279.169 108.241,278.443 108.209,276.667 108.209 C 274.891 108.209,274.164 108.241,275.052 108.280 M168.673 116.831 C 168.617 116.922,168.916 116.964,169.338 116.924 C 170.626 116.802,170.778 116.716,169.752 116.691 C 169.214 116.678,168.729 116.741,168.673 116.831 M190.791 116.822 C 191.742 116.861,193.242 116.860,194.124 116.821 C 195.007 116.782,194.229 116.751,192.396 116.751 C 190.563 116.751,189.840 116.783,190.791 116.822 M207.389 116.922 C 207.333 117.068,207.313 121.641,207.344 127.083 L 207.400 136.979 207.450 126.927 L 207.500 116.875 210.623 116.875 L 213.746 116.875 213.803 126.823 L 213.860 136.771 213.857 126.771 L 213.854 116.771 210.673 116.713 C 208.242 116.669,207.467 116.719,207.389 116.922 M256.719 116.823 C 259.669 116.855,264.497 116.855,267.448 116.823 C 270.398 116.790,267.984 116.763,262.083 116.763 C 256.182 116.763,253.768 116.790,256.719 116.823 M270.084 132.188 C 270.085 134.021,270.116 134.743,270.155 133.792 C 270.194 132.841,270.194 131.341,270.155 130.459 C 270.116 129.576,270.084 130.354,270.084 132.188 M130.208 131.315 C 130.208 131.351,130.513 131.656,130.885 131.992 L 131.563 132.604 130.951 131.927 C 130.380 131.296,130.208 131.154,130.208 131.315 M261.510 142.239 C 263.544 142.273,266.872 142.273,268.906 142.239 C 270.940 142.205,269.276 142.177,265.208 142.177 C 261.141 142.177,259.477 142.205,261.510 142.239 M126.250 143.815 C 126.250 143.851,126.555 144.156,126.927 144.492 L 127.604 145.104 126.992 144.427 C 126.422 143.796,126.250 143.654,126.250 143.815 M152.682 148.599 C 152.771 148.688,154.430 148.734,156.370 148.703 L 159.896 148.645 156.208 148.541 C 154.179 148.484,152.593 148.510,152.682 148.599 M180.479 148.697 C 181.487 148.735,183.081 148.735,184.021 148.696 C 184.960 148.658,184.135 148.627,182.188 148.627 C 180.240 148.627,179.471 148.659,180.479 148.697 M256.733 148.698 C 259.692 148.730,264.473 148.730,267.358 148.698 C 270.244 148.665,267.823 148.638,261.979 148.638 C 256.135 148.638,253.775 148.665,256.733 148.698 M201.562 219.793 C 201.406 220.044,201.959 220.292,202.337 220.140 C 202.484 220.081,202.370 220.024,202.083 220.013 C 201.668 219.998,201.626 219.953,201.875 219.792 C 202.063 219.670,202.088 219.588,201.939 219.587 C 201.803 219.585,201.633 219.678,201.562 219.793 M203.526 221.820 C 203.929 221.892,203.971 221.951,203.734 222.117 C 203.518 222.267,203.513 222.303,203.714 222.250 C 204.165 222.131,204.009 221.772,203.496 221.751 C 203.065 221.732,203.067 221.739,203.526 221.820 M201.250 222.338 C 201.250 222.427,201.625 222.500,202.083 222.500 C 202.542 222.500,202.917 222.463,202.917 222.418 C 202.917 222.372,202.542 222.300,202.083 222.256 C 201.625 222.212,201.250 222.249,201.250 222.338 M201.229 223.396 C 201.326 223.493,201.722 223.539,202.109 223.500 C 202.795 223.429,202.791 223.425,201.933 223.323 C 201.449 223.266,201.132 223.299,201.229 223.396 M203.750 224.664 C 203.750 224.708,204.031 224.786,204.375 224.836 C 204.719 224.887,205.000 224.850,205.000 224.756 C 205.000 224.661,204.719 224.583,204.375 224.583 C 204.031 224.583,203.750 224.620,203.750 224.664 " stroke="none" fill="#7c7676" fill-rule="evenodd"></path><path id="path4" d="M111.346 76.510 C 111.291 76.654,111.271 83.849,111.302 92.500 L 111.357 108.229 111.408 92.347 L 111.458 76.464 117.760 76.406 L 124.063 76.348 117.754 76.299 C 112.862 76.261,111.423 76.308,111.346 76.510 M214.673 81.458 C 214.673 84.266,214.703 85.414,214.739 84.010 C 214.775 82.607,214.775 80.310,214.739 78.906 C 214.703 77.503,214.673 78.651,214.673 81.458 M264.667 79.583 C 264.667 81.359,264.699 82.086,264.738 81.198 C 264.777 80.310,264.777 78.857,264.738 77.969 C 264.699 77.081,264.667 77.807,264.667 79.583 M288.626 79.583 C 288.626 81.359,288.657 82.086,288.697 81.198 C 288.736 80.310,288.736 78.857,288.697 77.969 C 288.657 77.081,288.626 77.807,288.626 79.583 M142.383 80.677 L 141.771 81.354 142.448 80.742 C 142.820 80.406,143.125 80.101,143.125 80.065 C 143.125 79.904,142.953 80.046,142.383 80.677 M132.757 85.833 C 132.757 86.234,132.800 86.398,132.852 86.198 C 132.904 85.997,132.904 85.669,132.852 85.469 C 132.800 85.268,132.757 85.432,132.757 85.833 M119.228 89.113 C 120.122 89.153,121.528 89.152,122.353 89.113 C 123.179 89.073,122.448 89.041,120.729 89.042 C 119.010 89.042,118.335 89.074,119.228 89.113 M170.485 92.188 C 170.486 92.990,170.524 93.292,170.569 92.860 C 170.614 92.428,170.613 91.771,170.567 91.402 C 170.521 91.032,170.484 91.385,170.485 92.188 M182.771 92.292 C 182.771 92.922,182.810 93.180,182.858 92.865 C 182.905 92.549,182.905 92.034,182.858 91.719 C 182.810 91.404,182.771 91.661,182.771 92.292 M247.969 94.947 C 249.659 94.982,252.424 94.982,254.115 94.947 C 255.805 94.912,254.422 94.884,251.042 94.884 C 247.661 94.884,246.279 94.912,247.969 94.947 M214.675 102.083 C 214.675 105.464,214.704 106.846,214.739 105.156 C 214.774 103.466,214.774 100.701,214.739 99.010 C 214.704 97.320,214.675 98.703,214.675 102.083 M153.802 102.227 C 154.003 102.279,154.331 102.279,154.531 102.227 C 154.732 102.175,154.568 102.132,154.167 102.132 C 153.766 102.132,153.602 102.175,153.802 102.227 M165.614 103.906 L 164.896 104.688 165.677 103.970 C 166.404 103.301,166.554 103.125,166.395 103.125 C 166.360 103.125,166.009 103.477,165.614 103.906 M137.867 116.397 C 138.126 116.447,138.501 116.445,138.700 116.393 C 138.900 116.341,138.688 116.300,138.229 116.303 C 137.771 116.305,137.608 116.348,137.867 116.397 M189.263 127.292 C 189.263 133.078,189.290 135.445,189.323 132.552 C 189.355 129.659,189.355 124.924,189.323 122.031 C 189.290 119.138,189.263 121.505,189.263 127.292 M257.791 126.042 C 257.791 127.703,257.823 128.383,257.863 127.552 C 257.903 126.721,257.903 125.362,257.863 124.531 C 257.823 123.701,257.791 124.380,257.791 126.042 M225.893 132.813 C 225.894 133.385,225.935 133.595,225.983 133.278 C 226.031 132.962,226.029 132.493,225.980 132.237 C 225.931 131.980,225.891 132.240,225.893 132.813 M257.816 135.469 C 257.651 135.962,257.604 138.334,257.760 138.334 C 257.846 138.334,257.917 137.678,257.917 136.878 L 257.917 135.423 264.010 135.364 L 270.104 135.306 264.004 135.257 C 259.274 135.219,257.884 135.267,257.816 135.469 M169.375 136.250 L 165.938 136.370 169.311 136.414 C 171.384 136.441,172.733 136.378,172.813 136.250 C 172.883 136.135,172.912 136.062,172.877 136.086 C 172.841 136.110,171.266 136.184,169.375 136.250 M199.219 147.852 C 199.419 147.904,199.747 147.904,199.948 147.852 C 200.148 147.800,199.984 147.757,199.583 147.757 C 199.182 147.757,199.018 147.800,199.219 147.852 M203.125 221.042 C 203.529 221.303,203.750 221.303,203.750 221.042 C 203.750 220.927,203.539 220.835,203.281 220.837 C 202.902 220.839,202.872 220.878,203.125 221.042 M201.563 221.250 C 201.486 221.374,201.714 221.452,202.123 221.444 C 202.698 221.431,202.743 221.399,202.396 221.250 C 201.831 221.007,201.713 221.007,201.563 221.250 M201.515 224.340 C 201.375 224.426,201.641 224.510,202.115 224.529 C 203.045 224.566,203.096 224.501,202.290 224.309 C 202.003 224.240,201.654 224.254,201.515 224.340 " stroke="none" fill="#949494" fill-rule="evenodd"></path><path id="path5" d="M259.667 79.583 C 259.667 81.359,259.699 82.086,259.738 81.198 C 259.777 80.310,259.777 78.857,259.738 77.969 C 259.699 77.081,259.667 77.807,259.667 79.583 M279.890 95.521 C 279.890 102.510,279.916 105.340,279.948 101.808 C 279.980 98.276,279.980 92.557,279.948 89.100 C 279.916 85.642,279.890 88.531,279.890 95.521 " stroke="none" fill="#8c8c8c" fill-rule="evenodd"></path></g></svg>