<svg id="svg" version="1.1" xmlns="http://www.w3.org/2000/svg" xmlns:xlink="http://www.w3.org/1999/xlink" width="400" height="225" viewBox="0, 0, 400,225"><g id="svgg"><path id="path0" d="M151.042 76.136 C 140.238 78.468,134.650 89.740,139.470 99.479 C 147.124 114.944,170.417 109.456,170.417 92.187 C 170.417 81.978,160.818 74.026,151.042 76.136 M190.474 76.053 C 178.967 77.228,172.364 89.642,177.731 100.010 C 182.143 108.535,193.234 111.318,201.345 105.934 C 201.980 105.513,202.500 105.079,202.500 104.970 C 202.500 104.718,198.707 100.390,198.553 100.466 C 198.489 100.498,197.922 100.795,197.292 101.126 C 190.010 104.959,181.570 98.884,182.897 90.765 C 183.973 84.175,191.298 80.476,197.247 83.518 C 198.328 84.071,198.073 84.228,200.390 81.582 L 202.300 79.401 201.354 78.750 C 198.372 76.698,194.223 75.670,190.474 76.053 M111.458 92.281 L 111.458 108.125 114.583 108.125 L 117.708 108.125 117.708 101.771 L 117.708 95.417 119.323 95.423 L 120.938 95.430 123.854 101.771 L 126.771 108.113 130.134 108.119 L 133.496 108.125 130.394 101.444 C 126.851 93.815,127.094 94.547,127.969 94.126 C 134.614 90.924,134.106 80.530,127.143 77.232 L 125.729 76.563 118.594 76.500 L 111.458 76.438 111.458 92.281 M208.333 92.292 L 208.333 108.125 211.458 108.125 L 214.583 108.125 214.583 102.129 L 214.583 96.133 215.846 94.889 C 216.954 93.798,217.138 93.687,217.356 93.985 C 217.493 94.171,219.337 97.429,221.455 101.224 L 225.306 108.125 229.007 108.125 C 231.043 108.125,232.708 108.089,232.708 108.044 C 232.708 108.000,230.285 103.852,227.323 98.826 C 224.362 93.800,221.827 89.476,221.690 89.216 C 221.458 88.777,221.795 88.351,226.719 82.862 C 229.622 79.627,232.069 76.862,232.157 76.719 C 232.282 76.514,231.428 76.458,228.145 76.458 L 223.974 76.458 219.440 81.458 C 216.947 84.208,214.834 86.458,214.745 86.458 C 214.656 86.458,214.583 84.208,214.583 81.458 L 214.583 76.458 211.458 76.458 L 208.333 76.458 208.333 92.292 M238.542 92.292 L 238.542 108.125 249.063 108.125 L 259.583 108.125 259.583 105.000 L 259.583 101.875 252.182 101.875 L 244.782 101.875 244.839 98.385 L 244.896 94.896 250.990 94.841 L 257.083 94.785 257.083 91.664 L 257.083 88.542 250.938 88.542 L 244.792 88.542 244.792 85.625 L 244.792 82.708 252.188 82.708 L 259.583 82.708 259.583 79.583 L 259.583 76.458 249.063 76.458 L 238.542 76.458 238.542 92.292 M264.792 79.583 L 264.792 82.708 269.167 82.708 L 273.542 82.708 273.542 95.417 L 273.542 108.125 276.667 108.125 L 279.792 108.125 279.792 95.417 L 279.792 82.708 284.167 82.708 L 288.542 82.708 288.542 79.583 L 288.542 76.458 276.667 76.458 L 264.792 76.458 264.792 79.583 M156.555 82.611 C 164.007 84.552,166.551 93.820,161.123 99.248 C 155.655 104.717,146.437 102.169,144.477 94.647 C 142.607 87.466,149.359 80.737,156.555 82.611 M125.021 83.181 C 126.432 84.124,126.892 86.176,125.990 87.502 C 124.999 88.958,124.702 89.055,121.027 89.129 L 117.708 89.195 117.708 85.952 L 117.708 82.708 121.011 82.708 C 124.097 82.708,124.360 82.739,125.021 83.181 M233.599 116.469 C 222.211 117.633,215.557 129.930,220.741 140.232 C 225.095 148.883,236.302 151.773,244.470 146.351 C 245.105 145.929,245.625 145.496,245.625 145.387 C 245.625 145.135,241.832 140.807,241.678 140.883 C 241.614 140.914,241.047 141.211,240.417 141.543 C 233.092 145.398,224.739 139.358,226.037 131.146 C 227.069 124.617,234.447 120.905,240.372 123.934 C 241.453 124.487,241.199 124.644,243.512 122.002 L 245.419 119.824 244.856 119.381 C 242.285 117.359,237.360 116.085,233.599 116.469 M135.440 116.774 C 129.469 118.452,126.714 124.313,129.365 129.698 C 130.580 132.167,132.557 133.561,136.875 134.994 C 142.574 136.885,144.344 139.497,141.635 142.017 C 139.765 143.756,134.805 142.844,131.822 140.212 L 130.832 139.338 128.534 141.475 L 126.236 143.612 126.915 144.313 C 133.356 150.957,144.699 150.637,148.107 143.714 C 151.254 137.321,147.362 131.594,137.917 128.721 C 133.158 127.273,133.585 122.730,138.482 122.713 C 140.143 122.707,141.353 123.121,143.498 124.430 C 144.497 125.039,145.298 125.403,145.397 125.294 C 145.491 125.189,146.238 124.001,147.057 122.653 L 148.545 120.202 147.137 119.295 C 143.220 116.772,138.821 115.824,135.440 116.774 M161.298 131.604 C 157.173 139.717,153.550 146.846,153.249 147.448 L 152.701 148.542 156.194 148.537 L 159.688 148.533 161.162 145.673 L 162.637 142.813 169.291 142.758 L 175.946 142.703 177.283 145.622 L 178.620 148.542 182.120 148.542 L 185.621 148.542 184.989 147.240 C 184.642 146.523,181.284 139.422,177.527 131.458 L 170.697 116.979 169.749 116.917 L 168.800 116.854 161.298 131.604 M189.375 127.730 C 189.375 139.783,189.387 139.908,190.757 142.521 C 195.280 151.150,207.845 151.150,212.368 142.521 C 213.738 139.908,213.750 139.783,213.750 127.730 L 213.750 116.875 210.625 116.875 L 207.500 116.875 207.500 127.359 C 207.500 139.154,207.517 139.004,205.982 140.748 C 203.137 143.980,197.852 143.138,196.058 139.167 C 195.650 138.264,195.634 137.835,195.630 127.552 L 195.625 116.875 192.500 116.875 L 189.375 116.875 189.375 127.730 M251.458 132.708 L 251.458 148.542 261.979 148.542 L 272.500 148.542 272.500 145.419 L 272.500 142.297 265.156 142.242 L 257.813 142.188 257.813 138.750 L 257.813 135.313 263.906 135.257 L 270.000 135.202 270.000 132.080 L 270.000 128.958 263.854 128.958 L 257.708 128.958 257.708 126.042 L 257.708 123.125 265.208 123.125 L 272.708 123.125 272.708 120.000 L 272.708 116.875 262.083 116.875 L 251.458 116.875 251.458 132.708 M171.278 132.806 C 172.153 134.688,172.817 136.280,172.754 136.343 C 172.612 136.486,166.042 136.498,166.042 136.356 C 166.042 136.148,169.477 129.375,169.580 129.379 C 169.639 129.382,170.403 130.924,171.278 132.806 M199.931 224.514 C 199.668 224.777,199.792 225.000,200.202 225.000 C 200.481 225.000,200.574 224.900,200.492 224.688 C 200.364 224.353,200.156 224.289,199.931 224.514 " stroke="none" fill="#fafafa" fill-rule="evenodd"></path><path id="path1" d="M0.000 112.500 L 0.000 225.000 99.726 225.000 L 199.452 225.000 199.915 224.566 L 200.377 224.131 200.515 224.566 L 200.653 225.000 300.327 225.000 L 400.000 225.000 400.000 112.500 L 400.000 0.000 200.000 0.000 L 0.000 0.000 0.000 112.500 M157.708 76.174 C 167.758 78.196,173.476 89.779,169.051 99.148 C 163.500 110.901,147.313 112.085,140.300 101.250 C 132.257 88.825,143.083 73.231,157.708 76.174 M196.354 76.345 C 198.364 76.888,202.292 78.885,202.292 79.363 C 202.292 79.448,201.392 80.560,200.292 81.835 L 198.292 84.153 197.245 83.622 C 191.698 80.811,184.763 83.831,183.228 89.725 C 181.048 98.094,189.430 104.948,197.112 101.079 L 198.703 100.277 200.653 102.532 C 203.037 105.290,202.960 104.938,201.407 105.984 C 190.475 113.344,175.771 105.557,175.752 92.396 C 175.736 81.576,186.033 73.553,196.354 76.345 M125.512 76.569 C 133.576 78.669,135.527 89.257,128.680 93.759 L 127.349 94.634 130.446 101.305 C 132.148 104.975,133.542 108.057,133.542 108.155 C 133.542 108.456,126.958 108.376,126.730 108.073 C 126.622 107.930,125.236 105.023,123.650 101.615 L 120.767 95.417 119.238 95.417 L 117.708 95.417 117.708 101.771 L 117.708 108.125 114.479 108.125 L 111.250 108.125 111.250 92.188 L 111.250 76.250 117.769 76.250 C 122.950 76.250,124.539 76.315,125.512 76.569 M214.840 81.281 L 214.896 86.311 219.460 81.281 L 224.024 76.250 228.280 76.250 C 230.924 76.250,232.508 76.326,232.465 76.451 C 232.427 76.562,230.005 79.332,227.083 82.606 C 224.161 85.881,221.748 88.673,221.719 88.811 C 221.691 88.949,224.187 93.328,227.266 98.542 L 232.864 108.021 229.199 108.078 C 227.184 108.109,225.437 108.097,225.317 108.051 C 225.197 108.005,223.318 104.774,221.143 100.871 L 217.188 93.774 215.990 94.953 L 214.792 96.133 214.792 102.129 L 214.792 108.125 211.563 108.125 L 208.333 108.125 208.333 92.188 L 208.333 76.250 211.559 76.250 L 214.784 76.250 214.840 81.281 M259.745 79.531 L 259.803 82.708 252.401 82.708 L 245.000 82.708 245.000 85.625 L 245.000 88.542 251.042 88.542 L 257.083 88.542 257.083 91.771 L 257.083 95.000 251.042 95.000 L 245.000 95.000 245.000 98.333 L 245.000 101.667 252.297 101.667 L 259.594 101.667 259.537 104.948 L 259.479 108.229 248.958 108.229 L 238.438 108.229 238.384 92.500 C 238.354 83.849,238.375 76.653,238.430 76.509 C 238.509 76.301,240.757 76.258,249.109 76.300 L 259.688 76.354 259.745 79.531 M288.750 79.479 L 288.750 82.708 284.377 82.708 L 280.003 82.708 279.950 95.469 L 279.896 108.229 276.719 108.287 L 273.542 108.344 273.542 95.526 L 273.542 82.708 269.063 82.708 L 264.583 82.708 264.583 79.479 L 264.583 76.250 276.667 76.250 L 288.750 76.250 288.750 79.479 M151.354 82.793 C 144.037 85.117,141.856 94.162,147.370 99.320 C 155.479 106.905,167.818 97.586,162.793 87.670 C 160.795 83.728,155.508 81.473,151.354 82.793 M117.708 85.833 L 117.708 88.958 120.889 88.958 C 125.256 88.958,126.785 87.967,126.354 85.415 C 125.994 83.287,124.793 82.708,120.736 82.708 L 117.708 82.708 117.708 85.833 M142.397 116.890 C 144.464 117.527,148.542 119.743,148.542 120.229 C 148.542 120.402,145.741 125.100,145.410 125.483 C 145.329 125.577,144.728 125.313,144.075 124.895 C 139.396 121.901,134.792 122.173,134.792 125.443 C 134.792 127.270,135.372 127.756,138.983 128.957 C 146.069 131.313,149.355 134.925,149.126 140.104 C 148.700 149.728,136.312 152.417,127.344 144.833 C 125.950 143.654,125.892 143.844,128.360 141.491 C 130.930 139.041,130.586 139.155,132.028 140.274 C 136.645 143.857,142.686 143.480,142.705 139.608 C 142.713 137.857,140.356 136.035,136.875 135.103 C 131.173 133.575,128.438 130.467,128.438 125.516 C 128.438 118.715,135.054 114.626,142.397 116.890 M239.479 116.761 C 241.526 117.315,245.417 119.304,245.417 119.796 C 245.417 119.889,244.518 121.002,243.420 122.269 L 241.423 124.573 240.373 124.041 C 234.823 121.228,227.889 124.246,226.353 130.142 C 224.175 138.505,232.560 145.362,240.237 141.495 L 241.828 140.694 243.778 142.949 C 246.162 145.707,246.085 145.355,244.532 146.401 C 235.160 152.711,222.153 147.841,219.376 136.983 C 216.255 124.780,227.458 113.510,239.479 116.761 M178.158 132.500 C 182.251 141.151,185.605 148.349,185.612 148.495 C 185.622 148.702,184.859 148.748,182.135 148.703 L 178.646 148.646 178.125 147.604 C 177.838 147.031,177.195 145.695,176.695 144.635 L 175.787 142.708 169.300 142.713 L 162.813 142.718 161.250 145.682 L 159.688 148.646 156.198 148.703 C 153.607 148.745,152.708 148.696,152.708 148.512 C 152.708 148.284,155.614 142.512,165.154 123.792 L 168.796 116.646 169.757 116.708 L 170.717 116.771 178.158 132.500 M195.625 127.046 C 195.625 135.645,195.678 137.604,195.936 138.472 C 197.456 143.589,204.523 144.129,206.857 139.307 C 207.309 138.374,207.316 138.219,207.356 127.566 L 207.396 116.771 210.625 116.771 L 213.854 116.771 213.908 127.244 C 213.969 139.079,213.927 139.542,212.512 142.412 C 208.088 151.387,195.039 151.349,190.529 142.349 C 189.259 139.815,189.299 140.256,189.220 127.969 L 189.147 116.667 192.386 116.667 L 195.625 116.667 195.625 127.046 M272.708 119.896 L 272.708 123.125 265.313 123.125 L 257.917 123.125 257.917 126.042 L 257.917 128.958 264.063 128.958 L 270.208 128.958 270.208 132.188 L 270.208 135.417 264.063 135.417 L 257.917 135.417 257.917 138.750 L 257.917 142.083 265.208 142.083 L 272.500 142.083 272.500 145.419 L 272.500 148.754 262.031 148.700 L 251.563 148.646 251.509 132.656 L 251.456 116.667 262.082 116.667 L 272.708 116.667 272.708 119.896 M167.861 132.814 C 166.975 134.591,166.250 136.091,166.250 136.148 C 166.250 136.204,167.703 136.250,169.479 136.250 C 171.255 136.250,172.708 136.212,172.708 136.165 C 172.708 136.018,169.612 129.583,169.541 129.583 C 169.503 129.583,168.748 131.037,167.861 132.814 " stroke="none" fill="#343434" fill-rule="evenodd"></path><path id="path2" d="M111.346 76.510 C 111.291 76.654,111.271 83.849,111.302 92.500 L 111.357 108.229 111.408 92.347 L 111.458 76.464 117.760 76.406 L 124.063 76.348 117.754 76.299 C 112.862 76.261,111.423 76.308,111.346 76.510 M214.673 81.458 C 214.673 84.266,214.703 85.414,214.739 84.010 C 214.775 82.607,214.775 80.310,214.739 78.906 C 214.703 77.503,214.673 78.651,214.673 81.458 M264.667 79.583 C 264.667 81.359,264.699 82.086,264.738 81.198 C 264.777 80.310,264.777 78.857,264.738 77.969 C 264.699 77.081,264.667 77.807,264.667 79.583 M288.626 79.583 C 288.626 81.359,288.657 82.086,288.697 81.198 C 288.736 80.310,288.736 78.857,288.697 77.969 C 288.657 77.081,288.626 77.807,288.626 79.583 M129.375 78.607 C 129.375 78.643,129.680 78.947,130.052 79.284 L 130.729 79.896 130.117 79.219 C 129.547 78.588,129.375 78.446,129.375 78.607 M142.383 80.677 L 141.771 81.354 142.448 80.742 C 142.820 80.406,143.125 80.101,143.125 80.065 C 143.125 79.904,142.953 80.046,142.383 80.677 M119.219 89.113 C 120.107 89.152,121.560 89.152,122.448 89.113 C 123.336 89.074,122.609 89.042,120.833 89.042 C 119.057 89.042,118.331 89.074,119.219 89.113 M170.483 92.292 C 170.483 93.036,170.521 93.341,170.567 92.969 C 170.614 92.596,170.614 91.987,170.567 91.615 C 170.521 91.242,170.483 91.547,170.483 92.292 M182.771 92.292 C 182.771 92.922,182.810 93.180,182.858 92.865 C 182.905 92.549,182.905 92.034,182.858 91.719 C 182.810 91.404,182.771 91.661,182.771 92.292 M247.969 94.947 C 249.659 94.982,252.424 94.982,254.115 94.947 C 255.805 94.912,254.422 94.884,251.042 94.884 C 247.661 94.884,246.279 94.912,247.969 94.947 M214.675 102.083 C 214.675 105.464,214.704 106.846,214.739 105.156 C 214.774 103.466,214.774 100.701,214.739 99.010 C 214.704 97.320,214.675 98.703,214.675 102.083 M153.700 102.231 C 153.959 102.281,154.334 102.279,154.534 102.226 C 154.733 102.174,154.521 102.134,154.063 102.136 C 153.604 102.138,153.441 102.181,153.700 102.231 M165.508 104.010 L 164.896 104.688 165.573 104.076 C 165.945 103.739,166.250 103.434,166.250 103.399 C 166.250 103.238,166.078 103.379,165.508 104.010 M189.263 127.292 C 189.263 133.078,189.290 135.445,189.323 132.552 C 189.355 129.659,189.355 124.924,189.323 122.031 C 189.290 119.138,189.263 121.505,189.263 127.292 M257.791 126.042 C 257.791 127.703,257.823 128.383,257.863 127.552 C 257.903 126.721,257.903 125.362,257.863 124.531 C 257.823 123.701,257.791 124.380,257.791 126.042 M134.636 125.521 C 134.638 125.979,134.681 126.142,134.731 125.883 C 134.781 125.624,134.779 125.249,134.726 125.050 C 134.674 124.850,134.634 125.063,134.636 125.521 M225.893 132.813 C 225.894 133.385,225.935 133.595,225.983 133.278 C 226.031 132.962,226.029 132.493,225.980 132.237 C 225.931 131.980,225.891 132.240,225.893 132.813 M257.800 135.477 C 257.743 135.626,257.726 137.196,257.761 138.967 L 257.824 142.188 257.870 138.805 L 257.917 135.423 264.010 135.364 L 270.104 135.306 264.004 135.257 C 259.175 135.219,257.882 135.264,257.800 135.477 M169.375 136.250 L 165.938 136.370 169.311 136.414 C 171.384 136.441,172.733 136.378,172.813 136.250 C 172.883 136.135,172.912 136.062,172.877 136.086 C 172.841 136.110,171.266 136.184,169.375 136.250 M200.993 149.109 C 201.368 149.156,201.930 149.155,202.243 149.107 C 202.556 149.060,202.250 149.022,201.563 149.023 C 200.875 149.024,200.619 149.063,200.993 149.109 " stroke="none" fill="#9c9c9c" fill-rule="evenodd"></path><path id="path3" d="M209.958 76.405 C 210.909 76.444,212.409 76.444,213.291 76.405 C 214.174 76.366,213.396 76.334,211.563 76.334 C 209.729 76.335,209.007 76.366,209.958 76.405 M226.105 76.406 C 227.343 76.442,229.312 76.442,230.480 76.405 C 231.648 76.368,230.635 76.338,228.229 76.338 C 225.823 76.338,224.867 76.369,226.105 76.406 M238.429 76.510 C 238.375 76.654,238.354 83.849,238.384 92.500 L 238.438 108.229 248.906 108.232 L 259.375 108.235 248.958 108.178 L 238.542 108.121 238.542 92.292 L 238.542 76.462 249.115 76.406 L 259.688 76.350 249.108 76.300 C 240.799 76.261,238.507 76.306,238.429 76.510 M270.573 76.406 C 273.924 76.438,279.409 76.438,282.760 76.406 C 286.112 76.374,283.370 76.348,276.667 76.348 C 269.964 76.348,267.221 76.374,270.573 76.406 M153.597 82.441 C 153.913 82.489,154.382 82.488,154.638 82.438 C 154.895 82.389,154.635 82.350,154.063 82.351 C 153.490 82.353,153.280 82.393,153.597 82.441 M244.874 85.625 C 244.874 87.286,244.907 87.966,244.946 87.135 C 244.986 86.305,244.986 84.945,244.946 84.115 C 244.907 83.284,244.874 83.964,244.874 85.625 M137.557 92.292 C 137.557 92.807,137.597 93.018,137.647 92.760 C 137.697 92.503,137.697 92.081,137.647 91.823 C 137.597 91.565,137.557 91.776,137.557 92.292 M215.826 94.948 L 214.688 96.146 215.885 95.007 C 216.998 93.949,217.179 93.750,217.024 93.750 C 216.992 93.750,216.453 94.289,215.826 94.948 M244.888 98.333 L 244.896 101.771 252.188 101.775 L 259.479 101.779 252.245 101.720 L 245.010 101.661 244.945 98.279 L 244.879 94.896 244.888 98.333 M146.458 98.607 C 146.458 98.643,146.763 98.947,147.135 99.284 L 147.813 99.896 147.201 99.219 C 146.630 98.588,146.458 98.446,146.458 98.607 M128.490 108.280 C 129.435 108.319,130.982 108.319,131.927 108.280 C 132.872 108.241,132.099 108.210,130.208 108.210 C 128.318 108.210,127.544 108.241,128.490 108.280 M275.052 108.280 C 275.940 108.319,277.393 108.319,278.281 108.280 C 279.169 108.241,278.443 108.209,276.667 108.209 C 274.891 108.209,274.164 108.241,275.052 108.280 M168.673 116.831 C 168.617 116.922,168.916 116.964,169.338 116.924 C 170.626 116.802,170.778 116.716,169.752 116.691 C 169.214 116.678,168.729 116.741,168.673 116.831 M190.791 116.822 C 191.742 116.861,193.242 116.860,194.124 116.821 C 195.007 116.782,194.229 116.751,192.396 116.751 C 190.563 116.751,189.840 116.783,190.791 116.822 M207.389 116.922 C 207.333 117.068,207.313 121.641,207.344 127.083 L 207.400 136.979 207.450 126.927 L 207.500 116.875 210.623 116.875 L 213.746 116.875 213.803 126.823 L 213.860 136.771 213.857 126.771 L 213.854 116.771 210.673 116.713 C 208.242 116.669,207.467 116.719,207.389 116.922 M256.719 116.823 C 259.669 116.855,264.497 116.855,267.448 116.823 C 270.398 116.790,267.984 116.763,262.083 116.763 C 256.182 116.763,253.768 116.790,256.719 116.823 M223.636 121.094 L 222.813 121.979 223.698 121.156 C 224.521 120.390,224.679 120.208,224.521 120.208 C 224.487 120.208,224.089 120.607,223.636 121.094 M270.084 132.188 C 270.085 134.021,270.116 134.743,270.155 133.792 C 270.194 132.841,270.194 131.341,270.155 130.459 C 270.116 129.576,270.084 130.354,270.084 132.188 M130.208 131.315 C 130.208 131.351,130.513 131.656,130.885 131.992 L 131.563 132.604 130.951 131.927 C 130.380 131.296,130.208 131.154,130.208 131.315 M261.510 142.239 C 263.544 142.273,266.872 142.273,268.906 142.239 C 270.940 142.205,269.276 142.177,265.208 142.177 C 261.141 142.177,259.477 142.205,261.510 142.239 M138.802 142.852 C 139.003 142.904,139.331 142.904,139.531 142.852 C 139.732 142.800,139.568 142.757,139.167 142.757 C 138.766 142.757,138.602 142.800,138.802 142.852 M154.437 148.697 C 155.446 148.735,157.039 148.735,157.979 148.696 C 158.919 148.658,158.094 148.627,156.146 148.627 C 154.198 148.627,153.429 148.659,154.437 148.697 M180.479 148.697 C 181.487 148.735,183.081 148.735,184.021 148.696 C 184.960 148.658,184.135 148.627,182.188 148.627 C 180.240 148.627,179.471 148.659,180.479 148.697 M256.823 148.698 C 259.716 148.730,264.451 148.730,267.344 148.698 C 270.237 148.665,267.870 148.638,262.083 148.638 C 256.297 148.638,253.930 148.665,256.823 148.698 " stroke="none" fill="#7d7d7d" fill-rule="evenodd"></path><path id="path4" d="M259.667 79.583 C 259.667 81.359,259.699 82.086,259.738 81.198 C 259.777 80.310,259.777 78.857,259.738 77.969 C 259.699 77.081,259.667 77.807,259.667 79.583 M279.890 95.521 C 279.890 102.510,279.916 105.340,279.948 101.808 C 279.980 98.276,279.980 92.557,279.948 89.100 C 279.916 85.642,279.890 88.531,279.890 95.521 M218.798 132.708 C 218.798 133.109,218.841 133.273,218.894 133.073 C 218.946 132.872,218.946 132.544,218.894 132.344 C 218.841 132.143,218.798 132.307,218.798 132.708 " stroke="none" fill="#949494" fill-rule="evenodd"></path></g></svg>