<svg id="svg" version="1.1" xmlns="http://www.w3.org/2000/svg" xmlns:xlink="http://www.w3.org/1999/xlink" width="400" height="225" viewBox="0, 0, 400,225"><g id="svgg"><path id="path0" d="M151.354 76.042 C 140.526 77.996,134.611 89.661,139.470 99.479 C 147.148 114.994,170.417 109.467,170.417 92.128 C 170.417 82.127,161.117 74.280,151.354 76.042 M190.350 76.055 C 178.881 77.374,172.385 89.696,177.727 100.000 C 182.158 108.548,193.220 111.328,201.345 105.934 C 201.980 105.513,202.500 105.079,202.500 104.970 C 202.500 104.718,198.707 100.390,198.553 100.466 C 198.489 100.498,197.922 100.795,197.292 101.126 C 190.010 104.959,181.570 98.884,182.897 90.765 C 183.918 84.514,190.655 80.761,196.458 83.209 C 197.203 83.524,197.938 83.797,198.091 83.817 C 198.687 83.896,202.284 79.516,201.940 79.129 C 200.290 77.275,194.074 75.627,190.350 76.055 M111.458 92.281 L 111.458 108.125 114.583 108.125 L 117.708 108.125 117.708 101.762 L 117.708 95.399 119.317 95.460 L 120.925 95.521 123.848 101.816 L 126.771 108.110 130.136 108.118 L 133.502 108.125 130.397 101.436 C 126.845 93.784,127.098 94.546,127.969 94.123 C 134.557 90.918,134.162 80.721,127.319 77.337 L 125.752 76.563 118.605 76.500 L 111.458 76.438 111.458 92.281 M208.333 92.292 L 208.333 108.125 211.458 108.125 L 214.583 108.125 214.583 102.129 L 214.583 96.133 215.846 94.889 C 216.956 93.796,217.138 93.687,217.356 93.986 C 217.493 94.174,219.337 97.431,221.454 101.226 L 225.304 108.125 229.006 108.125 C 231.042 108.125,232.708 108.087,232.708 108.040 C 232.708 107.992,230.286 103.844,227.324 98.821 C 224.363 93.797,221.829 89.478,221.693 89.221 C 221.464 88.788,221.820 88.339,226.722 82.867 C 229.623 79.629,232.069 76.862,232.157 76.719 C 232.282 76.514,231.428 76.458,228.142 76.458 L 223.968 76.458 219.432 81.458 C 216.937 84.208,214.826 86.458,214.740 86.458 C 214.654 86.458,214.583 84.208,214.583 81.458 L 214.583 76.458 211.458 76.458 L 208.333 76.458 208.333 92.292 M238.542 92.292 L 238.542 108.125 249.063 108.125 L 259.583 108.125 259.583 105.000 L 259.583 101.875 252.182 101.875 L 244.782 101.875 244.839 98.385 L 244.896 94.896 250.990 94.841 L 257.083 94.785 257.083 91.664 L 257.083 88.542 250.938 88.542 L 244.792 88.542 244.792 85.625 L 244.792 82.708 252.188 82.708 L 259.583 82.708 259.583 79.583 L 259.583 76.458 249.063 76.458 L 238.542 76.458 238.542 92.292 M264.792 79.583 L 264.792 82.708 269.167 82.708 L 273.542 82.708 273.542 95.417 L 273.542 108.125 276.667 108.125 L 279.792 108.125 279.792 95.417 L 279.792 82.708 284.167 82.708 L 288.542 82.708 288.542 79.583 L 288.542 76.458 276.667 76.458 L 264.792 76.458 264.792 79.583 M156.555 82.611 C 163.999 84.550,166.546 93.825,161.123 99.248 C 155.661 104.710,146.434 102.160,144.477 94.647 C 142.610 87.479,149.372 80.740,156.555 82.611 M125.000 83.177 C 126.428 84.152,126.892 86.177,125.990 87.502 C 124.999 88.957,124.701 89.055,121.027 89.133 L 117.708 89.203 117.708 85.956 L 117.708 82.708 121.011 82.708 C 124.093 82.708,124.359 82.740,125.000 83.177 M233.475 116.472 C 223.438 117.626,216.588 127.944,219.585 137.396 C 220.739 141.037,221.276 141.373,224.287 140.337 C 225.080 140.063,226.268 139.775,226.927 139.697 C 228.326 139.529,228.303 139.584,227.501 138.335 C 224.317 133.373,226.078 126.563,231.204 124.011 C 234.356 122.443,237.199 122.524,241.176 124.296 C 241.668 124.516,245.415 119.939,245.065 119.546 C 243.416 117.692,237.199 116.044,233.475 116.472 M135.472 116.766 C 130.790 118.085,128.036 121.768,128.410 126.208 C 128.610 128.584,129.335 128.964,133.654 128.960 C 134.461 128.959,135.661 129.099,136.321 129.271 C 136.980 129.443,138.149 129.577,138.916 129.569 C 140.488 129.553,140.386 129.466,137.920 128.718 C 135.157 127.879,134.032 126.266,134.930 124.429 C 136.066 122.104,139.800 122.140,143.644 124.512 C 144.508 125.045,145.269 125.425,145.337 125.358 C 145.404 125.290,146.149 124.127,146.992 122.774 L 148.525 120.313 147.981 119.863 C 144.757 117.198,138.998 115.772,135.472 116.766 M164.815 124.675 C 160.196 133.748,160.499 132.791,162.135 133.126 C 162.852 133.273,163.527 133.473,163.635 133.571 C 163.744 133.670,164.184 133.750,164.613 133.750 C 165.041 133.750,165.450 133.844,165.521 133.958 C 165.592 134.073,165.973 134.167,166.368 134.167 C 167.075 134.167,167.103 134.132,168.278 131.771 C 168.934 130.453,169.520 129.376,169.579 129.377 C 169.639 129.378,170.214 130.526,170.857 131.929 L 172.027 134.479 173.566 134.487 C 175.061 134.494,176.892 134.905,178.289 135.546 C 179.765 136.224,179.707 136.055,175.127 126.354 L 170.701 116.979 169.749 116.917 L 168.796 116.854 164.815 124.675 M189.375 127.175 L 189.375 137.474 190.260 137.585 C 190.747 137.646,191.849 137.746,192.708 137.807 C 193.568 137.868,194.576 137.975,194.948 138.045 L 195.625 138.171 195.625 127.523 L 195.625 116.875 192.500 116.875 L 189.375 116.875 189.375 127.175 M207.453 127.656 C 207.397 138.198,207.386 138.457,206.950 139.330 L 206.504 140.222 207.367 140.116 C 207.841 140.058,209.416 139.947,210.866 139.870 L 213.502 139.729 213.626 139.110 C 213.694 138.769,213.750 133.626,213.750 127.682 L 213.750 116.875 210.630 116.875 L 207.511 116.875 207.453 127.656 M251.458 127.708 C 251.458 135.504,251.523 138.542,251.689 138.542 C 251.817 138.542,252.918 138.300,254.137 138.005 C 255.369 137.706,256.651 137.515,257.021 137.573 L 257.688 137.679 257.750 136.496 L 257.813 135.313 263.438 135.208 C 270.561 135.076,270.000 135.374,270.000 131.721 L 270.000 128.958 263.854 128.958 L 257.708 128.958 257.708 126.042 L 257.708 123.125 265.208 123.125 L 272.708 123.125 272.708 120.000 L 272.708 116.875 262.083 116.875 L 251.458 116.875 251.458 127.708 M199.704 195.266 C 199.417 195.755,198.750 197.091,198.222 198.234 C 197.694 199.377,196.852 201.156,196.351 202.188 C 195.850 203.219,195.238 204.813,194.990 205.729 C 194.743 206.646,194.216 208.333,193.820 209.479 C 192.510 213.261,191.088 219.684,190.718 223.490 L 190.571 225.000 191.119 225.000 C 191.420 225.000,191.667 224.940,191.667 224.867 C 191.667 224.641,192.556 219.066,192.602 219.008 C 192.625 218.978,192.975 219.091,193.379 219.260 C 193.783 219.429,194.167 219.513,194.233 219.448 C 194.298 219.382,196.631 219.341,199.417 219.355 C 202.203 219.370,204.950 219.285,205.522 219.168 C 208.083 218.641,207.772 218.532,208.275 220.136 C 208.521 220.921,208.824 222.307,208.949 223.216 C 209.205 225.084,209.194 225.059,209.743 224.965 C 210.307 224.869,209.614 220.763,208.273 216.250 C 207.745 214.474,206.929 211.568,206.459 209.792 C 205.245 205.207,200.971 194.375,200.376 194.375 C 200.293 194.375,199.991 194.776,199.704 195.266 M201.356 197.552 C 203.067 201.281,204.835 206.406,205.937 210.833 C 206.237 212.036,206.758 213.889,207.095 214.950 C 207.986 217.755,207.977 217.800,206.406 218.149 C 204.644 218.540,196.524 218.542,194.402 218.153 L 192.866 217.871 192.995 216.904 C 193.065 216.372,193.353 215.141,193.635 214.167 C 193.916 213.193,194.447 211.224,194.814 209.792 C 195.578 206.813,196.051 205.492,197.350 202.708 C 197.858 201.620,198.722 199.628,199.270 198.281 C 200.455 195.366,200.367 195.397,201.356 197.552 M202.083 206.042 C 201.829 206.206,201.856 206.244,202.227 206.247 C 202.478 206.249,202.742 206.156,202.813 206.042 C 202.976 205.776,202.494 205.776,202.083 206.042 M202.344 207.227 C 202.544 207.279,202.872 207.279,203.073 207.227 C 203.273 207.175,203.109 207.132,202.708 207.132 C 202.307 207.132,202.143 207.175,202.344 207.227 M202.500 208.125 C 201.990 208.288,201.992 208.292,202.604 208.309 C 202.948 208.319,203.370 208.236,203.542 208.125 C 203.936 207.870,203.297 207.870,202.500 208.125 M202.656 209.522 C 202.914 209.572,203.336 209.572,203.594 209.522 C 203.852 209.472,203.641 209.432,203.125 209.432 C 202.609 209.432,202.398 209.472,202.656 209.522 M202.708 210.417 L 201.979 210.570 202.813 210.583 C 203.271 210.590,203.833 210.515,204.063 210.417 C 204.605 210.184,203.816 210.184,202.708 210.417 M202.604 211.458 C 202.010 211.610,202.020 211.618,202.813 211.621 C 203.271 211.623,203.880 211.550,204.167 211.458 C 204.887 211.228,203.510 211.228,202.604 211.458 M203.042 212.522 C 202.366 212.620,201.757 212.757,201.689 212.825 C 201.521 212.993,204.164 212.692,204.688 212.484 L 205.104 212.318 204.688 212.330 C 204.458 212.337,203.718 212.423,203.042 212.522 M202.813 213.449 L 201.354 213.723 202.751 213.617 C 204.241 213.503,205.827 213.154,204.792 213.168 C 204.505 213.171,203.615 213.298,202.813 213.449 M203.333 214.496 L 201.771 214.772 203.262 214.678 C 204.611 214.593,206.455 214.169,205.313 214.207 C 205.083 214.214,204.193 214.345,203.333 214.496 M203.229 215.439 C 201.358 215.708,201.169 215.831,202.813 215.710 C 204.501 215.585,206.200 215.248,205.104 215.255 C 204.760 215.257,203.917 215.340,203.229 215.439 M203.125 216.580 L 201.563 216.856 203.021 216.761 C 204.498 216.665,206.326 216.275,205.208 216.295 C 204.922 216.300,203.984 216.428,203.125 216.580 M203.646 217.509 C 201.977 217.774,201.613 217.879,202.305 217.895 C 203.371 217.919,205.564 217.558,206.042 217.278 C 206.412 217.062,206.527 217.051,203.646 217.509 M205.208 219.594 C 204.693 219.686,203.755 219.777,203.125 219.797 C 202.495 219.817,201.745 219.913,201.458 220.010 C 200.663 220.280,204.682 219.984,205.916 219.681 C 207.102 219.391,206.657 219.336,205.208 219.594 M194.271 220.208 C 194.894 220.476,195.414 220.476,195.000 220.208 C 194.828 220.097,194.500 220.012,194.271 220.018 L 193.854 220.029 194.271 220.208 M205.208 220.445 C 204.578 220.547,202.844 220.655,201.354 220.685 C 198.292 220.747,197.371 221.031,195.887 222.372 C 195.184 223.007,194.943 223.109,194.350 223.018 L 193.646 222.911 194.330 223.178 C 195.116 223.484,194.905 223.948,193.969 223.972 C 193.444 223.985,193.443 223.987,193.906 224.173 C 194.164 224.277,194.375 224.505,194.375 224.681 C 194.375 224.939,194.672 225.000,195.926 225.000 L 197.477 225.000 198.774 223.106 C 200.019 221.289,200.097 221.217,200.710 221.340 C 201.990 221.596,202.022 221.888,200.952 223.541 C 199.761 225.382,200.050 225.397,201.341 223.561 C 202.484 221.937,202.941 222.259,201.898 223.954 L 201.254 225.000 203.960 225.000 C 205.626 225.000,206.667 224.920,206.667 224.792 C 206.667 224.677,206.849 224.583,207.071 224.583 C 207.293 224.583,207.523 224.507,207.581 224.413 C 207.639 224.319,207.410 224.283,207.072 224.332 C 206.323 224.442,206.184 223.828,206.927 223.691 C 207.227 223.636,207.170 223.612,206.771 223.625 C 205.988 223.651,205.896 223.054,206.667 222.951 C 206.953 222.913,207.269 222.803,207.369 222.707 C 207.469 222.611,207.158 222.621,206.679 222.729 C 206.199 222.837,205.719 222.871,205.612 222.804 C 205.197 222.548,205.455 222.329,206.406 222.130 C 207.075 221.991,207.215 221.916,206.836 221.900 C 206.529 221.886,206.037 221.966,205.744 222.078 C 205.310 222.243,205.069 222.184,204.451 221.765 C 204.034 221.482,203.611 221.250,203.513 221.250 C 202.835 221.250,203.516 220.829,204.219 220.813 C 204.706 220.802,205.573 220.673,206.146 220.526 C 207.348 220.217,206.875 220.176,205.208 220.445 M194.271 221.250 C 194.894 221.518,195.414 221.518,195.000 221.250 C 194.828 221.139,194.500 221.053,194.271 221.059 L 193.854 221.071 194.271 221.250 M205.729 221.250 L 205.104 221.409 205.833 221.419 C 206.234 221.425,206.750 221.348,206.979 221.250 C 207.533 221.012,206.665 221.012,205.729 221.250 M194.063 222.083 C 194.685 222.351,195.206 222.351,194.792 222.083 C 194.620 221.972,194.292 221.887,194.063 221.893 L 193.646 221.904 194.063 222.083 " stroke="none" fill="#f9f9f9" fill-rule="evenodd"></path><path id="path1" d="M0.000 112.500 L 0.000 225.000 95.208 225.000 C 171.234 225.000,190.417 224.948,190.420 224.740 C 190.462 221.930,192.812 211.399,194.069 208.391 C 194.243 207.973,194.577 206.876,194.810 205.951 C 195.346 203.832,199.790 194.392,200.332 194.224 C 200.528 194.163,203.752 201.157,204.976 204.303 C 205.206 204.893,205.957 207.472,206.644 210.035 C 207.330 212.597,208.128 215.442,208.417 216.357 C 209.094 218.509,209.695 221.122,210.007 223.281 L 210.256 225.000 305.128 225.000 L 400.000 225.000 400.000 112.500 L 400.000 0.000 200.000 0.000 L 0.000 0.000 0.000 112.500 M156.529 75.944 C 167.075 77.089,173.685 89.338,169.051 99.148 C 164.124 109.580,150.681 111.997,142.483 103.926 C 132.671 94.264,138.623 77.318,152.349 75.836 C 153.833 75.675,154.122 75.683,156.529 75.944 M196.354 76.345 C 198.357 76.886,202.292 78.885,202.292 79.361 C 202.292 79.444,201.395 80.558,200.300 81.836 L 198.308 84.161 197.253 83.626 C 191.698 80.811,184.765 83.826,183.228 89.725 C 181.052 98.082,189.442 104.943,197.112 101.079 L 198.703 100.277 200.653 102.532 C 203.037 105.290,202.960 104.938,201.407 105.984 C 190.472 113.346,175.758 105.552,175.755 92.396 C 175.752 81.554,186.023 73.551,196.354 76.345 M125.250 76.481 C 133.445 78.197,135.611 89.508,128.576 93.850 L 127.340 94.613 130.441 101.295 C 132.146 104.970,133.542 108.057,133.542 108.155 C 133.542 108.456,126.958 108.376,126.730 108.073 C 126.622 107.930,125.236 105.023,123.650 101.615 L 120.767 95.417 119.238 95.417 L 117.708 95.417 117.708 101.771 L 117.708 108.125 114.479 108.125 L 111.250 108.125 111.250 92.188 L 111.250 76.250 117.698 76.250 C 121.619 76.250,124.579 76.341,125.250 76.481 M214.840 81.283 L 214.896 86.317 219.454 81.283 L 224.011 76.250 228.256 76.250 C 230.590 76.250,232.499 76.320,232.497 76.406 C 232.496 76.492,230.061 79.281,227.086 82.604 C 224.111 85.927,221.677 88.740,221.676 88.854 C 221.676 88.969,224.193 93.328,227.270 98.542 L 232.865 108.021 229.200 108.078 C 227.184 108.109,225.436 108.097,225.315 108.051 C 225.194 108.004,223.316 104.773,221.141 100.871 L 217.188 93.776 215.990 94.954 L 214.792 96.133 214.792 102.129 L 214.792 108.125 211.563 108.125 L 208.333 108.125 208.333 92.188 L 208.333 76.250 211.559 76.250 L 214.784 76.250 214.840 81.283 M259.745 79.531 L 259.803 82.708 252.401 82.708 L 245.000 82.708 245.000 85.625 L 245.000 88.542 251.042 88.542 L 257.083 88.542 257.083 91.771 L 257.083 95.000 251.042 95.000 L 245.000 95.000 245.000 98.333 L 245.000 101.667 252.297 101.667 L 259.594 101.667 259.537 104.948 L 259.479 108.229 248.958 108.229 L 238.438 108.229 238.384 92.500 C 238.354 83.849,238.375 76.653,238.430 76.509 C 238.509 76.301,240.757 76.258,249.109 76.300 L 259.688 76.354 259.745 79.531 M288.750 79.479 L 288.750 82.708 284.377 82.708 L 280.003 82.708 279.950 95.469 L 279.896 108.229 276.720 108.287 L 273.545 108.344 273.491 95.578 L 273.438 82.813 269.010 82.756 L 264.583 82.700 264.583 79.475 L 264.583 76.250 276.667 76.250 L 288.750 76.250 288.750 79.479 M151.354 82.793 C 144.042 85.115,141.860 94.165,147.370 99.320 C 155.479 106.905,167.818 97.586,162.793 87.670 C 160.795 83.728,155.508 81.473,151.354 82.793 M117.708 85.833 L 117.708 88.958 120.889 88.958 C 125.262 88.958,126.785 87.968,126.352 85.406 C 125.996 83.294,124.745 82.711,120.573 82.709 L 117.708 82.708 117.708 85.833 M142.397 116.890 C 144.464 117.527,148.542 119.743,148.542 120.229 C 148.542 120.404,145.737 125.106,145.405 125.489 C 145.320 125.586,144.729 125.331,144.091 124.923 C 139.379 121.909,134.792 122.166,134.792 125.443 C 134.792 127.262,135.376 127.757,138.923 128.938 C 146.189 131.359,149.361 134.827,149.130 140.102 C 148.708 149.753,136.364 152.434,127.333 144.837 C 125.958 143.681,125.914 143.809,128.550 141.298 L 130.747 139.205 131.874 140.141 C 136.375 143.879,142.708 143.509,142.708 139.508 C 142.708 137.922,139.776 135.778,136.563 135.015 C 125.910 132.486,125.438 118.943,135.919 116.545 C 137.613 116.157,140.524 116.312,142.397 116.890 M239.479 116.761 C 241.526 117.315,245.417 119.304,245.417 119.796 C 245.417 119.889,244.518 121.002,243.420 122.269 L 241.423 124.573 240.373 124.041 C 234.823 121.228,227.889 124.246,226.353 130.142 C 224.143 138.627,232.879 145.530,240.546 141.356 L 241.822 140.662 243.828 142.972 C 246.191 145.693,246.116 145.397,244.688 146.344 C 233.936 153.482,219.893 146.658,218.833 133.781 C 217.939 122.912,228.878 113.894,239.479 116.761 M178.159 132.500 C 182.254 141.151,185.609 148.349,185.615 148.495 C 185.623 148.702,184.857 148.748,182.135 148.703 L 178.646 148.646 177.203 145.677 L 175.760 142.708 169.286 142.712 L 162.813 142.715 161.269 145.733 L 159.725 148.750 156.251 148.750 C 152.078 148.750,152.287 148.916,153.523 146.587 C 154.078 145.542,157.741 138.378,161.664 130.667 L 168.797 116.646 169.755 116.708 L 170.713 116.771 178.159 132.500 M195.670 127.448 C 195.728 137.933,195.741 138.255,196.171 139.185 C 198.274 143.730,204.696 143.771,206.883 139.254 C 207.302 138.390,207.317 138.019,207.356 127.566 L 207.396 116.771 210.625 116.771 L 213.854 116.771 213.854 128.021 L 213.854 139.271 213.368 140.625 C 209.575 151.193,195.209 152.137,190.396 142.135 C 189.229 139.708,189.174 139.050,189.170 127.344 L 189.167 116.667 192.389 116.667 L 195.611 116.667 195.670 127.448 M272.708 119.896 L 272.708 123.125 265.313 123.125 L 257.917 123.125 257.917 126.042 L 257.917 128.958 264.063 128.958 L 270.208 128.958 270.208 132.188 L 270.208 135.417 264.063 135.417 L 257.917 135.417 257.917 138.750 L 257.917 142.083 265.208 142.083 L 272.500 142.083 272.500 145.417 L 272.500 148.750 261.979 148.750 L 251.458 148.750 251.458 132.708 L 251.458 116.667 262.083 116.667 L 272.708 116.667 272.708 119.896 M167.848 132.841 C 166.957 134.628,166.267 136.128,166.314 136.175 C 166.361 136.222,167.820 136.235,169.555 136.203 L 172.710 136.146 171.246 133.026 C 170.440 131.310,169.711 129.836,169.625 129.750 C 169.539 129.664,168.739 131.055,167.848 132.841 M199.387 198.281 C 198.889 199.513,197.929 201.718,197.254 203.180 C 196.091 205.701,195.567 207.328,193.884 213.646 C 192.895 217.357,192.851 217.661,193.289 217.793 C 196.114 218.647,203.876 218.712,206.900 217.908 L 207.654 217.707 207.486 216.822 C 207.393 216.336,207.164 215.516,206.977 215.000 C 206.790 214.484,206.314 212.766,205.919 211.181 C 204.577 205.800,201.043 196.042,200.436 196.042 C 200.357 196.042,199.885 197.049,199.387 198.281 M203.125 206.042 C 203.125 206.156,202.791 206.250,202.384 206.250 C 201.942 206.250,201.694 206.166,201.771 206.042 C 201.842 205.927,202.175 205.833,202.512 205.833 C 202.849 205.833,203.125 205.927,203.125 206.042 M203.542 207.074 C 203.542 207.338,202.181 207.585,201.850 207.381 C 201.661 207.264,201.700 207.177,201.993 207.062 C 202.575 206.834,203.542 206.841,203.542 207.074 M203.865 208.107 C 203.717 208.347,202.102 208.629,201.919 208.447 C 201.681 208.208,202.368 207.923,203.189 207.920 C 203.626 207.918,203.930 208.002,203.865 208.107 M204.167 209.351 C 204.167 209.605,203.403 209.785,202.309 209.789 C 201.282 209.792,201.292 209.619,202.333 209.372 C 203.299 209.143,204.167 209.133,204.167 209.351 M204.232 210.434 C 204.108 210.558,203.410 210.711,202.680 210.773 C 201.415 210.880,201.104 210.617,202.188 210.357 C 203.061 210.147,204.467 210.200,204.232 210.434 M204.674 211.228 C 204.839 211.496,204.257 211.674,202.763 211.813 C 201.263 211.954,200.889 211.557,202.344 211.370 C 203.233 211.255,204.147 211.123,204.415 211.070 C 204.494 211.054,204.611 211.126,204.674 211.228 M196.563 211.667 C 196.633 211.781,196.551 211.875,196.379 211.875 C 196.207 211.875,196.008 211.781,195.938 211.667 C 195.867 211.552,195.949 211.458,196.121 211.458 C 196.293 211.458,196.492 211.552,196.563 211.667 M204.900 212.544 C 204.466 212.795,201.053 213.067,201.273 212.832 C 201.472 212.620,203.121 212.339,204.271 212.321 C 205.151 212.307,205.249 212.341,204.900 212.544 M196.354 212.708 C 196.425 212.823,196.342 212.917,196.170 212.917 C 195.999 212.917,195.800 212.823,195.729 212.708 C 195.658 212.594,195.741 212.500,195.913 212.500 C 196.085 212.500,196.283 212.594,196.354 212.708 M205.058 213.359 C 204.808 213.609,201.058 213.899,201.291 213.650 C 201.446 213.484,205.043 212.941,205.194 213.061 C 205.244 213.100,205.183 213.234,205.058 213.359 M196.354 213.750 C 196.518 214.015,196.035 214.015,195.625 213.750 C 195.371 213.586,195.398 213.547,195.769 213.545 C 196.020 213.543,196.283 213.635,196.354 213.750 M205.510 214.363 C 205.268 214.604,202.925 214.996,201.719 214.998 C 200.271 215.001,200.711 214.663,202.448 214.439 C 204.687 214.151,205.751 214.124,205.510 214.363 M196.042 214.583 C 196.285 214.741,196.228 214.786,195.781 214.788 C 195.466 214.790,195.208 214.698,195.208 214.583 C 195.208 214.320,195.634 214.320,196.042 214.583 M206.042 215.109 C 206.042 215.524,201.820 216.162,201.023 215.867 C 200.649 215.729,201.065 215.614,202.821 215.372 C 205.473 215.006,206.042 214.959,206.042 215.109 M195.938 215.625 C 196.101 215.890,195.619 215.890,195.208 215.625 C 194.954 215.461,194.981 215.422,195.352 215.420 C 195.603 215.418,195.867 215.510,195.938 215.625 M206.113 216.262 C 205.586 216.789,200.417 217.345,200.417 216.875 C 200.417 216.760,200.768 216.661,201.198 216.654 C 201.628 216.646,202.682 216.518,203.542 216.367 C 205.598 216.008,206.400 215.975,206.113 216.262 M195.729 216.458 C 195.894 216.724,195.203 216.724,194.792 216.458 C 194.547 216.300,194.601 216.256,195.040 216.253 C 195.348 216.251,195.658 216.344,195.729 216.458 M195.295 217.210 C 195.694 217.363,195.733 217.708,195.352 217.708 C 194.906 217.708,194.182 217.098,194.618 217.090 C 194.810 217.086,195.114 217.140,195.295 217.210 M206.344 217.263 C 205.965 217.608,204.049 217.956,201.979 218.056 C 200.476 218.129,199.983 218.095,200.208 217.936 C 200.380 217.814,200.849 217.707,201.250 217.698 C 201.651 217.689,202.729 217.560,203.646 217.411 C 205.720 217.075,206.604 217.027,206.344 217.263 M206.563 219.088 C 205.806 219.353,205.792 219.370,206.406 219.278 C 207.111 219.173,207.357 219.475,206.719 219.662 C 205.566 219.999,203.624 220.206,201.785 220.188 C 198.688 220.157,198.117 219.845,201.042 219.781 L 203.438 219.730 200.729 219.546 C 199.240 219.445,197.059 219.415,195.884 219.480 C 194.494 219.556,193.596 219.516,193.314 219.365 C 192.728 219.051,192.748 219.006,192.286 221.691 C 191.689 225.157,191.654 224.997,193.017 224.942 C 193.976 224.903,194.981 224.375,194.096 224.375 C 193.949 224.375,193.648 224.228,193.425 224.048 C 193.043 223.739,193.064 223.726,193.786 223.824 C 194.824 223.964,195.064 223.431,194.048 223.240 C 193.005 223.044,193.127 222.622,194.178 222.790 C 194.934 222.911,195.118 222.848,195.914 222.196 C 197.599 220.815,198.490 220.562,201.875 220.505 C 203.536 220.478,205.391 220.366,205.996 220.258 C 206.601 220.149,207.139 220.131,207.193 220.217 C 207.329 220.437,206.971 220.546,205.122 220.844 C 203.964 221.031,203.595 221.159,203.832 221.292 C 204.033 221.404,204.475 221.392,204.947 221.261 C 205.377 221.142,206.099 221.043,206.552 221.043 C 207.722 221.041,207.229 221.436,205.858 221.598 C 205.233 221.672,204.847 221.805,204.952 221.910 C 205.057 222.015,205.594 221.987,206.212 221.844 C 206.805 221.707,207.353 221.658,207.430 221.735 C 207.659 221.964,207.376 222.112,206.476 222.232 C 206.008 222.295,205.625 222.431,205.625 222.535 C 205.625 222.640,206.084 222.662,206.667 222.585 C 207.942 222.415,208.139 222.843,206.879 223.044 C 206.423 223.117,206.096 223.253,206.153 223.346 C 206.211 223.438,206.584 223.461,206.983 223.397 C 207.920 223.245,207.957 223.666,207.031 223.934 L 206.354 224.129 207.135 224.148 C 208.096 224.171,208.145 224.450,207.240 224.740 C 206.597 224.946,206.623 224.959,207.760 224.979 C 209.163 225.004,209.130 225.102,208.661 222.292 C 208.105 218.962,207.884 218.625,206.563 219.088 M195.366 220.365 C 195.477 220.702,195.055 220.681,194.271 220.312 L 193.646 220.017 194.463 220.061 C 194.913 220.085,195.319 220.221,195.366 220.365 M194.740 220.965 C 194.997 221.034,195.208 221.173,195.208 221.274 C 195.208 221.569,194.284 221.487,193.842 221.152 C 193.374 220.799,193.794 220.711,194.740 220.965 M198.855 223.177 L 197.703 224.896 198.768 224.960 C 199.950 225.030,199.905 225.066,201.068 223.152 C 201.723 222.074,201.733 222.022,201.355 221.746 C 200.500 221.121,200.068 221.368,198.855 223.177 M194.983 222.005 C 195.176 222.065,195.207 222.168,195.074 222.301 C 194.833 222.542,193.483 222.139,193.646 221.874 C 193.742 221.720,194.225 221.767,194.983 222.005 M201.401 223.645 C 200.974 224.256,200.625 224.811,200.625 224.878 C 200.625 225.151,201.165 224.975,201.368 224.635 C 201.488 224.435,201.795 223.927,202.050 223.506 C 202.780 222.301,202.263 222.412,201.401 223.645 " stroke="none" fill="#343434" fill-rule="evenodd"></path><path id="path2" d="M129.372 129.755 C 130.645 132.142,133.487 134.158,136.771 135.002 C 141.766 136.285,144.034 139.186,141.965 141.645 C 140.213 143.728,135.386 143.078,131.975 140.301 L 130.810 139.352 129.207 140.803 C 128.326 141.601,127.296 142.575,126.920 142.967 L 126.236 143.680 127.233 144.609 C 130.558 147.710,134.081 149.057,138.870 149.060 L 141.802 149.063 143.588 148.178 C 147.903 146.039,150.096 141.355,148.772 137.102 C 147.555 133.194,143.235 129.785,139.325 129.649 C 138.324 129.615,137.105 129.485,136.617 129.362 C 136.129 129.238,134.557 129.056,133.125 128.957 C 131.693 128.858,130.109 128.710,129.607 128.628 L 128.692 128.479 129.372 129.755 M160.140 133.802 C 159.552 134.839,152.708 148.335,152.708 148.458 C 152.708 148.504,154.301 148.542,156.249 148.542 L 159.789 148.542 161.250 145.625 L 162.711 142.708 169.286 142.708 L 175.862 142.708 177.239 145.625 L 178.616 148.542 182.110 148.542 L 185.604 148.542 185.317 147.865 C 185.160 147.492,183.829 144.662,182.359 141.576 L 179.688 135.964 178.750 135.721 C 178.234 135.586,177.438 135.317,176.979 135.123 C 176.495 134.917,175.289 134.716,174.098 134.643 L 172.051 134.518 172.379 135.305 C 172.560 135.738,172.708 136.128,172.708 136.171 C 172.708 136.215,171.206 136.250,169.371 136.250 L 166.033 136.250 166.473 135.388 C 167.013 134.329,167.053 134.357,164.198 133.745 C 162.978 133.484,161.890 133.190,161.781 133.093 C 161.282 132.648,160.637 132.927,160.140 133.802 M269.346 134.993 L 268.854 135.403 269.427 135.410 C 269.863 135.415,270.000 135.317,270.000 135.000 C 270.000 134.484,269.957 134.484,269.346 134.993 M189.377 138.154 C 189.388 141.256,192.073 145.470,195.237 147.350 C 201.424 151.028,209.523 148.607,212.628 142.151 C 213.639 140.049,213.579 139.892,211.767 139.912 C 207.811 139.956,206.745 140.170,205.592 141.155 C 202.457 143.831,197.247 142.714,196.058 139.111 C 195.757 138.201,195.261 138.021,192.500 137.823 C 191.526 137.753,190.424 137.641,190.052 137.575 C 189.398 137.458,189.375 137.478,189.377 138.154 M255.295 137.845 C 254.502 137.989,253.339 138.230,252.708 138.381 L 251.563 138.655 251.507 143.599 L 251.451 148.542 261.975 148.542 L 272.500 148.542 272.500 145.417 L 272.500 142.292 265.208 142.292 L 257.917 142.292 257.917 140.024 L 257.917 137.756 257.326 137.669 C 257.001 137.621,256.087 137.700,255.295 137.845 M226.371 139.804 C 225.807 139.898,224.804 140.178,224.141 140.426 C 223.352 140.721,222.610 140.851,221.989 140.802 C 220.881 140.713,220.873 140.733,221.587 141.794 C 226.817 149.564,237.481 151.508,244.957 146.054 L 245.851 145.402 243.936 143.215 C 241.585 140.530,241.966 140.708,240.369 141.541 C 236.868 143.365,232.410 142.874,229.293 140.319 C 228.357 139.552,228.122 139.511,226.371 139.804 " stroke="none" fill="#fa3636" fill-rule="evenodd"></path><path id="path3" d="M209.958 76.405 C 210.909 76.444,212.409 76.444,213.291 76.405 C 214.174 76.366,213.396 76.334,211.563 76.334 C 209.729 76.335,209.007 76.366,209.958 76.405 M226.105 76.406 C 227.343 76.442,229.312 76.442,230.480 76.405 C 231.648 76.368,230.635 76.338,228.229 76.338 C 225.823 76.338,224.867 76.369,226.105 76.406 M238.429 76.510 C 238.375 76.654,238.354 83.849,238.384 92.500 L 238.438 108.229 248.906 108.232 L 259.375 108.235 248.958 108.178 L 238.542 108.121 238.542 92.292 L 238.542 76.462 249.115 76.406 L 259.688 76.350 249.108 76.300 C 240.799 76.261,238.507 76.306,238.429 76.510 M270.573 76.406 C 273.924 76.438,279.409 76.438,282.760 76.406 C 286.112 76.374,283.370 76.348,276.667 76.348 C 269.964 76.348,267.221 76.374,270.573 76.406 M153.597 82.441 C 153.913 82.489,154.382 82.488,154.638 82.438 C 154.895 82.389,154.635 82.350,154.063 82.351 C 153.490 82.353,153.280 82.393,153.597 82.441 M244.874 85.729 C 244.874 87.333,244.907 87.962,244.947 87.126 C 244.986 86.291,244.986 84.978,244.946 84.210 C 244.906 83.441,244.874 84.125,244.874 85.729 M137.557 92.292 C 137.557 92.807,137.597 93.018,137.647 92.760 C 137.697 92.503,137.697 92.081,137.647 91.823 C 137.597 91.565,137.557 91.776,137.557 92.292 M129.883 92.760 L 129.271 93.438 129.948 92.826 C 130.320 92.489,130.625 92.184,130.625 92.149 C 130.625 91.988,130.453 92.129,129.883 92.760 M215.930 94.844 L 214.896 95.938 215.990 94.904 C 216.591 94.335,217.083 93.843,217.083 93.810 C 217.083 93.654,216.890 93.827,215.930 94.844 M244.888 98.333 L 244.896 101.771 252.188 101.775 L 259.479 101.779 252.245 101.720 L 245.010 101.661 244.945 98.279 L 244.879 94.896 244.888 98.333 M128.490 108.280 C 129.435 108.319,130.982 108.319,131.927 108.280 C 132.872 108.241,132.099 108.210,130.208 108.210 C 128.318 108.210,127.544 108.241,128.490 108.280 M275.052 108.280 C 275.940 108.319,277.393 108.319,278.281 108.280 C 279.169 108.241,278.443 108.209,276.667 108.209 C 274.891 108.209,274.164 108.241,275.052 108.280 M168.673 116.831 C 168.617 116.922,168.916 116.964,169.338 116.924 C 170.626 116.802,170.778 116.716,169.752 116.691 C 169.214 116.678,168.729 116.741,168.673 116.831 M190.791 116.822 C 191.742 116.861,193.242 116.860,194.124 116.821 C 195.007 116.782,194.229 116.751,192.396 116.751 C 190.563 116.751,189.840 116.783,190.791 116.822 M207.389 116.922 C 207.333 117.068,207.313 121.641,207.344 127.083 L 207.400 136.979 207.450 126.927 L 207.500 116.875 210.623 116.875 L 213.746 116.875 213.803 126.823 L 213.860 136.771 213.857 126.771 L 213.854 116.771 210.673 116.713 C 208.242 116.669,207.467 116.719,207.389 116.922 M256.719 116.823 C 259.669 116.855,264.497 116.855,267.448 116.823 C 270.398 116.790,267.984 116.763,262.083 116.763 C 256.182 116.763,253.768 116.790,256.719 116.823 M270.084 132.188 C 270.085 134.021,270.116 134.743,270.155 133.792 C 270.194 132.841,270.194 131.341,270.155 130.459 C 270.116 129.576,270.084 130.354,270.084 132.188 M130.208 131.315 C 130.208 131.351,130.513 131.656,130.885 131.992 L 131.563 132.604 130.951 131.927 C 130.380 131.296,130.208 131.154,130.208 131.315 M141.042 136.940 C 141.042 136.976,141.346 137.281,141.719 137.617 L 142.396 138.229 141.784 137.552 C 141.214 136.921,141.042 136.779,141.042 136.940 M129.886 140.052 L 129.063 140.938 129.948 140.114 C 130.435 139.661,130.833 139.263,130.833 139.229 C 130.833 139.071,130.652 139.229,129.886 140.052 M261.510 142.239 C 263.544 142.273,266.872 142.273,268.906 142.239 C 270.940 142.205,269.276 142.177,265.208 142.177 C 261.141 142.177,259.477 142.205,261.510 142.239 M138.597 142.858 C 138.913 142.906,139.382 142.904,139.638 142.855 C 139.895 142.806,139.635 142.766,139.063 142.768 C 138.490 142.769,138.280 142.810,138.597 142.858 M126.250 143.815 C 126.250 143.851,126.555 144.156,126.927 144.492 L 127.604 145.104 126.992 144.427 C 126.422 143.796,126.250 143.654,126.250 143.815 M192.292 145.065 C 192.292 145.101,192.596 145.406,192.969 145.742 L 193.646 146.354 193.034 145.677 C 192.464 145.046,192.292 144.904,192.292 145.065 M210.091 145.677 L 209.479 146.354 210.156 145.742 C 210.529 145.406,210.833 145.101,210.833 145.065 C 210.833 144.904,210.661 145.046,210.091 145.677 M152.682 148.599 C 152.771 148.688,154.430 148.734,156.370 148.703 L 159.896 148.645 156.208 148.541 C 154.179 148.484,152.593 148.510,152.682 148.599 M180.479 148.697 C 181.487 148.735,183.081 148.735,184.021 148.696 C 184.960 148.658,184.135 148.627,182.188 148.627 C 180.240 148.627,179.471 148.659,180.479 148.697 M256.733 148.698 C 259.692 148.730,264.473 148.730,267.358 148.698 C 270.244 148.665,267.823 148.638,261.979 148.638 C 256.135 148.638,253.775 148.665,256.733 148.698 M201.844 207.344 C 201.949 207.449,202.257 207.500,202.528 207.458 C 202.945 207.392,202.916 207.363,202.337 207.267 C 201.923 207.198,201.729 207.229,201.844 207.344 M201.930 211.816 C 202.247 211.864,202.715 211.863,202.972 211.813 C 203.228 211.764,202.969 211.725,202.396 211.726 C 201.823 211.728,201.613 211.768,201.930 211.816 M199.742 219.522 C 200.001 219.572,200.376 219.570,200.575 219.518 C 200.775 219.466,200.563 219.425,200.104 219.428 C 199.646 219.430,199.483 219.473,199.742 219.522 M203.438 219.583 C 203.274 219.849,203.756 219.849,204.167 219.583 C 204.421 219.419,204.394 219.381,204.023 219.378 C 203.772 219.376,203.508 219.469,203.438 219.583 M199.948 220.564 C 200.206 220.613,200.628 220.613,200.885 220.564 C 201.143 220.514,200.932 220.473,200.417 220.473 C 199.901 220.473,199.690 220.514,199.948 220.564 M195.353 222.611 C 195.031 222.894,194.851 223.125,194.952 223.125 C 195.053 223.125,195.356 222.891,195.625 222.604 C 196.248 221.941,196.110 221.945,195.353 222.611 " stroke="none" fill="#7c7373" fill-rule="evenodd"></path><path id="path4" d="M111.346 76.510 C 111.291 76.654,111.271 83.849,111.302 92.500 L 111.357 108.229 111.408 92.347 L 111.458 76.464 117.760 76.406 L 124.063 76.348 117.754 76.299 C 112.862 76.261,111.423 76.308,111.346 76.510 M214.673 81.458 C 214.673 84.266,214.703 85.414,214.739 84.010 C 214.775 82.607,214.775 80.310,214.739 78.906 C 214.703 77.503,214.673 78.651,214.673 81.458 M264.667 79.583 C 264.667 81.359,264.699 82.086,264.738 81.198 C 264.777 80.310,264.777 78.857,264.738 77.969 C 264.699 77.081,264.667 77.807,264.667 79.583 M288.626 79.583 C 288.626 81.359,288.657 82.086,288.697 81.198 C 288.736 80.310,288.736 78.857,288.697 77.969 C 288.657 77.081,288.626 77.807,288.626 79.583 M142.383 80.677 L 141.771 81.354 142.448 80.742 C 142.820 80.406,143.125 80.101,143.125 80.065 C 143.125 79.904,142.953 80.046,142.383 80.677 M132.757 85.833 C 132.757 86.234,132.800 86.398,132.852 86.198 C 132.904 85.997,132.904 85.669,132.852 85.469 C 132.800 85.268,132.757 85.432,132.757 85.833 M119.228 89.113 C 120.122 89.153,121.528 89.152,122.353 89.113 C 123.179 89.073,122.448 89.041,120.729 89.042 C 119.010 89.042,118.335 89.074,119.228 89.113 M170.485 92.188 C 170.486 92.990,170.524 93.292,170.569 92.860 C 170.614 92.428,170.613 91.771,170.567 91.402 C 170.521 91.032,170.484 91.385,170.485 92.188 M182.771 92.292 C 182.771 92.922,182.810 93.180,182.858 92.865 C 182.905 92.549,182.905 92.034,182.858 91.719 C 182.810 91.404,182.771 91.661,182.771 92.292 M247.969 94.947 C 249.659 94.982,252.424 94.982,254.115 94.947 C 255.805 94.912,254.422 94.884,251.042 94.884 C 247.661 94.884,246.279 94.912,247.969 94.947 M214.675 102.083 C 214.675 105.464,214.704 106.846,214.739 105.156 C 214.774 103.466,214.774 100.701,214.739 99.010 C 214.704 97.320,214.675 98.703,214.675 102.083 M153.802 102.227 C 154.003 102.279,154.331 102.279,154.531 102.227 C 154.732 102.175,154.568 102.132,154.167 102.132 C 153.766 102.132,153.602 102.175,153.802 102.227 M165.614 103.906 L 164.896 104.688 165.677 103.970 C 166.404 103.301,166.554 103.125,166.395 103.125 C 166.360 103.125,166.009 103.477,165.614 103.906 M137.867 116.397 C 138.126 116.447,138.501 116.445,138.700 116.393 C 138.900 116.341,138.688 116.300,138.229 116.303 C 137.771 116.305,137.608 116.348,137.867 116.397 M189.263 127.188 C 189.263 132.917,189.290 135.230,189.323 132.329 C 189.355 129.428,189.355 124.741,189.323 121.913 C 189.290 119.085,189.263 121.458,189.263 127.188 M257.791 126.042 C 257.791 127.703,257.823 128.383,257.863 127.552 C 257.903 126.721,257.903 125.362,257.863 124.531 C 257.823 123.701,257.791 124.380,257.791 126.042 M225.893 132.813 C 225.894 133.385,225.935 133.595,225.983 133.278 C 226.031 132.962,226.029 132.493,225.980 132.237 C 225.931 131.980,225.891 132.240,225.893 132.813 M263.438 135.203 L 257.813 135.313 257.794 136.563 L 257.775 137.813 257.856 136.615 L 257.937 135.417 263.436 135.417 C 266.876 135.417,268.982 135.339,269.063 135.208 C 269.133 135.094,269.162 135.021,269.127 135.047 C 269.091 135.073,266.531 135.143,263.438 135.203 M201.836 209.612 C 201.662 209.722,201.846 209.786,202.344 209.788 C 202.773 209.790,203.125 209.756,203.125 209.712 C 203.125 209.531,202.090 209.451,201.836 209.612 M195.000 216.458 C 195.172 216.569,195.453 216.660,195.625 216.660 C 195.903 216.660,195.903 216.638,195.625 216.458 C 195.453 216.347,195.172 216.256,195.000 216.256 C 194.722 216.256,194.722 216.279,195.000 216.458 M199.863 220.022 C 200.343 220.135,200.928 220.134,201.322 220.020 C 201.871 219.860,201.740 219.830,200.521 219.831 C 199.198 219.833,199.137 219.851,199.863 220.022 M204.583 221.458 C 204.349 221.610,204.453 221.660,205.000 221.660 C 205.547 221.660,205.651 221.610,205.417 221.458 C 205.245 221.347,205.057 221.256,205.000 221.256 C 204.943 221.256,204.755 221.347,204.583 221.458 " stroke="none" fill="#949494" fill-rule="evenodd"></path><path id="path5" d="M259.667 79.583 C 259.667 81.359,259.699 82.086,259.738 81.198 C 259.777 80.310,259.777 78.857,259.738 77.969 C 259.699 77.081,259.667 77.807,259.667 79.583 M279.890 95.521 C 279.890 102.510,279.916 105.340,279.948 101.808 C 279.980 98.276,279.980 92.557,279.948 89.100 C 279.916 85.642,279.890 88.531,279.890 95.521 M201.927 210.769 C 202.128 210.821,202.456 210.821,202.656 210.769 C 202.857 210.716,202.693 210.673,202.292 210.673 C 201.891 210.673,201.727 210.716,201.927 210.769 M200.704 216.915 C 200.647 217.008,200.981 217.083,201.446 217.083 C 201.911 217.083,202.292 217.047,202.292 217.002 C 202.292 216.835,200.804 216.754,200.704 216.915 M200.785 218.068 C 201.159 218.114,201.722 218.113,202.035 218.066 C 202.348 218.018,202.042 217.980,201.354 217.981 C 200.667 217.982,200.411 218.021,200.785 218.068 M201.406 219.526 C 201.779 219.572,202.388 219.572,202.760 219.526 C 203.133 219.479,202.828 219.442,202.083 219.442 C 201.339 219.442,201.034 219.479,201.406 219.526 " stroke="none" fill="#8c8c8c" fill-rule="evenodd"></path></g></svg>