<svg id="svg" version="1.1" xmlns="http://www.w3.org/2000/svg" xmlns:xlink="http://www.w3.org/1999/xlink" width="400" height="225" viewBox="0, 0, 400,225"><g id="svgg"><path id="path0" d="M151.771 75.968 C 140.675 77.755,134.531 89.499,139.470 99.479 C 147.148 114.994,170.417 109.467,170.417 92.128 C 170.417 82.314,161.320 74.430,151.771 75.968 M190.350 76.055 C 178.876 77.374,172.383 89.692,177.727 100.000 C 182.160 108.553,193.216 111.330,201.345 105.934 C 201.980 105.513,202.500 105.079,202.500 104.970 C 202.500 104.718,198.707 100.390,198.553 100.466 C 198.489 100.498,197.969 100.770,197.396 101.072 C 189.809 105.067,181.222 98.639,182.986 90.286 C 184.252 84.296,190.836 80.838,196.458 83.209 C 197.203 83.524,197.938 83.797,198.091 83.817 C 198.687 83.896,202.284 79.516,201.940 79.129 C 200.290 77.275,194.074 75.627,190.350 76.055 M111.458 92.281 L 111.458 108.125 114.583 108.125 L 117.708 108.125 117.708 101.762 L 117.708 95.399 119.317 95.460 L 120.925 95.521 123.848 101.816 L 126.771 108.110 130.136 108.118 L 133.502 108.125 130.397 101.436 C 126.845 93.784,127.098 94.546,127.969 94.123 C 134.557 90.918,134.162 80.721,127.319 77.337 L 125.752 76.563 118.605 76.500 L 111.458 76.438 111.458 92.281 M208.333 92.292 L 208.333 108.125 211.458 108.125 L 214.583 108.125 214.583 102.129 L 214.583 96.133 215.846 94.889 C 216.956 93.796,217.138 93.687,217.356 93.986 C 217.493 94.174,219.337 97.431,221.454 101.226 L 225.304 108.125 229.006 108.125 C 231.042 108.125,232.708 108.087,232.708 108.040 C 232.708 107.992,230.286 103.844,227.324 98.821 C 224.363 93.797,221.829 89.478,221.693 89.221 C 221.464 88.788,221.829 88.329,226.869 82.707 C 229.852 79.380,232.292 76.613,232.292 76.558 C 232.292 76.503,230.419 76.458,228.130 76.458 L 223.968 76.458 219.432 81.458 C 216.937 84.208,214.826 86.458,214.740 86.458 C 214.654 86.458,214.583 84.208,214.583 81.458 L 214.583 76.458 211.458 76.458 L 208.333 76.458 208.333 92.292 M238.542 92.292 L 238.542 108.125 249.063 108.125 L 259.583 108.125 259.583 105.000 L 259.583 101.875 252.182 101.875 L 244.782 101.875 244.839 98.385 L 244.896 94.896 250.990 94.841 L 257.083 94.785 257.083 91.664 L 257.083 88.542 250.938 88.542 L 244.792 88.542 244.792 85.625 L 244.792 82.708 252.188 82.708 L 259.583 82.708 259.583 79.583 L 259.583 76.458 249.063 76.458 L 238.542 76.458 238.542 92.292 M264.792 79.583 L 264.792 82.708 269.167 82.708 L 273.542 82.708 273.542 95.417 L 273.542 108.125 276.667 108.125 L 279.792 108.125 279.792 95.417 L 279.792 82.708 284.167 82.708 L 288.542 82.708 288.542 79.583 L 288.542 76.458 276.667 76.458 L 264.792 76.458 264.792 79.583 M156.555 82.611 C 163.999 84.550,166.546 93.825,161.123 99.248 C 155.661 104.710,146.434 102.160,144.477 94.647 C 142.610 87.479,149.372 80.740,156.555 82.611 M125.000 83.177 C 126.428 84.152,126.892 86.177,125.990 87.502 C 124.999 88.957,124.701 89.055,121.027 89.133 L 117.708 89.203 117.708 85.956 L 117.708 82.708 121.011 82.708 C 124.093 82.708,124.359 82.740,125.000 83.177 M233.475 116.468 C 225.778 117.374,218.973 124.419,218.960 131.495 C 218.957 132.809,221.650 133.589,223.829 132.905 C 224.530 132.685,225.264 132.504,225.459 132.503 C 225.708 132.501,225.852 132.265,225.941 131.719 C 227.167 124.125,233.675 120.954,241.176 124.296 C 241.707 124.533,245.411 119.935,245.032 119.510 C 243.404 117.683,237.146 116.036,233.475 116.468 M135.000 116.932 C 132.021 117.952,128.112 121.515,129.000 122.403 C 129.529 122.931,139.922 122.445,141.702 121.808 C 142.942 121.364,143.841 121.207,145.722 121.107 C 148.990 120.932,149.209 120.632,147.075 119.251 C 142.984 116.604,138.484 115.740,135.000 116.932 M167.299 119.778 C 166.493 121.387,165.834 122.727,165.835 122.758 C 165.836 122.788,166.469 122.825,167.241 122.841 C 168.051 122.858,169.736 123.151,171.219 123.532 C 172.634 123.897,173.841 124.145,173.901 124.085 C 173.961 124.025,173.267 122.402,172.358 120.478 L 170.706 116.979 169.735 116.916 L 168.764 116.853 167.299 119.778 M189.375 122.282 L 189.375 127.689 190.156 127.810 C 190.586 127.877,191.475 128.068,192.132 128.236 C 193.379 128.555,194.732 128.631,195.295 128.415 C 195.585 128.304,195.625 127.594,195.625 122.582 L 195.625 116.875 192.500 116.875 L 189.375 116.875 189.375 122.282 M207.500 123.825 L 207.500 130.775 208.594 130.907 C 209.195 130.979,210.602 131.039,211.719 131.040 L 213.750 131.042 213.750 123.958 L 213.750 116.875 210.625 116.875 L 207.500 116.875 207.500 123.825 M251.458 126.018 L 251.458 135.161 252.129 135.260 C 252.498 135.314,253.687 135.138,254.770 134.870 C 256.265 134.500,257.046 134.413,258.006 134.510 C 260.884 134.801,262.943 134.674,264.993 134.080 C 266.270 133.710,267.370 133.523,268.118 133.550 C 270.168 133.624,270.000 133.829,270.000 131.250 L 270.000 128.958 263.854 128.958 L 257.708 128.958 257.708 126.042 L 257.708 123.125 265.208 123.125 L 272.708 123.125 272.708 120.000 L 272.708 116.875 262.083 116.875 L 251.458 116.875 251.458 126.018 M199.111 188.376 C 198.711 189.097,198.078 190.391,197.706 191.250 C 197.333 192.109,196.620 193.630,196.120 194.629 C 195.620 195.628,195.013 197.175,194.772 198.067 C 194.530 198.958,194.009 200.625,193.614 201.771 C 192.240 205.750,191.158 210.462,190.527 215.208 C 190.250 217.290,189.587 224.000,189.584 224.740 C 189.583 225.067,190.354 225.085,190.462 224.760 C 190.522 224.579,190.938 224.579,192.154 224.760 C 195.436 225.248,204.797 225.074,207.253 224.479 C 209.879 223.843,209.792 223.843,209.792 224.479 C 209.792 224.803,209.910 225.000,210.104 225.000 C 210.902 225.000,209.601 214.705,208.208 210.001 C 207.818 208.683,206.930 205.495,206.234 202.917 C 204.869 197.857,204.406 196.577,201.884 190.906 C 199.967 186.595,200.054 186.674,199.111 188.376 M201.580 191.347 C 203.008 194.648,204.786 199.931,205.622 203.358 C 205.968 204.777,206.477 206.641,206.753 207.500 C 207.464 209.714,207.534 210.129,207.238 210.375 C 206.083 211.330,195.840 211.415,192.841 210.493 C 192.369 210.348,192.451 209.569,193.219 206.875 C 193.497 205.901,194.102 203.676,194.563 201.930 C 195.111 199.858,195.800 197.898,196.548 196.282 C 197.178 194.921,198.129 192.740,198.662 191.435 C 200.228 187.600,199.962 187.608,201.580 191.347 M202.292 202.083 C 201.879 202.215,201.858 202.250,202.188 202.250 C 202.417 202.250,202.839 202.175,203.125 202.083 C 203.537 201.951,203.559 201.917,203.229 201.917 C 203.000 201.917,202.578 201.992,202.292 202.083 M202.552 203.060 C 202.753 203.113,203.081 203.113,203.281 203.060 C 203.482 203.008,203.318 202.965,202.917 202.965 C 202.516 202.965,202.352 203.008,202.552 203.060 M202.448 204.105 C 202.706 204.155,203.128 204.155,203.385 204.105 C 203.643 204.056,203.432 204.015,202.917 204.015 C 202.401 204.015,202.190 204.056,202.448 204.105 M202.292 205.208 L 201.563 205.362 202.292 205.365 C 202.693 205.366,203.302 205.296,203.646 205.208 L 204.271 205.049 203.646 205.052 C 203.302 205.054,202.693 205.124,202.292 205.208 M202.396 206.042 L 201.563 206.191 202.292 206.196 C 202.693 206.198,203.302 206.129,203.646 206.042 C 204.494 205.826,203.601 205.826,202.396 206.042 M203.021 207.083 L 202.188 207.233 202.917 207.241 C 203.318 207.246,203.880 207.175,204.167 207.083 C 204.836 206.869,204.218 206.869,203.021 207.083 M202.500 208.125 C 201.641 208.259,201.624 208.272,202.292 208.290 C 202.693 208.301,203.396 208.232,203.854 208.137 C 204.930 207.914,203.912 207.905,202.500 208.125 M202.813 209.167 L 201.979 209.316 202.708 209.321 C 203.109 209.323,203.719 209.254,204.063 209.167 C 204.910 208.951,204.017 208.951,202.813 209.167 M202.917 210.208 L 201.979 210.354 202.813 210.361 C 203.271 210.364,203.927 210.296,204.271 210.208 C 205.104 209.996,204.281 209.996,202.917 210.208 M207.877 212.344 C 208.271 213.401,209.014 218.203,209.295 221.505 C 209.455 223.396,209.652 223.233,206.340 223.951 C 202.227 224.843,197.930 224.906,192.871 224.150 C 190.226 223.755,190.263 224.010,191.589 215.417 C 192.250 211.133,192.174 211.381,192.746 211.687 C 193.411 212.043,204.400 211.949,205.768 211.575 C 207.395 211.131,207.431 211.144,207.877 212.344 M202.917 212.418 L 200.729 212.687 202.708 212.591 C 203.797 212.539,204.969 212.411,205.313 212.307 C 206.124 212.063,205.607 212.087,202.917 212.418 M204.375 213.125 L 203.438 213.271 204.271 213.281 C 204.729 213.287,205.339 213.217,205.625 213.125 C 206.283 212.914,205.730 212.914,204.375 213.125 M198.527 213.405 C 197.384 213.719,195.911 214.557,195.241 215.275 C 194.814 215.732,194.675 215.771,194.136 215.583 C 193.798 215.465,193.463 215.426,193.394 215.495 C 193.324 215.565,193.563 215.681,193.925 215.754 C 194.287 215.826,194.583 215.956,194.583 216.042 C 194.583 216.358,194.001 216.671,193.620 216.560 C 193.365 216.485,193.392 216.531,193.698 216.692 C 194.253 216.984,194.279 217.150,193.839 217.589 C 193.659 217.769,193.612 217.917,193.735 217.917 C 194.125 217.917,193.986 218.749,193.594 218.765 C 193.276 218.777,193.281 218.800,193.633 218.937 C 193.855 219.024,194.142 219.410,194.272 219.796 C 194.658 220.942,194.876 220.777,196.944 217.772 C 199.762 213.679,199.720 213.725,200.380 213.883 C 201.063 214.046,201.458 214.341,201.458 214.687 C 201.458 214.934,197.369 221.191,196.749 221.891 C 196.589 222.072,196.459 222.307,196.459 222.412 C 196.461 222.726,197.444 221.475,198.682 219.583 C 201.561 215.184,201.814 214.856,202.104 215.145 C 202.357 215.398,202.464 215.195,200.305 218.542 C 199.528 219.745,198.533 221.164,198.092 221.696 C 197.082 222.915,197.090 223.014,198.219 223.330 C 200.944 224.093,205.833 222.150,205.833 220.304 C 205.833 220.148,205.951 219.946,206.094 219.854 C 206.237 219.762,206.354 219.317,206.354 218.864 C 206.354 218.162,206.432 218.018,206.875 217.895 C 207.393 217.751,207.393 217.750,206.806 217.729 C 206.097 217.704,206.151 217.269,206.890 217.047 C 207.346 216.910,207.334 216.899,206.771 216.937 C 206.335 216.966,206.146 216.884,206.146 216.667 C 206.146 216.495,206.005 216.245,205.834 216.111 C 205.461 215.820,205.513 215.766,206.458 215.460 L 207.188 215.224 206.285 215.341 C 205.543 215.438,205.310 215.381,204.975 215.021 C 204.751 214.781,204.205 214.399,203.761 214.172 C 203.318 213.946,202.923 213.678,202.884 213.576 C 202.758 213.248,199.556 213.122,198.527 213.405 M193.854 213.750 C 194.083 213.848,194.411 213.929,194.583 213.929 C 194.780 213.929,194.742 213.863,194.479 213.750 C 194.250 213.652,193.922 213.571,193.750 213.571 C 193.553 213.571,193.592 213.637,193.854 213.750 M205.469 213.894 C 205.669 213.946,205.997 213.946,206.198 213.894 C 206.398 213.841,206.234 213.798,205.833 213.798 C 205.432 213.798,205.268 213.841,205.469 213.894 M205.833 214.583 C 205.415 214.717,205.394 214.751,205.729 214.756 C 205.958 214.760,206.333 214.682,206.563 214.583 C 207.093 214.355,206.546 214.355,205.833 214.583 M206.458 220.426 C 206.230 220.581,206.314 220.600,206.771 220.498 C 207.537 220.327,207.703 220.207,207.170 220.212 C 206.951 220.213,206.630 220.310,206.458 220.426 M206.458 221.250 C 206.046 221.382,206.024 221.417,206.354 221.417 C 206.583 221.417,207.005 221.342,207.292 221.250 C 207.704 221.118,207.726 221.083,207.396 221.083 C 207.167 221.083,206.745 221.158,206.458 221.250 M192.708 222.052 C 192.880 222.153,193.302 222.296,193.646 222.371 C 194.046 222.457,194.158 222.440,193.958 222.323 C 193.786 222.222,193.365 222.079,193.021 222.004 C 192.621 221.918,192.508 221.935,192.708 222.052 M206.354 222.083 C 205.793 222.226,205.782 222.243,206.250 222.246 C 206.536 222.248,207.005 222.175,207.292 222.083 C 207.992 221.859,207.235 221.859,206.354 222.083 M205.313 223.125 C 204.755 223.267,204.744 223.284,205.208 223.284 C 205.495 223.284,206.010 223.212,206.354 223.125 C 206.912 222.983,206.923 222.966,206.458 222.966 C 206.172 222.966,205.656 223.038,205.313 223.125 M192.917 223.330 C 193.089 223.443,193.456 223.537,193.733 223.538 C 194.401 223.543,194.232 223.424,193.333 223.259 C 192.820 223.165,192.697 223.186,192.917 223.330 " stroke="none" fill="#f8f8f8" fill-rule="evenodd"></path><path id="path1" d="M0.000 112.500 L 0.000 225.000 94.666 225.000 L 189.333 225.000 189.469 223.490 C 190.432 212.834,191.174 208.614,193.131 202.659 C 193.686 200.970,194.334 198.880,194.572 198.014 C 194.809 197.149,195.344 195.765,195.760 194.939 C 196.176 194.113,197.000 192.359,197.592 191.042 C 198.820 188.306,199.673 186.875,200.074 186.875 C 200.332 186.875,202.530 191.607,204.380 196.146 C 204.801 197.177,205.590 199.708,206.134 201.771 C 206.678 203.833,207.449 206.599,207.849 207.917 C 209.332 212.813,210.171 217.475,210.539 222.865 L 210.685 225.000 305.342 225.000 L 400.000 225.000 400.000 112.500 L 400.000 0.000 200.000 0.000 L 0.000 0.000 0.000 112.500 M158.193 76.273 C 169.003 78.955,174.034 91.693,167.995 101.094 C 161.522 111.170,146.780 111.274,140.325 101.290 C 132.151 88.647,143.578 72.648,158.193 76.273 M196.354 76.345 C 198.401 76.898,202.292 78.887,202.292 79.379 C 202.292 79.473,201.397 80.581,200.304 81.843 L 198.315 84.136 197.022 83.535 C 191.392 80.919,184.745 83.901,183.228 89.725 C 181.052 98.082,189.442 104.943,197.112 101.079 L 198.703 100.277 200.653 102.532 C 203.046 105.301,202.977 104.985,201.414 106.001 C 190.246 113.264,175.724 105.565,175.751 92.396 C 175.773 81.536,186.023 73.551,196.354 76.345 M125.250 76.481 C 133.603 78.230,135.617 90.345,128.185 94.136 L 127.323 94.576 130.433 101.270 C 132.143 104.952,133.542 108.048,133.542 108.149 C 133.542 108.454,126.962 108.380,126.726 108.073 C 126.616 107.930,125.232 105.023,123.650 101.615 L 120.773 95.417 119.241 95.417 L 117.708 95.417 117.708 101.771 L 117.708 108.125 114.479 108.125 L 111.250 108.125 111.250 92.188 L 111.250 76.250 117.698 76.250 C 121.619 76.250,124.579 76.341,125.250 76.481 M214.840 81.283 L 214.896 86.315 219.450 81.283 L 224.004 76.250 228.252 76.250 C 230.588 76.250,232.500 76.320,232.500 76.406 C 232.499 76.492,230.064 79.281,227.087 82.604 C 224.111 85.927,221.675 88.740,221.675 88.854 C 221.675 88.969,224.193 93.328,227.270 98.542 L 232.865 108.021 229.200 108.078 C 227.184 108.109,225.434 108.096,225.310 108.049 C 225.186 108.001,223.308 104.771,221.136 100.870 L 217.188 93.778 215.990 94.956 L 214.792 96.133 214.792 102.129 L 214.792 108.125 211.563 108.125 L 208.333 108.125 208.333 92.188 L 208.333 76.250 211.559 76.250 L 214.784 76.250 214.840 81.283 M259.792 79.479 L 259.792 82.708 252.396 82.708 L 245.000 82.708 245.000 85.625 L 245.000 88.542 251.042 88.542 L 257.083 88.542 257.083 91.771 L 257.083 95.000 251.042 95.000 L 245.000 95.000 245.000 98.333 L 245.000 101.667 252.297 101.667 L 259.594 101.667 259.537 104.948 L 259.479 108.229 248.958 108.229 L 238.438 108.229 238.384 92.500 C 238.354 83.849,238.375 76.654,238.429 76.510 C 238.507 76.307,240.847 76.250,249.160 76.250 L 259.792 76.250 259.792 79.479 M288.750 79.479 L 288.750 82.708 284.377 82.708 L 280.003 82.708 279.950 95.469 L 279.896 108.229 276.720 108.287 L 273.545 108.344 273.491 95.578 L 273.438 82.813 269.010 82.756 L 264.583 82.700 264.583 79.475 L 264.583 76.250 276.667 76.250 L 288.750 76.250 288.750 79.479 M151.354 82.793 C 144.065 85.107,141.882 94.186,147.378 99.327 C 155.472 106.899,167.812 97.575,162.797 87.677 C 160.799 83.735,155.504 81.474,151.354 82.793 M117.708 85.833 L 117.708 88.958 120.889 88.958 C 125.262 88.958,126.785 87.968,126.352 85.406 C 125.996 83.294,124.745 82.711,120.573 82.709 L 117.708 82.708 117.708 85.833 M142.396 116.888 C 144.467 117.528,148.542 119.744,148.542 120.229 C 148.542 120.410,145.729 125.134,145.410 125.489 C 145.323 125.586,144.729 125.331,144.091 124.923 C 139.379 121.909,134.792 122.166,134.792 125.443 C 134.792 127.248,135.501 127.823,139.237 129.047 C 146.115 131.300,149.356 134.922,149.130 140.102 C 148.708 149.753,136.364 152.434,127.333 144.837 C 125.958 143.681,125.914 143.809,128.550 141.298 L 130.747 139.205 131.874 140.141 C 136.375 143.879,142.708 143.509,142.708 139.508 C 142.708 137.922,139.776 135.778,136.563 135.015 C 125.964 132.498,125.406 119.202,135.788 116.559 C 137.409 116.146,140.494 116.300,142.396 116.888 M239.479 116.761 C 241.526 117.315,245.417 119.304,245.417 119.796 C 245.417 119.889,244.522 120.998,243.429 122.259 L 241.440 124.553 240.147 123.952 C 234.529 121.341,227.867 124.330,226.353 130.142 C 224.144 138.623,232.883 145.527,240.546 141.356 L 241.822 140.662 243.828 142.972 C 246.191 145.693,246.116 145.397,244.688 146.344 C 231.488 155.107,214.620 142.398,219.685 127.506 C 222.464 119.336,231.289 114.546,239.479 116.761 M178.164 132.500 C 182.257 141.151,185.610 148.349,185.616 148.495 C 185.623 148.702,184.857 148.748,182.135 148.703 L 178.646 148.646 177.203 145.677 L 175.760 142.708 169.286 142.712 L 162.813 142.715 161.269 145.733 L 159.725 148.750 156.229 148.750 C 154.306 148.750,152.695 148.680,152.649 148.594 C 152.603 148.508,154.362 144.922,156.558 140.625 C 158.754 136.328,162.404 129.175,164.669 124.729 L 168.786 116.645 169.754 116.708 L 170.722 116.771 178.164 132.500 M195.668 127.448 C 195.727 137.931,195.741 138.256,196.171 139.185 C 198.279 143.742,204.738 143.771,206.871 139.233 C 207.296 138.329,207.310 137.991,207.352 127.537 L 207.396 116.771 210.625 116.771 L 213.854 116.771 213.908 127.348 C 213.968 139.046,213.914 139.707,212.697 142.178 C 208.138 151.439,194.840 151.413,190.394 142.135 C 189.229 139.703,189.174 139.045,189.170 127.344 L 189.167 116.667 192.387 116.667 L 195.607 116.667 195.668 127.448 M272.708 119.896 L 272.708 123.125 265.313 123.125 L 257.917 123.125 257.917 126.042 L 257.917 128.958 264.063 128.958 L 270.208 128.958 270.208 132.188 L 270.208 135.417 264.063 135.417 L 257.917 135.417 257.917 138.750 L 257.917 142.083 265.208 142.083 L 272.500 142.083 272.500 145.417 L 272.500 148.750 261.979 148.750 L 251.458 148.750 251.458 132.708 L 251.458 116.667 262.083 116.667 L 272.708 116.667 272.708 119.896 M167.848 132.841 C 166.957 134.628,166.267 136.128,166.314 136.175 C 166.361 136.222,167.819 136.235,169.552 136.203 L 172.705 136.146 171.237 133.021 C 170.430 131.302,169.701 129.828,169.619 129.744 C 169.536 129.661,168.739 131.055,167.848 132.841 M199.937 188.892 C 199.876 188.990,199.452 190.012,198.993 191.164 C 198.534 192.315,197.641 194.376,197.008 195.743 C 195.938 198.056,194.787 201.463,194.162 204.167 C 194.017 204.797,193.688 206.016,193.433 206.875 C 193.177 207.734,192.906 208.870,192.830 209.399 L 192.691 210.361 193.481 210.483 C 197.616 211.121,203.181 211.164,205.938 210.578 C 207.414 210.264,207.395 210.383,206.458 207.188 C 206.122 206.042,205.461 203.651,204.989 201.875 C 203.488 196.223,200.365 188.199,199.937 188.892 M202.866 198.594 C 202.768 198.892,201.458 199.082,201.458 198.798 C 201.458 198.470,201.720 198.333,202.344 198.333 C 202.737 198.333,202.921 198.425,202.866 198.594 M203.125 199.688 C 203.125 199.913,202.894 200.000,202.292 200.000 C 200.978 200.000,201.300 199.469,202.656 199.399 C 202.945 199.384,203.125 199.495,203.125 199.688 M203.491 200.677 C 203.389 200.986,201.458 201.160,201.458 200.860 C 201.458 200.615,201.939 200.474,202.882 200.441 C 203.352 200.424,203.549 200.501,203.491 200.677 M203.814 201.979 C 203.763 202.248,203.024 202.453,202.014 202.479 C 200.950 202.507,201.095 202.026,202.204 201.849 C 203.284 201.677,203.863 201.723,203.814 201.979 M204.167 202.903 C 204.167 203.292,201.851 203.666,201.313 203.364 C 201.000 203.188,200.989 203.135,201.250 203.047 C 202.271 202.701,204.167 202.607,204.167 202.903 M204.375 203.934 C 204.375 204.207,203.587 204.369,202.240 204.372 C 200.960 204.375,200.591 204.041,201.719 203.901 C 203.045 203.736,204.375 203.753,204.375 203.934 M196.292 204.417 C 196.097 204.611,195.986 204.611,195.792 204.417 C 195.597 204.222,195.653 204.167,196.042 204.167 C 196.431 204.167,196.486 204.222,196.292 204.417 M204.792 204.978 C 204.792 205.268,204.229 205.417,202.603 205.554 C 200.847 205.703,200.187 205.321,201.819 205.101 C 202.365 205.027,202.906 204.935,203.021 204.896 C 203.472 204.741,204.792 204.802,204.792 204.978 M196.012 205.185 C 196.227 205.322,196.234 205.402,196.044 205.519 C 195.906 205.605,195.642 205.523,195.456 205.337 C 195.074 204.955,195.476 204.846,196.012 205.185 M204.850 205.858 C 204.370 206.338,201.195 206.667,200.946 206.263 C 200.879 206.156,201.272 206.008,201.819 205.934 C 202.365 205.861,202.906 205.768,203.021 205.729 C 203.596 205.532,205.072 205.636,204.850 205.858 M195.938 206.250 C 196.008 206.365,195.879 206.458,195.650 206.458 C 195.420 206.458,195.175 206.365,195.104 206.250 C 195.033 206.135,195.163 206.042,195.392 206.042 C 195.621 206.042,195.867 206.135,195.938 206.250 M205.417 206.764 C 205.417 207.178,202.004 207.812,201.079 207.570 C 200.220 207.346,200.629 207.140,202.344 206.935 C 204.399 206.689,205.417 206.632,205.417 206.764 M195.833 207.292 C 195.833 207.406,195.651 207.500,195.429 207.500 C 195.207 207.500,194.967 207.406,194.896 207.292 C 194.823 207.174,194.998 207.083,195.300 207.083 C 195.593 207.083,195.833 207.177,195.833 207.292 M205.575 207.760 C 205.462 208.107,203.559 208.497,201.858 208.522 C 199.661 208.554,199.980 208.258,202.535 207.893 C 205.601 207.455,205.676 207.451,205.575 207.760 M195.625 208.125 C 195.625 208.240,195.443 208.333,195.221 208.333 C 194.998 208.333,194.758 208.240,194.688 208.125 C 194.614 208.007,194.790 207.917,195.092 207.917 C 195.385 207.917,195.625 208.010,195.625 208.125 M205.785 208.791 C 205.632 209.249,201.301 209.968,200.404 209.683 C 199.684 209.455,200.093 209.322,202.657 208.950 C 205.775 208.497,205.885 208.492,205.785 208.791 M195.294 208.876 C 195.658 209.016,195.541 209.375,195.132 209.375 C 194.988 209.375,194.689 209.237,194.467 209.069 C 194.014 208.727,194.569 208.598,195.294 208.876 M205.967 209.890 C 205.174 210.491,200.000 211.130,199.711 210.663 C 199.626 210.525,199.835 210.399,200.255 210.336 C 205.796 209.515,206.539 209.457,205.967 209.890 M195.169 210.104 C 195.108 210.348,194.572 210.265,194.271 209.967 C 194.133 209.829,194.258 209.783,194.642 209.828 C 194.961 209.865,195.198 209.990,195.169 210.104 M206.849 211.563 C 206.835 211.620,206.811 211.784,206.797 211.927 C 206.750 212.395,204.753 212.750,201.979 212.781 C 198.985 212.816,197.590 212.520,199.583 212.273 C 200.266 212.189,199.212 212.138,196.979 212.147 C 194.917 212.155,193.035 212.096,192.798 212.016 C 192.270 211.838,190.454 223.023,190.933 223.503 C 192.605 225.174,209.172 224.389,209.165 222.638 C 209.155 220.500,208.092 213.386,207.609 212.231 C 207.332 211.568,206.935 211.219,206.849 211.563 M195.168 212.807 C 195.443 213.081,194.842 213.261,194.219 213.090 C 193.273 212.831,193.335 212.412,194.297 212.568 C 194.712 212.635,195.104 212.743,195.168 212.807 M206.875 212.899 C 206.875 213.104,205.100 213.542,204.273 213.542 C 203.999 213.542,203.708 213.650,203.626 213.783 C 203.518 213.957,203.673 213.982,204.186 213.874 C 205.712 213.552,207.083 213.480,207.083 213.721 C 207.083 213.851,206.972 213.958,206.835 213.958 C 206.699 213.958,206.769 214.092,206.991 214.256 C 207.437 214.584,207.438 214.583,206.042 214.983 C 205.366 215.176,205.385 215.183,206.302 215.072 C 207.477 214.930,207.634 215.259,206.615 215.726 L 205.938 216.036 206.595 215.923 C 207.389 215.785,207.723 216.175,207.045 216.447 L 206.563 216.640 207.031 216.653 C 207.289 216.661,207.500 216.763,207.500 216.882 C 207.500 217.000,207.289 217.182,207.031 217.285 C 206.585 217.464,206.591 217.474,207.153 217.487 C 207.864 217.503,207.807 217.944,207.068 218.151 C 206.579 218.287,206.581 218.292,207.153 218.313 C 207.815 218.336,207.829 218.807,207.170 218.926 C 206.476 219.052,206.415 219.309,207.103 219.208 C 208.055 219.069,207.798 219.590,206.759 219.909 L 205.938 220.161 207.031 220.051 C 208.854 219.869,208.477 220.453,206.589 220.736 C 206.059 220.816,205.625 220.974,205.625 221.088 C 205.625 221.201,205.785 221.233,205.980 221.158 C 206.715 220.876,208.125 220.774,208.125 221.004 C 208.125 221.288,206.808 221.664,205.807 221.666 C 205.361 221.666,204.934 221.807,204.767 222.009 C 204.517 222.311,204.532 222.337,204.897 222.225 C 206.574 221.714,208.125 221.538,208.125 221.859 C 208.125 222.175,206.648 222.565,205.313 222.601 C 204.508 222.622,203.763 222.789,203.223 223.069 C 201.561 223.929,198.824 224.042,197.453 223.308 C 196.909 223.017,196.978 222.814,198.139 221.286 C 199.360 219.678,202.065 215.601,202.076 215.352 C 202.095 214.905,201.475 215.698,199.846 218.202 C 197.479 221.841,196.250 223.320,196.250 222.530 C 196.250 222.433,197.375 220.677,198.750 218.629 C 200.865 215.477,201.500 214.375,201.197 214.375 C 201.167 214.375,200.838 214.287,200.464 214.180 C 199.789 213.987,199.780 213.994,198.716 215.587 C 195.476 220.437,194.698 221.375,194.450 220.729 C 194.378 220.541,194.064 220.417,193.663 220.417 C 192.976 220.417,192.083 219.931,192.325 219.689 C 192.400 219.614,192.798 219.646,193.210 219.760 C 193.881 219.945,193.958 219.925,193.958 219.567 C 193.958 219.320,193.814 219.167,193.581 219.167 C 193.374 219.167,193.023 219.029,192.800 218.861 C 192.418 218.571,192.432 218.555,193.073 218.548 C 193.921 218.540,193.948 218.235,193.125 217.948 C 192.296 217.659,192.290 217.198,193.117 217.363 C 193.900 217.520,194.109 217.219,193.431 216.910 C 192.704 216.579,192.768 216.184,193.522 216.350 C 193.855 216.423,194.184 216.391,194.253 216.279 C 194.322 216.167,194.098 216.014,193.754 215.938 C 193.127 215.801,192.773 215.491,192.992 215.271 C 193.057 215.207,193.482 215.248,193.937 215.364 C 194.711 215.560,194.800 215.534,195.350 214.948 C 196.578 213.641,198.139 213.127,200.938 213.110 C 202.313 213.101,203.859 213.019,204.375 212.927 C 205.712 212.689,206.875 212.676,206.875 212.899 M194.879 213.765 C 195.198 214.065,194.390 214.240,193.841 213.990 C 193.082 213.644,193.197 213.272,194.010 213.443 C 194.383 213.521,194.773 213.666,194.879 213.765 M205.000 214.375 C 204.588 214.507,204.566 214.542,204.896 214.542 C 205.125 214.542,205.547 214.467,205.833 214.375 C 206.246 214.243,206.267 214.208,205.938 214.208 C 205.708 214.208,205.286 214.283,205.000 214.375 M194.741 214.740 C 194.862 215.110,193.920 215.070,193.425 214.685 C 193.047 214.389,193.073 214.373,193.838 214.424 C 194.288 214.454,194.694 214.596,194.741 214.740 M194.054 221.114 C 194.265 221.268,194.348 221.450,194.238 221.519 C 193.971 221.683,192.292 221.250,192.292 221.016 C 192.292 220.729,193.628 220.803,194.054 221.114 M194.149 222.120 C 194.500 222.251,194.585 222.373,194.432 222.526 C 194.151 222.807,192.260 222.301,192.130 221.911 C 192.034 221.622,193.109 221.734,194.149 222.120 M208.050 222.807 C 207.339 223.345,203.128 223.896,203.624 223.385 C 203.814 223.191,206.966 222.544,207.813 222.526 C 208.394 222.514,208.410 222.534,208.050 222.807 M193.734 223.161 C 194.745 223.394,195.004 223.594,194.611 223.837 C 194.366 223.988,192.321 223.446,192.027 223.152 C 191.712 222.837,192.348 222.841,193.734 223.161 M207.813 224.591 L 206.563 224.967 208.073 224.983 C 209.450 224.999,209.583 224.963,209.583 224.583 C 209.583 224.095,209.464 224.095,207.813 224.591 " stroke="none" fill="#343434" fill-rule="evenodd"></path><path id="path2" d="M146.024 121.126 C 145.977 121.172,145.281 121.241,144.479 121.279 C 143.524 121.325,142.589 121.530,141.771 121.873 C 140.636 122.347,140.213 122.400,137.188 122.446 C 131.693 122.528,128.900 122.684,128.662 122.921 C 128.528 123.055,128.438 124.091,128.438 125.490 C 128.438 130.229,131.413 133.625,136.771 135.002 C 141.766 136.285,144.034 139.186,141.965 141.645 C 140.214 143.726,135.382 143.076,131.975 140.301 L 130.810 139.352 129.207 140.803 C 128.326 141.601,127.296 142.575,126.920 142.967 L 126.236 143.680 127.233 144.609 C 130.558 147.710,134.081 149.057,138.870 149.060 L 141.802 149.063 143.588 148.178 C 148.837 145.577,150.713 139.474,147.705 134.787 C 146.139 132.347,142.922 130.245,138.778 128.956 C 135.599 127.967,134.766 127.270,134.741 125.575 C 134.689 122.155,139.224 121.747,143.947 124.748 L 145.290 125.601 146.598 123.478 C 147.318 122.310,147.909 121.284,147.912 121.198 C 147.917 121.039,146.183 120.972,146.024 121.126 M159.186 135.648 C 155.623 142.650,152.708 148.416,152.708 148.460 C 152.708 148.505,154.301 148.542,156.249 148.542 L 159.789 148.542 161.250 145.625 L 162.711 142.708 169.286 142.708 L 175.862 142.708 177.239 145.625 L 178.616 148.542 182.110 148.542 L 185.604 148.542 185.314 147.865 C 184.274 145.431,174.157 124.272,174.022 124.246 C 172.512 123.954,171.118 123.617,170.122 123.304 C 169.364 123.066,168.268 122.917,167.276 122.917 L 165.663 122.917 159.186 135.648 M189.245 128.013 C 188.972 128.725,189.318 138.823,189.656 139.991 C 192.371 149.367,203.979 152.216,210.557 145.121 C 213.112 142.364,213.782 140.257,213.760 135.041 C 213.742 130.673,214.032 131.144,211.318 131.087 C 210.078 131.060,208.718 130.986,208.298 130.921 L 207.534 130.802 207.464 134.620 C 207.358 140.407,205.679 142.708,201.563 142.708 C 197.118 142.708,195.625 140.316,195.625 133.192 L 195.625 128.542 194.457 128.542 C 193.815 128.542,192.760 128.410,192.113 128.250 C 189.906 127.702,189.381 127.658,189.245 128.013 M171.239 132.847 C 172.047 134.585,172.708 136.061,172.708 136.128 C 172.708 136.195,171.209 136.250,169.376 136.250 L 166.043 136.250 167.756 132.817 C 168.698 130.930,169.536 129.453,169.619 129.536 C 169.701 129.619,170.430 131.109,171.239 132.847 M218.958 133.821 C 218.958 146.141,234.691 153.544,244.957 146.054 L 245.851 145.402 243.936 143.215 C 241.585 140.530,241.966 140.708,240.369 141.541 C 234.404 144.650,226.715 140.781,226.130 134.375 C 225.943 132.321,226.112 132.410,223.646 133.062 C 222.539 133.354,221.874 133.324,220.650 132.929 C 218.882 132.358,218.958 132.318,218.958 133.821 M266.563 133.760 C 266.104 133.843,265.026 134.117,264.167 134.369 C 262.739 134.788,262.332 134.815,259.451 134.686 C 256.627 134.559,256.133 134.590,254.709 134.981 C 253.835 135.220,252.746 135.417,252.289 135.417 L 251.458 135.417 251.458 141.979 L 251.458 148.542 261.979 148.542 L 272.500 148.542 272.500 145.417 L 272.500 142.292 265.208 142.292 L 257.917 142.292 257.917 138.854 L 257.917 135.417 263.958 135.417 L 270.000 135.417 270.000 134.530 L 270.000 133.643 268.698 133.626 C 267.982 133.616,267.021 133.677,266.563 133.760 " stroke="none" fill="#fa3636" fill-rule="evenodd"></path><path id="path3" d="M209.958 76.405 C 210.909 76.444,212.409 76.444,213.291 76.405 C 214.174 76.366,213.396 76.334,211.563 76.334 C 209.729 76.335,209.007 76.366,209.958 76.405 M226.105 76.406 C 227.343 76.442,229.312 76.442,230.480 76.405 C 231.648 76.368,230.635 76.338,228.229 76.338 C 225.823 76.338,224.867 76.369,226.105 76.406 M238.429 76.510 C 238.375 76.654,238.354 83.849,238.384 92.500 L 238.438 108.229 248.906 108.232 L 259.375 108.235 248.958 108.178 L 238.542 108.121 238.542 92.292 L 238.542 76.462 249.219 76.406 L 259.896 76.350 249.212 76.300 C 240.820 76.261,238.507 76.306,238.429 76.510 M270.573 76.406 C 273.924 76.438,279.409 76.438,282.760 76.406 C 286.112 76.374,283.370 76.348,276.667 76.348 C 269.964 76.348,267.221 76.374,270.573 76.406 M153.597 82.441 C 153.913 82.489,154.382 82.488,154.638 82.438 C 154.895 82.389,154.635 82.350,154.063 82.351 C 153.490 82.353,153.280 82.393,153.597 82.441 M244.874 85.729 C 244.874 87.333,244.907 87.962,244.947 87.126 C 244.986 86.291,244.986 84.978,244.946 84.210 C 244.906 83.441,244.874 84.125,244.874 85.729 M137.557 92.292 C 137.557 92.807,137.597 93.018,137.647 92.760 C 137.697 92.503,137.697 92.081,137.647 91.823 C 137.597 91.565,137.557 91.776,137.557 92.292 M129.883 92.760 L 129.271 93.438 129.948 92.826 C 130.320 92.489,130.625 92.184,130.625 92.149 C 130.625 91.988,130.453 92.129,129.883 92.760 M215.930 94.844 L 214.896 95.938 215.990 94.904 C 216.591 94.335,217.083 93.843,217.083 93.810 C 217.083 93.654,216.890 93.827,215.930 94.844 M244.888 98.333 L 244.896 101.771 252.188 101.775 L 259.479 101.779 252.245 101.720 L 245.010 101.661 244.945 98.279 L 244.879 94.896 244.888 98.333 M141.875 103.399 C 141.875 103.434,142.180 103.739,142.552 104.076 L 143.229 104.688 142.617 104.010 C 142.047 103.379,141.875 103.238,141.875 103.399 M128.490 108.280 C 129.435 108.319,130.982 108.319,131.927 108.280 C 132.872 108.241,132.099 108.210,130.208 108.210 C 128.318 108.210,127.544 108.241,128.490 108.280 M275.052 108.280 C 275.940 108.319,277.393 108.319,278.281 108.280 C 279.169 108.241,278.443 108.209,276.667 108.209 C 274.891 108.209,274.164 108.241,275.052 108.280 M168.673 116.831 C 168.617 116.922,168.916 116.964,169.338 116.924 C 170.626 116.802,170.778 116.716,169.752 116.691 C 169.214 116.678,168.729 116.741,168.673 116.831 M190.791 116.822 C 191.742 116.861,193.242 116.860,194.124 116.821 C 195.007 116.782,194.229 116.751,192.396 116.751 C 190.563 116.751,189.840 116.783,190.791 116.822 M207.389 116.922 C 207.333 117.068,207.313 121.641,207.344 127.083 L 207.400 136.979 207.450 126.927 L 207.500 116.875 210.623 116.875 L 213.746 116.875 213.803 126.823 L 213.860 136.771 213.857 126.771 L 213.854 116.771 210.673 116.713 C 208.242 116.669,207.467 116.719,207.389 116.922 M256.719 116.823 C 259.669 116.855,264.497 116.855,267.448 116.823 C 270.398 116.790,267.984 116.763,262.083 116.763 C 256.182 116.763,253.768 116.790,256.719 116.823 M270.084 132.188 C 270.085 134.021,270.116 134.743,270.155 133.792 C 270.194 132.841,270.194 131.341,270.155 130.459 C 270.116 129.576,270.084 130.354,270.084 132.188 M130.208 131.315 C 130.208 131.351,130.513 131.656,130.885 131.992 L 131.563 132.604 130.951 131.927 C 130.380 131.296,130.208 131.154,130.208 131.315 M218.810 133.438 C 218.811 134.010,218.852 134.220,218.899 133.903 C 218.947 133.587,218.946 133.118,218.897 132.862 C 218.847 132.605,218.808 132.865,218.810 133.438 M129.989 139.948 L 129.271 140.729 130.052 140.011 C 130.482 139.616,130.833 139.265,130.833 139.230 C 130.833 139.071,130.657 139.221,129.989 139.948 M261.510 142.239 C 263.544 142.273,266.872 142.273,268.906 142.239 C 270.940 142.205,269.276 142.177,265.208 142.177 C 261.141 142.177,259.477 142.205,261.510 142.239 M138.490 142.855 C 138.747 142.905,139.169 142.905,139.427 142.855 C 139.685 142.806,139.474 142.765,138.958 142.765 C 138.443 142.765,138.232 142.806,138.490 142.855 M126.250 143.815 C 126.250 143.851,126.555 144.156,126.927 144.492 L 127.604 145.104 126.992 144.427 C 126.422 143.796,126.250 143.654,126.250 143.815 M192.708 145.521 C 193.097 145.922,193.462 146.250,193.519 146.250 C 193.577 146.250,193.305 145.922,192.917 145.521 C 192.528 145.120,192.163 144.792,192.106 144.792 C 192.048 144.792,192.320 145.120,192.708 145.521 M210.197 145.573 L 209.479 146.354 210.260 145.636 C 210.988 144.968,211.137 144.792,210.978 144.792 C 210.944 144.792,210.592 145.143,210.197 145.573 M152.682 148.599 C 152.771 148.688,154.430 148.734,156.370 148.703 L 159.896 148.645 156.208 148.541 C 154.179 148.484,152.593 148.510,152.682 148.599 M180.479 148.697 C 181.487 148.735,183.081 148.735,184.021 148.696 C 184.960 148.658,184.135 148.627,182.188 148.627 C 180.240 148.627,179.471 148.659,180.479 148.697 M256.733 148.698 C 259.692 148.730,264.473 148.730,267.358 148.698 C 270.244 148.665,267.823 148.638,261.979 148.638 C 256.135 148.638,253.775 148.665,256.733 148.698 M202.708 198.507 C 202.708 198.641,202.404 198.764,202.031 198.781 C 201.365 198.812,201.364 198.814,201.952 198.902 C 202.550 198.991,203.120 198.676,202.851 198.406 C 202.772 198.328,202.708 198.373,202.708 198.507 M203.315 201.808 C 203.715 201.891,203.758 201.955,203.523 202.118 C 203.306 202.270,203.301 202.304,203.505 202.250 C 203.990 202.122,203.873 201.772,203.333 201.737 L 202.813 201.703 203.315 201.808 M201.389 202.014 C 201.058 202.345,201.310 202.498,202.135 202.465 L 203.021 202.430 202.199 202.346 C 201.604 202.285,201.461 202.209,201.679 202.072 C 201.844 201.967,201.878 201.880,201.753 201.878 C 201.629 201.876,201.465 201.938,201.389 202.014 M200.993 205.438 C 201.175 205.605,203.592 205.814,203.427 205.649 C 203.363 205.586,202.756 205.481,202.076 205.416 C 201.396 205.351,200.908 205.361,200.993 205.438 M201.022 206.315 C 201.116 206.408,201.650 206.453,202.211 206.416 L 203.229 206.348 202.041 206.247 C 201.388 206.191,200.929 206.222,201.022 206.315 M205.082 207.649 C 205.404 207.732,205.424 207.788,205.186 207.954 C 204.941 208.125,204.942 208.144,205.195 208.076 C 205.713 207.936,205.696 207.498,205.174 207.524 C 204.775 207.544,204.758 207.566,205.082 207.649 M202.344 208.477 C 202.544 208.529,202.872 208.529,203.073 208.477 C 203.273 208.425,203.109 208.382,202.708 208.382 C 202.307 208.382,202.143 208.425,202.344 208.477 M200.219 209.364 C 199.835 209.607,200.752 209.873,201.489 209.733 C 201.812 209.672,201.694 209.625,201.146 209.597 C 200.477 209.563,200.395 209.519,200.729 209.375 C 201.004 209.257,201.039 209.192,200.833 209.184 C 200.661 209.178,200.385 209.259,200.219 209.364 M199.707 210.656 C 199.767 210.754,200.350 210.826,201.002 210.817 C 202.372 210.798,202.243 210.697,200.684 210.569 C 200.086 210.519,199.647 210.559,199.707 210.656 M204.896 211.875 L 204.063 212.024 204.792 212.051 C 205.193 212.065,205.661 211.986,205.833 211.875 C 206.174 211.655,206.126 211.655,204.896 211.875 M196.100 212.028 C 196.648 212.071,197.492 212.071,197.975 212.027 C 198.459 211.984,198.010 211.948,196.979 211.949 C 195.948 211.950,195.552 211.985,196.100 212.028 M199.792 212.291 C 199.276 212.377,198.760 212.398,198.646 212.339 C 198.507 212.267,198.507 212.302,198.646 212.445 C 198.789 212.592,199.639 212.578,201.354 212.398 C 203.671 212.155,203.739 212.135,202.292 212.135 C 201.432 212.135,200.307 212.206,199.792 212.291 M200.580 212.862 C 201.185 212.904,202.123 212.904,202.663 212.861 C 203.204 212.818,202.708 212.784,201.563 212.784 C 200.417 212.785,199.974 212.820,200.580 212.862 M194.668 213.718 C 194.762 213.871,194.642 213.967,194.335 213.983 C 193.948 214.002,193.930 214.026,194.241 214.106 C 194.725 214.231,195.145 213.864,194.778 213.637 C 194.611 213.534,194.572 213.563,194.668 213.718 M206.146 214.167 C 206.217 214.281,206.480 214.376,206.731 214.378 C 207.102 214.381,207.129 214.419,206.875 214.583 C 206.687 214.705,206.662 214.787,206.811 214.788 C 207.258 214.794,207.312 214.401,206.895 214.177 C 206.377 213.900,205.978 213.895,206.146 214.167 M204.375 214.247 C 204.375 214.291,204.651 214.368,204.989 214.418 C 205.327 214.467,205.556 214.431,205.498 214.337 C 205.394 214.170,204.375 214.088,204.375 214.247 M205.938 215.000 C 206.167 215.098,206.495 215.179,206.667 215.179 C 206.864 215.179,206.825 215.113,206.563 215.000 C 206.333 214.902,206.005 214.821,205.833 214.821 C 205.636 214.821,205.675 214.887,205.938 215.000 M192.964 215.456 C 193.010 215.592,193.182 215.740,193.346 215.784 C 193.600 215.853,193.601 215.834,193.355 215.662 C 193.118 215.496,193.137 215.440,193.459 215.358 C 193.783 215.275,193.767 215.252,193.368 215.233 C 193.078 215.218,192.915 215.308,192.964 215.456 M192.548 217.539 C 192.593 217.675,192.765 217.823,192.930 217.867 C 193.183 217.936,193.184 217.917,192.939 217.745 C 192.701 217.580,192.721 217.524,193.043 217.441 C 193.367 217.358,193.350 217.336,192.951 217.316 C 192.661 217.301,192.498 217.391,192.548 217.539 M210.257 220.833 C 210.257 221.234,210.300 221.398,210.352 221.198 C 210.404 220.997,210.404 220.669,210.352 220.469 C 210.300 220.268,210.257 220.432,210.257 220.833 M190.886 221.771 C 190.888 222.229,190.931 222.392,190.981 222.133 C 191.031 221.874,191.029 221.499,190.976 221.300 C 190.924 221.100,190.884 221.313,190.886 221.771 M204.593 221.969 L 204.114 222.479 204.661 222.594 C 206.208 222.918,206.357 222.931,206.042 222.718 C 205.870 222.602,205.464 222.505,205.139 222.503 C 204.436 222.499,204.480 222.102,205.225 221.722 C 205.542 221.560,205.607 221.463,205.401 221.461 C 205.220 221.460,204.857 221.688,204.593 221.969 M192.131 221.914 C 192.176 222.050,192.348 222.198,192.513 222.242 C 192.761 222.309,192.763 222.289,192.529 222.124 C 192.289 221.956,192.289 221.908,192.529 221.812 C 192.720 221.737,192.688 221.694,192.431 221.683 C 192.220 221.674,192.086 221.778,192.131 221.914 M210.465 223.125 C 210.465 223.526,210.508 223.690,210.560 223.490 C 210.613 223.289,210.613 222.961,210.560 222.760 C 210.508 222.560,210.465 222.724,210.465 223.125 " stroke="none" fill="#7b7272" fill-rule="evenodd"></path><path id="path4" d="M111.346 76.510 C 111.291 76.654,111.271 83.849,111.302 92.500 L 111.357 108.229 111.408 92.347 L 111.458 76.464 117.760 76.406 L 124.063 76.348 117.754 76.299 C 112.862 76.261,111.423 76.308,111.346 76.510 M214.673 81.458 C 214.673 84.266,214.703 85.414,214.739 84.010 C 214.775 82.607,214.775 80.310,214.739 78.906 C 214.703 77.503,214.673 78.651,214.673 81.458 M264.667 79.583 C 264.667 81.359,264.699 82.086,264.738 81.198 C 264.777 80.310,264.777 78.857,264.738 77.969 C 264.699 77.081,264.667 77.807,264.667 79.583 M288.626 79.583 C 288.626 81.359,288.657 82.086,288.697 81.198 C 288.736 80.310,288.736 78.857,288.697 77.969 C 288.657 77.081,288.626 77.807,288.626 79.583 M142.383 80.677 L 141.771 81.354 142.448 80.742 C 142.820 80.406,143.125 80.101,143.125 80.065 C 143.125 79.904,142.953 80.046,142.383 80.677 M132.757 85.833 C 132.757 86.234,132.800 86.398,132.852 86.198 C 132.904 85.997,132.904 85.669,132.852 85.469 C 132.800 85.268,132.757 85.432,132.757 85.833 M119.228 89.113 C 120.122 89.153,121.528 89.152,122.353 89.113 C 123.179 89.073,122.448 89.041,120.729 89.042 C 119.010 89.042,118.335 89.074,119.228 89.113 M170.485 92.188 C 170.486 92.990,170.524 93.292,170.569 92.860 C 170.614 92.428,170.613 91.771,170.567 91.402 C 170.521 91.032,170.484 91.385,170.485 92.188 M182.771 92.292 C 182.771 92.922,182.810 93.180,182.858 92.865 C 182.905 92.549,182.905 92.034,182.858 91.719 C 182.810 91.404,182.771 91.661,182.771 92.292 M247.969 94.947 C 249.659 94.982,252.424 94.982,254.115 94.947 C 255.805 94.912,254.422 94.884,251.042 94.884 C 247.661 94.884,246.279 94.912,247.969 94.947 M214.675 102.083 C 214.675 105.464,214.704 106.846,214.739 105.156 C 214.774 103.466,214.774 100.701,214.739 99.010 C 214.704 97.320,214.675 98.703,214.675 102.083 M153.802 102.227 C 154.003 102.279,154.331 102.279,154.531 102.227 C 154.732 102.175,154.568 102.132,154.167 102.132 C 153.766 102.132,153.602 102.175,153.802 102.227 M165.614 103.906 L 164.896 104.688 165.677 103.970 C 166.404 103.301,166.554 103.125,166.395 103.125 C 166.360 103.125,166.009 103.477,165.614 103.906 M137.867 116.397 C 138.126 116.447,138.501 116.445,138.700 116.393 C 138.900 116.341,138.688 116.300,138.229 116.303 C 137.771 116.305,137.608 116.348,137.867 116.397 M189.258 122.396 C 189.258 125.490,189.287 126.784,189.322 125.273 C 189.358 123.761,189.358 121.230,189.322 119.648 C 189.287 118.066,189.258 119.302,189.258 122.396 M145.052 121.185 C 145.253 121.238,145.581 121.238,145.781 121.185 C 145.982 121.133,145.818 121.090,145.417 121.090 C 145.016 121.090,144.852 121.133,145.052 121.185 M166.513 122.858 C 166.830 122.906,167.299 122.904,167.555 122.855 C 167.811 122.806,167.552 122.766,166.979 122.768 C 166.406 122.769,166.197 122.810,166.513 122.858 M257.791 126.042 C 257.791 127.703,257.823 128.383,257.863 127.552 C 257.903 126.721,257.903 125.362,257.863 124.531 C 257.823 123.701,257.791 124.380,257.791 126.042 M262.135 134.727 C 262.336 134.779,262.664 134.779,262.865 134.727 C 263.065 134.675,262.901 134.632,262.500 134.632 C 262.099 134.632,261.935 134.675,262.135 134.727 M201.667 199.792 C 201.667 199.906,201.878 199.999,202.135 199.997 C 202.514 199.994,202.544 199.955,202.292 199.792 C 201.888 199.531,201.667 199.531,201.667 199.792 M203.333 202.917 C 203.737 203.178,203.958 203.178,203.958 202.917 C 203.958 202.802,203.747 202.710,203.490 202.712 C 203.111 202.714,203.081 202.753,203.333 202.917 M201.563 203.125 C 201.485 203.251,201.748 203.328,202.227 203.319 C 202.861 203.307,202.937 203.268,202.604 203.125 C 202.032 202.879,201.715 202.879,201.563 203.125 M202.917 203.830 C 202.917 203.874,203.151 203.955,203.438 204.009 C 203.724 204.064,203.958 204.028,203.958 203.929 C 203.958 203.831,203.724 203.750,203.438 203.750 C 203.151 203.750,202.917 203.786,202.917 203.830 M201.563 204.167 C 201.633 204.281,201.990 204.366,202.356 204.354 C 202.991 204.334,202.997 204.326,202.500 204.167 C 201.752 203.927,201.414 203.927,201.563 204.167 M203.958 205.000 C 204.362 205.261,204.583 205.261,204.583 205.000 C 204.583 204.885,204.372 204.793,204.115 204.795 C 203.736 204.797,203.706 204.837,203.958 205.000 M204.030 205.861 C 204.306 206.021,204.480 206.020,204.645 205.855 C 204.813 205.687,204.709 205.627,204.260 205.631 C 203.722 205.637,203.693 205.665,204.030 205.861 M202.309 205.908 C 202.357 205.949,202.677 206.046,203.021 206.123 C 203.477 206.225,203.562 206.206,203.333 206.051 C 203.052 205.861,202.100 205.728,202.309 205.908 M202.934 206.950 C 202.982 206.991,203.302 207.088,203.646 207.165 C 204.102 207.267,204.187 207.247,203.958 207.093 C 203.677 206.902,202.725 206.770,202.934 206.950 M201.354 207.292 C 201.275 207.419,201.574 207.494,202.123 207.485 C 202.816 207.474,202.926 207.430,202.604 207.292 C 202.028 207.044,201.507 207.044,201.354 207.292 M204.271 207.917 C 204.844 208.163,205.048 208.163,204.896 207.917 C 204.825 207.802,204.562 207.715,204.311 207.723 C 203.871 207.737,203.869 207.744,204.271 207.917 M202.917 208.125 C 203.629 208.353,204.177 208.353,203.646 208.125 C 203.417 208.027,203.042 207.949,202.813 207.952 C 202.478 207.957,202.498 207.991,202.917 208.125 M200.938 208.333 C 201.008 208.448,201.254 208.542,201.483 208.542 C 201.712 208.542,201.842 208.448,201.771 208.333 C 201.700 208.219,201.455 208.125,201.225 208.125 C 200.996 208.125,200.867 208.219,200.938 208.333 M202.726 209.033 C 202.773 209.074,203.094 209.171,203.438 209.248 C 203.894 209.350,203.978 209.331,203.750 209.176 C 203.469 208.986,202.517 208.853,202.726 209.033 M200.833 209.375 C 200.609 209.520,200.814 209.577,201.563 209.577 C 202.311 209.577,202.516 209.520,202.292 209.375 C 202.120 209.264,201.792 209.173,201.563 209.173 C 201.333 209.173,201.005 209.264,200.833 209.375 M194.479 210.000 C 194.550 210.115,194.749 210.208,194.920 210.208 C 195.092 210.208,195.175 210.115,195.104 210.000 C 195.033 209.885,194.835 209.792,194.663 209.792 C 194.491 209.792,194.408 209.885,194.479 210.000 M202.934 210.075 C 202.982 210.116,203.302 210.213,203.646 210.290 C 204.102 210.392,204.187 210.372,203.958 210.218 C 203.677 210.027,202.725 209.895,202.934 210.075 M200.729 210.417 C 200.435 210.543,200.681 210.596,201.563 210.596 C 202.444 210.596,202.690 210.543,202.396 210.417 C 202.167 210.318,201.792 210.238,201.563 210.238 C 201.333 210.238,200.958 210.318,200.729 210.417 M199.227 211.196 C 200.006 211.237,201.224 211.236,201.936 211.196 C 202.647 211.155,202.010 211.122,200.521 211.123 C 199.031 211.123,198.449 211.156,199.227 211.196 M200.156 212.029 C 200.872 212.070,202.044 212.070,202.760 212.029 C 203.477 211.989,202.891 211.955,201.458 211.955 C 200.026 211.955,199.440 211.989,200.156 212.029 M205.833 212.083 C 205.833 212.344,206.054 212.344,206.458 212.083 C 206.711 211.920,206.681 211.881,206.302 211.878 C 206.044 211.876,205.833 211.969,205.833 212.083 M204.184 212.158 C 204.232 212.199,204.552 212.296,204.896 212.373 C 205.352 212.475,205.437 212.456,205.208 212.301 C 204.927 212.111,203.975 211.978,204.184 212.158 M202.034 212.439 C 202.293 212.489,202.668 212.487,202.867 212.435 C 203.066 212.383,202.854 212.342,202.396 212.344 C 201.938 212.347,201.775 212.389,202.034 212.439 M199.844 212.644 C 200.044 212.696,200.372 212.696,200.573 212.644 C 200.773 212.591,200.609 212.548,200.208 212.548 C 199.807 212.548,199.643 212.591,199.844 212.644 M206.000 212.958 C 206.194 213.153,206.306 213.153,206.500 212.958 C 206.694 212.764,206.639 212.708,206.250 212.708 C 205.861 212.708,205.806 212.764,206.000 212.958 M204.392 212.992 C 204.440 213.033,204.760 213.129,205.104 213.206 C 205.561 213.308,205.645 213.289,205.417 213.135 C 205.135 212.944,204.183 212.811,204.392 212.992 M202.917 213.542 C 203.039 213.771,203.189 213.958,203.249 213.958 C 203.309 213.958,203.300 213.865,203.229 213.750 C 203.156 213.631,203.351 213.535,203.686 213.527 C 204.200 213.514,204.221 213.491,203.854 213.333 C 203.055 212.990,202.668 213.076,202.917 213.542 M206.250 213.750 C 206.654 214.011,206.875 214.011,206.875 213.750 C 206.875 213.635,206.664 213.543,206.406 213.545 C 206.027 213.547,205.997 213.587,206.250 213.750 M204.427 213.965 C 204.169 214.068,203.958 214.213,203.958 214.286 C 203.958 214.360,204.122 214.350,204.323 214.265 C 204.523 214.181,204.969 214.119,205.313 214.128 C 205.843 214.142,205.874 214.117,205.521 213.962 C 205.004 213.735,204.998 213.735,204.427 213.965 M205.000 214.884 C 205.000 215.347,205.326 215.440,205.360 214.986 C 205.377 214.764,205.303 214.583,205.195 214.583 C 205.088 214.583,205.000 214.718,205.000 214.884 M194.898 215.414 C 194.570 215.757,194.341 216.071,194.390 216.111 C 194.439 216.152,194.746 215.872,195.073 215.488 C 195.810 214.623,195.700 214.577,194.898 215.414 M205.628 215.788 C 205.626 215.935,205.760 216.106,205.924 216.170 C 206.089 216.233,206.176 216.408,206.118 216.559 C 206.061 216.709,206.109 216.892,206.227 216.965 C 206.344 217.037,206.380 217.255,206.305 217.448 C 206.186 217.759,206.208 217.764,206.501 217.493 C 206.779 217.236,206.785 217.161,206.541 217.021 C 206.136 216.789,206.177 216.461,206.615 216.444 C 206.882 216.434,206.840 216.366,206.458 216.190 C 206.172 216.057,205.869 215.853,205.784 215.735 C 205.687 215.599,205.630 215.618,205.628 215.788 M206.431 217.969 C 206.206 218.406,206.392 219.090,206.714 219.006 C 207.076 218.912,207.077 218.895,206.724 218.624 C 206.401 218.377,206.394 218.315,206.667 218.132 C 206.876 217.992,206.894 217.922,206.719 217.920 C 206.576 217.918,206.446 217.940,206.431 217.969 M209.007 219.792 C 209.007 220.193,209.050 220.357,209.102 220.156 C 209.154 219.956,209.154 219.628,209.102 219.427 C 209.050 219.227,209.007 219.391,209.007 219.792 M189.840 220.417 C 189.840 220.818,189.883 220.982,189.935 220.781 C 189.988 220.581,189.988 220.253,189.935 220.052 C 189.883 219.852,189.840 220.016,189.840 220.417 M192.692 220.067 C 192.799 220.174,193.037 220.158,193.261 220.027 C 193.599 219.830,193.576 219.807,193.076 219.842 C 192.745 219.865,192.584 219.959,192.692 220.067 M205.972 219.931 C 205.643 220.260,205.881 220.556,206.475 220.556 C 206.957 220.556,207.034 220.510,206.785 220.371 C 206.604 220.269,206.346 220.253,206.213 220.335 C 206.051 220.436,206.015 220.370,206.104 220.138 C 206.245 219.771,206.201 219.702,205.972 219.931 M207.292 220.208 C 207.696 220.469,207.917 220.469,207.917 220.208 C 207.917 220.094,207.706 220.001,207.448 220.003 C 207.069 220.006,207.039 220.045,207.292 220.208 M209.219 221.979 C 209.222 222.438,209.264 222.600,209.314 222.341 C 209.364 222.082,209.362 221.707,209.310 221.508 C 209.258 221.309,209.217 221.521,209.219 221.979 M196.652 221.789 C 196.493 221.980,196.522 222.037,196.761 222.002 C 197.233 221.933,197.600 221.528,197.191 221.528 C 197.014 221.528,196.771 221.645,196.652 221.789 M210.257 222.292 C 210.257 222.693,210.300 222.857,210.352 222.656 C 210.404 222.456,210.404 222.128,210.352 221.927 C 210.300 221.727,210.257 221.891,210.257 222.292 M190.682 222.708 C 190.682 223.224,190.722 223.435,190.772 223.177 C 190.822 222.919,190.822 222.497,190.772 222.240 C 190.722 221.982,190.682 222.193,190.682 222.708 M205.104 222.281 C 204.786 222.409,204.880 222.450,205.499 222.454 C 206.049 222.457,206.217 222.399,206.020 222.274 C 205.681 222.059,205.653 222.059,205.104 222.281 M189.632 222.917 C 189.632 223.318,189.675 223.482,189.727 223.281 C 189.779 223.081,189.779 222.753,189.727 222.552 C 189.675 222.352,189.632 222.516,189.632 222.917 M199.638 223.691 C 199.955 223.739,200.424 223.738,200.680 223.688 C 200.936 223.639,200.677 223.600,200.104 223.601 C 199.531 223.603,199.322 223.643,199.638 223.691 M199.118 224.734 C 199.493 224.781,200.055 224.780,200.368 224.732 C 200.681 224.685,200.375 224.647,199.688 224.648 C 199.000 224.649,198.744 224.688,199.118 224.734 " stroke="none" fill="#949494" fill-rule="evenodd"></path><path id="path5" d="M259.667 79.583 C 259.667 81.359,259.699 82.086,259.738 81.198 C 259.777 80.310,259.777 78.857,259.738 77.969 C 259.699 77.081,259.667 77.807,259.667 79.583 M279.890 95.521 C 279.890 102.510,279.916 105.340,279.948 101.808 C 279.980 98.276,279.980 92.557,279.948 89.100 C 279.916 85.642,279.890 88.531,279.890 95.521 " stroke="none" fill="#8c8c8c" fill-rule="evenodd"></path></g></svg>