<svg id="svg" version="1.1" xmlns="http://www.w3.org/2000/svg" xmlns:xlink="http://www.w3.org/1999/xlink" width="400" height="225" viewBox="0, 0, 400,225"><g id="svgg"><path id="path0" d="M151.771 75.968 C 140.675 77.755,134.531 89.499,139.470 99.479 C 147.148 114.994,170.417 109.467,170.417 92.128 C 170.417 82.314,161.320 74.430,151.771 75.968 M190.350 76.055 C 178.876 77.374,172.383 89.692,177.727 100.000 C 182.160 108.553,193.216 111.330,201.345 105.934 C 201.980 105.513,202.500 105.079,202.500 104.970 C 202.500 104.718,198.707 100.390,198.553 100.466 C 198.489 100.498,197.969 100.770,197.396 101.072 C 189.809 105.067,181.222 98.639,182.986 90.286 C 184.252 84.296,190.836 80.838,196.458 83.209 C 197.203 83.524,197.938 83.797,198.091 83.817 C 198.687 83.896,202.284 79.516,201.940 79.129 C 200.290 77.275,194.074 75.627,190.350 76.055 M111.458 92.281 L 111.458 108.125 114.583 108.125 L 117.708 108.125 117.708 101.762 L 117.708 95.399 119.317 95.460 L 120.925 95.521 123.848 101.816 L 126.771 108.110 130.136 108.118 L 133.502 108.125 130.397 101.436 C 126.845 93.784,127.098 94.546,127.969 94.123 C 134.557 90.918,134.162 80.721,127.319 77.337 L 125.752 76.563 118.605 76.500 L 111.458 76.438 111.458 92.281 M208.333 92.292 L 208.333 108.125 211.458 108.125 L 214.583 108.125 214.583 102.129 L 214.583 96.133 215.846 94.889 C 216.956 93.796,217.138 93.687,217.356 93.986 C 217.493 94.174,219.337 97.431,221.454 101.226 L 225.304 108.125 229.006 108.125 C 231.042 108.125,232.708 108.087,232.708 108.040 C 232.708 107.992,230.286 103.844,227.324 98.821 C 224.363 93.797,221.829 89.478,221.693 89.221 C 221.464 88.788,221.829 88.329,226.869 82.707 C 229.852 79.380,232.292 76.613,232.292 76.558 C 232.292 76.503,230.419 76.458,228.130 76.458 L 223.968 76.458 219.432 81.458 C 216.937 84.208,214.826 86.458,214.740 86.458 C 214.654 86.458,214.583 84.208,214.583 81.458 L 214.583 76.458 211.458 76.458 L 208.333 76.458 208.333 92.292 M238.542 92.292 L 238.542 108.125 249.063 108.125 L 259.583 108.125 259.583 105.000 L 259.583 101.875 252.182 101.875 L 244.782 101.875 244.839 98.385 L 244.896 94.896 250.990 94.841 L 257.083 94.785 257.083 91.664 L 257.083 88.542 250.938 88.542 L 244.792 88.542 244.792 85.625 L 244.792 82.708 252.188 82.708 L 259.583 82.708 259.583 79.583 L 259.583 76.458 249.063 76.458 L 238.542 76.458 238.542 92.292 M264.792 79.583 L 264.792 82.708 269.167 82.708 L 273.542 82.708 273.542 95.417 L 273.542 108.125 276.667 108.125 L 279.792 108.125 279.792 95.417 L 279.792 82.708 284.167 82.708 L 288.542 82.708 288.542 79.583 L 288.542 76.458 276.667 76.458 L 264.792 76.458 264.792 79.583 M156.555 82.611 C 163.999 84.550,166.546 93.825,161.123 99.248 C 155.661 104.710,146.434 102.160,144.477 94.647 C 142.610 87.479,149.372 80.740,156.555 82.611 M125.000 83.177 C 126.428 84.152,126.892 86.177,125.990 87.502 C 124.999 88.957,124.701 89.055,121.027 89.133 L 117.708 89.203 117.708 85.956 L 117.708 82.708 121.011 82.708 C 124.093 82.708,124.359 82.740,125.000 83.177 M233.475 116.468 C 229.887 116.890,226.061 118.725,223.761 121.126 L 223.043 121.875 223.761 121.875 C 224.156 121.875,225.190 122.011,226.058 122.177 C 226.927 122.343,228.286 122.535,229.079 122.602 C 230.506 122.724,231.825 123.035,232.144 123.326 C 232.235 123.408,232.798 123.345,233.394 123.184 C 235.665 122.572,238.083 122.918,241.176 124.296 C 241.707 124.533,245.411 119.935,245.032 119.510 C 243.404 117.683,237.146 116.036,233.475 116.468 M135.208 116.838 C 133.842 117.296,132.657 117.897,131.678 118.630 C 130.786 119.298,131.100 119.316,133.365 118.729 C 134.612 118.406,135.345 118.328,136.171 118.432 C 137.247 118.566,138.365 118.371,142.083 117.398 L 143.021 117.153 142.188 116.893 C 140.694 116.428,136.528 116.395,135.208 116.838 M191.875 117.226 C 193.943 118.127,195.625 118.197,195.625 117.384 L 195.625 116.875 193.385 116.892 C 191.193 116.909,191.161 116.916,191.875 117.226 M207.500 118.229 C 207.500 119.782,207.209 119.633,210.313 119.667 C 211.344 119.678,212.539 119.768,212.969 119.867 L 213.750 120.046 213.750 118.461 L 213.750 116.875 210.625 116.875 L 207.500 116.875 207.500 118.229 M251.458 122.175 L 251.458 127.474 252.399 127.615 C 252.921 127.694,253.750 127.653,254.264 127.523 C 254.775 127.395,255.753 127.346,256.449 127.414 L 257.708 127.538 257.708 125.332 L 257.708 123.125 265.208 123.125 L 272.708 123.125 272.708 120.000 L 272.708 116.875 262.083 116.875 L 251.458 116.875 251.458 122.175 M199.861 179.427 C 199.552 179.914,198.815 181.391,198.222 182.708 C 197.628 184.026,196.807 185.771,196.396 186.586 C 195.985 187.401,195.458 188.813,195.226 189.723 C 194.994 190.633,194.558 192.028,194.258 192.824 C 192.294 198.030,191.077 204.576,190.210 214.583 C 189.977 217.276,189.694 220.464,189.581 221.667 C 189.267 225.011,189.265 225.000,190.000 225.000 C 190.563 225.000,190.626 224.933,190.638 224.323 C 190.688 221.846,190.991 216.231,191.081 216.141 C 191.141 216.081,192.118 216.177,193.251 216.355 C 198.103 217.113,204.085 216.938,208.110 215.919 C 209.191 215.646,210.117 215.464,210.168 215.515 C 210.219 215.566,210.310 217.722,210.369 220.304 C 210.473 224.837,210.491 225.000,210.897 225.000 C 211.308 225.000,211.314 224.916,211.182 220.573 C 210.924 212.037,210.029 205.492,208.412 200.316 C 208.126 199.401,207.336 196.577,206.656 194.041 C 205.421 189.434,204.889 187.983,202.174 181.827 C 200.550 178.144,200.625 178.221,199.861 179.427 M201.619 181.844 C 203.312 185.541,205.715 192.656,206.343 195.833 C 206.422 196.234,206.762 197.407,207.098 198.439 C 207.434 199.471,207.732 200.686,207.761 201.137 L 207.813 201.959 206.667 202.245 C 204.261 202.845,196.948 202.788,193.698 202.145 C 192.935 201.994,192.941 201.345,193.729 198.519 C 194.061 197.328,194.669 195.078,195.080 193.519 C 195.491 191.959,196.102 190.037,196.437 189.248 C 196.773 188.458,197.715 186.266,198.531 184.375 C 199.347 182.484,200.103 180.727,200.211 180.469 C 200.530 179.708,200.729 179.902,201.619 181.844 M203.385 195.560 C 203.586 195.613,203.914 195.613,204.115 195.560 C 204.315 195.508,204.151 195.465,203.750 195.465 C 203.349 195.465,203.185 195.508,203.385 195.560 M203.229 196.667 L 202.396 196.816 203.125 196.821 C 203.526 196.823,204.135 196.754,204.479 196.667 C 205.327 196.451,204.434 196.451,203.229 196.667 M203.229 197.500 L 202.396 197.649 203.125 197.654 C 203.526 197.657,204.135 197.587,204.479 197.500 C 205.327 197.284,204.434 197.284,203.229 197.500 M203.594 198.685 C 203.794 198.738,204.122 198.738,204.323 198.685 C 204.523 198.633,204.359 198.590,203.958 198.590 C 203.557 198.590,203.393 198.633,203.594 198.685 M203.438 199.583 L 202.604 199.733 203.333 199.737 C 203.734 199.740,204.344 199.671,204.688 199.583 C 205.535 199.368,204.642 199.368,203.438 199.583 M203.750 200.625 C 203.047 200.773,203.043 200.779,203.646 200.781 C 203.990 200.783,204.552 200.712,204.896 200.625 C 205.760 200.405,204.795 200.405,203.750 200.625 M203.854 201.667 L 203.021 201.816 203.750 201.821 C 204.151 201.823,204.760 201.754,205.104 201.667 C 205.952 201.451,205.059 201.451,203.854 201.667 M208.352 203.797 C 208.769 204.857,209.528 209.855,209.725 212.829 L 209.850 214.720 208.623 215.054 C 204.138 216.274,198.603 216.533,193.785 215.747 C 190.980 215.289,191.099 215.457,191.405 212.407 C 191.938 207.090,192.726 203.079,193.208 203.229 C 194.158 203.524,205.472 203.377,206.563 203.055 C 207.905 202.659,207.905 202.659,208.352 203.797 M202.448 204.109 C 202.820 204.155,203.430 204.155,203.802 204.109 C 204.174 204.063,203.870 204.025,203.125 204.025 C 202.380 204.025,202.076 204.063,202.448 204.109 M204.844 204.727 C 205.044 204.779,205.372 204.779,205.573 204.727 C 205.773 204.675,205.609 204.632,205.208 204.632 C 204.807 204.632,204.643 204.675,204.844 204.727 M198.542 205.077 C 197.075 205.605,195.245 206.977,194.937 207.781 C 194.864 207.970,194.591 208.136,194.329 208.149 C 193.977 208.167,193.948 208.198,194.219 208.269 C 194.769 208.412,194.685 209.161,194.115 209.191 C 193.762 209.209,193.736 209.239,194.010 209.310 C 194.546 209.450,194.468 210.161,193.906 210.270 L 193.438 210.360 193.897 210.388 C 194.232 210.409,194.473 210.683,194.793 211.406 L 195.231 212.396 195.634 211.875 C 196.066 211.315,198.736 207.482,199.587 206.199 C 200.365 205.026,202.474 205.328,201.844 206.523 C 201.625 206.938,197.782 212.781,197.217 213.557 C 197.086 213.737,197.334 213.511,197.767 213.054 C 198.200 212.597,198.991 211.512,199.524 210.643 C 201.544 207.352,202.729 205.969,202.701 206.939 C 202.692 207.250,200.173 211.097,198.764 212.952 C 197.503 214.612,197.522 214.489,198.490 214.812 C 201.226 215.725,205.121 214.260,206.368 211.848 C 206.538 211.519,206.839 211.249,207.037 211.247 C 207.234 211.245,207.536 211.151,207.708 211.039 C 207.931 210.893,207.825 210.871,207.344 210.964 C 206.891 211.051,206.667 211.013,206.667 210.849 C 206.667 210.715,206.971 210.464,207.344 210.292 C 207.963 210.006,207.972 209.990,207.448 210.098 C 207.034 210.183,206.875 210.133,206.875 209.917 C 206.875 209.753,207.133 209.516,207.448 209.391 L 208.021 209.164 207.448 209.274 C 206.732 209.410,206.659 208.922,207.344 208.579 C 207.786 208.358,207.780 208.351,207.240 208.466 C 206.585 208.604,206.387 208.020,207.031 207.852 C 207.256 207.793,207.175 207.747,206.823 207.733 C 206.182 207.705,206.024 207.168,206.615 207.022 C 206.815 206.972,206.718 206.964,206.398 207.004 C 206.016 207.051,205.775 206.966,205.694 206.753 C 205.626 206.576,205.043 206.133,204.400 205.770 C 203.230 205.109,203.230 205.109,203.854 204.992 C 204.198 204.927,203.307 204.861,201.875 204.845 C 200.232 204.826,199.002 204.912,198.542 205.077 M205.729 205.417 C 205.172 205.559,205.160 205.576,205.625 205.576 C 205.911 205.576,206.427 205.504,206.771 205.417 C 207.328 205.275,207.340 205.258,206.875 205.258 C 206.589 205.258,206.073 205.329,205.729 205.417 M207.188 211.875 C 206.657 212.103,207.204 212.103,207.917 211.875 C 208.335 211.741,208.356 211.707,208.021 211.702 C 207.792 211.699,207.417 211.777,207.188 211.875 M207.188 212.708 C 206.620 212.853,206.611 212.868,207.083 212.877 C 207.370 212.883,207.792 212.807,208.021 212.708 C 208.535 212.488,208.055 212.488,207.188 212.708 M206.771 213.654 L 205.729 213.935 206.667 213.819 C 207.182 213.755,207.745 213.623,207.917 213.525 C 208.341 213.282,208.011 213.320,206.771 213.654 M193.646 213.750 C 193.875 213.848,194.203 213.929,194.375 213.929 C 194.572 213.929,194.533 213.863,194.271 213.750 C 194.042 213.652,193.714 213.571,193.542 213.571 C 193.345 213.571,193.383 213.637,193.646 213.750 M206.146 214.583 C 205.588 214.725,205.577 214.742,206.042 214.742 C 206.328 214.742,206.844 214.671,207.188 214.583 C 207.745 214.441,207.756 214.424,207.292 214.424 C 207.005 214.424,206.490 214.496,206.146 214.583 M193.559 214.867 C 193.607 214.908,193.927 215.004,194.271 215.081 C 194.727 215.183,194.812 215.164,194.583 215.010 C 194.302 214.819,193.350 214.686,193.559 214.867 M204.271 217.500 C 203.265 217.638,203.257 217.644,204.063 217.664 C 204.521 217.675,205.271 217.607,205.729 217.512 C 206.792 217.292,205.844 217.284,204.271 217.500 M193.594 217.644 C 193.794 217.696,194.122 217.696,194.323 217.644 C 194.523 217.591,194.359 217.548,193.958 217.548 C 193.557 217.548,193.393 217.591,193.594 217.644 M193.594 218.477 C 193.794 218.529,194.122 218.529,194.323 218.477 C 194.523 218.425,194.359 218.382,193.958 218.382 C 193.557 218.382,193.393 218.425,193.594 218.477 M203.906 218.480 C 204.164 218.530,204.586 218.530,204.844 218.480 C 205.102 218.431,204.891 218.390,204.375 218.390 C 203.859 218.390,203.648 218.431,203.906 218.480 M193.385 219.519 C 193.586 219.571,193.914 219.571,194.115 219.519 C 194.315 219.466,194.151 219.423,193.750 219.423 C 193.349 219.423,193.185 219.466,193.385 219.519 M204.115 219.522 C 204.372 219.572,204.794 219.572,205.052 219.522 C 205.310 219.472,205.099 219.432,204.583 219.432 C 204.068 219.432,203.857 219.472,204.115 219.522 M193.333 220.417 C 193.620 220.508,194.042 220.583,194.271 220.583 C 194.601 220.583,194.579 220.549,194.167 220.417 C 193.880 220.325,193.458 220.250,193.229 220.250 C 192.899 220.250,192.921 220.285,193.333 220.417 M204.327 220.568 C 204.701 220.614,205.264 220.613,205.577 220.566 C 205.890 220.518,205.583 220.480,204.896 220.481 C 204.208 220.482,203.952 220.521,204.327 220.568 M205.159 221.397 C 205.418 221.447,205.793 221.445,205.992 221.393 C 206.191 221.341,205.979 221.300,205.521 221.303 C 205.063 221.305,204.900 221.348,205.159 221.397 M202.135 221.610 C 202.565 221.655,203.268 221.655,203.698 221.610 C 204.128 221.565,203.776 221.528,202.917 221.528 C 202.057 221.528,201.706 221.565,202.135 221.610 M205.677 222.227 C 205.878 222.279,206.206 222.279,206.406 222.227 C 206.607 222.175,206.443 222.132,206.042 222.132 C 205.641 222.132,205.477 222.175,205.677 222.227 M193.802 222.435 C 194.003 222.488,194.331 222.488,194.531 222.435 C 194.732 222.383,194.568 222.340,194.167 222.340 C 193.766 222.340,193.602 222.383,193.802 222.435 M203.493 222.443 C 203.868 222.489,204.430 222.488,204.743 222.441 C 205.056 222.393,204.750 222.355,204.063 222.356 C 203.375 222.357,203.119 222.396,203.493 222.443 M205.677 223.269 C 205.878 223.321,206.206 223.321,206.406 223.269 C 206.607 223.216,206.443 223.173,206.042 223.173 C 205.641 223.173,205.477 223.216,205.677 223.269 M202.448 223.486 C 202.935 223.530,203.732 223.530,204.219 223.486 C 204.706 223.442,204.307 223.406,203.333 223.406 C 202.359 223.406,201.961 223.442,202.448 223.486 M193.333 224.375 C 193.620 224.467,194.089 224.540,194.375 224.538 C 194.843 224.534,194.832 224.518,194.271 224.375 C 193.390 224.151,192.633 224.151,193.333 224.375 M205.677 224.310 C 205.878 224.363,206.206 224.363,206.406 224.310 C 206.607 224.258,206.443 224.215,206.042 224.215 C 205.641 224.215,205.477 224.258,205.677 224.310 M202.448 224.528 C 202.935 224.571,203.732 224.571,204.219 224.528 C 204.706 224.484,204.307 224.448,203.333 224.448 C 202.359 224.448,201.961 224.484,202.448 224.528 " stroke="none" fill="#f7f7f7" fill-rule="evenodd"></path><path id="path1" d="M0.000 112.500 L 0.000 225.000 94.559 225.000 L 189.118 225.000 189.242 223.698 C 189.310 222.982,189.513 220.661,189.693 218.542 C 190.833 205.114,191.704 199.814,193.748 193.854 C 194.102 192.823,194.627 191.135,194.915 190.104 C 195.526 187.915,199.127 180.011,200.045 178.845 C 200.661 178.061,200.666 178.067,202.589 182.414 C 205.221 188.364,205.475 189.067,206.852 194.192 C 207.540 196.756,208.380 199.746,208.716 200.836 C 210.198 205.632,211.054 212.121,211.374 220.990 L 211.519 225.000 305.760 225.000 L 400.000 225.000 400.000 112.500 L 400.000 0.000 200.000 0.000 L 0.000 0.000 0.000 112.500 M158.193 76.273 C 169.003 78.955,174.034 91.693,167.995 101.094 C 161.522 111.170,146.780 111.274,140.325 101.290 C 132.151 88.647,143.578 72.648,158.193 76.273 M196.354 76.345 C 198.401 76.898,202.292 78.887,202.292 79.379 C 202.292 79.473,201.397 80.581,200.304 81.843 L 198.315 84.136 197.022 83.535 C 191.392 80.919,184.745 83.901,183.228 89.725 C 181.052 98.082,189.442 104.943,197.112 101.079 L 198.703 100.277 200.653 102.532 C 203.046 105.301,202.977 104.985,201.414 106.001 C 190.246 113.264,175.724 105.565,175.751 92.396 C 175.773 81.536,186.023 73.551,196.354 76.345 M125.250 76.481 C 133.603 78.230,135.617 90.345,128.185 94.136 L 127.323 94.576 130.433 101.270 C 132.143 104.952,133.542 108.048,133.542 108.149 C 133.542 108.454,126.962 108.380,126.726 108.073 C 126.616 107.930,125.232 105.023,123.650 101.615 L 120.773 95.417 119.241 95.417 L 117.708 95.417 117.708 101.771 L 117.708 108.125 114.479 108.125 L 111.250 108.125 111.250 92.188 L 111.250 76.250 117.698 76.250 C 121.619 76.250,124.579 76.341,125.250 76.481 M214.840 81.283 L 214.896 86.315 219.450 81.283 L 224.004 76.250 228.252 76.250 C 230.588 76.250,232.500 76.320,232.500 76.406 C 232.499 76.492,230.064 79.281,227.087 82.604 C 224.111 85.927,221.675 88.740,221.675 88.854 C 221.675 88.969,224.193 93.328,227.270 98.542 L 232.865 108.021 229.200 108.078 C 227.184 108.109,225.434 108.096,225.310 108.049 C 225.186 108.001,223.308 104.771,221.136 100.870 L 217.188 93.778 215.990 94.956 L 214.792 96.133 214.792 102.129 L 214.792 108.125 211.563 108.125 L 208.333 108.125 208.333 92.188 L 208.333 76.250 211.559 76.250 L 214.784 76.250 214.840 81.283 M259.792 79.479 L 259.792 82.708 252.396 82.708 L 245.000 82.708 245.000 85.625 L 245.000 88.542 251.042 88.542 L 257.083 88.542 257.083 91.771 L 257.083 95.000 251.042 95.000 L 245.000 95.000 245.000 98.333 L 245.000 101.667 252.297 101.667 L 259.594 101.667 259.537 104.948 L 259.479 108.229 248.958 108.229 L 238.438 108.229 238.384 92.500 C 238.354 83.849,238.375 76.654,238.429 76.510 C 238.507 76.307,240.847 76.250,249.160 76.250 L 259.792 76.250 259.792 79.479 M288.750 79.479 L 288.750 82.708 284.377 82.708 L 280.003 82.708 279.950 95.469 L 279.896 108.229 276.720 108.287 L 273.545 108.344 273.491 95.578 L 273.438 82.813 269.010 82.756 L 264.583 82.700 264.583 79.475 L 264.583 76.250 276.667 76.250 L 288.750 76.250 288.750 79.479 M151.354 82.793 C 144.065 85.107,141.882 94.186,147.378 99.327 C 155.472 106.899,167.812 97.575,162.797 87.677 C 160.799 83.735,155.504 81.474,151.354 82.793 M117.708 85.833 L 117.708 88.958 120.889 88.958 C 125.262 88.958,126.785 87.968,126.352 85.406 C 125.996 83.294,124.745 82.711,120.573 82.709 L 117.708 82.708 117.708 85.833 M142.396 116.888 C 144.579 117.563,148.542 119.731,148.542 120.250 C 148.542 120.443,145.769 125.076,145.406 125.489 C 145.321 125.586,144.729 125.331,144.091 124.923 C 139.379 121.909,134.792 122.166,134.792 125.443 C 134.792 127.248,135.501 127.823,139.237 129.047 C 146.115 131.300,149.356 134.922,149.130 140.102 C 148.708 149.753,136.364 152.434,127.333 144.837 C 125.958 143.681,125.914 143.809,128.550 141.298 L 130.747 139.205 131.874 140.141 C 136.375 143.879,142.708 143.509,142.708 139.508 C 142.708 137.922,139.776 135.778,136.563 135.015 C 125.964 132.498,125.406 119.202,135.788 116.559 C 137.410 116.146,140.494 116.300,142.396 116.888 M239.479 116.761 C 241.526 117.315,245.417 119.304,245.417 119.796 C 245.417 119.889,244.522 120.998,243.429 122.259 L 241.440 124.553 240.147 123.952 C 232.573 120.432,224.550 126.846,226.274 135.042 C 227.592 141.308,234.786 144.491,240.546 141.356 L 241.822 140.662 243.828 142.972 C 246.191 145.693,246.116 145.397,244.688 146.344 C 233.553 153.735,218.849 146.027,218.876 132.813 C 218.898 121.953,229.148 113.967,239.479 116.761 M178.166 132.500 C 182.257 141.151,185.610 148.349,185.615 148.495 C 185.623 148.702,184.857 148.748,182.135 148.703 L 178.646 148.646 177.203 145.677 L 175.760 142.708 169.286 142.712 L 162.813 142.715 161.269 145.733 L 159.725 148.750 156.229 148.750 C 154.306 148.750,152.695 148.680,152.649 148.594 C 152.603 148.508,154.362 144.922,156.558 140.625 C 158.754 136.328,162.404 129.175,164.669 124.729 L 168.786 116.645 169.756 116.708 L 170.726 116.771 178.166 132.500 M195.668 127.448 C 195.727 137.931,195.741 138.256,196.171 139.185 C 198.279 143.742,204.738 143.771,206.871 139.233 C 207.296 138.329,207.310 137.991,207.352 127.537 L 207.396 116.771 210.625 116.771 L 213.854 116.771 213.908 127.348 C 213.968 139.046,213.914 139.707,212.697 142.178 C 208.138 151.439,194.840 151.413,190.394 142.135 C 189.229 139.703,189.174 139.045,189.170 127.344 L 189.167 116.667 192.387 116.667 L 195.607 116.667 195.668 127.448 M272.708 119.896 L 272.708 123.125 265.313 123.125 L 257.917 123.125 257.917 126.042 L 257.917 128.958 264.063 128.958 L 270.208 128.958 270.208 132.188 L 270.208 135.417 264.063 135.417 L 257.917 135.417 257.917 138.750 L 257.917 142.083 265.208 142.083 L 272.500 142.083 272.500 145.417 L 272.500 148.750 261.979 148.750 L 251.458 148.750 251.458 132.708 L 251.458 116.667 262.083 116.667 L 272.708 116.667 272.708 119.896 M167.848 132.841 C 166.957 134.628,166.267 136.128,166.314 136.175 C 166.361 136.222,167.819 136.235,169.552 136.203 L 172.705 136.146 171.237 133.021 C 170.430 131.302,169.701 129.828,169.619 129.744 C 169.536 129.661,168.739 131.055,167.848 132.841 M199.171 183.385 C 198.449 185.133,197.554 187.172,197.183 187.917 C 196.426 189.437,195.421 192.454,194.685 195.416 C 194.415 196.505,193.953 198.322,193.659 199.454 C 193.365 200.586,193.125 201.584,193.125 201.672 C 193.125 202.327,203.520 202.674,206.302 202.112 C 207.973 201.774,207.957 201.836,207.101 199.117 C 206.768 198.056,206.243 196.156,205.936 194.896 C 204.860 190.480,201.142 180.208,200.619 180.208 C 200.545 180.208,199.893 181.638,199.171 183.385 M203.333 190.104 C 203.333 190.322,203.113 190.417,202.604 190.417 C 201.475 190.417,201.718 189.848,202.865 189.808 C 203.150 189.798,203.333 189.914,203.333 190.104 M203.647 191.043 C 203.828 191.336,203.294 191.502,202.468 191.410 L 201.771 191.333 202.292 191.096 C 202.954 190.795,203.481 190.775,203.647 191.043 M203.958 192.188 C 203.958 192.425,203.699 192.500,202.875 192.500 C 201.433 192.500,201.967 191.978,203.490 191.899 C 203.778 191.884,203.958 191.995,203.958 192.188 M204.314 193.462 C 204.399 193.719,203.461 193.958,202.370 193.958 C 201.579 193.958,201.416 193.604,202.135 193.448 C 203.646 193.119,204.201 193.123,204.314 193.462 M204.583 194.363 C 204.583 194.672,204.346 194.751,202.934 194.910 C 201.850 195.033,201.629 195.008,201.708 194.770 C 201.855 194.326,204.583 193.940,204.583 194.363 M204.889 195.406 C 205.011 195.602,204.224 195.794,203.021 195.861 C 202.056 195.915,201.667 195.851,201.667 195.638 C 201.667 195.292,204.684 195.074,204.889 195.406 M196.875 195.833 C 196.875 195.948,196.688 196.042,196.458 196.042 C 196.229 196.042,196.042 195.948,196.042 195.833 C 196.042 195.719,196.229 195.625,196.458 195.625 C 196.688 195.625,196.875 195.719,196.875 195.833 M205.156 196.510 C 205.047 196.839,204.190 197.027,202.656 197.059 C 201.210 197.088,201.066 196.745,202.448 196.559 C 202.992 196.486,203.531 196.393,203.646 196.354 C 204.212 196.161,205.238 196.267,205.156 196.510 M196.452 196.659 C 196.621 196.765,196.695 196.916,196.618 196.994 C 196.427 197.184,195.833 196.942,195.833 196.673 C 195.833 196.409,196.049 196.403,196.452 196.659 M205.417 197.269 C 205.417 197.577,204.773 197.740,203.073 197.861 C 201.084 198.003,200.860 197.628,202.760 197.336 C 204.511 197.068,205.417 197.045,205.417 197.269 M196.354 197.708 C 196.425 197.823,196.290 197.917,196.054 197.917 C 195.818 197.917,195.625 197.823,195.625 197.708 C 195.625 197.594,195.760 197.500,195.925 197.500 C 196.090 197.500,196.283 197.594,196.354 197.708 M205.833 198.325 C 205.833 198.779,201.813 199.340,201.250 198.965 C 201.078 198.850,200.984 198.748,201.042 198.737 C 203.846 198.229,205.833 198.058,205.833 198.325 M196.458 198.750 C 196.458 198.865,196.224 198.958,195.938 198.958 C 195.651 198.958,195.417 198.865,195.417 198.750 C 195.417 198.635,195.651 198.542,195.938 198.542 C 196.224 198.542,196.458 198.635,196.458 198.750 M206.070 199.276 C 206.065 199.598,204.210 199.958,202.448 199.980 C 200.083 200.009,200.477 199.708,203.281 199.343 C 205.997 198.989,206.074 198.987,206.070 199.276 M196.042 199.583 C 196.042 199.698,195.802 199.792,195.509 199.792 C 195.206 199.792,195.031 199.701,195.104 199.583 C 195.175 199.469,195.415 199.375,195.637 199.375 C 195.860 199.375,196.042 199.469,196.042 199.583 M206.273 200.313 C 206.275 200.594,204.437 200.993,202.344 201.166 C 201.115 201.267,200.625 201.240,200.625 201.070 C 200.625 200.940,200.742 200.824,200.885 200.812 C 201.029 200.800,202.177 200.625,203.438 200.424 C 205.967 200.019,206.271 200.007,206.273 200.313 M195.827 200.409 C 195.996 200.515,196.071 200.666,195.993 200.743 C 195.797 200.939,194.792 200.662,194.792 200.413 C 194.792 200.155,195.422 200.153,195.827 200.409 M206.667 201.234 C 206.667 201.656,203.473 202.270,201.198 202.285 C 199.969 202.293,199.896 201.941,201.094 201.785 C 201.581 201.721,202.870 201.540,203.958 201.384 C 206.528 201.014,206.667 201.006,206.667 201.234 M195.783 201.615 C 195.901 201.975,195.372 201.941,194.884 201.558 C 194.498 201.255,194.507 201.243,195.088 201.297 C 195.423 201.329,195.736 201.471,195.783 201.615 M207.188 203.125 C 206.958 203.223,206.888 203.311,207.031 203.319 C 207.174 203.327,207.292 203.416,207.292 203.517 C 207.292 204.050,202.002 204.598,199.900 204.282 C 198.770 204.113,198.867 203.825,200.104 203.680 C 200.563 203.626,199.339 203.605,197.386 203.634 C 195.432 203.663,193.629 203.610,193.377 203.517 C 193.006 203.380,192.900 203.435,192.811 203.810 C 192.470 205.242,191.635 211.241,191.526 213.036 L 191.400 215.134 193.981 215.530 C 199.030 216.307,205.106 215.983,208.895 214.736 C 209.686 214.476,209.687 214.472,209.626 213.435 C 209.382 209.340,208.231 202.884,207.752 202.931 C 207.671 202.939,207.417 203.027,207.188 203.125 M195.156 204.090 C 195.414 204.159,195.625 204.345,195.625 204.503 C 195.625 204.851,195.469 204.861,194.614 204.563 C 193.475 204.166,193.936 203.763,195.156 204.090 M207.292 204.365 C 207.292 204.600,205.964 204.997,205.173 204.999 C 204.360 205.001,203.854 205.223,204.190 205.431 C 204.337 205.522,204.616 205.511,204.811 205.407 C 205.535 205.019,207.583 204.901,207.447 205.254 C 207.379 205.430,207.428 205.678,207.554 205.804 C 207.875 206.125,207.669 206.267,206.688 206.399 C 206.223 206.461,205.888 206.586,205.943 206.676 C 205.999 206.767,206.384 206.747,206.797 206.633 C 207.711 206.380,208.307 206.740,207.482 207.046 C 206.428 207.436,206.375 207.487,207.063 207.442 C 207.996 207.381,208.113 207.790,207.246 208.085 L 206.563 208.318 207.220 208.209 C 208.132 208.058,208.288 208.469,207.457 208.835 L 206.771 209.137 207.448 209.022 C 207.981 208.931,208.125 208.978,208.125 209.245 C 208.125 209.441,207.955 209.583,207.721 209.583 C 207.498 209.583,207.269 209.660,207.211 209.754 C 207.153 209.848,207.382 209.884,207.719 209.834 C 208.453 209.727,208.555 210.133,207.865 210.410 C 207.525 210.547,207.493 210.602,207.748 210.612 C 208.318 210.633,208.400 211.029,207.878 211.239 C 207.410 211.426,207.413 211.432,207.986 211.445 C 208.945 211.467,208.522 211.956,207.345 212.188 C 206.761 212.302,206.206 212.480,206.111 212.583 C 206.010 212.692,206.154 212.714,206.458 212.635 C 207.734 212.304,208.542 212.244,208.542 212.479 C 208.542 212.822,207.620 213.125,206.574 213.125 C 205.983 213.125,205.578 213.245,205.390 213.477 C 205.141 213.783,205.149 213.811,205.456 213.696 C 206.056 213.471,208.371 213.093,208.480 213.202 C 208.895 213.617,206.555 214.292,205.340 214.108 C 204.898 214.041,204.419 214.164,203.854 214.490 C 202.242 215.418,199.358 215.563,197.911 214.789 C 197.364 214.496,197.349 214.541,198.556 212.952 C 200.024 211.019,202.484 207.244,202.493 206.911 C 202.504 206.489,201.604 207.647,200.405 209.598 C 198.970 211.933,197.275 214.167,196.938 214.167 C 196.543 214.167,196.449 214.328,199.294 210.090 C 201.727 206.466,201.894 206.154,201.546 205.900 C 200.980 205.485,200.268 205.569,199.892 206.094 C 199.708 206.352,198.836 207.606,197.956 208.881 C 195.560 212.350,195.265 212.685,194.993 212.240 C 194.861 212.022,194.518 211.875,194.143 211.875 C 193.419 211.875,192.646 211.520,192.806 211.261 C 192.865 211.164,193.264 211.164,193.691 211.260 C 194.572 211.459,194.641 211.435,194.471 210.991 C 194.403 210.815,194.073 210.617,193.737 210.549 C 192.938 210.390,192.947 210.000,193.750 210.000 C 194.094 210.000,194.375 209.914,194.375 209.808 C 194.375 209.703,194.094 209.555,193.750 209.479 C 193.394 209.401,193.125 209.207,193.125 209.029 C 193.125 208.791,193.272 208.749,193.750 208.854 C 194.513 209.022,194.574 208.699,193.842 208.366 C 193.149 208.050,193.381 207.687,194.175 207.845 C 194.996 208.010,194.989 207.576,194.167 207.396 C 193.823 207.320,193.542 207.125,193.542 206.963 C 193.542 206.612,193.636 206.603,194.561 206.869 C 195.220 207.058,195.331 207.012,196.285 206.154 C 197.677 204.902,198.744 204.589,201.667 204.573 C 202.984 204.566,204.531 204.484,205.104 204.391 C 206.610 204.147,207.292 204.139,207.292 204.365 M195.260 205.145 C 195.577 205.323,195.404 205.625,194.986 205.625 C 194.403 205.625,193.710 205.233,193.861 204.989 C 193.970 204.813,194.841 204.910,195.260 205.145 M195.208 206.146 C 195.427 206.410,195.385 206.458,194.938 206.458 C 194.278 206.458,193.750 206.263,193.750 206.019 C 193.750 205.709,194.931 205.811,195.208 206.146 M194.656 212.697 C 195.046 213.087,194.605 213.185,193.656 212.919 C 193.139 212.775,192.773 212.564,192.843 212.451 C 192.993 212.208,194.351 212.392,194.656 212.697 M194.531 213.567 C 195.267 213.838,195.112 214.240,194.323 214.108 C 193.291 213.936,192.460 213.566,192.600 213.341 C 192.725 213.138,193.660 213.247,194.531 213.567 M208.750 214.146 C 208.750 214.477,207.445 214.820,205.729 214.940 C 203.649 215.085,203.830 214.802,206.107 214.348 C 208.149 213.942,208.750 213.896,208.750 214.146 M194.028 214.612 C 195.151 214.838,195.727 215.417,194.829 215.417 C 194.247 215.417,192.500 214.777,192.500 214.564 C 192.500 214.323,192.603 214.326,194.028 214.612 M207.904 216.154 C 204.154 217.144,197.683 217.325,193.148 216.566 C 192.072 216.386,191.169 216.265,191.142 216.296 C 191.115 216.328,191.025 218.299,190.943 220.677 L 190.793 225.000 198.305 225.000 C 202.898 225.000,206.443 224.907,207.429 224.760 C 208.645 224.579,209.061 224.579,209.121 224.760 C 209.165 224.892,209.466 225.000,209.789 225.000 L 210.377 225.000 210.284 221.198 C 210.184 217.125,210.060 215.608,209.831 215.654 C 209.752 215.670,208.885 215.895,207.904 216.154 M208.750 216.848 C 208.750 217.048,207.578 217.399,205.857 217.712 C 204.499 217.960,199.379 217.979,198.999 217.738 C 198.844 217.640,200.050 217.503,201.812 217.418 C 203.508 217.336,205.552 217.145,206.354 216.992 C 208.150 216.649,208.750 216.613,208.750 216.848 M194.740 217.411 C 195.544 217.577,195.252 217.918,194.323 217.896 C 193.172 217.869,192.449 217.660,192.336 217.322 C 192.249 217.060,193.213 217.096,194.740 217.411 M208.542 217.692 C 208.542 218.415,201.187 219.146,199.219 218.619 C 198.192 218.344,198.888 218.227,201.823 218.183 C 203.513 218.157,205.552 218.006,206.354 217.846 C 208.204 217.478,208.542 217.455,208.542 217.692 M194.896 218.412 C 195.264 218.618,195.214 218.653,194.467 218.708 C 193.530 218.777,192.500 218.467,192.500 218.117 C 192.500 217.843,194.270 218.061,194.896 218.412 M208.958 218.742 C 208.958 219.245,205.249 219.835,202.058 219.839 C 198.106 219.844,198.003 219.472,201.908 219.300 C 203.666 219.222,205.760 219.032,206.563 218.878 C 208.415 218.522,208.958 218.491,208.958 218.742 M194.740 219.298 C 195.513 219.505,195.270 219.792,194.323 219.789 C 193.261 219.785,192.500 219.603,192.500 219.351 C 192.500 219.143,194.026 219.107,194.740 219.298 M208.807 220.026 C 207.994 220.839,198.958 221.190,198.958 220.409 C 198.958 220.319,200.482 220.234,202.344 220.221 C 204.206 220.209,206.385 220.078,207.188 219.932 C 208.670 219.661,209.144 219.689,208.807 220.026 M194.254 220.181 C 195.060 220.355,195.217 220.833,194.469 220.833 C 193.728 220.833,192.292 220.399,192.292 220.175 C 192.292 219.978,193.332 219.981,194.254 220.181 M209.048 220.809 C 209.359 221.313,203.946 221.988,201.084 221.802 C 197.723 221.584,198.238 221.323,202.322 221.174 C 204.425 221.097,206.568 220.954,207.083 220.855 C 208.389 220.607,208.915 220.595,209.048 220.809 M195.059 221.434 C 195.441 221.816,194.687 221.926,193.450 221.669 C 191.852 221.338,191.931 220.951,193.566 221.099 C 194.267 221.163,194.938 221.313,195.059 221.434 M209.167 221.650 C 209.167 222.256,202.745 222.943,200.132 222.617 C 198.037 222.355,198.872 222.084,201.823 222.068 C 203.398 222.059,205.484 221.931,206.458 221.782 C 208.731 221.437,209.167 221.415,209.167 221.650 M195.052 222.226 C 195.433 222.447,195.150 222.708,194.531 222.707 C 193.563 222.706,192.258 222.307,192.411 222.060 C 192.530 221.866,194.662 222.000,195.052 222.226 M209.056 222.697 C 209.380 223.222,204.723 223.848,201.721 223.683 C 198.302 223.494,198.333 223.142,201.771 223.115 C 203.375 223.103,205.531 222.973,206.563 222.826 C 207.594 222.679,208.549 222.546,208.686 222.530 C 208.822 222.513,208.989 222.589,209.056 222.697 M195.078 223.328 C 195.446 223.696,194.580 223.815,193.420 223.556 C 191.833 223.201,191.944 222.821,193.585 222.992 C 194.296 223.067,194.968 223.218,195.078 223.328 M209.167 223.742 C 209.167 224.283,204.593 224.888,201.721 224.727 C 198.303 224.535,198.334 224.183,201.771 224.157 C 203.375 224.145,205.531 224.015,206.563 223.868 C 209.047 223.514,209.167 223.509,209.167 223.742 M194.462 224.139 C 195.258 224.312,195.428 224.792,194.693 224.792 C 193.842 224.792,192.283 224.348,192.411 224.143 C 192.537 223.938,193.526 223.937,194.462 224.139 " stroke="none" fill="#343434" fill-rule="evenodd"></path><path id="path2" d="M168.360 117.656 C 168.141 118.086,164.530 125.170,160.335 133.399 C 156.140 141.628,152.708 148.401,152.708 148.451 C 152.708 148.501,154.301 148.542,156.249 148.542 L 159.789 148.542 161.250 145.625 L 162.711 142.708 169.286 142.708 L 175.862 142.708 177.239 145.625 L 178.616 148.542 182.112 148.542 L 185.608 148.542 185.252 147.727 C 185.056 147.279,181.708 140.157,177.813 131.899 L 170.729 116.886 169.744 116.880 C 168.813 116.875,168.736 116.918,168.360 117.656 M189.221 127.865 C 189.309 139.900,189.292 139.719,190.619 142.414 C 194.996 151.307,208.348 151.179,212.591 142.204 C 213.840 139.562,213.798 140.049,213.770 128.502 L 213.750 120.026 212.865 119.908 C 212.378 119.844,210.975 119.759,209.748 119.720 L 207.516 119.650 207.456 129.044 L 207.396 138.438 206.831 139.508 C 204.932 143.109,200.255 143.824,197.382 140.951 C 195.599 139.168,195.625 139.357,195.625 128.012 L 195.625 118.182 194.682 118.052 C 194.163 117.981,193.036 117.687,192.177 117.399 C 191.319 117.111,190.284 116.875,189.878 116.875 L 189.140 116.875 189.221 127.865 M140.521 117.863 C 139.132 118.212,137.733 118.404,136.322 118.441 C 135.125 118.471,133.769 118.636,133.197 118.820 C 132.642 119.000,131.832 119.209,131.398 119.285 C 128.743 119.753,127.435 125.805,129.212 129.401 C 130.537 132.081,133.288 134.118,136.771 134.997 C 140.735 135.997,143.247 138.266,142.676 140.332 C 141.739 143.726,136.161 143.710,131.975 140.301 L 130.810 139.352 129.207 140.803 C 128.326 141.601,127.296 142.575,126.920 142.967 L 126.236 143.680 127.233 144.609 C 130.558 147.710,134.081 149.057,138.870 149.060 L 141.802 149.063 143.588 148.178 C 148.837 145.577,150.713 139.474,147.705 134.787 C 146.139 132.347,142.922 130.245,138.778 128.956 C 135.599 127.967,134.766 127.270,134.741 125.575 C 134.685 121.912,139.506 121.759,144.792 125.255 L 145.313 125.600 146.950 122.892 C 147.851 121.403,148.554 120.157,148.513 120.123 C 148.135 119.811,145.793 118.422,144.801 117.921 C 143.336 117.182,143.234 117.180,140.521 117.863 M222.123 122.945 C 218.579 127.638,217.926 134.515,220.513 139.893 C 224.899 149.012,236.794 152.010,244.957 146.054 L 245.851 145.402 243.936 143.215 C 241.585 140.530,241.966 140.708,240.369 141.541 C 236.593 143.509,231.754 142.775,228.760 139.782 C 224.168 135.190,225.507 126.674,231.237 124.031 C 232.838 123.293,232.215 122.995,228.229 122.594 C 227.542 122.525,226.651 122.386,226.250 122.287 C 225.849 122.187,224.946 122.043,224.244 121.966 L 222.967 121.827 222.123 122.945 M251.460 138.073 L 251.458 148.542 261.979 148.542 L 272.500 148.542 272.500 145.417 L 272.500 142.292 265.208 142.292 L 257.917 142.292 257.917 138.854 L 257.917 135.417 263.958 135.417 L 270.000 135.417 270.000 132.188 L 270.000 128.958 263.958 128.958 L 257.917 128.958 257.917 128.432 C 257.917 127.650,257.199 127.482,254.142 127.547 L 251.461 127.604 251.460 138.073 M171.239 132.847 C 172.047 134.585,172.708 136.061,172.708 136.128 C 172.708 136.195,171.209 136.250,169.376 136.250 L 166.043 136.250 167.756 132.817 C 168.698 130.930,169.536 129.453,169.619 129.536 C 169.701 129.619,170.430 131.109,171.239 132.847 " stroke="none" fill="#fa3535" fill-rule="evenodd"></path><path id="path3" d="M209.958 76.405 C 210.909 76.444,212.409 76.444,213.291 76.405 C 214.174 76.366,213.396 76.334,211.563 76.334 C 209.729 76.335,209.007 76.366,209.958 76.405 M226.105 76.406 C 227.343 76.442,229.312 76.442,230.480 76.405 C 231.648 76.368,230.635 76.338,228.229 76.338 C 225.823 76.338,224.867 76.369,226.105 76.406 M238.429 76.510 C 238.375 76.654,238.354 83.849,238.384 92.500 L 238.438 108.229 248.906 108.232 L 259.375 108.235 248.958 108.178 L 238.542 108.121 238.542 92.292 L 238.542 76.462 249.219 76.406 L 259.896 76.350 249.212 76.300 C 240.820 76.261,238.507 76.306,238.429 76.510 M270.573 76.406 C 273.924 76.438,279.409 76.438,282.760 76.406 C 286.112 76.374,283.370 76.348,276.667 76.348 C 269.964 76.348,267.221 76.374,270.573 76.406 M153.597 82.441 C 153.913 82.489,154.382 82.488,154.638 82.438 C 154.895 82.389,154.635 82.350,154.063 82.351 C 153.490 82.353,153.280 82.393,153.597 82.441 M244.874 85.729 C 244.874 87.333,244.907 87.962,244.947 87.126 C 244.986 86.291,244.986 84.978,244.946 84.210 C 244.906 83.441,244.874 84.125,244.874 85.729 M137.557 92.292 C 137.557 92.807,137.597 93.018,137.647 92.760 C 137.697 92.503,137.697 92.081,137.647 91.823 C 137.597 91.565,137.557 91.776,137.557 92.292 M129.883 92.760 L 129.271 93.438 129.948 92.826 C 130.320 92.489,130.625 92.184,130.625 92.149 C 130.625 91.988,130.453 92.129,129.883 92.760 M215.930 94.844 L 214.896 95.938 215.990 94.904 C 216.591 94.335,217.083 93.843,217.083 93.810 C 217.083 93.654,216.890 93.827,215.930 94.844 M244.888 98.333 L 244.896 101.771 252.188 101.775 L 259.479 101.779 252.245 101.720 L 245.010 101.661 244.945 98.279 L 244.879 94.896 244.888 98.333 M141.875 103.399 C 141.875 103.434,142.180 103.739,142.552 104.076 L 143.229 104.688 142.617 104.010 C 142.047 103.379,141.875 103.238,141.875 103.399 M128.490 108.280 C 129.435 108.319,130.982 108.319,131.927 108.280 C 132.872 108.241,132.099 108.210,130.208 108.210 C 128.318 108.210,127.544 108.241,128.490 108.280 M275.052 108.280 C 275.940 108.319,277.393 108.319,278.281 108.280 C 279.169 108.241,278.443 108.209,276.667 108.209 C 274.891 108.209,274.164 108.241,275.052 108.280 M168.673 116.831 C 168.617 116.922,168.916 116.964,169.338 116.924 C 170.626 116.802,170.778 116.716,169.752 116.691 C 169.214 116.678,168.729 116.741,168.673 116.831 M190.791 116.822 C 191.742 116.861,193.242 116.860,194.124 116.821 C 195.007 116.782,194.229 116.751,192.396 116.751 C 190.563 116.751,189.840 116.783,190.791 116.822 M207.389 116.922 C 207.333 117.068,207.313 121.641,207.344 127.083 L 207.400 136.979 207.450 126.927 L 207.500 116.875 210.623 116.875 L 213.746 116.875 213.803 126.823 L 213.860 136.771 213.857 126.771 L 213.854 116.771 210.673 116.713 C 208.242 116.669,207.467 116.719,207.389 116.922 M256.719 116.823 C 259.669 116.855,264.497 116.855,267.448 116.823 C 270.398 116.790,267.984 116.763,262.083 116.763 C 256.182 116.763,253.768 116.790,256.719 116.823 M228.633 125.885 L 228.021 126.563 228.698 125.951 C 229.329 125.380,229.471 125.208,229.310 125.208 C 229.274 125.208,228.969 125.513,228.633 125.885 M270.084 132.188 C 270.085 134.021,270.116 134.743,270.155 133.792 C 270.194 132.841,270.194 131.341,270.155 130.459 C 270.116 129.576,270.084 130.354,270.084 132.188 M130.208 131.315 C 130.208 131.351,130.513 131.656,130.885 131.992 L 131.563 132.604 130.951 131.927 C 130.380 131.296,130.208 131.154,130.208 131.315 M218.821 132.813 C 218.822 133.729,218.859 134.078,218.903 133.588 C 218.947 133.098,218.946 132.348,218.901 131.922 C 218.857 131.495,218.821 131.896,218.821 132.813 M129.989 139.948 L 129.271 140.729 130.052 140.011 C 130.482 139.616,130.833 139.265,130.833 139.230 C 130.833 139.071,130.657 139.221,129.989 139.948 M261.510 142.239 C 263.544 142.273,266.872 142.273,268.906 142.239 C 270.940 142.205,269.276 142.177,265.208 142.177 C 261.141 142.177,259.477 142.205,261.510 142.239 M138.490 142.855 C 138.747 142.905,139.169 142.905,139.427 142.855 C 139.685 142.806,139.474 142.765,138.958 142.765 C 138.443 142.765,138.232 142.806,138.490 142.855 M126.250 143.815 C 126.250 143.851,126.555 144.156,126.927 144.492 L 127.604 145.104 126.992 144.427 C 126.422 143.796,126.250 143.654,126.250 143.815 M192.708 145.521 C 193.097 145.922,193.462 146.250,193.519 146.250 C 193.577 146.250,193.305 145.922,192.917 145.521 C 192.528 145.120,192.163 144.792,192.106 144.792 C 192.048 144.792,192.320 145.120,192.708 145.521 M210.197 145.573 L 209.479 146.354 210.260 145.636 C 210.988 144.968,211.137 144.792,210.978 144.792 C 210.944 144.792,210.592 145.143,210.197 145.573 M152.682 148.599 C 152.771 148.688,154.430 148.734,156.370 148.703 L 159.896 148.645 156.208 148.541 C 154.179 148.484,152.593 148.510,152.682 148.599 M180.479 148.697 C 181.487 148.735,183.081 148.735,184.021 148.696 C 184.960 148.658,184.135 148.627,182.188 148.627 C 180.240 148.627,179.471 148.659,180.479 148.697 M256.733 148.698 C 259.692 148.730,264.473 148.730,267.358 148.698 C 270.244 148.665,267.823 148.638,261.979 148.638 C 256.135 148.638,253.775 148.665,256.733 148.698 M201.881 193.534 C 201.385 193.847,201.723 193.913,202.292 193.614 C 202.579 193.463,202.672 193.340,202.500 193.340 C 202.328 193.340,202.050 193.427,201.881 193.534 M201.806 194.514 C 201.484 194.835,201.715 194.998,202.448 194.967 L 203.229 194.933 202.500 194.839 C 201.886 194.759,201.836 194.718,202.188 194.574 C 202.490 194.451,202.514 194.400,202.274 194.390 C 202.093 194.382,201.882 194.438,201.806 194.514 M201.261 198.739 C 200.892 198.972,201.820 199.263,202.431 199.105 C 202.647 199.049,202.496 198.987,202.083 198.962 C 201.404 198.920,201.390 198.905,201.875 198.750 C 202.304 198.613,202.322 198.580,201.979 198.566 C 201.750 198.556,201.427 198.634,201.261 198.739 M200.833 199.792 C 200.833 200.053,201.054 200.053,201.458 199.792 C 201.711 199.628,201.681 199.589,201.302 199.587 C 201.044 199.585,200.833 199.677,200.833 199.792 M205.916 200.137 C 206.238 200.230,206.257 200.288,206.020 200.454 C 205.800 200.607,205.796 200.639,206.005 200.584 C 206.410 200.476,206.333 200.111,205.896 200.064 C 205.576 200.030,205.579 200.041,205.916 200.137 M200.625 201.067 C 200.625 201.168,201.109 201.250,201.701 201.250 C 202.293 201.250,202.739 201.216,202.691 201.174 C 202.490 200.996,200.625 200.900,200.625 201.067 M200.208 202.098 C 200.208 202.205,200.786 202.292,201.493 202.292 C 202.200 202.292,202.739 202.258,202.691 202.216 C 202.478 202.031,200.208 201.924,200.208 202.098 M196.719 202.435 C 196.919 202.488,197.247 202.488,197.448 202.435 C 197.648 202.383,197.484 202.340,197.083 202.340 C 196.682 202.340,196.518 202.383,196.719 202.435 M200.370 202.653 C 200.860 202.697,201.610 202.696,202.037 202.651 C 202.463 202.607,202.063 202.571,201.146 202.571 C 200.229 202.572,199.880 202.609,200.370 202.653 M206.042 203.333 L 205.521 203.500 206.081 203.521 C 206.390 203.532,206.700 203.448,206.771 203.333 C 206.917 203.097,206.781 203.097,206.042 203.333 M200.104 203.695 C 199.646 203.740,199.177 203.879,199.063 204.003 C 198.917 204.160,198.962 204.190,199.212 204.102 C 199.409 204.033,199.625 204.066,199.693 204.176 C 199.761 204.285,200.022 204.366,200.273 204.354 C 200.698 204.335,200.693 204.322,200.208 204.167 C 199.826 204.044,200.074 203.988,201.146 203.955 C 204.125 203.863,205.598 203.605,203.125 203.608 C 201.922 203.610,200.563 203.649,200.104 203.695 M204.063 204.375 C 204.292 204.473,204.667 204.551,204.896 204.548 C 205.231 204.543,205.210 204.509,204.792 204.375 C 204.079 204.147,203.532 204.147,204.063 204.375 M205.833 204.990 C 206.005 205.107,206.326 205.203,206.545 205.205 C 207.078 205.209,206.912 205.090,206.146 204.919 C 205.689 204.817,205.605 204.836,205.833 204.990 M205.729 205.833 C 206.303 206.080,206.506 206.080,206.354 205.833 C 206.283 205.719,206.020 205.632,205.769 205.640 C 205.329 205.654,205.327 205.661,205.729 205.833 M207.140 206.525 C 207.458 206.674,207.646 206.875,207.557 206.973 C 207.468 207.070,207.521 207.078,207.674 206.989 C 208.015 206.792,207.778 206.547,207.083 206.380 C 206.602 206.264,206.607 206.275,207.140 206.525 M207.349 208.192 C 207.666 208.341,207.854 208.542,207.765 208.640 C 207.677 208.737,207.730 208.744,207.883 208.656 C 208.224 208.458,207.986 208.214,207.292 208.046 C 206.811 207.930,206.815 207.942,207.349 208.192 M207.083 208.949 C 207.255 209.065,207.576 209.162,207.795 209.163 C 208.328 209.168,208.162 209.048,207.396 208.877 C 206.939 208.775,206.855 208.794,207.083 208.949 M206.955 209.832 C 206.894 209.930,206.921 209.997,207.016 209.980 C 207.586 209.881,208.134 210.026,208.001 210.241 C 207.909 210.390,207.944 210.424,208.093 210.332 C 208.225 210.251,208.333 210.106,208.333 210.011 C 208.333 209.773,207.091 209.611,206.955 209.832 M207.083 210.605 C 207.255 210.727,207.565 210.828,207.773 210.830 C 208.004 210.832,208.092 210.926,208.001 211.074 C 207.905 211.229,207.944 211.258,208.111 211.155 C 208.454 210.943,208.165 210.686,207.396 210.519 C 206.922 210.416,206.846 210.437,207.083 210.605 M207.083 211.458 C 207.255 211.569,207.536 211.660,207.708 211.660 C 207.986 211.660,207.986 211.638,207.708 211.458 C 207.536 211.347,207.255 211.256,207.083 211.256 C 206.806 211.256,206.806 211.279,207.083 211.458 M207.292 212.289 C 207.464 212.401,207.831 212.495,208.108 212.497 C 208.776 212.501,208.607 212.383,207.708 212.218 C 207.195 212.124,207.072 212.145,207.292 212.289 M194.450 212.660 C 194.526 212.784,194.423 212.928,194.221 212.981 C 193.942 213.054,193.966 213.082,194.323 213.101 C 194.821 213.127,194.952 212.832,194.551 212.584 C 194.408 212.496,194.367 212.527,194.450 212.660 M205.334 213.310 C 204.970 213.690,204.841 213.964,204.983 214.052 C 205.207 214.190,205.237 214.160,205.286 213.738 C 205.301 213.617,205.547 213.338,205.833 213.118 C 206.120 212.898,206.255 212.716,206.133 212.713 C 206.011 212.710,205.652 212.979,205.334 213.310 M207.500 213.115 C 207.672 213.232,207.992 213.328,208.212 213.330 C 208.745 213.334,208.579 213.215,207.813 213.044 C 207.356 212.942,207.272 212.961,207.500 213.115 M207.315 213.827 C 207.544 214.085,208.750 214.358,208.750 214.152 C 208.750 214.046,208.570 213.958,208.350 213.958 C 208.131 213.958,207.779 213.897,207.569 213.821 C 207.359 213.745,207.245 213.748,207.315 213.827 M196.825 215.981 C 197.084 216.031,197.459 216.029,197.659 215.976 C 197.858 215.924,197.646 215.884,197.188 215.886 C 196.729 215.888,196.566 215.931,196.825 215.981 M192.292 217.279 C 192.292 217.387,192.400 217.542,192.532 217.624 C 192.675 217.712,192.716 217.682,192.634 217.548 C 192.557 217.424,192.660 217.280,192.862 217.227 C 193.141 217.155,193.117 217.126,192.760 217.108 C 192.503 217.094,192.292 217.172,192.292 217.279 M203.177 217.435 C 203.378 217.488,203.706 217.488,203.906 217.435 C 204.107 217.383,203.943 217.340,203.542 217.340 C 203.141 217.340,202.977 217.383,203.177 217.435 M198.958 217.708 C 199.362 217.969,199.583 217.969,199.583 217.708 C 199.583 217.594,199.372 217.501,199.115 217.503 C 198.736 217.506,198.706 217.545,198.958 217.708 M192.969 217.855 C 192.452 217.955,192.358 218.227,192.760 218.459 C 192.904 218.541,192.948 218.529,192.860 218.431 C 192.771 218.334,192.959 218.139,193.276 217.998 C 193.870 217.735,193.789 217.697,192.969 217.855 M204.896 217.917 C 205.125 218.015,205.500 218.093,205.729 218.090 C 206.064 218.085,206.044 218.051,205.625 217.917 C 204.913 217.689,204.365 217.689,204.896 217.917 M198.750 218.311 C 198.750 218.536,199.790 218.821,199.966 218.645 C 200.135 218.476,199.569 218.132,199.115 218.128 C 198.914 218.126,198.750 218.209,198.750 218.311 M203.385 218.269 C 203.586 218.321,203.914 218.321,204.115 218.269 C 204.315 218.216,204.151 218.173,203.750 218.173 C 203.349 218.173,203.185 218.216,203.385 218.269 M198.958 219.583 C 199.369 219.849,199.851 219.849,199.688 219.583 C 199.617 219.469,199.353 219.376,199.102 219.378 C 198.731 219.381,198.704 219.419,198.958 219.583 M190.886 220.313 C 190.888 220.771,190.931 220.934,190.981 220.675 C 191.031 220.416,191.029 220.041,190.976 219.841 C 190.924 219.642,190.884 219.854,190.886 220.313 M201.719 219.935 C 201.919 219.988,202.247 219.988,202.448 219.935 C 202.648 219.883,202.484 219.840,202.083 219.840 C 201.682 219.840,201.518 219.883,201.719 219.935 M198.958 220.366 C 198.958 220.453,199.404 220.496,199.948 220.461 C 201.660 220.353,201.822 220.266,200.365 220.237 C 199.591 220.221,198.958 220.279,198.958 220.366 M203.077 220.359 C 203.451 220.406,204.014 220.405,204.327 220.357 C 204.640 220.310,204.333 220.272,203.646 220.273 C 202.958 220.274,202.702 220.313,203.077 220.359 M211.315 221.563 C 211.316 222.250,211.355 222.506,211.401 222.132 C 211.447 221.757,211.446 221.195,211.399 220.882 C 211.351 220.569,211.313 220.875,211.315 221.563 M207.917 220.706 C 207.917 220.750,208.193 220.827,208.531 220.876 C 208.868 220.926,209.097 220.889,209.039 220.796 C 208.936 220.629,207.917 220.547,207.917 220.706 M189.423 221.458 C 189.423 221.859,189.466 222.023,189.519 221.823 C 189.571 221.622,189.571 221.294,189.519 221.094 C 189.466 220.893,189.423 221.057,189.423 221.458 M210.271 222.083 C 210.271 222.714,210.310 222.971,210.358 222.656 C 210.405 222.341,210.405 221.826,210.358 221.510 C 210.310 221.195,210.271 221.453,210.271 222.083 M194.876 221.426 C 194.974 221.584,194.824 221.676,194.439 221.695 C 193.913 221.721,193.903 221.733,194.347 221.817 C 194.924 221.926,195.380 221.589,194.986 221.345 C 194.819 221.242,194.780 221.271,194.876 221.426 M198.802 221.475 C 199.050 221.619,199.284 221.619,199.531 221.475 C 199.829 221.302,199.762 221.263,199.167 221.263 C 198.572 221.263,198.505 221.302,198.802 221.475 M200.568 221.400 C 200.938 221.446,201.594 221.447,202.027 221.402 C 202.459 221.357,202.156 221.319,201.354 221.318 C 200.552 221.317,200.198 221.354,200.568 221.400 M208.125 221.538 C 208.125 221.582,208.359 221.663,208.646 221.718 C 208.932 221.772,209.167 221.736,209.167 221.638 C 209.167 221.539,208.932 221.458,208.646 221.458 C 208.359 221.458,208.125 221.494,208.125 221.538 M192.419 222.046 C 192.361 222.139,192.590 222.176,192.928 222.126 C 193.265 222.077,193.542 222.000,193.542 221.956 C 193.542 221.797,192.522 221.879,192.419 222.046 M198.958 222.240 C 198.958 222.326,199.825 222.369,200.885 222.337 C 203.874 222.245,204.100 222.149,201.406 222.115 C 200.060 222.097,198.958 222.154,198.958 222.240 M194.778 223.301 C 195.008 223.462,194.912 223.532,194.361 223.605 L 193.646 223.700 194.375 223.673 C 195.077 223.647,195.324 223.317,194.755 223.166 C 194.557 223.114,194.563 223.152,194.778 223.301 M199.219 223.350 C 199.466 223.494,199.700 223.494,199.948 223.350 C 200.245 223.177,200.178 223.138,199.583 223.138 C 198.988 223.138,198.921 223.177,199.219 223.350 M201.302 223.277 C 201.732 223.322,202.435 223.322,202.865 223.277 C 203.294 223.232,202.943 223.195,202.083 223.195 C 201.224 223.195,200.872 223.232,201.302 223.277 M189.219 224.271 C 189.222 224.729,189.264 224.892,189.314 224.633 C 189.364 224.374,189.362 223.999,189.310 223.800 C 189.258 223.600,189.217 223.813,189.219 224.271 M199.219 224.392 C 199.466 224.536,199.700 224.536,199.948 224.392 C 200.245 224.218,200.178 224.179,199.583 224.179 C 198.988 224.179,198.921 224.218,199.219 224.392 M201.302 224.318 C 201.732 224.363,202.435 224.363,202.865 224.318 C 203.294 224.273,202.943 224.237,202.083 224.237 C 201.224 224.237,200.872 224.273,201.302 224.318 " stroke="none" fill="#7b7272" fill-rule="evenodd"></path><path id="path4" d="M111.346 76.510 C 111.291 76.654,111.271 83.849,111.302 92.500 L 111.357 108.229 111.408 92.347 L 111.458 76.464 117.760 76.406 L 124.063 76.348 117.754 76.299 C 112.862 76.261,111.423 76.308,111.346 76.510 M214.673 81.458 C 214.673 84.266,214.703 85.414,214.739 84.010 C 214.775 82.607,214.775 80.310,214.739 78.906 C 214.703 77.503,214.673 78.651,214.673 81.458 M264.667 79.583 C 264.667 81.359,264.699 82.086,264.738 81.198 C 264.777 80.310,264.777 78.857,264.738 77.969 C 264.699 77.081,264.667 77.807,264.667 79.583 M288.626 79.583 C 288.626 81.359,288.657 82.086,288.697 81.198 C 288.736 80.310,288.736 78.857,288.697 77.969 C 288.657 77.081,288.626 77.807,288.626 79.583 M142.383 80.677 L 141.771 81.354 142.448 80.742 C 142.820 80.406,143.125 80.101,143.125 80.065 C 143.125 79.904,142.953 80.046,142.383 80.677 M132.757 85.833 C 132.757 86.234,132.800 86.398,132.852 86.198 C 132.904 85.997,132.904 85.669,132.852 85.469 C 132.800 85.268,132.757 85.432,132.757 85.833 M119.228 89.113 C 120.122 89.153,121.528 89.152,122.353 89.113 C 123.179 89.073,122.448 89.041,120.729 89.042 C 119.010 89.042,118.335 89.074,119.228 89.113 M170.485 92.188 C 170.486 92.990,170.524 93.292,170.569 92.860 C 170.614 92.428,170.613 91.771,170.567 91.402 C 170.521 91.032,170.484 91.385,170.485 92.188 M182.771 92.292 C 182.771 92.922,182.810 93.180,182.858 92.865 C 182.905 92.549,182.905 92.034,182.858 91.719 C 182.810 91.404,182.771 91.661,182.771 92.292 M247.969 94.947 C 249.659 94.982,252.424 94.982,254.115 94.947 C 255.805 94.912,254.422 94.884,251.042 94.884 C 247.661 94.884,246.279 94.912,247.969 94.947 M214.675 102.083 C 214.675 105.464,214.704 106.846,214.739 105.156 C 214.774 103.466,214.774 100.701,214.739 99.010 C 214.704 97.320,214.675 98.703,214.675 102.083 M153.802 102.227 C 154.003 102.279,154.331 102.279,154.531 102.227 C 154.732 102.175,154.568 102.132,154.167 102.132 C 153.766 102.132,153.602 102.175,153.802 102.227 M165.614 103.906 L 164.896 104.688 165.677 103.970 C 166.404 103.301,166.554 103.125,166.395 103.125 C 166.360 103.125,166.009 103.477,165.614 103.906 M137.867 116.397 C 138.126 116.447,138.501 116.445,138.700 116.393 C 138.900 116.341,138.688 116.300,138.229 116.303 C 137.771 116.305,137.608 116.348,137.867 116.397 M211.094 119.727 C 211.294 119.779,211.622 119.779,211.823 119.727 C 212.023 119.675,211.859 119.632,211.458 119.632 C 211.057 119.632,210.893 119.675,211.094 119.727 M257.708 125.297 C 257.708 127.198,257.663 127.479,257.344 127.545 C 257.047 127.607,257.067 127.645,257.448 127.749 C 257.914 127.877,257.917 127.865,257.917 125.501 C 257.917 124.194,257.870 123.125,257.813 123.125 C 257.755 123.125,257.708 124.103,257.708 125.297 M202.083 190.208 C 202.083 190.323,202.294 190.415,202.552 190.413 C 202.931 190.411,202.961 190.372,202.708 190.208 C 202.304 189.947,202.083 189.947,202.083 190.208 M202.182 191.259 C 202.114 191.369,202.339 191.458,202.684 191.458 C 203.497 191.458,203.682 191.159,202.903 191.103 C 202.574 191.079,202.250 191.149,202.182 191.259 M202.292 192.292 C 202.062 192.440,202.201 192.491,202.813 192.482 C 203.467 192.473,203.557 192.432,203.229 192.292 C 202.681 192.056,202.656 192.056,202.292 192.292 M203.229 193.542 C 203.805 193.789,204.167 193.789,204.167 193.542 C 204.167 193.427,203.862 193.340,203.490 193.348 C 202.922 193.360,202.880 193.392,203.229 193.542 M202.917 194.583 C 203.089 194.694,203.417 194.780,203.646 194.774 L 204.063 194.762 203.646 194.583 C 203.023 194.316,202.503 194.316,202.917 194.583 M202.604 195.625 C 202.675 195.740,203.032 195.824,203.398 195.813 C 204.033 195.793,204.039 195.784,203.542 195.625 C 202.794 195.385,202.456 195.385,202.604 195.625 M203.646 196.667 C 203.875 196.765,204.203 196.846,204.375 196.846 C 204.572 196.846,204.533 196.780,204.271 196.667 C 204.042 196.568,203.714 196.488,203.542 196.488 C 203.345 196.488,203.383 196.554,203.646 196.667 M201.979 196.875 C 201.905 196.995,202.098 197.082,202.436 197.080 C 202.890 197.078,202.951 197.032,202.708 196.875 C 202.308 196.616,202.139 196.616,201.979 196.875 M203.646 197.500 C 203.875 197.598,204.203 197.679,204.375 197.679 C 204.572 197.679,204.533 197.613,204.271 197.500 C 204.042 197.402,203.714 197.321,203.542 197.321 C 203.345 197.321,203.383 197.387,203.646 197.500 M201.875 197.708 C 201.646 197.856,201.785 197.907,202.396 197.899 C 203.051 197.890,203.140 197.849,202.813 197.708 C 202.264 197.473,202.240 197.473,201.875 197.708 M204.448 198.573 C 204.699 198.717,204.988 198.726,205.272 198.599 C 205.641 198.435,205.581 198.400,204.886 198.378 C 204.208 198.356,204.131 198.390,204.448 198.573 M202.604 198.750 C 202.675 198.865,203.032 198.952,203.398 198.944 C 203.958 198.931,203.997 198.901,203.646 198.750 C 203.064 198.500,202.450 198.500,202.604 198.750 M205.147 199.397 C 205.311 199.561,205.485 199.563,205.761 199.403 C 206.098 199.207,206.070 199.179,205.531 199.173 C 205.083 199.168,204.979 199.229,205.147 199.397 M203.854 199.583 C 204.083 199.682,204.411 199.762,204.583 199.762 C 204.780 199.762,204.742 199.696,204.479 199.583 C 204.250 199.485,203.922 199.404,203.750 199.404 C 203.553 199.404,203.592 199.470,203.854 199.583 M201.667 199.792 C 201.269 199.919,201.417 199.960,202.292 199.965 C 203.111 199.969,203.319 199.920,203.021 199.792 C 202.518 199.576,202.341 199.576,201.667 199.792 M205.355 200.438 C 205.520 200.603,205.694 200.605,205.970 200.445 C 206.307 200.249,206.278 200.220,205.740 200.215 C 205.291 200.210,205.187 200.271,205.355 200.438 M202.500 200.833 C 202.672 200.944,203.047 201.030,203.333 201.024 C 203.810 201.013,203.819 200.997,203.438 200.833 C 202.821 200.568,202.090 200.568,202.500 200.833 M205.563 201.480 C 205.728 201.645,205.902 201.646,206.178 201.486 C 206.515 201.290,206.487 201.262,205.948 201.256 C 205.500 201.252,205.396 201.312,205.563 201.480 M204.271 201.667 C 204.500 201.765,204.828 201.846,205.000 201.846 C 205.197 201.846,205.158 201.780,204.896 201.667 C 204.667 201.568,204.339 201.488,204.167 201.488 C 203.970 201.488,204.008 201.554,204.271 201.667 M202.500 201.875 C 202.672 201.986,203.094 202.069,203.438 202.059 C 204.050 202.042,204.052 202.038,203.542 201.875 C 202.745 201.620,202.105 201.620,202.500 201.875 M197.552 202.644 C 197.753 202.696,198.081 202.696,198.281 202.644 C 198.482 202.591,198.318 202.548,197.917 202.548 C 197.516 202.548,197.352 202.591,197.552 202.644 M195.573 203.480 C 195.831 203.530,196.253 203.530,196.510 203.480 C 196.768 203.431,196.557 203.390,196.042 203.390 C 195.526 203.390,195.315 203.431,195.573 203.480 M198.392 203.487 C 198.939 203.530,199.783 203.529,200.267 203.486 C 200.750 203.442,200.302 203.407,199.271 203.407 C 198.240 203.408,197.844 203.444,198.392 203.487 M204.117 203.481 C 204.376 203.531,204.751 203.529,204.950 203.476 C 205.150 203.424,204.938 203.384,204.479 203.386 C 204.021 203.388,203.858 203.431,204.117 203.481 M205.521 203.750 C 205.592 203.865,205.785 203.958,205.950 203.958 C 206.115 203.958,206.250 203.865,206.250 203.750 C 206.250 203.635,206.057 203.542,205.821 203.542 C 205.585 203.542,205.450 203.635,205.521 203.750 M203.958 203.958 C 204.245 204.050,204.667 204.128,204.896 204.131 L 205.313 204.137 204.896 203.958 C 204.667 203.860,204.245 203.782,203.958 203.785 L 203.438 203.792 203.958 203.958 M200.521 204.167 C 200.865 204.254,201.568 204.326,202.083 204.326 C 202.922 204.326,202.955 204.309,202.396 204.167 C 202.052 204.079,201.349 204.008,200.833 204.008 C 199.995 204.008,199.962 204.024,200.521 204.167 M205.625 204.583 C 206.035 204.849,206.518 204.849,206.354 204.583 C 206.283 204.469,206.020 204.376,205.769 204.378 C 205.398 204.381,205.371 204.419,205.625 204.583 M200.156 204.730 C 200.414 204.780,200.836 204.780,201.094 204.730 C 201.352 204.681,201.141 204.640,200.625 204.640 C 200.109 204.640,199.898 204.681,200.156 204.730 M204.167 204.792 C 204.339 204.903,204.714 204.986,205.000 204.976 L 205.521 204.958 205.000 204.792 C 204.197 204.535,203.769 204.535,204.167 204.792 M205.938 205.417 C 206.167 205.515,206.495 205.596,206.667 205.596 C 206.864 205.596,206.825 205.530,206.563 205.417 C 206.333 205.318,206.005 205.238,205.833 205.238 C 205.636 205.238,205.675 205.304,205.938 205.417 M206.458 205.913 C 206.458 206.098,207.301 206.195,207.408 206.022 C 207.472 205.918,207.285 205.833,206.991 205.833 C 206.698 205.833,206.458 205.869,206.458 205.913 M195.919 206.478 C 195.702 206.718,195.242 207.039,194.898 207.190 C 194.491 207.369,194.400 207.472,194.638 207.483 C 194.841 207.492,195.356 207.174,195.784 206.776 C 196.212 206.379,196.507 206.050,196.439 206.047 C 196.370 206.044,196.137 206.238,195.919 206.478 M205.606 206.266 C 205.392 206.401,205.468 206.453,205.885 206.455 C 206.508 206.459,206.620 206.356,206.179 206.187 C 206.025 206.128,205.768 206.164,205.606 206.266 M206.947 206.902 C 207.171 207.033,207.409 207.049,207.517 206.942 C 207.624 206.834,207.463 206.740,207.132 206.717 C 206.632 206.682,206.610 206.705,206.947 206.902 M207.083 207.708 C 207.487 207.969,207.708 207.969,207.708 207.708 C 207.708 207.594,207.497 207.501,207.240 207.503 C 206.861 207.506,206.831 207.545,207.083 207.708 M207.067 208.564 C 207.344 208.673,207.643 208.690,207.733 208.600 C 207.822 208.511,207.595 208.421,207.228 208.401 C 206.603 208.367,206.593 208.377,207.067 208.564 M207.246 210.272 C 207.535 210.402,207.797 210.411,207.912 210.295 C 208.027 210.180,207.840 210.095,207.437 210.081 C 206.817 210.060,206.804 210.073,207.246 210.272 M193.934 211.686 C 193.736 211.811,193.869 211.870,194.358 211.872 C 194.749 211.874,195.004 211.810,194.925 211.730 C 194.699 211.505,194.251 211.485,193.934 211.686 M205.197 213.281 L 204.479 214.063 205.260 213.345 C 205.988 212.676,206.137 212.500,205.978 212.500 C 205.944 212.500,205.592 212.852,205.197 213.281 M206.231 212.933 C 206.017 213.068,206.093 213.119,206.510 213.122 C 207.133 213.125,207.245 213.023,206.804 212.854 C 206.650 212.795,206.393 212.831,206.231 212.933 M197.154 213.385 C 196.808 213.938,196.897 214.211,197.303 213.844 C 197.520 213.647,197.648 213.405,197.587 213.305 C 197.436 213.061,197.346 213.078,197.154 213.385 M207.588 213.587 C 207.778 213.693,208.055 213.693,208.245 213.587 C 208.490 213.450,208.406 213.403,207.917 213.403 C 207.427 213.403,207.343 213.450,207.588 213.587 M207.552 214.392 C 207.800 214.536,208.034 214.536,208.281 214.392 C 208.579 214.218,208.512 214.179,207.917 214.179 C 207.322 214.179,207.255 214.218,207.552 214.392 M192.989 214.820 C 193.265 214.980,193.439 214.978,193.603 214.813 C 193.771 214.646,193.667 214.585,193.219 214.590 C 192.680 214.595,192.652 214.624,192.989 214.820 M204.792 214.792 C 204.561 214.940,204.698 214.994,205.313 214.994 C 205.927 214.994,206.064 214.940,205.833 214.792 C 205.661 214.681,205.427 214.590,205.313 214.590 C 205.198 214.590,204.964 214.681,204.792 214.792 M197.760 216.191 C 198.076 216.239,198.591 216.239,198.906 216.191 C 199.221 216.143,198.964 216.104,198.333 216.104 C 197.703 216.104,197.445 216.143,197.760 216.191 M201.615 216.189 C 201.872 216.238,202.294 216.238,202.552 216.189 C 202.810 216.139,202.599 216.098,202.083 216.098 C 201.568 216.098,201.357 216.139,201.615 216.189 M195.677 216.810 C 195.878 216.863,196.206 216.863,196.406 216.810 C 196.607 216.758,196.443 216.715,196.042 216.715 C 195.641 216.715,195.477 216.758,195.677 216.810 M202.552 216.810 C 202.753 216.863,203.081 216.863,203.281 216.810 C 203.482 216.758,203.318 216.715,202.917 216.715 C 202.516 216.715,202.352 216.758,202.552 216.810 M198.277 217.025 C 198.646 217.071,199.303 217.072,199.735 217.027 C 200.167 216.982,199.865 216.944,199.063 216.943 C 198.260 216.942,197.907 216.979,198.277 217.025 M207.423 217.090 C 207.565 217.232,207.808 217.236,208.142 217.103 C 208.615 216.914,208.602 216.901,207.927 216.888 C 207.434 216.879,207.276 216.942,207.423 217.090 M190.886 217.813 C 190.888 218.271,190.931 218.434,190.981 218.175 C 191.031 217.916,191.029 217.541,190.976 217.341 C 190.924 217.142,190.884 217.354,190.886 217.813 M206.250 217.292 C 206.422 217.403,206.703 217.494,206.875 217.494 C 207.153 217.494,207.153 217.471,206.875 217.292 C 206.703 217.181,206.422 217.090,206.250 217.090 C 205.972 217.090,205.972 217.112,206.250 217.292 M192.855 217.522 C 193.020 217.686,193.194 217.688,193.470 217.528 C 193.807 217.332,193.778 217.304,193.240 217.298 C 192.791 217.293,192.687 217.354,192.855 217.522 M204.896 217.500 C 205.125 217.598,205.453 217.679,205.625 217.679 C 205.822 217.679,205.783 217.613,205.521 217.500 C 205.292 217.402,204.964 217.321,204.792 217.321 C 204.595 217.321,204.633 217.387,204.896 217.500 M194.167 217.708 C 193.705 217.856,193.736 217.877,194.439 217.896 C 194.920 217.908,195.182 217.834,195.104 217.708 C 194.959 217.474,194.898 217.474,194.167 217.708 M200.833 217.708 C 200.140 217.816,200.466 217.857,202.083 217.865 C 203.459 217.871,204.078 217.813,203.750 217.708 C 203.129 217.509,202.113 217.509,200.833 217.708 M207.500 217.917 C 207.500 218.161,207.660 218.161,208.229 217.917 C 208.598 217.758,208.581 217.736,208.073 217.723 C 207.758 217.715,207.500 217.802,207.500 217.917 M210.268 218.646 C 210.269 219.219,210.310 219.428,210.358 219.112 C 210.406 218.795,210.404 218.326,210.355 218.070 C 210.306 217.814,210.266 218.073,210.268 218.646 M211.090 218.333 C 211.090 218.734,211.133 218.898,211.185 218.698 C 211.238 218.497,211.238 218.169,211.185 217.969 C 211.133 217.768,211.090 217.932,211.090 218.333 M206.354 218.125 C 206.425 218.240,206.624 218.333,206.795 218.333 C 206.967 218.333,207.050 218.240,206.979 218.125 C 206.908 218.010,206.710 217.917,206.538 217.917 C 206.366 217.917,206.283 218.010,206.354 218.125 M192.840 218.340 C 192.982 218.482,193.225 218.486,193.558 218.353 C 194.032 218.164,194.019 218.151,193.344 218.138 C 192.850 218.129,192.692 218.192,192.840 218.340 M205.000 218.333 C 205.172 218.444,205.500 218.530,205.729 218.524 L 206.146 218.512 205.729 218.333 C 205.106 218.066,204.586 218.066,205.000 218.333 M194.271 218.542 C 193.904 218.699,193.925 218.722,194.439 218.735 C 194.779 218.744,194.971 218.663,194.896 218.542 C 194.825 218.427,194.749 218.340,194.727 218.348 C 194.705 218.356,194.500 218.443,194.271 218.542 M200.208 218.542 C 200.208 218.668,201.045 218.742,202.344 218.729 C 203.735 218.716,204.298 218.650,203.958 218.542 C 203.188 218.295,200.208 218.295,200.208 218.542 M207.631 218.965 C 207.774 219.107,208.016 219.111,208.350 218.978 C 208.824 218.789,208.811 218.776,208.135 218.763 C 207.642 218.754,207.484 218.817,207.631 218.965 M206.563 219.167 C 206.633 219.281,206.832 219.375,207.004 219.375 C 207.176 219.375,207.258 219.281,207.188 219.167 C 207.117 219.052,206.918 218.958,206.746 218.958 C 206.574 218.958,206.492 219.052,206.563 219.167 M205.104 219.375 C 205.727 219.643,206.247 219.643,205.833 219.375 C 205.661 219.264,205.333 219.178,205.104 219.184 L 204.688 219.196 205.104 219.375 M193.958 219.583 C 193.496 219.731,193.527 219.752,194.231 219.771 C 194.712 219.783,194.974 219.709,194.896 219.583 C 194.751 219.349,194.690 219.349,193.958 219.583 M202.500 219.583 C 202.672 219.694,203.234 219.777,203.750 219.768 C 204.527 219.753,204.598 219.722,204.167 219.583 C 203.379 219.331,202.110 219.331,202.500 219.583 M200.263 219.733 C 200.580 219.781,201.049 219.779,201.305 219.730 C 201.561 219.681,201.302 219.641,200.729 219.643 C 200.156 219.644,199.947 219.685,200.263 219.733 M208.021 220.000 C 207.950 220.115,208.033 220.208,208.205 220.208 C 208.376 220.208,208.575 220.115,208.646 220.000 C 208.717 219.885,208.634 219.792,208.462 219.792 C 208.290 219.792,208.092 219.885,208.021 220.000 M207.083 220.208 C 207.083 220.323,207.224 220.417,207.396 220.417 C 207.568 220.417,207.708 220.323,207.708 220.208 C 207.708 220.094,207.568 220.000,207.396 220.000 C 207.224 220.000,207.083 220.094,207.083 220.208 M205.729 220.417 C 206.352 220.684,206.872 220.684,206.458 220.417 C 206.286 220.306,205.958 220.220,205.729 220.226 L 205.313 220.238 205.729 220.417 M200.417 220.625 C 200.703 220.717,201.875 220.790,203.021 220.789 C 204.658 220.786,204.926 220.749,204.271 220.613 C 203.171 220.386,199.703 220.396,200.417 220.625 M207.500 221.042 C 207.500 221.280,207.797 221.280,208.542 221.042 C 209.006 220.893,208.978 220.873,208.281 220.854 C 207.852 220.843,207.500 220.927,207.500 221.042 M206.042 221.250 C 206.214 221.361,206.542 221.452,206.771 221.452 C 207.116 221.452,207.134 221.417,206.875 221.250 C 206.703 221.139,206.375 221.048,206.146 221.048 C 205.801 221.048,205.783 221.083,206.042 221.250 M193.542 221.458 C 193.128 221.726,193.648 221.726,194.271 221.458 L 194.688 221.279 194.271 221.268 C 194.042 221.262,193.714 221.347,193.542 221.458 M203.958 221.458 C 204.245 221.550,204.760 221.625,205.104 221.625 C 205.712 221.625,205.715 221.621,205.208 221.458 C 204.922 221.367,204.406 221.292,204.063 221.292 C 203.455 221.292,203.452 221.296,203.958 221.458 M199.844 221.608 C 200.159 221.655,200.674 221.655,200.990 221.608 C 201.305 221.560,201.047 221.521,200.417 221.521 C 199.786 221.521,199.529 221.560,199.844 221.608 M207.708 221.875 C 207.708 222.122,208.070 222.122,208.646 221.875 C 208.995 221.725,208.953 221.694,208.385 221.681 C 208.013 221.673,207.708 221.760,207.708 221.875 M206.458 222.083 C 206.630 222.194,206.911 222.285,207.083 222.285 C 207.361 222.285,207.361 222.263,207.083 222.083 C 206.911 221.972,206.630 221.881,206.458 221.881 C 206.181 221.881,206.181 221.904,206.458 222.083 M192.950 222.298 C 193.169 222.425,193.477 222.428,193.784 222.305 C 194.210 222.134,194.166 222.109,193.438 222.103 C 192.802 222.098,192.686 222.144,192.950 222.298 M204.792 222.292 C 205.078 222.383,205.500 222.461,205.729 222.465 L 206.146 222.471 205.729 222.292 C 205.500 222.193,205.078 222.115,204.792 222.119 L 204.271 222.125 204.792 222.292 M200.625 222.511 C 201.900 222.738,204.049 222.729,203.333 222.500 C 203.047 222.408,202.109 222.336,201.250 222.339 C 199.818 222.343,199.766 222.358,200.625 222.511 M190.678 223.229 C 190.680 223.688,190.723 223.850,190.772 223.591 C 190.822 223.332,190.820 222.957,190.768 222.758 C 190.716 222.559,190.675 222.771,190.678 223.229 M207.917 222.917 C 207.917 223.161,208.077 223.161,208.646 222.917 C 209.015 222.758,208.997 222.736,208.490 222.723 C 208.174 222.715,207.917 222.802,207.917 222.917 M206.563 223.125 C 206.633 223.240,206.897 223.332,207.148 223.330 C 207.519 223.328,207.546 223.289,207.292 223.125 C 206.881 222.860,206.399 222.860,206.563 223.125 M193.542 223.333 C 193.264 223.513,193.264 223.535,193.542 223.535 C 193.714 223.535,193.995 223.444,194.167 223.333 C 194.444 223.154,194.444 223.131,194.167 223.131 C 193.995 223.131,193.714 223.222,193.542 223.333 M204.688 223.333 C 204.917 223.432,205.339 223.512,205.625 223.512 C 206.100 223.512,206.109 223.497,205.729 223.333 C 205.500 223.235,205.078 223.154,204.792 223.154 C 204.317 223.154,204.308 223.170,204.688 223.333 M200.365 223.480 C 200.622 223.530,201.044 223.530,201.302 223.480 C 201.560 223.431,201.349 223.390,200.833 223.390 C 200.318 223.390,200.107 223.431,200.365 223.480 M207.917 223.958 C 207.917 224.203,208.077 224.203,208.646 223.958 C 209.015 223.800,208.997 223.778,208.490 223.765 C 208.174 223.757,207.917 223.844,207.917 223.958 M206.458 224.167 C 206.869 224.432,207.351 224.432,207.188 224.167 C 207.117 224.052,206.853 223.960,206.602 223.962 C 206.231 223.964,206.204 224.002,206.458 224.167 M204.583 224.375 C 205.348 224.620,206.299 224.620,205.729 224.375 C 205.500 224.277,205.031 224.199,204.688 224.202 C 204.078 224.208,204.075 224.212,204.583 224.375 M200.365 224.522 C 200.622 224.572,201.044 224.572,201.302 224.522 C 201.560 224.472,201.349 224.432,200.833 224.432 C 200.318 224.432,200.107 224.472,200.365 224.522 M208.125 224.792 L 207.396 224.945 208.177 224.973 C 208.607 224.988,208.958 224.906,208.958 224.792 C 208.958 224.677,208.935 224.596,208.906 224.611 C 208.878 224.626,208.526 224.707,208.125 224.792 " stroke="none" fill="#949494" fill-rule="evenodd"></path><path id="path5" d="M259.667 79.583 C 259.667 81.359,259.699 82.086,259.738 81.198 C 259.777 80.310,259.777 78.857,259.738 77.969 C 259.699 77.081,259.667 77.807,259.667 79.583 M279.890 95.521 C 279.890 102.510,279.916 105.340,279.948 101.808 C 279.980 98.276,279.980 92.557,279.948 89.100 C 279.916 85.642,279.890 88.531,279.890 95.521 M202.135 193.894 C 202.336 193.946,202.664 193.946,202.865 193.894 C 203.065 193.841,202.901 193.798,202.500 193.798 C 202.099 193.798,201.935 193.841,202.135 193.894 M199.847 216.191 C 200.163 216.239,200.632 216.238,200.888 216.188 C 201.145 216.139,200.885 216.100,200.313 216.101 C 199.740 216.103,199.530 216.143,199.847 216.191 M200.575 217.647 C 200.834 217.697,201.209 217.695,201.409 217.643 C 201.608 217.591,201.396 217.550,200.938 217.553 C 200.479 217.555,200.316 217.598,200.575 217.647 M200.677 219.524 C 200.992 219.572,201.508 219.572,201.823 219.524 C 202.138 219.476,201.880 219.437,201.250 219.437 C 200.620 219.437,200.362 219.476,200.677 219.524 M210.261 220.313 C 210.263 220.771,210.306 220.934,210.356 220.675 C 210.406 220.416,210.404 220.041,210.351 219.841 C 210.299 219.642,210.259 219.854,210.261 220.313 M201.930 221.816 C 202.247 221.864,202.715 221.863,202.972 221.813 C 203.228 221.764,202.969 221.725,202.396 221.726 C 201.823 221.728,201.613 221.768,201.930 221.816 M211.315 223.854 C 211.316 224.542,211.355 224.798,211.401 224.423 C 211.447 224.049,211.446 223.486,211.399 223.173 C 211.351 222.860,211.313 223.167,211.315 223.854 M202.235 223.692 C 202.605 223.738,203.261 223.739,203.693 223.694 C 204.126 223.649,203.823 223.611,203.021 223.610 C 202.219 223.609,201.865 223.646,202.235 223.692 M202.240 224.734 C 202.612 224.780,203.221 224.780,203.594 224.734 C 203.966 224.688,203.661 224.650,202.917 224.650 C 202.172 224.650,201.867 224.688,202.240 224.734 " stroke="none" fill="#8c8c8c" fill-rule="evenodd"></path></g></svg>