<svg id="svg" version="1.1" xmlns="http://www.w3.org/2000/svg" xmlns:xlink="http://www.w3.org/1999/xlink" width="400" height="225" viewBox="0, 0, 400,225"><g id="svgg"><path id="path0" d="M151.771 75.968 C 140.675 77.755,134.531 89.499,139.470 99.479 C 147.148 114.994,170.417 109.467,170.417 92.128 C 170.417 82.314,161.320 74.430,151.771 75.968 M190.350 76.055 C 178.876 77.374,172.383 89.692,177.727 100.000 C 182.160 108.553,193.216 111.330,201.345 105.934 C 201.980 105.513,202.500 105.079,202.500 104.970 C 202.500 104.718,198.707 100.390,198.553 100.466 C 198.489 100.498,197.969 100.770,197.396 101.072 C 189.809 105.067,181.222 98.639,182.986 90.286 C 184.252 84.296,190.836 80.838,196.458 83.209 C 197.203 83.524,197.938 83.797,198.091 83.817 C 198.687 83.896,202.284 79.516,201.940 79.129 C 200.290 77.275,194.074 75.627,190.350 76.055 M111.458 92.281 L 111.458 108.125 114.583 108.125 L 117.708 108.125 117.708 101.762 L 117.708 95.399 119.317 95.460 L 120.925 95.521 123.848 101.816 L 126.771 108.110 130.136 108.118 L 133.502 108.125 130.397 101.436 C 126.845 93.784,127.098 94.546,127.969 94.123 C 134.557 90.918,134.162 80.721,127.319 77.337 L 125.752 76.563 118.605 76.500 L 111.458 76.438 111.458 92.281 M208.333 92.292 L 208.333 108.125 211.458 108.125 L 214.583 108.125 214.583 102.129 L 214.583 96.133 215.846 94.889 C 216.956 93.796,217.138 93.687,217.356 93.986 C 217.493 94.174,219.337 97.431,221.454 101.226 L 225.304 108.125 229.006 108.125 C 231.042 108.125,232.708 108.087,232.708 108.040 C 232.708 107.992,230.286 103.844,227.324 98.821 C 224.363 93.797,221.829 89.478,221.693 89.221 C 221.464 88.788,221.829 88.329,226.869 82.707 C 229.852 79.380,232.292 76.613,232.292 76.558 C 232.292 76.503,230.419 76.458,228.130 76.458 L 223.968 76.458 219.432 81.458 C 216.937 84.208,214.826 86.458,214.740 86.458 C 214.654 86.458,214.583 84.208,214.583 81.458 L 214.583 76.458 211.458 76.458 L 208.333 76.458 208.333 92.292 M238.542 92.292 L 238.542 108.125 249.063 108.125 L 259.583 108.125 259.583 105.000 L 259.583 101.875 252.182 101.875 L 244.782 101.875 244.839 98.385 L 244.896 94.896 250.990 94.841 L 257.083 94.785 257.083 91.664 L 257.083 88.542 250.938 88.542 L 244.792 88.542 244.792 85.625 L 244.792 82.708 252.188 82.708 L 259.583 82.708 259.583 79.583 L 259.583 76.458 249.063 76.458 L 238.542 76.458 238.542 92.292 M264.792 79.583 L 264.792 82.708 269.167 82.708 L 273.542 82.708 273.542 95.417 L 273.542 108.125 276.667 108.125 L 279.792 108.125 279.792 95.417 L 279.792 82.708 284.167 82.708 L 288.542 82.708 288.542 79.583 L 288.542 76.458 276.667 76.458 L 264.792 76.458 264.792 79.583 M156.555 82.611 C 163.999 84.550,166.546 93.825,161.123 99.248 C 155.661 104.710,146.434 102.160,144.477 94.647 C 142.610 87.479,149.372 80.740,156.555 82.611 M125.000 83.177 C 126.428 84.152,126.892 86.177,125.990 87.502 C 124.999 88.957,124.701 89.055,121.027 89.133 L 117.708 89.203 117.708 85.956 L 117.708 82.708 121.011 82.708 C 124.093 82.708,124.359 82.740,125.000 83.177 M233.475 116.468 C 231.010 116.758,228.114 117.815,226.178 119.131 C 225.306 119.724,225.710 119.846,229.050 120.003 C 232.237 120.152,232.713 120.276,233.808 121.238 C 235.247 122.501,236.015 122.691,239.640 122.680 L 242.908 122.670 244.169 121.247 L 245.431 119.824 244.733 119.291 C 242.101 117.284,237.131 116.038,233.475 116.468 M135.197 116.851 C 133.330 117.448,130.446 119.168,131.915 118.808 C 132.180 118.743,132.494 118.614,132.614 118.521 C 132.981 118.238,135.056 117.997,135.905 118.140 C 136.992 118.322,137.750 118.211,138.858 117.707 C 139.371 117.473,140.096 117.229,140.469 117.164 C 141.677 116.956,141.802 116.817,140.938 116.647 C 139.427 116.349,136.434 116.455,135.197 116.851 M208.392 117.028 C 208.939 117.071,209.783 117.071,210.267 117.027 C 210.750 116.984,210.302 116.948,209.271 116.949 C 208.240 116.950,207.844 116.985,208.392 117.028 M212.659 117.022 C 212.918 117.072,213.293 117.070,213.492 117.018 C 213.691 116.966,213.479 116.925,213.021 116.928 C 212.563 116.930,212.400 116.973,212.659 117.022 M251.458 120.821 L 251.458 124.766 252.344 124.892 C 252.831 124.962,253.792 124.987,254.479 124.947 C 255.167 124.908,256.174 124.989,256.719 125.127 L 257.708 125.379 257.708 124.252 L 257.708 123.125 265.208 123.125 L 272.708 123.125 272.708 120.000 L 272.708 116.875 262.083 116.875 L 251.458 116.875 251.458 120.821 M199.861 177.135 C 199.552 177.622,198.815 179.099,198.222 180.417 C 197.628 181.734,196.807 183.479,196.396 184.295 C 195.985 185.110,195.458 186.521,195.226 187.431 C 194.994 188.341,194.558 189.737,194.258 190.532 C 192.296 195.733,191.082 202.256,190.207 212.292 C 189.469 220.767,189.382 221.941,189.378 223.490 L 189.375 225.000 189.976 225.000 L 190.576 225.000 190.712 220.365 C 190.786 217.815,190.901 215.275,190.967 214.719 L 191.086 213.709 191.949 213.838 C 198.766 214.854,202.954 214.800,207.896 213.631 C 209.087 213.349,210.102 213.158,210.150 213.206 C 210.216 213.272,210.494 220.136,210.618 224.740 C 210.622 224.883,210.780 225.000,210.969 225.000 C 212.324 225.000,210.488 204.768,208.552 198.351 C 208.088 196.813,207.282 193.954,206.760 191.997 C 205.483 187.207,205.073 186.059,202.750 180.781 C 200.545 175.770,200.646 175.897,199.861 177.135 M201.718 179.740 C 203.628 184.084,204.859 187.682,206.233 192.934 C 206.695 194.700,207.278 196.813,207.528 197.627 C 208.116 199.541,208.048 199.676,206.319 200.025 C 204.431 200.406,197.397 200.407,194.922 200.026 L 193.074 199.741 193.204 198.629 C 193.276 198.017,193.555 196.786,193.824 195.893 C 194.093 195.001,194.481 193.568,194.685 192.708 C 195.351 189.908,196.273 187.237,197.487 184.583 C 198.143 183.151,199.089 180.971,199.590 179.740 C 200.091 178.508,200.554 177.500,200.618 177.500 C 200.681 177.500,201.177 178.508,201.718 179.740 M203.021 191.250 C 202.444 191.397,202.436 191.411,202.917 191.430 C 203.203 191.442,203.578 191.361,203.750 191.250 C 204.105 191.021,203.921 191.021,203.021 191.250 M202.813 192.301 C 202.522 192.433,202.648 192.452,203.229 192.363 C 203.688 192.293,204.102 192.202,204.149 192.160 C 204.328 192.002,203.212 192.120,202.813 192.301 M203.284 193.272 C 203.543 193.322,203.918 193.320,204.117 193.268 C 204.316 193.216,204.104 193.175,203.646 193.178 C 203.188 193.180,203.025 193.223,203.284 193.272 M203.021 194.375 L 202.188 194.524 202.917 194.529 C 203.318 194.532,203.927 194.462,204.271 194.375 C 205.119 194.159,204.226 194.159,203.021 194.375 M202.760 195.352 C 202.961 195.404,203.289 195.404,203.490 195.352 C 203.690 195.300,203.526 195.257,203.125 195.257 C 202.724 195.257,202.560 195.300,202.760 195.352 M203.385 196.394 C 203.586 196.446,203.914 196.446,204.115 196.394 C 204.315 196.341,204.151 196.298,203.750 196.298 C 203.349 196.298,203.185 196.341,203.385 196.394 M202.867 197.439 C 203.126 197.489,203.501 197.487,203.700 197.435 C 203.900 197.383,203.688 197.342,203.229 197.344 C 202.771 197.347,202.608 197.389,202.867 197.439 M203.177 198.477 C 203.378 198.529,203.706 198.529,203.906 198.477 C 204.107 198.425,203.943 198.382,203.542 198.382 C 203.141 198.382,202.977 198.425,203.177 198.477 M203.284 199.522 C 203.543 199.572,203.918 199.570,204.117 199.518 C 204.316 199.466,204.104 199.425,203.646 199.428 C 203.188 199.430,203.025 199.473,203.284 199.522 M208.370 201.550 C 208.822 202.700,209.507 207.194,209.715 210.369 L 209.851 212.449 207.582 212.988 C 202.590 214.174,193.419 214.129,191.445 212.908 C 191.103 212.697,191.366 209.700,192.185 204.479 C 192.809 200.506,192.814 200.489,193.237 200.840 C 193.724 201.244,204.947 201.184,206.354 200.770 C 207.803 200.344,207.914 200.388,208.370 201.550 M202.813 201.667 L 201.354 201.801 202.604 201.823 C 203.292 201.835,204.276 201.769,204.792 201.677 C 205.982 201.465,205.044 201.460,202.813 201.667 M204.343 202.393 C 204.287 202.449,202.983 202.519,201.444 202.549 C 198.325 202.610,197.499 202.875,196.039 204.282 C 195.594 204.711,195.146 204.961,194.894 204.919 C 194.666 204.882,194.596 204.892,194.740 204.941 C 195.163 205.087,195.037 205.624,194.531 205.827 C 194.273 205.930,194.180 206.021,194.323 206.028 C 194.735 206.049,194.636 206.873,194.219 206.891 C 194.001 206.901,193.959 206.950,194.115 207.013 C 194.504 207.170,194.429 207.872,194.010 207.981 C 193.669 208.070,193.670 208.078,194.018 208.101 C 194.252 208.116,194.545 208.487,194.807 209.099 C 195.316 210.286,195.096 210.482,198.012 206.251 C 200.379 202.815,200.507 202.715,201.719 203.362 C 202.276 203.659,202.260 203.690,199.461 207.862 C 198.018 210.012,197.090 211.536,197.397 211.250 C 197.704 210.964,198.507 209.885,199.180 208.854 C 202.042 204.470,202.719 203.639,202.701 204.531 C 202.693 204.936,200.398 208.508,198.764 210.661 C 197.490 212.338,197.495 212.177,198.698 212.518 C 201.501 213.311,205.590 211.714,206.446 209.491 C 206.531 209.269,206.921 208.965,207.311 208.816 L 208.021 208.545 207.312 208.671 C 206.706 208.779,206.624 208.746,206.740 208.444 C 206.814 208.250,206.875 207.919,206.875 207.709 C 206.875 207.486,207.114 207.232,207.448 207.099 L 208.021 206.873 207.448 206.982 C 206.732 207.119,206.659 206.630,207.344 206.287 C 207.786 206.066,207.780 206.060,207.240 206.174 C 206.827 206.261,206.667 206.212,206.667 206.000 C 206.667 205.838,206.924 205.607,207.240 205.487 L 207.813 205.269 207.106 205.291 C 206.189 205.319,206.035 204.887,206.900 204.714 C 207.267 204.640,207.523 204.537,207.471 204.485 C 207.418 204.432,207.100 204.462,206.764 204.552 C 206.256 204.688,206.006 204.602,205.269 204.040 C 204.782 203.668,204.194 203.304,203.963 203.230 C 203.253 203.005,203.492 202.741,204.531 202.601 C 205.875 202.420,206.082 202.328,205.191 202.308 C 204.780 202.299,204.399 202.337,204.343 202.393 M205.625 203.125 C 204.925 203.349,205.681 203.349,206.563 203.125 C 207.124 202.982,207.134 202.966,206.667 202.962 C 206.380 202.960,205.911 203.033,205.625 203.125 M206.458 203.750 C 206.029 203.887,206.011 203.920,206.354 203.934 C 206.583 203.944,206.911 203.861,207.083 203.750 C 207.448 203.514,207.195 203.514,206.458 203.750 M207.083 209.593 C 206.855 209.747,206.939 209.767,207.396 209.665 C 208.162 209.493,208.328 209.374,207.795 209.378 C 207.576 209.380,207.255 209.477,207.083 209.593 M207.083 210.417 C 206.665 210.551,206.644 210.585,206.979 210.590 C 207.208 210.593,207.583 210.515,207.813 210.417 C 208.343 210.189,207.796 210.189,207.083 210.417 M193.351 211.325 C 193.398 211.366,193.719 211.463,194.063 211.540 C 194.519 211.642,194.603 211.622,194.375 211.468 C 194.094 211.277,193.142 211.145,193.351 211.325 M206.146 211.468 C 205.855 211.600,205.982 211.618,206.563 211.530 C 207.021 211.460,207.435 211.369,207.483 211.327 C 207.662 211.169,206.546 211.287,206.146 211.468 M206.042 212.292 C 205.335 212.440,205.332 212.445,205.938 212.452 C 206.281 212.455,206.797 212.383,207.083 212.292 C 207.766 212.073,207.081 212.073,206.042 212.292 M193.802 215.352 C 194.003 215.404,194.331 215.404,194.531 215.352 C 194.732 215.300,194.568 215.257,194.167 215.257 C 193.766 215.257,193.602 215.300,193.802 215.352 M203.385 215.358 C 203.701 215.405,204.216 215.405,204.531 215.358 C 204.846 215.310,204.589 215.271,203.958 215.271 C 203.328 215.271,203.070 215.310,203.385 215.358 M204.167 216.042 L 203.021 216.182 203.958 216.204 C 204.474 216.216,205.271 216.148,205.729 216.054 C 206.781 215.836,205.900 215.829,204.167 216.042 M193.802 216.185 C 194.003 216.238,194.331 216.238,194.531 216.185 C 194.732 216.133,194.568 216.090,194.167 216.090 C 193.766 216.090,193.602 216.133,193.802 216.185 M193.594 217.227 C 193.794 217.279,194.122 217.279,194.323 217.227 C 194.523 217.175,194.359 217.132,193.958 217.132 C 193.557 217.132,193.393 217.175,193.594 217.227 M203.805 217.233 C 204.122 217.281,204.590 217.279,204.847 217.230 C 205.103 217.181,204.844 217.141,204.271 217.143 C 203.698 217.144,203.488 217.185,203.805 217.233 M193.542 218.125 C 194.254 218.353,194.802 218.353,194.271 218.125 C 194.042 218.027,193.667 217.949,193.438 217.952 C 193.103 217.957,193.123 217.991,193.542 218.125 M203.281 218.278 C 203.768 218.321,204.565 218.321,205.052 218.278 C 205.539 218.234,205.141 218.198,204.167 218.198 C 203.193 218.198,202.794 218.234,203.281 218.278 M193.142 219.035 C 193.190 219.077,193.604 219.168,194.063 219.238 C 194.643 219.327,194.770 219.308,194.479 219.176 C 194.079 218.995,192.963 218.877,193.142 219.035 M204.847 219.108 C 205.163 219.156,205.632 219.154,205.888 219.105 C 206.145 219.056,205.885 219.016,205.313 219.018 C 204.740 219.019,204.530 219.060,204.847 219.108 M202.027 219.317 C 202.396 219.363,203.053 219.364,203.485 219.319 C 203.917 219.274,203.615 219.236,202.813 219.235 C 202.010 219.234,201.657 219.271,202.027 219.317 M193.542 219.997 C 193.714 220.110,194.081 220.203,194.358 220.205 C 195.026 220.209,194.857 220.091,193.958 219.926 C 193.445 219.832,193.322 219.853,193.542 219.997 M203.229 220.000 L 201.354 220.130 203.021 220.154 C 203.938 220.167,205.109 220.102,205.625 220.011 C 206.784 219.804,206.103 219.801,203.229 220.000 M203.333 221.042 L 201.563 221.172 203.125 221.193 C 203.984 221.204,205.156 221.140,205.729 221.051 C 207.058 220.844,206.062 220.840,203.333 221.042 M193.542 222.083 C 193.828 222.175,194.250 222.250,194.479 222.250 C 194.809 222.250,194.787 222.215,194.375 222.083 C 194.089 221.992,193.667 221.917,193.438 221.917 C 193.108 221.917,193.129 221.951,193.542 222.083 M205.365 222.022 C 205.622 222.072,206.044 222.072,206.302 222.022 C 206.560 221.972,206.349 221.932,205.833 221.932 C 205.318 221.932,205.107 221.972,205.365 222.022 M202.453 222.236 C 202.943 222.280,203.693 222.280,204.120 222.235 C 204.547 222.190,204.146 222.154,203.229 222.155 C 202.313 222.156,201.963 222.192,202.453 222.236 M203.438 223.125 L 201.979 223.260 203.229 223.281 C 203.917 223.293,204.901 223.227,205.417 223.136 C 206.607 222.924,205.669 222.919,203.438 223.125 M205.784 224.106 C 206.043 224.156,206.418 224.154,206.617 224.101 C 206.816 224.049,206.604 224.009,206.146 224.011 C 205.688 224.013,205.525 224.056,205.784 224.106 M193.909 224.314 C 194.168 224.364,194.543 224.362,194.742 224.310 C 194.941 224.258,194.729 224.217,194.271 224.219 C 193.813 224.222,193.650 224.264,193.909 224.314 M202.558 224.320 C 203.106 224.363,203.950 224.363,204.433 224.319 C 204.917 224.275,204.469 224.240,203.438 224.241 C 202.406 224.241,202.011 224.277,202.558 224.320 " stroke="none" fill="#f7f7f7" fill-rule="evenodd"></path><path id="path1" d="M0.000 112.500 L 0.000 225.000 94.653 225.000 L 189.307 225.000 189.343 222.656 C 189.381 220.188,190.185 210.391,190.741 205.625 C 191.335 200.530,193.044 193.009,194.277 190.057 C 194.451 189.640,194.783 188.542,195.015 187.618 C 195.246 186.694,195.849 185.094,196.353 184.063 C 196.858 183.031,197.823 181.016,198.498 179.583 C 199.727 176.976,200.466 175.815,200.729 176.077 C 201.782 177.126,205.654 187.287,207.186 193.021 C 207.706 194.969,208.464 197.688,208.869 199.063 C 210.426 204.346,211.454 213.591,211.457 222.344 L 211.458 225.000 305.729 225.000 L 400.000 225.000 400.000 112.500 L 400.000 0.000 200.000 0.000 L 0.000 0.000 0.000 112.500 M158.193 76.273 C 169.003 78.955,174.034 91.693,167.995 101.094 C 161.522 111.170,146.780 111.274,140.325 101.290 C 132.151 88.647,143.578 72.648,158.193 76.273 M196.354 76.345 C 198.401 76.898,202.292 78.887,202.292 79.379 C 202.292 79.473,201.397 80.581,200.304 81.843 L 198.315 84.136 197.022 83.535 C 191.392 80.919,184.745 83.901,183.228 89.725 C 181.052 98.082,189.442 104.943,197.112 101.079 L 198.703 100.277 200.653 102.532 C 203.046 105.301,202.977 104.985,201.414 106.001 C 190.246 113.264,175.724 105.565,175.751 92.396 C 175.773 81.536,186.023 73.551,196.354 76.345 M125.250 76.481 C 133.603 78.230,135.617 90.345,128.185 94.136 L 127.323 94.576 130.433 101.270 C 132.143 104.952,133.542 108.048,133.542 108.149 C 133.542 108.454,126.962 108.380,126.726 108.073 C 126.616 107.930,125.232 105.023,123.650 101.615 L 120.773 95.417 119.241 95.417 L 117.708 95.417 117.708 101.771 L 117.708 108.125 114.479 108.125 L 111.250 108.125 111.250 92.188 L 111.250 76.250 117.698 76.250 C 121.619 76.250,124.579 76.341,125.250 76.481 M214.840 81.283 L 214.896 86.315 219.450 81.283 L 224.004 76.250 228.252 76.250 C 230.588 76.250,232.500 76.320,232.500 76.406 C 232.499 76.492,230.064 79.281,227.087 82.604 C 224.111 85.927,221.675 88.740,221.675 88.854 C 221.675 88.969,224.193 93.328,227.270 98.542 L 232.865 108.021 229.200 108.078 C 227.184 108.109,225.434 108.096,225.310 108.049 C 225.186 108.001,223.308 104.771,221.136 100.870 L 217.188 93.778 215.990 94.956 L 214.792 96.133 214.792 102.129 L 214.792 108.125 211.563 108.125 L 208.333 108.125 208.333 92.188 L 208.333 76.250 211.559 76.250 L 214.784 76.250 214.840 81.283 M259.792 79.479 L 259.792 82.708 252.396 82.708 L 245.000 82.708 245.000 85.625 L 245.000 88.542 251.042 88.542 L 257.083 88.542 257.083 91.771 L 257.083 95.000 251.042 95.000 L 245.000 95.000 245.000 98.333 L 245.000 101.667 252.297 101.667 L 259.594 101.667 259.537 104.948 L 259.479 108.229 248.958 108.229 L 238.438 108.229 238.384 92.500 C 238.354 83.849,238.375 76.654,238.429 76.510 C 238.507 76.307,240.847 76.250,249.160 76.250 L 259.792 76.250 259.792 79.479 M288.750 79.479 L 288.750 82.708 284.377 82.708 L 280.003 82.708 279.950 95.469 L 279.896 108.229 276.720 108.287 L 273.545 108.344 273.491 95.578 L 273.438 82.813 269.010 82.756 L 264.583 82.700 264.583 79.475 L 264.583 76.250 276.667 76.250 L 288.750 76.250 288.750 79.479 M151.354 82.793 C 144.065 85.107,141.882 94.186,147.378 99.327 C 155.472 106.899,167.812 97.575,162.797 87.677 C 160.799 83.735,155.504 81.474,151.354 82.793 M117.708 85.833 L 117.708 88.958 120.889 88.958 C 125.262 88.958,126.785 87.968,126.352 85.406 C 125.996 83.294,124.745 82.711,120.573 82.709 L 117.708 82.708 117.708 85.833 M142.396 116.888 C 144.579 117.563,148.542 119.731,148.542 120.250 C 148.542 120.443,145.769 125.076,145.406 125.489 C 145.321 125.586,144.729 125.331,144.091 124.923 C 139.379 121.909,134.792 122.166,134.792 125.443 C 134.792 127.248,135.501 127.823,139.237 129.047 C 146.115 131.300,149.356 134.922,149.130 140.102 C 148.708 149.753,136.364 152.434,127.333 144.837 C 125.958 143.681,125.914 143.809,128.550 141.298 L 130.747 139.205 131.874 140.141 C 136.375 143.879,142.708 143.509,142.708 139.508 C 142.708 137.922,139.776 135.778,136.563 135.015 C 125.964 132.498,125.406 119.202,135.788 116.559 C 137.410 116.146,140.494 116.300,142.396 116.888 M239.479 116.761 C 241.526 117.315,245.417 119.304,245.417 119.796 C 245.417 119.889,244.522 120.998,243.429 122.259 L 241.440 124.553 240.147 123.949 C 234.624 121.368,227.839 124.394,226.363 130.096 C 224.154 138.631,232.858 145.541,240.546 141.356 L 241.822 140.662 243.828 142.972 C 246.191 145.693,246.116 145.397,244.688 146.344 C 233.545 153.741,218.862 146.044,218.873 132.813 C 218.882 121.975,229.159 113.970,239.479 116.761 M178.166 132.500 C 182.257 141.151,185.610 148.349,185.615 148.495 C 185.623 148.702,184.857 148.748,182.135 148.703 L 178.646 148.646 177.203 145.677 L 175.760 142.708 169.286 142.712 L 162.813 142.715 161.269 145.733 L 159.725 148.750 156.229 148.750 C 154.306 148.750,152.695 148.680,152.649 148.594 C 152.603 148.508,154.362 144.922,156.558 140.625 C 158.754 136.328,162.404 129.175,164.669 124.729 L 168.786 116.645 169.756 116.708 L 170.726 116.771 178.166 132.500 M195.668 127.448 C 195.727 137.931,195.741 138.256,196.171 139.185 C 198.279 143.742,204.738 143.771,206.871 139.233 C 207.296 138.329,207.310 137.991,207.352 127.537 L 207.396 116.771 210.625 116.771 L 213.854 116.771 213.908 127.348 C 213.968 139.032,213.913 139.709,212.707 142.159 C 208.139 151.438,194.866 151.424,190.396 142.135 C 189.229 139.708,189.174 139.050,189.170 127.344 L 189.167 116.667 192.387 116.667 L 195.607 116.667 195.668 127.448 M272.708 119.896 L 272.708 123.125 265.313 123.125 L 257.917 123.125 257.917 126.042 L 257.917 128.958 264.063 128.958 L 270.208 128.958 270.208 132.188 L 270.208 135.417 264.063 135.417 L 257.917 135.417 257.917 138.750 L 257.917 142.083 265.208 142.083 L 272.500 142.083 272.500 145.417 L 272.500 148.750 261.979 148.750 L 251.458 148.750 251.458 132.708 L 251.458 116.667 262.083 116.667 L 272.708 116.667 272.708 119.896 M167.848 132.841 C 166.957 134.628,166.267 136.128,166.314 136.175 C 166.361 136.222,167.819 136.235,169.552 136.203 L 172.705 136.146 171.237 133.021 C 170.430 131.302,169.701 129.828,169.619 129.744 C 169.536 129.661,168.739 131.055,167.848 132.841 M199.688 179.844 C 199.255 180.904,198.313 183.083,197.595 184.688 C 196.180 187.851,195.454 189.982,194.680 193.248 C 194.406 194.405,194.076 195.623,193.948 195.957 C 193.704 196.590,193.115 199.434,193.208 199.528 C 193.818 200.138,203.550 200.328,206.406 199.786 C 207.998 199.484,207.996 199.494,206.979 196.250 C 206.578 194.971,206.250 193.804,206.250 193.658 C 206.250 191.926,201.250 177.917,200.632 177.917 C 200.546 177.917,200.121 178.784,199.688 179.844 M203.281 187.760 C 203.176 188.076,202.602 188.209,202.129 188.027 C 201.830 187.913,201.825 187.867,202.089 187.700 C 202.547 187.410,203.384 187.453,203.281 187.760 M203.647 188.751 C 203.828 189.044,203.294 189.210,202.468 189.119 L 201.771 189.041 202.292 188.805 C 202.954 188.504,203.481 188.483,203.647 188.751 M203.958 189.896 C 203.958 190.127,203.715 190.208,203.021 190.208 C 201.554 190.208,201.880 189.671,203.385 189.608 C 203.767 189.591,203.958 189.688,203.958 189.896 M204.375 191.120 C 204.375 191.587,202.041 191.896,201.775 191.464 C 201.655 191.271,201.981 191.152,203.125 190.972 C 204.150 190.811,204.375 190.837,204.375 191.120 M204.583 192.071 C 204.583 192.380,204.346 192.459,202.934 192.619 C 201.850 192.741,201.629 192.716,201.709 192.478 C 201.864 192.010,204.583 191.625,204.583 192.071 M204.838 193.162 C 204.383 193.617,201.667 193.762,201.667 193.332 C 201.667 193.132,202.487 193.001,204.052 192.950 C 204.843 192.924,205.026 192.974,204.838 193.162 M196.875 193.542 C 196.875 193.656,196.740 193.750,196.575 193.750 C 196.410 193.750,196.217 193.656,196.146 193.542 C 196.075 193.427,196.210 193.333,196.446 193.333 C 196.682 193.333,196.875 193.427,196.875 193.542 M205.208 194.161 C 205.208 194.272,204.904 194.451,204.531 194.559 L 203.854 194.754 204.635 194.773 C 206.487 194.817,205.328 195.408,203.073 195.569 C 201.258 195.699,200.763 195.328,202.448 195.101 C 203.930 194.901,203.983 194.826,202.656 194.808 C 201.207 194.788,201.077 194.452,202.448 194.267 C 202.992 194.194,203.531 194.102,203.646 194.063 C 204.112 193.903,205.208 193.972,205.208 194.161 M196.452 194.367 C 196.621 194.473,196.695 194.624,196.618 194.702 C 196.427 194.893,195.833 194.650,195.833 194.382 C 195.833 194.117,196.049 194.112,196.452 194.367 M196.458 195.417 C 196.458 195.531,196.271 195.625,196.042 195.625 C 195.813 195.625,195.625 195.531,195.625 195.417 C 195.625 195.302,195.813 195.208,196.042 195.208 C 196.271 195.208,196.458 195.302,196.458 195.417 M205.833 196.034 C 205.833 196.475,202.119 197.002,201.354 196.669 C 200.831 196.441,200.798 196.452,202.917 196.146 C 205.219 195.813,205.833 195.789,205.833 196.034 M196.458 196.458 C 196.458 196.573,196.224 196.667,195.938 196.667 C 195.651 196.667,195.417 196.573,195.417 196.458 C 195.417 196.344,195.651 196.250,195.938 196.250 C 196.224 196.250,196.458 196.344,196.458 196.458 M206.065 196.979 C 206.068 197.305,204.224 197.666,202.448 197.688 C 200.129 197.717,200.459 197.428,203.177 197.049 C 205.783 196.685,206.063 196.679,206.065 196.979 M196.146 197.292 C 196.219 197.410,196.044 197.500,195.741 197.500 C 195.448 197.500,195.208 197.406,195.208 197.292 C 195.208 197.177,195.390 197.083,195.613 197.083 C 195.835 197.083,196.075 197.177,196.146 197.292 M206.458 197.896 C 206.458 198.350,201.719 199.183,200.909 198.872 C 200.294 198.636,200.792 198.478,203.282 198.116 C 206.326 197.675,206.458 197.665,206.458 197.896 M195.827 198.117 C 195.996 198.223,196.077 198.367,196.008 198.436 C 195.831 198.613,194.792 198.328,194.792 198.102 C 194.792 197.860,195.436 197.869,195.827 198.117 M206.667 198.942 C 206.667 199.365,203.473 199.979,201.198 199.994 C 200.077 200.001,199.857 199.654,200.885 199.502 C 206.046 198.739,206.667 198.678,206.667 198.942 M195.790 199.345 C 195.859 199.554,195.756 199.589,195.389 199.478 C 194.593 199.236,194.394 198.917,195.088 198.994 C 195.423 199.032,195.739 199.190,195.790 199.345 M207.355 201.029 C 207.170 201.740,202.546 202.356,200.125 201.993 C 198.883 201.807,198.898 201.505,200.156 201.392 C 200.701 201.343,199.458 201.307,197.396 201.312 C 195.333 201.316,193.490 201.251,193.300 201.166 C 193.060 201.059,192.920 201.128,192.841 201.391 C 192.489 202.577,191.619 209.150,191.593 210.829 L 191.563 212.803 192.917 213.058 C 195.793 213.598,200.517 213.846,202.879 213.580 C 204.880 213.356,209.513 212.431,209.732 212.213 C 209.853 212.092,209.217 206.324,208.836 204.094 C 208.361 201.311,207.661 199.861,207.355 201.029 M195.295 201.793 C 195.637 201.924,195.761 202.500,195.448 202.500 C 195.046 202.500,193.958 202.029,193.958 201.855 C 193.958 201.641,194.799 201.603,195.295 201.793 M207.292 202.061 C 207.292 202.324,206.803 202.480,205.497 202.634 C 204.874 202.707,204.304 202.862,204.233 202.979 C 204.148 203.116,204.350 203.139,204.811 203.043 C 206.854 202.618,208.425 202.717,207.240 203.195 C 207.084 203.258,207.126 203.307,207.344 203.317 C 207.544 203.326,207.708 203.467,207.708 203.631 C 207.708 203.794,207.544 203.971,207.344 204.023 C 207.079 204.092,207.112 204.125,207.465 204.142 C 208.145 204.176,207.930 204.605,207.071 204.927 L 206.354 205.196 207.135 205.075 C 207.765 204.977,207.917 205.019,207.917 205.289 C 207.917 205.474,207.753 205.631,207.552 205.638 C 207.273 205.648,207.297 205.695,207.656 205.840 C 207.914 205.943,208.125 206.081,208.125 206.146 C 208.125 206.211,207.914 206.348,207.656 206.452 L 207.188 206.640 207.656 206.653 C 208.233 206.670,208.295 207.292,207.721 207.292 C 207.498 207.292,207.269 207.368,207.211 207.462 C 207.153 207.556,207.382 207.592,207.719 207.543 C 208.389 207.445,208.590 207.849,207.969 208.045 C 206.984 208.355,206.808 208.503,207.552 208.393 C 208.435 208.264,208.644 208.639,207.865 208.952 C 207.419 209.131,207.425 209.141,207.986 209.153 C 208.945 209.175,208.522 209.665,207.345 209.896 C 206.761 210.010,206.206 210.189,206.111 210.294 C 206.010 210.404,206.079 210.433,206.275 210.362 C 207.717 209.848,209.395 210.087,208.073 210.619 L 207.604 210.807 208.073 210.820 C 209.698 210.866,207.909 211.682,206.004 211.764 C 205.119 211.802,204.282 211.984,203.705 212.263 C 201.902 213.136,199.927 213.226,198.073 212.520 C 197.333 212.238,197.328 212.258,198.502 210.759 C 199.358 209.666,200.802 207.532,202.148 205.372 C 202.341 205.061,202.500 204.696,202.500 204.562 C 202.500 204.186,201.337 205.734,200.058 207.813 C 198.685 210.044,197.288 211.851,196.927 211.865 C 196.631 211.876,196.575 211.539,196.845 211.372 C 197.518 210.957,201.887 203.911,201.650 203.625 C 200.977 202.815,200.185 203.324,198.699 205.521 C 195.808 209.797,195.412 210.268,195.011 209.906 C 194.815 209.729,194.475 209.582,194.254 209.580 C 193.519 209.575,192.917 209.329,192.917 209.034 C 192.917 208.758,193.354 208.772,194.338 209.079 C 194.506 209.132,194.587 209.029,194.546 208.815 C 194.509 208.621,194.175 208.385,193.802 208.288 C 192.952 208.068,192.920 207.708,193.750 207.708 C 194.094 207.708,194.375 207.635,194.375 207.546 C 194.375 207.456,194.094 207.277,193.750 207.147 C 193.406 207.017,193.125 206.802,193.125 206.668 C 193.125 206.507,193.334 206.471,193.750 206.563 C 194.461 206.719,194.657 206.285,193.958 206.102 C 193.270 205.922,193.440 205.407,194.141 205.547 C 194.482 205.615,194.802 205.568,194.883 205.438 C 194.967 205.302,194.866 205.208,194.635 205.208 C 194.165 205.208,193.383 204.672,193.575 204.481 C 193.650 204.406,194.062 204.441,194.490 204.560 C 195.239 204.767,195.309 204.739,196.282 203.865 C 197.684 202.604,198.730 202.295,201.652 202.276 C 202.978 202.268,204.484 202.186,205.000 202.094 C 206.328 201.858,207.292 201.844,207.292 202.061 M195.260 202.849 C 195.575 203.034,195.405 203.333,194.986 203.333 C 194.443 203.333,193.750 202.970,193.750 202.684 C 193.750 202.485,194.844 202.604,195.260 202.849 M195.087 203.668 C 195.588 203.860,195.481 204.167,194.913 204.167 C 194.275 204.167,193.750 203.968,193.750 203.728 C 193.750 203.516,194.593 203.478,195.087 203.668 M194.491 210.295 C 194.713 210.458,194.826 210.660,194.741 210.746 C 194.540 210.947,192.917 210.461,192.917 210.200 C 192.917 209.894,194.035 209.962,194.491 210.295 M194.219 211.158 C 194.713 211.245,195.000 211.411,195.000 211.609 C 195.000 211.945,193.835 211.838,193.077 211.433 C 192.600 211.178,192.597 210.773,193.073 210.912 C 193.273 210.971,193.789 211.082,194.219 211.158 M205.208 211.146 C 204.897 211.521,204.987 211.522,206.458 211.155 L 207.604 210.869 206.536 210.851 C 205.823 210.839,205.381 210.937,205.208 211.146 M208.750 211.855 C 208.750 212.185,207.445 212.528,205.729 212.648 C 203.650 212.793,203.828 212.512,206.107 212.051 C 208.115 211.645,208.750 211.598,208.750 211.855 M194.941 212.517 C 195.438 212.706,195.424 213.125,194.921 213.125 C 194.337 213.125,192.500 212.469,192.500 212.260 C 192.500 212.016,194.055 212.180,194.941 212.517 M207.917 213.858 C 203.609 214.992,198.099 215.060,191.953 214.054 L 191.094 213.913 190.956 218.675 C 190.880 221.295,190.766 223.789,190.703 224.219 L 190.588 225.000 198.381 225.000 C 205.324 225.000,207.529 224.887,209.010 224.454 C 209.248 224.384,209.375 224.461,209.375 224.673 C 209.375 224.883,209.562 225.000,209.896 225.000 C 210.407 225.000,210.417 224.969,210.416 223.385 C 210.415 219.027,210.130 213.335,209.915 213.363 C 209.790 213.379,208.891 213.602,207.917 213.858 M208.750 214.556 C 208.750 215.062,205.238 215.626,202.107 215.622 C 198.469 215.617,198.285 215.308,201.811 215.123 C 203.393 215.041,205.391 214.851,206.250 214.700 C 208.209 214.358,208.750 214.327,208.750 214.556 M194.740 215.120 C 195.529 215.282,195.261 215.624,194.323 215.649 C 193.836 215.662,193.625 215.713,193.854 215.761 C 194.083 215.810,194.482 215.895,194.740 215.950 C 195.499 216.112,195.276 216.460,194.427 216.438 C 192.971 216.399,191.643 215.653,192.951 215.609 C 193.410 215.593,193.405 215.580,192.865 215.383 C 191.453 214.867,192.681 214.695,194.740 215.120 M208.542 215.401 C 208.542 216.130,201.819 216.812,199.401 216.328 C 198.100 216.068,198.811 215.937,201.719 215.900 C 203.352 215.879,205.391 215.725,206.250 215.558 C 208.182 215.181,208.542 215.157,208.542 215.401 M208.958 216.450 C 208.958 217.165,201.651 217.899,199.427 217.408 C 198.110 217.117,198.787 216.979,201.720 216.939 C 203.352 216.917,205.438 216.765,206.354 216.600 C 208.434 216.227,208.958 216.196,208.958 216.450 M194.740 217.006 C 195.446 217.196,195.302 217.500,194.505 217.500 C 193.523 217.500,192.500 217.274,192.500 217.057 C 192.500 216.851,194.029 216.816,194.740 217.006 M208.807 217.734 C 208.207 218.335,202.059 218.791,199.740 218.408 C 198.098 218.137,199.082 217.946,202.240 217.923 C 204.044 217.910,206.224 217.780,207.083 217.635 C 208.666 217.366,209.148 217.394,208.807 217.734 M194.860 218.110 C 195.449 218.699,193.317 218.595,192.580 217.998 C 192.220 217.707,192.290 217.689,193.415 217.786 C 194.090 217.845,194.740 217.990,194.860 218.110 M209.167 218.524 C 209.167 219.269,200.512 219.878,198.871 219.249 C 198.093 218.950,198.699 218.858,201.093 218.909 C 202.497 218.940,204.630 218.834,205.833 218.675 C 208.587 218.312,209.167 218.286,209.167 218.524 M194.544 218.927 C 195.205 219.113,195.030 219.487,194.300 219.446 C 193.237 219.387,192.292 219.153,192.292 218.949 C 192.292 218.729,193.789 218.714,194.544 218.927 M209.167 219.358 C 209.167 219.956,203.113 220.620,200.356 220.325 C 198.021 220.075,198.778 219.793,201.823 219.778 C 203.398 219.771,205.438 219.643,206.354 219.495 C 208.472 219.152,209.167 219.118,209.167 219.358 M195.052 219.929 C 195.404 220.145,195.171 220.417,194.635 220.416 C 193.795 220.414,192.500 220.015,192.500 219.758 C 192.500 219.546,194.664 219.691,195.052 219.929 M209.167 220.409 C 209.167 221.194,201.642 221.747,199.427 221.125 C 198.374 220.829,199.142 220.728,202.657 220.701 C 204.690 220.685,206.776 220.578,207.292 220.463 C 208.544 220.184,209.167 220.166,209.167 220.409 M195.059 221.017 C 195.441 221.399,194.687 221.509,193.450 221.253 C 191.852 220.921,191.931 220.534,193.566 220.683 C 194.267 220.746,194.938 220.897,195.059 221.017 M209.167 221.450 C 209.167 222.236,201.642 222.789,199.427 222.166 C 198.409 221.880,199.071 221.773,201.510 221.830 C 202.925 221.863,204.991 221.760,206.146 221.598 C 208.819 221.224,209.167 221.207,209.167 221.450 M195.160 221.966 C 195.210 222.015,195.183 222.165,195.100 222.298 C 194.855 222.694,192.500 222.264,192.500 221.823 C 192.500 221.618,194.944 221.750,195.160 221.966 M209.167 222.485 C 209.167 222.689,207.719 223.035,205.557 223.347 C 203.219 223.685,199.167 223.527,199.167 223.097 C 199.167 222.998,200.362 222.911,201.823 222.903 C 203.284 222.896,205.229 222.768,206.146 222.620 C 208.247 222.279,209.167 222.238,209.167 222.485 M195.052 223.057 C 195.431 223.282,195.152 223.542,194.531 223.541 C 193.608 223.539,192.292 223.154,192.292 222.886 C 192.292 222.679,194.663 222.826,195.052 223.057 M209.425 223.575 C 208.779 224.221,203.313 224.786,200.564 224.491 C 198.231 224.242,198.987 223.959,202.031 223.943 C 203.607 223.934,205.693 223.806,206.667 223.657 C 209.095 223.288,209.731 223.269,209.425 223.575 M194.948 224.073 C 195.517 224.249,195.163 224.582,194.427 224.563 C 193.378 224.535,192.654 224.316,192.547 223.995 C 192.465 223.749,194.072 223.801,194.948 224.073 " stroke="none" fill="#343434" fill-rule="evenodd"></path><path id="path2" d="M168.360 117.656 C 168.141 118.086,164.530 125.170,160.335 133.399 C 156.140 141.628,152.708 148.401,152.708 148.451 C 152.708 148.501,154.301 148.542,156.249 148.542 L 159.789 148.542 161.250 145.625 L 162.711 142.708 169.286 142.708 L 175.862 142.708 177.239 145.625 L 178.616 148.542 182.112 148.542 L 185.608 148.542 185.252 147.727 C 185.056 147.279,181.708 140.157,177.813 131.899 L 170.729 116.886 169.744 116.880 C 168.813 116.875,168.736 116.918,168.360 117.656 M189.221 127.865 C 189.309 139.900,189.292 139.719,190.619 142.414 C 195.543 152.417,210.919 150.612,213.523 139.725 C 213.771 138.689,213.868 117.549,213.626 117.306 C 213.561 117.241,212.159 117.163,210.511 117.134 L 207.514 117.080 207.455 127.759 L 207.396 138.438 206.831 139.508 C 204.932 143.109,200.255 143.824,197.382 140.951 C 195.589 139.158,195.625 139.437,195.625 127.359 L 195.625 116.875 192.383 116.875 L 189.140 116.875 189.221 127.865 M140.399 117.273 C 139.873 117.347,139.170 117.590,138.836 117.812 C 138.329 118.150,137.904 118.210,136.250 118.178 C 130.866 118.073,128.438 120.356,128.438 125.521 C 128.438 130.226,131.453 133.655,136.771 134.997 C 140.735 135.997,143.247 138.266,142.676 140.332 C 141.739 143.726,136.161 143.710,131.975 140.301 L 130.810 139.352 129.207 140.803 C 128.326 141.601,127.296 142.575,126.920 142.967 L 126.236 143.680 127.233 144.609 C 130.558 147.710,134.081 149.057,138.870 149.060 L 141.802 149.063 143.588 148.178 C 148.837 145.577,150.713 139.474,147.705 134.787 C 146.139 132.347,142.922 130.245,138.778 128.956 C 135.599 127.967,134.766 127.270,134.741 125.575 C 134.685 121.912,139.506 121.759,144.792 125.255 L 145.313 125.600 146.950 122.892 C 147.851 121.403,148.554 120.157,148.513 120.123 C 148.038 119.731,145.623 118.327,144.485 117.781 C 142.996 117.066,142.401 116.992,140.399 117.273 M223.511 121.440 C 215.902 129.224,218.018 142.248,227.708 147.276 C 233.253 150.152,239.994 149.675,244.957 146.054 L 245.851 145.402 243.936 143.215 C 241.585 140.530,241.966 140.708,240.369 141.541 C 235.438 144.111,229.270 142.082,226.911 137.113 C 223.806 130.576,228.503 122.999,235.721 122.903 C 236.644 122.890,236.708 122.863,236.250 122.675 C 234.983 122.155,233.904 121.540,233.800 121.278 C 233.519 120.571,231.809 120.092,229.359 120.034 C 228.050 120.003,226.604 119.892,226.146 119.787 L 225.313 119.597 223.511 121.440 M237.190 122.921 C 237.241 123.002,237.647 123.118,238.094 123.178 C 238.541 123.238,239.485 123.546,240.192 123.864 L 241.477 124.440 242.072 123.731 C 242.878 122.768,242.878 122.768,239.806 122.771 C 238.317 122.773,237.140 122.840,237.190 122.921 M251.458 136.751 L 251.458 148.542 261.979 148.542 L 272.500 148.542 272.500 145.417 L 272.500 142.292 265.208 142.292 L 257.917 142.292 257.917 138.854 L 257.917 135.417 263.958 135.417 L 270.000 135.417 270.000 132.188 L 270.000 128.958 263.958 128.958 L 257.917 128.958 257.917 127.317 C 257.917 125.111,257.934 125.122,254.343 125.032 L 251.458 124.960 251.458 136.751 M171.239 132.847 C 172.047 134.585,172.708 136.061,172.708 136.128 C 172.708 136.195,171.209 136.250,169.376 136.250 L 166.043 136.250 167.756 132.817 C 168.698 130.930,169.536 129.453,169.619 129.536 C 169.701 129.619,170.430 131.109,171.239 132.847 " stroke="none" fill="#fa3535" fill-rule="evenodd"></path><path id="path3" d="M111.346 76.510 C 111.291 76.654,111.271 83.849,111.302 92.500 L 111.357 108.229 111.408 92.347 L 111.458 76.464 117.760 76.406 L 124.063 76.348 117.754 76.299 C 112.862 76.261,111.423 76.308,111.346 76.510 M214.673 81.458 C 214.673 84.266,214.703 85.414,214.739 84.010 C 214.775 82.607,214.775 80.310,214.739 78.906 C 214.703 77.503,214.673 78.651,214.673 81.458 M264.667 79.583 C 264.667 81.359,264.699 82.086,264.738 81.198 C 264.777 80.310,264.777 78.857,264.738 77.969 C 264.699 77.081,264.667 77.807,264.667 79.583 M288.626 79.583 C 288.626 81.359,288.657 82.086,288.697 81.198 C 288.736 80.310,288.736 78.857,288.697 77.969 C 288.657 77.081,288.626 77.807,288.626 79.583 M142.383 80.677 L 141.771 81.354 142.448 80.742 C 142.820 80.406,143.125 80.101,143.125 80.065 C 143.125 79.904,142.953 80.046,142.383 80.677 M132.757 85.833 C 132.757 86.234,132.800 86.398,132.852 86.198 C 132.904 85.997,132.904 85.669,132.852 85.469 C 132.800 85.268,132.757 85.432,132.757 85.833 M119.228 89.113 C 120.122 89.153,121.528 89.152,122.353 89.113 C 123.179 89.073,122.448 89.041,120.729 89.042 C 119.010 89.042,118.335 89.074,119.228 89.113 M170.485 92.188 C 170.486 92.990,170.524 93.292,170.569 92.860 C 170.614 92.428,170.613 91.771,170.567 91.402 C 170.521 91.032,170.484 91.385,170.485 92.188 M182.771 92.292 C 182.771 92.922,182.810 93.180,182.858 92.865 C 182.905 92.549,182.905 92.034,182.858 91.719 C 182.810 91.404,182.771 91.661,182.771 92.292 M247.969 94.947 C 249.659 94.982,252.424 94.982,254.115 94.947 C 255.805 94.912,254.422 94.884,251.042 94.884 C 247.661 94.884,246.279 94.912,247.969 94.947 M214.675 102.083 C 214.675 105.464,214.704 106.846,214.739 105.156 C 214.774 103.466,214.774 100.701,214.739 99.010 C 214.704 97.320,214.675 98.703,214.675 102.083 M153.802 102.227 C 154.003 102.279,154.331 102.279,154.531 102.227 C 154.732 102.175,154.568 102.132,154.167 102.132 C 153.766 102.132,153.602 102.175,153.802 102.227 M165.614 103.906 L 164.896 104.688 165.677 103.970 C 166.404 103.301,166.554 103.125,166.395 103.125 C 166.360 103.125,166.009 103.477,165.614 103.906 M137.867 116.397 C 138.126 116.447,138.501 116.445,138.700 116.393 C 138.900 116.341,138.688 116.300,138.229 116.303 C 137.771 116.305,137.608 116.348,137.867 116.397 M141.550 116.895 C 141.486 116.998,141.674 117.083,141.967 117.083 C 142.605 117.083,142.657 116.965,142.084 116.815 C 141.854 116.755,141.615 116.791,141.550 116.895 M211.302 117.019 C 211.503 117.071,211.831 117.071,212.031 117.019 C 212.232 116.966,212.068 116.923,211.667 116.923 C 211.266 116.923,211.102 116.966,211.302 117.019 M257.775 124.375 C 257.775 125.120,257.813 125.424,257.859 125.052 C 257.905 124.680,257.905 124.070,257.859 123.698 C 257.813 123.326,257.775 123.630,257.775 124.375 M202.169 188.988 C 202.108 189.086,202.340 189.167,202.684 189.167 C 203.499 189.167,203.687 188.861,202.890 188.832 C 202.554 188.819,202.230 188.890,202.169 188.988 M202.292 190.000 C 202.292 190.115,202.596 190.202,202.969 190.194 C 203.536 190.181,203.578 190.150,203.229 190.000 C 202.654 189.753,202.292 189.753,202.292 190.000 M203.224 191.260 C 203.565 191.363,203.912 191.380,203.994 191.297 C 204.077 191.214,203.798 191.130,203.374 191.110 C 202.612 191.074,202.611 191.075,203.224 191.260 M202.198 192.272 C 201.925 192.378,202.127 192.431,202.813 192.431 C 203.498 192.431,203.700 192.378,203.427 192.272 C 203.204 192.184,202.927 192.113,202.813 192.113 C 202.698 192.113,202.421 192.184,202.198 192.272 M203.750 192.997 C 203.750 193.181,204.593 193.278,204.700 193.105 C 204.764 193.002,204.576 192.917,204.283 192.917 C 203.990 192.917,203.750 192.953,203.750 192.997 M202.188 193.333 C 202.109 193.461,202.406 193.534,202.956 193.521 C 203.715 193.503,203.773 193.474,203.333 193.333 C 202.592 193.096,202.334 193.096,202.188 193.333 M203.333 194.375 C 204.046 194.603,204.593 194.603,204.063 194.375 C 203.833 194.277,203.458 194.199,203.229 194.202 C 202.894 194.207,202.915 194.241,203.333 194.375 M204.750 195.042 C 204.944 195.236,205.056 195.236,205.250 195.042 C 205.444 194.847,205.389 194.792,205.000 194.792 C 204.611 194.792,204.556 194.847,204.750 195.042 M203.438 195.208 C 204.060 195.476,204.581 195.476,204.167 195.208 C 203.995 195.097,203.667 195.012,203.438 195.018 L 203.021 195.029 203.438 195.208 M201.875 195.417 C 201.875 195.531,202.133 195.624,202.448 195.622 C 202.894 195.619,202.952 195.574,202.708 195.417 C 202.301 195.153,201.875 195.153,201.875 195.417 M204.063 196.250 C 204.685 196.518,205.206 196.518,204.792 196.250 C 204.620 196.139,204.292 196.053,204.063 196.059 L 203.646 196.071 204.063 196.250 M201.994 196.437 C 201.732 196.539,201.985 196.599,202.723 196.610 C 203.508 196.621,203.727 196.573,203.438 196.453 C 202.921 196.238,202.514 196.233,201.994 196.437 M205.052 197.100 C 205.300 197.244,205.534 197.244,205.781 197.100 C 206.079 196.927,206.012 196.888,205.417 196.888 C 204.822 196.888,204.755 196.927,205.052 197.100 M203.646 197.292 C 204.269 197.559,204.789 197.559,204.375 197.292 C 204.203 197.181,203.875 197.095,203.646 197.101 L 203.229 197.113 203.646 197.292 M201.458 197.500 C 201.235 197.645,201.442 197.699,202.188 197.691 C 202.960 197.682,203.121 197.633,202.813 197.500 C 202.250 197.258,201.833 197.258,201.458 197.500 M203.854 198.333 C 204.477 198.601,204.997 198.601,204.583 198.333 C 204.411 198.222,204.083 198.137,203.854 198.143 L 203.438 198.154 203.854 198.333 M201.667 198.527 C 201.301 198.634,201.518 198.683,202.396 198.691 C 203.234 198.699,203.509 198.647,203.229 198.533 C 202.726 198.327,202.355 198.326,201.667 198.527 M205.729 198.935 C 205.385 199.010,205.205 199.135,205.328 199.213 C 205.610 199.391,206.458 199.181,206.458 198.934 C 206.458 198.833,206.435 198.761,206.406 198.775 C 206.378 198.788,206.073 198.861,205.729 198.935 M194.896 199.167 C 194.967 199.281,195.165 199.375,195.337 199.375 C 195.509 199.375,195.592 199.281,195.521 199.167 C 195.450 199.052,195.251 198.958,195.080 198.958 C 194.908 198.958,194.825 199.052,194.896 199.167 M204.063 199.375 C 204.685 199.643,205.206 199.643,204.792 199.375 C 204.620 199.264,204.292 199.178,204.063 199.184 L 203.646 199.196 204.063 199.375 M201.458 199.570 C 201.117 199.671,201.439 199.723,202.396 199.723 C 203.353 199.723,203.675 199.671,203.333 199.570 C 203.047 199.486,202.625 199.417,202.396 199.417 C 202.167 199.417,201.745 199.486,201.458 199.570 M198.177 200.358 C 198.492 200.405,199.008 200.405,199.323 200.358 C 199.638 200.310,199.380 200.271,198.750 200.271 C 198.120 200.271,197.862 200.310,198.177 200.358 M203.075 200.356 C 203.334 200.406,203.709 200.404,203.909 200.351 C 204.108 200.299,203.896 200.259,203.438 200.261 C 202.979 200.263,202.816 200.306,203.075 200.356 M195.365 201.189 C 195.622 201.238,196.044 201.238,196.302 201.189 C 196.560 201.139,196.349 201.098,195.833 201.098 C 195.318 201.098,195.107 201.139,195.365 201.189 M198.600 201.195 C 199.148 201.238,199.992 201.238,200.475 201.194 C 200.959 201.150,200.510 201.115,199.479 201.116 C 198.448 201.116,198.052 201.152,198.600 201.195 M204.375 201.220 C 204.776 201.312,205.339 201.460,205.625 201.550 C 206.001 201.668,206.086 201.650,205.929 201.484 C 205.810 201.357,205.247 201.209,204.679 201.154 C 203.840 201.073,203.783 201.086,204.375 201.220 M206.354 201.250 C 206.190 201.515,206.673 201.515,207.083 201.250 C 207.337 201.086,207.310 201.047,206.939 201.045 C 206.688 201.043,206.425 201.135,206.354 201.250 M202.934 201.536 C 202.982 201.578,203.490 201.667,204.063 201.734 C 204.765 201.815,204.935 201.796,204.583 201.677 C 204.063 201.500,202.770 201.389,202.934 201.536 M200.833 201.886 C 202.091 202.109,203.076 202.090,201.979 201.863 C 201.521 201.768,200.865 201.697,200.521 201.705 C 200.052 201.715,200.130 201.761,200.833 201.886 M206.563 202.083 C 206.492 202.198,206.574 202.292,206.746 202.292 C 206.918 202.292,207.117 202.198,207.188 202.083 C 207.258 201.969,207.176 201.875,207.004 201.875 C 206.832 201.875,206.633 201.969,206.563 202.083 M205.521 202.292 C 206.094 202.538,206.298 202.538,206.146 202.292 C 206.075 202.177,205.812 202.090,205.561 202.098 C 205.121 202.112,205.119 202.119,205.521 202.292 M199.948 202.442 C 200.320 202.489,200.930 202.489,201.302 202.442 C 201.674 202.396,201.370 202.358,200.625 202.358 C 199.880 202.358,199.576 202.396,199.948 202.442 M203.958 202.500 C 204.245 202.592,204.667 202.667,204.896 202.667 C 205.226 202.667,205.204 202.632,204.792 202.500 C 204.505 202.408,204.083 202.333,203.854 202.333 C 203.524 202.333,203.546 202.368,203.958 202.500 M194.150 202.983 C 194.258 203.091,194.496 203.074,194.720 202.943 C 195.057 202.746,195.034 202.724,194.535 202.759 C 194.204 202.782,194.043 202.876,194.150 202.983 M205.729 203.125 C 205.958 203.223,206.286 203.304,206.458 203.304 C 206.655 203.304,206.617 203.238,206.354 203.125 C 206.125 203.027,205.797 202.946,205.625 202.946 C 205.428 202.946,205.467 203.012,205.729 203.125 M204.644 203.292 C 204.465 203.405,204.525 203.535,204.852 203.739 C 205.264 203.995,205.284 203.991,205.043 203.700 C 204.823 203.433,204.823 203.354,205.043 203.266 C 205.191 203.206,205.219 203.152,205.104 203.145 C 204.990 203.137,204.782 203.203,204.644 203.292 M195.521 204.514 C 195.063 204.925,194.875 205.164,195.104 205.046 C 195.490 204.846,196.641 203.739,196.443 203.759 C 196.394 203.763,195.979 204.104,195.521 204.514 M205.521 203.958 C 205.450 204.073,205.591 204.167,205.833 204.167 C 206.076 204.167,206.217 204.073,206.146 203.958 C 206.075 203.844,205.934 203.750,205.833 203.750 C 205.732 203.750,205.592 203.844,205.521 203.958 M193.733 205.900 C 193.841 206.008,194.079 205.991,194.303 205.860 C 194.640 205.663,194.618 205.640,194.118 205.675 C 193.787 205.699,193.626 205.793,193.733 205.900 M193.509 206.925 C 193.603 207.019,193.906 207.004,194.183 206.891 C 194.658 206.697,194.648 206.687,194.013 206.720 C 193.642 206.739,193.415 206.832,193.509 206.925 M193.333 207.917 C 193.333 208.178,193.554 208.178,193.958 207.917 C 194.211 207.753,194.181 207.714,193.802 207.712 C 193.544 207.710,193.333 207.802,193.333 207.917 M206.667 208.522 C 206.667 208.695,207.521 209.007,207.648 208.880 C 207.682 208.846,207.475 208.711,207.188 208.580 C 206.901 208.449,206.667 208.423,206.667 208.522 M192.917 209.040 C 192.917 209.243,193.504 209.319,193.769 209.151 C 193.983 209.015,193.907 208.964,193.490 208.962 C 193.174 208.960,192.917 208.995,192.917 209.040 M194.167 209.376 C 193.926 209.532,193.983 209.570,194.412 209.537 C 194.719 209.514,194.924 209.421,194.869 209.331 C 194.736 209.116,194.549 209.128,194.167 209.376 M206.721 209.545 C 206.567 209.643,206.778 209.716,207.242 209.726 C 207.834 209.738,207.921 209.702,207.604 209.573 C 207.061 209.353,207.025 209.352,206.721 209.545 M205.299 210.885 L 204.688 211.563 205.365 210.951 C 205.737 210.614,206.042 210.309,206.042 210.274 C 206.042 210.113,205.870 210.254,205.299 210.885 M206.146 210.625 C 206.072 210.745,206.265 210.832,206.602 210.830 C 207.057 210.828,207.118 210.782,206.875 210.625 C 206.475 210.366,206.306 210.366,206.146 210.625 M197.067 211.128 C 196.759 211.464,196.978 211.847,197.307 211.548 C 197.528 211.349,197.708 211.169,197.708 211.148 C 197.708 211.112,197.100 211.093,197.067 211.128 M194.002 211.427 C 193.829 211.536,193.963 211.597,194.375 211.597 C 194.787 211.597,194.921 211.536,194.748 211.427 C 194.600 211.333,194.432 211.256,194.375 211.256 C 194.318 211.256,194.150 211.333,194.002 211.427 M204.688 212.500 C 204.611 212.623,204.841 212.707,205.248 212.705 C 205.770 212.703,205.862 212.653,205.625 212.500 C 205.220 212.238,204.849 212.238,204.688 212.500 M194.175 212.699 C 193.954 212.839,194.051 212.886,194.532 212.872 C 194.896 212.862,195.145 212.774,195.085 212.677 C 194.943 212.447,194.558 212.457,194.175 212.699 M195.677 213.685 C 195.878 213.738,196.206 213.738,196.406 213.685 C 196.607 213.633,196.443 213.590,196.042 213.590 C 195.641 213.590,195.477 213.633,195.677 213.685 M199.010 213.904 C 199.669 213.945,200.747 213.945,201.406 213.904 C 202.065 213.863,201.526 213.829,200.208 213.829 C 198.891 213.829,198.352 213.863,199.010 213.904 M202.344 214.519 C 202.544 214.571,202.872 214.571,203.073 214.519 C 203.273 214.466,203.109 214.423,202.708 214.423 C 202.307 214.423,202.143 214.466,202.344 214.519 M207.604 214.560 C 207.260 214.635,207.073 214.756,207.189 214.829 C 207.468 215.006,208.542 214.792,208.542 214.559 C 208.542 214.359,208.527 214.359,207.604 214.560 M198.594 214.733 C 198.909 214.780,199.424 214.780,199.740 214.733 C 200.055 214.685,199.797 214.646,199.167 214.646 C 198.536 214.646,198.279 214.685,198.594 214.733 M190.900 216.042 C 190.900 216.786,190.938 217.091,190.984 216.719 C 191.030 216.346,191.030 215.737,190.984 215.365 C 190.938 214.992,190.900 215.297,190.900 216.042 M206.042 215.000 C 206.214 215.111,206.495 215.202,206.667 215.202 C 206.944 215.202,206.944 215.180,206.667 215.000 C 206.495 214.889,206.214 214.798,206.042 214.798 C 205.764 214.798,205.764 214.820,206.042 215.000 M211.098 215.625 C 211.098 216.141,211.139 216.352,211.189 216.094 C 211.238 215.836,211.238 215.414,211.189 215.156 C 211.139 214.898,211.098 215.109,211.098 215.625 M193.125 215.208 C 193.125 215.453,193.285 215.453,193.854 215.208 C 194.223 215.050,194.206 215.028,193.698 215.015 C 193.383 215.007,193.125 215.094,193.125 215.208 M204.583 215.208 C 204.870 215.300,205.292 215.378,205.521 215.381 L 205.938 215.387 205.521 215.208 C 205.292 215.110,204.870 215.032,204.583 215.035 L 204.063 215.042 204.583 215.208 M194.479 215.417 C 194.077 215.589,194.079 215.596,194.519 215.610 C 194.770 215.618,195.033 215.531,195.104 215.417 C 195.256 215.170,195.053 215.170,194.479 215.417 M200.208 215.417 C 200.208 215.543,201.008 215.616,202.240 215.601 C 203.885 215.582,204.113 215.544,203.438 215.405 C 202.257 215.161,200.208 215.168,200.208 215.417 M207.708 215.393 C 207.307 215.465,207.073 215.585,207.189 215.659 C 207.466 215.839,208.542 215.627,208.542 215.392 C 208.542 215.291,208.518 215.221,208.490 215.236 C 208.461 215.251,208.109 215.322,207.708 215.393 M210.268 216.146 C 210.269 216.719,210.310 216.928,210.358 216.612 C 210.406 216.295,210.404 215.826,210.355 215.570 C 210.306 215.314,210.266 215.573,210.268 216.146 M206.146 215.833 C 206.719 216.080,206.923 216.080,206.771 215.833 C 206.700 215.719,206.437 215.632,206.186 215.640 C 205.746 215.654,205.744 215.661,206.146 215.833 M192.986 216.076 C 193.157 216.172,193.516 216.163,193.784 216.057 C 194.207 215.890,194.165 215.867,193.473 215.883 C 192.929 215.896,192.774 215.958,192.986 216.076 M204.792 216.042 C 205.504 216.270,206.052 216.270,205.521 216.042 C 205.292 215.943,204.917 215.865,204.688 215.869 C 204.353 215.874,204.373 215.908,204.792 216.042 M200.313 216.250 C 200.542 216.348,201.526 216.425,202.500 216.419 C 203.738 216.412,204.083 216.361,203.646 216.250 C 202.751 216.022,199.783 216.022,200.313 216.250 M207.917 216.435 C 207.516 216.507,207.282 216.626,207.397 216.701 C 207.675 216.881,208.750 216.669,208.750 216.434 C 208.750 216.333,208.727 216.262,208.698 216.277 C 208.669 216.293,208.318 216.363,207.917 216.435 M206.250 216.875 C 206.660 217.140,207.143 217.140,206.979 216.875 C 206.908 216.760,206.645 216.668,206.394 216.670 C 206.023 216.672,205.996 216.711,206.250 216.875 M192.840 217.090 C 192.982 217.232,193.225 217.236,193.558 217.103 C 194.032 216.914,194.019 216.901,193.344 216.888 C 192.850 216.879,192.692 216.942,192.840 217.090 M204.792 217.083 C 205.078 217.175,205.500 217.253,205.729 217.256 L 206.146 217.262 205.729 217.083 C 205.500 216.985,205.078 216.907,204.792 216.910 L 204.271 216.917 204.792 217.083 M194.271 217.292 C 193.902 217.450,193.919 217.472,194.427 217.485 C 194.742 217.493,195.000 217.406,195.000 217.292 C 195.000 217.047,194.840 217.047,194.271 217.292 M200.208 217.271 C 200.208 217.374,201.169 217.453,202.344 217.447 C 203.688 217.439,204.248 217.379,203.854 217.284 C 202.937 217.062,200.208 217.052,200.208 217.271 M207.813 217.708 C 207.649 217.974,208.131 217.974,208.542 217.708 C 208.796 217.544,208.769 217.506,208.398 217.503 C 208.147 217.501,207.883 217.594,207.813 217.708 M192.667 217.958 C 192.861 218.153,192.972 218.153,193.167 217.958 C 193.361 217.764,193.306 217.708,192.917 217.708 C 192.528 217.708,192.472 217.764,192.667 217.958 M206.875 217.917 C 207.279 218.178,207.500 218.178,207.500 217.917 C 207.500 217.802,207.289 217.710,207.031 217.712 C 206.652 217.714,206.622 217.753,206.875 217.917 M204.809 217.993 C 204.857 218.035,205.271 218.133,205.729 218.209 C 206.326 218.309,206.474 218.288,206.250 218.136 C 205.969 217.944,204.600 217.809,204.809 217.993 M200.729 218.341 C 201.568 218.519,204.936 218.615,204.774 218.457 C 204.727 218.410,203.609 218.325,202.292 218.268 C 200.712 218.199,200.180 218.224,200.729 218.341 M208.683 218.469 C 208.609 218.544,208.252 218.597,207.891 218.587 C 207.477 218.575,207.308 218.641,207.432 218.766 C 207.663 218.997,208.958 218.784,208.958 218.516 C 208.958 218.299,208.869 218.284,208.683 218.469 M205.833 218.958 C 206.636 219.215,207.065 219.215,206.667 218.958 C 206.495 218.847,206.120 218.764,205.833 218.774 L 205.313 218.792 205.833 218.958 M193.854 219.161 C 193.536 219.293,193.616 219.326,194.198 219.302 C 194.616 219.285,194.915 219.201,194.862 219.115 C 194.744 218.920,194.395 218.936,193.854 219.161 M199.684 219.162 C 199.757 219.279,200.201 219.375,200.672 219.375 C 201.724 219.375,201.644 219.269,200.453 219.087 C 199.860 218.996,199.598 219.021,199.684 219.162 M203.542 219.177 C 204.814 219.404,205.797 219.396,204.896 219.167 C 204.552 219.079,203.896 219.008,203.438 219.009 L 202.604 219.010 203.542 219.177 M208.021 219.353 C 207.491 219.434,207.306 219.529,207.513 219.615 C 207.925 219.784,208.958 219.595,208.958 219.351 C 208.958 219.249,208.935 219.180,208.906 219.196 C 208.878 219.212,208.479 219.283,208.021 219.353 M206.146 219.792 C 206.769 220.059,207.289 220.059,206.875 219.792 C 206.703 219.681,206.375 219.595,206.146 219.601 L 205.729 219.613 206.146 219.792 M193.070 220.020 C 193.310 220.109,193.772 220.106,194.097 220.014 C 194.593 219.873,194.524 219.847,193.660 219.852 C 192.932 219.857,192.760 219.906,193.070 220.020 M203.767 219.869 C 203.815 219.912,204.323 220.001,204.896 220.067 C 205.598 220.148,205.768 220.130,205.417 220.010 C 204.896 219.833,203.603 219.723,203.767 219.869 M200.367 220.147 C 200.626 220.197,201.001 220.195,201.200 220.143 C 201.400 220.091,201.188 220.050,200.729 220.053 C 200.271 220.055,200.108 220.098,200.367 220.147 M202.138 220.358 C 202.455 220.406,202.924 220.404,203.180 220.355 C 203.436 220.306,203.177 220.266,202.604 220.268 C 202.031 220.269,201.822 220.310,202.138 220.358 M190.690 221.563 C 190.691 222.250,190.730 222.506,190.776 222.132 C 190.822 221.757,190.821 221.195,190.774 220.882 C 190.726 220.569,190.688 220.875,190.690 221.563 M207.648 220.648 C 207.813 220.813,208.052 220.818,208.471 220.665 C 209.056 220.452,209.053 220.449,208.240 220.433 C 207.635 220.421,207.478 220.478,207.648 220.648 M211.329 222.708 C 211.329 224.026,211.363 224.565,211.404 223.906 C 211.445 223.247,211.445 222.169,211.404 221.510 C 211.363 220.852,211.329 221.391,211.329 222.708 M192.667 220.875 C 192.861 221.069,192.972 221.069,193.167 220.875 C 193.361 220.681,193.306 220.625,192.917 220.625 C 192.528 220.625,192.472 220.681,192.667 220.875 M206.354 220.833 C 206.977 221.101,207.497 221.101,207.083 220.833 C 206.911 220.722,206.583 220.637,206.354 220.643 L 205.938 220.654 206.354 220.833 M193.770 221.025 C 193.569 221.152,193.713 221.204,194.225 221.189 C 194.637 221.178,194.927 221.093,194.871 221.001 C 194.734 220.780,194.137 220.793,193.770 221.025 M200.208 221.047 C 200.208 221.159,200.552 221.250,200.972 221.250 C 201.865 221.250,201.835 221.153,200.885 220.973 C 200.496 220.899,200.208 220.930,200.208 221.047 M203.559 220.909 C 203.607 220.951,204.161 221.039,204.792 221.104 C 205.531 221.180,205.753 221.161,205.417 221.049 C 204.900 220.876,203.392 220.763,203.559 220.909 M208.229 221.450 C 207.654 221.547,207.498 221.638,207.724 221.741 C 208.039 221.886,209.167 221.587,209.167 221.359 C 209.167 221.299,209.143 221.263,209.115 221.280 C 209.086 221.296,208.688 221.373,208.229 221.450 M206.354 221.875 C 206.977 222.143,207.497 222.143,207.083 221.875 C 206.911 221.764,206.583 221.678,206.354 221.684 L 205.938 221.696 206.354 221.875 M193.796 222.050 C 193.632 222.154,193.804 222.213,194.244 222.203 C 194.637 222.195,194.916 222.117,194.863 222.031 C 194.737 221.826,194.133 221.837,193.796 222.050 M200.208 222.089 C 200.208 222.200,200.552 222.292,200.972 222.292 C 201.865 222.292,201.835 222.195,200.885 222.014 C 200.496 221.940,200.208 221.972,200.208 222.089 M203.351 221.953 C 203.398 221.996,204.000 222.085,204.688 222.151 C 205.497 222.229,205.754 222.209,205.417 222.094 C 204.903 221.919,203.182 221.801,203.351 221.953 M208.333 222.500 C 208.056 222.680,208.056 222.702,208.333 222.702 C 208.505 222.702,208.786 222.611,208.958 222.500 C 209.236 222.320,209.236 222.298,208.958 222.298 C 208.786 222.298,208.505 222.389,208.333 222.500 M207.292 222.708 C 207.696 222.969,207.917 222.969,207.917 222.708 C 207.917 222.594,207.706 222.501,207.448 222.503 C 207.069 222.506,207.039 222.545,207.292 222.708 M210.479 223.542 C 210.479 224.172,210.518 224.430,210.566 224.115 C 210.614 223.799,210.614 223.284,210.566 222.969 C 210.518 222.654,210.479 222.911,210.479 223.542 M205.938 222.917 C 206.560 223.184,207.081 223.184,206.667 222.917 C 206.495 222.806,206.167 222.720,205.938 222.726 L 205.521 222.738 205.938 222.917 M193.018 223.178 C 193.186 223.271,193.630 223.260,194.005 223.152 C 194.659 222.965,194.646 222.958,193.700 222.982 C 193.068 222.998,192.823 223.068,193.018 223.178 M203.559 222.994 C 203.607 223.037,204.115 223.126,204.688 223.192 C 205.390 223.273,205.560 223.255,205.208 223.135 C 204.688 222.958,203.395 222.848,203.559 222.994 M200.226 223.200 C 200.273 223.241,200.922 223.326,201.667 223.389 C 202.479 223.457,202.813 223.435,202.500 223.334 C 201.986 223.169,200.058 223.055,200.226 223.200 M208.381 223.484 C 208.007 223.531,207.755 223.657,207.821 223.764 C 207.953 223.978,208.943 223.806,209.260 223.515 C 209.385 223.400,209.385 223.346,209.260 223.367 C 209.152 223.385,208.756 223.438,208.381 223.484 M206.563 223.958 C 207.185 224.226,207.706 224.226,207.292 223.958 C 207.120 223.847,206.792 223.762,206.563 223.768 L 206.146 223.779 206.563 223.958 M192.934 224.164 C 193.129 224.278,193.514 224.283,193.872 224.176 C 194.433 224.008,194.407 223.993,193.542 223.983 C 192.871 223.974,192.698 224.026,192.934 224.164 M204.688 224.167 C 205.031 224.254,205.500 224.330,205.729 224.336 L 206.146 224.346 205.729 224.167 C 205.500 224.068,205.031 223.992,204.688 223.998 L 204.063 224.008 204.688 224.167 M201.146 224.382 C 201.971 224.558,204.108 224.653,203.941 224.508 C 203.893 224.466,203.057 224.381,202.083 224.319 C 200.847 224.240,200.564 224.259,201.146 224.382 M208.333 224.792 C 208.075 224.959,208.092 224.994,208.438 224.994 C 208.667 224.994,208.995 224.903,209.167 224.792 C 209.425 224.624,209.408 224.590,209.063 224.590 C 208.833 224.590,208.505 224.681,208.333 224.792 " stroke="none" fill="#949494" fill-rule="evenodd"></path><path id="path4" d="M209.958 76.405 C 210.909 76.444,212.409 76.444,213.291 76.405 C 214.174 76.366,213.396 76.334,211.563 76.334 C 209.729 76.335,209.007 76.366,209.958 76.405 M226.105 76.406 C 227.343 76.442,229.312 76.442,230.480 76.405 C 231.648 76.368,230.635 76.338,228.229 76.338 C 225.823 76.338,224.867 76.369,226.105 76.406 M238.429 76.510 C 238.375 76.654,238.354 83.849,238.384 92.500 L 238.438 108.229 248.906 108.232 L 259.375 108.235 248.958 108.178 L 238.542 108.121 238.542 92.292 L 238.542 76.462 249.219 76.406 L 259.896 76.350 249.212 76.300 C 240.820 76.261,238.507 76.306,238.429 76.510 M270.573 76.406 C 273.924 76.438,279.409 76.438,282.760 76.406 C 286.112 76.374,283.370 76.348,276.667 76.348 C 269.964 76.348,267.221 76.374,270.573 76.406 M153.597 82.441 C 153.913 82.489,154.382 82.488,154.638 82.438 C 154.895 82.389,154.635 82.350,154.063 82.351 C 153.490 82.353,153.280 82.393,153.597 82.441 M244.874 85.729 C 244.874 87.333,244.907 87.962,244.947 87.126 C 244.986 86.291,244.986 84.978,244.946 84.210 C 244.906 83.441,244.874 84.125,244.874 85.729 M137.557 92.292 C 137.557 92.807,137.597 93.018,137.647 92.760 C 137.697 92.503,137.697 92.081,137.647 91.823 C 137.597 91.565,137.557 91.776,137.557 92.292 M129.883 92.760 L 129.271 93.438 129.948 92.826 C 130.320 92.489,130.625 92.184,130.625 92.149 C 130.625 91.988,130.453 92.129,129.883 92.760 M215.930 94.844 L 214.896 95.938 215.990 94.904 C 216.591 94.335,217.083 93.843,217.083 93.810 C 217.083 93.654,216.890 93.827,215.930 94.844 M244.888 98.333 L 244.896 101.771 252.188 101.775 L 259.479 101.779 252.245 101.720 L 245.010 101.661 244.945 98.279 L 244.879 94.896 244.888 98.333 M141.875 103.399 C 141.875 103.434,142.180 103.739,142.552 104.076 L 143.229 104.688 142.617 104.010 C 142.047 103.379,141.875 103.238,141.875 103.399 M128.490 108.280 C 129.435 108.319,130.982 108.319,131.927 108.280 C 132.872 108.241,132.099 108.210,130.208 108.210 C 128.318 108.210,127.544 108.241,128.490 108.280 M275.052 108.280 C 275.940 108.319,277.393 108.319,278.281 108.280 C 279.169 108.241,278.443 108.209,276.667 108.209 C 274.891 108.209,274.164 108.241,275.052 108.280 M168.673 116.831 C 168.617 116.922,168.916 116.964,169.338 116.924 C 170.626 116.802,170.778 116.716,169.752 116.691 C 169.214 116.678,168.729 116.741,168.673 116.831 M190.791 116.822 C 191.742 116.861,193.242 116.860,194.124 116.821 C 195.007 116.782,194.229 116.751,192.396 116.751 C 190.563 116.751,189.840 116.783,190.791 116.822 M207.389 116.922 C 207.333 117.068,207.313 121.641,207.344 127.083 L 207.400 136.979 207.450 126.927 L 207.500 116.875 210.623 116.875 L 213.746 116.875 213.803 126.823 L 213.860 136.771 213.857 126.771 L 213.854 116.771 210.673 116.713 C 208.242 116.669,207.467 116.719,207.389 116.922 M256.719 116.823 C 259.669 116.855,264.497 116.855,267.448 116.823 C 270.398 116.790,267.984 116.763,262.083 116.763 C 256.182 116.763,253.768 116.790,256.719 116.823 M223.542 121.146 C 223.036 121.661,222.668 122.083,222.726 122.083 C 222.783 122.083,223.244 121.661,223.750 121.146 C 224.256 120.630,224.623 120.208,224.566 120.208 C 224.509 120.208,224.048 120.630,223.542 121.146 M228.633 125.885 L 228.021 126.563 228.698 125.951 C 229.329 125.380,229.471 125.208,229.310 125.208 C 229.274 125.208,228.969 125.513,228.633 125.885 M270.084 132.188 C 270.085 134.021,270.116 134.743,270.155 133.792 C 270.194 132.841,270.194 131.341,270.155 130.459 C 270.116 129.576,270.084 130.354,270.084 132.188 M130.208 131.315 C 130.208 131.351,130.513 131.656,130.885 131.992 L 131.563 132.604 130.951 131.927 C 130.380 131.296,130.208 131.154,130.208 131.315 M218.803 131.979 C 218.805 132.438,218.848 132.600,218.897 132.341 C 218.947 132.082,218.945 131.707,218.893 131.508 C 218.841 131.309,218.800 131.521,218.803 131.979 M218.803 133.646 C 218.805 134.104,218.848 134.267,218.897 134.008 C 218.947 133.749,218.945 133.374,218.893 133.175 C 218.841 132.975,218.800 133.188,218.803 133.646 M129.989 139.948 L 129.271 140.729 130.052 140.011 C 130.482 139.616,130.833 139.265,130.833 139.230 C 130.833 139.071,130.657 139.221,129.989 139.948 M261.510 142.239 C 263.544 142.273,266.872 142.273,268.906 142.239 C 270.940 142.205,269.276 142.177,265.208 142.177 C 261.141 142.177,259.477 142.205,261.510 142.239 M138.490 142.855 C 138.747 142.905,139.169 142.905,139.427 142.855 C 139.685 142.806,139.474 142.765,138.958 142.765 C 138.443 142.765,138.232 142.806,138.490 142.855 M126.250 143.815 C 126.250 143.851,126.555 144.156,126.927 144.492 L 127.604 145.104 126.992 144.427 C 126.422 143.796,126.250 143.654,126.250 143.815 M192.292 145.065 C 192.292 145.101,192.596 145.406,192.969 145.742 L 193.646 146.354 193.034 145.677 C 192.464 145.046,192.292 144.904,192.292 145.065 M210.091 145.677 L 209.479 146.354 210.156 145.742 C 210.529 145.406,210.833 145.101,210.833 145.065 C 210.833 144.904,210.661 145.046,210.091 145.677 M152.682 148.599 C 152.771 148.688,154.430 148.734,156.370 148.703 L 159.896 148.645 156.208 148.541 C 154.179 148.484,152.593 148.510,152.682 148.599 M180.479 148.697 C 181.487 148.735,183.081 148.735,184.021 148.696 C 184.960 148.658,184.135 148.627,182.188 148.627 C 180.240 148.627,179.471 148.659,180.479 148.697 M256.733 148.698 C 259.692 148.730,264.473 148.730,267.358 148.698 C 270.244 148.665,267.823 148.638,261.979 148.638 C 256.135 148.638,253.775 148.665,256.733 148.698 M203.076 188.689 C 203.348 188.741,203.489 188.875,203.408 189.005 C 203.325 189.141,203.366 189.171,203.513 189.080 C 203.872 188.858,203.587 188.537,203.061 188.570 C 202.608 188.598,202.608 188.599,203.076 188.689 M203.750 190.985 C 203.922 191.051,204.131 191.207,204.216 191.333 C 204.310 191.475,204.370 191.423,204.372 191.198 C 204.374 190.953,204.221 190.839,203.906 190.850 C 203.593 190.861,203.541 190.906,203.750 190.985 M201.857 191.524 C 201.951 191.618,202.392 191.663,202.837 191.624 L 203.646 191.554 202.666 191.453 C 202.127 191.398,201.763 191.430,201.857 191.524 M201.806 192.222 C 201.484 192.543,201.715 192.706,202.448 192.675 L 203.229 192.642 202.514 192.555 C 201.987 192.491,201.877 192.418,202.097 192.279 C 202.261 192.175,202.294 192.088,202.170 192.087 C 202.046 192.085,201.882 192.146,201.806 192.222 M195.885 194.427 C 195.993 194.750,196.667 194.903,196.667 194.605 C 196.667 194.486,196.511 194.448,196.320 194.521 C 196.087 194.611,196.023 194.574,196.124 194.410 C 196.207 194.276,196.167 194.167,196.037 194.167 C 195.906 194.167,195.838 194.284,195.885 194.427 M202.726 194.660 C 202.773 194.702,203.188 194.799,203.646 194.876 C 204.243 194.976,204.391 194.955,204.167 194.803 C 203.886 194.611,202.517 194.476,202.726 194.660 M205.707 196.804 C 206.030 196.896,206.049 196.954,205.811 197.120 C 205.592 197.274,205.588 197.306,205.797 197.250 C 206.201 197.143,206.125 196.777,205.688 196.731 C 205.368 196.696,205.371 196.707,205.707 196.804 M200.839 198.534 C 200.400 198.811,200.990 199.015,201.907 198.902 C 202.587 198.819,202.584 198.815,201.771 198.769 C 201.100 198.730,201.019 198.686,201.354 198.542 C 201.629 198.424,201.664 198.359,201.458 198.351 C 201.286 198.345,201.008 198.427,200.839 198.534 M200.208 199.822 C 200.208 199.920,200.794 199.993,201.510 199.984 C 202.990 199.965,202.908 199.867,201.302 199.735 C 200.701 199.685,200.208 199.724,200.208 199.822 M205.729 201.042 C 205.153 201.188,205.145 201.202,205.625 201.222 C 205.911 201.234,206.286 201.153,206.458 201.042 C 206.813 200.813,206.630 200.813,205.729 201.042 M201.018 201.343 C 200.967 201.394,200.529 201.459,200.046 201.488 C 199.562 201.516,199.167 201.609,199.167 201.695 C 199.167 201.893,201.018 202.176,201.190 202.004 C 201.261 201.933,200.999 201.862,200.608 201.845 C 200.216 201.829,200.880 201.701,202.083 201.563 L 204.271 201.310 202.691 201.280 C 201.822 201.263,201.069 201.292,201.018 201.343 M202.934 201.951 C 202.982 201.992,203.438 202.079,203.948 202.145 C 204.547 202.221,204.768 202.196,204.573 202.072 C 204.294 201.896,202.739 201.781,202.934 201.951 M199.973 203.490 C 199.725 203.807,199.728 203.823,200.000 203.616 C 200.172 203.485,200.500 203.332,200.729 203.276 C 201.125 203.178,201.124 203.172,200.703 203.149 C 200.459 203.136,200.131 203.289,199.973 203.490 M206.771 203.333 C 206.842 203.448,207.105 203.535,207.356 203.527 C 207.796 203.513,207.798 203.506,207.396 203.333 C 206.822 203.087,206.619 203.087,206.771 203.333 M205.017 203.408 C 205.263 203.620,206.272 203.746,206.151 203.550 C 206.077 203.431,205.773 203.333,205.474 203.333 C 205.175 203.333,204.970 203.367,205.017 203.408 M206.667 204.167 C 206.839 204.278,207.120 204.369,207.292 204.369 C 207.569 204.369,207.569 204.346,207.292 204.167 C 207.120 204.056,206.839 203.965,206.667 203.965 C 206.389 203.965,206.389 203.987,206.667 204.167 M206.363 204.986 C 206.297 205.092,206.353 205.247,206.487 205.330 C 206.644 205.427,206.675 205.390,206.574 205.227 C 206.457 205.038,206.621 205.002,207.219 205.086 C 207.844 205.174,207.906 205.159,207.500 205.016 C 206.786 204.765,206.504 204.758,206.363 204.986 M206.875 205.813 C 207.047 205.935,207.357 206.037,207.564 206.038 C 207.796 206.040,207.884 206.135,207.793 206.282 C 207.697 206.437,207.736 206.466,207.903 206.363 C 208.246 206.151,207.957 205.894,207.188 205.727 C 206.714 205.624,206.638 205.645,206.875 205.813 M206.979 209.167 C 207.553 209.413,207.756 209.413,207.604 209.167 C 207.533 209.052,207.270 208.965,207.019 208.973 C 206.579 208.987,206.577 208.994,206.979 209.167 M206.179 209.948 C 206.126 210.034,206.491 210.106,206.988 210.109 C 207.486 210.112,207.782 210.043,207.645 209.956 C 207.323 209.751,206.303 209.746,206.179 209.948 M204.914 211.648 C 205.019 211.744,205.526 211.875,206.042 211.939 C 206.557 212.003,206.839 211.981,206.667 211.890 C 206.218 211.651,204.687 211.440,204.914 211.648 M191.250 212.175 C 191.250 212.455,191.327 212.731,191.421 212.789 C 191.514 212.847,191.551 212.618,191.501 212.281 C 191.392 211.536,191.250 211.477,191.250 212.175 M195.084 212.676 C 195.179 212.830,195.059 212.925,194.752 212.941 C 194.365 212.960,194.347 212.984,194.658 213.065 C 195.142 213.189,195.562 212.822,195.194 212.595 C 195.028 212.492,194.988 212.521,195.084 212.676 M196.927 214.727 C 197.128 214.779,197.456 214.779,197.656 214.727 C 197.857 214.675,197.693 214.632,197.292 214.632 C 196.891 214.632,196.727 214.675,196.927 214.727 M200.677 214.733 C 200.992 214.780,201.508 214.780,201.823 214.733 C 202.138 214.685,201.880 214.646,201.250 214.646 C 200.620 214.646,200.362 214.685,200.677 214.733 M199.167 215.407 C 199.339 215.523,199.659 215.620,199.878 215.622 C 200.411 215.626,200.245 215.507,199.479 215.335 C 199.023 215.233,198.938 215.253,199.167 215.407 M206.146 215.417 C 206.375 215.515,206.703 215.596,206.875 215.596 C 207.072 215.596,207.033 215.530,206.771 215.417 C 206.542 215.318,206.214 215.238,206.042 215.238 C 205.845 215.238,205.883 215.304,206.146 215.417 M192.969 215.564 C 192.460 215.662,192.358 215.930,192.741 216.166 C 192.890 216.258,192.924 216.223,192.832 216.074 C 192.741 215.926,192.829 215.832,193.061 215.830 C 193.268 215.828,193.578 215.736,193.750 215.625 C 194.100 215.399,193.905 215.383,192.969 215.564 M204.184 215.491 C 204.232 215.532,204.599 215.625,205.000 215.699 C 205.513 215.793,205.637 215.772,205.417 215.628 C 205.134 215.443,203.977 215.314,204.184 215.491 M198.750 216.018 C 198.750 216.232,200.193 216.544,200.369 216.368 C 200.433 216.303,200.277 216.250,200.022 216.250 C 199.766 216.250,199.616 216.157,199.688 216.042 C 199.761 215.924,199.585 215.833,199.283 215.833 C 198.990 215.833,198.750 215.917,198.750 216.018 M198.750 217.059 C 198.750 217.160,198.961 217.300,199.219 217.369 C 200.017 217.583,200.130 217.511,199.507 217.186 C 198.812 216.823,198.750 216.813,198.750 217.059 M210.268 218.021 C 210.269 218.594,210.310 218.803,210.358 218.487 C 210.406 218.170,210.404 217.701,210.355 217.445 C 210.306 217.189,210.266 217.448,210.268 218.021 M190.886 218.021 C 190.888 218.479,190.931 218.642,190.981 218.383 C 191.031 218.124,191.029 217.749,190.976 217.550 C 190.924 217.350,190.884 217.563,190.886 218.021 M198.958 218.101 C 198.958 218.314,200.810 218.634,200.991 218.453 C 201.057 218.387,200.838 218.319,200.503 218.302 C 200.056 218.279,200.143 218.232,200.833 218.125 C 201.724 217.986,201.701 217.978,200.365 217.948 C 199.591 217.931,198.958 218.000,198.958 218.101 M202.763 218.066 C 203.080 218.114,203.549 218.113,203.805 218.063 C 204.061 218.014,203.802 217.975,203.229 217.976 C 202.656 217.978,202.447 218.018,202.763 218.066 M211.312 219.167 C 211.312 219.797,211.351 220.055,211.399 219.740 C 211.447 219.424,211.447 218.909,211.399 218.594 C 211.351 218.279,211.312 218.536,211.312 219.167 M194.010 218.477 C 194.211 218.529,194.539 218.529,194.740 218.477 C 194.940 218.425,194.776 218.382,194.375 218.382 C 193.974 218.382,193.810 218.425,194.010 218.477 M198.542 218.949 C 198.542 219.154,199.349 219.471,199.496 219.324 C 199.545 219.275,199.350 219.127,199.063 218.997 C 198.776 218.866,198.542 218.844,198.542 218.949 M194.876 219.134 C 194.971 219.288,194.851 219.384,194.544 219.399 C 194.157 219.419,194.138 219.443,194.449 219.523 C 194.934 219.648,195.353 219.281,194.986 219.054 C 194.819 218.951,194.780 218.979,194.876 219.134 M201.510 219.528 C 202.055 219.571,202.945 219.571,203.490 219.528 C 204.034 219.485,203.589 219.450,202.500 219.450 C 201.411 219.450,200.966 219.485,201.510 219.528 M198.958 220.000 C 198.958 220.115,199.146 220.208,199.375 220.208 C 199.604 220.208,199.792 220.115,199.792 220.000 C 199.792 219.885,199.604 219.792,199.375 219.792 C 199.146 219.792,198.958 219.885,198.958 220.000 M200.885 219.943 C 201.315 219.988,202.018 219.988,202.448 219.943 C 202.878 219.898,202.526 219.862,201.667 219.862 C 200.807 219.862,200.456 219.898,200.885 219.943 M194.117 220.356 C 194.376 220.406,194.751 220.404,194.950 220.351 C 195.150 220.299,194.938 220.259,194.479 220.261 C 194.021 220.263,193.858 220.306,194.117 220.356 M200.469 220.352 C 200.669 220.404,200.997 220.404,201.198 220.352 C 201.398 220.300,201.234 220.257,200.833 220.257 C 200.432 220.257,200.268 220.300,200.469 220.352 M204.010 220.352 C 204.211 220.404,204.539 220.404,204.740 220.352 C 204.940 220.300,204.776 220.257,204.375 220.257 C 203.974 220.257,203.810 220.300,204.010 220.352 M198.958 220.833 C 198.958 220.948,199.044 221.042,199.150 221.042 C 199.255 221.042,199.513 221.101,199.723 221.174 C 200.058 221.290,200.054 221.266,199.688 220.972 C 199.205 220.585,198.958 220.538,198.958 220.833 M194.876 221.009 C 194.974 221.168,194.824 221.260,194.439 221.278 C 193.913 221.304,193.903 221.316,194.347 221.400 C 194.924 221.510,195.380 221.173,194.986 220.929 C 194.819 220.826,194.780 220.854,194.876 221.009 M202.038 221.404 C 202.644 221.446,203.581 221.446,204.122 221.403 C 204.662 221.360,204.167 221.326,203.021 221.326 C 201.875 221.327,201.433 221.362,202.038 221.404 M198.958 221.875 C 198.958 221.990,199.044 222.083,199.150 222.083 C 199.255 222.083,199.489 222.140,199.670 222.210 C 199.855 222.281,200.000 222.229,200.000 222.093 C 200.000 221.960,199.913 221.904,199.806 221.970 C 199.699 222.036,199.553 221.995,199.481 221.878 C 199.313 221.606,198.958 221.604,198.958 221.875 M194.887 222.069 C 194.953 222.176,194.795 222.302,194.535 222.350 C 194.095 222.430,194.097 222.435,194.567 222.416 C 195.058 222.396,195.480 221.875,195.005 221.875 C 194.874 221.875,194.821 221.962,194.887 222.069 M202.038 222.446 C 202.644 222.488,203.581 222.487,204.122 222.445 C 204.662 222.402,204.167 222.367,203.021 222.368 C 201.875 222.368,201.433 222.403,202.038 222.446 M190.673 223.542 C 190.673 223.943,190.716 224.107,190.769 223.906 C 190.821 223.706,190.821 223.378,190.769 223.177 C 190.716 222.977,190.673 223.141,190.673 223.542 M199.167 223.125 C 199.167 223.240,199.360 223.333,199.596 223.333 C 199.832 223.333,199.967 223.240,199.896 223.125 C 199.825 223.010,199.632 222.917,199.467 222.917 C 199.302 222.917,199.167 223.010,199.167 223.125 M200.993 223.068 C 201.368 223.114,201.930 223.113,202.243 223.066 C 202.556 223.018,202.250 222.980,201.563 222.981 C 200.875 222.982,200.619 223.021,200.993 223.068 M193.906 223.480 C 194.164 223.530,194.586 223.530,194.844 223.480 C 195.102 223.431,194.891 223.390,194.375 223.390 C 193.859 223.390,193.648 223.431,193.906 223.480 M200.784 223.481 C 201.043 223.531,201.418 223.529,201.617 223.476 C 201.816 223.424,201.604 223.384,201.146 223.386 C 200.688 223.388,200.525 223.431,200.784 223.481 M203.490 223.480 C 203.747 223.530,204.169 223.530,204.427 223.480 C 204.685 223.431,204.474 223.390,203.958 223.390 C 203.443 223.390,203.232 223.431,203.490 223.480 M192.500 223.946 C 192.500 224.054,192.608 224.209,192.741 224.291 C 192.884 224.379,192.925 224.348,192.842 224.215 C 192.766 224.091,192.868 223.947,193.070 223.894 C 193.350 223.821,193.325 223.793,192.969 223.774 C 192.711 223.761,192.500 223.838,192.500 223.946 M199.167 224.167 C 199.167 224.281,199.360 224.375,199.596 224.375 C 199.832 224.375,199.967 224.281,199.896 224.167 C 199.825 224.052,199.632 223.958,199.467 223.958 C 199.302 223.958,199.167 224.052,199.167 224.167 M200.990 224.111 C 201.477 224.155,202.273 224.155,202.760 224.111 C 203.247 224.067,202.849 224.031,201.875 224.031 C 200.901 224.031,200.503 224.067,200.990 224.111 M204.427 224.519 C 204.628 224.571,204.956 224.571,205.156 224.519 C 205.357 224.466,205.193 224.423,204.792 224.423 C 204.391 224.423,204.227 224.466,204.427 224.519 " stroke="none" fill="#7b7373" fill-rule="evenodd"></path><path id="path5" d="M259.667 79.583 C 259.667 81.359,259.699 82.086,259.738 81.198 C 259.777 80.310,259.777 78.857,259.738 77.969 C 259.699 77.081,259.667 77.807,259.667 79.583 M279.890 95.521 C 279.890 102.510,279.916 105.340,279.948 101.808 C 279.980 98.276,279.980 92.557,279.948 89.100 C 279.916 85.642,279.890 88.531,279.890 95.521 M200.469 200.360 C 200.898 200.405,201.602 200.405,202.031 200.360 C 202.461 200.315,202.109 200.278,201.250 200.278 C 200.391 200.278,200.039 200.315,200.469 200.360 M200.781 219.109 C 201.154 219.155,201.763 219.155,202.135 219.109 C 202.508 219.063,202.203 219.025,201.458 219.025 C 200.714 219.025,200.409 219.063,200.781 219.109 M201.302 220.985 C 201.732 221.030,202.435 221.030,202.865 220.985 C 203.294 220.940,202.943 220.903,202.083 220.903 C 201.224 220.903,200.872 220.940,201.302 220.985 M201.193 222.025 C 201.563 222.071,202.219 222.072,202.652 222.027 C 203.084 221.982,202.781 221.944,201.979 221.943 C 201.177 221.942,200.823 221.979,201.193 222.025 " stroke="none" fill="#8c8c8c" fill-rule="evenodd"></path></g></svg>