<svg id="svg" version="1.1" xmlns="http://www.w3.org/2000/svg" xmlns:xlink="http://www.w3.org/1999/xlink" width="400" height="225" viewBox="0, 0, 400,225"><g id="svgg"><path id="path0" d="M151.771 75.968 C 140.675 77.755,134.531 89.499,139.470 99.479 C 147.148 114.994,170.417 109.467,170.417 92.128 C 170.417 82.314,161.320 74.430,151.771 75.968 M190.350 76.055 C 175.716 77.737,170.577 96.564,182.334 105.423 C 184.148 106.791,184.148 106.790,185.938 106.358 C 187.510 105.979,189.343 105.967,190.874 106.327 C 192.931 106.811,195.358 106.755,197.756 106.168 C 198.933 105.880,200.441 105.585,201.107 105.514 C 201.839 105.435,202.361 105.271,202.427 105.099 C 202.533 104.822,198.791 100.348,198.553 100.466 C 198.489 100.498,197.969 100.770,197.396 101.072 C 189.809 105.067,181.222 98.639,182.986 90.286 C 184.252 84.296,190.836 80.838,196.458 83.209 C 197.203 83.524,197.938 83.797,198.091 83.817 C 198.687 83.896,202.284 79.516,201.940 79.129 C 200.290 77.275,194.074 75.627,190.350 76.055 M111.458 92.281 L 111.458 108.125 114.583 108.125 L 117.708 108.125 117.708 101.762 L 117.708 95.399 119.317 95.460 L 120.925 95.521 123.848 101.816 L 126.771 108.110 130.136 108.118 L 133.502 108.125 130.397 101.436 C 126.845 93.784,127.098 94.546,127.969 94.123 C 134.557 90.918,134.162 80.721,127.319 77.337 L 125.752 76.563 118.605 76.500 L 111.458 76.438 111.458 92.281 M208.333 91.161 L 208.333 105.865 210.260 105.693 C 211.320 105.598,212.727 105.527,213.385 105.534 L 214.583 105.547 214.583 100.840 L 214.583 96.133 215.831 94.898 C 216.607 94.131,217.151 93.738,217.268 93.863 C 217.371 93.973,219.023 96.875,220.939 100.313 C 222.855 103.750,224.454 106.597,224.492 106.639 C 224.561 106.714,231.923 107.029,232.041 106.961 C 232.075 106.941,229.816 103.047,227.021 98.306 C 224.227 93.566,221.829 89.478,221.693 89.221 C 221.464 88.788,221.829 88.329,226.869 82.707 C 229.852 79.380,232.292 76.613,232.292 76.558 C 232.292 76.503,230.419 76.458,228.130 76.458 L 223.968 76.458 219.432 81.458 C 216.937 84.208,214.826 86.458,214.740 86.458 C 214.654 86.458,214.583 84.208,214.583 81.458 L 214.583 76.458 211.458 76.458 L 208.333 76.458 208.333 91.161 M238.542 92.240 L 238.542 108.021 249.063 108.095 L 259.583 108.170 259.583 105.022 L 259.583 101.875 252.182 101.875 L 244.782 101.875 244.839 98.385 L 244.896 94.896 250.990 94.841 L 257.083 94.785 257.083 91.664 L 257.083 88.542 250.938 88.542 L 244.792 88.542 244.792 85.625 L 244.792 82.708 252.188 82.708 L 259.583 82.708 259.583 79.583 L 259.583 76.458 249.063 76.458 L 238.542 76.458 238.542 92.240 M264.792 79.583 L 264.792 82.708 269.167 82.708 L 273.542 82.708 273.542 95.417 L 273.542 108.125 276.667 108.125 L 279.792 108.125 279.792 95.417 L 279.792 82.708 284.167 82.708 L 288.542 82.708 288.542 79.583 L 288.542 76.458 276.667 76.458 L 264.792 76.458 264.792 79.583 M156.555 82.611 C 163.999 84.550,166.546 93.825,161.123 99.248 C 155.661 104.710,146.434 102.160,144.477 94.647 C 142.610 87.479,149.372 80.740,156.555 82.611 M125.000 83.177 C 126.428 84.152,126.892 86.177,125.990 87.502 C 124.999 88.957,124.701 89.055,121.027 89.133 L 117.708 89.203 117.708 85.956 L 117.708 82.708 121.011 82.708 C 124.093 82.708,124.359 82.740,125.000 83.177 M199.737 165.556 C 199.335 166.224,198.702 167.474,198.330 168.333 C 197.958 169.193,197.248 170.707,196.752 171.699 C 196.255 172.690,195.512 174.653,195.099 176.061 C 194.686 177.468,194.267 178.771,194.168 178.956 C 192.744 181.617,191.031 190.926,190.201 200.521 C 189.963 203.271,189.683 206.411,189.579 207.500 C 189.309 210.331,189.575 225.000,189.897 225.000 C 190.074 225.000,190.180 223.712,190.278 220.365 C 190.352 217.815,190.525 212.647,190.661 208.881 L 190.909 202.033 191.965 202.154 C 192.546 202.221,194.193 202.429,195.625 202.616 C 199.369 203.107,204.461 202.793,208.289 201.835 C 209.238 201.598,210.063 201.452,210.123 201.512 C 210.493 201.881,210.734 221.419,210.373 221.780 C 209.540 222.612,201.613 223.113,195.336 222.729 C 193.172 222.596,191.350 222.539,191.287 222.602 C 190.148 223.740,203.598 224.167,208.333 223.142 C 209.422 222.907,210.336 222.713,210.365 222.711 C 210.393 222.710,210.417 223.224,210.417 223.854 C 210.417 225.064,210.728 225.390,210.968 224.432 C 211.228 223.395,211.154 203.414,210.879 200.625 C 210.143 193.139,209.725 190.903,207.843 184.375 C 207.099 181.797,206.253 178.750,205.962 177.604 C 205.393 175.363,204.676 173.505,202.301 168.125 C 200.444 163.916,200.618 164.091,199.737 165.556 M202.059 168.813 C 203.582 172.401,205.163 177.084,206.046 180.625 C 206.404 182.057,206.971 184.097,207.306 185.159 C 208.188 187.946,208.240 187.814,206.094 188.208 C 203.057 188.765,195.170 188.575,193.400 187.902 C 192.827 187.685,192.842 187.553,193.884 183.646 C 195.557 177.367,196.086 175.714,197.173 173.366 C 197.803 172.004,198.754 169.823,199.287 168.518 C 200.392 165.812,200.381 165.833,200.617 165.833 C 200.714 165.833,201.363 167.174,202.059 168.813 M202.292 176.042 C 202.038 176.206,202.065 176.244,202.436 176.247 C 202.687 176.249,202.950 176.156,203.021 176.042 C 203.185 175.776,202.702 175.776,202.292 176.042 M202.344 177.227 C 202.544 177.279,202.872 177.279,203.073 177.227 C 203.273 177.175,203.109 177.132,202.708 177.132 C 202.307 177.132,202.143 177.175,202.344 177.227 M202.708 178.125 C 202.211 178.284,202.217 178.293,202.852 178.313 C 203.218 178.324,203.575 178.240,203.646 178.125 C 203.794 177.885,203.456 177.885,202.708 178.125 M202.292 179.595 C 202.070 179.747,202.281 179.768,203.021 179.669 C 203.594 179.593,204.102 179.495,204.149 179.452 C 204.358 179.266,202.573 179.403,202.292 179.595 M202.917 180.417 L 202.188 180.570 203.021 180.594 C 203.479 180.608,203.995 180.528,204.167 180.417 C 204.544 180.173,204.075 180.173,202.917 180.417 M202.708 181.458 C 201.987 181.610,201.989 181.612,202.917 181.618 C 203.432 181.622,204.089 181.550,204.375 181.458 C 205.080 181.232,203.781 181.232,202.708 181.458 M203.234 182.524 C 201.462 182.782,201.314 182.939,202.965 182.808 C 204.294 182.703,205.922 182.300,204.896 182.330 C 204.667 182.337,203.919 182.424,203.234 182.524 M202.917 183.455 L 201.354 183.731 202.846 183.637 C 204.195 183.551,206.039 183.127,204.896 183.165 C 204.667 183.173,203.776 183.303,202.917 183.455 M203.438 184.500 L 201.771 184.774 203.402 184.680 C 204.299 184.628,205.189 184.494,205.381 184.383 C 205.822 184.125,205.647 184.136,203.438 184.500 M202.917 185.538 L 201.146 185.812 202.813 185.722 C 204.399 185.636,206.485 185.229,205.208 185.254 C 204.922 185.260,203.891 185.388,202.917 185.538 M203.125 186.586 L 201.563 186.861 203.125 186.766 C 203.984 186.713,204.969 186.584,205.313 186.478 L 205.938 186.286 205.313 186.299 C 204.969 186.306,203.984 186.435,203.125 186.586 M203.854 187.509 C 202.185 187.774,201.821 187.879,202.514 187.895 C 203.580 187.919,205.772 187.558,206.250 187.278 C 206.621 187.062,206.736 187.051,203.854 187.509 M208.408 189.890 C 208.846 191.278,209.513 195.717,209.707 198.525 L 209.849 200.590 209.039 200.822 C 204.142 202.229,198.138 202.446,192.552 201.418 L 191.250 201.178 191.250 199.971 C 191.250 198.411,192.536 189.269,192.792 189.014 C 192.823 188.982,193.122 189.077,193.456 189.223 C 194.231 189.564,205.851 189.377,206.667 189.011 C 207.746 188.525,208.022 188.664,208.408 189.890 M205.000 189.603 C 200.247 190.205,200.308 190.192,202.708 190.089 C 203.911 190.037,205.411 189.866,206.042 189.708 C 207.333 189.385,206.994 189.351,205.000 189.603 M194.375 190.208 C 194.547 190.319,194.875 190.405,195.104 190.399 L 195.521 190.387 195.104 190.208 C 194.481 189.941,193.961 189.941,194.375 190.208 M204.688 190.522 C 203.656 190.666,202.063 190.738,201.146 190.682 C 199.108 190.558,197.613 191.044,196.197 192.290 C 195.383 193.007,195.167 193.097,194.457 193.016 L 193.646 192.924 194.432 193.186 C 195.313 193.480,195.162 193.947,194.177 193.972 C 193.652 193.985,193.651 193.987,194.115 194.173 C 194.841 194.465,194.709 194.997,193.906 195.016 L 193.229 195.033 193.802 195.242 C 194.134 195.363,194.375 195.607,194.375 195.822 C 194.375 196.109,194.247 196.172,193.802 196.101 C 193.354 196.029,193.297 196.057,193.542 196.230 C 193.714 196.352,194.003 196.453,194.186 196.455 C 194.391 196.457,194.613 196.776,194.767 197.292 C 195.152 198.575,195.479 198.253,198.715 193.401 C 199.416 192.349,200.088 191.429,200.207 191.355 C 200.460 191.198,201.813 191.606,201.989 191.891 C 202.105 192.079,197.464 199.244,197.069 199.488 C 196.962 199.554,196.875 199.716,196.875 199.848 C 196.875 200.278,198.070 198.709,200.132 195.573 C 201.891 192.896,202.708 191.985,202.708 192.699 C 202.708 193.133,199.773 197.645,198.380 199.351 C 196.315 201.881,202.798 201.639,205.272 199.093 C 205.922 198.424,206.415 198.115,206.997 198.010 C 207.446 197.929,207.953 197.776,208.125 197.668 C 208.438 197.473,208.064 197.520,206.748 197.841 C 206.246 197.963,206.223 197.940,206.443 197.528 C 206.604 197.228,206.881 197.083,207.299 197.083 C 207.639 197.083,207.917 197.006,207.917 196.911 C 207.917 196.816,207.623 196.782,207.265 196.834 C 206.776 196.906,206.637 196.858,206.708 196.642 C 206.760 196.484,207.054 196.325,207.360 196.288 C 207.666 196.252,207.917 196.148,207.917 196.057 C 207.917 195.966,207.682 195.936,207.396 195.991 C 207.014 196.064,206.875 196.000,206.875 195.753 C 206.875 195.559,207.046 195.417,207.279 195.417 C 207.502 195.417,207.738 195.328,207.805 195.221 C 207.872 195.113,207.695 195.042,207.412 195.064 C 206.757 195.115,206.695 194.728,207.331 194.562 C 207.774 194.446,207.762 194.429,207.188 194.353 C 206.844 194.308,206.563 194.178,206.563 194.065 C 206.563 193.951,206.844 193.793,207.188 193.714 L 207.813 193.570 207.187 193.600 C 206.073 193.654,205.824 193.280,206.771 192.974 L 207.604 192.705 206.734 192.789 C 206.034 192.857,205.779 192.781,205.421 192.400 C 205.177 192.141,204.607 191.761,204.155 191.557 C 203.018 191.045,203.117 190.912,204.740 190.774 C 205.513 190.708,206.380 190.560,206.667 190.445 C 207.315 190.183,207.040 190.194,204.688 190.522 M194.271 191.250 C 194.850 191.499,195.258 191.499,195.104 191.250 C 195.033 191.135,194.723 191.048,194.415 191.056 C 193.914 191.069,193.899 191.090,194.271 191.250 M205.779 191.242 C 204.624 191.466,204.619 191.634,205.771 191.511 C 206.804 191.401,207.805 191.037,206.979 191.072 C 206.750 191.082,206.210 191.158,205.779 191.242 M194.167 192.083 C 194.339 192.194,194.667 192.280,194.896 192.274 L 195.313 192.262 194.896 192.083 C 194.273 191.816,193.753 191.816,194.167 192.083 M205.833 192.083 L 205.313 192.250 205.833 192.250 C 206.120 192.250,206.589 192.175,206.875 192.083 L 207.396 191.917 206.875 191.917 C 206.589 191.917,206.120 191.992,205.833 192.083 M193.438 197.500 C 193.667 197.598,194.042 197.679,194.271 197.679 L 194.688 197.679 194.271 197.500 C 194.042 197.402,193.667 197.321,193.438 197.321 L 193.021 197.321 193.438 197.500 M193.229 198.542 C 193.458 198.640,193.833 198.721,194.063 198.721 L 194.479 198.721 194.063 198.542 C 193.833 198.443,193.458 198.363,193.229 198.363 L 192.813 198.363 193.229 198.542 M206.979 198.657 L 205.938 198.940 206.979 198.828 C 207.552 198.766,208.110 198.630,208.219 198.525 C 208.471 198.280,208.292 198.300,206.979 198.657 M207.813 199.274 C 207.698 199.315,207.058 199.456,206.390 199.588 C 204.777 199.907,204.982 200.047,206.664 199.776 C 207.926 199.573,209.086 199.165,208.333 199.189 C 208.161 199.195,207.927 199.233,207.813 199.274 M193.229 199.549 C 193.968 199.870,194.914 200.048,194.688 199.823 C 194.573 199.709,194.104 199.560,193.646 199.492 C 193.087 199.408,192.950 199.427,193.229 199.549 M206.354 200.417 C 205.323 200.621,204.720 200.799,205.014 200.811 C 205.713 200.840,207.934 200.428,208.333 200.195 C 208.741 199.957,208.581 199.975,206.354 200.417 M193.438 200.833 C 193.667 200.932,194.135 201.010,194.479 201.006 C 195.089 201.000,195.091 200.996,194.583 200.833 C 193.819 200.589,192.868 200.589,193.438 200.833 M206.563 203.048 C 205.760 203.209,203.885 203.419,202.396 203.515 L 199.688 203.690 201.771 203.719 C 203.797 203.748,207.145 203.335,208.149 202.934 C 208.826 202.663,208.302 202.701,206.563 203.048 M193.229 203.542 C 194.135 203.772,195.512 203.772,194.792 203.542 C 194.505 203.450,193.896 203.377,193.438 203.379 C 192.645 203.382,192.635 203.390,193.229 203.542 M206.042 203.986 C 205.526 204.090,203.932 204.261,202.500 204.365 L 199.896 204.554 202.813 204.475 C 204.417 204.431,206.245 204.261,206.875 204.096 C 208.139 203.765,207.527 203.685,206.042 203.986 M193.333 204.375 C 194.089 204.617,195.251 204.617,194.688 204.375 C 194.458 204.277,193.943 204.199,193.542 204.202 C 192.879 204.208,192.860 204.223,193.333 204.375 M206.250 205.030 C 205.734 205.136,204.047 205.299,202.500 205.393 L 199.688 205.563 201.979 205.593 C 203.940 205.619,207.818 205.168,208.106 204.880 C 208.245 204.741,207.277 204.819,206.250 205.030 M193.125 205.417 C 193.411 205.508,193.974 205.583,194.375 205.583 C 195.035 205.583,195.055 205.568,194.583 205.417 C 194.297 205.325,193.734 205.250,193.333 205.250 C 192.673 205.250,192.654 205.266,193.125 205.417 M206.866 206.063 C 206.346 206.163,204.705 206.334,203.220 206.442 L 200.521 206.638 203.438 206.558 C 205.042 206.515,206.870 206.344,207.500 206.179 C 208.762 205.849,208.358 205.775,206.866 206.063 M192.813 206.223 C 193.503 206.515,194.921 206.724,194.688 206.499 C 194.573 206.389,194.010 206.242,193.438 206.173 C 192.794 206.095,192.555 206.114,192.813 206.223 M205.833 207.092 C 205.203 207.179,203.469 207.273,201.979 207.300 C 199.494 207.345,199.383 207.363,200.625 207.518 C 201.979 207.687,206.095 207.434,207.500 207.094 C 208.479 206.857,207.540 206.856,205.833 207.092 M192.813 207.292 C 193.042 207.390,193.604 207.467,194.063 207.461 L 194.896 207.452 194.063 207.280 C 193.604 207.185,193.042 207.109,192.813 207.110 L 192.396 207.113 192.813 207.292 M207.396 207.747 C 206.823 207.857,205.089 208.077,203.542 208.234 L 200.729 208.521 203.125 208.435 C 205.296 208.358,208.648 207.880,208.919 207.608 C 209.061 207.466,208.668 207.502,207.396 207.747 M193.646 208.333 C 194.623 208.582,195.176 208.582,194.792 208.333 C 194.620 208.222,194.151 208.141,193.750 208.153 L 193.021 208.174 193.646 208.333 M206.354 208.968 C 205.781 209.057,204.047 209.150,202.500 209.175 C 199.753 209.218,199.722 209.224,201.146 209.417 C 202.612 209.616,206.560 209.349,207.846 208.963 C 208.635 208.726,207.890 208.729,206.354 208.968 M192.813 209.167 C 193.042 209.265,193.604 209.342,194.063 209.336 L 194.896 209.327 194.063 209.155 C 193.604 209.060,193.042 208.984,192.813 208.985 L 192.396 208.988 192.813 209.167 M206.354 210.010 C 205.781 210.099,204.047 210.192,202.500 210.216 C 199.768 210.260,199.729 210.267,201.146 210.455 C 202.590 210.647,206.079 210.412,207.708 210.013 C 208.650 209.782,207.827 209.780,206.354 210.010 M192.526 210.083 C 192.731 210.307,194.792 210.583,194.792 210.386 C 194.792 210.288,194.569 210.208,194.297 210.208 C 194.025 210.208,193.486 210.148,193.099 210.074 C 192.712 210.000,192.454 210.004,192.526 210.083 M206.354 210.958 C 205.323 211.111,203.729 211.308,202.813 211.394 C 201.562 211.512,201.354 211.570,201.979 211.625 C 203.000 211.715,206.360 211.334,207.917 210.952 C 209.363 210.597,208.768 210.600,206.354 210.958 M193.438 211.458 C 194.410 211.706,195.175 211.706,194.792 211.458 C 194.620 211.347,194.104 211.266,193.646 211.278 C 192.843 211.299,192.835 211.305,193.438 211.458 M207.116 212.025 C 206.848 212.076,205.348 212.247,203.783 212.405 L 200.938 212.692 203.438 212.593 C 204.813 212.538,206.547 212.366,207.292 212.209 C 208.496 211.956,208.340 211.792,207.116 212.025 M193.438 212.500 C 194.355 212.733,195.520 212.733,194.792 212.500 C 194.505 212.408,193.943 212.335,193.542 212.337 L 192.813 212.341 193.438 212.500 M207.396 213.162 C 206.823 213.271,205.182 213.483,203.750 213.632 C 201.598 213.856,201.376 213.908,202.473 213.931 C 203.873 213.960,207.821 213.443,208.602 213.128 C 209.184 212.894,208.734 212.907,207.396 213.162 M193.438 213.750 C 194.344 213.981,195.720 213.981,195.000 213.750 C 194.714 213.658,194.104 213.585,193.646 213.587 C 192.853 213.591,192.843 213.599,193.438 213.750 M206.939 214.396 C 206.344 214.495,204.703 214.658,203.293 214.758 L 200.729 214.941 202.708 214.969 C 204.454 214.995,208.462 214.524,208.723 214.263 C 208.853 214.133,208.242 214.179,206.939 214.396 M193.125 214.792 C 193.411 214.883,194.068 214.957,194.583 214.955 L 195.521 214.952 194.688 214.780 C 193.532 214.541,192.369 214.550,193.125 214.792 M206.875 215.448 C 206.245 215.553,204.604 215.724,203.229 215.826 L 200.729 216.013 203.646 215.933 C 205.250 215.890,207.078 215.719,207.708 215.554 C 209.005 215.215,208.589 215.162,206.875 215.448 M193.438 215.833 C 194.364 216.069,195.444 216.069,194.896 215.833 C 194.667 215.735,194.104 215.659,193.646 215.664 C 192.849 215.674,192.840 215.681,193.438 215.833 M207.292 216.469 C 206.776 216.561,204.854 216.655,203.021 216.679 C 199.988 216.718,199.819 216.738,201.146 216.910 C 202.899 217.137,206.335 216.968,207.917 216.579 C 209.168 216.270,208.786 216.203,207.292 216.469 M192.507 216.731 C 192.698 216.943,195.000 217.239,195.000 217.052 C 195.000 216.955,194.789 216.874,194.531 216.873 C 194.273 216.871,193.688 216.811,193.229 216.739 C 192.771 216.667,192.446 216.663,192.507 216.731 M206.771 217.411 C 205.854 217.560,203.932 217.700,202.500 217.722 C 199.979 217.762,199.942 217.769,201.354 217.939 C 203.241 218.167,208.958 217.589,208.958 217.170 C 208.958 217.063,208.841 217.076,206.771 217.411 M193.854 217.929 C 195.066 218.179,195.607 218.175,195.208 217.917 C 195.036 217.806,194.474 217.724,193.958 217.735 L 193.021 217.756 193.854 217.929 M207.035 218.451 C 206.971 218.515,205.432 218.642,203.615 218.732 L 200.313 218.895 202.917 218.917 C 205.099 218.935,209.368 218.436,207.691 218.358 C 207.395 218.345,207.100 218.386,207.035 218.451 M193.125 218.739 C 193.639 218.914,195.360 219.032,195.191 218.880 C 195.143 218.837,194.542 218.748,193.854 218.682 C 193.044 218.604,192.788 218.624,193.125 218.739 M206.458 219.492 C 205.599 219.643,203.771 219.783,202.396 219.805 C 200.001 219.843,199.953 219.852,201.250 220.025 C 202.693 220.218,205.624 219.978,207.813 219.489 C 209.408 219.132,208.506 219.134,206.458 219.492 M193.333 219.792 C 193.620 219.883,194.229 219.957,194.688 219.955 L 195.521 219.952 194.688 219.780 C 194.229 219.685,193.620 219.611,193.333 219.616 L 192.813 219.625 193.333 219.792 M206.563 220.542 C 205.531 220.695,203.938 220.891,203.021 220.977 C 201.770 221.095,201.562 221.153,202.188 221.208 C 203.208 221.298,206.569 220.917,208.125 220.536 C 209.571 220.181,208.976 220.183,206.563 220.542 M193.229 220.835 C 193.628 221.005,195.370 221.122,195.191 220.967 C 195.143 220.925,194.589 220.839,193.958 220.775 C 193.245 220.702,192.970 220.725,193.229 220.835 M206.875 221.494 C 206.359 221.602,204.625 221.772,203.021 221.870 L 200.104 222.049 203.333 221.975 C 205.249 221.931,207.029 221.778,207.708 221.598 C 208.981 221.263,208.347 221.183,206.875 221.494 M193.333 221.875 C 194.083 222.115,195.455 222.115,194.896 221.875 C 194.667 221.777,194.104 221.699,193.646 221.702 C 192.930 221.707,192.886 221.732,193.333 221.875 " stroke="none" fill="#f7f7f7" fill-rule="evenodd"></path><path id="path1" d="M0.000 112.500 L 0.000 225.000 94.583 225.000 L 189.167 225.000 189.204 222.240 C 189.225 220.721,189.251 216.714,189.263 213.333 C 189.307 200.252,191.178 186.529,193.949 178.954 C 194.305 177.982,194.736 176.578,194.908 175.833 C 195.324 174.032,199.454 165.162,200.185 164.500 C 200.694 164.039,200.649 163.965,202.769 168.750 C 205.079 173.966,205.484 175.065,206.490 178.853 C 206.947 180.572,207.830 183.741,208.452 185.894 C 210.149 191.767,210.807 196.083,211.270 204.375 C 211.499 208.479,211.377 224.009,211.110 224.705 C 211.013 224.959,224.079 225.000,305.499 225.000 L 400.000 225.000 400.000 112.500 L 400.000 0.000 200.000 0.000 L 0.000 0.000 0.000 112.500 M158.193 76.273 C 169.003 78.955,174.034 91.693,167.995 101.094 C 161.522 111.170,146.780 111.274,140.325 101.290 C 132.151 88.647,143.578 72.648,158.193 76.273 M196.354 76.345 C 198.401 76.898,202.292 78.887,202.292 79.379 C 202.292 79.473,201.397 80.581,200.304 81.843 L 198.315 84.136 197.022 83.535 C 191.392 80.919,184.745 83.901,183.228 89.725 C 181.052 98.082,189.442 104.943,197.112 101.079 L 198.703 100.277 200.653 102.532 C 203.036 105.288,202.958 105.002,201.572 105.922 C 190.408 113.332,175.723 105.640,175.751 92.396 C 175.773 81.536,186.023 73.551,196.354 76.345 M125.250 76.481 C 133.603 78.230,135.617 90.345,128.185 94.136 L 127.323 94.576 130.433 101.270 C 132.143 104.952,133.542 108.048,133.542 108.149 C 133.542 108.454,126.962 108.380,126.726 108.073 C 126.616 107.930,125.232 105.023,123.650 101.615 L 120.773 95.417 119.241 95.417 L 117.708 95.417 117.708 101.771 L 117.708 108.125 114.479 108.125 L 111.250 108.125 111.250 92.188 L 111.250 76.250 117.698 76.250 C 121.619 76.250,124.579 76.341,125.250 76.481 M214.840 81.283 L 214.896 86.315 219.450 81.283 L 224.004 76.250 228.252 76.250 C 230.588 76.250,232.500 76.320,232.500 76.406 C 232.499 76.492,230.064 79.281,227.087 82.604 C 224.111 85.927,221.676 88.740,221.676 88.854 C 221.677 88.969,224.195 93.328,227.271 98.542 L 232.864 108.021 229.199 108.078 C 227.184 108.109,225.434 108.096,225.310 108.049 C 225.186 108.001,223.308 104.771,221.136 100.870 L 217.188 93.778 215.990 94.956 L 214.792 96.133 214.792 102.129 L 214.792 108.125 211.563 108.125 L 208.333 108.125 208.333 92.188 L 208.333 76.250 211.559 76.250 L 214.784 76.250 214.840 81.283 M259.792 79.479 L 259.792 82.708 252.396 82.708 L 245.000 82.708 245.000 85.625 L 245.000 88.542 251.042 88.542 L 257.083 88.542 257.083 91.771 L 257.083 95.000 251.042 95.000 L 245.000 95.000 245.000 98.333 L 245.000 101.667 252.297 101.667 L 259.594 101.667 259.537 104.948 L 259.479 108.229 248.958 108.229 L 238.438 108.229 238.384 92.500 C 238.354 83.849,238.375 76.654,238.429 76.510 C 238.507 76.307,240.847 76.250,249.160 76.250 L 259.792 76.250 259.792 79.479 M288.750 79.479 L 288.750 82.708 284.377 82.708 L 280.003 82.708 279.950 95.469 L 279.896 108.229 276.720 108.287 L 273.545 108.344 273.491 95.578 L 273.438 82.813 269.010 82.756 L 264.583 82.700 264.583 79.475 L 264.583 76.250 276.667 76.250 L 288.750 76.250 288.750 79.479 M151.354 82.793 C 144.065 85.107,141.882 94.186,147.378 99.327 C 155.472 106.899,167.812 97.575,162.797 87.677 C 160.806 83.749,155.489 81.479,151.354 82.793 M117.708 85.833 L 117.708 88.958 120.889 88.958 C 125.262 88.958,126.785 87.968,126.352 85.406 C 125.996 83.294,124.745 82.711,120.573 82.709 L 117.708 82.708 117.708 85.833 M142.396 116.888 C 144.579 117.563,148.542 119.731,148.542 120.250 C 148.542 120.443,145.769 125.076,145.406 125.489 C 145.321 125.586,144.729 125.331,144.091 124.923 C 139.379 121.909,134.792 122.166,134.792 125.443 C 134.792 127.253,135.497 127.821,139.283 129.062 C 146.064 131.283,149.310 134.899,149.123 140.023 C 148.775 149.546,136.514 152.454,127.656 145.114 C 125.884 143.646,125.844 143.826,128.505 141.324 L 130.753 139.211 131.877 140.144 C 136.375 143.879,142.708 143.507,142.708 139.508 C 142.708 137.947,139.702 135.747,136.563 135.012 C 125.966 132.528,125.398 119.201,135.776 116.562 C 137.410 116.146,140.488 116.298,142.396 116.888 M238.571 116.551 C 240.979 117.061,245.125 118.996,245.360 119.719 C 245.403 119.851,244.539 120.993,243.440 122.256 L 241.443 124.554 240.149 123.953 C 232.581 120.435,224.551 126.852,226.274 135.042 C 227.551 141.113,234.579 144.397,240.175 141.538 L 241.843 140.686 243.838 142.984 C 246.185 145.686,246.108 145.403,244.740 146.307 C 230.533 155.692,213.079 140.716,220.515 125.521 C 223.805 118.798,231.392 115.029,238.571 116.551 M178.166 132.500 C 182.257 141.151,185.610 148.349,185.615 148.495 C 185.623 148.702,184.857 148.748,182.135 148.703 L 178.646 148.646 177.203 145.677 L 175.760 142.708 169.286 142.711 L 162.813 142.713 161.279 145.732 L 159.745 148.750 156.239 148.750 C 154.311 148.750,152.695 148.680,152.649 148.594 C 152.603 148.508,154.362 144.922,156.558 140.625 C 158.754 136.328,162.404 129.175,164.669 124.729 L 168.786 116.645 169.756 116.708 L 170.726 116.771 178.166 132.500 M195.668 127.448 C 195.727 137.931,195.741 138.256,196.171 139.185 C 198.072 143.295,203.697 143.863,206.297 140.208 C 207.287 138.818,207.307 138.577,207.353 127.366 L 207.396 116.771 210.625 116.771 L 213.854 116.771 213.908 127.348 C 213.968 138.989,213.914 139.667,212.732 142.133 C 208.282 151.419,194.843 151.420,190.394 142.135 C 189.229 139.703,189.174 139.045,189.170 127.344 L 189.167 116.667 192.387 116.667 L 195.607 116.667 195.668 127.448 M272.662 119.948 L 272.604 123.229 265.260 123.284 L 257.917 123.339 257.917 126.148 L 257.917 128.958 264.063 128.958 L 270.208 128.958 270.208 132.188 L 270.208 135.417 264.063 135.417 L 257.917 135.417 257.917 138.747 L 257.917 142.078 265.260 142.133 L 272.604 142.188 272.604 145.417 L 272.604 148.646 262.031 148.700 L 251.458 148.754 251.458 132.710 L 251.458 116.667 262.089 116.667 L 272.719 116.667 272.662 119.948 M167.848 132.841 C 166.957 134.628,166.267 136.128,166.314 136.175 C 166.361 136.222,167.819 136.235,169.552 136.203 L 172.705 136.146 171.237 133.021 C 170.430 131.302,169.701 129.828,169.619 129.744 C 169.536 129.661,168.739 131.055,167.848 132.841 M199.590 168.281 C 199.089 169.513,198.145 171.693,197.491 173.125 C 196.174 176.013,195.695 177.394,194.888 180.625 C 194.588 181.828,194.125 183.563,193.860 184.479 C 193.064 187.229,193.079 187.759,193.958 187.945 C 196.991 188.586,203.527 188.650,206.354 188.066 L 207.604 187.808 207.548 187.081 C 207.517 186.681,207.258 185.647,206.972 184.783 C 206.687 183.919,206.226 182.278,205.949 181.137 C 204.804 176.425,201.089 166.042,200.548 166.042 C 200.522 166.042,200.091 167.049,199.590 168.281 M203.333 176.042 C 203.333 176.156,203.000 176.250,202.592 176.250 C 202.151 176.250,201.903 176.166,201.979 176.042 C 202.050 175.927,202.384 175.833,202.721 175.833 C 203.058 175.833,203.333 175.927,203.333 176.042 M203.750 177.074 C 203.750 177.338,202.389 177.585,202.059 177.381 C 201.869 177.264,201.908 177.177,202.201 177.062 C 202.784 176.834,203.750 176.841,203.750 177.074 M203.958 178.107 C 203.958 178.360,202.376 178.619,202.053 178.419 C 201.872 178.307,201.915 178.216,202.201 178.104 C 202.775 177.879,203.958 177.881,203.958 178.107 M204.375 179.351 C 204.375 179.606,203.611 179.785,202.510 179.789 C 201.940 179.791,201.659 179.718,201.781 179.599 C 202.128 179.263,204.375 179.047,204.375 179.351 M204.441 180.434 C 204.125 180.750,201.667 180.957,201.667 180.668 C 201.667 180.422,202.319 180.287,203.740 180.240 C 204.406 180.217,204.603 180.272,204.441 180.434 M204.882 181.228 C 205.044 181.490,204.574 181.635,203.046 181.791 C 202.202 181.878,201.674 181.848,201.588 181.708 C 201.502 181.569,201.894 181.440,202.653 181.357 C 203.314 181.284,203.995 181.194,204.167 181.157 C 204.730 181.036,204.766 181.040,204.882 181.228 M196.667 181.667 C 196.919 181.830,196.889 181.869,196.510 181.872 C 196.253 181.874,196.042 181.781,196.042 181.667 C 196.042 181.406,196.263 181.406,196.667 181.667 M205.104 182.546 C 204.875 182.679,203.891 182.816,202.917 182.851 C 201.067 182.917,200.954 182.824,202.512 182.519 C 203.992 182.229,205.622 182.246,205.104 182.546 M196.563 182.708 C 196.633 182.823,196.504 182.917,196.275 182.917 C 196.045 182.917,195.800 182.823,195.729 182.708 C 195.658 182.594,195.788 182.500,196.017 182.500 C 196.246 182.500,196.492 182.594,196.563 182.708 M205.417 183.115 C 205.417 183.431,203.970 183.748,202.517 183.749 C 200.726 183.750,200.993 183.590,203.356 183.246 C 204.432 183.090,205.336 182.951,205.365 182.939 C 205.393 182.927,205.417 183.006,205.417 183.115 M196.458 183.750 C 196.458 183.995,196.298 183.995,195.729 183.750 C 195.360 183.591,195.378 183.569,195.885 183.556 C 196.201 183.548,196.458 183.635,196.458 183.750 M205.719 184.363 C 205.476 184.604,203.133 184.996,201.927 184.998 C 200.479 185.001,200.920 184.663,202.656 184.439 C 204.896 184.151,205.960 184.124,205.719 184.363 M196.250 184.583 C 196.487 184.737,196.399 184.786,195.885 184.788 C 195.513 184.790,195.208 184.698,195.208 184.583 C 195.208 184.319,195.841 184.319,196.250 184.583 M206.250 185.109 C 206.250 185.516,202.063 186.156,201.099 185.897 C 200.654 185.778,201.074 185.663,202.917 185.398 C 205.644 185.007,206.250 184.955,206.250 185.109 M196.146 185.625 C 196.310 185.891,195.620 185.891,195.208 185.625 C 194.964 185.467,195.018 185.422,195.456 185.420 C 195.765 185.418,196.075 185.510,196.146 185.625 M206.344 186.222 C 205.751 186.761,200.187 187.414,200.500 186.908 C 200.582 186.775,200.996 186.661,201.419 186.654 C 201.841 186.646,202.891 186.518,203.750 186.367 C 205.664 186.033,206.610 185.980,206.344 186.222 M195.833 186.458 C 196.092 186.626,196.074 186.660,195.729 186.660 C 195.500 186.660,195.172 186.569,195.000 186.458 C 194.741 186.291,194.759 186.256,195.104 186.256 C 195.333 186.256,195.661 186.347,195.833 186.458 M195.816 187.413 C 195.864 187.461,195.851 187.551,195.788 187.614 C 195.610 187.793,194.583 187.480,194.583 187.246 C 194.583 187.057,195.596 187.193,195.816 187.413 M206.115 187.405 C 205.181 187.814,203.057 188.125,201.354 188.102 C 200.185 188.086,200.020 188.048,200.521 187.907 C 201.253 187.701,205.238 187.151,206.146 187.131 L 206.771 187.117 206.115 187.405 M206.771 189.098 C 206.026 189.349,206.010 189.369,206.615 189.278 C 207.594 189.132,207.447 189.489,206.406 189.782 C 205.201 190.122,200.039 190.306,199.375 190.032 C 198.968 189.865,199.379 189.808,201.250 189.774 L 203.646 189.729 200.833 189.547 C 199.286 189.447,197.059 189.417,195.884 189.481 C 194.558 189.553,193.592 189.513,193.337 189.377 C 192.839 189.110,192.885 188.949,192.185 193.438 C 191.415 198.378,191.283 200.960,191.793 201.111 C 195.970 202.349,208.122 201.947,209.545 200.524 C 209.837 200.232,208.711 191.437,208.197 190.000 C 207.760 188.778,207.746 188.768,206.771 189.098 M195.411 190.200 C 195.579 190.307,195.656 190.455,195.582 190.529 C 195.405 190.706,194.207 190.441,194.053 190.192 C 193.898 189.942,195.012 189.948,195.411 190.200 M207.083 190.413 C 206.911 190.522,206.082 190.722,205.239 190.858 C 204.141 191.036,203.802 191.158,204.041 191.292 C 204.242 191.404,204.684 191.392,205.156 191.261 C 205.586 191.142,206.308 191.043,206.760 191.043 C 207.996 191.041,207.395 191.456,205.945 191.606 C 205.130 191.690,204.849 191.786,205.064 191.907 C 205.247 192.009,205.828 191.981,206.440 191.840 C 207.022 191.705,207.561 191.658,207.638 191.735 C 207.867 191.964,207.584 192.112,206.684 192.232 C 206.216 192.295,205.833 192.431,205.833 192.535 C 205.833 192.640,206.292 192.662,206.875 192.585 C 208.150 192.415,208.347 192.843,207.087 193.044 C 206.631 193.117,206.304 193.253,206.362 193.346 C 206.419 193.438,206.792 193.461,207.191 193.397 C 208.135 193.243,208.178 193.704,207.240 193.907 L 206.563 194.055 207.396 194.177 L 208.229 194.300 207.500 194.642 L 206.771 194.984 207.448 194.992 C 208.276 195.002,208.322 195.258,207.552 195.563 L 206.979 195.789 207.669 195.811 C 208.484 195.837,208.382 196.160,207.498 196.355 C 206.634 196.544,206.715 196.810,207.604 196.706 C 208.620 196.588,208.528 197.014,207.500 197.188 C 206.331 197.385,206.457 197.679,207.656 197.553 C 208.436 197.471,208.594 197.504,208.404 197.706 C 208.270 197.848,207.733 198.012,207.209 198.071 C 206.685 198.130,206.138 198.323,205.993 198.500 C 205.764 198.780,205.798 198.803,206.250 198.679 C 207.374 198.370,208.653 198.272,208.430 198.512 C 208.197 198.762,206.039 199.233,205.875 199.069 C 205.820 199.014,205.421 199.250,204.987 199.593 C 203.143 201.054,200.931 201.533,198.795 200.933 C 197.230 200.494,197.233 200.527,198.594 198.750 C 200.037 196.865,202.573 192.920,202.432 192.779 C 202.308 192.656,201.177 194.221,199.555 196.759 C 198.273 198.765,197.278 199.991,196.927 199.996 C 196.587 200.001,196.597 199.799,196.957 199.391 C 197.313 198.988,201.301 192.991,201.638 192.352 C 201.843 191.963,201.818 191.859,201.475 191.675 C 200.587 191.200,200.261 191.409,199.020 193.253 C 196.140 197.533,195.212 198.637,194.909 198.146 C 194.845 198.043,194.324 197.846,193.751 197.708 C 193.177 197.571,192.708 197.374,192.708 197.271 C 192.708 197.032,193.058 197.033,193.908 197.277 C 194.279 197.384,194.583 197.424,194.583 197.368 C 194.583 196.969,194.081 196.493,193.549 196.387 C 193.201 196.317,192.917 196.153,192.917 196.021 C 192.917 195.866,193.137 195.825,193.542 195.906 C 194.010 196.000,194.167 195.954,194.167 195.724 C 194.167 195.555,194.044 195.417,193.894 195.417 C 193.744 195.417,193.439 195.269,193.217 195.089 C 192.836 194.781,192.857 194.768,193.594 194.868 C 194.510 194.992,194.730 194.472,193.854 194.252 C 193.107 194.065,193.211 193.711,193.990 193.789 C 194.380 193.828,194.683 193.748,194.736 193.594 C 194.788 193.445,194.657 193.333,194.432 193.333 C 194.215 193.333,193.856 193.196,193.634 193.027 C 193.159 192.668,193.882 192.583,194.688 192.903 C 195.006 193.030,195.294 192.899,195.912 192.344 C 197.549 190.876,198.639 190.562,202.227 190.523 C 203.980 190.504,205.477 190.426,205.554 190.348 C 205.631 190.271,206.077 190.210,206.545 190.212 C 207.164 190.214,207.311 190.269,207.083 190.413 M195.296 191.254 C 195.429 191.388,195.311 191.458,194.955 191.458 C 194.255 191.458,193.750 191.263,193.750 190.993 C 193.750 190.741,194.992 190.950,195.296 191.254 M194.969 191.983 C 195.251 192.065,195.381 192.202,195.275 192.308 C 195.031 192.553,193.493 192.122,193.658 191.855 C 193.728 191.742,193.941 191.693,194.132 191.746 C 194.323 191.799,194.700 191.906,194.969 191.983 M194.323 198.465 C 194.581 198.534,194.792 198.673,194.792 198.774 C 194.792 199.046,193.944 198.981,193.229 198.653 L 192.604 198.367 193.229 198.353 C 193.573 198.345,194.065 198.396,194.323 198.465 M193.948 199.392 C 195.053 199.629,195.373 200.000,194.472 200.000 C 193.923 200.000,192.500 199.482,192.500 199.281 C 192.500 199.117,192.759 199.137,193.948 199.392 M208.125 199.521 C 207.414 199.834,204.571 200.182,204.805 199.927 C 205.001 199.715,207.346 199.201,208.125 199.201 L 208.854 199.201 208.125 199.521 M208.635 200.180 C 208.187 200.587,203.661 201.307,204.024 200.913 C 204.216 200.704,207.288 200.050,208.219 200.020 C 208.577 200.008,208.751 200.075,208.635 200.180 M194.286 200.651 C 194.797 200.779,195.275 200.982,195.349 201.100 C 195.529 201.392,193.779 201.146,192.877 200.752 L 192.188 200.451 192.772 200.434 C 193.094 200.424,193.775 200.522,194.286 200.651 M207.978 201.984 C 204.411 202.975,197.727 203.167,193.023 202.414 C 191.993 202.249,191.139 202.130,191.125 202.151 C 191.088 202.204,190.651 214.668,190.489 220.254 L 190.352 224.987 191.478 224.941 C 192.307 224.908,192.699 224.786,192.965 224.479 C 193.325 224.064,193.327 224.064,193.458 224.531 C 193.615 225.086,197.348 225.261,197.901 224.740 C 198.122 224.531,198.196 224.531,198.273 224.740 C 198.403 225.095,202.521 225.104,202.875 224.750 C 203.069 224.556,203.125 224.556,203.125 224.750 C 203.125 225.029,207.289 225.123,207.295 224.844 C 207.306 224.293,207.701 224.078,207.986 224.466 C 208.189 224.744,208.578 224.886,209.244 224.924 L 210.208 224.980 210.208 223.924 C 210.208 222.929,210.181 222.876,209.740 223.000 C 205.004 224.338,189.685 223.995,191.097 222.584 C 191.184 222.496,193.715 222.543,196.722 222.687 C 202.496 222.964,204.997 222.853,208.461 222.165 L 210.152 221.829 210.291 218.779 C 210.367 217.102,210.334 212.823,210.218 209.271 C 210.102 205.719,210.006 202.508,210.004 202.135 C 210.002 201.763,209.930 201.470,209.844 201.484 C 209.758 201.498,208.918 201.723,207.978 201.984 M208.702 202.826 C 207.835 203.693,199.298 204.260,198.818 203.483 C 198.731 203.343,198.985 203.318,199.559 203.410 C 200.565 203.570,205.296 203.221,207.292 202.838 C 208.607 202.586,208.945 202.583,208.702 202.826 M195.208 203.574 C 195.415 203.703,195.044 203.744,194.115 203.697 C 193.321 203.657,192.596 203.508,192.448 203.354 C 192.140 203.033,194.662 203.234,195.208 203.574 M208.427 203.734 C 207.685 204.455,200.479 204.988,199.167 204.419 C 198.757 204.241,199.269 204.187,201.563 204.167 C 203.167 204.152,205.182 204.018,206.042 203.867 C 208.020 203.521,208.684 203.484,208.427 203.734 M194.975 204.393 C 195.220 204.550,194.949 204.581,193.986 204.509 C 193.257 204.455,192.554 204.297,192.424 204.158 C 192.128 203.842,194.449 204.056,194.975 204.393 M208.750 204.779 C 207.493 205.515,200.311 206.052,199.023 205.506 C 198.707 205.372,199.474 205.296,201.523 205.259 C 203.149 205.230,205.229 205.079,206.146 204.924 C 208.200 204.576,209.191 204.520,208.750 204.779 M194.878 205.352 C 195.198 205.444,195.218 205.499,194.980 205.632 C 194.619 205.834,192.706 205.502,192.404 205.185 C 192.190 204.961,193.914 205.077,194.878 205.352 M208.958 205.803 C 208.958 206.235,205.501 206.739,202.708 206.713 C 198.491 206.675,197.799 206.294,201.875 206.254 C 203.651 206.237,205.854 206.101,206.771 205.953 C 208.971 205.597,208.958 205.597,208.958 205.803 M194.010 206.141 C 195.072 206.285,195.375 206.667,194.427 206.666 C 193.601 206.664,192.292 206.267,192.292 206.018 C 192.292 205.901,192.456 205.851,192.656 205.906 C 192.857 205.961,193.466 206.067,194.010 206.141 M208.949 206.868 C 208.217 207.296,203.842 207.758,201.444 207.661 C 197.676 207.507,197.859 207.192,201.735 207.157 C 203.588 207.140,205.667 207.034,206.354 206.922 C 208.034 206.647,209.373 206.619,208.949 206.868 M194.557 207.214 C 194.915 207.285,195.208 207.439,195.208 207.555 C 195.208 207.805,193.038 207.593,192.525 207.293 C 192.123 207.058,193.509 207.004,194.557 207.214 M208.936 207.708 C 207.815 208.364,201.593 208.783,199.479 208.345 C 198.851 208.215,199.313 208.163,201.354 208.133 C 202.844 208.111,204.906 207.973,205.938 207.826 C 208.348 207.483,209.391 207.442,208.936 207.708 M194.242 208.049 C 194.773 208.122,195.208 208.263,195.208 208.362 C 195.208 208.643,193.507 208.555,192.813 208.237 L 192.188 207.951 192.731 207.934 C 193.030 207.924,193.710 207.976,194.242 208.049 M209.052 208.732 C 208.588 209.179,204.540 209.638,201.944 209.538 C 198.077 209.389,198.401 209.068,202.459 209.028 C 204.372 209.009,206.406 208.903,206.979 208.792 C 208.385 208.520,209.300 208.494,209.052 208.732 M194.219 209.064 C 194.763 209.134,195.208 209.293,195.208 209.416 C 195.208 209.641,193.327 209.520,192.622 209.249 C 192.118 209.056,192.229 208.729,192.760 208.839 C 193.018 208.892,193.674 208.993,194.219 209.064 M209.052 209.774 C 208.588 210.221,204.540 210.680,201.944 210.580 C 198.079 210.431,198.401 210.110,202.459 210.067 C 204.372 210.046,206.406 209.940,206.979 209.831 C 208.393 209.561,209.298 209.537,209.052 209.774 M194.557 210.130 C 195.682 210.355,195.306 210.693,194.073 210.566 C 192.556 210.410,191.833 210.015,193.047 210.006 C 193.520 210.003,194.199 210.059,194.557 210.130 M209.167 210.608 C 209.167 211.233,203.035 211.881,200.294 211.547 C 198.924 211.379,199.015 211.363,202.188 211.216 C 204.021 211.130,206.271 210.927,207.188 210.764 C 208.104 210.601,208.924 210.456,209.010 210.442 C 209.096 210.428,209.167 210.503,209.167 210.608 M194.242 211.174 C 194.773 211.247,195.208 211.401,195.208 211.516 C 195.208 211.791,192.737 211.570,192.434 211.268 C 192.168 211.001,192.758 210.971,194.242 211.174 M209.190 211.892 C 208.075 212.338,205.018 212.707,202.629 212.684 C 198.524 212.644,198.510 212.386,202.604 212.230 C 204.667 212.152,206.729 212.004,207.188 211.901 C 208.399 211.630,209.862 211.623,209.190 211.892 M195.203 212.525 C 195.421 212.663,195.079 212.705,194.115 212.656 C 193.306 212.615,192.599 212.467,192.448 212.309 C 192.136 211.979,194.654 212.177,195.203 212.525 M209.375 212.902 C 209.375 213.616,200.399 214.280,199.340 213.646 C 199.098 213.501,200.046 213.429,202.465 213.411 C 204.676 213.394,206.467 213.271,207.396 213.071 C 209.227 212.677,209.375 212.664,209.375 212.902 M195.417 213.782 C 195.625 213.915,195.222 213.952,194.204 213.893 C 193.365 213.844,192.568 213.687,192.433 213.545 C 192.136 213.233,194.899 213.452,195.417 213.782 M209.167 214.131 C 209.167 214.694,203.662 215.298,201.143 215.011 C 198.462 214.707,198.726 214.585,202.101 214.570 C 203.753 214.562,205.854 214.435,206.771 214.286 C 208.916 213.939,209.167 213.923,209.167 214.131 M194.954 214.709 C 195.660 214.816,195.695 215.208,194.998 215.208 C 194.250 215.208,192.500 214.757,192.500 214.564 C 192.500 214.387,193.046 214.419,194.954 214.709 M209.167 215.178 C 209.167 215.608,205.714 216.120,203.021 216.091 C 198.833 216.044,198.078 215.676,202.083 215.633 C 203.859 215.614,206.016 215.476,206.875 215.326 C 208.859 214.979,209.167 214.959,209.167 215.178 M195.302 215.844 C 195.624 216.166,193.511 216.059,192.813 215.719 C 192.218 215.429,192.259 215.420,193.646 215.530 C 194.448 215.594,195.193 215.736,195.302 215.844 M209.167 216.225 C 209.167 216.814,203.745 217.287,200.705 216.962 C 199.159 216.797,199.302 216.777,203.125 216.626 C 205.359 216.538,207.516 216.380,207.917 216.275 C 208.898 216.018,209.167 216.007,209.167 216.225 M195.473 217.057 C 195.815 217.398,194.072 217.336,193.021 216.969 L 192.188 216.678 193.713 216.750 C 194.552 216.789,195.344 216.927,195.473 217.057 M209.107 217.213 C 208.523 217.797,202.560 218.321,200.417 217.976 C 199.397 217.812,199.638 217.775,202.604 217.637 C 204.438 217.553,206.359 217.405,206.875 217.309 C 208.038 217.094,209.280 217.040,209.107 217.213 M194.531 217.635 C 195.133 217.707,195.625 217.860,195.625 217.974 C 195.625 218.253,192.951 218.034,192.647 217.731 C 192.376 217.459,192.861 217.434,194.531 217.635 M209.096 218.265 C 208.551 218.810,202.805 219.334,200.833 219.018 C 199.786 218.850,199.947 218.820,202.708 218.678 C 204.370 218.593,206.479 218.407,207.396 218.264 C 209.068 218.005,209.356 218.005,209.096 218.265 M194.974 218.672 C 195.332 218.743,195.625 218.884,195.625 218.984 C 195.625 219.252,194.192 219.177,193.229 218.860 L 192.396 218.585 193.359 218.564 C 193.889 218.551,194.616 218.600,194.974 218.672 M209.167 219.152 C 209.167 219.563,205.029 220.213,202.604 220.182 C 199.324 220.141,199.266 219.886,202.500 219.724 C 204.161 219.641,206.224 219.447,207.083 219.292 C 209.110 218.927,209.167 218.924,209.167 219.152 M195.313 219.784 C 195.679 219.935,195.687 219.972,195.385 220.096 C 195.053 220.232,192.750 219.902,192.536 219.688 C 192.361 219.514,194.865 219.600,195.313 219.784 M209.375 220.192 C 209.375 220.823,202.064 221.537,200.104 221.096 C 199.433 220.945,199.921 220.881,202.604 220.765 C 204.438 220.685,206.641 220.493,207.500 220.336 C 208.359 220.180,209.133 220.041,209.219 220.026 C 209.305 220.012,209.375 220.086,209.375 220.192 M194.948 220.756 C 195.206 220.825,195.417 220.978,195.417 221.095 C 195.417 221.357,193.119 221.119,192.826 220.826 C 192.600 220.600,194.173 220.549,194.948 220.756 M209.167 221.217 C 209.167 221.701,204.163 222.371,201.709 222.216 C 198.677 222.024,198.905 221.775,202.151 221.732 C 203.775 221.711,205.854 221.558,206.771 221.393 C 208.838 221.020,209.167 220.996,209.167 221.217 M195.417 221.875 C 195.417 222.142,193.330 222.142,192.917 221.875 C 192.698 221.734,193.026 221.672,194.010 221.670 C 194.811 221.668,195.417 221.756,195.417 221.875 " stroke="none" fill="#343434" fill-rule="evenodd"></path><path id="path2" d="M199.583 105.772 C 199.297 105.821,198.414 106.051,197.622 106.283 C 196.004 106.757,192.514 106.857,191.250 106.467 C 189.778 106.014,187.841 105.975,186.180 106.367 C 184.210 106.831,184.303 107.000,187.036 107.936 C 190.953 109.277,195.776 108.908,199.574 106.977 C 202.036 105.725,202.039 105.347,199.583 105.772 M209.635 105.779 L 208.333 105.853 208.333 106.989 L 208.333 108.125 211.563 108.125 L 214.792 108.125 214.792 107.001 C 214.792 105.515,214.693 105.492,209.635 105.779 M224.884 107.476 L 225.219 108.125 228.964 108.125 C 231.023 108.125,232.708 108.049,232.708 107.956 C 232.708 107.176,232.229 107.065,228.363 106.945 L 224.548 106.827 224.884 107.476 M136.756 116.490 C 125.560 117.762,125.572 132.171,136.771 134.997 C 140.735 135.997,143.247 138.266,142.676 140.332 C 141.739 143.726,136.161 143.710,131.975 140.301 L 130.810 139.352 129.207 140.803 C 128.326 141.601,127.296 142.575,126.920 142.967 L 126.236 143.680 127.233 144.609 C 130.558 147.710,134.081 149.057,138.870 149.060 L 141.802 149.063 143.588 148.178 C 148.837 145.577,150.713 139.474,147.705 134.787 C 146.139 132.347,142.922 130.245,138.778 128.956 C 135.599 127.967,134.766 127.270,134.741 125.575 C 134.685 121.912,139.506 121.759,144.792 125.255 L 145.313 125.600 146.950 122.892 C 147.851 121.403,148.554 120.156,148.513 120.121 C 145.599 117.636,140.506 116.063,136.756 116.490 M232.438 116.581 C 220.303 118.774,214.807 133.181,222.402 142.888 C 227.785 149.768,237.917 151.190,244.957 146.054 L 245.851 145.402 243.936 143.215 C 241.585 140.530,241.966 140.708,240.369 141.541 C 232.528 145.628,223.614 137.976,226.452 129.595 C 228.268 124.231,234.422 121.458,239.630 123.656 C 241.495 124.443,241.399 124.482,243.496 122.083 C 245.787 119.461,245.751 119.867,243.802 118.697 C 240.290 116.590,236.398 115.865,232.438 116.581 M168.360 117.656 C 168.141 118.086,164.530 125.170,160.335 133.399 C 156.140 141.628,152.708 148.401,152.708 148.451 C 152.708 148.501,154.301 148.542,156.249 148.542 L 159.789 148.542 161.250 145.625 L 162.711 142.708 169.286 142.708 L 175.862 142.708 177.239 145.625 L 178.616 148.542 182.112 148.542 L 185.608 148.542 185.252 147.727 C 185.056 147.279,181.708 140.157,177.813 131.899 L 170.729 116.886 169.744 116.880 C 168.813 116.875,168.736 116.918,168.360 117.656 M189.221 127.865 C 189.309 139.900,189.292 139.719,190.619 142.414 C 194.996 151.307,208.348 151.179,212.591 142.204 C 213.857 139.525,213.797 140.300,213.770 126.927 L 213.750 116.875 210.632 116.875 L 207.514 116.875 207.455 127.656 L 207.396 138.438 206.831 139.508 C 204.932 143.109,200.255 143.824,197.382 140.951 C 195.589 139.158,195.625 139.437,195.625 127.359 L 195.625 116.875 192.383 116.875 L 189.140 116.875 189.221 127.865 M251.458 132.708 L 251.458 148.542 261.979 148.542 L 272.500 148.542 272.500 145.417 L 272.500 142.292 265.208 142.292 L 257.917 142.292 257.917 138.854 L 257.917 135.417 263.958 135.417 L 270.000 135.417 270.000 132.188 L 270.000 128.958 263.958 128.958 L 257.917 128.958 257.917 126.042 L 257.917 123.125 265.313 123.125 L 272.708 123.125 272.708 120.000 L 272.708 116.875 262.083 116.875 L 251.458 116.875 251.458 132.708 M171.239 132.847 C 172.047 134.585,172.708 136.061,172.708 136.128 C 172.708 136.195,171.209 136.250,169.376 136.250 L 166.043 136.250 167.756 132.817 C 168.698 130.930,169.536 129.453,169.619 129.536 C 169.701 129.619,170.430 131.109,171.239 132.847 " stroke="none" fill="#fa3535" fill-rule="evenodd"></path><path id="path3" d="M238.436 92.292 L 238.438 108.229 248.906 108.232 L 259.375 108.235 248.960 108.178 L 238.544 108.121 238.489 92.238 L 238.434 76.354 238.436 92.292 M153.698 82.439 C 153.956 82.488,154.378 82.488,154.635 82.439 C 154.893 82.389,154.682 82.348,154.167 82.348 C 153.651 82.348,153.440 82.389,153.698 82.439 M244.874 85.729 C 244.874 87.333,244.907 87.962,244.947 87.126 C 244.986 86.291,244.986 84.978,244.946 84.210 C 244.906 83.441,244.874 84.125,244.874 85.729 M137.557 92.292 C 137.557 92.807,137.597 93.018,137.647 92.760 C 137.697 92.503,137.697 92.081,137.647 91.823 C 137.597 91.565,137.557 91.776,137.557 92.292 M129.883 92.760 L 129.271 93.438 129.948 92.826 C 130.320 92.489,130.625 92.184,130.625 92.149 C 130.625 91.988,130.453 92.129,129.883 92.760 M215.930 94.844 L 214.896 95.938 215.990 94.904 C 216.591 94.335,217.083 93.843,217.083 93.810 C 217.083 93.654,216.890 93.827,215.930 94.844 M244.876 98.333 C 244.876 100.224,244.908 100.997,244.947 100.052 C 244.985 99.107,244.985 97.560,244.947 96.615 C 244.908 95.669,244.876 96.443,244.876 98.333 M141.875 103.399 C 141.875 103.434,142.180 103.739,142.552 104.076 L 143.229 104.688 142.617 104.010 C 142.047 103.379,141.875 103.238,141.875 103.399 M128.490 108.280 C 129.435 108.319,130.982 108.319,131.927 108.280 C 132.872 108.241,132.099 108.210,130.208 108.210 C 128.318 108.210,127.544 108.241,128.490 108.280 M275.052 108.280 C 275.940 108.319,277.393 108.319,278.281 108.280 C 279.169 108.241,278.443 108.209,276.667 108.209 C 274.891 108.209,274.164 108.241,275.052 108.280 M191.825 108.897 C 192.084 108.947,192.459 108.945,192.659 108.893 C 192.858 108.841,192.646 108.800,192.188 108.803 C 191.729 108.805,191.566 108.848,191.825 108.897 M168.673 116.831 C 168.617 116.922,168.916 116.964,169.338 116.924 C 170.626 116.802,170.778 116.716,169.752 116.691 C 169.214 116.678,168.729 116.741,168.673 116.831 M190.791 116.822 C 191.742 116.861,193.242 116.860,194.124 116.821 C 195.007 116.782,194.229 116.751,192.396 116.751 C 190.563 116.751,189.840 116.783,190.791 116.822 M207.389 116.922 C 207.333 117.068,207.313 121.641,207.344 127.083 L 207.400 136.979 207.450 126.927 L 207.500 116.875 210.623 116.875 L 213.746 116.875 213.803 126.823 L 213.860 136.771 213.857 126.771 L 213.854 116.771 210.673 116.713 C 208.242 116.669,207.467 116.719,207.389 116.922 M256.719 116.823 C 259.669 116.855,264.497 116.855,267.448 116.823 C 270.398 116.790,267.984 116.763,262.083 116.763 C 256.182 116.763,253.768 116.790,256.719 116.823 M223.542 121.146 C 223.036 121.661,222.668 122.083,222.726 122.083 C 222.783 122.083,223.244 121.661,223.750 121.146 C 224.256 120.630,224.623 120.208,224.566 120.208 C 224.509 120.208,224.048 120.630,223.542 121.146 M261.510 123.281 C 263.544 123.315,266.872 123.315,268.906 123.281 C 270.940 123.247,269.276 123.219,265.208 123.219 C 261.141 123.219,259.477 123.247,261.510 123.281 M228.633 125.885 L 228.021 126.563 228.698 125.951 C 229.329 125.380,229.471 125.208,229.310 125.208 C 229.274 125.208,228.969 125.513,228.633 125.885 M270.084 132.188 C 270.085 134.021,270.116 134.743,270.155 133.792 C 270.194 132.841,270.194 131.341,270.155 130.459 C 270.116 129.576,270.084 130.354,270.084 132.188 M130.208 131.315 C 130.208 131.351,130.513 131.656,130.885 131.992 L 131.563 132.604 130.951 131.927 C 130.380 131.296,130.208 131.154,130.208 131.315 M218.821 132.813 C 218.822 133.729,218.859 134.078,218.903 133.588 C 218.947 133.098,218.946 132.348,218.901 131.922 C 218.857 131.495,218.821 131.896,218.821 132.813 M145.833 132.565 C 145.833 132.601,146.138 132.906,146.510 133.242 L 147.188 133.854 146.576 133.177 C 146.005 132.546,145.833 132.404,145.833 132.565 M129.989 139.948 L 129.271 140.729 130.052 140.011 C 130.482 139.616,130.833 139.265,130.833 139.230 C 130.833 139.071,130.657 139.221,129.989 139.948 M265.156 142.238 L 272.500 142.297 272.500 145.417 L 272.500 148.538 262.031 148.595 L 251.563 148.652 262.083 148.649 L 272.604 148.646 272.604 145.417 L 272.604 142.188 265.208 142.183 L 257.813 142.179 265.156 142.238 M126.758 142.969 L 126.146 143.646 126.823 143.034 C 127.195 142.697,127.500 142.393,127.500 142.357 C 127.500 142.196,127.328 142.338,126.758 142.969 M235.156 142.651 C 235.529 142.697,236.138 142.697,236.510 142.651 C 236.883 142.604,236.578 142.567,235.833 142.567 C 235.089 142.567,234.784 142.604,235.156 142.651 M138.490 142.855 C 138.747 142.905,139.169 142.905,139.427 142.855 C 139.685 142.806,139.474 142.765,138.958 142.765 C 138.443 142.765,138.232 142.806,138.490 142.855 M126.250 143.815 C 126.250 143.851,126.555 144.156,126.927 144.492 L 127.604 145.104 126.992 144.427 C 126.422 143.796,126.250 143.654,126.250 143.815 M192.708 145.521 C 193.097 145.922,193.462 146.250,193.519 146.250 C 193.577 146.250,193.305 145.922,192.917 145.521 C 192.528 145.120,192.163 144.792,192.106 144.792 C 192.048 144.792,192.320 145.120,192.708 145.521 M210.197 145.573 L 209.479 146.354 210.260 145.636 C 210.988 144.968,211.137 144.792,210.978 144.792 C 210.944 144.792,210.592 145.143,210.197 145.573 M152.682 148.599 C 152.771 148.688,154.430 148.734,156.370 148.703 L 159.896 148.645 156.208 148.541 C 154.179 148.484,152.593 148.510,152.682 148.599 M180.479 148.697 C 181.487 148.735,183.081 148.735,184.021 148.696 C 184.960 148.658,184.135 148.627,182.188 148.627 C 180.240 148.627,179.471 148.659,180.479 148.697 M138.698 149.314 C 138.956 149.363,139.378 149.363,139.635 149.314 C 139.893 149.264,139.682 149.223,139.167 149.223 C 138.651 149.223,138.440 149.264,138.698 149.314 M234.950 149.314 C 235.209 149.364,235.584 149.362,235.784 149.310 C 235.983 149.258,235.771 149.217,235.313 149.219 C 234.854 149.222,234.691 149.264,234.950 149.314 M202.053 178.386 C 202.158 178.491,202.465 178.542,202.736 178.499 C 203.153 178.434,203.124 178.404,202.546 178.309 C 202.132 178.240,201.937 178.271,202.053 178.386 M201.649 181.732 C 201.743 181.826,202.184 181.872,202.629 181.833 L 203.438 181.762 202.458 181.662 C 201.919 181.606,201.555 181.638,201.649 181.732 M201.510 185.977 C 201.711 186.029,202.039 186.029,202.240 185.977 C 202.440 185.925,202.276 185.882,201.875 185.882 C 201.474 185.882,201.310 185.925,201.510 185.977 M199.740 189.522 C 199.997 189.572,200.419 189.572,200.677 189.522 C 200.935 189.472,200.724 189.432,200.208 189.432 C 199.693 189.432,199.482 189.472,199.740 189.522 M203.646 189.583 C 203.482 189.849,203.965 189.849,204.375 189.583 C 204.629 189.419,204.602 189.381,204.231 189.378 C 203.980 189.376,203.717 189.469,203.646 189.583 M200.156 190.564 C 200.414 190.613,200.836 190.613,201.094 190.564 C 201.352 190.514,201.141 190.473,200.625 190.473 C 200.109 190.473,199.898 190.514,200.156 190.564 M190.465 195.000 C 190.465 195.401,190.508 195.565,190.560 195.365 C 190.613 195.164,190.613 194.836,190.560 194.635 C 190.508 194.435,190.465 194.599,190.465 195.000 M209.215 195.833 C 209.215 196.234,209.258 196.398,209.310 196.198 C 209.363 195.997,209.363 195.669,209.310 195.469 C 209.258 195.268,209.215 195.432,209.215 195.833 M190.261 197.188 C 190.263 197.646,190.306 197.809,190.356 197.550 C 190.406 197.291,190.404 196.916,190.351 196.716 C 190.299 196.517,190.259 196.729,190.261 197.188 M209.428 197.813 C 209.430 198.271,209.473 198.434,209.522 198.175 C 209.572 197.916,209.570 197.541,209.518 197.341 C 209.466 197.142,209.425 197.354,209.428 197.813 M190.060 199.479 C 190.061 200.052,190.102 200.262,190.149 199.945 C 190.197 199.628,190.196 199.160,190.147 198.903 C 190.097 198.647,190.058 198.906,190.060 199.479 M191.307 200.208 C 191.307 200.724,191.347 200.935,191.397 200.677 C 191.447 200.419,191.447 199.997,191.397 199.740 C 191.347 199.482,191.307 199.693,191.307 200.208 M204.041 200.868 C 203.982 200.964,204.267 201.042,204.675 201.042 C 205.083 201.042,205.417 201.005,205.417 200.961 C 205.417 200.790,204.143 200.704,204.041 200.868 M189.851 201.979 C 189.853 202.552,189.893 202.762,189.941 202.445 C 189.989 202.128,189.988 201.660,189.938 201.403 C 189.889 201.147,189.850 201.406,189.851 201.979 M210.075 203.333 C 210.075 204.422,210.110 204.867,210.153 204.323 C 210.196 203.779,210.196 202.888,210.153 202.344 C 210.110 201.799,210.075 202.245,210.075 203.333 M198.177 202.019 C 198.378 202.071,198.706 202.071,198.906 202.019 C 199.107 201.966,198.943 201.923,198.542 201.923 C 198.141 201.923,197.977 201.966,198.177 202.019 M201.510 202.019 C 201.711 202.071,202.039 202.071,202.240 202.019 C 202.440 201.966,202.276 201.923,201.875 201.923 C 201.474 201.923,201.310 201.966,201.510 202.019 M211.094 202.813 C 211.097 203.271,211.139 203.434,211.189 203.175 C 211.239 202.916,211.237 202.541,211.185 202.341 C 211.133 202.142,211.092 202.354,211.094 202.813 M198.842 203.522 C 198.906 203.626,199.146 203.662,199.375 203.602 C 199.948 203.452,199.897 203.333,199.259 203.333 C 198.965 203.333,198.778 203.418,198.842 203.522 M189.640 204.375 C 189.640 204.891,189.681 205.102,189.730 204.844 C 189.780 204.586,189.780 204.164,189.730 203.906 C 189.681 203.648,189.640 203.859,189.640 204.375 M201.406 203.901 C 201.779 203.947,202.388 203.947,202.760 203.901 C 203.133 203.854,202.828 203.817,202.083 203.817 C 201.339 203.817,201.034 203.854,201.406 203.901 M199.511 204.323 C 199.457 204.409,199.991 204.453,200.696 204.421 C 202.853 204.323,203.109 204.231,201.314 204.198 C 200.376 204.181,199.564 204.237,199.511 204.323 M190.900 205.625 C 190.900 206.370,190.938 206.674,190.984 206.302 C 191.030 205.930,191.030 205.320,190.984 204.948 C 190.938 204.576,190.900 204.880,190.900 205.625 M201.615 204.734 C 201.987 204.780,202.596 204.780,202.969 204.734 C 203.341 204.688,203.036 204.650,202.292 204.650 C 201.547 204.650,201.242 204.688,201.615 204.734 M189.428 206.563 C 189.430 207.021,189.473 207.184,189.522 206.925 C 189.572 206.666,189.570 206.291,189.518 206.091 C 189.466 205.892,189.425 206.104,189.428 206.563 M211.342 212.083 C 211.342 215.349,211.371 216.685,211.406 215.052 C 211.441 213.419,211.441 210.747,211.406 209.115 C 211.371 207.482,211.342 208.818,211.342 212.083 M202.555 206.816 C 202.872 206.864,203.340 206.863,203.597 206.813 C 203.853 206.764,203.594 206.725,203.021 206.726 C 202.448 206.728,202.238 206.768,202.555 206.816 M210.291 210.104 C 210.291 211.708,210.324 212.337,210.363 211.501 C 210.403 210.666,210.403 209.353,210.363 208.585 C 210.323 207.816,210.290 208.500,210.291 210.104 M189.231 209.896 C 189.232 210.583,189.271 210.839,189.318 210.465 C 189.364 210.091,189.363 209.528,189.316 209.215 C 189.268 208.902,189.230 209.208,189.231 209.896 M190.693 211.146 C 190.694 211.948,190.732 212.251,190.777 211.818 C 190.822 211.386,190.821 210.730,190.775 210.360 C 190.729 209.990,190.692 210.344,190.693 211.146 M189.238 213.854 C 189.239 214.771,189.275 215.120,189.319 214.630 C 189.363 214.140,189.363 213.390,189.318 212.963 C 189.273 212.537,189.237 212.938,189.238 213.854 M210.487 215.833 C 210.487 216.693,210.523 217.044,210.568 216.615 C 210.613 216.185,210.613 215.482,210.568 215.052 C 210.523 214.622,210.487 214.974,210.487 215.833 M201.510 214.733 C 201.826 214.780,202.341 214.780,202.656 214.733 C 202.971 214.685,202.714 214.646,202.083 214.646 C 201.453 214.646,201.195 214.685,201.510 214.733 M194.792 215.000 L 194.063 215.153 194.727 215.181 C 195.093 215.196,195.450 215.115,195.521 215.000 C 195.592 214.885,195.621 214.804,195.585 214.819 C 195.550 214.834,195.193 214.916,194.792 215.000 M202.555 215.149 C 202.872 215.197,203.340 215.196,203.597 215.147 C 203.853 215.097,203.594 215.058,203.021 215.060 C 202.448 215.061,202.238 215.102,202.555 215.149 M190.492 217.292 C 190.492 218.380,190.527 218.826,190.570 218.281 C 190.613 217.737,190.613 216.846,190.570 216.302 C 190.527 215.758,190.492 216.203,190.492 217.292 M201.927 215.769 C 202.128 215.821,202.456 215.821,202.656 215.769 C 202.857 215.716,202.693 215.673,202.292 215.673 C 201.891 215.673,201.727 215.716,201.927 215.769 M202.660 216.193 C 203.034 216.239,203.597 216.238,203.910 216.191 C 204.223 216.143,203.917 216.105,203.229 216.106 C 202.542 216.107,202.286 216.146,202.660 216.193 M210.281 220.000 C 210.281 220.974,210.317 221.372,210.361 220.885 C 210.405 220.398,210.405 219.602,210.361 219.115 C 210.317 218.628,210.281 219.026,210.281 220.000 M189.248 222.292 C 189.248 223.839,189.281 224.471,189.321 223.698 C 189.361 222.924,189.361 221.659,189.321 220.885 C 189.281 220.112,189.248 220.745,189.248 222.292 M194.896 220.000 L 194.271 220.159 194.831 220.184 C 195.140 220.197,195.450 220.115,195.521 220.000 C 195.592 219.885,195.621 219.803,195.585 219.816 C 195.550 219.830,195.240 219.913,194.896 220.000 M199.167 221.749 C 199.167 221.951,199.754 222.027,200.019 221.859 C 200.233 221.724,200.157 221.672,199.740 221.670 C 199.424 221.668,199.167 221.704,199.167 221.749 M211.112 223.125 C 211.112 223.984,211.148 224.336,211.193 223.906 C 211.238 223.477,211.238 222.773,211.193 222.344 C 211.148 221.914,211.112 222.266,211.112 223.125 M210.205 223.916 L 210.306 225.104 210.374 224.086 C 210.411 223.525,210.366 222.991,210.273 222.897 C 210.180 222.804,210.150 223.263,210.205 223.916 M198.186 223.905 C 198.964 223.945,200.183 223.945,200.894 223.904 C 201.605 223.863,200.969 223.831,199.479 223.831 C 197.990 223.831,197.408 223.864,198.186 223.905 " stroke="none" fill="#7a6e6e" fill-rule="evenodd"></path><path id="path4" d="M111.346 76.510 C 111.291 76.654,111.271 83.849,111.302 92.500 L 111.357 108.229 111.408 92.347 L 111.458 76.464 117.760 76.406 L 124.063 76.348 117.754 76.299 C 112.862 76.261,111.423 76.308,111.346 76.510 M214.673 81.458 C 214.673 84.266,214.703 85.414,214.739 84.010 C 214.775 82.607,214.775 80.310,214.739 78.906 C 214.703 77.503,214.673 78.651,214.673 81.458 M264.667 79.583 C 264.667 81.359,264.699 82.086,264.738 81.198 C 264.777 80.310,264.777 78.857,264.738 77.969 C 264.699 77.081,264.667 77.807,264.667 79.583 M288.626 79.583 C 288.626 81.359,288.657 82.086,288.697 81.198 C 288.736 80.310,288.736 78.857,288.697 77.969 C 288.657 77.081,288.626 77.807,288.626 79.583 M142.383 80.677 L 141.771 81.354 142.448 80.742 C 142.820 80.406,143.125 80.101,143.125 80.065 C 143.125 79.904,142.953 80.046,142.383 80.677 M132.757 85.833 C 132.757 86.234,132.800 86.398,132.852 86.198 C 132.904 85.997,132.904 85.669,132.852 85.469 C 132.800 85.268,132.757 85.432,132.757 85.833 M119.228 89.113 C 120.122 89.153,121.528 89.152,122.353 89.113 C 123.179 89.073,122.448 89.041,120.729 89.042 C 119.010 89.042,118.335 89.074,119.228 89.113 M170.485 92.188 C 170.486 92.990,170.524 93.292,170.569 92.860 C 170.614 92.428,170.613 91.771,170.567 91.402 C 170.521 91.032,170.484 91.385,170.485 92.188 M182.771 92.292 C 182.771 92.922,182.810 93.180,182.858 92.865 C 182.905 92.549,182.905 92.034,182.858 91.719 C 182.810 91.404,182.771 91.661,182.771 92.292 M247.969 94.947 C 249.659 94.982,252.424 94.982,254.115 94.947 C 255.805 94.912,254.422 94.884,251.042 94.884 C 247.661 94.884,246.279 94.912,247.969 94.947 M214.539 100.938 C 214.506 103.630,214.549 105.834,214.635 105.834 C 214.721 105.833,214.792 103.630,214.792 100.938 C 214.792 98.245,214.748 96.042,214.695 96.042 C 214.642 96.042,214.571 98.245,214.539 100.938 M153.802 102.227 C 154.003 102.279,154.331 102.279,154.531 102.227 C 154.732 102.175,154.568 102.132,154.167 102.132 C 153.766 102.132,153.602 102.175,153.802 102.227 M165.614 103.906 L 164.896 104.688 165.677 103.970 C 166.404 103.301,166.554 103.125,166.395 103.125 C 166.360 103.125,166.009 103.477,165.614 103.906 M212.656 105.564 C 212.914 105.613,213.336 105.613,213.594 105.564 C 213.852 105.514,213.641 105.473,213.125 105.473 C 212.609 105.473,212.398 105.514,212.656 105.564 M224.950 106.814 C 225.209 106.864,225.584 106.862,225.784 106.810 C 225.983 106.758,225.771 106.717,225.313 106.719 C 224.854 106.722,224.691 106.764,224.950 106.814 M201.875 180.625 C 201.875 180.740,202.133 180.827,202.448 180.819 C 202.956 180.806,202.973 180.784,202.604 180.625 C 202.035 180.380,201.875 180.380,201.875 180.625 M201.563 184.792 C 201.633 184.906,201.897 184.993,202.148 184.985 C 202.588 184.971,202.589 184.964,202.188 184.792 C 201.614 184.545,201.410 184.545,201.563 184.792 M201.042 186.875 C 200.812 187.023,200.951 187.074,201.563 187.066 C 202.217 187.057,202.307 187.016,201.979 186.875 C 201.431 186.639,201.406 186.639,201.042 186.875 M200.625 187.917 C 200.241 188.040,200.434 188.083,201.354 188.083 C 202.275 188.083,202.467 188.040,202.083 187.917 C 201.797 187.825,201.469 187.750,201.354 187.750 C 201.240 187.750,200.911 187.825,200.625 187.917 M201.615 189.526 C 201.987 189.572,202.596 189.572,202.969 189.526 C 203.341 189.479,203.036 189.442,202.292 189.442 C 201.547 189.442,201.242 189.479,201.615 189.526 M199.637 190.000 C 199.953 190.095,200.656 190.098,201.200 190.007 C 202.132 189.850,202.099 189.840,200.625 189.834 C 199.482 189.829,199.217 189.874,199.637 190.000 M190.257 198.542 C 190.257 198.943,190.300 199.107,190.352 198.906 C 190.404 198.706,190.404 198.378,190.352 198.177 C 190.300 197.977,190.257 198.141,190.257 198.542 M197.810 198.962 C 197.738 199.078,197.599 199.124,197.500 199.063 C 197.401 199.001,197.266 199.040,197.198 199.149 C 196.951 199.549,197.457 199.560,197.817 199.162 C 198.022 198.935,198.134 198.750,198.065 198.750 C 197.997 198.750,197.882 198.845,197.810 198.962 M190.048 201.042 C 190.048 201.443,190.091 201.607,190.144 201.406 C 190.196 201.206,190.196 200.878,190.144 200.677 C 190.091 200.477,190.048 200.641,190.048 201.042 M210.886 201.146 C 210.888 201.604,210.931 201.767,210.981 201.508 C 211.031 201.249,211.029 200.874,210.976 200.675 C 210.924 200.475,210.884 200.688,210.886 201.146 M190.898 203.229 C 190.899 203.917,190.938 204.173,190.984 203.798 C 191.031 203.424,191.030 202.861,190.982 202.548 C 190.935 202.235,190.897 202.542,190.898 203.229 M189.840 203.542 C 189.840 203.943,189.883 204.107,189.935 203.906 C 189.988 203.706,189.988 203.378,189.935 203.177 C 189.883 202.977,189.840 203.141,189.840 203.542 M210.281 205.417 C 210.281 206.391,210.317 206.789,210.361 206.302 C 210.405 205.815,210.405 205.018,210.361 204.531 C 210.317 204.044,210.281 204.443,210.281 205.417 M211.108 205.000 C 211.108 205.745,211.146 206.049,211.192 205.677 C 211.239 205.305,211.239 204.695,211.192 204.323 C 211.146 203.951,211.108 204.255,211.108 205.000 M199.604 206.470 C 200.022 206.569,200.622 206.567,200.959 206.467 C 201.443 206.321,201.295 206.286,200.208 206.289 C 199.010 206.292,198.941 206.312,199.604 206.470 M202.865 206.397 C 203.122 206.447,203.544 206.447,203.802 206.397 C 204.060 206.347,203.849 206.307,203.333 206.307 C 202.818 206.307,202.607 206.347,202.865 206.397 M190.693 208.438 C 190.694 209.240,190.732 209.542,190.777 209.110 C 190.822 208.678,190.821 208.021,190.775 207.652 C 190.729 207.282,190.692 207.635,190.693 208.438 M200.208 208.304 C 200.380 208.395,201.130 208.407,201.875 208.329 L 203.229 208.189 201.563 208.163 C 200.627 208.149,200.033 208.211,200.208 208.304 M192.292 211.124 C 192.292 211.326,192.879 211.402,193.144 211.234 C 193.358 211.099,193.282 211.047,192.865 211.045 C 192.549 211.043,192.292 211.079,192.292 211.124 M210.489 212.708 C 210.489 213.682,210.525 214.081,210.569 213.594 C 210.613 213.107,210.613 212.310,210.569 211.823 C 210.525 211.336,210.489 211.734,210.489 212.708 M200.429 211.453 C 200.617 211.563,201.190 211.570,201.784 211.471 L 202.813 211.299 201.458 211.281 C 200.550 211.269,200.211 211.325,200.429 211.453 M200.208 212.478 C 200.380 212.574,201.224 212.585,202.083 212.503 L 203.646 212.353 201.771 212.329 C 200.670 212.314,200.025 212.376,200.208 212.478 M190.485 213.854 C 190.486 214.656,190.524 214.959,190.569 214.527 C 190.614 214.094,190.613 213.438,190.567 213.068 C 190.521 212.698,190.484 213.052,190.485 213.854 M200.740 213.716 C 200.848 213.812,201.500 213.826,202.188 213.747 L 203.438 213.603 201.990 213.572 C 201.193 213.555,200.631 213.620,200.740 213.716 M189.466 219.688 C 189.466 222.667,189.495 223.856,189.531 222.331 C 189.566 220.806,189.566 218.369,189.531 216.915 C 189.495 215.461,189.466 216.708,189.466 219.688 M200.000 214.799 C 200.427 214.900,200.811 214.892,200.927 214.778 C 201.050 214.657,200.774 214.591,200.198 214.605 L 199.271 214.626 200.000 214.799 M200.156 215.840 C 200.436 215.952,200.814 215.952,201.094 215.840 C 201.477 215.686,201.391 215.651,200.625 215.651 C 199.859 215.651,199.773 215.686,200.156 215.840 M203.385 215.769 C 203.586 215.821,203.914 215.821,204.115 215.769 C 204.315 215.716,204.151 215.673,203.750 215.673 C 203.349 215.673,203.185 215.716,203.385 215.769 M210.488 218.854 C 210.489 219.771,210.525 220.120,210.569 219.630 C 210.613 219.140,210.613 218.390,210.568 217.963 C 210.523 217.537,210.487 217.938,210.488 218.854 M211.117 219.792 C 211.117 220.880,211.152 221.326,211.195 220.781 C 211.238 220.237,211.238 219.346,211.195 218.802 C 211.152 218.258,211.117 218.703,211.117 219.792 M202.448 219.109 C 202.820 219.155,203.430 219.155,203.802 219.109 C 204.174 219.063,203.870 219.025,203.125 219.025 C 202.380 219.025,202.076 219.063,202.448 219.109 M190.291 222.083 C 190.291 223.745,190.323 224.424,190.363 223.594 C 190.403 222.763,190.403 221.404,190.363 220.573 C 190.323 219.742,190.291 220.422,190.291 222.083 M200.729 221.026 C 200.958 221.118,201.568 221.123,202.083 221.039 C 202.988 220.891,202.974 220.885,201.667 220.873 C 200.794 220.864,200.461 220.919,200.729 221.026 M202.347 222.233 C 202.663 222.281,203.132 222.279,203.388 222.230 C 203.645 222.181,203.385 222.141,202.813 222.143 C 202.240 222.144,202.030 222.185,202.347 222.233 " stroke="none" fill="#949494" fill-rule="evenodd"></path><path id="path5" d="M210.062 76.405 C 210.955 76.444,212.361 76.444,213.187 76.404 C 214.012 76.365,213.281 76.333,211.563 76.333 C 209.844 76.334,209.168 76.366,210.062 76.405 M226.198 76.405 C 227.372 76.443,229.294 76.443,230.469 76.405 C 231.643 76.368,230.682 76.338,228.333 76.338 C 225.984 76.338,225.023 76.368,226.198 76.405 M249.005 76.405 L 259.573 76.462 259.638 79.585 L 259.704 82.709 259.696 79.531 L 259.688 76.354 249.063 76.351 L 238.438 76.348 249.005 76.405 M270.677 76.406 C 273.971 76.438,279.362 76.438,282.656 76.406 C 285.951 76.374,283.255 76.348,276.667 76.348 C 270.078 76.348,267.383 76.374,270.677 76.406 M279.890 95.521 C 279.890 102.510,279.916 105.340,279.948 101.808 C 279.980 98.276,279.980 92.557,279.948 89.100 C 279.916 85.642,279.890 88.531,279.890 95.521 M248.476 101.823 C 250.445 101.857,253.727 101.857,255.768 101.823 C 257.809 101.789,256.198 101.761,252.188 101.760 C 248.177 101.760,246.507 101.788,248.476 101.823 M189.215 211.667 C 189.215 212.068,189.258 212.232,189.310 212.031 C 189.363 211.831,189.363 211.503,189.310 211.302 C 189.258 211.102,189.215 211.266,189.215 211.667 " stroke="none" fill="#8c8c8c" fill-rule="evenodd"></path></g></svg>