<svg id="svg" version="1.1" xmlns="http://www.w3.org/2000/svg" xmlns:xlink="http://www.w3.org/1999/xlink" width="400" height="225" viewBox="0, 0, 400,225"><g id="svgg"><path id="path0" d="M151.771 75.969 C 140.680 77.740,134.529 89.496,139.470 99.479 C 142.286 105.170,148.593 109.167,153.071 108.100 C 154.726 107.706,155.169 107.706,156.611 108.104 C 159.842 108.996,166.394 104.377,168.707 99.578 C 174.461 87.639,164.617 73.917,151.771 75.969 M190.350 76.055 C 177.280 77.558,171.277 92.958,179.809 103.095 L 181.061 104.582 182.041 104.468 C 182.580 104.405,183.558 104.215,184.215 104.047 C 184.871 103.878,186.512 103.692,187.860 103.632 C 189.209 103.572,190.641 103.437,191.042 103.331 C 191.443 103.225,192.146 103.079,192.604 103.008 C 193.469 102.872,195.697 102.190,196.260 101.888 C 196.438 101.793,197.122 101.595,197.780 101.447 C 199.094 101.153,199.305 100.999,198.879 100.645 C 198.662 100.465,198.381 100.534,197.683 100.936 C 190.350 105.161,181.588 99.106,182.912 90.729 C 183.892 84.530,190.670 80.767,196.458 83.209 C 197.203 83.524,197.938 83.797,198.091 83.817 C 198.687 83.896,202.284 79.516,201.940 79.129 C 200.290 77.275,194.074 75.627,190.350 76.055 M111.458 92.304 L 111.458 108.170 113.906 108.042 C 115.253 107.971,116.635 107.891,116.979 107.863 L 117.604 107.813 117.659 101.606 L 117.715 95.399 119.320 95.460 L 120.925 95.521 123.848 101.816 L 126.771 108.110 130.136 108.118 L 133.502 108.125 130.397 101.436 C 126.835 93.763,127.091 94.548,128.012 94.109 C 134.554 90.989,134.129 80.704,127.319 77.337 L 125.752 76.563 118.605 76.500 L 111.458 76.438 111.458 92.304 M208.333 88.333 C 208.333 94.865,208.404 100.207,208.490 100.206 C 208.576 100.205,209.660 99.830,210.899 99.373 C 212.139 98.916,213.475 98.542,213.868 98.542 L 214.583 98.542 214.583 97.350 C 214.583 96.179,214.604 96.137,215.775 94.954 C 217.266 93.447,217.041 93.367,218.471 95.917 L 219.685 98.085 220.728 98.239 C 222.006 98.427,226.197 98.113,226.630 97.796 C 226.668 97.769,225.629 95.933,224.321 93.717 C 223.014 91.501,221.832 89.478,221.695 89.221 C 221.464 88.788,221.822 88.337,226.869 82.707 C 229.852 79.380,232.292 76.613,232.292 76.558 C 232.292 76.503,230.419 76.458,228.130 76.458 L 223.968 76.458 219.432 81.458 C 216.937 84.208,214.826 86.458,214.740 86.458 C 214.654 86.458,214.583 84.208,214.583 81.458 L 214.583 76.458 211.458 76.458 L 208.333 76.458 208.333 88.333 M238.542 86.899 L 238.542 97.339 239.531 97.191 C 240.076 97.109,240.661 96.969,240.833 96.880 C 241.005 96.790,241.961 96.651,242.957 96.570 L 244.769 96.423 244.832 95.659 L 244.896 94.896 250.990 94.841 L 257.083 94.785 257.083 91.664 L 257.083 88.542 250.938 88.542 L 244.792 88.542 244.792 85.625 L 244.792 82.708 252.188 82.708 L 259.583 82.708 259.583 79.583 L 259.583 76.458 249.063 76.458 L 238.542 76.458 238.542 86.899 M264.792 79.583 L 264.792 82.708 269.167 82.708 L 273.542 82.708 273.542 90.806 L 273.542 98.905 274.740 99.041 C 275.398 99.116,276.313 99.312,276.771 99.476 C 277.229 99.639,278.096 99.777,278.698 99.783 L 279.792 99.792 279.792 91.250 L 279.792 82.708 284.167 82.708 L 288.542 82.708 288.542 79.583 L 288.542 76.458 276.667 76.458 L 264.792 76.458 264.792 79.583 M156.555 82.611 C 163.999 84.550,166.546 93.825,161.123 99.248 C 155.661 104.710,146.434 102.160,144.477 94.647 C 142.610 87.479,149.372 80.740,156.555 82.611 M125.000 83.177 C 126.428 84.152,126.892 86.177,125.990 87.502 C 124.999 88.957,124.701 89.055,121.027 89.133 L 117.708 89.203 117.708 85.956 L 117.708 82.708 121.011 82.708 C 124.093 82.708,124.359 82.740,125.000 83.177 M199.518 153.906 C 199.122 154.565,198.494 155.807,198.122 156.667 C 197.750 157.526,197.039 159.040,196.543 160.032 C 196.047 161.023,195.303 162.986,194.890 164.394 C 194.477 165.802,194.059 167.104,193.960 167.289 C 192.624 169.785,190.827 179.253,190.105 187.604 C 189.926 189.667,189.644 192.854,189.478 194.688 C 189.150 198.304,189.372 218.780,189.780 222.500 C 189.886 223.474,189.980 224.435,189.987 224.635 C 189.995 224.865,190.165 225.000,190.444 225.000 C 190.862 225.000,190.954 220.433,190.585 218.021 C 190.550 217.792,190.625 217.623,190.752 217.647 C 193.910 218.225,205.507 218.203,208.193 217.613 C 210.181 217.176,210.081 217.071,209.820 219.306 C 209.300 223.756,209.282 225.000,209.735 225.000 C 210.224 225.000,210.263 224.646,210.663 216.667 C 211.620 197.569,210.795 183.490,208.190 174.479 C 207.561 172.302,206.638 168.974,206.140 167.083 C 205.229 163.627,204.627 162.028,201.966 155.994 C 200.302 152.222,200.454 152.351,199.518 153.906 M201.421 156.094 C 203.299 160.397,204.978 165.284,206.040 169.542 C 206.374 170.882,206.887 172.763,207.178 173.722 C 207.935 176.210,207.953 176.153,206.302 176.487 C 204.402 176.871,196.495 176.870,194.401 176.485 L 192.864 176.203 192.990 175.133 C 193.059 174.544,193.347 173.266,193.629 172.292 C 193.912 171.318,194.439 169.396,194.802 168.021 C 195.579 165.076,195.963 164.032,197.752 160.000 C 198.489 158.339,199.354 156.346,199.674 155.573 C 200.411 153.790,200.416 153.791,201.421 156.094 M202.083 164.375 C 201.829 164.539,201.856 164.578,202.227 164.580 C 202.478 164.582,202.742 164.490,202.813 164.375 C 202.976 164.110,202.494 164.110,202.083 164.375 M202.500 166.458 C 202.003 166.618,202.009 166.626,202.644 166.646 C 203.010 166.657,203.367 166.573,203.438 166.458 C 203.586 166.219,203.248 166.219,202.500 166.458 M202.659 167.856 C 202.918 167.906,203.293 167.904,203.492 167.851 C 203.691 167.799,203.479 167.759,203.021 167.761 C 202.563 167.763,202.400 167.806,202.659 167.856 M202.708 168.750 L 201.979 168.903 202.813 168.916 C 203.271 168.923,203.833 168.848,204.063 168.750 C 204.605 168.517,203.816 168.517,202.708 168.750 M202.500 169.792 C 201.779 169.944,201.781 169.945,202.708 169.952 C 203.224 169.955,203.880 169.883,204.167 169.792 C 204.872 169.566,203.573 169.566,202.500 169.792 M202.930 170.862 C 201.337 171.126,201.339 171.277,202.934 171.115 C 204.374 170.970,205.569 170.641,204.583 170.663 C 204.297 170.669,203.553 170.758,202.930 170.862 M202.917 171.694 C 201.216 171.972,201.159 172.098,202.798 171.958 C 204.285 171.830,205.667 171.473,204.583 171.496 C 204.297 171.502,203.547 171.591,202.917 171.694 M203.229 172.833 L 201.563 173.107 203.021 173.027 C 203.823 172.982,204.714 172.852,205.000 172.736 C 205.658 172.471,205.313 172.490,203.229 172.833 M202.708 173.871 L 201.146 174.146 202.708 174.048 C 203.568 173.994,204.552 173.866,204.896 173.764 L 205.521 173.577 204.896 173.587 C 204.552 173.592,203.568 173.719,202.708 173.871 M202.917 174.920 L 201.354 175.195 202.917 175.099 C 203.776 175.046,204.760 174.917,205.104 174.811 L 205.729 174.619 205.104 174.632 C 204.760 174.639,203.776 174.769,202.917 174.920 M203.646 175.842 C 202.066 176.093,201.645 176.211,202.292 176.221 C 203.295 176.236,205.957 175.779,206.183 175.553 C 206.258 175.478,206.234 175.430,206.128 175.447 C 206.023 175.464,204.906 175.642,203.646 175.842 M208.290 178.594 C 208.757 180.217,209.294 183.926,209.510 187.015 L 209.643 188.926 208.759 189.164 C 203.471 190.588,197.714 190.787,192.396 189.728 C 190.695 189.389,190.684 189.144,192.014 180.729 C 192.625 176.863,192.497 177.172,193.320 177.597 C 193.678 177.782,194.069 177.873,194.190 177.798 C 194.310 177.724,196.722 177.671,199.548 177.682 C 203.265 177.696,205.005 177.622,205.833 177.415 C 207.841 176.914,207.802 176.895,208.290 178.594 M204.479 177.960 C 201.521 178.292,200.933 178.386,201.200 178.483 C 201.537 178.605,205.532 178.177,206.354 177.931 C 207.110 177.705,206.691 177.712,204.479 177.960 M194.167 178.542 C 194.339 178.653,194.667 178.744,194.896 178.744 C 195.241 178.744,195.259 178.709,195.000 178.542 C 194.828 178.431,194.500 178.340,194.271 178.340 C 193.926 178.340,193.908 178.374,194.167 178.542 M204.479 178.849 C 203.448 178.990,201.854 179.062,200.938 179.010 C 198.895 178.894,197.397 179.383,195.980 180.631 C 195.184 181.332,194.937 181.440,194.344 181.351 L 193.646 181.245 194.330 181.511 C 195.116 181.818,194.905 182.282,193.969 182.305 C 193.444 182.318,193.443 182.320,193.906 182.506 C 194.578 182.777,194.510 183.330,193.802 183.347 C 193.251 183.359,193.247 183.367,193.698 183.548 C 194.405 183.832,194.323 184.545,193.594 184.454 C 193.026 184.384,193.027 184.385,193.646 184.603 C 194.083 184.756,194.379 185.077,194.632 185.669 C 195.086 186.732,195.086 186.732,197.201 183.634 C 200.214 179.224,199.952 179.522,200.692 179.670 C 202.134 179.958,202.100 180.114,199.883 183.470 C 198.760 185.171,197.565 186.918,197.228 187.353 C 196.892 187.788,196.657 188.184,196.706 188.234 C 196.876 188.404,198.307 186.512,199.779 184.172 C 201.591 181.291,202.247 180.473,202.407 180.893 C 202.573 181.324,200.027 185.411,198.196 187.655 C 197.351 188.690,197.391 188.829,198.630 189.141 C 201.508 189.866,204.576 188.696,205.952 186.349 C 206.400 185.584,206.607 185.417,207.103 185.417 C 207.436 185.417,207.708 185.339,207.708 185.244 C 207.708 185.150,207.415 185.115,207.057 185.168 C 206.568 185.240,206.429 185.192,206.500 184.975 C 206.552 184.817,206.845 184.658,207.151 184.622 C 207.458 184.585,207.708 184.466,207.708 184.357 C 207.708 184.248,207.474 184.218,207.188 184.289 C 206.794 184.388,206.667 184.338,206.667 184.085 C 206.667 183.892,206.838 183.750,207.071 183.750 C 207.293 183.750,207.536 183.652,207.609 183.533 C 207.696 183.393,207.554 183.364,207.205 183.452 C 206.793 183.555,206.667 183.508,206.667 183.252 C 206.667 183.056,206.839 182.917,207.083 182.917 C 207.313 182.917,207.500 182.836,207.500 182.737 C 207.500 182.639,207.266 182.603,206.979 182.657 C 206.605 182.729,206.458 182.666,206.458 182.434 C 206.458 182.256,206.669 182.072,206.927 182.024 C 207.227 181.969,207.170 181.945,206.771 181.958 C 206.347 181.972,206.146 181.879,206.146 181.669 C 206.146 181.495,206.421 181.294,206.771 181.213 C 207.286 181.094,207.234 181.075,206.477 181.107 C 205.251 181.159,205.115 180.716,206.291 180.503 C 206.784 180.413,207.019 180.303,206.813 180.257 C 206.608 180.212,206.154 180.274,205.806 180.395 C 205.262 180.585,205.066 180.543,204.413 180.100 C 203.995 179.816,203.534 179.583,203.389 179.583 C 202.467 179.583,203.378 179.203,204.564 179.093 C 205.356 179.019,206.223 178.871,206.491 178.764 C 207.102 178.519,206.819 178.531,204.479 178.849 M194.271 179.583 C 194.844 179.830,195.048 179.830,194.896 179.583 C 194.825 179.469,194.562 179.382,194.311 179.390 C 193.871 179.404,193.869 179.411,194.271 179.583 M205.625 179.583 L 204.896 179.737 205.625 179.743 C 206.026 179.747,206.589 179.675,206.875 179.583 L 207.396 179.417 206.875 179.423 C 206.589 179.427,206.026 179.499,205.625 179.583 M193.958 180.417 C 194.130 180.528,194.458 180.619,194.688 180.619 C 195.033 180.619,195.050 180.584,194.792 180.417 C 194.620 180.306,194.292 180.215,194.063 180.215 C 193.717 180.215,193.700 180.249,193.958 180.417 M193.229 185.833 C 193.846 186.098,194.577 186.098,194.167 185.833 C 193.995 185.722,193.620 185.637,193.333 185.643 C 192.856 185.653,192.848 185.669,193.229 185.833 M207.083 186.042 L 206.563 186.208 207.083 186.215 C 207.370 186.218,207.792 186.140,208.021 186.042 L 208.438 185.863 208.021 185.869 C 207.792 185.872,207.370 185.950,207.083 186.042 M193.125 186.875 C 193.297 186.986,193.672 187.069,193.958 187.059 L 194.479 187.042 193.958 186.875 C 193.155 186.618,192.727 186.618,193.125 186.875 M206.992 186.901 C 205.833 187.172,205.753 187.369,206.875 187.188 C 207.837 187.032,208.770 186.664,208.125 186.694 C 207.953 186.702,207.443 186.795,206.992 186.901 M206.667 187.829 L 205.521 188.112 206.656 188.002 C 207.280 187.941,207.936 187.806,208.114 187.702 C 208.575 187.432,208.112 187.473,206.667 187.829 M193.125 187.917 C 193.297 188.028,193.672 188.113,193.958 188.107 C 194.435 188.097,194.444 188.081,194.063 187.917 C 193.446 187.652,192.715 187.652,193.125 187.917 M206.250 188.744 C 205.276 188.948,204.673 189.127,204.910 189.141 C 205.507 189.177,207.745 188.750,208.125 188.528 C 208.544 188.284,208.325 188.309,206.250 188.744 M193.333 189.167 C 193.620 189.258,194.089 189.333,194.375 189.333 L 194.896 189.333 194.375 189.167 C 194.089 189.075,193.620 189.000,193.333 189.000 L 192.813 189.000 193.333 189.167 M210.255 201.284 C 210.287 206.057,210.252 210.023,210.179 210.098 C 209.325 210.959,201.255 211.399,193.906 210.984 C 191.076 210.825,190.348 210.968,191.661 211.425 C 194.407 212.383,205.545 212.204,209.667 211.137 L 210.272 210.980 210.155 213.534 C 210.015 216.577,210.203 216.339,207.496 216.890 C 204.344 217.532,191.949 217.375,190.643 216.676 C 190.040 216.354,190.117 197.535,190.746 191.340 L 190.854 190.285 193.396 190.683 C 197.955 191.397,204.071 191.167,208.114 190.130 L 209.896 189.673 210.047 191.139 C 210.130 191.945,210.224 196.510,210.255 201.284 M205.625 191.492 C 204.995 191.598,203.448 191.769,202.188 191.871 L 199.896 192.058 202.604 191.966 C 204.094 191.916,205.875 191.744,206.563 191.584 C 207.970 191.256,207.371 191.197,205.625 191.492 M193.229 191.875 C 194.146 192.108,195.312 192.108,194.583 191.875 C 194.297 191.783,193.734 191.710,193.333 191.712 L 192.604 191.716 193.229 191.875 M205.833 192.317 C 205.318 192.420,203.818 192.584,202.500 192.681 L 200.104 192.857 201.875 192.886 C 203.456 192.912,207.433 192.428,207.681 192.180 C 207.826 192.035,206.893 192.104,205.833 192.317 M192.726 192.577 C 192.773 192.620,193.281 192.712,193.854 192.782 C 194.555 192.867,194.760 192.847,194.479 192.719 C 194.083 192.539,192.543 192.414,192.726 192.577 M206.042 193.362 C 205.526 193.467,203.885 193.638,202.396 193.742 L 199.688 193.930 202.604 193.842 C 204.208 193.794,206.083 193.622,206.771 193.461 C 208.146 193.138,207.540 193.056,206.042 193.362 M193.125 193.750 C 193.411 193.842,193.927 193.917,194.271 193.917 C 194.879 193.917,194.881 193.912,194.375 193.750 C 194.089 193.658,193.573 193.583,193.229 193.583 C 192.621 193.583,192.619 193.588,193.125 193.750 M207.455 194.281 C 207.392 194.344,205.853 194.528,204.035 194.690 L 200.729 194.985 203.438 194.888 C 205.740 194.805,209.312 194.259,208.003 194.190 C 207.765 194.177,207.518 194.218,207.455 194.281 M192.813 194.583 C 193.042 194.682,193.510 194.758,193.854 194.752 L 194.479 194.742 193.854 194.583 C 193.510 194.496,193.042 194.420,192.813 194.414 L 192.396 194.404 192.813 194.583 M206.623 195.321 C 206.561 195.383,205.116 195.517,203.412 195.619 L 200.313 195.804 203.438 195.720 C 205.156 195.673,206.891 195.549,207.292 195.443 L 208.021 195.251 207.378 195.230 C 207.025 195.218,206.685 195.259,206.623 195.321 M192.708 195.625 C 192.995 195.717,193.557 195.790,193.958 195.788 L 194.688 195.784 194.063 195.625 C 193.145 195.392,191.980 195.392,192.708 195.625 M205.938 196.255 C 205.365 196.346,204.052 196.494,203.021 196.583 C 201.990 196.673,201.375 196.784,201.654 196.831 C 202.275 196.933,206.609 196.501,207.429 196.255 C 208.229 196.015,207.453 196.015,205.938 196.255 M193.284 196.606 C 193.543 196.656,193.918 196.654,194.117 196.601 C 194.316 196.549,194.104 196.509,193.646 196.511 C 193.188 196.513,193.025 196.556,193.284 196.606 M207.032 197.205 C 206.965 197.271,205.520 197.398,203.820 197.486 L 200.729 197.645 203.125 197.667 C 205.154 197.686,209.274 197.181,207.691 197.108 C 207.395 197.095,207.098 197.138,207.032 197.205 M192.813 197.500 C 193.042 197.598,193.557 197.675,193.958 197.669 L 194.688 197.659 194.063 197.500 C 193.127 197.262,192.258 197.262,192.813 197.500 M207.032 198.246 C 206.965 198.313,205.520 198.439,203.820 198.527 L 200.729 198.687 203.125 198.709 C 205.154 198.727,209.274 198.223,207.691 198.150 C 207.395 198.136,207.098 198.180,207.032 198.246 M192.813 198.531 C 193.209 198.711,194.749 198.836,194.566 198.673 C 194.518 198.630,194.010 198.538,193.438 198.468 C 192.736 198.383,192.532 198.403,192.813 198.531 M205.104 199.412 C 202.167 199.740,201.627 199.821,201.723 199.917 C 201.847 200.041,206.357 199.611,207.292 199.385 C 208.298 199.143,207.418 199.153,205.104 199.412 M193.284 199.731 C 193.543 199.781,193.918 199.779,194.117 199.726 C 194.316 199.674,194.104 199.634,193.646 199.636 C 193.188 199.638,193.025 199.681,193.284 199.731 M205.938 200.436 C 205.250 200.532,203.891 200.702,202.917 200.813 L 201.146 201.017 203.438 200.911 C 204.698 200.853,206.339 200.683,207.083 200.532 C 208.593 200.227,207.871 200.166,205.938 200.436 M193.438 200.845 C 193.896 200.940,194.458 201.016,194.688 201.015 L 195.104 201.012 194.688 200.833 C 194.458 200.735,193.896 200.658,193.438 200.664 L 192.604 200.673 193.438 200.845 M205.938 201.672 C 205.365 201.762,204.146 201.908,203.229 201.996 C 202.313 202.083,201.741 202.195,201.960 202.245 C 202.460 202.358,206.558 201.934,207.396 201.682 C 208.220 201.434,207.474 201.429,205.938 201.672 M193.438 202.083 C 194.355 202.317,195.520 202.317,194.792 202.083 C 194.505 201.992,193.943 201.918,193.542 201.920 L 192.813 201.924 193.438 202.083 M205.729 202.845 C 205.500 202.888,204.328 203.011,203.125 203.117 L 200.938 203.310 203.542 203.213 C 204.974 203.160,206.474 203.034,206.875 202.934 L 207.604 202.751 206.875 202.758 C 206.474 202.762,205.958 202.801,205.729 202.845 M193.125 203.125 C 193.411 203.217,194.021 203.290,194.479 203.289 L 195.313 203.285 194.479 203.113 C 194.021 203.018,193.411 202.945,193.125 202.949 L 192.604 202.958 193.125 203.125 M206.696 203.776 C 206.082 203.878,204.535 204.049,203.259 204.156 L 200.938 204.350 203.646 204.262 C 205.135 204.214,206.870 204.042,207.500 203.881 C 208.791 203.551,208.378 203.496,206.696 203.776 M193.438 204.167 C 194.373 204.405,195.242 204.405,194.688 204.167 C 194.458 204.068,193.943 203.992,193.542 203.998 L 192.813 204.008 193.438 204.167 M207.083 204.802 C 206.568 204.894,204.974 204.988,203.542 205.011 C 201.251 205.047,201.076 205.074,202.083 205.231 C 203.267 205.416,207.080 205.153,208.229 204.807 C 209.001 204.575,208.376 204.572,207.083 204.802 M192.917 205.198 C 193.430 205.373,195.151 205.490,194.983 205.339 C 194.935 205.296,194.333 205.206,193.646 205.140 C 192.836 205.062,192.579 205.082,192.917 205.198 M206.828 205.742 C 206.764 205.806,205.412 205.939,203.824 206.039 L 200.938 206.219 203.854 206.144 C 206.426 206.078,209.169 205.699,207.483 205.643 C 207.187 205.633,206.892 205.677,206.828 205.742 M193.490 206.189 C 193.747 206.238,194.169 206.238,194.427 206.189 C 194.685 206.139,194.474 206.098,193.958 206.098 C 193.443 206.098,193.232 206.139,193.490 206.189 M206.538 206.795 C 206.410 206.848,205.238 206.975,203.934 207.078 L 201.563 207.265 204.063 207.178 C 206.390 207.096,209.059 206.717,207.396 206.704 C 207.052 206.702,206.666 206.743,206.538 206.795 M193.125 207.083 C 193.411 207.175,193.974 207.249,194.375 207.247 L 195.104 207.244 194.271 207.071 C 193.158 206.841,192.394 206.849,193.125 207.083 M206.875 207.744 C 206.359 207.853,204.813 208.023,203.438 208.121 L 200.938 208.300 203.646 208.225 C 205.135 208.185,206.870 208.015,207.500 207.849 C 208.779 207.511,208.331 207.436,206.875 207.744 M193.229 208.125 C 193.573 208.212,194.182 208.284,194.583 208.284 L 195.313 208.284 194.688 208.125 C 194.344 208.038,193.734 207.966,193.333 207.966 L 192.604 207.966 193.229 208.125 M205.104 209.005 C 203.071 209.211,202.199 209.355,202.319 209.466 C 202.442 209.579,206.514 209.194,207.411 208.984 C 208.482 208.733,207.734 208.740,205.104 209.005 M193.241 209.186 C 193.305 209.290,193.743 209.375,194.214 209.375 C 195.271 209.375,195.183 209.261,194.010 209.111 C 193.505 209.047,193.175 209.079,193.241 209.186 M206.667 209.826 C 206.151 209.934,204.464 210.104,202.917 210.203 L 200.104 210.384 203.125 210.303 C 204.786 210.259,206.708 210.089,207.396 209.924 C 208.775 209.595,208.160 209.512,206.667 209.826 M193.438 210.220 C 194.650 210.471,195.191 210.466,194.792 210.208 C 194.620 210.097,194.057 210.016,193.542 210.027 L 192.604 210.048 193.438 210.220 M192.856 212.982 C 192.778 213.187,192.495 213.333,192.180 213.333 C 191.729 213.333,191.661 213.405,191.774 213.760 C 191.848 213.995,191.806 214.311,191.679 214.464 C 191.503 214.676,191.547 214.766,191.870 214.851 C 192.101 214.911,192.371 215.178,192.469 215.443 L 192.647 215.925 192.932 215.470 C 193.143 215.131,193.343 215.047,193.714 215.140 C 194.175 215.256,194.193 215.230,193.961 214.798 C 193.781 214.460,193.774 214.267,193.939 214.103 C 194.278 213.764,194.215 213.542,193.782 213.542 C 193.570 213.542,193.306 213.337,193.194 213.086 C 193.017 212.690,192.973 212.677,192.856 212.982 M207.375 213.073 C 207.285 213.393,207.084 213.542,206.742 213.542 C 206.260 213.542,206.253 213.561,206.569 214.043 C 206.787 214.376,206.824 214.590,206.678 214.681 C 206.258 214.940,206.454 215.255,206.957 215.128 C 207.295 215.043,207.495 215.103,207.576 215.314 C 207.730 215.716,208.125 215.718,208.125 215.316 C 208.125 215.147,208.362 214.948,208.651 214.876 C 209.062 214.773,209.127 214.682,208.947 214.465 C 208.820 214.312,208.777 213.995,208.851 213.760 C 208.963 213.407,208.896 213.333,208.462 213.333 C 208.173 213.333,207.840 213.169,207.722 212.969 C 207.525 212.636,207.495 212.645,207.375 213.073 M197.658 213.528 C 197.414 213.877,197.212 213.961,196.876 213.854 C 196.468 213.725,196.446 213.754,196.656 214.147 C 196.824 214.460,196.827 214.701,196.667 215.000 C 196.472 215.364,196.508 215.417,196.958 215.417 C 197.296 215.417,197.519 215.565,197.610 215.851 L 197.748 216.286 198.065 215.834 C 198.266 215.547,198.526 215.418,198.774 215.483 C 199.224 215.601,199.247 215.540,198.958 214.999 C 198.818 214.738,198.818 214.566,198.958 214.480 C 199.313 214.260,199.189 213.958,198.743 213.958 C 198.500 213.958,198.249 213.767,198.153 213.508 L 197.987 213.058 197.658 213.528 M202.591 213.490 C 202.496 213.808,202.290 213.958,201.948 213.958 C 201.500 213.958,201.470 214.007,201.679 214.397 C 201.849 214.715,201.851 214.899,201.686 215.064 C 201.326 215.424,201.419 215.575,201.940 215.475 C 202.293 215.408,202.479 215.511,202.636 215.864 L 202.851 216.346 203.099 215.881 C 203.236 215.626,203.532 215.417,203.757 215.417 C 204.223 215.417,204.282 215.199,203.917 214.833 C 203.722 214.639,203.722 214.528,203.917 214.333 C 204.312 213.938,204.209 213.731,203.684 213.863 C 203.316 213.955,203.144 213.869,202.966 213.503 L 202.731 213.021 202.591 213.490 M193.597 218.483 C 193.913 218.531,194.382 218.529,194.638 218.480 C 194.895 218.431,194.635 218.391,194.063 218.393 C 193.490 218.394,193.280 218.435,193.597 218.483 M203.229 218.542 L 201.146 218.669 203.229 218.691 C 204.375 218.704,205.781 218.640,206.354 218.551 L 207.396 218.389 206.354 218.402 C 205.781 218.408,204.375 218.471,203.229 218.542 M193.958 219.583 C 194.130 219.694,194.552 219.780,194.896 219.774 C 195.432 219.764,195.462 219.737,195.104 219.583 C 194.491 219.320,193.551 219.320,193.958 219.583 M204.204 219.593 C 203.135 219.681,202.198 219.819,202.120 219.899 C 201.965 220.062,205.390 219.833,206.875 219.582 L 207.813 219.424 206.979 219.429 C 206.521 219.432,205.272 219.506,204.204 219.593 M193.767 220.491 C 194.002 220.691,195.208 220.799,195.208 220.620 C 195.208 220.508,194.865 220.417,194.444 220.417 C 194.024 220.417,193.720 220.450,193.767 220.491 M202.917 220.833 L 200.313 220.957 202.917 220.981 C 204.349 220.994,205.990 220.932,206.563 220.843 L 207.604 220.681 206.563 220.695 C 205.990 220.703,204.349 220.765,202.917 220.833 M194.271 221.667 C 194.197 221.787,194.390 221.874,194.727 221.872 C 195.182 221.869,195.243 221.823,195.000 221.667 C 194.600 221.408,194.431 221.408,194.271 221.667 M203.125 221.875 L 200.104 221.997 203.021 222.028 C 204.625 222.045,206.313 221.982,206.771 221.887 L 207.604 221.715 206.875 221.734 C 206.474 221.745,204.786 221.808,203.125 221.875 M194.427 222.852 C 194.628 222.904,194.956 222.904,195.156 222.852 C 195.357 222.800,195.193 222.757,194.792 222.757 C 194.391 222.757,194.227 222.800,194.427 222.852 M203.021 222.917 L 200.729 223.043 203.021 223.068 C 204.281 223.083,205.734 223.019,206.250 222.927 L 207.188 222.760 206.250 222.776 C 205.734 222.784,204.281 222.847,203.021 222.917 M203.542 223.875 L 200.521 224.140 203.333 224.043 C 204.880 223.990,206.521 223.866,206.979 223.768 C 208.147 223.518,207.310 223.544,203.542 223.875 M204.328 224.944 C 204.818 224.988,205.568 224.988,205.995 224.943 C 206.422 224.898,206.021 224.862,205.104 224.863 C 204.188 224.864,203.838 224.900,204.328 224.944 " stroke="none" fill="#f6f6f6" fill-rule="evenodd"></path><path id="path1" d="M0.000 112.500 L 0.000 225.000 94.905 225.000 L 189.811 225.000 189.680 222.865 C 189.609 221.690,189.503 220.589,189.445 220.417 C 189.388 220.245,189.261 215.276,189.164 209.375 L 188.988 198.646 189.594 191.563 C 190.701 178.626,191.573 173.604,193.830 167.184 C 194.232 166.040,194.712 164.495,194.897 163.750 C 195.081 163.005,195.595 161.646,196.037 160.729 C 196.480 159.813,197.444 157.797,198.180 156.250 C 199.448 153.583,200.256 152.269,200.483 152.500 C 200.629 152.648,203.831 159.899,204.703 162.055 C 205.103 163.045,205.619 164.604,205.851 165.521 C 206.082 166.438,206.966 169.625,207.815 172.604 C 211.309 184.861,212.129 200.525,210.451 222.969 L 210.299 225.000 305.149 225.000 L 400.000 225.000 400.000 112.500 L 400.000 0.000 200.000 0.000 L 0.000 0.000 0.000 112.500 M158.193 76.273 C 169.003 78.955,174.034 91.693,167.995 101.094 C 161.520 111.173,146.782 111.277,140.325 101.290 C 132.151 88.647,143.578 72.648,158.193 76.273 M196.354 76.345 C 198.401 76.898,202.292 78.887,202.292 79.379 C 202.292 79.473,201.397 80.581,200.304 81.843 L 198.315 84.136 197.022 83.535 C 191.392 80.919,184.745 83.901,183.228 89.725 C 181.052 98.082,189.442 104.943,197.112 101.079 L 198.703 100.277 200.653 102.532 C 203.046 105.301,202.977 104.985,201.414 106.001 C 190.253 113.259,175.724 105.556,175.751 92.396 C 175.773 81.536,186.023 73.551,196.354 76.345 M125.250 76.481 C 133.603 78.230,135.617 90.345,128.185 94.136 L 127.323 94.576 130.433 101.270 C 132.143 104.952,133.542 108.048,133.542 108.149 C 133.542 108.454,126.962 108.380,126.726 108.073 C 126.616 107.930,125.232 105.023,123.650 101.615 L 120.773 95.417 119.241 95.417 L 117.708 95.417 117.708 101.771 L 117.708 108.125 114.479 108.125 L 111.250 108.125 111.250 92.188 L 111.250 76.250 117.698 76.250 C 121.619 76.250,124.579 76.341,125.250 76.481 M214.840 81.283 L 214.896 86.315 219.450 81.283 L 224.004 76.250 228.252 76.250 C 230.588 76.250,232.500 76.320,232.500 76.406 C 232.499 76.492,230.064 79.281,227.087 82.604 C 224.111 85.927,221.675 88.740,221.675 88.854 C 221.674 88.969,224.195 93.328,227.275 98.542 L 232.877 108.021 229.206 108.078 C 227.187 108.109,225.432 108.096,225.307 108.047 C 225.181 107.999,223.303 104.769,221.133 100.869 L 217.188 93.779 215.990 94.956 L 214.792 96.133 214.792 102.129 L 214.792 108.125 211.563 108.125 L 208.333 108.125 208.333 92.188 L 208.333 76.250 211.559 76.250 L 214.784 76.250 214.840 81.283 M259.792 79.479 L 259.792 82.708 252.396 82.708 L 245.000 82.708 245.000 85.625 L 245.000 88.542 251.042 88.542 L 257.083 88.542 257.083 91.771 L 257.083 95.000 251.042 95.000 L 245.000 95.000 245.000 98.333 L 245.000 101.667 252.292 101.667 L 259.583 101.667 259.583 105.002 L 259.583 108.337 249.010 108.283 L 238.438 108.229 238.384 92.500 C 238.354 83.849,238.375 76.654,238.429 76.510 C 238.507 76.307,240.847 76.250,249.160 76.250 L 259.792 76.250 259.792 79.479 M288.750 79.479 L 288.750 82.708 284.377 82.708 L 280.003 82.708 279.950 95.469 L 279.896 108.229 276.720 108.287 L 273.545 108.344 273.491 95.578 L 273.438 82.813 269.010 82.756 L 264.583 82.700 264.583 79.475 L 264.583 76.250 276.667 76.250 L 288.750 76.250 288.750 79.479 M151.354 82.793 C 144.065 85.107,141.882 94.186,147.378 99.327 C 155.472 106.899,167.812 97.575,162.797 87.677 C 160.799 83.735,155.504 81.474,151.354 82.793 M117.708 85.833 L 117.708 88.958 120.889 88.958 C 125.262 88.958,126.785 87.968,126.352 85.406 C 125.996 83.294,124.745 82.711,120.573 82.709 L 117.708 82.708 117.708 85.833 M142.396 116.888 C 144.579 117.563,148.542 119.731,148.542 120.250 C 148.542 120.443,145.769 125.076,145.406 125.489 C 145.321 125.586,144.729 125.331,144.091 124.923 C 139.379 121.909,134.792 122.166,134.792 125.443 C 134.792 127.248,135.501 127.823,139.237 129.047 C 146.115 131.300,149.356 134.922,149.130 140.102 C 148.708 149.753,136.364 152.434,127.333 144.837 C 125.958 143.681,125.914 143.809,128.550 141.298 L 130.747 139.205 131.874 140.141 C 136.375 143.879,142.708 143.509,142.708 139.508 C 142.708 137.922,139.776 135.778,136.563 135.015 C 125.961 132.498,125.395 119.202,135.776 116.562 C 137.410 116.146,140.488 116.298,142.396 116.888 M239.896 116.874 C 242.174 117.593,245.417 119.325,245.417 119.822 C 245.417 119.911,244.523 121.011,243.430 122.269 L 241.443 124.554 240.149 123.949 C 234.624 121.368,227.839 124.393,226.363 130.096 C 224.154 138.631,232.858 145.541,240.546 141.356 L 241.822 140.662 243.828 142.972 C 246.191 145.693,246.116 145.397,244.688 146.344 C 230.582 155.708,213.108 140.656,220.515 125.521 C 224.007 118.385,232.573 114.564,239.896 116.874 M178.166 132.500 C 182.257 141.151,185.610 148.349,185.615 148.495 C 185.623 148.702,184.857 148.748,182.135 148.703 L 178.646 148.646 177.203 145.677 L 175.760 142.708 169.286 142.712 L 162.813 142.715 161.269 145.733 L 159.725 148.750 156.229 148.750 C 154.306 148.750,152.695 148.680,152.649 148.594 C 152.603 148.508,154.362 144.922,156.558 140.625 C 158.754 136.328,162.404 129.175,164.669 124.729 L 168.786 116.645 169.756 116.708 L 170.726 116.771 178.166 132.500 M195.668 127.448 C 195.727 137.931,195.741 138.256,196.171 139.185 C 198.279 143.742,204.738 143.771,206.871 139.233 C 207.296 138.329,207.310 137.991,207.352 127.537 L 207.396 116.771 210.625 116.771 L 213.854 116.771 213.908 127.348 C 213.968 139.046,213.914 139.707,212.697 142.178 C 208.138 151.439,194.840 151.413,190.394 142.135 C 189.229 139.703,189.174 139.045,189.170 127.344 L 189.167 116.667 192.387 116.667 L 195.607 116.667 195.668 127.448 M272.708 119.896 L 272.708 123.125 265.313 123.125 L 257.917 123.125 257.917 126.042 L 257.917 128.958 264.063 128.958 L 270.208 128.958 270.208 132.188 L 270.208 135.417 264.063 135.417 L 257.917 135.417 257.917 138.750 L 257.917 142.083 265.208 142.083 L 272.500 142.083 272.500 145.417 L 272.500 148.750 261.979 148.750 L 251.458 148.750 251.458 132.708 L 251.458 116.667 262.083 116.667 L 272.708 116.667 272.708 119.896 M167.848 132.841 C 166.957 134.628,166.267 136.128,166.314 136.175 C 166.361 136.222,167.819 136.235,169.552 136.203 L 172.705 136.146 171.237 133.021 C 170.430 131.302,169.701 129.828,169.619 129.744 C 169.536 129.661,168.739 131.055,167.848 132.841 M199.382 156.615 C 198.881 157.846,197.936 160.026,197.283 161.458 C 196.005 164.260,195.476 165.763,194.789 168.542 C 194.549 169.516,194.083 171.297,193.755 172.500 C 192.907 175.611,192.857 175.995,193.289 176.130 C 196.002 176.975,203.678 177.033,206.719 176.232 C 207.684 175.977,207.693 175.823,206.890 173.284 C 206.554 172.222,205.988 170.182,205.631 168.750 C 204.554 164.423,200.904 154.377,200.407 154.375 C 200.344 154.375,199.883 155.383,199.382 156.615 M203.125 164.375 C 203.125 164.490,202.791 164.583,202.384 164.583 C 201.942 164.583,201.694 164.499,201.771 164.375 C 201.842 164.260,202.175 164.167,202.512 164.167 C 202.849 164.167,203.125 164.260,203.125 164.375 M203.542 165.407 C 203.542 165.665,202.185 165.921,201.866 165.724 C 201.685 165.612,201.695 165.526,201.905 165.394 C 202.289 165.150,203.542 165.160,203.542 165.407 M203.750 166.440 C 203.750 166.693,202.168 166.952,201.844 166.752 C 201.664 166.640,201.707 166.549,201.993 166.437 C 202.567 166.212,203.750 166.214,203.750 166.440 M204.167 167.684 C 204.167 167.939,203.402 168.119,202.302 168.122 C 201.736 168.124,201.452 168.051,201.573 167.934 C 201.946 167.575,204.167 167.361,204.167 167.684 M204.232 168.768 C 203.917 169.083,201.458 169.290,201.458 169.001 C 201.458 168.756,202.111 168.621,203.531 168.573 C 204.197 168.550,204.395 168.605,204.232 168.768 M204.674 169.562 C 204.836 169.824,204.366 169.968,202.838 170.125 C 201.994 170.211,201.466 170.181,201.380 170.041 C 201.294 169.903,201.686 169.774,202.445 169.690 C 203.106 169.617,203.786 169.527,203.958 169.491 C 204.521 169.369,204.558 169.373,204.674 169.562 M196.563 170.000 C 196.633 170.115,196.498 170.208,196.262 170.208 C 196.026 170.208,195.833 170.115,195.833 170.000 C 195.833 169.885,195.968 169.792,196.134 169.792 C 196.299 169.792,196.492 169.885,196.563 170.000 M204.900 170.877 C 204.429 171.150,201.062 171.390,201.306 171.133 C 201.515 170.913,202.956 170.682,204.271 170.657 C 205.150 170.641,205.248 170.675,204.900 170.877 M196.354 171.042 C 196.425 171.156,196.290 171.250,196.054 171.250 C 195.818 171.250,195.625 171.156,195.625 171.042 C 195.625 170.927,195.760 170.833,195.925 170.833 C 196.090 170.833,196.283 170.927,196.354 171.042 M205.208 171.449 C 205.208 171.765,203.762 172.081,202.309 172.082 C 201.574 172.083,201.021 172.035,201.081 171.975 C 201.163 171.893,203.650 171.451,205.052 171.270 C 205.138 171.259,205.208 171.339,205.208 171.449 M196.250 172.083 C 196.250 172.328,196.090 172.328,195.521 172.083 C 195.152 171.925,195.169 171.903,195.677 171.890 C 195.992 171.882,196.250 171.969,196.250 172.083 M205.510 172.696 C 205.268 172.937,202.925 173.330,201.719 173.332 C 200.263 173.334,200.716 172.981,202.448 172.763 C 204.686 172.480,205.752 172.457,205.510 172.696 M196.042 172.917 C 196.285 173.074,196.228 173.119,195.781 173.122 C 195.466 173.124,195.208 173.031,195.208 172.917 C 195.208 172.653,195.634 172.653,196.042 172.917 M206.042 173.443 C 206.042 173.870,201.507 174.539,200.903 174.201 C 200.623 174.045,200.821 173.965,201.781 173.847 C 202.463 173.763,203.443 173.624,203.958 173.539 C 205.137 173.342,206.042 173.300,206.042 173.443 M195.938 173.958 C 196.091 174.207,195.683 174.207,195.104 173.958 C 194.732 173.798,194.748 173.778,195.248 173.765 C 195.556 173.757,195.867 173.844,195.938 173.958 M206.135 174.555 C 205.784 174.875,203.901 175.238,201.979 175.358 C 199.440 175.515,199.885 175.186,202.777 174.767 C 205.562 174.364,206.404 174.311,206.135 174.555 M195.729 174.792 C 195.894 175.058,195.203 175.058,194.792 174.792 C 194.547 174.634,194.601 174.589,195.040 174.587 C 195.348 174.585,195.658 174.677,195.729 174.792 M195.411 175.617 C 195.579 175.723,195.661 175.867,195.591 175.936 C 195.415 176.113,194.375 175.828,194.375 175.602 C 194.375 175.360,195.019 175.369,195.411 175.617 M205.906 175.738 C 204.674 176.278,199.610 176.779,200.074 176.315 C 200.228 176.161,204.908 175.479,205.938 175.462 L 206.563 175.451 205.906 175.738 M207.001 177.233 C 206.691 177.312,206.667 177.372,206.891 177.510 C 207.628 177.965,204.767 178.540,201.875 178.517 C 198.715 178.493,198.065 178.179,201.042 178.115 L 203.438 178.063 200.729 177.879 C 199.240 177.778,197.010 177.747,195.775 177.810 C 194.390 177.881,193.374 177.842,193.124 177.708 C 192.631 177.444,192.675 177.288,191.977 181.771 C 191.144 187.115,191.061 189.323,191.688 189.463 C 197.267 190.704,208.453 190.242,209.386 188.733 C 209.863 187.961,208.106 176.996,207.523 177.108 C 207.453 177.121,207.218 177.177,207.001 177.233 M195.366 178.698 C 195.477 179.035,195.055 179.015,194.271 178.645 L 193.646 178.350 194.463 178.394 C 194.913 178.418,195.319 178.555,195.366 178.698 M206.869 178.754 C 206.700 178.859,205.873 179.055,205.031 179.192 C 203.933 179.369,203.594 179.492,203.832 179.625 C 204.033 179.738,204.475 179.725,204.947 179.594 C 205.377 179.475,206.099 179.377,206.552 179.376 C 207.722 179.375,207.229 179.769,205.858 179.932 C 205.259 180.003,204.844 180.132,204.937 180.218 C 205.029 180.305,205.594 180.273,206.193 180.148 C 206.791 180.023,207.346 179.985,207.425 180.064 C 207.659 180.298,207.381 180.444,206.476 180.566 C 206.008 180.629,205.625 180.764,205.625 180.868 C 205.625 180.973,206.084 180.995,206.667 180.918 C 207.942 180.749,208.139 181.176,206.879 181.378 C 206.423 181.451,206.096 181.586,206.153 181.679 C 206.211 181.772,206.584 181.795,206.983 181.730 C 207.927 181.577,207.970 182.037,207.031 182.241 L 206.354 182.388 207.188 182.511 L 208.021 182.633 207.292 182.975 L 206.563 183.317 207.240 183.325 C 208.067 183.335,208.114 183.592,207.344 183.896 L 206.771 184.122 207.460 184.145 C 208.275 184.171,208.174 184.494,207.289 184.688 C 206.426 184.878,206.506 185.143,207.396 185.040 C 208.412 184.921,208.320 185.347,207.292 185.521 C 206.123 185.718,206.249 186.013,207.448 185.887 C 208.791 185.745,208.368 186.220,206.973 186.420 C 206.422 186.498,205.935 186.674,205.890 186.810 C 205.828 186.995,205.996 187.005,206.560 186.849 C 206.975 186.735,207.566 186.676,207.875 186.718 L 208.438 186.795 207.868 187.037 C 207.554 187.170,206.878 187.315,206.365 187.359 C 205.763 187.411,205.168 187.640,204.691 188.004 C 203.023 189.276,201.001 189.777,199.115 189.386 C 197.216 188.992,197.072 188.775,197.979 187.669 C 199.156 186.233,202.292 181.427,202.292 181.060 C 202.292 180.716,201.132 182.305,199.348 185.093 C 198.063 187.100,197.069 188.325,196.719 188.330 C 196.415 188.334,196.370 187.996,196.652 187.822 C 197.478 187.311,201.706 180.336,201.348 180.074 C 200.499 179.453,200.079 179.704,198.812 181.586 C 196.099 185.617,194.792 187.208,194.792 186.477 C 194.792 186.372,194.425 186.225,193.978 186.149 C 192.640 185.923,192.124 185.357,193.408 185.525 C 194.597 185.680,194.688 185.302,193.581 184.806 C 192.774 184.444,192.714 184.129,193.468 184.211 C 194.248 184.296,194.320 183.817,193.553 183.648 C 192.736 183.469,192.729 183.125,193.542 183.125 C 193.885 183.125,194.167 183.031,194.167 182.917 C 194.167 182.802,194.091 182.708,193.998 182.708 C 193.905 182.708,193.648 182.562,193.425 182.384 C 193.041 182.076,193.055 182.063,193.702 182.140 C 194.104 182.188,194.477 182.107,194.613 181.944 C 194.793 181.726,194.734 181.667,194.336 181.667 C 194.058 181.667,193.648 181.520,193.425 181.341 C 193.049 181.037,193.094 181.023,194.080 181.135 C 194.988 181.238,195.196 181.192,195.538 180.809 C 196.769 179.433,199.067 178.670,201.458 178.844 C 202.318 178.906,203.911 178.834,205.000 178.684 C 207.024 178.406,207.408 178.420,206.869 178.754 M195.165 179.470 C 195.414 179.719,194.979 179.834,194.281 179.703 C 193.283 179.516,193.299 179.073,194.297 179.235 C 194.712 179.302,195.103 179.408,195.165 179.470 M194.983 180.337 C 195.167 180.395,195.204 180.504,195.082 180.626 C 194.832 180.876,193.702 180.584,193.587 180.240 C 193.506 179.996,194.020 180.032,194.983 180.337 M194.254 186.793 C 194.435 186.863,194.583 187.014,194.583 187.129 C 194.583 187.360,193.229 187.167,192.708 186.862 C 192.342 186.648,193.715 186.586,194.254 186.793 M193.866 187.733 C 194.783 187.964,195.130 188.334,194.427 188.332 C 193.848 188.330,192.527 187.921,192.391 187.701 C 192.227 187.436,192.730 187.447,193.866 187.733 M207.917 187.855 C 207.206 188.167,204.363 188.515,204.597 188.261 C 204.793 188.048,207.138 187.535,207.917 187.534 L 208.646 187.534 207.917 187.855 M208.427 188.513 C 207.944 188.953,203.446 189.635,203.854 189.207 C 204.087 188.964,206.793 188.397,207.906 188.358 C 208.322 188.344,208.542 188.409,208.427 188.513 M194.879 189.214 C 195.565 189.581,194.897 189.673,193.621 189.388 C 192.086 189.044,191.880 188.642,193.338 188.835 C 193.948 188.916,194.642 189.086,194.879 189.214 M208.125 190.242 C 204.721 191.254,198.486 191.516,193.752 190.845 C 192.207 190.626,190.929 190.463,190.914 190.484 C 190.531 190.981,190.186 216.101,190.557 216.473 C 191.279 217.197,204.781 217.394,207.813 216.724 C 210.003 216.241,209.935 216.353,209.975 213.153 C 210.000 211.224,209.995 211.203,209.531 211.334 C 205.745 212.403,193.149 212.469,191.198 211.430 C 189.978 210.779,191.399 210.696,197.469 211.063 C 202.554 211.371,208.934 210.792,209.981 209.929 C 210.474 209.523,210.108 189.725,209.609 189.815 C 209.538 189.828,208.870 190.020,208.125 190.242 M208.542 191.034 C 208.542 191.558,204.937 192.153,201.718 192.159 C 198.026 192.166,197.685 191.790,201.313 191.711 C 203.583 191.662,205.033 191.488,208.385 190.862 C 208.471 190.846,208.542 190.923,208.542 191.034 M195.104 191.915 C 195.245 192.059,194.858 192.100,193.907 192.043 C 193.121 191.996,192.386 191.839,192.240 191.686 C 192.025 191.460,192.236 191.437,193.438 191.557 C 194.240 191.638,194.990 191.798,195.104 191.915 M208.219 192.067 C 207.487 192.777,200.324 193.320,198.962 192.769 C 198.574 192.611,199.349 192.529,202.087 192.435 C 204.090 192.367,206.057 192.222,206.458 192.114 C 207.440 191.850,208.471 191.822,208.219 192.067 M194.887 192.735 C 195.046 192.906,194.750 192.938,193.778 192.856 C 193.049 192.794,192.345 192.630,192.215 192.491 C 192.031 192.294,192.275 192.267,193.324 192.370 C 194.064 192.443,194.767 192.607,194.887 192.735 M208.702 193.034 C 208.142 193.594,203.010 194.258,200.717 194.067 C 198.052 193.845,198.343 193.650,201.426 193.591 C 202.991 193.560,205.255 193.367,206.458 193.162 C 208.563 192.803,208.956 192.780,208.702 193.034 M194.866 193.698 C 195.127 193.850,194.533 194.171,194.167 194.076 C 193.995 194.031,193.503 193.935,193.073 193.863 C 191.776 193.644,192.137 193.285,193.490 193.449 C 194.148 193.528,194.768 193.641,194.866 193.698 M208.750 194.137 C 208.750 194.569,205.293 195.070,202.500 195.043 C 198.350 195.002,197.579 194.628,201.563 194.588 C 203.281 194.570,205.438 194.435,206.354 194.286 C 208.508 193.937,208.750 193.922,208.750 194.137 M193.802 194.474 C 194.863 194.619,195.167 195.001,194.219 194.999 C 193.393 194.997,192.083 194.600,192.083 194.351 C 192.083 194.234,192.247 194.184,192.448 194.239 C 192.648 194.295,193.258 194.400,193.802 194.474 M208.740 195.201 C 207.990 195.641,203.636 196.094,201.216 195.984 C 197.462 195.814,197.700 195.526,201.631 195.481 C 203.541 195.459,205.620 195.354,206.250 195.247 C 207.818 194.980,209.160 194.956,208.740 195.201 M194.531 195.548 C 194.789 195.617,195.000 195.769,195.000 195.886 C 195.000 196.138,192.833 195.928,192.316 195.626 C 191.927 195.399,193.737 195.335,194.531 195.548 M208.728 196.042 C 208.031 196.449,204.659 196.874,202.316 196.850 C 198.839 196.815,198.011 196.518,201.250 196.467 C 202.682 196.445,204.698 196.306,205.729 196.160 C 208.139 195.817,209.183 195.776,208.728 196.042 M194.219 196.384 C 195.460 196.589,195.164 196.950,193.864 196.816 C 192.440 196.669,191.601 196.265,192.708 196.259 C 193.109 196.256,193.789 196.313,194.219 196.384 M208.844 197.066 C 208.106 197.776,200.187 198.183,199.086 197.567 C 198.837 197.428,199.434 197.388,200.976 197.441 C 202.215 197.483,204.260 197.386,205.521 197.225 C 208.424 196.854,209.097 196.822,208.844 197.066 M194.010 197.397 C 195.047 197.532,195.386 197.917,194.467 197.917 C 193.679 197.917,192.083 197.479,192.083 197.263 C 192.083 197.160,192.294 197.119,192.552 197.172 C 192.810 197.225,193.466 197.327,194.010 197.397 M208.844 198.107 C 208.390 198.544,204.333 199.014,201.886 198.913 C 198.099 198.757,198.263 198.443,202.152 198.403 C 204.005 198.383,205.990 198.277,206.563 198.167 C 207.964 197.896,209.094 197.867,208.844 198.107 M194.349 198.464 C 194.707 198.535,195.000 198.689,195.000 198.805 C 195.000 199.055,192.830 198.843,192.316 198.543 C 191.914 198.308,193.301 198.254,194.349 198.464 M208.958 198.942 C 208.958 199.560,202.573 200.236,200.082 199.880 C 198.969 199.722,199.155 199.691,202.083 199.547 C 203.859 199.459,206.063 199.254,206.979 199.090 C 207.896 198.927,208.716 198.783,208.802 198.771 C 208.888 198.760,208.958 198.836,208.958 198.942 M194.219 199.509 C 194.648 199.580,195.000 199.732,195.000 199.848 C 195.000 200.124,192.529 199.904,192.226 199.601 C 191.966 199.341,192.934 199.296,194.219 199.509 M208.965 200.247 C 207.808 200.675,204.757 201.040,202.525 201.017 C 198.585 200.977,198.513 200.721,202.396 200.561 C 204.344 200.481,206.641 200.293,207.500 200.143 C 209.082 199.866,209.847 199.920,208.965 200.247 M195.104 200.869 C 195.251 201.027,194.894 201.061,193.887 200.985 C 193.103 200.926,192.353 200.763,192.220 200.621 C 192.030 200.418,192.286 200.394,193.438 200.506 C 194.240 200.583,194.990 200.747,195.104 200.869 M209.167 201.236 C 209.167 201.949,200.192 202.614,199.131 201.979 C 198.888 201.834,199.802 201.763,202.152 201.744 C 204.229 201.728,206.120 201.597,207.083 201.402 C 209.037 201.008,209.167 200.997,209.167 201.236 M195.313 202.123 C 195.454 202.267,195.067 202.308,194.115 202.252 C 193.329 202.205,192.594 202.047,192.448 201.894 C 192.233 201.668,192.444 201.646,193.646 201.766 C 194.448 201.846,195.198 202.007,195.313 202.123 M208.958 202.464 C 208.958 203.041,203.391 203.638,200.899 203.329 C 198.305 203.006,198.487 202.919,201.788 202.901 C 203.383 202.892,205.484 202.764,206.458 202.616 C 208.733 202.270,208.958 202.256,208.958 202.464 M194.956 203.040 C 195.227 203.095,195.374 203.234,195.296 203.359 C 195.087 203.697,192.292 203.258,192.292 202.887 C 192.292 202.710,193.758 202.794,194.956 203.040 M208.958 203.512 C 208.958 203.941,205.505 204.454,202.813 204.424 C 198.686 204.378,197.848 204.010,201.771 203.966 C 203.490 203.947,205.646 203.810,206.563 203.661 C 208.716 203.312,208.958 203.297,208.958 203.512 M195.079 204.162 C 195.415 204.499,193.330 204.405,192.604 204.051 C 192.006 203.760,192.042 203.751,193.423 203.848 C 194.217 203.904,194.962 204.045,195.079 204.162 M208.958 204.558 C 208.958 205.148,203.534 205.620,200.496 205.295 C 198.936 205.128,199.051 205.111,202.813 204.957 C 204.990 204.869,207.146 204.712,207.604 204.609 C 208.746 204.354,208.958 204.346,208.958 204.558 M195.260 205.400 C 195.476 205.629,195.299 205.658,194.239 205.568 C 192.326 205.406,191.767 204.960,193.593 205.053 C 194.405 205.094,195.109 205.241,195.260 205.400 M208.898 205.546 C 208.321 206.124,202.084 206.668,200.208 206.304 C 199.419 206.151,199.765 206.098,202.396 205.968 C 204.115 205.883,205.943 205.735,206.458 205.641 C 207.617 205.428,209.073 205.372,208.898 205.546 M194.450 205.966 C 194.982 206.039,195.417 206.192,195.417 206.307 C 195.417 206.586,192.743 206.368,192.439 206.064 C 192.169 205.794,192.925 205.757,194.450 205.966 M208.958 206.450 C 208.958 207.126,203.006 207.732,200.417 207.320 C 199.685 207.203,200.142 207.135,202.500 207.010 C 204.161 206.922,206.224 206.727,207.083 206.576 C 207.943 206.426,208.716 206.291,208.802 206.276 C 208.888 206.262,208.958 206.340,208.958 206.450 M194.948 207.006 C 195.206 207.075,195.417 207.215,195.417 207.316 C 195.417 207.585,193.986 207.511,193.021 207.193 L 192.188 206.919 193.333 206.900 C 193.964 206.889,194.690 206.937,194.948 207.006 M208.958 207.485 C 208.958 207.848,204.923 208.539,202.789 208.540 C 201.120 208.542,199.374 208.341,199.376 208.149 C 199.377 208.078,200.666 208.003,202.241 207.982 C 203.816 207.961,205.854 207.808,206.771 207.643 C 208.904 207.258,208.958 207.255,208.958 207.485 M195.202 208.117 C 195.468 208.285,195.464 208.328,195.171 208.441 C 194.840 208.568,192.534 208.228,192.327 208.022 C 192.134 207.829,194.891 207.920,195.202 208.117 M209.167 208.525 C 209.167 209.150,202.031 209.863,200.104 209.430 C 199.427 209.278,199.877 209.215,202.500 209.094 C 204.276 209.013,206.432 208.819,207.292 208.662 C 208.151 208.506,208.924 208.368,209.010 208.356 C 209.096 208.343,209.167 208.420,209.167 208.525 M194.740 209.090 C 195.651 209.334,195.234 209.644,194.165 209.518 C 192.665 209.340,192.108 208.972,193.333 208.968 C 193.849 208.966,194.482 209.021,194.740 209.090 M208.958 209.550 C 208.958 210.034,203.955 210.704,201.501 210.549 C 198.470 210.357,198.697 210.108,201.943 210.062 C 203.567 210.039,205.646 209.886,206.563 209.723 C 208.635 209.354,208.958 209.330,208.958 209.550 M195.208 210.208 C 195.208 210.460,193.398 210.460,192.813 210.208 C 192.522 210.084,192.823 210.025,193.802 210.015 C 194.610 210.006,195.208 210.089,195.208 210.208 M193.371 212.969 C 193.419 213.309,193.600 213.456,194.029 213.505 C 194.589 213.569,194.601 213.593,194.272 213.957 C 194.002 214.256,193.975 214.433,194.150 214.761 C 194.483 215.382,194.432 215.476,193.841 215.328 C 193.436 215.226,193.215 215.308,192.921 215.670 L 192.535 216.146 192.391 215.573 C 192.273 215.105,192.130 215.000,191.612 215.000 C 190.995 215.000,190.987 214.989,191.347 214.592 C 191.605 214.306,191.674 214.017,191.577 213.629 C 191.449 213.119,191.479 213.085,191.961 213.206 C 192.355 213.305,192.538 213.234,192.707 212.919 C 193.003 212.366,193.288 212.388,193.371 212.969 M207.870 212.920 C 208.065 213.231,208.266 213.306,208.650 213.210 C 209.215 213.068,209.272 213.165,208.963 213.742 C 208.815 214.019,208.843 214.193,209.067 214.379 C 209.523 214.757,209.442 215.000,208.858 215.000 C 208.481 215.000,208.306 215.140,208.211 215.521 C 208.051 216.156,207.892 216.176,207.536 215.606 C 207.334 215.282,207.134 215.203,206.757 215.297 C 206.230 215.430,206.013 214.963,206.470 214.681 C 206.616 214.590,206.583 214.382,206.370 214.057 C 206.069 213.598,206.078 213.566,206.515 213.504 C 206.770 213.467,207.072 213.227,207.185 212.969 C 207.438 212.392,207.537 212.385,207.870 212.920 M198.229 213.333 C 198.322 213.626,198.544 213.750,198.977 213.750 C 199.589 213.750,199.591 213.753,199.245 214.282 C 198.982 214.682,198.956 214.872,199.136 215.052 C 199.512 215.429,199.418 215.625,198.861 215.625 C 198.545 215.625,198.253 215.802,198.101 216.087 L 197.854 216.548 197.547 216.087 C 197.374 215.825,197.026 215.625,196.745 215.625 C 196.175 215.625,196.170 215.612,196.489 214.912 C 196.673 214.507,196.668 214.315,196.463 214.069 C 196.238 213.796,196.278 213.750,196.744 213.750 C 197.063 213.750,197.396 213.577,197.548 213.333 C 197.691 213.104,197.873 212.917,197.953 212.917 C 198.032 212.917,198.156 213.104,198.229 213.333 M203.873 213.750 C 204.324 213.750,204.362 213.803,204.168 214.165 C 203.998 214.481,204.027 214.703,204.289 215.102 C 204.630 215.623,204.629 215.625,203.963 215.625 C 203.470 215.625,203.266 215.734,203.185 216.042 C 203.125 216.271,203.000 216.458,202.906 216.458 C 202.813 216.458,202.677 216.271,202.604 216.042 C 202.512 215.750,202.289 215.625,201.861 215.625 C 201.206 215.625,201.097 215.445,201.505 215.036 C 201.707 214.835,201.707 214.695,201.505 214.373 C 201.153 213.808,201.177 213.750,201.764 213.750 C 202.072 213.750,202.370 213.575,202.511 213.313 L 202.745 212.876 203.051 213.313 C 203.222 213.557,203.585 213.750,203.873 213.750 M188.689 216.719 C 188.639 216.977,188.598 216.766,188.598 216.250 C 188.598 215.734,188.639 215.523,188.689 215.781 C 188.738 216.039,188.738 216.461,188.689 216.719 M209.063 217.533 C 208.719 217.632,207.969 217.803,207.396 217.912 L 206.354 218.111 207.552 218.029 C 208.211 217.984,208.750 218.023,208.750 218.116 C 208.750 218.759,199.847 219.193,199.116 218.586 C 198.905 218.411,197.573 218.249,195.282 218.120 C 193.351 218.011,191.500 217.863,191.169 217.792 C 190.595 217.668,190.574 217.690,190.708 218.258 C 190.786 218.586,190.905 220.237,190.974 221.927 L 191.098 225.000 192.635 225.000 C 193.497 225.000,194.354 224.887,194.586 224.742 C 194.916 224.536,195.084 224.536,195.414 224.742 C 195.862 225.021,199.584 225.113,199.583 224.844 C 199.583 224.758,200.637 224.716,201.927 224.750 C 203.216 224.784,205.115 224.727,206.146 224.623 C 208.013 224.435,208.773 224.513,208.007 224.813 C 207.706 224.931,207.798 224.974,208.369 224.985 L 209.134 225.000 209.260 223.594 C 209.329 222.820,209.489 221.129,209.614 219.835 C 209.873 217.176,209.901 217.290,209.063 217.533 M205.159 218.272 C 205.418 218.322,205.793 218.320,205.992 218.268 C 206.191 218.216,205.979 218.175,205.521 218.178 C 205.063 218.180,204.900 218.223,205.159 218.272 M195.417 218.542 C 195.417 218.793,193.814 218.793,193.229 218.542 C 192.935 218.415,193.194 218.358,194.115 218.348 C 194.854 218.340,195.417 218.423,195.417 218.542 M200.365 218.487 C 200.966 218.529,201.951 218.529,202.552 218.487 C 203.154 218.445,202.661 218.410,201.458 218.410 C 200.255 218.410,199.763 218.445,200.365 218.487 M207.917 219.518 C 206.769 219.898,201.339 220.110,200.000 219.827 C 199.203 219.659,199.468 219.622,201.771 219.584 C 203.260 219.559,205.042 219.468,205.729 219.383 C 206.417 219.298,207.401 219.223,207.917 219.218 L 208.854 219.208 207.917 219.518 M195.521 219.583 C 195.600 219.712,195.249 219.792,194.608 219.792 C 194.035 219.792,193.508 219.698,193.438 219.583 C 193.358 219.455,193.709 219.375,194.350 219.375 C 194.923 219.375,195.450 219.469,195.521 219.583 M195.521 220.625 C 195.599 220.752,195.284 220.833,194.712 220.833 C 194.196 220.833,193.717 220.740,193.646 220.625 C 193.567 220.498,193.883 220.417,194.455 220.417 C 194.970 220.417,195.450 220.510,195.521 220.625 M208.540 220.614 C 207.944 220.963,203.873 221.308,201.875 221.178 C 199.136 221.001,197.952 220.594,200.521 220.713 C 201.552 220.761,203.380 220.728,204.583 220.641 C 207.826 220.405,208.908 220.398,208.540 220.614 M195.417 221.667 C 195.417 221.781,195.042 221.875,194.583 221.875 C 194.125 221.875,193.750 221.781,193.750 221.667 C 193.750 221.552,194.125 221.458,194.583 221.458 C 195.042 221.458,195.417 221.552,195.417 221.667 M208.347 221.654 C 207.357 222.280,200.257 222.486,199.256 221.918 C 198.953 221.746,199.394 221.716,201.042 221.796 C 202.245 221.855,204.073 221.816,205.104 221.709 C 207.723 221.438,208.715 221.421,208.347 221.654 M195.507 222.687 C 195.571 222.789,195.481 222.927,195.309 222.993 C 194.880 223.158,193.730 222.910,193.870 222.683 C 194.018 222.443,195.359 222.446,195.507 222.687 M207.907 222.701 C 207.299 223.057,203.862 223.388,202.083 223.262 C 198.547 223.011,198.728 222.816,202.604 222.701 C 204.667 222.640,206.776 222.572,207.292 222.551 C 207.935 222.525,208.128 222.572,207.907 222.701 M208.125 223.523 C 208.125 224.105,200.588 224.514,199.375 223.998 C 198.970 223.826,199.528 223.768,201.875 223.741 C 203.536 223.721,205.458 223.635,206.146 223.550 C 208.009 223.318,208.125 223.317,208.125 223.523 M195.417 223.750 C 195.417 223.865,195.135 223.958,194.792 223.958 C 194.448 223.958,194.167 223.865,194.167 223.750 C 194.167 223.635,194.448 223.542,194.792 223.542 C 195.135 223.542,195.417 223.635,195.417 223.750 " stroke="none" fill="#343434" fill-rule="evenodd"></path><path id="path2" d="M240.625 97.012 C 240.224 97.153,239.591 97.273,239.219 97.280 L 238.542 97.292 238.542 102.708 L 238.542 108.125 249.063 108.125 L 259.583 108.125 259.583 105.003 L 259.583 101.880 252.240 101.826 L 244.896 101.771 244.837 99.209 L 244.779 96.646 243.066 96.701 C 242.125 96.731,241.026 96.871,240.625 97.012 M223.958 98.237 C 222.395 98.521,222.035 98.520,220.573 98.232 C 219.549 98.031,219.407 97.667,222.528 103.239 L 225.263 108.125 228.986 108.125 C 231.033 108.125,232.708 108.073,232.708 108.008 C 232.708 107.944,231.387 105.648,229.772 102.904 C 226.427 97.224,227.002 97.686,223.958 98.237 M212.813 98.771 C 212.354 98.879,211.698 99.096,211.354 99.253 C 211.010 99.410,210.191 99.713,209.533 99.926 L 208.336 100.313 208.335 104.219 L 208.333 108.125 211.566 108.125 L 214.799 108.125 214.743 103.385 L 214.688 98.646 214.167 98.610 C 213.880 98.591,213.271 98.663,212.813 98.771 M273.542 103.518 L 273.542 108.125 276.667 108.125 L 279.792 108.125 279.792 103.993 L 279.792 99.860 278.494 99.813 C 277.781 99.787,276.914 99.637,276.567 99.479 C 276.221 99.321,275.398 99.128,274.740 99.051 L 273.542 98.910 273.542 103.518 M197.917 101.476 C 196.811 101.762,195.130 102.335,194.896 102.505 C 194.781 102.588,194.406 102.705,194.063 102.764 C 193.719 102.824,192.781 103.021,191.979 103.202 C 191.177 103.384,189.349 103.591,187.917 103.663 C 186.427 103.738,184.690 103.963,183.858 104.189 C 183.059 104.406,182.168 104.586,181.879 104.589 L 181.354 104.596 182.008 105.191 C 186.923 109.665,196.030 109.870,201.830 105.639 L 202.722 104.988 201.100 103.121 C 199.410 101.174,199.301 101.118,197.917 101.476 M153.647 108.065 C 151.659 108.401,151.561 108.469,152.797 108.654 C 153.852 108.813,156.875 108.593,156.875 108.359 C 156.875 107.948,155.228 107.798,153.647 108.065 M116.406 108.064 C 116.664 108.113,117.086 108.113,117.344 108.064 C 117.602 108.014,117.391 107.973,116.875 107.973 C 116.359 107.973,116.148 108.014,116.406 108.064 M136.756 116.490 C 125.560 117.762,125.572 132.171,136.771 134.997 C 140.735 135.997,143.247 138.266,142.676 140.332 C 141.739 143.726,136.161 143.710,131.975 140.301 L 130.810 139.352 129.207 140.803 C 128.326 141.601,127.296 142.575,126.920 142.967 L 126.236 143.680 127.233 144.609 C 130.558 147.710,134.081 149.057,138.870 149.060 L 141.802 149.063 143.588 148.178 C 148.837 145.577,150.713 139.474,147.705 134.787 C 146.139 132.347,142.922 130.245,138.778 128.956 C 135.599 127.967,134.766 127.270,134.741 125.575 C 134.685 121.912,139.506 121.759,144.792 125.255 L 145.313 125.600 146.950 122.892 C 147.851 121.403,148.554 120.156,148.513 120.121 C 145.599 117.636,140.506 116.063,136.756 116.490 M232.438 116.581 C 220.303 118.774,214.807 133.181,222.402 142.888 C 227.785 149.768,237.917 151.190,244.957 146.054 L 245.851 145.402 243.936 143.215 C 241.585 140.530,241.966 140.708,240.369 141.541 C 232.528 145.628,223.614 137.976,226.452 129.595 C 228.268 124.231,234.422 121.458,239.630 123.656 C 241.495 124.443,241.399 124.482,243.496 122.083 C 245.787 119.461,245.751 119.867,243.802 118.697 C 240.290 116.590,236.398 115.865,232.438 116.581 M168.360 117.656 C 168.141 118.086,164.530 125.170,160.335 133.399 C 156.140 141.628,152.708 148.401,152.708 148.451 C 152.708 148.501,154.301 148.542,156.249 148.542 L 159.789 148.542 161.250 145.625 L 162.711 142.708 169.286 142.708 L 175.862 142.708 177.239 145.625 L 178.616 148.542 182.112 148.542 L 185.608 148.542 185.252 147.727 C 185.056 147.279,181.708 140.157,177.813 131.899 L 170.729 116.886 169.744 116.880 C 168.813 116.875,168.736 116.918,168.360 117.656 M189.221 127.865 C 189.309 139.900,189.292 139.719,190.619 142.414 C 194.996 151.307,208.348 151.179,212.591 142.204 C 213.857 139.525,213.797 140.300,213.770 126.927 L 213.750 116.875 210.632 116.875 L 207.514 116.875 207.455 127.656 L 207.396 138.438 206.831 139.508 C 204.932 143.109,200.255 143.824,197.382 140.951 C 195.589 139.158,195.625 139.437,195.625 127.359 L 195.625 116.875 192.383 116.875 L 189.140 116.875 189.221 127.865 M251.458 132.708 L 251.458 148.542 261.979 148.542 L 272.500 148.542 272.500 145.417 L 272.500 142.292 265.208 142.292 L 257.917 142.292 257.917 138.854 L 257.917 135.417 263.958 135.417 L 270.000 135.417 270.000 132.188 L 270.000 128.958 263.958 128.958 L 257.917 128.958 257.917 126.042 L 257.917 123.125 265.313 123.125 L 272.708 123.125 272.708 120.000 L 272.708 116.875 262.083 116.875 L 251.458 116.875 251.458 132.708 M171.239 132.847 C 172.047 134.585,172.708 136.061,172.708 136.128 C 172.708 136.195,171.209 136.250,169.376 136.250 L 166.043 136.250 167.756 132.817 C 168.698 130.930,169.536 129.453,169.619 129.536 C 169.701 129.619,170.430 131.109,171.239 132.847 " stroke="none" fill="#fa3535" fill-rule="evenodd"></path><path id="path3" d="M238.436 92.292 L 238.438 108.229 248.958 108.232 L 259.479 108.235 249.012 108.178 L 238.544 108.121 238.489 92.238 L 238.434 76.354 238.436 92.292 M153.597 82.441 C 153.913 82.489,154.382 82.488,154.638 82.438 C 154.895 82.389,154.635 82.350,154.063 82.351 C 153.490 82.353,153.280 82.393,153.597 82.441 M244.874 85.729 C 244.874 87.333,244.907 87.962,244.947 87.126 C 244.986 86.291,244.986 84.978,244.946 84.210 C 244.906 83.441,244.874 84.125,244.874 85.729 M137.557 92.292 C 137.557 92.807,137.597 93.018,137.647 92.760 C 137.697 92.503,137.697 92.081,137.647 91.823 C 137.597 91.565,137.557 91.776,137.557 92.292 M129.883 92.760 L 129.271 93.438 129.948 92.826 C 130.320 92.489,130.625 92.184,130.625 92.149 C 130.625 91.988,130.453 92.129,129.883 92.760 M215.930 94.844 L 214.896 95.938 215.990 94.904 C 216.591 94.335,217.083 93.843,217.083 93.810 C 217.083 93.654,216.890 93.827,215.930 94.844 M244.888 98.333 L 244.896 101.771 252.188 101.775 L 259.479 101.779 252.245 101.720 L 245.010 101.661 244.945 98.279 L 244.879 94.896 244.888 98.333 M279.839 103.901 L 279.792 108.114 276.615 108.178 L 273.438 108.241 276.621 108.287 C 280.418 108.342,280.026 108.878,279.948 103.744 L 279.886 99.688 279.839 103.901 M141.875 103.399 C 141.875 103.434,142.180 103.739,142.552 104.076 L 143.229 104.688 142.617 104.010 C 142.047 103.379,141.875 103.238,141.875 103.399 M128.490 108.280 C 129.435 108.319,130.982 108.319,131.927 108.280 C 132.872 108.241,132.099 108.210,130.208 108.210 C 128.318 108.210,127.544 108.241,128.490 108.280 M138.700 116.397 C 138.959 116.447,139.334 116.445,139.534 116.393 C 139.733 116.341,139.521 116.300,139.063 116.303 C 138.604 116.305,138.441 116.348,138.700 116.397 M168.673 116.831 C 168.617 116.922,168.916 116.964,169.338 116.924 C 170.626 116.802,170.778 116.716,169.752 116.691 C 169.214 116.678,168.729 116.741,168.673 116.831 M190.791 116.822 C 191.742 116.861,193.242 116.860,194.124 116.821 C 195.007 116.782,194.229 116.751,192.396 116.751 C 190.563 116.751,189.840 116.783,190.791 116.822 M207.389 116.922 C 207.333 117.068,207.313 121.641,207.344 127.083 L 207.400 136.979 207.450 126.927 L 207.500 116.875 210.623 116.875 L 213.746 116.875 213.803 126.823 L 213.860 136.771 213.857 126.771 L 213.854 116.771 210.673 116.713 C 208.242 116.669,207.467 116.719,207.389 116.922 M256.719 116.823 C 259.669 116.855,264.497 116.855,267.448 116.823 C 270.398 116.790,267.984 116.763,262.083 116.763 C 256.182 116.763,253.768 116.790,256.719 116.823 M223.542 121.146 C 223.036 121.661,222.668 122.083,222.726 122.083 C 222.783 122.083,223.244 121.661,223.750 121.146 C 224.256 120.630,224.623 120.208,224.566 120.208 C 224.509 120.208,224.048 120.630,223.542 121.146 M228.633 125.885 L 228.021 126.563 228.698 125.951 C 229.329 125.380,229.471 125.208,229.310 125.208 C 229.274 125.208,228.969 125.513,228.633 125.885 M270.084 132.188 C 270.085 134.021,270.116 134.743,270.155 133.792 C 270.194 132.841,270.194 131.341,270.155 130.459 C 270.116 129.576,270.084 130.354,270.084 132.188 M130.208 131.315 C 130.208 131.351,130.513 131.656,130.885 131.992 L 131.563 132.604 130.951 131.927 C 130.380 131.296,130.208 131.154,130.208 131.315 M218.821 132.813 C 218.822 133.729,218.859 134.078,218.903 133.588 C 218.947 133.098,218.946 132.348,218.901 131.922 C 218.857 131.495,218.821 131.896,218.821 132.813 M141.042 136.940 C 141.042 136.976,141.346 137.281,141.719 137.617 L 142.396 138.229 141.784 137.552 C 141.214 136.921,141.042 136.779,141.042 136.940 M213.798 137.708 C 213.798 138.109,213.841 138.273,213.894 138.073 C 213.946 137.872,213.946 137.544,213.894 137.344 C 213.841 137.143,213.798 137.307,213.798 137.708 M129.886 140.052 L 129.063 140.938 129.948 140.114 C 130.435 139.661,130.833 139.263,130.833 139.229 C 130.833 139.071,130.652 139.229,129.886 140.052 M261.510 142.239 C 263.544 142.273,266.872 142.273,268.906 142.239 C 270.940 142.205,269.276 142.177,265.208 142.177 C 261.141 142.177,259.477 142.205,261.510 142.239 M138.597 142.858 C 138.913 142.906,139.382 142.904,139.638 142.855 C 139.895 142.806,139.635 142.766,139.063 142.768 C 138.490 142.769,138.280 142.810,138.597 142.858 M126.250 143.815 C 126.250 143.851,126.555 144.156,126.927 144.492 L 127.604 145.104 126.992 144.427 C 126.422 143.796,126.250 143.654,126.250 143.815 M192.708 145.521 C 193.097 145.922,193.462 146.250,193.519 146.250 C 193.577 146.250,193.305 145.922,192.917 145.521 C 192.528 145.120,192.163 144.792,192.106 144.792 C 192.048 144.792,192.320 145.120,192.708 145.521 M210.197 145.573 L 209.479 146.354 210.260 145.636 C 210.988 144.968,211.137 144.792,210.978 144.792 C 210.944 144.792,210.592 145.143,210.197 145.573 M152.682 148.599 C 152.771 148.688,154.430 148.734,156.370 148.703 L 159.896 148.645 156.208 148.541 C 154.179 148.484,152.593 148.510,152.682 148.599 M180.479 148.697 C 181.487 148.735,183.081 148.735,184.021 148.696 C 184.960 148.658,184.135 148.627,182.188 148.627 C 180.240 148.627,179.471 148.659,180.479 148.697 M256.733 148.698 C 259.692 148.730,264.473 148.730,267.358 148.698 C 270.244 148.665,267.823 148.638,261.979 148.638 C 256.135 148.638,253.775 148.665,256.733 148.698 M201.844 165.678 C 201.949 165.783,202.257 165.834,202.528 165.791 C 202.945 165.725,202.916 165.696,202.337 165.600 C 201.923 165.532,201.729 165.562,201.844 165.678 M201.844 166.719 C 201.949 166.824,202.257 166.875,202.528 166.833 C 202.945 166.767,202.916 166.738,202.337 166.642 C 201.923 166.573,201.729 166.604,201.844 166.719 M201.441 170.066 C 201.535 170.160,201.976 170.205,202.420 170.166 L 203.229 170.095 202.249 169.995 C 201.710 169.940,201.346 169.971,201.441 170.066 M201.302 174.310 C 201.503 174.363,201.831 174.363,202.031 174.310 C 202.232 174.258,202.068 174.215,201.667 174.215 C 201.266 174.215,201.102 174.258,201.302 174.310 M199.742 177.856 C 200.001 177.906,200.376 177.904,200.575 177.851 C 200.775 177.799,200.563 177.759,200.104 177.761 C 199.646 177.763,199.483 177.806,199.742 177.856 M203.438 177.917 C 203.285 178.163,203.489 178.163,204.063 177.917 C 204.464 177.744,204.463 177.737,204.023 177.723 C 203.772 177.715,203.508 177.802,203.438 177.917 M200.055 178.899 C 200.372 178.947,200.840 178.946,201.097 178.897 C 201.353 178.847,201.094 178.808,200.521 178.810 C 199.948 178.811,199.738 178.852,200.055 178.899 M205.193 187.442 C 204.888 187.783,204.845 187.886,205.084 187.702 C 205.302 187.534,205.677 187.413,205.917 187.434 C 206.242 187.463,206.260 187.446,205.987 187.367 C 205.785 187.308,205.673 187.173,205.739 187.068 C 205.972 186.691,205.690 186.884,205.193 187.442 M191.090 188.750 C 191.090 189.151,191.133 189.315,191.185 189.115 C 191.238 188.914,191.238 188.586,191.185 188.385 C 191.133 188.185,191.090 188.349,191.090 188.750 M203.833 189.201 C 203.774 189.297,204.059 189.375,204.467 189.375 C 204.875 189.375,205.208 189.339,205.208 189.294 C 205.208 189.123,203.934 189.037,203.833 189.201 M198.177 190.352 C 198.378 190.404,198.706 190.404,198.906 190.352 C 199.107 190.300,198.943 190.257,198.542 190.257 C 198.141 190.257,197.977 190.300,198.177 190.352 M198.688 191.897 C 198.853 192.061,199.027 192.063,199.303 191.903 C 199.640 191.707,199.612 191.679,199.073 191.673 C 198.625 191.668,198.521 191.729,198.688 191.897 M201.510 191.810 C 201.711 191.863,202.039 191.863,202.240 191.810 C 202.440 191.758,202.276 191.715,201.875 191.715 C 201.474 191.715,201.310 191.758,201.510 191.810 M201.198 192.234 C 201.570 192.280,202.180 192.280,202.552 192.234 C 202.924 192.188,202.620 192.150,201.875 192.150 C 201.130 192.150,200.826 192.188,201.198 192.234 M199.302 192.656 C 199.249 192.742,199.783 192.786,200.488 192.754 C 202.645 192.656,202.900 192.564,201.106 192.531 C 200.167 192.514,199.356 192.570,199.302 192.656 M201.406 193.067 C 201.779 193.114,202.388 193.114,202.760 193.067 C 203.133 193.021,202.828 192.983,202.083 192.983 C 201.339 192.983,201.034 193.021,201.406 193.067 M198.721 193.728 C 198.980 193.891,199.792 193.811,199.792 193.622 C 199.792 193.578,199.487 193.543,199.115 193.545 C 198.654 193.547,198.528 193.606,198.721 193.728 M190.673 194.583 C 190.673 194.984,190.716 195.148,190.769 194.948 C 190.821 194.747,190.821 194.419,190.769 194.219 C 190.716 194.018,190.673 194.182,190.673 194.583 M202.552 194.102 C 202.753 194.154,203.081 194.154,203.281 194.102 C 203.482 194.050,203.318 194.007,202.917 194.007 C 202.516 194.007,202.352 194.050,202.552 194.102 M211.106 195.729 C 211.107 196.417,211.146 196.673,211.193 196.298 C 211.239 195.924,211.238 195.361,211.191 195.048 C 211.143 194.735,211.105 195.042,211.106 195.729 M202.448 195.147 C 202.706 195.197,203.128 195.197,203.385 195.147 C 203.643 195.097,203.432 195.057,202.917 195.057 C 202.401 195.057,202.190 195.097,202.448 195.147 M198.405 195.653 C 198.681 195.813,198.855 195.811,199.020 195.647 C 199.188 195.479,199.084 195.418,198.635 195.423 C 198.097 195.429,198.068 195.457,198.405 195.653 M210.060 196.354 C 210.061 196.927,210.102 197.137,210.149 196.820 C 210.197 196.503,210.196 196.035,210.147 195.778 C 210.097 195.522,210.058 195.781,210.060 196.354 M189.035 199.792 C 189.035 200.995,189.070 201.487,189.112 200.885 C 189.154 200.284,189.154 199.299,189.112 198.698 C 189.070 198.096,189.035 198.589,189.035 199.792 M190.469 200.104 C 190.472 200.563,190.514 200.725,190.564 200.466 C 190.614 200.207,190.612 199.832,190.560 199.633 C 190.508 199.434,190.467 199.646,190.469 200.104 M210.278 204.167 C 210.278 205.026,210.315 205.378,210.360 204.948 C 210.405 204.518,210.405 203.815,210.360 203.385 C 210.315 202.956,210.278 203.307,210.278 204.167 M201.513 203.066 C 201.830 203.114,202.299 203.113,202.555 203.063 C 202.811 203.014,202.552 202.975,201.979 202.976 C 201.406 202.978,201.197 203.018,201.513 203.066 M194.688 203.333 L 194.063 203.492 194.623 203.517 C 194.931 203.531,195.242 203.448,195.313 203.333 C 195.383 203.219,195.412 203.136,195.377 203.150 C 195.341 203.163,195.031 203.246,194.688 203.333 M202.347 203.483 C 202.663 203.531,203.132 203.529,203.388 203.480 C 203.645 203.431,203.385 203.391,202.813 203.393 C 202.240 203.394,202.030 203.435,202.347 203.483 M211.110 204.896 C 211.111 205.698,211.149 206.001,211.194 205.568 C 211.239 205.136,211.238 204.480,211.192 204.110 C 211.146 203.740,211.109 204.094,211.110 204.896 M201.719 204.102 C 201.919 204.154,202.247 204.154,202.448 204.102 C 202.648 204.050,202.484 204.007,202.083 204.007 C 201.682 204.007,201.518 204.050,201.719 204.102 M202.452 204.526 C 202.826 204.572,203.389 204.571,203.702 204.524 C 204.015 204.476,203.708 204.438,203.021 204.440 C 202.333 204.441,202.077 204.480,202.452 204.526 M190.273 206.354 C 190.274 207.042,190.313 207.298,190.359 206.923 C 190.406 206.549,190.405 205.986,190.357 205.673 C 190.310 205.360,190.272 205.667,190.273 206.354 M194.688 208.333 L 194.063 208.492 194.623 208.517 C 194.931 208.531,195.242 208.448,195.313 208.333 C 195.383 208.219,195.412 208.136,195.377 208.150 C 195.341 208.163,195.031 208.246,194.688 208.333 M198.958 210.082 C 198.958 210.284,199.545 210.360,199.811 210.192 C 200.024 210.057,199.948 210.006,199.531 210.003 C 199.216 210.001,198.958 210.037,198.958 210.082 M209.957 212.031 C 210.059 213.614,210.158 213.751,210.184 212.344 C 210.197 211.628,210.137 211.042,210.051 211.042 C 209.964 211.042,209.922 211.487,209.957 212.031 M210.886 212.188 C 210.888 212.646,210.931 212.809,210.981 212.550 C 211.031 212.291,211.029 211.916,210.976 211.716 C 210.924 211.517,210.884 211.729,210.886 212.188 M198.073 212.238 C 198.789 212.278,199.961 212.278,200.677 212.238 C 201.393 212.197,200.807 212.164,199.375 212.164 C 197.943 212.164,197.357 212.197,198.073 212.238 M189.223 215.833 C 189.223 216.349,189.264 216.560,189.314 216.302 C 189.363 216.044,189.363 215.622,189.314 215.365 C 189.264 215.107,189.223 215.318,189.223 215.833 M188.598 216.250 C 188.598 216.766,188.639 216.977,188.689 216.719 C 188.738 216.461,188.738 216.039,188.689 215.781 C 188.639 215.523,188.598 215.734,188.598 216.250 M203.594 215.560 C 203.794 215.613,204.122 215.613,204.323 215.560 C 204.523 215.508,204.359 215.465,203.958 215.465 C 203.557 215.465,203.393 215.508,203.594 215.560 M198.124 218.272 C 198.525 218.325,198.985 218.477,199.148 218.611 C 199.382 218.804,199.422 218.789,199.341 218.542 C 199.272 218.332,198.935 218.221,198.317 218.203 C 197.577 218.182,197.539 218.196,198.124 218.272 M203.750 218.333 C 203.491 218.501,203.509 218.535,203.854 218.535 C 204.083 218.535,204.411 218.444,204.583 218.333 C 204.842 218.166,204.824 218.131,204.479 218.131 C 204.250 218.131,203.922 218.222,203.750 218.333 M199.714 220.790 C 199.658 220.880,199.934 220.917,200.327 220.871 C 200.720 220.825,201.042 220.751,201.042 220.706 C 201.042 220.550,199.815 220.627,199.714 220.790 M203.385 220.769 C 203.586 220.821,203.914 220.821,204.115 220.769 C 204.315 220.716,204.151 220.673,203.750 220.673 C 203.349 220.673,203.185 220.716,203.385 220.769 M201.517 222.862 C 202.064 222.905,202.908 222.904,203.392 222.861 C 203.875 222.817,203.427 222.782,202.396 222.782 C 201.365 222.783,200.969 222.819,201.517 222.862 M200.785 223.901 C 201.159 223.947,201.722 223.946,202.035 223.899 C 202.348 223.851,202.042 223.813,201.354 223.815 C 200.667 223.816,200.411 223.855,200.785 223.901 M202.035 224.318 C 202.409 224.364,202.972 224.363,203.285 224.316 C 203.598 224.268,203.292 224.230,202.604 224.231 C 201.917 224.232,201.661 224.271,202.035 224.318 " stroke="none" fill="#7c7171" fill-rule="evenodd"></path><path id="path4" d="M111.346 76.510 C 111.291 76.654,111.271 83.849,111.302 92.500 L 111.357 108.229 111.408 92.347 L 111.458 76.464 117.760 76.406 L 124.063 76.348 117.754 76.299 C 112.862 76.261,111.423 76.308,111.346 76.510 M214.673 81.458 C 214.673 84.266,214.703 85.414,214.739 84.010 C 214.775 82.607,214.775 80.310,214.739 78.906 C 214.703 77.503,214.673 78.651,214.673 81.458 M264.667 79.583 C 264.667 81.359,264.699 82.086,264.738 81.198 C 264.777 80.310,264.777 78.857,264.738 77.969 C 264.699 77.081,264.667 77.807,264.667 79.583 M288.626 79.583 C 288.626 81.359,288.657 82.086,288.697 81.198 C 288.736 80.310,288.736 78.857,288.697 77.969 C 288.657 77.081,288.626 77.807,288.626 79.583 M142.383 80.677 L 141.771 81.354 142.448 80.742 C 142.820 80.406,143.125 80.101,143.125 80.065 C 143.125 79.904,142.953 80.046,142.383 80.677 M132.757 85.833 C 132.757 86.234,132.800 86.398,132.852 86.198 C 132.904 85.997,132.904 85.669,132.852 85.469 C 132.800 85.268,132.757 85.432,132.757 85.833 M119.228 89.113 C 120.122 89.153,121.528 89.152,122.353 89.113 C 123.179 89.073,122.448 89.041,120.729 89.042 C 119.010 89.042,118.335 89.074,119.228 89.113 M170.465 91.458 C 170.465 91.859,170.508 92.023,170.560 91.823 C 170.613 91.622,170.613 91.294,170.560 91.094 C 170.508 90.893,170.465 91.057,170.465 91.458 M182.768 92.396 C 182.769 92.969,182.810 93.178,182.858 92.862 C 182.906 92.545,182.904 92.076,182.855 91.820 C 182.806 91.564,182.766 91.823,182.768 92.396 M170.465 92.917 C 170.465 93.318,170.508 93.482,170.560 93.281 C 170.613 93.081,170.613 92.753,170.560 92.552 C 170.508 92.352,170.465 92.516,170.465 92.917 M247.969 94.947 C 249.659 94.982,252.424 94.982,254.115 94.947 C 255.805 94.912,254.422 94.884,251.042 94.884 C 247.661 94.884,246.279 94.912,247.969 94.947 M214.652 97.396 C 214.653 98.198,214.690 98.501,214.735 98.068 C 214.780 97.636,214.780 96.980,214.734 96.610 C 214.688 96.240,214.651 96.594,214.652 97.396 M243.490 96.605 C 243.747 96.655,244.169 96.655,244.427 96.605 C 244.685 96.556,244.474 96.515,243.958 96.515 C 243.443 96.515,243.232 96.556,243.490 96.605 M153.802 102.227 C 154.003 102.279,154.331 102.279,154.531 102.227 C 154.732 102.175,154.568 102.132,154.167 102.132 C 153.766 102.132,153.602 102.175,153.802 102.227 M165.614 103.906 L 164.896 104.688 165.677 103.970 C 166.404 103.301,166.554 103.125,166.395 103.125 C 166.360 103.125,166.009 103.477,165.614 103.906 M201.771 167.917 C 201.694 168.040,201.922 168.119,202.331 168.110 C 202.906 168.098,202.951 168.066,202.604 167.917 C 202.039 167.674,201.921 167.674,201.771 167.917 M202.292 171.032 C 202.464 171.148,202.784 171.245,203.003 171.247 C 203.536 171.251,203.370 171.132,202.604 170.960 C 202.148 170.858,202.063 170.878,202.292 171.032 M199.779 178.352 C 200.311 178.456,200.974 178.455,201.341 178.348 C 201.850 178.200,201.664 178.163,200.417 178.167 C 198.956 178.170,198.914 178.182,199.779 178.352 M204.570 179.800 C 204.161 180.053,204.388 180.163,205.000 180.009 C 205.400 179.907,205.444 179.847,205.189 179.749 C 205.007 179.679,204.729 179.702,204.570 179.800 M206.042 186.268 C 206.042 186.373,206.245 186.458,206.493 186.458 C 206.741 186.458,206.879 186.393,206.800 186.313 C 206.574 186.088,206.042 186.057,206.042 186.268 M205.104 188.139 C 204.765 188.273,204.813 188.307,205.365 188.319 C 206.069 188.334,206.228 188.239,205.781 188.072 C 205.638 188.018,205.333 188.049,205.104 188.139 M192.292 188.832 C 192.292 189.034,192.879 189.110,193.144 188.942 C 193.358 188.807,193.282 188.756,192.865 188.753 C 192.549 188.751,192.292 188.787,192.292 188.832 M200.260 191.185 C 200.461 191.238,200.789 191.238,200.990 191.185 C 201.190 191.133,201.026 191.090,200.625 191.090 C 200.224 191.090,200.060 191.133,200.260 191.185 M190.678 191.979 C 190.680 192.438,190.723 192.600,190.772 192.341 C 190.822 192.082,190.820 191.707,190.768 191.508 C 190.716 191.309,190.675 191.521,190.678 191.979 M210.060 192.813 C 210.061 193.385,210.102 193.595,210.149 193.278 C 210.197 192.962,210.196 192.493,210.147 192.237 C 210.097 191.980,210.058 192.240,210.060 192.813 M210.882 192.500 C 210.882 192.901,210.925 193.065,210.977 192.865 C 211.029 192.664,211.029 192.336,210.977 192.135 C 210.925 191.935,210.882 192.099,210.882 192.500 M194.063 194.792 C 193.696 194.949,193.716 194.972,194.231 194.985 C 194.571 194.994,194.762 194.913,194.688 194.792 C 194.617 194.677,194.541 194.590,194.519 194.598 C 194.497 194.606,194.292 194.693,194.063 194.792 M199.656 194.802 C 200.212 194.895,200.868 194.890,201.114 194.791 C 201.428 194.664,201.125 194.613,200.104 194.621 C 198.652 194.632,198.650 194.633,199.656 194.802 M202.659 194.731 C 202.918 194.781,203.293 194.779,203.492 194.726 C 203.691 194.674,203.479 194.634,203.021 194.636 C 202.563 194.638,202.400 194.681,202.659 194.731 M201.618 195.984 C 201.993 196.031,202.555 196.030,202.868 195.982 C 203.181 195.935,202.875 195.897,202.188 195.898 C 201.500 195.899,201.244 195.938,201.618 195.984 M192.471 196.436 C 192.730 196.600,193.542 196.519,193.542 196.330 C 193.542 196.286,193.237 196.251,192.865 196.253 C 192.404 196.255,192.278 196.314,192.471 196.436 M193.958 196.667 C 193.496 196.815,193.527 196.836,194.231 196.854 C 194.712 196.867,194.974 196.793,194.896 196.667 C 194.751 196.432,194.690 196.432,193.958 196.667 M199.823 196.671 C 200.356 196.761,201.293 196.762,201.906 196.672 C 202.876 196.531,202.750 196.510,200.938 196.509 C 199.248 196.508,199.037 196.538,199.823 196.671 M190.469 197.396 C 190.472 197.854,190.514 198.017,190.564 197.758 C 190.614 197.499,190.612 197.124,190.560 196.925 C 190.508 196.725,190.467 196.938,190.469 197.396 M201.927 197.860 C 202.357 197.905,203.060 197.905,203.490 197.860 C 203.919 197.815,203.568 197.778,202.708 197.778 C 201.849 197.778,201.497 197.815,201.927 197.860 M201.927 198.902 C 202.357 198.947,203.060 198.947,203.490 198.902 C 203.919 198.857,203.568 198.820,202.708 198.820 C 201.849 198.820,201.497 198.857,201.927 198.902 M210.271 200.208 C 210.271 200.839,210.310 201.096,210.358 200.781 C 210.405 200.466,210.405 199.951,210.358 199.635 C 210.310 199.320,210.271 199.578,210.271 200.208 M192.292 199.457 C 192.292 199.659,192.879 199.735,193.144 199.567 C 193.358 199.432,193.282 199.381,192.865 199.378 C 192.549 199.376,192.292 199.412,192.292 199.457 M193.958 199.792 C 193.496 199.940,193.527 199.961,194.231 199.979 C 194.712 199.992,194.974 199.918,194.896 199.792 C 194.751 199.557,194.690 199.557,193.958 199.792 M200.175 199.817 C 200.837 199.927,201.555 199.925,201.946 199.811 C 202.468 199.660,202.238 199.622,200.833 199.626 C 199.097 199.632,199.084 199.636,200.175 199.817 M203.177 199.935 C 203.378 199.988,203.706 199.988,203.906 199.935 C 204.107 199.883,203.943 199.840,203.542 199.840 C 203.141 199.840,202.977 199.883,203.177 199.935 M199.896 200.835 C 200.354 200.926,201.292 200.928,201.979 200.840 C 203.135 200.692,203.072 200.679,201.146 200.675 C 199.571 200.672,199.266 200.711,199.896 200.835 M200.508 202.094 C 200.852 202.197,201.583 202.199,202.175 202.100 C 203.194 201.930,203.173 201.923,201.563 201.917 C 200.287 201.912,200.039 201.954,200.508 202.094 M190.261 203.021 C 190.263 203.479,190.306 203.642,190.356 203.383 C 190.406 203.124,190.404 202.749,190.351 202.550 C 190.299 202.350,190.259 202.563,190.261 203.021 M189.215 203.333 C 189.215 203.734,189.258 203.898,189.310 203.698 C 189.363 203.497,189.363 203.169,189.310 202.969 C 189.258 202.768,189.215 202.932,189.215 203.333 M199.392 202.993 C 199.635 203.207,201.071 203.341,200.946 203.138 C 200.870 203.016,200.471 202.917,200.057 202.917 C 199.644 202.917,199.345 202.951,199.392 202.993 M192.292 203.832 C 192.292 204.034,192.879 204.110,193.144 203.942 C 193.358 203.807,193.282 203.756,192.865 203.753 C 192.549 203.751,192.292 203.787,192.292 203.832 M199.977 204.184 C 200.525 204.291,201.026 204.285,201.227 204.167 C 201.462 204.030,201.186 203.976,200.313 203.987 L 199.063 204.004 199.977 204.184 M203.075 204.106 C 203.334 204.156,203.709 204.154,203.909 204.101 C 204.108 204.049,203.896 204.009,203.438 204.011 C 202.979 204.013,202.816 204.056,203.075 204.106 M201.719 205.352 C 201.919 205.404,202.247 205.404,202.448 205.352 C 202.648 205.300,202.484 205.257,202.083 205.257 C 201.682 205.257,201.518 205.300,201.719 205.352 M192.647 206.063 C 192.811 206.228,192.985 206.230,193.261 206.070 C 193.598 205.874,193.570 205.845,193.031 205.840 C 192.583 205.835,192.479 205.896,192.647 206.063 M194.271 206.250 C 193.688 206.398,193.706 206.411,194.544 206.434 C 195.094 206.449,195.392 206.378,195.313 206.250 C 195.171 206.021,195.169 206.021,194.271 206.250 M199.950 206.189 C 200.209 206.239,200.584 206.237,200.784 206.185 C 200.983 206.133,200.771 206.092,200.313 206.094 C 199.854 206.097,199.691 206.139,199.950 206.189 M202.135 206.399 C 202.451 206.447,202.966 206.447,203.281 206.399 C 203.596 206.351,203.339 206.312,202.708 206.312 C 202.078 206.312,201.820 206.351,202.135 206.399 M210.271 207.708 C 210.271 208.339,210.310 208.596,210.358 208.281 C 210.405 207.966,210.405 207.451,210.358 207.135 C 210.310 206.820,210.271 207.078,210.271 207.708 M189.249 210.521 C 189.249 212.125,189.282 212.754,189.322 211.918 C 189.361 211.082,189.361 209.770,189.321 209.001 C 189.281 208.233,189.249 208.917,189.249 210.521 M199.950 208.272 C 200.209 208.322,200.584 208.320,200.784 208.268 C 200.983 208.216,200.771 208.175,200.313 208.178 C 199.854 208.180,199.691 208.223,199.950 208.272 M202.035 208.484 C 202.409 208.531,202.972 208.530,203.285 208.482 C 203.598 208.435,203.292 208.397,202.604 208.398 C 201.917 208.399,201.661 208.438,202.035 208.484 M210.890 209.167 C 210.890 209.682,210.931 209.893,210.980 209.635 C 211.030 209.378,211.030 208.956,210.980 208.698 C 210.931 208.440,210.890 208.651,210.890 209.167 M200.808 209.420 C 201.560 209.557,202.073 209.553,202.370 209.409 C 202.714 209.243,202.463 209.197,201.250 209.206 L 199.688 209.216 200.808 209.420 M203.177 209.519 C 203.378 209.571,203.706 209.571,203.906 209.519 C 204.107 209.466,203.943 209.423,203.542 209.423 C 203.141 209.423,202.977 209.466,203.177 209.519 M203.594 212.019 C 203.794 212.071,204.122 212.071,204.323 212.019 C 204.523 211.966,204.359 211.923,203.958 211.923 C 203.557 211.923,203.393 211.966,203.594 212.019 M191.500 214.417 C 191.119 214.797,191.200 215.003,191.719 214.976 C 192.088 214.957,192.108 214.931,191.812 214.854 C 191.514 214.777,191.487 214.696,191.681 214.462 C 191.979 214.103,191.847 214.070,191.500 214.417 M210.673 215.000 C 210.673 215.401,210.716 215.565,210.769 215.365 C 210.821 215.164,210.821 214.836,210.769 214.635 C 210.716 214.435,210.673 214.599,210.673 215.000 M194.219 217.019 C 194.419 217.071,194.747 217.071,194.948 217.019 C 195.148 216.966,194.984 216.923,194.583 216.923 C 194.182 216.923,194.018 216.966,194.219 217.019 M201.302 217.443 C 201.732 217.488,202.435 217.488,202.865 217.443 C 203.294 217.398,202.943 217.362,202.083 217.362 C 201.224 217.362,200.872 217.398,201.302 217.443 M195.052 218.060 C 195.253 218.113,195.581 218.113,195.781 218.060 C 195.982 218.008,195.818 217.965,195.417 217.965 C 195.016 217.965,194.852 218.008,195.052 218.060 M200.990 218.276 C 201.362 218.322,201.971 218.322,202.344 218.276 C 202.716 218.229,202.411 218.192,201.667 218.192 C 200.922 218.192,200.617 218.229,200.990 218.276 M194.479 218.542 L 193.854 218.701 194.531 218.725 C 194.904 218.739,195.208 218.656,195.208 218.542 C 195.208 218.427,195.185 218.344,195.156 218.358 C 195.128 218.372,194.823 218.454,194.479 218.542 M200.569 219.814 C 201.196 219.918,201.991 219.917,202.444 219.810 C 203.088 219.658,202.893 219.626,201.354 219.629 C 199.588 219.632,199.543 219.643,200.569 219.814 M190.903 223.542 C 190.903 224.401,190.940 224.753,190.985 224.323 C 191.030 223.893,191.030 223.190,190.985 222.760 C 190.940 222.331,190.903 222.682,190.903 223.542 M202.344 222.235 C 202.773 222.280,203.477 222.280,203.906 222.235 C 204.336 222.190,203.984 222.153,203.125 222.153 C 202.266 222.153,201.914 222.190,202.344 222.235 M194.086 222.671 C 194.028 222.764,194.257 222.801,194.594 222.751 C 194.932 222.702,195.208 222.625,195.208 222.581 C 195.208 222.422,194.189 222.504,194.086 222.671 M199.792 222.917 C 200.540 223.156,200.877 223.156,200.729 222.917 C 200.658 222.802,200.301 222.718,199.936 222.729 C 199.301 222.749,199.294 222.757,199.792 222.917 M199.792 223.958 C 199.964 224.069,200.245 224.160,200.417 224.160 C 200.694 224.160,200.694 224.138,200.417 223.958 C 200.245 223.847,199.964 223.756,199.792 223.756 C 199.514 223.756,199.514 223.779,199.792 223.958 M206.354 224.792 C 206.928 225.038,207.131 225.038,206.979 224.792 C 206.908 224.677,206.645 224.590,206.394 224.598 C 205.954 224.612,205.952 224.619,206.354 224.792 M200.892 224.945 C 201.439 224.988,202.283 224.988,202.767 224.944 C 203.250 224.900,202.802 224.865,201.771 224.866 C 200.740 224.866,200.344 224.902,200.892 224.945 " stroke="none" fill="#949494" fill-rule="evenodd"></path><path id="path5" d="M210.062 76.405 C 210.955 76.444,212.361 76.444,213.187 76.404 C 214.012 76.365,213.281 76.333,211.563 76.333 C 209.844 76.334,209.168 76.366,210.062 76.405 M226.198 76.405 C 227.372 76.443,229.294 76.443,230.469 76.405 C 231.643 76.368,230.682 76.338,228.333 76.338 C 225.984 76.338,225.023 76.368,226.198 76.405 M249.005 76.405 L 259.573 76.462 259.638 79.585 L 259.704 82.709 259.696 79.531 L 259.688 76.354 249.063 76.351 L 238.438 76.348 249.005 76.405 M270.677 76.406 C 273.971 76.438,279.362 76.438,282.656 76.406 C 285.951 76.374,283.255 76.348,276.667 76.348 C 270.078 76.348,267.383 76.374,270.677 76.406 M279.887 91.354 C 279.887 96.052,279.914 98.004,279.948 95.691 C 279.981 93.378,279.981 89.535,279.948 87.149 C 279.914 84.764,279.887 86.656,279.887 91.354 M201.667 168.994 C 201.667 169.089,201.948 169.167,202.292 169.167 C 202.635 169.167,202.917 169.130,202.917 169.086 C 202.917 169.042,202.635 168.964,202.292 168.914 C 201.948 168.863,201.667 168.900,201.667 168.994 M200.704 175.249 C 200.647 175.341,200.981 175.417,201.446 175.417 C 201.911 175.417,202.292 175.380,202.292 175.335 C 202.292 175.168,200.804 175.087,200.704 175.249 M200.573 176.401 C 200.945 176.447,201.555 176.447,201.927 176.401 C 202.299 176.354,201.995 176.317,201.250 176.317 C 200.505 176.317,200.201 176.354,200.573 176.401 M201.402 177.859 C 201.771 177.905,202.428 177.905,202.860 177.860 C 203.292 177.815,202.990 177.778,202.188 177.777 C 201.385 177.776,201.032 177.813,201.402 177.859 M190.673 193.333 C 190.673 193.734,190.716 193.898,190.769 193.698 C 190.821 193.497,190.821 193.169,190.769 192.969 C 190.716 192.768,190.673 192.932,190.673 193.333 M210.057 194.583 C 210.057 195.099,210.097 195.310,210.147 195.052 C 210.197 194.794,210.197 194.372,210.147 194.115 C 210.097 193.857,210.057 194.068,210.057 194.583 M211.126 200.208 C 211.126 202.099,211.158 202.872,211.197 201.927 C 211.235 200.982,211.235 199.435,211.197 198.490 C 211.158 197.544,211.126 198.318,211.126 200.208 M190.465 198.750 C 190.465 199.151,190.508 199.315,190.560 199.115 C 190.613 198.914,190.613 198.586,190.560 198.385 C 190.508 198.185,190.465 198.349,190.465 198.750 M210.261 201.979 C 210.263 202.438,210.306 202.600,210.356 202.341 C 210.406 202.082,210.404 201.707,210.351 201.508 C 210.299 201.309,210.259 201.521,210.261 201.979 M190.261 204.479 C 190.263 204.938,190.306 205.100,190.356 204.841 C 190.406 204.582,190.404 204.207,190.351 204.008 C 190.299 203.809,190.259 204.021,190.261 204.479 M189.242 205.833 C 189.242 206.922,189.277 207.367,189.320 206.823 C 189.363 206.279,189.363 205.388,189.320 204.844 C 189.277 204.299,189.242 204.745,189.242 205.833 M202.240 207.442 C 202.612 207.489,203.221 207.489,203.594 207.442 C 203.966 207.396,203.661 207.358,202.917 207.358 C 202.172 207.358,201.867 207.396,202.240 207.442 M210.886 210.729 C 210.888 211.188,210.931 211.350,210.981 211.091 C 211.031 210.832,211.029 210.457,210.976 210.258 C 210.924 210.059,210.884 210.271,210.886 210.729 M202.135 210.566 C 202.451 210.614,202.966 210.614,203.281 210.566 C 203.596 210.518,203.339 210.479,202.708 210.479 C 202.078 210.479,201.820 210.518,202.135 210.566 M189.223 214.167 C 189.223 214.682,189.264 214.893,189.314 214.635 C 189.363 214.378,189.363 213.956,189.314 213.698 C 189.264 213.440,189.223 213.651,189.223 214.167 M210.673 216.250 C 210.673 216.651,210.716 216.815,210.769 216.615 C 210.821 216.414,210.821 216.086,210.769 215.885 C 210.716 215.685,210.673 215.849,210.673 216.250 M201.927 218.902 C 202.357 218.947,203.060 218.947,203.490 218.902 C 203.919 218.857,203.568 218.820,202.708 218.820 C 201.849 218.820,201.497 218.857,201.927 218.902 M190.886 221.354 C 190.888 221.813,190.931 221.975,190.981 221.716 C 191.031 221.457,191.029 221.082,190.976 220.883 C 190.924 220.684,190.884 220.896,190.886 221.354 M202.235 221.192 C 202.605 221.238,203.261 221.239,203.693 221.194 C 204.126 221.149,203.823 221.111,203.021 221.110 C 202.219 221.109,201.865 221.146,202.235 221.192 M202.763 223.274 C 203.080 223.322,203.549 223.321,203.805 223.272 C 204.061 223.222,203.802 223.183,203.229 223.185 C 202.656 223.186,202.447 223.227,202.763 223.274 " stroke="none" fill="#8c8c8c" fill-rule="evenodd"></path></g></svg>