<svg id="svg" version="1.1" xmlns="http://www.w3.org/2000/svg" xmlns:xlink="http://www.w3.org/1999/xlink" width="400" height="225" viewBox="0, 0, 400,225"><g id="svgg"><path id="path0" d="M151.042 76.136 C 140.238 78.468,134.650 89.740,139.470 99.479 C 147.124 114.944,170.417 109.456,170.417 92.187 C 170.417 81.978,160.818 74.026,151.042 76.136 M190.474 76.053 C 178.967 77.228,172.364 89.642,177.731 100.010 C 182.143 108.535,193.234 111.318,201.345 105.934 C 201.980 105.513,202.500 105.079,202.500 104.970 C 202.500 104.718,198.707 100.390,198.553 100.466 C 198.489 100.498,197.922 100.795,197.292 101.126 C 190.010 104.959,181.570 98.884,182.897 90.765 C 183.973 84.175,191.298 80.476,197.247 83.518 C 198.328 84.071,198.073 84.228,200.390 81.582 L 202.300 79.401 201.354 78.750 C 198.372 76.698,194.223 75.670,190.474 76.053 M111.458 92.281 L 111.458 108.125 114.583 108.125 L 117.708 108.125 117.708 101.771 L 117.708 95.417 119.323 95.423 L 120.938 95.430 123.854 101.771 L 126.771 108.113 130.134 108.119 L 133.496 108.125 130.394 101.444 C 126.851 93.815,127.094 94.547,127.969 94.126 C 134.614 90.924,134.106 80.530,127.143 77.232 L 125.729 76.563 118.594 76.500 L 111.458 76.438 111.458 92.281 M208.333 92.292 L 208.333 108.125 211.458 108.125 L 214.583 108.125 214.583 102.129 L 214.583 96.133 215.846 94.889 C 216.954 93.798,217.138 93.687,217.356 93.985 C 217.493 94.171,219.337 97.429,221.455 101.224 L 225.306 108.125 229.007 108.125 C 231.043 108.125,232.708 108.089,232.708 108.044 C 232.708 108.000,230.285 103.852,227.323 98.826 C 224.362 93.800,221.827 89.476,221.690 89.216 C 221.458 88.777,221.795 88.351,226.719 82.862 C 229.622 79.627,232.069 76.862,232.157 76.719 C 232.282 76.514,231.428 76.458,228.145 76.458 L 223.974 76.458 219.440 81.458 C 216.947 84.208,214.834 86.458,214.745 86.458 C 214.656 86.458,214.583 84.208,214.583 81.458 L 214.583 76.458 211.458 76.458 L 208.333 76.458 208.333 92.292 M238.542 92.292 L 238.542 108.125 249.063 108.125 L 259.583 108.125 259.583 105.000 L 259.583 101.875 252.182 101.875 L 244.782 101.875 244.839 98.385 L 244.896 94.896 250.990 94.841 L 257.083 94.785 257.083 91.664 L 257.083 88.542 250.938 88.542 L 244.792 88.542 244.792 85.625 L 244.792 82.708 252.188 82.708 L 259.583 82.708 259.583 79.583 L 259.583 76.458 249.063 76.458 L 238.542 76.458 238.542 92.292 M264.792 79.583 L 264.792 82.708 269.167 82.708 L 273.542 82.708 273.542 95.417 L 273.542 108.125 276.667 108.125 L 279.792 108.125 279.792 95.417 L 279.792 82.708 284.167 82.708 L 288.542 82.708 288.542 79.583 L 288.542 76.458 276.667 76.458 L 264.792 76.458 264.792 79.583 M156.555 82.611 C 164.007 84.552,166.551 93.820,161.123 99.248 C 155.655 104.717,146.437 102.169,144.477 94.647 C 142.607 87.466,149.359 80.737,156.555 82.611 M125.021 83.181 C 126.432 84.124,126.892 86.176,125.990 87.502 C 124.999 88.958,124.702 89.055,121.027 89.129 L 117.708 89.195 117.708 85.952 L 117.708 82.708 121.011 82.708 C 124.097 82.708,124.360 82.739,125.021 83.181 M233.599 116.469 C 222.211 117.633,215.557 129.930,220.741 140.232 C 225.095 148.883,236.302 151.773,244.470 146.351 C 245.105 145.929,245.625 145.496,245.625 145.387 C 245.625 145.135,241.832 140.807,241.678 140.883 C 241.614 140.914,241.047 141.211,240.417 141.543 C 233.092 145.398,224.739 139.358,226.037 131.146 C 227.069 124.617,234.447 120.905,240.372 123.934 C 241.453 124.487,241.199 124.644,243.512 122.002 L 245.419 119.824 244.856 119.381 C 242.285 117.359,237.360 116.085,233.599 116.469 M135.440 116.774 C 129.469 118.452,126.714 124.313,129.365 129.698 C 130.580 132.167,132.557 133.561,136.875 134.994 C 142.574 136.885,144.344 139.497,141.635 142.017 C 139.765 143.756,134.805 142.844,131.822 140.212 L 130.832 139.338 128.534 141.475 L 126.236 143.612 126.915 144.313 C 133.356 150.957,144.699 150.637,148.107 143.714 C 151.254 137.321,147.362 131.594,137.917 128.721 C 133.158 127.273,133.585 122.730,138.482 122.713 C 140.143 122.707,141.353 123.121,143.498 124.430 C 144.497 125.039,145.298 125.403,145.397 125.294 C 145.491 125.189,146.238 124.001,147.057 122.653 L 148.545 120.202 147.137 119.295 C 143.220 116.772,138.821 115.824,135.440 116.774 M161.298 131.604 C 157.173 139.717,153.550 146.846,153.249 147.448 L 152.701 148.542 156.194 148.537 L 159.688 148.533 161.162 145.673 L 162.637 142.813 169.291 142.758 L 175.946 142.703 177.283 145.622 L 178.620 148.542 182.120 148.542 L 185.621 148.542 184.989 147.240 C 184.642 146.523,181.284 139.422,177.527 131.458 L 170.697 116.979 169.749 116.917 L 168.800 116.854 161.298 131.604 M189.375 127.730 C 189.375 139.783,189.387 139.908,190.757 142.521 C 195.297 151.183,207.833 151.174,212.377 142.504 C 213.737 139.910,213.750 139.772,213.750 127.730 L 213.750 116.875 210.625 116.875 L 207.500 116.875 207.500 127.359 C 207.500 139.154,207.517 139.004,205.982 140.748 C 203.137 143.980,197.852 143.138,196.058 139.167 C 195.650 138.264,195.634 137.835,195.630 127.552 L 195.625 116.875 192.500 116.875 L 189.375 116.875 189.375 127.730 M251.458 132.708 L 251.458 148.542 261.979 148.542 L 272.500 148.542 272.500 145.419 L 272.500 142.297 265.156 142.242 L 257.813 142.188 257.813 138.750 L 257.813 135.313 263.906 135.257 L 270.000 135.202 270.000 132.080 L 270.000 128.958 263.854 128.958 L 257.708 128.958 257.708 126.042 L 257.708 123.125 265.208 123.125 L 272.708 123.125 272.708 120.000 L 272.708 116.875 262.083 116.875 L 251.458 116.875 251.458 132.708 M171.278 132.806 C 172.153 134.688,172.817 136.280,172.754 136.343 C 172.612 136.486,166.042 136.498,166.042 136.356 C 166.042 136.148,169.477 129.375,169.580 129.379 C 169.639 129.382,170.403 130.924,171.278 132.806 " stroke="none" fill="#fafafa" fill-rule="evenodd"></path></g></svg>