<svg id="svg" version="1.1" xmlns="http://www.w3.org/2000/svg" xmlns:xlink="http://www.w3.org/1999/xlink" width="400" height="225" viewBox="0, 0, 400,225"><g id="svgg"><path id="path0" d="M151.354 76.042 C 140.526 77.996,134.611 89.661,139.470 99.479 C 147.148 114.994,170.417 109.467,170.417 92.128 C 170.417 82.127,161.117 74.280,151.354 76.042 M190.350 76.055 C 178.881 77.374,172.385 89.696,177.727 100.000 C 182.158 108.548,193.220 111.328,201.345 105.934 C 201.980 105.513,202.500 105.079,202.500 104.970 C 202.500 104.718,198.707 100.390,198.553 100.466 C 198.489 100.498,197.922 100.795,197.292 101.126 C 190.010 104.959,181.570 98.884,182.897 90.765 C 183.918 84.514,190.655 80.761,196.458 83.209 C 197.203 83.524,197.938 83.797,198.091 83.817 C 198.687 83.896,202.284 79.516,201.940 79.129 C 200.290 77.275,194.074 75.627,190.350 76.055 M111.458 92.281 L 111.458 108.125 114.583 108.125 L 117.708 108.125 117.708 101.762 L 117.708 95.399 119.317 95.460 L 120.925 95.521 123.848 101.816 L 126.771 108.110 130.136 108.118 L 133.502 108.125 130.397 101.436 C 126.845 93.784,127.098 94.546,127.969 94.123 C 134.557 90.918,134.162 80.721,127.319 77.337 L 125.752 76.563 118.605 76.500 L 111.458 76.438 111.458 92.281 M208.333 92.292 L 208.333 108.125 211.458 108.125 L 214.583 108.125 214.583 102.129 L 214.583 96.133 215.846 94.889 C 216.956 93.796,217.138 93.687,217.356 93.986 C 217.493 94.174,219.337 97.431,221.454 101.226 L 225.304 108.125 229.006 108.125 C 231.042 108.125,232.708 108.087,232.708 108.040 C 232.708 107.992,230.286 103.844,227.324 98.821 C 224.363 93.797,221.829 89.478,221.693 89.221 C 221.464 88.788,221.820 88.339,226.722 82.867 C 229.623 79.629,232.069 76.862,232.157 76.719 C 232.282 76.514,231.428 76.458,228.142 76.458 L 223.968 76.458 219.432 81.458 C 216.937 84.208,214.826 86.458,214.740 86.458 C 214.654 86.458,214.583 84.208,214.583 81.458 L 214.583 76.458 211.458 76.458 L 208.333 76.458 208.333 92.292 M238.542 92.292 L 238.542 108.125 249.063 108.125 L 259.583 108.125 259.583 105.000 L 259.583 101.875 252.182 101.875 L 244.782 101.875 244.839 98.385 L 244.896 94.896 250.990 94.841 L 257.083 94.785 257.083 91.664 L 257.083 88.542 250.938 88.542 L 244.792 88.542 244.792 85.625 L 244.792 82.708 252.188 82.708 L 259.583 82.708 259.583 79.583 L 259.583 76.458 249.063 76.458 L 238.542 76.458 238.542 92.292 M264.792 79.583 L 264.792 82.708 269.167 82.708 L 273.542 82.708 273.542 95.417 L 273.542 108.125 276.667 108.125 L 279.792 108.125 279.792 95.417 L 279.792 82.708 284.167 82.708 L 288.542 82.708 288.542 79.583 L 288.542 76.458 276.667 76.458 L 264.792 76.458 264.792 79.583 M156.555 82.611 C 163.999 84.550,166.546 93.825,161.123 99.248 C 155.661 104.710,146.434 102.160,144.477 94.647 C 142.610 87.479,149.372 80.740,156.555 82.611 M125.000 83.177 C 126.428 84.152,126.892 86.177,125.990 87.502 C 124.999 88.957,124.701 89.055,121.027 89.133 L 117.708 89.203 117.708 85.956 L 117.708 82.708 121.011 82.708 C 124.093 82.708,124.359 82.740,125.000 83.177 M233.475 116.472 C 220.798 117.929,214.362 133.479,222.511 142.963 L 223.356 143.947 224.439 143.232 C 225.475 142.546,228.850 141.460,229.948 141.459 C 230.615 141.458,230.515 141.235,229.523 140.516 C 225.101 137.304,224.679 129.861,228.692 125.862 C 231.998 122.568,236.133 122.049,241.176 124.296 C 241.668 124.516,245.415 119.939,245.065 119.546 C 243.416 117.692,237.199 116.044,233.475 116.472 M135.440 116.774 C 130.557 118.146,127.763 122.210,128.487 126.885 C 129.118 130.965,131.383 133.171,136.783 134.964 C 138.165 135.422,139.852 136.136,140.533 136.549 C 143.311 138.236,149.175 138.784,148.823 137.324 C 147.921 133.575,144.196 130.636,137.920 128.720 C 135.155 127.877,134.033 126.265,134.930 124.429 C 136.066 122.104,139.800 122.140,143.644 124.512 C 144.508 125.045,145.269 125.425,145.337 125.358 C 145.404 125.290,146.149 124.127,146.992 122.774 L 148.525 120.313 147.981 119.863 C 144.743 117.186,139.003 115.773,135.440 116.774 M163.533 127.229 C 160.643 132.935,158.000 138.102,157.659 138.710 C 157.318 139.319,157.072 139.842,157.113 139.873 C 157.154 139.904,157.750 140.048,158.438 140.193 C 159.125 140.339,160.099 140.636,160.602 140.855 C 163.538 142.131,166.065 142.533,170.098 142.366 C 177.005 142.080,177.736 142.145,180.532 143.293 C 181.578 143.722,183.342 144.032,183.323 143.782 C 183.317 143.707,180.475 137.646,177.007 130.313 L 170.701 116.979 169.744 116.916 L 168.787 116.854 163.533 127.229 M189.375 127.769 C 189.375 139.777,189.389 139.930,190.683 142.377 L 191.354 143.646 193.333 143.775 C 194.422 143.847,196.712 144.154,198.422 144.459 C 201.975 145.093,205.785 145.241,207.292 144.805 C 207.807 144.656,208.973 144.427,209.881 144.296 L 211.533 144.059 212.313 142.619 C 213.735 139.991,213.750 139.840,213.750 127.718 L 213.750 116.875 210.625 116.875 L 207.500 116.875 207.500 127.359 C 207.500 139.154,207.517 139.004,205.982 140.748 C 203.233 143.870,198.205 143.219,196.180 139.479 C 195.736 138.659,195.728 138.471,195.670 127.760 L 195.611 116.875 192.493 116.875 L 189.375 116.875 189.375 127.769 M251.458 128.045 L 251.458 139.215 251.927 139.080 C 252.185 139.005,253.005 138.899,253.750 138.844 C 257.810 138.546,257.670 138.619,257.750 136.765 L 257.813 135.313 263.229 135.208 C 267.091 135.134,268.840 135.024,269.323 134.823 L 270.000 134.543 270.000 131.750 L 270.000 128.958 263.854 128.958 L 257.708 128.958 257.708 126.042 L 257.708 123.125 265.208 123.125 L 272.708 123.125 272.708 120.000 L 272.708 116.875 262.083 116.875 L 251.458 116.875 251.458 128.045 M171.278 132.806 C 172.153 134.688,172.817 136.280,172.754 136.343 C 172.612 136.486,166.042 136.498,166.042 136.356 C 166.042 136.148,169.477 129.375,169.580 129.379 C 169.639 129.382,170.403 130.924,171.278 132.806 M200.066 200.900 C 199.271 201.911,195.562 209.873,195.099 211.563 C 194.910 212.250,194.288 214.259,193.715 216.027 C 192.796 218.862,191.468 224.002,191.461 224.748 C 191.459 224.963,193.188 225.011,200.208 224.989 C 205.021 224.973,208.958 224.888,208.958 224.798 C 208.958 224.709,208.637 223.570,208.243 222.266 C 207.850 220.962,207.141 218.443,206.667 216.667 C 205.080 210.714,204.978 210.441,200.990 201.483 L 200.491 200.361 200.066 200.900 M201.353 203.594 C 203.136 207.493,204.749 212.129,205.849 216.517 C 206.200 217.917,206.762 219.931,207.098 220.992 C 207.938 223.647,207.920 223.856,206.823 224.131 C 203.761 224.898,196.738 224.840,193.362 224.021 C 192.765 223.876,192.835 222.861,193.625 220.240 C 193.890 219.363,194.225 218.130,194.371 217.500 C 194.998 214.784,196.159 211.380,197.283 208.958 C 197.948 207.526,198.897 205.346,199.392 204.115 C 200.470 201.432,200.376 201.457,201.353 203.594 M202.344 213.269 C 202.544 213.321,202.872 213.321,203.073 213.269 C 203.273 213.216,203.109 213.173,202.708 213.173 C 202.307 213.173,202.143 213.216,202.344 213.269 M202.552 214.310 C 202.753 214.363,203.081 214.363,203.281 214.310 C 203.482 214.258,203.318 214.215,202.917 214.215 C 202.516 214.215,202.352 214.258,202.552 214.310 M202.388 215.638 C 202.294 215.789,202.506 215.814,203.052 215.715 C 204.116 215.522,204.196 215.417,203.276 215.417 C 202.863 215.417,202.463 215.516,202.388 215.638 M203.021 216.458 L 202.188 216.608 202.917 216.622 C 203.318 216.631,203.833 216.557,204.063 216.458 C 204.553 216.247,204.199 216.247,203.021 216.458 M202.813 217.500 L 201.979 217.649 202.917 217.664 C 203.432 217.672,204.042 217.598,204.271 217.500 C 204.804 217.271,204.092 217.271,202.813 217.500 M202.396 218.750 L 201.771 218.909 202.500 218.909 C 202.901 218.909,203.510 218.837,203.854 218.750 L 204.479 218.591 203.750 218.591 C 203.349 218.591,202.740 218.663,202.396 218.750 M203.021 219.493 L 201.563 219.769 202.965 219.671 C 204.280 219.579,205.949 219.176,204.896 219.205 C 204.667 219.211,203.823 219.341,203.021 219.493 M202.917 220.625 L 201.979 220.771 202.917 220.777 C 203.432 220.781,204.135 220.712,204.479 220.625 L 205.104 220.466 204.479 220.473 C 204.135 220.476,203.432 220.545,202.917 220.625 M203.021 221.583 L 201.354 221.857 202.917 221.764 C 204.442 221.672,206.413 221.271,205.208 221.297 C 204.922 221.303,203.938 221.432,203.021 221.583 M203.333 222.621 L 201.771 222.897 203.262 222.803 C 204.611 222.718,206.455 222.294,205.313 222.332 C 205.083 222.339,204.193 222.470,203.333 222.621 M203.438 223.649 C 201.955 223.878,201.886 223.907,202.813 223.912 C 203.385 223.916,204.323 223.798,204.896 223.651 C 206.201 223.315,205.607 223.314,203.438 223.649 " stroke="none" fill="#f9f9f9" fill-rule="evenodd"></path><path id="path1" d="M0.000 112.500 L 0.000 225.000 95.621 225.000 L 191.242 225.000 191.342 224.531 C 191.953 221.654,193.082 217.407,193.831 215.167 C 194.341 213.643,194.914 211.833,195.105 211.146 C 195.296 210.458,195.903 208.958,196.453 207.813 C 197.004 206.667,197.970 204.651,198.601 203.333 C 200.431 199.508,200.244 199.465,202.353 204.212 C 204.847 209.828,205.336 211.127,206.260 214.594 C 206.905 217.017,208.096 221.215,209.107 224.635 C 209.210 224.982,213.938 225.000,304.608 225.000 L 400.000 225.000 400.000 112.500 L 400.000 0.000 200.000 0.000 L 0.000 0.000 0.000 112.500 M156.529 75.944 C 167.075 77.089,173.685 89.338,169.051 99.148 C 164.124 109.580,150.681 111.997,142.483 103.926 C 132.671 94.264,138.623 77.318,152.349 75.836 C 153.833 75.675,154.122 75.683,156.529 75.944 M196.354 76.345 C 198.357 76.886,202.292 78.885,202.292 79.361 C 202.292 79.444,201.395 80.558,200.300 81.836 L 198.308 84.161 197.253 83.626 C 191.698 80.811,184.765 83.826,183.228 89.725 C 181.052 98.082,189.442 104.943,197.112 101.079 L 198.703 100.277 200.653 102.532 C 203.037 105.290,202.960 104.938,201.407 105.984 C 190.472 113.346,175.758 105.552,175.755 92.396 C 175.752 81.554,186.023 73.551,196.354 76.345 M125.250 76.481 C 133.445 78.197,135.611 89.508,128.576 93.850 L 127.340 94.613 130.441 101.295 C 132.146 104.970,133.542 108.057,133.542 108.155 C 133.542 108.456,126.958 108.376,126.730 108.073 C 126.622 107.930,125.236 105.023,123.650 101.615 L 120.767 95.417 119.238 95.417 L 117.708 95.417 117.708 101.771 L 117.708 108.125 114.479 108.125 L 111.250 108.125 111.250 92.188 L 111.250 76.250 117.698 76.250 C 121.619 76.250,124.579 76.341,125.250 76.481 M214.840 81.283 L 214.896 86.317 219.454 81.283 L 224.011 76.250 228.256 76.250 C 230.590 76.250,232.499 76.320,232.497 76.406 C 232.496 76.492,230.061 79.281,227.086 82.604 C 224.111 85.927,221.677 88.740,221.676 88.854 C 221.676 88.969,224.193 93.328,227.270 98.542 L 232.865 108.021 229.200 108.078 C 227.184 108.109,225.436 108.097,225.315 108.051 C 225.194 108.004,223.316 104.773,221.141 100.871 L 217.188 93.776 215.990 94.954 L 214.792 96.133 214.792 102.129 L 214.792 108.125 211.563 108.125 L 208.333 108.125 208.333 92.188 L 208.333 76.250 211.559 76.250 L 214.784 76.250 214.840 81.283 M259.745 79.531 L 259.803 82.708 252.401 82.708 L 245.000 82.708 245.000 85.625 L 245.000 88.542 251.042 88.542 L 257.083 88.542 257.083 91.771 L 257.083 95.000 251.042 95.000 L 245.000 95.000 245.000 98.333 L 245.000 101.667 252.297 101.667 L 259.594 101.667 259.537 104.948 L 259.479 108.229 248.958 108.229 L 238.438 108.229 238.384 92.500 C 238.354 83.849,238.375 76.653,238.430 76.509 C 238.509 76.301,240.757 76.258,249.109 76.300 L 259.688 76.354 259.745 79.531 M288.750 79.479 L 288.750 82.708 284.377 82.708 L 280.003 82.708 279.950 95.469 L 279.896 108.229 276.720 108.287 L 273.545 108.344 273.491 95.578 L 273.438 82.813 269.010 82.756 L 264.583 82.700 264.583 79.475 L 264.583 76.250 276.667 76.250 L 288.750 76.250 288.750 79.479 M151.354 82.793 C 144.042 85.115,141.860 94.165,147.370 99.320 C 155.479 106.905,167.818 97.586,162.793 87.670 C 160.795 83.728,155.508 81.473,151.354 82.793 M117.708 85.833 L 117.708 88.958 120.889 88.958 C 125.262 88.958,126.785 87.968,126.352 85.406 C 125.996 83.294,124.745 82.711,120.573 82.709 L 117.708 82.708 117.708 85.833 M142.397 116.890 C 144.464 117.527,148.542 119.743,148.542 120.229 C 148.542 120.404,145.737 125.106,145.405 125.489 C 145.320 125.586,144.729 125.331,144.091 124.923 C 139.379 121.909,134.792 122.166,134.792 125.443 C 134.792 127.280,135.337 127.730,139.096 129.000 C 146.159 131.385,149.356 134.923,149.130 140.102 C 148.708 149.753,136.364 152.434,127.333 144.837 C 125.958 143.681,125.914 143.809,128.550 141.298 L 130.747 139.205 131.874 140.141 C 136.375 143.879,142.708 143.509,142.708 139.508 C 142.708 137.946,140.081 135.962,136.875 135.103 C 131.172 133.574,128.438 130.467,128.438 125.516 C 128.438 118.715,135.054 114.626,142.397 116.890 M239.479 116.761 C 241.526 117.315,245.417 119.304,245.417 119.796 C 245.417 119.889,244.518 121.002,243.420 122.269 L 241.423 124.573 240.373 124.041 C 234.823 121.228,227.889 124.246,226.353 130.142 C 224.143 138.627,232.879 145.530,240.546 141.356 L 241.822 140.662 243.828 142.972 C 246.191 145.693,246.116 145.397,244.688 146.344 C 233.936 153.482,219.893 146.658,218.833 133.781 C 217.939 122.912,228.878 113.894,239.479 116.761 M178.158 132.500 C 182.252 141.151,185.607 148.349,185.613 148.495 C 185.622 148.702,184.858 148.748,182.135 148.703 L 178.646 148.646 177.203 145.677 L 175.760 142.708 169.286 142.712 L 162.813 142.715 161.269 145.733 L 159.725 148.750 156.229 148.750 C 154.306 148.750,152.696 148.680,152.650 148.594 C 152.604 148.508,154.009 145.625,155.771 142.188 C 157.533 138.750,161.183 131.597,163.881 126.291 L 168.786 116.645 169.750 116.708 L 170.715 116.771 178.158 132.500 M195.625 127.046 C 195.625 135.645,195.678 137.604,195.936 138.472 C 197.452 143.577,204.528 144.118,206.857 139.307 C 207.309 138.374,207.316 138.219,207.356 127.566 L 207.396 116.771 210.625 116.771 L 213.854 116.771 213.911 127.188 C 213.975 138.846,213.900 139.718,212.610 142.280 C 207.976 151.482,194.938 151.398,190.422 142.136 C 189.223 139.676,189.174 139.097,189.170 127.344 L 189.167 116.667 192.396 116.667 L 195.625 116.667 195.625 127.046 M272.708 119.896 L 272.708 123.125 265.313 123.125 L 257.917 123.125 257.917 126.042 L 257.917 128.958 264.063 128.958 L 270.208 128.958 270.208 132.188 L 270.208 135.417 264.063 135.417 L 257.917 135.417 257.917 138.750 L 257.917 142.083 265.208 142.083 L 272.500 142.083 272.500 145.417 L 272.500 148.750 261.979 148.750 L 251.458 148.750 251.458 132.708 L 251.458 116.667 262.083 116.667 L 272.708 116.667 272.708 119.896 M167.861 132.814 C 166.975 134.591,166.250 136.091,166.250 136.148 C 166.250 136.204,167.703 136.250,169.479 136.250 C 171.255 136.250,172.708 136.212,172.708 136.165 C 172.708 136.018,169.612 129.583,169.541 129.583 C 169.503 129.583,168.748 131.037,167.861 132.814 M200.348 202.240 C 200.297 202.326,199.819 203.463,199.287 204.768 C 198.754 206.073,197.807 208.244,197.183 209.592 C 196.123 211.884,195.771 213.000,193.742 220.521 C 192.798 224.019,192.732 223.849,195.156 224.192 C 197.871 224.576,204.442 224.544,206.250 224.138 C 207.848 223.779,207.841 223.819,206.873 220.729 C 206.550 219.698,206.035 217.823,205.727 216.563 C 204.923 213.268,203.346 208.585,201.867 205.101 C 200.578 202.066,200.518 201.954,200.348 202.240 M203.125 212.061 C 203.125 212.324,202.559 212.509,202.189 212.367 C 202.017 212.302,201.929 212.164,201.993 212.062 C 202.143 211.819,203.125 211.818,203.125 212.061 M203.542 213.103 C 203.542 213.343,203.017 213.542,202.379 213.542 C 201.848 213.542,201.693 213.233,202.135 213.055 C 202.582 212.875,203.542 212.907,203.542 213.103 M203.658 214.277 C 203.214 214.613,201.875 214.698,201.875 214.390 C 201.875 214.151,202.380 214.012,203.333 213.989 C 204.018 213.973,204.038 213.990,203.658 214.277 M204.167 215.394 C 204.167 215.687,203.596 215.833,202.448 215.833 C 201.296 215.833,201.251 215.670,202.333 215.414 C 203.302 215.184,204.167 215.175,204.167 215.394 M204.375 216.432 C 204.375 216.661,203.336 216.875,202.224 216.875 C 201.705 216.875,201.452 216.801,201.573 216.684 C 201.950 216.321,204.375 216.103,204.375 216.432 M204.634 217.533 C 204.340 217.826,201.458 218.027,201.458 217.754 C 201.458 217.631,201.997 217.471,202.656 217.398 C 203.315 217.325,203.995 217.241,204.167 217.211 C 204.612 217.133,204.862 217.305,204.634 217.533 M205.087 218.538 C 204.793 218.832,202.310 219.137,201.678 218.957 C 201.185 218.817,201.208 218.795,201.979 218.660 C 202.438 218.580,202.953 218.484,203.125 218.448 C 203.913 218.281,205.281 218.344,205.087 218.538 M196.354 218.750 C 196.425 218.865,196.342 218.958,196.170 218.958 C 195.999 218.958,195.800 218.865,195.729 218.750 C 195.658 218.635,195.741 218.542,195.913 218.542 C 196.085 218.542,196.283 218.635,196.354 218.750 M205.208 219.246 C 205.208 219.613,202.319 220.074,201.625 219.817 C 201.144 219.639,201.186 219.628,204.583 219.097 C 204.870 219.052,205.128 219.002,205.156 218.987 C 205.185 218.971,205.208 219.088,205.208 219.246 M196.354 219.792 C 196.425 219.906,196.295 220.000,196.066 220.000 C 195.837 220.000,195.592 219.906,195.521 219.792 C 195.450 219.677,195.580 219.583,195.809 219.583 C 196.038 219.583,196.283 219.677,196.354 219.792 M205.625 220.395 C 205.625 220.640,203.293 221.042,201.875 221.042 C 200.354 221.042,200.737 220.778,202.670 220.495 C 204.737 220.193,205.625 220.163,205.625 220.395 M195.938 220.550 C 196.197 220.649,196.219 220.724,196.026 220.843 C 195.726 221.028,195.208 220.876,195.208 220.603 C 195.208 220.383,195.457 220.365,195.938 220.550 M206.042 221.225 C 206.042 221.651,201.890 222.257,201.014 221.959 C 200.642 221.833,201.083 221.706,202.813 221.442 C 205.593 221.019,206.042 220.988,206.042 221.225 M196.042 221.667 C 196.042 221.781,195.860 221.875,195.637 221.875 C 195.415 221.875,195.175 221.781,195.104 221.667 C 195.031 221.549,195.206 221.458,195.509 221.458 C 195.802 221.458,196.042 221.552,196.042 221.667 M206.250 222.274 C 206.250 222.558,204.314 222.940,202.208 223.071 C 200.842 223.156,200.393 223.123,200.502 222.947 C 200.583 222.816,200.949 222.702,201.314 222.695 C 201.680 222.687,202.729 222.560,203.646 222.411 C 205.787 222.064,206.250 222.040,206.250 222.274 M195.729 222.500 C 195.894 222.766,195.203 222.766,194.792 222.500 C 194.547 222.342,194.601 222.297,195.040 222.295 C 195.348 222.293,195.658 222.385,195.729 222.500 M195.729 223.581 C 195.864 223.711,195.723 223.758,195.329 223.714 C 194.994 223.676,194.678 223.519,194.627 223.364 C 194.524 223.050,195.347 223.212,195.729 223.581 M206.303 223.364 C 205.939 223.728,203.427 224.150,201.580 224.159 C 199.286 224.170,199.740 223.949,202.865 223.536 C 206.340 223.076,206.603 223.063,206.303 223.364 " stroke="none" fill="#343434" fill-rule="evenodd"></path><path id="path2" d="M269.063 135.000 L 268.438 135.414 269.219 135.415 C 269.862 135.416,270.000 135.343,270.000 135.000 C 270.000 134.480,269.848 134.480,269.063 135.000 M141.919 137.636 C 144.082 140.062,141.875 143.216,138.284 142.831 C 135.611 142.544,133.876 141.848,131.975 140.301 L 130.810 139.352 129.207 140.803 C 128.326 141.601,127.296 142.575,126.920 142.967 L 126.236 143.680 127.233 144.609 C 130.558 147.710,134.081 149.057,138.870 149.060 L 141.802 149.063 143.588 148.178 C 147.127 146.424,149.357 142.815,149.132 139.206 L 149.063 138.099 146.789 138.084 C 144.751 138.071,143.765 137.928,142.083 137.400 C 141.582 137.242,141.576 137.251,141.919 137.636 M254.583 138.773 C 253.609 138.870,252.508 139.002,252.135 139.067 L 251.458 139.186 251.458 143.864 L 251.458 148.542 261.979 148.542 L 272.500 148.542 272.500 145.417 L 272.500 142.292 265.208 142.292 L 257.917 142.292 257.917 140.417 L 257.917 138.542 257.135 138.569 C 256.706 138.585,255.557 138.676,254.583 138.773 M154.896 144.067 C 153.750 146.300,152.781 148.220,152.743 148.334 C 152.699 148.467,153.958 148.542,156.231 148.542 L 159.789 148.542 161.250 145.625 L 162.711 142.708 169.286 142.708 L 175.862 142.708 177.239 145.625 L 178.616 148.542 182.118 148.542 L 185.620 148.542 185.131 147.448 C 183.634 144.103,183.569 144.016,182.459 143.868 C 181.900 143.794,180.744 143.465,179.891 143.136 C 177.540 142.231,175.790 141.977,173.870 142.263 C 170.478 142.767,164.813 142.500,163.198 141.759 C 162.837 141.594,162.382 141.458,162.188 141.458 C 161.993 141.458,161.538 141.322,161.177 141.154 C 160.562 140.869,157.491 139.995,157.139 140.004 C 157.051 140.007,156.042 141.835,154.896 144.067 M240.521 141.466 C 238.213 142.819,234.932 143.020,232.164 141.978 C 230.057 141.185,227.286 141.652,224.595 143.256 C 223.112 144.139,223.105 144.115,225.311 145.773 C 231.148 150.161,239.171 150.275,244.959 146.052 L 245.855 145.398 243.902 143.180 C 241.611 140.579,241.838 140.694,240.521 141.466 M191.667 143.986 C 191.667 144.450,193.926 146.561,195.313 147.393 C 199.082 149.654,204.026 149.647,207.847 147.374 C 209.178 146.583,211.430 144.485,211.198 144.253 C 211.075 144.131,208.809 144.485,206.354 145.010 C 204.955 145.310,201.610 145.090,198.121 144.469 C 194.266 143.783,191.667 143.589,191.667 143.986 " stroke="none" fill="#fa3636" fill-rule="evenodd"></path><path id="path3" d="M209.958 76.405 C 210.909 76.444,212.409 76.444,213.291 76.405 C 214.174 76.366,213.396 76.334,211.563 76.334 C 209.729 76.335,209.007 76.366,209.958 76.405 M226.105 76.406 C 227.343 76.442,229.312 76.442,230.480 76.405 C 231.648 76.368,230.635 76.338,228.229 76.338 C 225.823 76.338,224.867 76.369,226.105 76.406 M238.429 76.510 C 238.375 76.654,238.354 83.849,238.384 92.500 L 238.438 108.229 248.906 108.232 L 259.375 108.235 248.958 108.178 L 238.542 108.121 238.542 92.292 L 238.542 76.462 249.115 76.406 L 259.688 76.350 249.108 76.300 C 240.799 76.261,238.507 76.306,238.429 76.510 M270.573 76.406 C 273.924 76.438,279.409 76.438,282.760 76.406 C 286.112 76.374,283.370 76.348,276.667 76.348 C 269.964 76.348,267.221 76.374,270.573 76.406 M153.597 82.441 C 153.913 82.489,154.382 82.488,154.638 82.438 C 154.895 82.389,154.635 82.350,154.063 82.351 C 153.490 82.353,153.280 82.393,153.597 82.441 M244.874 85.729 C 244.874 87.333,244.907 87.962,244.947 87.126 C 244.986 86.291,244.986 84.978,244.946 84.210 C 244.906 83.441,244.874 84.125,244.874 85.729 M137.557 92.292 C 137.557 92.807,137.597 93.018,137.647 92.760 C 137.697 92.503,137.697 92.081,137.647 91.823 C 137.597 91.565,137.557 91.776,137.557 92.292 M129.883 92.760 L 129.271 93.438 129.948 92.826 C 130.320 92.489,130.625 92.184,130.625 92.149 C 130.625 91.988,130.453 92.129,129.883 92.760 M215.930 94.844 L 214.896 95.938 215.990 94.904 C 216.591 94.335,217.083 93.843,217.083 93.810 C 217.083 93.654,216.890 93.827,215.930 94.844 M244.888 98.333 L 244.896 101.771 252.188 101.775 L 259.479 101.779 252.245 101.720 L 245.010 101.661 244.945 98.279 L 244.879 94.896 244.888 98.333 M146.458 98.607 C 146.458 98.643,146.763 98.947,147.135 99.284 L 147.813 99.896 147.201 99.219 C 146.630 98.588,146.458 98.446,146.458 98.607 M128.490 108.280 C 129.435 108.319,130.982 108.319,131.927 108.280 C 132.872 108.241,132.099 108.210,130.208 108.210 C 128.318 108.210,127.544 108.241,128.490 108.280 M275.052 108.280 C 275.940 108.319,277.393 108.319,278.281 108.280 C 279.169 108.241,278.443 108.209,276.667 108.209 C 274.891 108.209,274.164 108.241,275.052 108.280 M168.673 116.831 C 168.617 116.922,168.916 116.964,169.338 116.924 C 170.626 116.802,170.778 116.716,169.752 116.691 C 169.214 116.678,168.729 116.741,168.673 116.831 M190.791 116.822 C 191.742 116.861,193.242 116.860,194.124 116.821 C 195.007 116.782,194.229 116.751,192.396 116.751 C 190.563 116.751,189.840 116.783,190.791 116.822 M207.389 116.922 C 207.333 117.068,207.313 121.641,207.344 127.083 L 207.400 136.979 207.450 126.927 L 207.500 116.875 210.623 116.875 L 213.746 116.875 213.803 126.823 L 213.860 136.771 213.857 126.771 L 213.854 116.771 210.673 116.713 C 208.242 116.669,207.467 116.719,207.389 116.922 M256.719 116.823 C 259.669 116.855,264.497 116.855,267.448 116.823 C 270.398 116.790,267.984 116.763,262.083 116.763 C 256.182 116.763,253.768 116.790,256.719 116.823 M270.084 132.188 C 270.085 134.021,270.116 134.743,270.155 133.792 C 270.194 132.841,270.194 131.341,270.155 130.459 C 270.116 129.576,270.084 130.354,270.084 132.188 M130.208 131.315 C 130.208 131.351,130.513 131.656,130.885 131.992 L 131.563 132.604 130.951 131.927 C 130.380 131.296,130.208 131.154,130.208 131.315 M129.886 140.052 L 129.063 140.938 129.948 140.114 C 130.435 139.661,130.833 139.263,130.833 139.229 C 130.833 139.071,130.652 139.229,129.886 140.052 M261.510 142.239 C 263.544 142.273,266.872 142.273,268.906 142.239 C 270.940 142.205,269.276 142.177,265.208 142.177 C 261.141 142.177,259.477 142.205,261.510 142.239 M138.490 142.855 C 138.747 142.905,139.169 142.905,139.427 142.855 C 139.685 142.806,139.474 142.765,138.958 142.765 C 138.443 142.765,138.232 142.806,138.490 142.855 M126.250 143.815 C 126.250 143.851,126.555 144.156,126.927 144.492 L 127.604 145.104 126.992 144.427 C 126.422 143.796,126.250 143.654,126.250 143.815 M192.292 145.065 C 192.292 145.101,192.596 145.406,192.969 145.742 L 193.646 146.354 193.034 145.677 C 192.464 145.046,192.292 144.904,192.292 145.065 M210.091 145.677 L 209.479 146.354 210.156 145.742 C 210.529 145.406,210.833 145.101,210.833 145.065 C 210.833 144.904,210.661 145.046,210.091 145.677 M152.682 148.599 C 152.771 148.688,154.430 148.734,156.370 148.703 L 159.896 148.645 156.208 148.541 C 154.179 148.484,152.593 148.510,152.682 148.599 M180.479 148.697 C 181.487 148.735,183.081 148.735,184.021 148.696 C 184.960 148.658,184.135 148.627,182.188 148.627 C 180.240 148.627,179.471 148.659,180.479 148.697 M256.733 148.698 C 259.692 148.730,264.473 148.730,267.358 148.698 C 270.244 148.665,267.823 148.638,261.979 148.638 C 256.135 148.638,253.775 148.665,256.733 148.698 M202.135 213.477 C 202.336 213.529,202.664 213.529,202.865 213.477 C 203.065 213.425,202.901 213.382,202.500 213.382 C 202.099 213.382,201.935 213.425,202.135 213.477 M202.242 214.522 C 202.501 214.572,202.876 214.570,203.075 214.518 C 203.275 214.466,203.063 214.425,202.604 214.428 C 202.146 214.430,201.983 214.473,202.242 214.522 M201.513 222.024 C 201.830 222.072,202.299 222.071,202.555 222.022 C 202.811 221.972,202.552 221.933,201.979 221.935 C 201.406 221.936,201.197 221.977,201.513 222.024 " stroke="none" fill="#7c7474" fill-rule="evenodd"></path><path id="path4" d="M111.346 76.510 C 111.291 76.654,111.271 83.849,111.302 92.500 L 111.357 108.229 111.408 92.347 L 111.458 76.464 117.760 76.406 L 124.063 76.348 117.754 76.299 C 112.862 76.261,111.423 76.308,111.346 76.510 M214.673 81.458 C 214.673 84.266,214.703 85.414,214.739 84.010 C 214.775 82.607,214.775 80.310,214.739 78.906 C 214.703 77.503,214.673 78.651,214.673 81.458 M264.667 79.583 C 264.667 81.359,264.699 82.086,264.738 81.198 C 264.777 80.310,264.777 78.857,264.738 77.969 C 264.699 77.081,264.667 77.807,264.667 79.583 M288.626 79.583 C 288.626 81.359,288.657 82.086,288.697 81.198 C 288.736 80.310,288.736 78.857,288.697 77.969 C 288.657 77.081,288.626 77.807,288.626 79.583 M142.383 80.677 L 141.771 81.354 142.448 80.742 C 142.820 80.406,143.125 80.101,143.125 80.065 C 143.125 79.904,142.953 80.046,142.383 80.677 M132.757 85.833 C 132.757 86.234,132.800 86.398,132.852 86.198 C 132.904 85.997,132.904 85.669,132.852 85.469 C 132.800 85.268,132.757 85.432,132.757 85.833 M119.228 89.113 C 120.122 89.153,121.528 89.152,122.353 89.113 C 123.179 89.073,122.448 89.041,120.729 89.042 C 119.010 89.042,118.335 89.074,119.228 89.113 M170.485 92.188 C 170.486 92.990,170.524 93.292,170.569 92.860 C 170.614 92.428,170.613 91.771,170.567 91.402 C 170.521 91.032,170.484 91.385,170.485 92.188 M182.771 92.292 C 182.771 92.922,182.810 93.180,182.858 92.865 C 182.905 92.549,182.905 92.034,182.858 91.719 C 182.810 91.404,182.771 91.661,182.771 92.292 M247.969 94.947 C 249.659 94.982,252.424 94.982,254.115 94.947 C 255.805 94.912,254.422 94.884,251.042 94.884 C 247.661 94.884,246.279 94.912,247.969 94.947 M214.675 102.083 C 214.675 105.464,214.704 106.846,214.739 105.156 C 214.774 103.466,214.774 100.701,214.739 99.010 C 214.704 97.320,214.675 98.703,214.675 102.083 M153.802 102.227 C 154.003 102.279,154.331 102.279,154.531 102.227 C 154.732 102.175,154.568 102.132,154.167 102.132 C 153.766 102.132,153.602 102.175,153.802 102.227 M165.614 103.906 L 164.896 104.688 165.677 103.970 C 166.404 103.301,166.554 103.125,166.395 103.125 C 166.360 103.125,166.009 103.477,165.614 103.906 M137.867 116.397 C 138.126 116.447,138.501 116.445,138.700 116.393 C 138.900 116.341,138.688 116.300,138.229 116.303 C 137.771 116.305,137.608 116.348,137.867 116.397 M189.263 127.292 C 189.263 133.078,189.290 135.445,189.323 132.552 C 189.355 129.659,189.355 124.924,189.323 122.031 C 189.290 119.138,189.263 121.505,189.263 127.292 M257.791 126.042 C 257.791 127.703,257.823 128.383,257.863 127.552 C 257.903 126.721,257.903 125.362,257.863 124.531 C 257.823 123.701,257.791 124.380,257.791 126.042 M225.893 132.813 C 225.894 133.385,225.935 133.595,225.983 133.278 C 226.031 132.962,226.029 132.493,225.980 132.237 C 225.931 131.980,225.891 132.240,225.893 132.813 M257.847 135.347 C 257.771 135.424,257.708 136.119,257.708 136.892 C 257.708 137.822,257.620 138.334,257.448 138.404 C 257.292 138.466,257.334 138.515,257.552 138.525 C 257.868 138.539,257.917 138.335,257.917 136.983 L 257.917 135.424 263.281 135.364 L 268.646 135.305 263.316 135.257 C 260.385 135.230,257.924 135.271,257.847 135.347 M169.375 136.250 L 165.938 136.370 169.311 136.414 C 171.384 136.441,172.733 136.378,172.813 136.250 C 172.883 136.135,172.912 136.062,172.877 136.086 C 172.841 136.110,171.266 136.184,169.375 136.250 M201.875 216.667 C 201.875 216.781,202.133 216.868,202.448 216.860 C 202.956 216.847,202.973 216.825,202.604 216.667 C 202.035 216.422,201.875 216.422,201.875 216.667 M201.458 220.833 C 201.458 220.948,201.716 221.040,202.031 221.038 C 202.478 221.036,202.535 220.991,202.292 220.833 C 201.884 220.570,201.458 220.570,201.458 220.833 M195.000 222.500 C 195.172 222.611,195.453 222.702,195.625 222.702 C 195.903 222.702,195.903 222.680,195.625 222.500 C 195.453 222.389,195.172 222.298,195.000 222.298 C 194.722 222.298,194.722 222.320,195.000 222.500 M201.042 222.917 C 200.816 223.063,200.988 223.115,201.667 223.107 C 202.380 223.098,202.505 223.053,202.188 222.917 C 201.630 222.677,201.413 222.677,201.042 222.917 M200.938 223.958 C 200.631 224.090,200.797 224.137,201.563 224.137 C 202.328 224.137,202.494 224.090,202.188 223.958 C 201.958 223.860,201.677 223.779,201.563 223.779 C 201.448 223.779,201.167 223.860,200.938 223.958 M200.260 224.735 C 200.690 224.780,201.393 224.780,201.823 224.735 C 202.253 224.690,201.901 224.653,201.042 224.653 C 200.182 224.653,199.831 224.690,200.260 224.735 " stroke="none" fill="#949494" fill-rule="evenodd"></path><path id="path5" d="M259.667 79.583 C 259.667 81.359,259.699 82.086,259.738 81.198 C 259.777 80.310,259.777 78.857,259.738 77.969 C 259.699 77.081,259.667 77.807,259.667 79.583 M279.890 95.521 C 279.890 102.510,279.916 105.340,279.948 101.808 C 279.980 98.276,279.980 92.557,279.948 89.100 C 279.916 85.642,279.890 88.531,279.890 95.521 " stroke="none" fill="#8c8c8c" fill-rule="evenodd"></path></g></svg>