<svg id="svg" version="1.1" xmlns="http://www.w3.org/2000/svg" xmlns:xlink="http://www.w3.org/1999/xlink" width="400" height="225" viewBox="0, 0, 400,225"><g id="svgg"><path id="path0" d="M151.354 76.042 C 140.526 77.996,134.611 89.661,139.470 99.479 C 147.148 114.994,170.417 109.467,170.417 92.128 C 170.417 82.127,161.117 74.280,151.354 76.042 M190.350 76.055 C 178.881 77.374,172.385 89.696,177.727 100.000 C 182.158 108.548,193.220 111.328,201.345 105.934 C 201.980 105.513,202.500 105.079,202.500 104.970 C 202.500 104.718,198.707 100.390,198.553 100.466 C 198.489 100.498,197.922 100.795,197.292 101.126 C 190.010 104.959,181.570 98.884,182.897 90.765 C 183.918 84.514,190.655 80.761,196.458 83.209 C 197.203 83.524,197.938 83.797,198.091 83.817 C 198.687 83.896,202.284 79.516,201.940 79.129 C 200.290 77.275,194.074 75.627,190.350 76.055 M111.458 92.281 L 111.458 108.125 114.583 108.125 L 117.708 108.125 117.708 101.762 L 117.708 95.399 119.317 95.460 L 120.925 95.521 123.848 101.816 L 126.771 108.110 130.136 108.118 L 133.502 108.125 130.397 101.436 C 126.845 93.784,127.098 94.546,127.969 94.123 C 134.557 90.918,134.162 80.721,127.319 77.337 L 125.752 76.563 118.605 76.500 L 111.458 76.438 111.458 92.281 M208.333 92.292 L 208.333 108.125 211.458 108.125 L 214.583 108.125 214.583 102.129 L 214.583 96.133 215.846 94.889 C 216.956 93.796,217.138 93.687,217.356 93.986 C 217.493 94.174,219.337 97.431,221.454 101.226 L 225.304 108.125 229.006 108.125 C 231.042 108.125,232.708 108.087,232.708 108.040 C 232.708 107.992,230.286 103.844,227.324 98.821 C 224.363 93.797,221.829 89.478,221.693 89.221 C 221.464 88.788,221.820 88.339,226.722 82.867 C 229.623 79.629,232.069 76.862,232.157 76.719 C 232.282 76.514,231.428 76.458,228.142 76.458 L 223.968 76.458 219.432 81.458 C 216.937 84.208,214.826 86.458,214.740 86.458 C 214.654 86.458,214.583 84.208,214.583 81.458 L 214.583 76.458 211.458 76.458 L 208.333 76.458 208.333 92.292 M238.542 92.292 L 238.542 108.125 249.063 108.125 L 259.583 108.125 259.583 105.000 L 259.583 101.875 252.182 101.875 L 244.782 101.875 244.839 98.385 L 244.896 94.896 250.990 94.841 L 257.083 94.785 257.083 91.664 L 257.083 88.542 250.938 88.542 L 244.792 88.542 244.792 85.625 L 244.792 82.708 252.188 82.708 L 259.583 82.708 259.583 79.583 L 259.583 76.458 249.063 76.458 L 238.542 76.458 238.542 92.292 M264.792 79.583 L 264.792 82.708 269.167 82.708 L 273.542 82.708 273.542 95.417 L 273.542 108.125 276.667 108.125 L 279.792 108.125 279.792 95.417 L 279.792 82.708 284.167 82.708 L 288.542 82.708 288.542 79.583 L 288.542 76.458 276.667 76.458 L 264.792 76.458 264.792 79.583 M156.555 82.611 C 163.999 84.550,166.546 93.825,161.123 99.248 C 155.661 104.710,146.434 102.160,144.477 94.647 C 142.610 87.479,149.372 80.740,156.555 82.611 M125.000 83.177 C 126.428 84.152,126.892 86.177,125.990 87.502 C 124.999 88.957,124.701 89.055,121.027 89.133 L 117.708 89.203 117.708 85.956 L 117.708 82.708 121.011 82.708 C 124.093 82.708,124.359 82.740,125.000 83.177 M233.475 116.472 C 224.850 117.463,218.633 124.762,219.025 133.438 C 219.174 136.747,219.162 136.719,220.596 137.145 C 222.030 137.571,222.747 137.579,223.854 137.184 C 224.313 137.020,225.095 136.825,225.592 136.750 C 226.439 136.622,226.489 136.579,226.372 136.067 C 224.147 126.341,231.911 120.168,241.176 124.296 C 241.668 124.516,245.415 119.939,245.065 119.546 C 243.416 117.692,237.199 116.044,233.475 116.472 M135.472 116.766 C 131.453 117.898,128.333 121.415,128.333 124.813 C 128.333 125.898,134.393 125.527,134.940 124.409 C 135.987 122.267,139.823 122.154,143.097 124.169 C 145.037 125.363,145.490 125.181,147.129 122.552 L 148.526 120.313 147.981 119.863 C 144.754 117.197,138.998 115.772,135.472 116.766 M166.102 122.124 C 162.994 128.282,163.135 127.913,163.891 127.929 C 166.630 127.985,170.117 128.511,170.729 128.960 C 170.844 129.044,171.781 129.177,172.813 129.257 C 173.844 129.336,175.098 129.492,175.601 129.603 C 176.103 129.715,176.550 129.769,176.594 129.725 C 176.639 129.681,175.331 126.795,173.688 123.312 L 170.701 116.979 169.732 116.916 L 168.763 116.853 166.102 122.124 M189.375 124.766 L 189.375 132.656 189.961 132.774 C 190.284 132.838,191.573 133.000,192.826 133.133 C 194.079 133.266,195.198 133.389,195.313 133.406 C 195.448 133.427,195.540 130.528,195.575 125.156 L 195.630 116.875 192.502 116.875 L 189.375 116.875 189.375 124.766 M207.500 126.354 L 207.500 135.833 210.625 135.833 L 213.750 135.833 213.750 126.354 L 213.750 116.875 210.625 116.875 L 207.500 116.875 207.500 126.354 M251.458 127.188 L 251.458 137.500 252.031 137.497 C 252.346 137.496,253.339 137.260,254.237 136.973 C 255.135 136.686,256.256 136.430,256.728 136.403 C 257.453 136.362,257.605 136.273,257.708 135.833 L 257.830 135.313 261.988 135.187 C 265.855 135.070,268.792 134.794,269.642 134.468 C 269.955 134.348,270.000 133.991,270.000 131.644 L 270.000 128.958 263.854 128.958 L 257.708 128.958 257.708 126.042 L 257.708 123.125 265.208 123.125 L 272.708 123.125 272.708 120.000 L 272.708 116.875 262.083 116.875 L 251.458 116.875 251.458 127.188 M199.511 192.957 C 199.109 193.680,198.411 195.115,197.959 196.146 C 197.507 197.177,196.804 198.677,196.398 199.479 C 195.991 200.281,195.504 201.500,195.314 202.188 C 195.125 202.875,194.549 204.699,194.034 206.240 C 191.702 213.226,189.668 225.000,190.794 225.000 C 191.290 225.000,191.201 225.363,191.987 220.104 C 192.634 215.770,192.577 215.957,193.163 216.270 C 193.896 216.662,204.717 216.537,206.420 216.116 C 207.144 215.938,207.779 215.835,207.832 215.887 C 208.321 216.376,208.817 218.828,209.495 224.115 C 209.633 225.190,210.418 225.456,210.416 224.427 C 210.413 223.296,209.571 218.141,209.093 216.328 C 206.114 205.042,205.008 201.600,202.641 196.256 C 200.364 191.115,200.472 191.229,199.511 192.957 M201.633 195.125 C 203.042 198.339,204.508 202.460,205.404 205.729 C 205.875 207.448,206.461 209.557,206.706 210.417 C 207.865 214.483,207.902 214.672,207.586 214.919 C 206.408 215.842,197.782 216.009,193.937 215.184 L 192.871 214.956 193.002 214.092 C 193.074 213.618,193.371 212.339,193.661 211.250 C 195.310 205.064,195.948 203.088,197.201 200.291 C 197.948 198.622,198.841 196.550,199.184 195.685 C 200.502 192.367,200.431 192.383,201.633 195.125 M202.552 205.352 C 202.753 205.404,203.081 205.404,203.281 205.352 C 203.482 205.300,203.318 205.257,202.917 205.257 C 202.516 205.257,202.352 205.300,202.552 205.352 M202.500 206.678 C 202.276 206.830,202.424 206.851,203.021 206.751 C 204.054 206.578,204.221 206.457,203.420 206.462 C 203.086 206.463,202.672 206.561,202.500 206.678 M203.229 207.500 L 202.396 207.649 203.125 207.676 C 203.526 207.690,203.995 207.611,204.167 207.500 C 204.508 207.280,204.460 207.280,203.229 207.500 M203.021 208.542 L 202.188 208.691 203.021 208.706 C 203.479 208.714,204.042 208.640,204.271 208.542 L 204.688 208.363 204.271 208.378 C 204.042 208.386,203.479 208.460,203.021 208.542 M202.500 209.792 C 201.786 209.942,201.784 209.945,202.396 209.961 C 202.740 209.969,203.396 209.898,203.854 209.804 L 204.688 209.631 203.958 209.635 C 203.557 209.637,202.901 209.707,202.500 209.792 M203.229 210.534 L 201.771 210.810 203.087 210.705 C 203.811 210.648,204.608 210.519,204.858 210.418 C 205.477 210.169,204.967 210.205,203.229 210.534 M203.125 211.667 L 202.188 211.812 203.125 211.823 C 203.641 211.829,204.297 211.758,204.583 211.667 L 205.104 211.500 204.583 211.510 C 204.297 211.516,203.641 211.587,203.125 211.667 M203.229 212.625 L 201.563 212.899 203.021 212.803 C 203.823 212.751,204.760 212.622,205.104 212.518 C 205.973 212.253,205.226 212.296,203.229 212.625 M203.542 213.646 C 202.221 213.864,202.124 213.905,202.917 213.911 C 203.432 213.915,204.323 213.798,204.896 213.651 C 206.213 213.312,205.572 213.310,203.542 213.646 M203.646 214.708 L 201.979 214.982 203.438 214.902 C 204.240 214.857,205.130 214.727,205.417 214.611 C 206.075 214.346,205.729 214.365,203.646 214.708 M203.646 216.896 C 201.040 217.167,200.755 217.273,202.917 217.165 C 204.005 217.112,205.224 216.987,205.625 216.888 C 206.564 216.658,205.907 216.660,203.646 216.896 M204.375 217.708 L 203.438 217.854 204.375 217.861 C 204.891 217.864,205.594 217.796,205.938 217.708 L 206.563 217.549 205.938 217.556 C 205.594 217.560,204.891 217.628,204.375 217.708 M198.740 217.980 C 197.597 218.303,196.561 218.921,195.760 219.759 C 195.229 220.313,195.099 220.357,194.551 220.166 C 194.213 220.048,193.880 220.009,193.810 220.079 C 193.741 220.148,193.980 220.265,194.342 220.337 C 195.307 220.530,195.053 221.208,194.063 221.083 L 193.646 221.030 194.063 221.275 C 194.292 221.410,194.505 221.539,194.536 221.563 C 194.829 221.788,194.241 222.272,193.780 222.185 L 193.229 222.081 193.802 222.308 C 194.164 222.451,194.375 222.690,194.375 222.957 C 194.375 223.307,194.277 223.358,193.802 223.260 C 193.257 223.148,193.261 223.157,193.878 223.435 C 194.334 223.641,194.565 223.917,194.654 224.364 C 194.931 225.751,195.188 225.521,198.072 221.302 C 200.159 218.249,200.224 218.191,201.138 218.539 C 202.116 218.911,202.011 219.278,200.110 222.109 C 199.110 223.600,198.340 224.868,198.399 224.927 C 198.458 224.986,199.314 223.808,200.301 222.309 C 201.288 220.810,202.181 219.583,202.285 219.583 C 202.821 219.583,202.606 220.173,201.395 222.026 C 200.663 223.146,199.953 224.273,199.816 224.531 L 199.569 225.000 202.874 225.000 C 206.480 225.000,206.314 225.055,206.740 223.713 C 206.801 223.521,207.114 223.324,207.436 223.275 C 207.982 223.193,207.975 223.185,207.326 223.156 C 206.526 223.120,206.514 222.696,207.307 222.474 C 207.796 222.338,207.794 222.333,207.222 222.312 C 206.513 222.287,206.568 221.848,207.307 221.641 C 207.752 221.517,207.729 221.497,207.113 221.479 C 206.600 221.464,206.444 221.380,206.527 221.163 C 206.589 221.001,206.506 220.816,206.341 220.753 C 205.819 220.553,206.016 220.257,206.823 220.026 L 207.604 219.803 206.613 219.915 C 205.868 219.998,205.593 219.952,205.507 219.727 C 205.444 219.563,204.936 219.180,204.379 218.876 C 203.821 218.573,203.335 218.239,203.297 218.134 C 203.178 217.802,199.777 217.686,198.740 217.980 M194.271 218.333 C 194.894 218.601,195.414 218.601,195.000 218.333 C 194.828 218.222,194.500 218.137,194.271 218.143 L 193.854 218.154 194.271 218.333 M206.146 218.333 L 205.313 218.483 206.042 218.509 C 206.443 218.523,206.911 218.444,207.083 218.333 C 207.424 218.113,207.376 218.113,206.146 218.333 M194.063 219.167 C 194.133 219.281,194.397 219.368,194.648 219.360 C 195.088 219.346,195.089 219.339,194.688 219.167 C 194.114 218.920,193.910 218.920,194.063 219.167 M206.042 219.167 L 205.521 219.333 206.042 219.340 C 206.328 219.343,206.750 219.265,206.979 219.167 L 207.396 218.988 206.979 218.994 C 206.750 218.997,206.328 219.075,206.042 219.167 M193.333 224.583 C 193.505 224.694,193.833 224.780,194.063 224.774 L 194.479 224.762 194.063 224.583 C 193.440 224.316,192.919 224.316,193.333 224.583 M207.396 224.792 C 206.819 224.938,206.811 224.952,207.292 224.972 C 207.578 224.984,207.953 224.903,208.125 224.792 C 208.480 224.563,208.296 224.563,207.396 224.792 " stroke="none" fill="#f9f8f8" fill-rule="evenodd"></path><path id="path1" d="M0.000 112.500 L 0.000 225.000 95.067 225.000 L 190.133 225.000 190.393 222.448 C 190.952 216.967,192.028 211.858,193.735 206.590 C 194.297 204.856,194.913 202.875,195.105 202.188 C 195.296 201.500,195.691 200.469,195.982 199.896 C 196.273 199.323,197.091 197.589,197.800 196.042 C 199.244 192.891,200.083 191.458,200.485 191.458 C 201.127 191.458,205.299 201.660,206.490 206.144 C 206.947 207.864,207.821 211.005,208.433 213.125 C 209.511 216.864,210.282 220.666,210.553 223.580 L 210.685 225.000 305.342 225.000 L 400.000 225.000 400.000 112.500 L 400.000 0.000 200.000 0.000 L 0.000 0.000 0.000 112.500 M158.193 76.273 C 169.003 78.955,174.034 91.693,167.995 101.094 C 161.522 111.170,146.780 111.274,140.325 101.290 C 132.151 88.647,143.578 72.648,158.193 76.273 M196.354 76.345 C 198.401 76.898,202.292 78.887,202.292 79.379 C 202.292 79.473,201.397 80.581,200.304 81.843 L 198.315 84.136 197.022 83.535 C 191.392 80.919,184.745 83.901,183.228 89.725 C 181.052 98.082,189.442 104.943,197.112 101.079 L 198.703 100.277 200.653 102.532 C 203.046 105.301,202.977 104.985,201.414 106.001 C 190.246 113.264,175.724 105.565,175.751 92.396 C 175.773 81.536,186.023 73.551,196.354 76.345 M125.250 76.481 C 133.603 78.230,135.617 90.345,128.185 94.136 L 127.323 94.576 130.433 101.270 C 132.143 104.952,133.542 108.048,133.542 108.149 C 133.542 108.454,126.962 108.380,126.726 108.073 C 126.616 107.930,125.232 105.023,123.650 101.615 L 120.773 95.417 119.241 95.417 L 117.708 95.417 117.708 101.771 L 117.708 108.125 114.479 108.125 L 111.250 108.125 111.250 92.188 L 111.250 76.250 117.698 76.250 C 121.619 76.250,124.579 76.341,125.250 76.481 M214.840 81.283 L 214.896 86.315 219.450 81.283 L 224.004 76.250 228.252 76.250 C 230.588 76.250,232.500 76.320,232.500 76.406 C 232.499 76.492,230.064 79.281,227.087 82.604 C 224.111 85.927,221.675 88.740,221.675 88.854 C 221.675 88.969,224.193 93.328,227.270 98.542 L 232.865 108.021 229.200 108.078 C 227.184 108.109,225.434 108.096,225.310 108.049 C 225.186 108.001,223.308 104.771,221.136 100.870 L 217.188 93.778 215.990 94.956 L 214.792 96.133 214.792 102.129 L 214.792 108.125 211.563 108.125 L 208.333 108.125 208.333 92.188 L 208.333 76.250 211.559 76.250 L 214.784 76.250 214.840 81.283 M259.792 79.479 L 259.792 82.708 252.396 82.708 L 245.000 82.708 245.000 85.625 L 245.000 88.542 251.042 88.542 L 257.083 88.542 257.083 91.771 L 257.083 95.000 251.042 95.000 L 245.000 95.000 245.000 98.333 L 245.000 101.667 252.297 101.667 L 259.594 101.667 259.537 104.948 L 259.479 108.229 248.958 108.229 L 238.438 108.229 238.384 92.500 C 238.354 83.849,238.375 76.654,238.429 76.510 C 238.507 76.307,240.847 76.250,249.160 76.250 L 259.792 76.250 259.792 79.479 M288.750 79.479 L 288.750 82.708 284.377 82.708 L 280.003 82.708 279.950 95.469 L 279.896 108.229 276.720 108.287 L 273.545 108.344 273.491 95.578 L 273.438 82.813 269.010 82.756 L 264.583 82.700 264.583 79.475 L 264.583 76.250 276.667 76.250 L 288.750 76.250 288.750 79.479 M151.354 82.793 C 144.065 85.107,141.882 94.186,147.378 99.327 C 155.472 106.899,167.812 97.575,162.797 87.677 C 160.799 83.735,155.504 81.474,151.354 82.793 M117.708 85.833 L 117.708 88.958 120.889 88.958 C 125.262 88.958,126.785 87.968,126.352 85.406 C 125.996 83.294,124.745 82.711,120.573 82.709 L 117.708 82.708 117.708 85.833 M142.396 116.888 C 144.467 117.528,148.542 119.744,148.542 120.229 C 148.542 120.410,145.729 125.134,145.410 125.489 C 145.323 125.586,144.729 125.331,144.091 124.923 C 139.379 121.909,134.792 122.166,134.792 125.443 C 134.792 127.248,135.501 127.823,139.237 129.047 C 146.115 131.300,149.356 134.922,149.130 140.102 C 148.708 149.753,136.364 152.434,127.333 144.837 C 125.958 143.681,125.914 143.809,128.550 141.298 L 130.747 139.205 131.874 140.141 C 136.375 143.879,142.708 143.509,142.708 139.508 C 142.708 137.922,139.776 135.778,136.563 135.015 C 125.964 132.498,125.406 119.202,135.788 116.559 C 137.409 116.146,140.494 116.300,142.396 116.888 M239.479 116.761 C 241.526 117.315,245.417 119.304,245.417 119.796 C 245.417 119.889,244.522 120.998,243.429 122.259 L 241.440 124.553 240.147 123.952 C 234.529 121.341,227.867 124.330,226.353 130.142 C 224.143 138.627,232.879 145.530,240.546 141.356 L 241.822 140.662 243.828 142.972 C 246.191 145.693,246.116 145.397,244.688 146.344 C 233.974 153.456,219.868 146.662,218.841 133.894 C 217.955 122.884,228.807 113.875,239.479 116.761 M178.163 132.500 C 182.256 141.151,185.610 148.349,185.615 148.495 C 185.623 148.702,184.857 148.748,182.135 148.703 L 178.646 148.646 177.203 145.677 L 175.760 142.708 169.286 142.712 L 162.813 142.715 161.269 145.733 L 159.725 148.750 156.229 148.750 C 154.306 148.750,152.696 148.680,152.651 148.594 C 152.606 148.508,154.198 145.250,156.189 141.354 C 158.181 137.458,161.830 130.305,164.298 125.458 L 168.786 116.645 169.753 116.708 L 170.719 116.771 178.163 132.500 M195.668 127.448 C 195.727 137.931,195.741 138.256,196.171 139.185 C 198.279 143.742,204.738 143.771,206.871 139.233 C 207.296 138.329,207.310 137.991,207.352 127.537 L 207.396 116.771 210.625 116.771 L 213.854 116.771 213.908 127.348 C 213.968 139.032,213.913 139.709,212.707 142.159 C 208.139 151.438,194.866 151.424,190.396 142.135 C 189.229 139.708,189.174 139.050,189.170 127.344 L 189.167 116.667 192.387 116.667 L 195.607 116.667 195.668 127.448 M272.708 119.896 L 272.708 123.125 265.313 123.125 L 257.917 123.125 257.917 126.042 L 257.917 128.958 264.063 128.958 L 270.208 128.958 270.208 132.188 L 270.208 135.417 264.063 135.417 L 257.917 135.417 257.917 138.750 L 257.917 142.083 265.208 142.083 L 272.500 142.083 272.500 145.417 L 272.500 148.750 261.979 148.750 L 251.458 148.750 251.458 132.708 L 251.458 116.667 262.083 116.667 L 272.708 116.667 272.708 119.896 M167.848 132.841 C 166.957 134.628,166.267 136.128,166.314 136.175 C 166.361 136.222,167.819 136.235,169.552 136.203 L 172.705 136.146 171.237 133.021 C 170.430 131.302,169.701 129.828,169.619 129.744 C 169.536 129.661,168.739 131.055,167.848 132.841 M199.476 195.573 C 198.928 196.919,197.927 199.217,197.253 200.680 C 196.430 202.466,195.752 204.380,195.189 206.513 C 194.727 208.259,194.122 210.484,193.844 211.458 C 193.566 212.432,193.281 213.614,193.210 214.085 L 193.081 214.941 195.134 215.231 C 197.764 215.602,204.616 215.570,206.354 215.178 C 207.815 214.848,207.823 214.808,206.968 212.083 C 206.698 211.224,206.141 209.208,205.731 207.604 C 204.598 203.171,200.989 193.125,200.529 193.125 C 200.499 193.125,200.025 194.227,199.476 195.573 M203.125 203.229 C 202.852 203.558,201.875 203.666,201.875 203.368 C 201.875 203.053,202.145 202.917,202.769 202.917 C 203.292 202.917,203.346 202.963,203.125 203.229 M203.491 204.219 C 203.389 204.528,201.875 204.701,201.875 204.403 C 201.875 204.178,202.332 204.020,203.090 203.983 C 203.393 203.967,203.544 204.056,203.491 204.219 M203.958 205.186 C 203.958 205.451,203.414 205.625,202.587 205.625 C 201.842 205.625,201.612 205.308,202.240 205.144 C 202.902 204.971,203.958 204.997,203.958 205.186 M204.116 206.507 C 204.014 206.813,202.397 207.168,201.927 206.988 C 201.478 206.816,201.828 206.512,202.604 206.401 C 203.858 206.223,204.202 206.247,204.116 206.507 M204.283 207.611 C 203.836 207.949,201.227 208.060,201.573 207.726 C 201.821 207.487,202.542 207.355,203.750 207.327 C 204.617 207.307,204.657 207.328,204.283 207.611 M204.598 208.611 C 204.295 208.913,201.458 209.078,201.458 208.793 C 201.458 208.580,204.328 208.131,204.654 208.294 C 204.749 208.341,204.724 208.484,204.598 208.611 M196.699 209.010 C 196.483 209.225,196.042 209.056,196.042 208.757 C 196.042 208.660,196.235 208.631,196.472 208.693 C 196.753 208.767,196.832 208.877,196.699 209.010 M204.928 209.680 C 204.423 210.062,202.032 210.317,201.540 210.041 C 201.232 209.869,201.352 209.805,202.196 209.690 C 202.764 209.614,203.323 209.518,203.438 209.479 C 204.137 209.240,205.302 209.396,204.928 209.680 M196.363 209.806 C 196.607 210.201,196.251 210.298,195.888 209.936 C 195.563 209.611,195.563 209.583,195.881 209.583 C 196.070 209.583,196.287 209.683,196.363 209.806 M205.270 210.439 C 204.969 210.739,202.058 211.157,201.569 210.969 C 201.033 210.763,201.221 210.659,202.514 210.445 C 204.221 210.162,205.550 210.159,205.270 210.439 M196.458 210.833 C 196.458 210.948,196.276 211.042,196.054 211.042 C 195.832 211.042,195.592 210.948,195.521 210.833 C 195.448 210.715,195.623 210.625,195.925 210.625 C 196.218 210.625,196.458 210.719,196.458 210.833 M205.683 211.483 C 205.352 211.814,203.885 212.064,202.205 212.074 C 200.382 212.086,200.597 211.839,202.672 211.540 C 204.943 211.211,205.975 211.192,205.683 211.483 M196.012 211.644 C 196.218 211.775,196.229 211.863,196.054 211.972 C 195.731 212.171,195.148 211.933,195.312 211.668 C 195.469 211.414,195.639 211.408,196.012 211.644 M206.042 212.282 C 206.042 212.754,202.209 213.323,201.115 213.012 C 200.635 212.876,200.982 212.776,202.917 212.491 C 205.923 212.048,206.042 212.040,206.042 212.282 M196.042 212.708 C 196.042 212.823,195.860 212.917,195.637 212.917 C 195.415 212.917,195.175 212.823,195.104 212.708 C 195.031 212.590,195.206 212.500,195.509 212.500 C 195.802 212.500,196.042 212.594,196.042 212.708 M206.250 213.324 C 206.250 213.667,204.768 213.977,202.520 214.106 C 200.912 214.198,200.391 214.168,200.501 213.990 C 200.583 213.858,200.996 213.744,201.419 213.737 C 201.841 213.730,202.891 213.601,203.750 213.451 C 205.740 213.103,206.250 213.077,206.250 213.324 M195.803 213.519 C 196.255 213.805,195.730 213.988,195.122 213.757 C 194.826 213.644,194.583 213.503,194.583 213.443 C 194.583 213.266,195.495 213.323,195.803 213.519 M195.729 214.623 C 195.864 214.753,195.723 214.800,195.329 214.756 C 194.994 214.718,194.678 214.560,194.627 214.405 C 194.524 214.092,195.347 214.254,195.729 214.623 M206.392 214.467 C 205.845 214.882,203.674 215.212,201.650 215.187 C 199.535 215.161,200.039 214.962,203.333 214.521 C 206.419 214.108,206.876 214.100,206.392 214.467 M207.122 216.379 C 207.201 216.828,205.928 217.164,203.021 217.461 C 201.573 217.609,201.388 217.659,202.206 217.680 C 202.790 217.696,204.025 217.606,204.951 217.482 C 205.877 217.357,206.806 217.295,207.016 217.345 C 207.619 217.487,206.410 217.906,204.959 218.058 C 204.177 218.140,203.801 218.259,203.927 218.386 C 204.054 218.512,204.517 218.501,205.198 218.355 C 206.824 218.006,207.726 218.046,207.200 218.444 C 206.830 218.724,206.827 218.750,207.165 218.750 C 207.800 218.750,207.410 219.228,206.550 219.504 L 205.729 219.769 206.745 219.648 C 207.768 219.527,208.148 219.999,207.170 220.176 C 206.499 220.298,206.374 220.589,207.008 220.554 C 207.782 220.511,207.990 220.917,207.240 221.003 C 206.924 221.040,206.667 221.141,206.667 221.228 C 206.667 221.315,206.960 221.343,207.318 221.291 C 208.110 221.174,208.075 221.677,207.276 221.901 C 206.823 222.027,206.841 222.044,207.448 222.063 C 208.275 222.088,208.327 222.392,207.552 222.675 L 206.979 222.884 207.569 222.900 C 208.320 222.921,208.208 223.412,207.432 223.503 C 207.126 223.540,206.875 223.641,206.875 223.728 C 206.875 223.815,207.168 223.843,207.527 223.791 C 208.422 223.659,208.232 224.210,207.318 224.398 C 206.204 224.625,206.326 224.788,207.504 224.648 C 208.313 224.552,208.567 224.582,208.458 224.759 C 208.360 224.918,208.491 225.000,208.842 225.000 C 209.135 225.000,209.375 224.917,209.375 224.816 C 209.375 223.893,208.453 218.075,208.172 217.231 C 207.821 216.173,206.964 215.478,207.122 216.379 M192.708 216.706 C 192.708 216.968,191.828 222.931,191.568 224.427 C 191.470 224.993,191.482 225.000,192.557 224.987 C 193.421 224.976,193.549 224.935,193.177 224.785 C 192.387 224.467,192.624 224.148,193.542 224.295 C 194.580 224.461,194.737 223.916,193.734 223.624 C 193.009 223.413,192.981 222.989,193.698 223.081 C 194.384 223.169,194.270 222.723,193.542 222.469 C 192.727 222.185,192.720 221.784,193.534 221.946 C 194.318 222.103,194.574 221.732,193.867 221.463 C 193.111 221.176,193.175 220.750,193.950 220.905 C 194.832 221.081,194.904 220.749,194.051 220.441 C 192.801 219.989,193.189 219.600,194.512 219.979 C 195.096 220.147,195.237 220.094,195.822 219.491 C 196.633 218.654,197.892 218.011,199.384 217.672 C 200.207 217.485,200.377 217.394,200.000 217.343 C 198.629 217.155,199.063 216.972,201.146 216.860 C 202.870 216.767,202.224 216.731,198.542 216.713 C 195.849 216.699,193.435 216.626,193.177 216.549 C 192.845 216.451,192.708 216.496,192.708 216.706 M195.417 217.396 C 195.636 217.660,195.594 217.708,195.147 217.708 C 194.486 217.708,193.958 217.513,193.958 217.269 C 193.958 216.959,195.139 217.061,195.417 217.396 M195.295 218.348 C 195.608 218.642,194.916 218.787,194.307 218.555 C 193.499 218.248,193.590 217.850,194.427 218.026 C 194.799 218.105,195.190 218.250,195.295 218.348 M199.893 219.010 C 199.402 219.698,196.452 223.984,196.093 224.531 C 195.787 224.998,195.791 225.000,196.903 224.992 L 198.021 224.984 199.844 222.227 C 201.850 219.193,201.907 219.039,201.132 218.745 C 200.380 218.459,200.270 218.482,199.893 219.010 M205.208 218.958 C 204.814 219.213,205.453 219.213,206.250 218.958 C 206.760 218.795,206.758 218.791,206.146 218.774 C 205.802 218.764,205.380 218.847,205.208 218.958 M195.158 219.323 C 195.279 219.693,194.337 219.654,193.842 219.268 C 193.463 218.973,193.490 218.956,194.255 219.008 C 194.704 219.038,195.110 219.180,195.158 219.323 M201.721 220.563 C 200.736 221.819,198.931 224.834,199.080 224.976 C 199.155 225.046,199.322 224.929,199.452 224.715 C 199.581 224.500,200.329 223.345,201.112 222.146 C 202.544 219.956,202.877 219.090,201.721 220.563 " stroke="none" fill="#343434" fill-rule="evenodd"></path><path id="path2" d="M144.774 125.224 C 145.167 125.551,145.314 125.584,145.448 125.374 C 145.744 124.906,145.644 124.791,144.948 124.799 L 144.271 124.806 144.774 125.224 M128.400 126.582 C 128.762 130.499,132.027 133.783,136.771 135.002 C 141.766 136.285,144.034 139.186,141.965 141.645 C 140.213 143.728,135.386 143.078,131.975 140.301 L 130.810 139.352 129.207 140.803 C 128.326 141.601,127.296 142.575,126.920 142.967 L 126.236 143.680 127.233 144.609 C 130.558 147.710,134.081 149.057,138.870 149.060 L 141.802 149.063 143.588 148.178 C 148.837 145.577,150.713 139.474,147.705 134.787 C 146.133 132.337,142.920 130.244,138.739 128.945 C 135.820 128.038,135.027 127.418,134.692 125.778 C 134.593 125.294,134.495 125.223,134.076 125.328 C 133.300 125.522,131.502 125.520,129.811 125.323 L 128.267 125.142 128.400 126.582 M162.576 129.015 C 162.272 129.614,159.928 134.210,157.366 139.229 C 154.804 144.247,152.708 148.396,152.708 148.447 C 152.708 148.499,154.301 148.542,156.249 148.542 L 159.789 148.542 161.250 145.625 L 162.711 142.708 169.286 142.708 L 175.862 142.708 177.239 145.625 L 178.616 148.542 182.118 148.542 L 185.620 148.542 185.126 147.448 C 183.851 144.626,177.025 130.287,176.864 130.092 C 176.635 129.814,174.537 129.419,172.519 129.274 C 171.670 129.213,170.873 129.081,170.748 128.981 C 170.351 128.662,168.285 128.283,166.563 128.213 C 165.646 128.175,164.498 128.095,164.012 128.035 L 163.128 127.925 162.576 129.015 M171.239 132.847 C 172.047 134.585,172.708 136.061,172.708 136.128 C 172.708 136.195,171.209 136.250,169.376 136.250 L 166.043 136.250 167.756 132.817 C 168.698 130.930,169.536 129.453,169.619 129.536 C 169.701 129.619,170.430 131.109,171.239 132.847 M189.230 135.781 C 189.459 141.475,191.293 145.007,195.237 147.350 C 203.155 152.056,213.572 146.519,213.776 137.495 C 213.813 135.870,213.857 135.893,210.776 135.970 C 209.375 136.005,208.078 136.036,207.894 136.038 C 207.637 136.041,207.532 136.326,207.448 137.253 C 206.986 142.344,200.982 144.550,197.382 140.951 C 195.980 139.549,195.625 138.490,195.625 135.707 L 195.625 133.572 194.427 133.450 C 193.768 133.383,192.432 133.188,191.458 133.017 C 190.484 132.846,189.557 132.706,189.397 132.707 C 189.156 132.708,189.127 133.232,189.230 135.781 M269.379 134.576 C 269.209 134.684,268.342 134.835,267.452 134.913 C 265.162 135.112,265.443 135.417,267.917 135.417 L 270.000 135.417 270.000 134.896 C 270.000 134.337,269.866 134.268,269.379 134.576 M255.208 136.684 C 254.807 136.793,254.304 136.982,254.089 137.104 C 253.875 137.227,253.195 137.379,252.579 137.443 L 251.458 137.558 251.458 143.050 L 251.458 148.542 261.979 148.542 L 272.500 148.542 272.500 145.417 L 272.500 142.292 265.214 142.292 L 257.928 142.292 257.870 139.427 L 257.813 136.563 256.875 136.524 C 256.359 136.503,255.609 136.575,255.208 136.684 M225.521 136.765 C 222.630 137.669,222.186 137.706,220.602 137.180 C 219.268 136.737,219.256 136.758,219.890 138.441 C 223.712 148.597,236.252 152.405,244.957 146.054 L 245.851 145.402 243.936 143.215 C 241.585 140.530,241.966 140.708,240.369 141.541 C 235.721 143.963,229.427 142.128,227.181 137.695 C 226.676 136.698,226.338 136.509,225.521 136.765 " stroke="none" fill="#fa3636" fill-rule="evenodd"></path><path id="path3" d="M209.958 76.405 C 210.909 76.444,212.409 76.444,213.291 76.405 C 214.174 76.366,213.396 76.334,211.563 76.334 C 209.729 76.335,209.007 76.366,209.958 76.405 M226.105 76.406 C 227.343 76.442,229.312 76.442,230.480 76.405 C 231.648 76.368,230.635 76.338,228.229 76.338 C 225.823 76.338,224.867 76.369,226.105 76.406 M238.429 76.510 C 238.375 76.654,238.354 83.849,238.384 92.500 L 238.438 108.229 248.906 108.232 L 259.375 108.235 248.958 108.178 L 238.542 108.121 238.542 92.292 L 238.542 76.462 249.219 76.406 L 259.896 76.350 249.212 76.300 C 240.820 76.261,238.507 76.306,238.429 76.510 M270.573 76.406 C 273.924 76.438,279.409 76.438,282.760 76.406 C 286.112 76.374,283.370 76.348,276.667 76.348 C 269.964 76.348,267.221 76.374,270.573 76.406 M153.597 82.441 C 153.913 82.489,154.382 82.488,154.638 82.438 C 154.895 82.389,154.635 82.350,154.063 82.351 C 153.490 82.353,153.280 82.393,153.597 82.441 M244.874 85.729 C 244.874 87.333,244.907 87.962,244.947 87.126 C 244.986 86.291,244.986 84.978,244.946 84.210 C 244.906 83.441,244.874 84.125,244.874 85.729 M137.557 92.292 C 137.557 92.807,137.597 93.018,137.647 92.760 C 137.697 92.503,137.697 92.081,137.647 91.823 C 137.597 91.565,137.557 91.776,137.557 92.292 M129.883 92.760 L 129.271 93.438 129.948 92.826 C 130.320 92.489,130.625 92.184,130.625 92.149 C 130.625 91.988,130.453 92.129,129.883 92.760 M215.930 94.844 L 214.896 95.938 215.990 94.904 C 216.591 94.335,217.083 93.843,217.083 93.810 C 217.083 93.654,216.890 93.827,215.930 94.844 M244.888 98.333 L 244.896 101.771 252.188 101.775 L 259.479 101.779 252.245 101.720 L 245.010 101.661 244.945 98.279 L 244.879 94.896 244.888 98.333 M141.875 103.399 C 141.875 103.434,142.180 103.739,142.552 104.076 L 143.229 104.688 142.617 104.010 C 142.047 103.379,141.875 103.238,141.875 103.399 M128.490 108.280 C 129.435 108.319,130.982 108.319,131.927 108.280 C 132.872 108.241,132.099 108.210,130.208 108.210 C 128.318 108.210,127.544 108.241,128.490 108.280 M275.052 108.280 C 275.940 108.319,277.393 108.319,278.281 108.280 C 279.169 108.241,278.443 108.209,276.667 108.209 C 274.891 108.209,274.164 108.241,275.052 108.280 M168.673 116.831 C 168.617 116.922,168.916 116.964,169.338 116.924 C 170.626 116.802,170.778 116.716,169.752 116.691 C 169.214 116.678,168.729 116.741,168.673 116.831 M190.791 116.822 C 191.742 116.861,193.242 116.860,194.124 116.821 C 195.007 116.782,194.229 116.751,192.396 116.751 C 190.563 116.751,189.840 116.783,190.791 116.822 M207.389 116.922 C 207.333 117.068,207.313 121.641,207.344 127.083 L 207.400 136.979 207.450 126.927 L 207.500 116.875 210.623 116.875 L 213.746 116.875 213.803 126.823 L 213.860 136.771 213.857 126.771 L 213.854 116.771 210.673 116.713 C 208.242 116.669,207.467 116.719,207.389 116.922 M256.719 116.823 C 259.669 116.855,264.497 116.855,267.448 116.823 C 270.398 116.790,267.984 116.763,262.083 116.763 C 256.182 116.763,253.768 116.790,256.719 116.823 M270.084 132.188 C 270.085 134.021,270.116 134.743,270.155 133.792 C 270.194 132.841,270.194 131.341,270.155 130.459 C 270.116 129.576,270.084 130.354,270.084 132.188 M130.208 131.315 C 130.208 131.351,130.513 131.656,130.885 131.992 L 131.563 132.604 130.951 131.927 C 130.380 131.296,130.208 131.154,130.208 131.315 M129.989 139.948 L 129.271 140.729 130.052 140.011 C 130.482 139.616,130.833 139.265,130.833 139.230 C 130.833 139.071,130.657 139.221,129.989 139.948 M261.510 142.239 C 263.544 142.273,266.872 142.273,268.906 142.239 C 270.940 142.205,269.276 142.177,265.208 142.177 C 261.141 142.177,259.477 142.205,261.510 142.239 M138.490 142.855 C 138.747 142.905,139.169 142.905,139.427 142.855 C 139.685 142.806,139.474 142.765,138.958 142.765 C 138.443 142.765,138.232 142.806,138.490 142.855 M126.250 143.815 C 126.250 143.851,126.555 144.156,126.927 144.492 L 127.604 145.104 126.992 144.427 C 126.422 143.796,126.250 143.654,126.250 143.815 M192.292 145.065 C 192.292 145.101,192.596 145.406,192.969 145.742 L 193.646 146.354 193.034 145.677 C 192.464 145.046,192.292 144.904,192.292 145.065 M210.091 145.677 L 209.479 146.354 210.156 145.742 C 210.529 145.406,210.833 145.101,210.833 145.065 C 210.833 144.904,210.661 145.046,210.091 145.677 M152.682 148.599 C 152.771 148.688,154.430 148.734,156.370 148.703 L 159.896 148.645 156.208 148.541 C 154.179 148.484,152.593 148.510,152.682 148.599 M180.479 148.697 C 181.487 148.735,183.081 148.735,184.021 148.696 C 184.960 148.658,184.135 148.627,182.188 148.627 C 180.240 148.627,179.471 148.659,180.479 148.697 M256.733 148.698 C 259.692 148.730,264.473 148.730,267.358 148.698 C 270.244 148.665,267.823 148.638,261.979 148.638 C 256.135 148.638,253.775 148.665,256.733 148.698 M202.031 210.147 C 202.289 210.197,202.711 210.197,202.969 210.147 C 203.227 210.097,203.016 210.057,202.500 210.057 C 201.984 210.057,201.773 210.097,202.031 210.147 M195.553 210.885 C 195.606 210.971,195.832 211.042,196.054 211.042 C 196.276 211.042,196.458 210.971,196.458 210.885 C 196.458 210.799,196.233 210.729,195.957 210.729 C 195.682 210.729,195.500 210.799,195.553 210.885 M201.440 210.899 C 201.534 210.992,202.021 211.037,202.524 210.999 L 203.438 210.930 202.354 210.830 C 201.758 210.774,201.347 210.805,201.440 210.899 M195.312 211.668 C 195.167 211.902,195.777 212.209,195.981 212.005 C 196.053 211.933,195.931 211.874,195.712 211.872 C 195.378 211.869,195.364 211.836,195.625 211.667 C 195.813 211.545,195.838 211.463,195.689 211.462 C 195.553 211.460,195.383 211.553,195.312 211.668 M202.552 213.060 C 202.753 213.113,203.081 213.113,203.281 213.060 C 203.482 213.008,203.318 212.965,202.917 212.965 C 202.516 212.965,202.352 213.008,202.552 213.060 M206.875 216.354 C 207.083 216.604,207.081 216.667,206.866 216.667 C 206.718 216.667,206.653 216.723,206.722 216.792 C 206.791 216.860,206.943 216.857,207.060 216.785 C 207.314 216.628,207.130 216.042,206.827 216.042 C 206.705 216.042,206.726 216.174,206.875 216.354 M205.104 216.458 L 204.271 216.608 205.000 216.622 C 205.401 216.631,205.917 216.557,206.146 216.458 C 206.637 216.247,206.282 216.247,205.104 216.458 M196.413 216.612 C 197.019 216.654,197.956 216.654,198.497 216.611 C 199.037 216.568,198.542 216.534,197.396 216.534 C 196.250 216.535,195.808 216.570,196.413 216.612 M199.120 217.112 C 199.203 217.191,199.833 217.179,200.521 217.085 L 201.771 216.914 200.370 216.941 C 199.600 216.957,199.037 217.034,199.120 217.112 M200.104 217.508 C 199.843 217.625,200.389 217.648,201.563 217.570 C 202.594 217.501,203.477 217.410,203.524 217.368 C 203.713 217.201,200.494 217.333,200.104 217.508 M206.458 218.750 C 206.630 218.861,206.958 218.947,207.188 218.941 L 207.604 218.929 207.188 218.750 C 206.565 218.482,206.044 218.482,206.458 218.750 M205.625 219.571 C 205.625 219.679,205.733 219.834,205.866 219.916 C 206.009 220.004,206.050 219.973,205.967 219.840 C 205.891 219.716,205.993 219.572,206.195 219.519 C 206.475 219.446,206.450 219.418,206.094 219.399 C 205.836 219.386,205.625 219.463,205.625 219.571 M207.273 220.558 C 207.673 220.641,207.716 220.705,207.482 220.868 C 207.264 221.020,207.259 221.054,207.464 221.000 C 207.948 220.872,207.831 220.522,207.292 220.487 L 206.771 220.453 207.273 220.558 M193.333 221.029 C 193.333 221.137,193.442 221.292,193.574 221.374 C 193.717 221.462,193.758 221.432,193.675 221.298 C 193.599 221.174,193.702 221.030,193.904 220.977 C 194.183 220.905,194.159 220.876,193.802 220.858 C 193.544 220.844,193.333 220.922,193.333 221.029 " stroke="none" fill="#7b7373" fill-rule="evenodd"></path><path id="path4" d="M111.346 76.510 C 111.291 76.654,111.271 83.849,111.302 92.500 L 111.357 108.229 111.408 92.347 L 111.458 76.464 117.760 76.406 L 124.063 76.348 117.754 76.299 C 112.862 76.261,111.423 76.308,111.346 76.510 M214.673 81.458 C 214.673 84.266,214.703 85.414,214.739 84.010 C 214.775 82.607,214.775 80.310,214.739 78.906 C 214.703 77.503,214.673 78.651,214.673 81.458 M264.667 79.583 C 264.667 81.359,264.699 82.086,264.738 81.198 C 264.777 80.310,264.777 78.857,264.738 77.969 C 264.699 77.081,264.667 77.807,264.667 79.583 M288.626 79.583 C 288.626 81.359,288.657 82.086,288.697 81.198 C 288.736 80.310,288.736 78.857,288.697 77.969 C 288.657 77.081,288.626 77.807,288.626 79.583 M142.383 80.677 L 141.771 81.354 142.448 80.742 C 142.820 80.406,143.125 80.101,143.125 80.065 C 143.125 79.904,142.953 80.046,142.383 80.677 M132.757 85.833 C 132.757 86.234,132.800 86.398,132.852 86.198 C 132.904 85.997,132.904 85.669,132.852 85.469 C 132.800 85.268,132.757 85.432,132.757 85.833 M119.228 89.113 C 120.122 89.153,121.528 89.152,122.353 89.113 C 123.179 89.073,122.448 89.041,120.729 89.042 C 119.010 89.042,118.335 89.074,119.228 89.113 M170.485 92.188 C 170.486 92.990,170.524 93.292,170.569 92.860 C 170.614 92.428,170.613 91.771,170.567 91.402 C 170.521 91.032,170.484 91.385,170.485 92.188 M182.771 92.292 C 182.771 92.922,182.810 93.180,182.858 92.865 C 182.905 92.549,182.905 92.034,182.858 91.719 C 182.810 91.404,182.771 91.661,182.771 92.292 M247.969 94.947 C 249.659 94.982,252.424 94.982,254.115 94.947 C 255.805 94.912,254.422 94.884,251.042 94.884 C 247.661 94.884,246.279 94.912,247.969 94.947 M214.675 102.083 C 214.675 105.464,214.704 106.846,214.739 105.156 C 214.774 103.466,214.774 100.701,214.739 99.010 C 214.704 97.320,214.675 98.703,214.675 102.083 M153.802 102.227 C 154.003 102.279,154.331 102.279,154.531 102.227 C 154.732 102.175,154.568 102.132,154.167 102.132 C 153.766 102.132,153.602 102.175,153.802 102.227 M165.614 103.906 L 164.896 104.688 165.677 103.970 C 166.404 103.301,166.554 103.125,166.395 103.125 C 166.360 103.125,166.009 103.477,165.614 103.906 M137.867 116.397 C 138.126 116.447,138.501 116.445,138.700 116.393 C 138.900 116.341,138.688 116.300,138.229 116.303 C 137.771 116.305,137.608 116.348,137.867 116.397 M189.261 124.792 C 189.261 129.203,189.289 131.008,189.323 128.802 C 189.356 126.596,189.356 122.987,189.323 120.781 C 189.289 118.576,189.261 120.380,189.261 124.792 M257.791 126.042 C 257.791 127.703,257.823 128.383,257.863 127.552 C 257.903 126.721,257.903 125.362,257.863 124.531 C 257.823 123.701,257.791 124.380,257.791 126.042 M131.719 125.560 C 131.919 125.613,132.247 125.613,132.448 125.560 C 132.648 125.508,132.484 125.465,132.083 125.465 C 131.682 125.465,131.518 125.508,131.719 125.560 M225.893 132.813 C 225.894 133.385,225.935 133.595,225.983 133.278 C 226.031 132.962,226.029 132.493,225.980 132.237 C 225.931 131.980,225.891 132.240,225.893 132.813 M192.659 133.272 C 192.918 133.322,193.293 133.320,193.492 133.268 C 193.691 133.216,193.479 133.175,193.021 133.178 C 192.563 133.180,192.400 133.223,192.659 133.272 M261.681 135.201 L 257.842 135.313 257.689 135.884 C 257.605 136.199,257.622 136.509,257.727 136.574 C 257.831 136.638,257.917 136.404,257.917 136.054 L 257.917 135.417 261.875 135.417 C 264.375 135.417,265.833 135.340,265.833 135.208 C 265.833 135.094,265.763 135.020,265.677 135.045 C 265.591 135.070,263.793 135.140,261.681 135.201 M209.110 135.984 C 209.480 136.030,210.136 136.030,210.568 135.985 C 211.001 135.940,210.698 135.903,209.896 135.902 C 209.094 135.901,208.740 135.938,209.110 135.984 M201.979 207.708 C 201.903 207.832,202.130 207.911,202.540 207.902 C 203.114 207.890,203.160 207.858,202.813 207.708 C 202.247 207.465,202.129 207.465,201.979 207.708 M204.958 211.500 C 205.153 211.694,205.264 211.694,205.458 211.500 C 205.653 211.306,205.597 211.250,205.208 211.250 C 204.819 211.250,204.764 211.306,204.958 211.500 M201.667 211.875 C 201.667 211.990,201.924 212.082,202.240 212.080 C 202.686 212.078,202.744 212.032,202.500 211.875 C 202.092 211.612,201.667 211.612,201.667 211.875 M195.000 213.542 C 195.172 213.653,195.453 213.744,195.625 213.744 C 195.903 213.744,195.903 213.721,195.625 213.542 C 195.453 213.431,195.172 213.340,195.000 213.340 C 194.722 213.340,194.722 213.362,195.000 213.542 M201.250 213.958 C 201.024 214.104,201.197 214.157,201.875 214.149 C 202.588 214.140,202.713 214.095,202.396 213.958 C 201.838 213.719,201.621 213.719,201.250 213.958 M201.042 215.000 C 200.818 215.145,201.025 215.199,201.771 215.191 C 202.543 215.182,202.705 215.133,202.396 215.000 C 201.833 214.758,201.416 214.758,201.042 215.000 M200.156 215.778 C 200.643 215.821,201.440 215.821,201.927 215.778 C 202.414 215.734,202.016 215.698,201.042 215.698 C 200.068 215.698,199.669 215.734,200.156 215.778 M201.510 216.610 C 201.940 216.655,202.643 216.655,203.073 216.610 C 203.503 216.565,203.151 216.528,202.292 216.528 C 201.432 216.528,201.081 216.565,201.510 216.610 M204.392 216.742 C 204.440 216.783,204.760 216.879,205.104 216.956 C 205.561 217.058,205.645 217.039,205.417 216.885 C 205.135 216.694,204.183 216.561,204.392 216.742 M203.278 218.125 C 203.655 218.566,203.862 218.683,203.646 218.333 C 203.575 218.219,203.734 218.116,203.998 218.104 C 204.473 218.084,204.472 218.081,203.958 217.917 C 203.056 217.628,202.894 217.677,203.278 218.125 M204.715 218.600 C 204.419 218.816,204.518 218.846,205.319 218.782 C 206.370 218.698,206.404 218.662,205.607 218.471 C 205.302 218.398,204.914 218.454,204.715 218.600 M195.420 219.893 C 195.033 220.292,194.756 220.651,194.806 220.690 C 194.855 220.729,195.211 220.402,195.597 219.964 C 196.473 218.968,196.360 218.922,195.420 219.893 M206.045 220.357 C 206.041 220.640,206.699 221.049,207.122 221.028 C 207.272 221.020,207.161 220.905,206.875 220.773 C 206.589 220.641,206.285 220.436,206.201 220.318 C 206.102 220.180,206.047 220.194,206.045 220.357 M194.167 222.737 C 194.167 222.868,194.003 223.098,193.802 223.248 C 193.470 223.496,193.480 223.510,193.906 223.403 C 194.299 223.304,194.624 222.500,194.271 222.500 C 194.214 222.500,194.167 222.607,194.167 222.737 " stroke="none" fill="#949494" fill-rule="evenodd"></path><path id="path5" d="M259.667 79.583 C 259.667 81.359,259.699 82.086,259.738 81.198 C 259.777 80.310,259.777 78.857,259.738 77.969 C 259.699 77.081,259.667 77.807,259.667 79.583 M279.890 95.521 C 279.890 102.510,279.916 105.340,279.948 101.808 C 279.980 98.276,279.980 92.557,279.948 89.100 C 279.916 85.642,279.890 88.531,279.890 95.521 M199.742 216.606 C 200.001 216.656,200.376 216.654,200.575 216.601 C 200.775 216.549,200.563 216.509,200.104 216.511 C 199.646 216.513,199.483 216.556,199.742 216.606 " stroke="none" fill="#8c8c8c" fill-rule="evenodd"></path></g></svg>