<svg id="svg" version="1.1" xmlns="http://www.w3.org/2000/svg" xmlns:xlink="http://www.w3.org/1999/xlink" width="400" height="225" viewBox="0, 0, 400,225"><g id="svgg"><path id="path0" d="M151.771 75.968 C 140.675 77.755,134.531 89.499,139.470 99.479 C 147.148 114.994,170.417 109.467,170.417 92.128 C 170.417 82.314,161.320 74.430,151.771 75.968 M190.350 76.055 C 178.876 77.374,172.383 89.692,177.727 100.000 C 182.160 108.553,193.216 111.330,201.345 105.934 C 201.980 105.513,202.500 105.079,202.500 104.970 C 202.500 104.718,198.707 100.390,198.553 100.466 C 198.489 100.498,197.969 100.770,197.396 101.072 C 189.809 105.067,181.222 98.639,182.986 90.286 C 184.252 84.296,190.836 80.838,196.458 83.209 C 197.203 83.524,197.938 83.797,198.091 83.817 C 198.687 83.896,202.284 79.516,201.940 79.129 C 200.290 77.275,194.074 75.627,190.350 76.055 M111.458 92.281 L 111.458 108.125 114.583 108.125 L 117.708 108.125 117.708 101.762 L 117.708 95.399 119.317 95.460 L 120.925 95.521 123.848 101.816 L 126.771 108.110 130.136 108.118 L 133.502 108.125 130.397 101.436 C 126.845 93.784,127.098 94.546,127.969 94.123 C 134.557 90.918,134.162 80.721,127.319 77.337 L 125.752 76.563 118.605 76.500 L 111.458 76.438 111.458 92.281 M208.333 92.292 L 208.333 108.125 211.458 108.125 L 214.583 108.125 214.583 102.129 L 214.583 96.133 215.846 94.889 C 216.956 93.796,217.138 93.687,217.356 93.986 C 217.493 94.174,219.337 97.431,221.454 101.226 L 225.304 108.125 229.006 108.125 C 231.042 108.125,232.708 108.087,232.708 108.040 C 232.708 107.992,230.286 103.844,227.324 98.821 C 224.363 93.797,221.829 89.478,221.693 89.221 C 221.464 88.788,221.829 88.329,226.869 82.707 C 229.852 79.380,232.292 76.613,232.292 76.558 C 232.292 76.503,230.419 76.458,228.130 76.458 L 223.968 76.458 219.432 81.458 C 216.937 84.208,214.826 86.458,214.740 86.458 C 214.654 86.458,214.583 84.208,214.583 81.458 L 214.583 76.458 211.458 76.458 L 208.333 76.458 208.333 92.292 M238.542 92.292 L 238.542 108.125 249.063 108.125 L 259.583 108.125 259.583 105.000 L 259.583 101.875 252.182 101.875 L 244.782 101.875 244.839 98.385 L 244.896 94.896 250.990 94.841 L 257.083 94.785 257.083 91.664 L 257.083 88.542 250.938 88.542 L 244.792 88.542 244.792 85.625 L 244.792 82.708 252.188 82.708 L 259.583 82.708 259.583 79.583 L 259.583 76.458 249.063 76.458 L 238.542 76.458 238.542 92.292 M264.792 79.583 L 264.792 82.708 269.167 82.708 L 273.542 82.708 273.542 95.417 L 273.542 108.125 276.667 108.125 L 279.792 108.125 279.792 95.417 L 279.792 82.708 284.167 82.708 L 288.542 82.708 288.542 79.583 L 288.542 76.458 276.667 76.458 L 264.792 76.458 264.792 79.583 M156.555 82.611 C 163.999 84.550,166.546 93.825,161.123 99.248 C 155.661 104.710,146.434 102.160,144.477 94.647 C 142.610 87.479,149.372 80.740,156.555 82.611 M125.000 83.177 C 126.428 84.152,126.892 86.177,125.990 87.502 C 124.999 88.957,124.701 89.055,121.027 89.133 L 117.708 89.203 117.708 85.956 L 117.708 82.708 121.011 82.708 C 124.093 82.708,124.359 82.740,125.000 83.177 M135.208 116.850 C 134.578 117.053,133.781 117.381,133.438 117.579 L 132.813 117.939 133.542 117.836 C 135.840 117.510,138.297 117.001,138.750 116.756 C 139.578 116.309,136.647 116.386,135.208 116.850 M251.458 117.883 L 251.458 118.892 252.552 119.117 C 253.154 119.240,254.490 119.499,255.521 119.692 C 256.552 119.885,257.490 120.114,257.604 120.201 C 258.274 120.708,261.695 121.223,264.271 121.203 C 265.856 121.191,267.448 121.295,268.110 121.454 C 268.732 121.604,269.997 121.736,270.922 121.748 L 272.604 121.771 272.663 119.323 L 272.722 116.875 262.090 116.875 L 251.458 116.875 251.458 117.883 M199.513 172.444 C 199.106 173.114,198.676 173.918,198.557 174.230 C 198.439 174.542,197.647 176.272,196.799 178.076 C 195.950 179.879,195.138 181.870,194.993 182.500 C 194.849 183.130,194.411 184.531,194.021 185.614 C 192.529 189.750,191.192 195.832,190.536 201.458 C 189.202 212.902,188.775 225.000,189.704 225.000 C 190.070 225.000,190.152 223.965,190.423 215.940 C 190.551 212.160,190.694 209.028,190.742 208.981 C 190.789 208.933,192.025 209.072,193.487 209.289 C 198.147 209.982,203.900 209.754,208.080 208.710 C 209.030 208.473,209.847 208.319,209.896 208.369 C 209.946 208.418,210.093 212.157,210.224 216.677 C 210.355 221.197,210.499 224.935,210.544 224.983 C 210.861 225.322,210.935 223.967,210.915 218.160 C 210.874 206.103,210.112 199.936,207.620 191.458 C 207.199 190.026,206.441 187.305,205.936 185.411 C 205.431 183.517,204.647 181.079,204.193 179.994 C 203.235 177.706,200.435 171.407,200.327 171.299 C 200.286 171.259,199.920 171.774,199.513 172.444 M201.342 174.635 C 203.075 178.357,204.802 183.409,206.133 188.646 C 206.424 189.792,206.897 191.513,207.185 192.472 C 207.473 193.430,207.708 194.333,207.708 194.478 C 207.708 195.538,197.956 195.883,193.710 194.972 L 192.689 194.753 192.829 193.783 C 192.905 193.249,193.177 192.109,193.433 191.250 C 193.688 190.391,194.017 189.172,194.162 188.542 C 194.787 185.838,195.938 182.431,197.008 180.118 C 197.641 178.751,198.533 176.693,198.990 175.546 C 200.369 172.085,200.188 172.155,201.342 174.635 M202.344 185.144 C 202.544 185.196,202.872 185.196,203.073 185.144 C 203.273 185.091,203.109 185.048,202.708 185.048 C 202.307 185.048,202.143 185.091,202.344 185.144 M202.292 186.458 C 201.897 186.713,202.537 186.713,203.333 186.458 C 203.844 186.295,203.842 186.291,203.229 186.274 C 202.885 186.264,202.464 186.347,202.292 186.458 M203.021 187.292 L 202.188 187.441 202.917 187.467 C 203.318 187.482,203.786 187.403,203.958 187.292 C 204.299 187.071,204.251 187.071,203.021 187.292 M202.813 188.333 L 201.979 188.483 202.917 188.509 C 203.432 188.523,203.995 188.444,204.167 188.333 C 204.538 188.093,204.152 188.093,202.813 188.333 M202.292 189.583 C 201.577 189.734,201.575 189.737,202.188 189.752 C 202.531 189.761,203.188 189.690,203.646 189.595 L 204.479 189.423 203.750 189.426 C 203.349 189.428,202.693 189.499,202.292 189.583 M203.021 190.327 L 201.563 190.604 202.827 190.517 C 203.523 190.470,204.320 190.340,204.598 190.229 C 205.270 189.960,204.793 189.990,203.021 190.327 M202.917 191.458 L 201.979 191.604 202.917 191.615 C 203.432 191.620,204.089 191.550,204.375 191.458 L 204.896 191.292 204.375 191.302 C 204.089 191.308,203.432 191.378,202.917 191.458 M203.021 192.416 L 201.354 192.691 202.936 192.601 C 203.806 192.551,204.743 192.421,205.019 192.310 C 205.709 192.034,205.165 192.063,203.021 192.416 M203.333 193.438 C 202.013 193.656,201.916 193.697,202.708 193.703 C 203.224 193.707,204.115 193.590,204.688 193.442 C 206.004 193.104,205.364 193.102,203.333 193.438 M203.438 194.499 L 201.771 194.774 203.229 194.693 C 204.031 194.649,204.922 194.518,205.208 194.403 C 205.867 194.138,205.521 194.157,203.438 194.499 M208.153 196.845 C 208.822 198.817,209.844 207.122,209.463 207.488 C 207.901 208.988,192.425 209.384,191.002 207.960 C 190.786 207.744,191.110 204.476,191.792 200.000 C 192.456 195.635,192.415 195.773,192.971 196.071 C 193.626 196.421,204.642 196.316,205.976 195.947 C 207.550 195.511,207.726 195.584,208.153 196.845 M203.438 196.687 C 200.832 196.959,200.547 197.064,202.708 196.957 C 203.797 196.903,205.016 196.778,205.417 196.680 C 206.356 196.449,205.699 196.452,203.438 196.687 M204.167 197.500 L 203.229 197.646 204.167 197.652 C 204.682 197.656,205.385 197.587,205.729 197.500 L 206.354 197.341 205.729 197.348 C 205.385 197.351,204.682 197.420,204.167 197.500 M198.854 197.681 C 197.827 197.950,196.762 198.524,195.862 199.295 C 195.126 199.925,194.909 200.006,194.225 199.906 C 193.446 199.792,193.444 199.794,194.063 200.028 C 194.854 200.329,194.825 200.296,194.671 200.698 C 194.579 200.938,194.376 201.007,193.989 200.932 C 193.446 200.826,193.445 200.828,193.915 201.073 C 194.600 201.429,194.422 201.991,193.642 201.932 L 193.021 201.885 193.594 202.106 C 193.946 202.241,194.167 202.482,194.167 202.730 C 194.167 203.057,194.059 203.112,193.594 203.024 C 193.021 202.915,193.021 202.915,193.649 203.209 C 194.053 203.398,194.374 203.770,194.548 204.252 C 194.963 205.399,195.246 205.115,198.444 200.352 C 200.082 197.911,200.346 197.765,201.530 198.643 C 201.890 198.911,197.711 205.838,196.878 206.352 C 196.762 206.424,196.667 206.591,196.667 206.723 C 196.667 207.089,197.778 205.715,198.988 203.854 C 201.803 199.525,202.026 199.234,202.312 199.520 C 202.476 199.684,202.436 199.913,202.171 200.342 C 201.050 202.157,198.980 205.236,198.292 206.112 C 197.315 207.356,197.315 207.379,198.305 207.675 C 201.070 208.504,206.042 206.585,206.042 204.690 C 206.042 204.336,206.327 204.148,207.169 203.946 L 207.813 203.793 207.118 203.771 C 206.263 203.745,206.322 203.289,207.205 203.098 L 207.813 202.966 207.118 202.941 C 206.317 202.913,206.304 202.488,207.099 202.266 C 207.588 202.129,207.585 202.124,207.014 202.104 C 206.304 202.079,206.360 201.639,207.099 201.433 C 207.546 201.308,207.524 201.289,206.910 201.271 C 206.456 201.257,206.245 201.160,206.301 200.991 C 206.349 200.849,206.247 200.592,206.075 200.420 C 205.798 200.143,205.854 200.079,206.579 199.846 L 207.396 199.583 206.406 199.700 C 205.827 199.769,205.417 199.734,205.417 199.616 C 205.417 199.505,204.971 199.127,204.427 198.775 C 203.883 198.424,203.330 198.045,203.199 197.935 C 202.880 197.665,199.639 197.476,198.854 197.681 M194.063 198.125 C 194.685 198.393,195.206 198.393,194.792 198.125 C 194.620 198.014,194.292 197.928,194.063 197.934 L 193.646 197.946 194.063 198.125 M206.042 198.069 C 205.641 198.116,205.238 198.228,205.146 198.317 C 205.055 198.406,205.407 198.414,205.929 198.335 C 206.452 198.255,206.941 198.129,207.016 198.054 C 207.091 197.978,207.067 197.932,206.962 197.950 C 206.857 197.968,206.443 198.022,206.042 198.069 M193.854 198.958 C 193.925 199.073,194.188 199.160,194.439 199.152 C 194.879 199.138,194.881 199.131,194.479 198.958 C 193.906 198.712,193.702 198.712,193.854 198.958 M205.833 198.958 L 205.313 199.125 205.833 199.131 C 206.120 199.135,206.542 199.057,206.771 198.958 L 207.188 198.779 206.771 198.785 C 206.542 198.789,206.120 198.867,205.833 198.958 M193.125 204.375 C 193.297 204.486,193.625 204.572,193.854 204.566 L 194.271 204.554 193.854 204.375 C 193.231 204.107,192.711 204.107,193.125 204.375 M207.292 204.525 C 207.005 204.577,206.689 204.697,206.589 204.793 C 206.489 204.889,206.754 204.889,207.179 204.794 C 207.603 204.698,208.005 204.565,208.072 204.497 C 208.200 204.370,208.147 204.372,207.292 204.525 M193.094 205.469 C 193.199 205.574,193.507 205.625,193.778 205.583 C 194.195 205.517,194.166 205.488,193.587 205.392 C 193.173 205.323,192.979 205.354,193.094 205.469 M206.458 205.625 L 205.938 205.792 206.458 205.792 C 206.745 205.792,207.214 205.717,207.500 205.625 L 208.021 205.458 207.500 205.458 C 207.214 205.458,206.745 205.533,206.458 205.625 M192.744 206.348 C 192.821 206.429,193.231 206.573,193.655 206.669 C 194.079 206.764,194.344 206.766,194.244 206.672 C 194.020 206.462,192.550 206.144,192.744 206.348 M206.354 206.458 L 205.729 206.617 206.354 206.621 C 206.698 206.623,207.214 206.550,207.500 206.458 L 208.021 206.292 207.500 206.295 C 207.214 206.298,206.698 206.371,206.354 206.458 M205.833 207.396 C 205.045 207.579,204.883 207.663,205.313 207.665 C 205.656 207.667,206.406 207.548,206.979 207.401 C 208.334 207.052,207.332 207.048,205.833 207.396 M193.229 207.699 C 193.629 207.880,194.745 207.998,194.566 207.840 C 194.518 207.798,194.104 207.707,193.646 207.637 C 193.065 207.548,192.939 207.567,193.229 207.699 M206.042 210.032 C 205.526 210.139,203.932 210.310,202.500 210.411 L 199.896 210.595 202.708 210.515 C 204.255 210.471,206.036 210.301,206.667 210.136 C 207.944 209.803,207.500 209.729,206.042 210.032 M193.021 210.417 C 193.250 210.515,193.766 210.591,194.167 210.586 L 194.896 210.576 194.271 210.417 C 193.335 210.179,192.467 210.179,193.021 210.417 M205.789 210.947 C 205.726 211.010,204.422 211.137,202.890 211.229 L 200.104 211.397 202.188 211.418 C 203.999 211.436,207.884 210.925,206.441 210.858 C 206.145 210.845,205.852 210.885,205.789 210.947 M193.125 211.250 C 193.411 211.342,193.880 211.417,194.167 211.417 L 194.688 211.417 194.167 211.250 C 193.880 211.158,193.411 211.083,193.125 211.083 L 192.604 211.083 193.125 211.250 M205.786 211.992 C 205.722 212.056,204.371 212.189,202.783 212.289 L 199.896 212.469 202.813 212.388 C 204.417 212.344,206.057 212.220,206.458 212.112 L 207.188 211.918 206.545 211.896 C 206.192 211.885,205.850 211.927,205.786 211.992 M193.021 212.292 C 193.250 212.390,193.719 212.466,194.063 212.461 L 194.688 212.451 194.063 212.292 C 193.719 212.204,193.250 212.128,193.021 212.123 L 192.604 212.113 193.021 212.292 M206.334 213.044 C 206.208 213.096,204.895 213.216,203.417 213.310 L 200.729 213.481 202.813 213.502 C 203.958 213.513,205.505 213.397,206.250 213.244 C 206.995 213.091,207.370 212.963,207.083 212.958 C 206.797 212.953,206.460 212.992,206.334 213.044 M192.934 213.199 C 192.982 213.240,193.349 213.334,193.750 213.407 C 194.263 213.501,194.387 213.480,194.167 213.336 C 193.884 213.151,192.727 213.023,192.934 213.199 M203.357 214.189 C 202.281 214.285,201.343 214.422,201.273 214.495 C 201.120 214.653,204.970 214.393,206.146 214.165 L 206.979 214.004 206.146 214.010 C 205.688 214.013,204.432 214.094,203.357 214.189 M193.284 214.314 C 193.543 214.364,193.918 214.362,194.117 214.310 C 194.316 214.258,194.104 214.217,193.646 214.219 C 193.188 214.222,193.025 214.264,193.284 214.314 M203.438 215.124 L 200.938 215.391 203.333 215.293 C 205.513 215.204,208.315 214.815,206.563 214.845 C 206.219 214.851,204.813 214.976,203.438 215.124 M193.333 215.208 C 193.620 215.300,194.042 215.378,194.271 215.381 L 194.688 215.387 194.271 215.208 C 194.042 215.110,193.620 215.032,193.333 215.035 L 192.813 215.042 193.333 215.208 M192.719 216.053 C 192.998 216.229,194.553 216.344,194.358 216.174 C 194.310 216.133,193.854 216.046,193.344 215.980 C 192.745 215.904,192.524 215.929,192.719 216.053 M204.063 216.066 C 203.031 216.163,202.000 216.285,201.771 216.338 C 201.048 216.504,205.689 216.223,206.563 216.048 L 207.396 215.881 206.667 215.885 C 206.266 215.888,205.094 215.969,204.063 216.066 M204.063 217.108 C 203.031 217.205,202.000 217.327,201.771 217.380 C 201.048 217.546,205.689 217.265,206.563 217.090 L 207.396 216.923 206.667 216.927 C 206.266 216.929,205.094 217.011,204.063 217.108 M192.934 217.158 C 192.982 217.199,193.396 217.290,193.854 217.360 C 194.422 217.447,194.588 217.425,194.375 217.289 C 194.090 217.107,192.732 216.984,192.934 217.158 M203.958 218.148 C 201.534 218.423,201.370 218.527,203.542 218.413 C 204.630 218.356,205.849 218.230,206.250 218.134 L 206.979 217.959 206.250 217.965 C 205.849 217.968,204.818 218.050,203.958 218.148 M193.229 218.333 C 193.573 218.421,194.042 218.497,194.271 218.502 L 194.688 218.512 194.271 218.333 C 194.042 218.235,193.573 218.159,193.229 218.164 L 192.604 218.174 193.229 218.333 M205.625 219.100 C 205.339 219.144,204.214 219.265,203.125 219.370 L 201.146 219.561 203.542 219.465 C 205.719 219.379,208.532 218.983,206.771 219.011 C 206.427 219.016,205.911 219.057,205.625 219.100 M193.125 219.375 C 193.411 219.467,193.927 219.540,194.271 219.538 L 194.896 219.534 194.271 219.375 C 193.927 219.288,193.411 219.214,193.125 219.212 L 192.604 219.208 193.125 219.375 M203.646 220.540 L 201.354 220.810 203.542 220.712 C 205.595 220.621,208.180 220.235,206.563 220.261 C 206.219 220.267,204.906 220.392,203.646 220.540 M193.125 220.625 C 193.411 220.717,193.974 220.790,194.375 220.788 L 195.104 220.784 194.479 220.625 C 193.562 220.392,192.396 220.392,193.125 220.625 M206.344 221.374 C 206.223 221.424,204.958 221.551,203.531 221.656 L 200.938 221.847 203.646 221.769 C 205.951 221.702,208.878 221.289,207.083 221.284 C 206.797 221.284,206.464 221.324,206.344 221.374 M193.021 221.669 C 193.420 221.838,195.162 221.955,194.983 221.800 C 194.935 221.759,194.380 221.673,193.750 221.608 C 193.037 221.536,192.762 221.559,193.021 221.669 M206.533 222.422 C 206.402 222.476,205.043 222.595,203.512 222.688 L 200.729 222.856 202.917 222.876 C 204.120 222.888,205.714 222.772,206.458 222.619 C 207.203 222.466,207.578 222.338,207.292 222.333 C 207.005 222.328,206.664 222.368,206.533 222.422 M193.229 222.708 C 193.458 222.807,193.974 222.883,194.375 222.877 L 195.104 222.867 194.479 222.708 C 193.543 222.470,192.675 222.470,193.229 222.708 M206.458 223.473 C 206.172 223.516,204.953 223.637,203.750 223.743 L 201.563 223.935 204.063 223.841 C 205.438 223.790,206.891 223.664,207.292 223.562 C 208.056 223.367,207.542 223.312,206.458 223.473 M193.142 223.825 C 193.360 224.012,194.790 224.124,194.680 223.946 C 194.613 223.838,194.221 223.750,193.807 223.750 C 193.394 223.750,193.095 223.784,193.142 223.825 M203.873 224.610 C 202.853 224.708,201.962 224.846,201.894 224.917 C 201.746 225.072,205.172 224.818,206.354 224.586 L 207.188 224.423 206.458 224.427 C 206.057 224.429,204.894 224.512,203.873 224.610 M193.438 224.792 C 194.414 225.040,194.968 225.040,194.583 224.792 C 194.411 224.681,193.943 224.599,193.542 224.611 L 192.813 224.633 193.438 224.792 " stroke="none" fill="#f7f7f7" fill-rule="evenodd"></path><path id="path1" d="M0.000 112.500 L 0.000 225.000 94.574 225.000 L 189.147 225.000 189.032 220.781 C 188.756 210.704,190.785 194.804,193.339 187.034 C 193.894 185.345,194.543 183.255,194.780 182.389 C 195.018 181.524,195.553 180.140,195.969 179.314 C 196.386 178.488,197.212 176.734,197.805 175.417 C 199.050 172.649,199.885 171.250,200.290 171.250 C 200.460 171.250,201.304 172.899,202.380 175.331 C 205.012 181.281,205.267 181.983,206.643 187.109 C 207.332 189.673,208.178 192.686,208.524 193.805 C 210.326 199.637,211.532 212.367,211.159 221.615 L 211.022 225.000 305.511 225.000 L 400.000 225.000 400.000 112.500 L 400.000 0.000 200.000 0.000 L 0.000 0.000 0.000 112.500 M158.193 76.273 C 169.003 78.955,174.034 91.693,167.995 101.094 C 161.522 111.170,146.780 111.274,140.325 101.290 C 132.151 88.647,143.578 72.648,158.193 76.273 M196.354 76.345 C 198.401 76.898,202.292 78.887,202.292 79.379 C 202.292 79.473,201.397 80.581,200.304 81.843 L 198.315 84.136 197.022 83.535 C 191.392 80.919,184.745 83.901,183.228 89.725 C 181.052 98.082,189.442 104.943,197.112 101.079 L 198.703 100.277 200.653 102.532 C 203.046 105.301,202.977 104.985,201.414 106.001 C 190.246 113.264,175.724 105.565,175.751 92.396 C 175.773 81.536,186.023 73.551,196.354 76.345 M125.250 76.481 C 133.603 78.230,135.617 90.345,128.185 94.136 L 127.323 94.576 130.433 101.270 C 132.143 104.952,133.542 108.048,133.542 108.149 C 133.542 108.454,126.962 108.380,126.726 108.073 C 126.616 107.930,125.232 105.023,123.650 101.615 L 120.773 95.417 119.241 95.417 L 117.708 95.417 117.708 101.771 L 117.708 108.125 114.479 108.125 L 111.250 108.125 111.250 92.188 L 111.250 76.250 117.698 76.250 C 121.619 76.250,124.579 76.341,125.250 76.481 M214.840 81.283 L 214.896 86.315 219.450 81.283 L 224.004 76.250 228.252 76.250 C 230.588 76.250,232.500 76.320,232.500 76.406 C 232.499 76.492,230.064 79.281,227.087 82.604 C 224.111 85.927,221.675 88.740,221.675 88.854 C 221.675 88.969,224.193 93.328,227.270 98.542 L 232.865 108.021 229.200 108.078 C 227.184 108.109,225.434 108.096,225.310 108.049 C 225.186 108.001,223.308 104.771,221.136 100.870 L 217.188 93.778 215.990 94.956 L 214.792 96.133 214.792 102.129 L 214.792 108.125 211.563 108.125 L 208.333 108.125 208.333 92.188 L 208.333 76.250 211.559 76.250 L 214.784 76.250 214.840 81.283 M259.792 79.479 L 259.792 82.708 252.396 82.708 L 245.000 82.708 245.000 85.625 L 245.000 88.542 251.042 88.542 L 257.083 88.542 257.083 91.771 L 257.083 95.000 251.042 95.000 L 245.000 95.000 245.000 98.333 L 245.000 101.667 252.297 101.667 L 259.594 101.667 259.537 104.948 L 259.479 108.229 248.958 108.229 L 238.438 108.229 238.384 92.500 C 238.354 83.849,238.375 76.654,238.429 76.510 C 238.507 76.307,240.847 76.250,249.160 76.250 L 259.792 76.250 259.792 79.479 M288.750 79.479 L 288.750 82.708 284.377 82.708 L 280.003 82.708 279.950 95.469 L 279.896 108.229 276.720 108.287 L 273.545 108.344 273.491 95.578 L 273.438 82.813 269.010 82.756 L 264.583 82.700 264.583 79.475 L 264.583 76.250 276.667 76.250 L 288.750 76.250 288.750 79.479 M151.354 82.793 C 144.065 85.107,141.882 94.186,147.378 99.327 C 155.472 106.899,167.812 97.575,162.797 87.677 C 160.799 83.735,155.504 81.474,151.354 82.793 M117.708 85.833 L 117.708 88.958 120.889 88.958 C 125.262 88.958,126.785 87.968,126.352 85.406 C 125.996 83.294,124.745 82.711,120.573 82.709 L 117.708 82.708 117.708 85.833 M142.396 116.888 C 144.579 117.563,148.542 119.731,148.542 120.250 C 148.542 120.443,145.769 125.076,145.406 125.489 C 145.321 125.586,144.729 125.331,144.091 124.923 C 139.379 121.909,134.792 122.166,134.792 125.443 C 134.792 127.248,135.501 127.823,139.237 129.047 C 146.115 131.300,149.356 134.922,149.130 140.102 C 148.708 149.753,136.364 152.434,127.333 144.837 C 125.958 143.681,125.914 143.809,128.550 141.298 L 130.747 139.205 131.874 140.141 C 136.375 143.879,142.708 143.509,142.708 139.508 C 142.708 137.922,139.776 135.778,136.563 135.015 C 125.964 132.498,125.406 119.202,135.788 116.559 C 137.410 116.146,140.494 116.300,142.396 116.888 M238.035 116.469 C 240.828 116.964,245.417 119.049,245.417 119.822 C 245.417 119.911,244.523 121.011,243.430 122.269 L 241.443 124.554 240.149 123.949 C 234.624 121.368,227.839 124.393,226.363 130.096 C 224.154 138.631,232.858 145.541,240.546 141.356 L 241.822 140.662 243.828 142.972 C 246.191 145.693,246.116 145.397,244.688 146.344 C 233.553 153.735,218.849 146.027,218.876 132.813 C 218.897 122.506,228.049 114.700,238.035 116.469 M178.166 132.500 C 182.257 141.151,185.610 148.349,185.615 148.495 C 185.623 148.702,184.857 148.748,182.135 148.703 L 178.646 148.646 177.203 145.677 L 175.760 142.708 169.286 142.712 L 162.813 142.715 161.269 145.733 L 159.725 148.750 156.229 148.750 C 154.306 148.750,152.695 148.680,152.649 148.594 C 152.603 148.508,154.362 144.922,156.558 140.625 C 158.754 136.328,162.404 129.175,164.669 124.729 L 168.786 116.645 169.756 116.708 L 170.726 116.771 178.166 132.500 M195.668 127.448 C 195.727 137.931,195.741 138.256,196.171 139.185 C 198.279 143.742,204.738 143.771,206.871 139.233 C 207.296 138.329,207.310 137.991,207.352 127.537 L 207.396 116.771 210.625 116.771 L 213.854 116.771 213.908 127.348 C 213.968 139.046,213.914 139.707,212.697 142.178 C 208.138 151.439,194.840 151.413,190.394 142.135 C 189.229 139.703,189.174 139.045,189.170 127.344 L 189.167 116.667 192.387 116.667 L 195.607 116.667 195.668 127.448 M272.708 119.896 L 272.708 123.125 265.313 123.125 L 257.917 123.125 257.917 126.042 L 257.917 128.958 264.063 128.958 L 270.208 128.958 270.208 132.188 L 270.208 135.417 264.063 135.417 L 257.917 135.417 257.917 138.750 L 257.917 142.083 265.208 142.083 L 272.500 142.083 272.500 145.417 L 272.500 148.750 261.979 148.750 L 251.458 148.750 251.458 132.708 L 251.458 116.667 262.083 116.667 L 272.708 116.667 272.708 119.896 M167.848 132.841 C 166.957 134.628,166.267 136.128,166.314 136.175 C 166.361 136.222,167.819 136.235,169.552 136.203 L 172.705 136.146 171.237 133.021 C 170.430 131.302,169.701 129.828,169.619 129.744 C 169.536 129.661,168.739 131.055,167.848 132.841 M198.824 176.409 C 198.008 178.327,197.007 180.646,196.598 181.563 C 196.189 182.479,195.608 184.120,195.307 185.208 C 193.564 191.513,193.132 193.208,193.076 193.958 L 193.021 194.687 194.479 194.961 C 196.538 195.348,204.496 195.357,206.146 194.974 C 207.614 194.634,207.632 194.546,206.771 191.875 C 206.494 191.016,205.975 189.141,205.619 187.708 C 204.508 183.245,202.126 176.469,200.668 173.628 L 200.306 172.923 198.824 176.409 M203.125 182.913 C 203.125 183.173,202.180 183.418,201.883 183.234 C 201.760 183.158,201.714 183.009,201.780 182.902 C 201.940 182.643,203.125 182.653,203.125 182.913 M203.283 184.010 C 203.181 184.320,201.667 184.492,201.667 184.195 C 201.667 183.970,202.124 183.812,202.882 183.774 C 203.185 183.759,203.336 183.848,203.283 184.010 M203.750 184.978 C 203.750 185.243,203.206 185.417,202.379 185.417 C 201.633 185.417,201.404 185.099,202.031 184.935 C 202.693 184.762,203.750 184.788,203.750 184.978 M204.059 186.244 C 204.201 186.474,203.382 186.720,202.369 186.750 C 201.475 186.777,201.451 186.392,202.336 186.225 C 203.423 186.021,203.924 186.026,204.059 186.244 M204.375 187.267 C 204.375 187.527,203.605 187.702,202.448 187.705 C 201.383 187.709,201.089 187.375,202.031 187.233 C 203.130 187.066,204.375 187.085,204.375 187.267 M204.525 188.461 C 204.451 188.536,203.743 188.643,202.952 188.699 C 200.951 188.842,200.796 188.429,202.760 188.186 C 204.147 188.014,204.861 188.125,204.525 188.461 M196.490 188.801 C 196.275 189.017,195.833 188.847,195.833 188.549 C 195.833 188.452,196.027 188.423,196.264 188.485 C 196.545 188.558,196.623 188.668,196.490 188.801 M205.000 189.352 C 205.000 189.752,201.915 190.160,201.337 189.836 C 201.021 189.659,201.133 189.598,201.988 189.482 C 202.556 189.405,203.115 189.310,203.229 189.271 C 203.680 189.117,205.000 189.177,205.000 189.352 M196.220 189.560 C 196.383 189.664,196.418 189.792,196.303 189.863 C 196.193 189.931,195.925 189.852,195.708 189.687 C 195.259 189.348,195.709 189.236,196.220 189.560 M205.061 190.230 C 204.761 190.531,201.850 190.948,201.361 190.761 C 200.825 190.555,201.013 190.451,202.305 190.237 C 204.012 189.953,205.341 189.950,205.061 190.230 M196.250 190.625 C 196.250 190.740,196.068 190.833,195.846 190.833 C 195.623 190.833,195.383 190.740,195.313 190.625 C 195.239 190.507,195.415 190.417,195.717 190.417 C 196.010 190.417,196.250 190.510,196.250 190.625 M205.475 191.275 C 204.994 191.756,200.833 192.136,200.833 191.699 C 200.833 191.522,203.348 191.134,204.885 191.074 C 205.493 191.050,205.647 191.103,205.475 191.275 M196.100 191.458 C 196.270 191.458,196.271 191.521,196.104 191.687 C 195.830 191.961,194.938 191.727,195.122 191.429 C 195.193 191.315,195.389 191.275,195.559 191.340 C 195.729 191.405,195.972 191.458,196.100 191.458 M205.833 192.074 C 205.833 192.546,202.000 193.114,200.907 192.804 C 200.427 192.668,200.773 192.567,202.708 192.282 C 205.715 191.840,205.833 191.832,205.833 192.074 M195.833 192.500 C 195.833 192.615,195.651 192.708,195.429 192.708 C 195.207 192.708,194.967 192.615,194.896 192.500 C 194.823 192.382,194.998 192.292,195.300 192.292 C 195.593 192.292,195.833 192.385,195.833 192.500 M205.971 193.220 C 205.434 193.627,203.053 193.993,201.452 193.914 C 199.763 193.832,200.133 193.672,202.917 193.283 C 205.978 192.856,206.465 192.846,205.971 193.220 M195.595 193.310 C 196.041 193.593,195.497 193.808,195.004 193.544 C 194.773 193.420,194.583 193.275,194.583 193.222 C 194.583 193.058,195.296 193.121,195.595 193.310 M195.521 194.414 C 195.656 194.545,195.515 194.591,195.120 194.547 C 194.785 194.510,194.470 194.352,194.419 194.197 C 194.315 193.883,195.139 194.046,195.521 194.414 M206.184 194.258 C 205.637 194.674,203.465 195.003,201.441 194.979 C 199.327 194.953,199.830 194.754,203.125 194.313 C 206.211 193.900,206.668 193.892,206.184 194.258 M206.918 196.188 C 206.992 196.617,205.668 196.961,202.813 197.252 C 201.365 197.400,201.179 197.450,201.998 197.472 C 202.581 197.487,203.817 197.398,204.743 197.273 C 205.669 197.149,206.598 197.087,206.807 197.136 C 207.411 197.279,206.202 197.698,204.751 197.850 C 203.968 197.931,203.592 198.051,203.719 198.177 C 203.846 198.304,204.309 198.293,204.990 198.147 C 206.616 197.798,207.517 197.838,206.991 198.236 C 206.596 198.535,206.597 198.542,207.044 198.542 C 207.830 198.542,207.542 198.921,206.510 199.244 L 205.521 199.554 206.667 199.431 C 207.717 199.319,207.789 199.337,207.527 199.654 C 207.369 199.844,207.070 200.000,206.862 200.000 C 206.653 200.000,206.421 200.100,206.346 200.222 C 206.253 200.372,206.457 200.397,206.985 200.298 C 207.950 200.117,207.928 200.652,206.962 200.861 L 206.354 200.992 207.049 201.017 C 207.850 201.045,207.862 201.470,207.068 201.692 C 206.615 201.819,206.633 201.836,207.240 201.854 C 208.067 201.880,208.118 202.183,207.344 202.466 L 206.771 202.675 207.473 202.692 C 208.322 202.712,208.020 203.333,207.162 203.333 C 206.890 203.333,206.667 203.408,206.667 203.500 C 206.667 203.591,207.017 203.625,207.445 203.575 C 208.147 203.494,208.195 203.518,207.940 203.826 C 207.785 204.013,207.440 204.167,207.174 204.167 C 206.909 204.167,206.641 204.249,206.579 204.349 C 206.517 204.449,206.886 204.484,207.400 204.426 C 208.806 204.268,208.561 204.726,207.083 205.017 C 206.396 205.152,205.833 205.354,205.833 205.466 C 205.833 205.578,205.993 205.608,206.188 205.533 C 206.897 205.261,208.333 205.149,208.333 205.366 C 208.333 205.667,207.830 205.827,206.424 205.974 C 205.735 206.046,205.098 206.236,204.951 206.414 C 204.731 206.678,204.755 206.707,205.106 206.600 C 206.801 206.084,208.333 205.914,208.333 206.242 C 208.333 206.524,206.830 206.896,205.442 206.958 C 204.755 206.989,203.846 207.209,203.242 207.491 C 201.485 208.311,197.691 208.239,197.361 207.380 C 197.302 207.227,197.755 206.448,198.367 205.649 C 199.512 204.154,202.292 199.937,202.292 199.695 C 202.292 199.297,201.648 200.128,199.903 202.784 C 197.744 206.067,196.790 207.269,196.538 207.021 C 196.445 206.930,196.459 206.725,196.570 206.566 C 201.040 200.142,201.745 198.849,200.947 198.545 C 200.086 198.218,200.090 198.215,198.725 200.260 C 197.715 201.775,196.347 203.729,195.272 205.191 C 195.237 205.239,194.997 205.176,194.739 205.050 C 194.482 204.924,193.923 204.764,193.497 204.694 C 192.775 204.576,192.330 204.267,192.556 204.041 C 192.609 203.988,193.029 204.028,193.487 204.131 C 194.528 204.365,194.547 203.713,193.508 203.410 C 192.797 203.203,192.782 202.782,193.490 202.872 C 194.113 202.952,194.090 202.540,193.458 202.299 C 192.580 201.966,192.545 201.590,193.407 201.751 C 194.291 201.917,194.461 201.560,193.646 201.250 C 192.900 200.966,192.974 200.543,193.742 200.696 C 194.497 200.847,194.808 200.481,194.080 200.298 C 193.351 200.115,192.922 199.583,193.503 199.583 C 193.738 199.583,194.161 199.671,194.442 199.778 C 194.864 199.938,195.040 199.880,195.446 199.445 C 196.204 198.634,197.666 197.857,199.162 197.471 C 199.968 197.263,200.295 197.113,199.965 197.102 C 198.301 197.047,198.927 196.756,200.938 196.650 C 202.602 196.562,201.888 196.524,198.333 196.514 C 195.641 196.506,193.274 196.434,193.075 196.353 C 192.605 196.164,192.613 196.133,191.990 200.208 C 191.211 205.304,190.985 207.753,191.278 207.934 C 193.926 209.570,209.379 208.695,209.373 206.909 C 209.366 204.967,208.455 198.469,207.974 196.927 C 207.642 195.863,206.755 195.243,206.918 196.188 M195.087 197.001 C 195.268 197.071,195.417 197.212,195.417 197.314 C 195.417 197.610,194.493 197.529,194.050 197.194 C 193.603 196.856,194.347 196.718,195.087 197.001 M195.080 198.122 C 195.392 198.434,194.728 198.586,194.098 198.347 C 193.293 198.041,193.378 197.624,194.212 197.790 C 194.581 197.864,194.972 198.013,195.080 198.122 M205.000 198.750 C 204.605 199.005,205.245 199.005,206.042 198.750 C 206.552 198.587,206.550 198.583,205.938 198.566 C 205.594 198.556,205.172 198.639,205.000 198.750 M194.970 198.935 C 195.172 199.063,195.185 199.156,195.017 199.260 C 194.731 199.437,193.593 199.210,193.428 198.942 C 193.278 198.700,194.589 198.694,194.970 198.935 M194.283 205.514 C 194.663 205.802,194.643 205.820,193.946 205.827 C 193.538 205.830,193.023 205.696,192.800 205.527 C 192.420 205.240,192.440 205.221,193.137 205.215 C 193.545 205.211,194.061 205.346,194.283 205.514 M194.306 206.472 C 194.972 206.725,194.724 207.121,193.998 206.963 C 193.051 206.757,192.292 206.418,192.292 206.202 C 192.292 205.982,193.414 206.133,194.306 206.472 M208.394 207.106 C 208.062 207.438,205.907 207.910,204.705 207.913 C 203.290 207.918,203.666 207.669,205.690 207.259 C 207.797 206.834,208.719 206.781,208.394 207.106 M193.948 207.517 C 195.077 207.759,195.367 208.126,194.427 208.124 C 193.675 208.122,192.340 207.747,192.183 207.492 C 192.020 207.229,192.647 207.238,193.948 207.517 M207.813 208.968 C 204.182 209.937,197.989 210.171,193.583 209.506 C 192.173 209.293,190.986 209.154,190.946 209.195 C 190.905 209.237,190.769 212.130,190.644 215.625 C 190.518 219.120,190.370 222.659,190.315 223.490 L 190.214 225.000 191.617 224.976 C 192.389 224.963,192.857 224.909,192.656 224.856 C 192.456 224.804,192.292 224.661,192.292 224.539 C 192.292 224.268,195.004 224.505,195.302 224.803 C 195.411 224.911,196.489 224.999,197.698 224.997 C 199.194 224.995,199.796 224.929,199.583 224.792 C 199.369 224.653,199.895 224.588,201.250 224.585 C 202.339 224.582,203.979 224.492,204.896 224.385 C 209.056 223.898,209.070 223.897,208.837 224.147 C 208.713 224.280,207.963 224.517,207.170 224.675 L 205.729 224.961 207.997 224.980 L 210.265 225.000 210.130 220.156 C 209.870 210.816,209.747 208.541,209.503 208.560 C 209.375 208.571,208.615 208.754,207.813 208.968 M208.446 209.778 C 208.148 210.260,205.062 210.715,202.043 210.722 C 198.065 210.731,197.458 210.338,201.313 210.249 C 202.825 210.214,204.813 210.063,205.729 209.914 C 207.837 209.569,208.598 209.531,208.446 209.778 M194.847 210.351 C 194.935 210.403,194.946 210.543,194.873 210.663 C 194.637 211.044,192.083 210.589,192.083 210.166 C 192.083 209.969,194.474 210.129,194.847 210.351 M208.333 210.608 C 208.333 211.297,201.142 211.962,199.375 211.436 C 198.477 211.169,198.592 211.151,202.083 211.003 C 204.089 210.918,206.104 210.762,206.563 210.656 C 207.695 210.396,208.333 210.378,208.333 210.608 M194.766 211.241 C 195.275 211.524,194.624 211.720,193.659 211.575 C 192.088 211.340,191.706 210.780,193.229 210.946 C 193.917 211.021,194.608 211.154,194.766 211.241 M208.654 211.653 C 208.201 212.386,199.420 213.045,198.772 212.396 C 198.633 212.257,199.515 212.172,201.417 212.142 C 202.987 212.116,205.021 211.964,205.938 211.802 C 207.982 211.443,208.812 211.397,208.654 211.653 M194.540 212.207 C 195.170 212.335,194.921 212.709,194.206 212.707 C 193.356 212.705,192.057 212.295,192.195 212.072 C 192.305 211.893,193.272 211.949,194.540 212.207 M208.490 212.759 C 208.245 213.494,200.327 214.019,198.958 213.391 C 198.538 213.197,199.058 213.146,201.667 213.125 C 204.352 213.102,205.661 212.987,208.403 212.529 C 208.498 212.513,208.537 212.617,208.490 212.759 M194.670 213.337 C 195.015 213.681,194.303 213.757,193.245 213.489 C 191.738 213.107,191.759 212.721,193.274 212.958 C 193.937 213.062,194.565 213.232,194.670 213.337 M208.842 213.741 C 208.102 214.481,200.242 214.957,198.791 214.350 C 198.165 214.088,198.425 214.059,201.708 214.019 C 203.690 213.995,205.828 213.890,206.458 213.785 C 208.071 213.516,209.086 213.497,208.842 213.741 M194.323 214.090 C 195.252 214.339,194.799 214.636,193.639 214.539 C 192.152 214.416,191.587 213.957,192.927 213.961 C 193.437 213.963,194.065 214.021,194.323 214.090 M208.831 214.586 C 208.139 215.278,202.296 215.814,200.000 215.396 L 198.438 215.112 201.979 214.965 C 203.927 214.885,205.990 214.730,206.563 214.621 C 208.040 214.341,209.092 214.325,208.831 214.586 M194.828 215.126 C 195.295 215.415,194.595 215.652,193.680 215.515 C 192.016 215.265,191.699 214.738,193.299 214.880 C 194.025 214.945,194.713 215.055,194.828 215.126 M208.830 215.628 C 208.205 216.253,203.016 216.797,200.652 216.485 C 198.055 216.143,198.613 215.939,202.251 215.902 C 204.164 215.882,206.198 215.776,206.771 215.666 C 208.245 215.383,209.091 215.367,208.830 215.628 M194.878 216.253 C 195.013 216.388,194.757 216.458,194.135 216.458 C 193.104 216.458,191.818 216.095,191.971 215.846 C 192.099 215.640,194.617 215.992,194.878 216.253 M208.830 216.670 C 208.205 217.295,203.016 217.839,200.652 217.527 C 198.055 217.184,198.613 216.981,202.251 216.943 C 204.164 216.924,206.198 216.818,206.771 216.707 C 208.245 216.424,209.091 216.409,208.830 216.670 M194.804 217.195 C 195.304 217.504,194.486 217.675,193.444 217.481 C 191.833 217.180,191.711 216.801,193.267 216.932 C 193.975 216.992,194.667 217.111,194.804 217.195 M208.909 217.552 C 208.677 218.265,202.536 218.944,200.181 218.518 L 198.646 218.240 201.979 218.088 C 203.813 218.004,206.063 217.802,206.979 217.639 C 207.896 217.476,208.724 217.331,208.819 217.317 C 208.915 217.303,208.955 217.409,208.909 217.552 M194.879 218.341 C 195.233 218.688,194.420 218.789,193.242 218.544 C 191.619 218.207,191.722 217.823,193.385 218.008 C 194.102 218.088,194.773 218.238,194.879 218.341 M209.260 218.729 C 208.490 219.460,201.732 220.018,199.792 219.512 L 198.646 219.213 201.458 219.174 C 203.005 219.152,205.115 219.015,206.146 218.868 C 208.522 218.530,209.518 218.486,209.260 218.729 M194.862 219.318 C 195.323 219.593,194.528 219.823,193.572 219.692 C 191.850 219.455,191.633 218.866,193.338 219.060 C 194.080 219.145,194.766 219.261,194.862 219.318 M209.167 219.769 C 209.167 220.499,202.937 221.276,200.433 220.859 C 198.134 220.477,198.650 220.314,202.252 220.284 C 204.448 220.266,206.267 220.141,207.188 219.944 C 209.012 219.554,209.167 219.540,209.167 219.769 M195.087 220.641 C 195.687 221.201,193.087 221.071,192.372 220.506 C 192.017 220.225,192.121 220.208,193.438 220.329 C 194.240 220.403,194.982 220.543,195.087 220.641 M208.958 221.034 C 208.958 221.854,201.046 222.407,199.375 221.704 C 198.974 221.535,199.550 221.478,201.875 221.456 C 203.536 221.440,205.693 221.306,206.667 221.157 C 209.010 220.801,208.958 220.804,208.958 221.034 M194.531 221.583 C 195.461 221.724,195.386 222.084,194.427 222.082 C 193.421 222.081,192.040 221.698,192.186 221.461 C 192.291 221.291,192.762 221.316,194.531 221.583 M208.958 222.075 C 208.958 222.912,200.893 223.462,199.167 222.743 C 198.771 222.579,199.423 222.520,201.875 222.500 C 203.651 222.485,205.854 222.351,206.771 222.203 C 208.987 221.844,208.958 221.846,208.958 222.075 M194.969 222.695 C 195.498 222.991,194.833 223.170,193.757 223.022 C 192.036 222.785,191.657 222.234,193.328 222.398 C 194.069 222.471,194.808 222.605,194.969 222.695 M208.907 223.176 C 208.732 223.699,206.623 224.010,203.229 224.013 C 198.136 224.018,197.916 223.632,202.922 223.472 C 205.153 223.400,207.354 223.257,207.813 223.153 C 208.987 222.887,209.003 222.888,208.907 223.176 M195.167 223.848 C 195.232 223.912,195.197 224.049,195.090 224.151 C 194.848 224.382,192.477 224.024,192.188 223.713 C 191.969 223.477,194.931 223.611,195.167 223.848 " stroke="none" fill="#343434" fill-rule="evenodd"></path><path id="path2" d="M232.438 116.581 C 220.303 118.774,214.807 133.181,222.402 142.888 C 227.785 149.768,237.917 151.190,244.957 146.054 L 245.851 145.402 243.936 143.215 C 241.585 140.530,241.966 140.708,240.369 141.541 C 232.528 145.628,223.614 137.976,226.452 129.595 C 228.268 124.231,234.422 121.458,239.630 123.656 C 241.495 124.443,241.399 124.482,243.496 122.083 C 245.787 119.461,245.751 119.867,243.802 118.697 C 240.374 116.640,236.304 115.882,232.438 116.581 M138.542 116.856 C 137.911 117.065,136.786 117.352,136.042 117.494 C 135.297 117.637,134.547 117.783,134.375 117.819 C 134.203 117.855,133.613 117.951,133.064 118.033 C 129.311 118.590,127.098 125.123,129.212 129.401 C 130.537 132.081,133.288 134.118,136.771 134.997 C 140.735 135.997,143.247 138.266,142.676 140.332 C 141.739 143.726,136.161 143.710,131.975 140.301 L 130.810 139.352 129.207 140.803 C 128.326 141.601,127.296 142.575,126.920 142.967 L 126.236 143.680 127.233 144.609 C 130.558 147.710,134.081 149.057,138.870 149.060 L 141.802 149.063 143.588 148.178 C 148.837 145.577,150.713 139.474,147.705 134.787 C 146.139 132.347,142.922 130.245,138.778 128.956 C 135.599 127.967,134.766 127.270,134.741 125.575 C 134.685 121.912,139.506 121.759,144.792 125.255 L 145.313 125.600 146.950 122.892 C 147.851 121.403,148.554 120.156,148.513 120.121 C 145.655 117.684,140.820 116.100,138.542 116.856 M168.360 117.656 C 168.141 118.086,164.530 125.170,160.335 133.399 C 156.140 141.628,152.708 148.401,152.708 148.451 C 152.708 148.501,154.301 148.542,156.249 148.542 L 159.789 148.542 161.250 145.625 L 162.711 142.708 169.286 142.708 L 175.862 142.708 177.239 145.625 L 178.616 148.542 182.112 148.542 L 185.608 148.542 185.252 147.727 C 185.056 147.279,181.708 140.157,177.813 131.899 L 170.729 116.886 169.744 116.880 C 168.813 116.875,168.736 116.918,168.360 117.656 M189.221 127.865 C 189.309 139.900,189.292 139.719,190.619 142.414 C 194.996 151.307,208.348 151.179,212.591 142.204 C 213.857 139.525,213.797 140.300,213.770 126.927 L 213.750 116.875 210.632 116.875 L 207.514 116.875 207.455 127.656 L 207.396 138.438 206.831 139.508 C 204.932 143.109,200.255 143.824,197.382 140.951 C 195.589 139.158,195.625 139.437,195.625 127.359 L 195.625 116.875 192.383 116.875 L 189.140 116.875 189.221 127.865 M251.458 133.839 L 251.458 148.542 261.979 148.542 L 272.500 148.542 272.500 145.417 L 272.500 142.292 265.208 142.292 L 257.917 142.292 257.917 138.854 L 257.917 135.417 263.958 135.417 L 270.000 135.417 270.000 132.188 L 270.000 128.958 263.958 128.958 L 257.917 128.958 257.917 126.042 L 257.917 123.125 265.326 123.125 L 272.736 123.125 272.670 122.552 C 272.605 121.990,272.572 121.977,270.833 121.843 C 269.859 121.768,268.547 121.601,267.917 121.471 C 267.286 121.342,265.384 121.238,263.690 121.240 C 261.995 121.242,260.448 121.154,260.252 121.045 C 259.536 120.646,254.794 119.546,252.656 119.284 L 251.458 119.137 251.458 133.839 M171.239 132.847 C 172.047 134.585,172.708 136.061,172.708 136.128 C 172.708 136.195,171.209 136.250,169.376 136.250 L 166.043 136.250 167.756 132.817 C 168.698 130.930,169.536 129.453,169.619 129.536 C 169.701 129.619,170.430 131.109,171.239 132.847 " stroke="none" fill="#fa3535" fill-rule="evenodd"></path><path id="path3" d="M209.958 76.405 C 210.909 76.444,212.409 76.444,213.291 76.405 C 214.174 76.366,213.396 76.334,211.563 76.334 C 209.729 76.335,209.007 76.366,209.958 76.405 M226.105 76.406 C 227.343 76.442,229.312 76.442,230.480 76.405 C 231.648 76.368,230.635 76.338,228.229 76.338 C 225.823 76.338,224.867 76.369,226.105 76.406 M238.429 76.510 C 238.375 76.654,238.354 83.849,238.384 92.500 L 238.438 108.229 248.906 108.232 L 259.375 108.235 248.958 108.178 L 238.542 108.121 238.542 92.292 L 238.542 76.462 249.219 76.406 L 259.896 76.350 249.212 76.300 C 240.820 76.261,238.507 76.306,238.429 76.510 M270.573 76.406 C 273.924 76.438,279.409 76.438,282.760 76.406 C 286.112 76.374,283.370 76.348,276.667 76.348 C 269.964 76.348,267.221 76.374,270.573 76.406 M153.597 82.441 C 153.913 82.489,154.382 82.488,154.638 82.438 C 154.895 82.389,154.635 82.350,154.063 82.351 C 153.490 82.353,153.280 82.393,153.597 82.441 M244.874 85.729 C 244.874 87.333,244.907 87.962,244.947 87.126 C 244.986 86.291,244.986 84.978,244.946 84.210 C 244.906 83.441,244.874 84.125,244.874 85.729 M137.557 92.292 C 137.557 92.807,137.597 93.018,137.647 92.760 C 137.697 92.503,137.697 92.081,137.647 91.823 C 137.597 91.565,137.557 91.776,137.557 92.292 M129.883 92.760 L 129.271 93.438 129.948 92.826 C 130.320 92.489,130.625 92.184,130.625 92.149 C 130.625 91.988,130.453 92.129,129.883 92.760 M215.930 94.844 L 214.896 95.938 215.990 94.904 C 216.591 94.335,217.083 93.843,217.083 93.810 C 217.083 93.654,216.890 93.827,215.930 94.844 M244.888 98.333 L 244.896 101.771 252.188 101.775 L 259.479 101.779 252.245 101.720 L 245.010 101.661 244.945 98.279 L 244.879 94.896 244.888 98.333 M141.875 103.399 C 141.875 103.434,142.180 103.739,142.552 104.076 L 143.229 104.688 142.617 104.010 C 142.047 103.379,141.875 103.238,141.875 103.399 M128.490 108.280 C 129.435 108.319,130.982 108.319,131.927 108.280 C 132.872 108.241,132.099 108.210,130.208 108.210 C 128.318 108.210,127.544 108.241,128.490 108.280 M275.052 108.280 C 275.940 108.319,277.393 108.319,278.281 108.280 C 279.169 108.241,278.443 108.209,276.667 108.209 C 274.891 108.209,274.164 108.241,275.052 108.280 M168.673 116.831 C 168.617 116.922,168.916 116.964,169.338 116.924 C 170.626 116.802,170.778 116.716,169.752 116.691 C 169.214 116.678,168.729 116.741,168.673 116.831 M190.791 116.822 C 191.742 116.861,193.242 116.860,194.124 116.821 C 195.007 116.782,194.229 116.751,192.396 116.751 C 190.563 116.751,189.840 116.783,190.791 116.822 M207.389 116.922 C 207.333 117.068,207.313 121.641,207.344 127.083 L 207.400 136.979 207.450 126.927 L 207.500 116.875 210.623 116.875 L 213.746 116.875 213.803 126.823 L 213.860 136.771 213.857 126.771 L 213.854 116.771 210.673 116.713 C 208.242 116.669,207.467 116.719,207.389 116.922 M256.719 116.823 C 259.669 116.855,264.497 116.855,267.448 116.823 C 270.398 116.790,267.984 116.763,262.083 116.763 C 256.182 116.763,253.768 116.790,256.719 116.823 M223.542 121.146 C 223.036 121.661,222.668 122.083,222.726 122.083 C 222.783 122.083,223.244 121.661,223.750 121.146 C 224.256 120.630,224.623 120.208,224.566 120.208 C 224.509 120.208,224.048 120.630,223.542 121.146 M228.633 125.885 L 228.021 126.563 228.698 125.951 C 229.329 125.380,229.471 125.208,229.310 125.208 C 229.274 125.208,228.969 125.513,228.633 125.885 M270.084 132.188 C 270.085 134.021,270.116 134.743,270.155 133.792 C 270.194 132.841,270.194 131.341,270.155 130.459 C 270.116 129.576,270.084 130.354,270.084 132.188 M130.208 131.315 C 130.208 131.351,130.513 131.656,130.885 131.992 L 131.563 132.604 130.951 131.927 C 130.380 131.296,130.208 131.154,130.208 131.315 M218.821 132.813 C 218.822 133.729,218.859 134.078,218.903 133.588 C 218.947 133.098,218.946 132.348,218.901 131.922 C 218.857 131.495,218.821 131.896,218.821 132.813 M129.989 139.948 L 129.271 140.729 130.052 140.011 C 130.482 139.616,130.833 139.265,130.833 139.230 C 130.833 139.071,130.657 139.221,129.989 139.948 M261.510 142.239 C 263.544 142.273,266.872 142.273,268.906 142.239 C 270.940 142.205,269.276 142.177,265.208 142.177 C 261.141 142.177,259.477 142.205,261.510 142.239 M138.490 142.855 C 138.747 142.905,139.169 142.905,139.427 142.855 C 139.685 142.806,139.474 142.765,138.958 142.765 C 138.443 142.765,138.232 142.806,138.490 142.855 M126.250 143.815 C 126.250 143.851,126.555 144.156,126.927 144.492 L 127.604 145.104 126.992 144.427 C 126.422 143.796,126.250 143.654,126.250 143.815 M192.708 145.521 C 193.097 145.922,193.462 146.250,193.519 146.250 C 193.577 146.250,193.305 145.922,192.917 145.521 C 192.528 145.120,192.163 144.792,192.106 144.792 C 192.048 144.792,192.320 145.120,192.708 145.521 M210.197 145.573 L 209.479 146.354 210.260 145.636 C 210.988 144.968,211.137 144.792,210.978 144.792 C 210.944 144.792,210.592 145.143,210.197 145.573 M152.682 148.599 C 152.771 148.688,154.430 148.734,156.370 148.703 L 159.896 148.645 156.208 148.541 C 154.179 148.484,152.593 148.510,152.682 148.599 M180.479 148.697 C 181.487 148.735,183.081 148.735,184.021 148.696 C 184.960 148.658,184.135 148.627,182.188 148.627 C 180.240 148.627,179.471 148.659,180.479 148.697 M256.733 148.698 C 259.692 148.730,264.473 148.730,267.358 148.698 C 270.244 148.665,267.823 148.638,261.979 148.638 C 256.135 148.638,253.775 148.665,256.733 148.698 M202.917 186.122 C 202.917 186.166,203.193 186.243,203.531 186.293 C 203.868 186.342,204.097 186.306,204.039 186.212 C 203.936 186.045,202.917 185.963,202.917 186.122 M201.562 186.460 C 201.398 186.724,201.937 186.942,202.436 186.813 C 202.664 186.753,202.567 186.704,202.188 186.688 C 201.703 186.666,201.633 186.615,201.875 186.458 C 202.063 186.337,202.088 186.255,201.939 186.253 C 201.803 186.251,201.633 186.344,201.562 186.460 M201.823 189.939 C 202.081 189.988,202.503 189.988,202.760 189.939 C 203.018 189.889,202.807 189.848,202.292 189.848 C 201.776 189.848,201.565 189.889,201.823 189.939 M195.345 190.677 C 195.398 190.763,195.623 190.833,195.846 190.833 C 196.068 190.833,196.250 190.763,196.250 190.677 C 196.250 190.591,196.025 190.521,195.749 190.521 C 195.474 190.521,195.292 190.591,195.345 190.677 M201.232 190.690 C 201.325 190.784,201.813 190.829,202.315 190.791 L 203.229 190.722 202.145 190.621 C 201.549 190.566,201.138 190.597,201.232 190.690 M194.928 192.552 C 194.981 192.638,195.207 192.708,195.429 192.708 C 195.651 192.708,195.833 192.638,195.833 192.552 C 195.833 192.466,195.608 192.396,195.332 192.396 C 195.057 192.396,194.875 192.466,194.928 192.552 M202.344 192.852 C 202.544 192.904,202.872 192.904,203.073 192.852 C 203.273 192.800,203.109 192.757,202.708 192.757 C 202.307 192.757,202.143 192.800,202.344 192.852 M206.667 196.146 C 206.874 196.396,206.873 196.458,206.657 196.458 C 206.510 196.458,206.445 196.515,206.514 196.583 C 206.583 196.652,206.735 196.649,206.852 196.577 C 207.106 196.420,206.922 195.833,206.619 195.833 C 206.497 195.833,206.517 195.966,206.667 196.146 M204.896 196.250 L 204.063 196.399 204.792 196.414 C 205.193 196.422,205.708 196.348,205.938 196.250 C 206.428 196.039,206.074 196.039,204.896 196.250 M196.205 196.404 C 196.810 196.446,197.748 196.446,198.288 196.403 C 198.829 196.360,198.333 196.326,197.188 196.326 C 196.042 196.327,195.599 196.362,196.205 196.404 M199.276 196.866 C 199.200 196.989,199.575 197.018,200.254 196.941 C 201.700 196.778,201.785 196.667,200.464 196.667 C 199.878 196.667,199.344 196.756,199.276 196.866 M200.000 197.299 C 199.690 197.403,200.238 197.426,201.354 197.355 C 202.385 197.290,203.268 197.202,203.316 197.160 C 203.492 197.005,200.504 197.131,200.000 197.299 M193.542 197.904 C 193.542 198.012,193.650 198.167,193.782 198.249 C 193.925 198.337,193.966 198.307,193.884 198.173 C 193.807 198.049,193.910 197.905,194.112 197.852 C 194.391 197.780,194.367 197.751,194.010 197.733 C 193.753 197.719,193.542 197.797,193.542 197.904 M206.065 198.413 C 206.297 198.669,207.500 198.940,207.500 198.735 C 207.500 198.629,207.383 198.540,207.240 198.539 C 207.096 198.537,206.745 198.477,206.458 198.404 C 206.172 198.331,205.995 198.335,206.065 198.413 M205.530 199.361 C 205.391 199.585,205.799 199.895,205.986 199.708 C 206.055 199.640,205.978 199.577,205.816 199.569 C 205.642 199.560,205.691 199.481,205.938 199.375 C 206.277 199.229,206.289 199.193,206.002 199.181 C 205.808 199.173,205.596 199.254,205.530 199.361 M207.166 200.358 C 207.488 200.440,207.507 200.496,207.270 200.662 C 207.024 200.834,207.025 200.853,207.279 200.784 C 207.796 200.644,207.779 200.207,207.257 200.233 C 206.858 200.252,206.842 200.275,207.166 200.358 M193.173 200.872 C 193.218 201.008,193.390 201.156,193.555 201.201 C 193.808 201.269,193.809 201.250,193.564 201.079 C 193.326 200.913,193.346 200.857,193.668 200.774 C 193.992 200.691,193.975 200.669,193.576 200.649 C 193.286 200.635,193.123 200.725,193.173 200.872 M192.548 204.206 C 192.593 204.342,192.765 204.490,192.930 204.534 C 193.177 204.601,193.180 204.581,192.945 204.416 C 192.705 204.248,192.705 204.200,192.945 204.104 C 193.136 204.028,193.104 203.986,192.847 203.975 C 192.637 203.966,192.502 204.070,192.548 204.206 M189.840 206.042 C 189.840 206.443,189.883 206.607,189.935 206.406 C 189.988 206.206,189.988 205.878,189.935 205.677 C 189.883 205.477,189.840 205.641,189.840 206.042 M204.792 206.354 C 204.523 206.641,204.402 206.875,204.525 206.875 C 204.647 206.875,204.802 206.732,204.869 206.557 C 204.936 206.383,205.204 206.154,205.464 206.050 C 205.762 205.930,205.816 205.855,205.609 205.847 C 205.429 205.839,205.061 206.068,204.792 206.354 M189.632 208.542 C 189.632 208.943,189.675 209.107,189.727 208.906 C 189.779 208.706,189.779 208.378,189.727 208.177 C 189.675 207.977,189.632 208.141,189.632 208.542 M197.448 208.897 C 197.706 208.947,198.128 208.947,198.385 208.897 C 198.643 208.847,198.432 208.807,197.917 208.807 C 197.401 208.807,197.190 208.847,197.448 208.897 M201.617 208.897 C 201.876 208.947,202.251 208.945,202.450 208.893 C 202.650 208.841,202.438 208.800,201.979 208.803 C 201.521 208.805,201.358 208.848,201.617 208.897 M209.863 210.729 C 209.864 211.646,209.900 211.995,209.944 211.505 C 209.988 211.015,209.988 210.265,209.943 209.838 C 209.898 209.412,209.862 209.813,209.863 210.729 M210.882 210.208 C 210.882 210.609,210.925 210.773,210.977 210.573 C 211.029 210.372,211.029 210.044,210.977 209.844 C 210.925 209.643,210.882 209.807,210.882 210.208 M198.080 209.946 C 198.685 209.988,199.623 209.987,200.163 209.945 C 200.704 209.902,200.208 209.867,199.063 209.868 C 197.917 209.868,197.474 209.903,198.080 209.946 M192.083 210.172 C 192.083 210.267,192.365 210.303,192.708 210.253 C 193.052 210.202,193.333 210.125,193.333 210.081 C 193.333 210.036,193.052 210.000,192.708 210.000 C 192.365 210.000,192.083 210.078,192.083 210.172 M198.708 210.458 C 198.903 210.653,199.014 210.653,199.208 210.458 C 199.403 210.264,199.347 210.208,198.958 210.208 C 198.569 210.208,198.514 210.264,198.708 210.458 M201.823 210.355 C 202.081 210.405,202.503 210.405,202.760 210.355 C 203.018 210.306,202.807 210.265,202.292 210.265 C 201.776 210.265,201.565 210.306,201.823 210.355 M193.802 210.769 C 194.003 210.821,194.331 210.821,194.531 210.769 C 194.732 210.716,194.568 210.673,194.167 210.673 C 193.766 210.673,193.602 210.716,193.802 210.769 M199.635 210.769 C 199.836 210.821,200.164 210.821,200.365 210.769 C 200.565 210.716,200.401 210.673,200.000 210.673 C 199.599 210.673,199.435 210.716,199.635 210.769 M203.177 210.769 C 203.378 210.821,203.706 210.821,203.906 210.769 C 204.107 210.716,203.943 210.673,203.542 210.673 C 203.141 210.673,202.977 210.716,203.177 210.769 M192.170 211.014 C 192.274 211.182,193.333 211.090,193.333 210.913 C 193.333 210.869,193.047 210.833,192.696 210.833 C 192.346 210.833,192.109 210.915,192.170 211.014 M190.682 211.875 C 190.682 212.391,190.722 212.602,190.772 212.344 C 190.822 212.086,190.822 211.664,190.772 211.406 C 190.722 211.148,190.682 211.359,190.682 211.875 M198.750 211.212 C 198.922 211.298,200.000 211.312,201.146 211.242 L 203.229 211.116 200.833 211.085 C 199.516 211.068,198.578 211.125,198.750 211.212 M194.167 211.458 L 193.438 211.612 194.102 211.639 C 194.468 211.654,194.825 211.573,194.896 211.458 C 194.967 211.344,194.996 211.262,194.960 211.277 C 194.925 211.293,194.568 211.374,194.167 211.458 M198.688 212.313 C 198.853 212.478,199.027 212.480,199.303 212.320 C 199.640 212.124,199.612 212.095,199.073 212.090 C 198.625 212.085,198.521 212.146,198.688 212.313 M202.344 212.227 C 202.544 212.279,202.872 212.279,203.073 212.227 C 203.273 212.175,203.109 212.132,202.708 212.132 C 202.307 212.132,202.143 212.175,202.344 212.227 M199.296 213.293 C 199.239 213.385,200.054 213.427,201.107 213.385 C 203.823 213.279,204.002 213.177,201.523 213.149 C 200.355 213.136,199.353 213.200,199.296 213.293 M200.784 213.689 C 201.043 213.739,201.418 213.737,201.617 213.685 C 201.816 213.633,201.604 213.592,201.146 213.594 C 200.688 213.597,200.525 213.639,200.784 213.689 M203.909 213.689 C 204.168 213.739,204.543 213.737,204.742 213.685 C 204.941 213.633,204.729 213.592,204.271 213.594 C 203.813 213.597,203.650 213.639,203.909 213.689 M201.722 214.733 C 202.038 214.781,202.507 214.779,202.763 214.730 C 203.020 214.681,202.760 214.641,202.188 214.643 C 201.615 214.644,201.405 214.685,201.722 214.733 M194.668 215.176 C 194.765 215.334,194.616 215.426,194.231 215.445 C 193.704 215.471,193.695 215.483,194.139 215.567 C 194.715 215.676,195.172 215.339,194.778 215.095 C 194.611 214.992,194.572 215.021,194.668 215.176 M200.785 215.151 C 201.159 215.197,201.722 215.196,202.035 215.149 C 202.348 215.101,202.042 215.063,201.354 215.065 C 200.667 215.066,200.411 215.105,200.785 215.151 M211.127 218.750 C 211.127 220.755,211.159 221.576,211.197 220.573 C 211.235 219.570,211.235 217.930,211.197 216.927 C 211.159 215.924,211.127 216.745,211.127 218.750 M201.517 215.570 C 202.064 215.613,202.908 215.613,203.392 215.569 C 203.875 215.525,203.427 215.490,202.396 215.491 C 201.365 215.491,200.969 215.527,201.517 215.570 M210.075 217.917 C 210.075 219.005,210.110 219.451,210.153 218.906 C 210.196 218.362,210.196 217.471,210.153 216.927 C 210.110 216.383,210.075 216.828,210.075 217.917 M202.031 216.609 C 202.404 216.655,203.013 216.655,203.385 216.609 C 203.758 216.563,203.453 216.525,202.708 216.525 C 201.964 216.525,201.659 216.563,202.031 216.609 M190.469 217.396 C 190.472 217.854,190.514 218.017,190.564 217.758 C 190.614 217.499,190.612 217.124,190.560 216.925 C 190.508 216.725,190.467 216.938,190.469 217.396 M202.031 217.651 C 202.404 217.697,203.013 217.697,203.385 217.651 C 203.758 217.604,203.453 217.567,202.708 217.567 C 201.964 217.567,201.659 217.604,202.031 217.651 M200.888 218.274 C 201.205 218.322,201.674 218.321,201.930 218.272 C 202.186 218.222,201.927 218.183,201.354 218.185 C 200.781 218.186,200.572 218.227,200.888 218.274 M201.510 218.693 C 201.940 218.738,202.643 218.738,203.073 218.693 C 203.503 218.648,203.151 218.612,202.292 218.612 C 201.432 218.612,201.081 218.648,201.510 218.693 M192.344 219.102 C 192.544 219.154,192.872 219.154,193.073 219.102 C 193.273 219.050,193.109 219.007,192.708 219.007 C 192.307 219.007,192.143 219.050,192.344 219.102 M200.777 219.317 C 201.146 219.363,201.803 219.364,202.235 219.319 C 202.667 219.274,202.365 219.236,201.563 219.235 C 200.760 219.234,200.407 219.271,200.777 219.317 M193.802 219.727 C 194.003 219.779,194.331 219.779,194.531 219.727 C 194.732 219.675,194.568 219.632,194.167 219.632 C 193.766 219.632,193.602 219.675,193.802 219.727 M201.510 219.736 C 202.055 219.779,202.945 219.779,203.490 219.736 C 204.034 219.694,203.589 219.658,202.500 219.658 C 201.411 219.658,200.966 219.694,201.510 219.736 M192.170 220.389 C 192.274 220.557,193.333 220.465,193.333 220.288 C 193.333 220.244,193.047 220.208,192.696 220.208 C 192.346 220.208,192.109 220.290,192.170 220.389 M189.021 221.458 C 189.021 222.089,189.060 222.346,189.108 222.031 C 189.155 221.716,189.155 221.201,189.108 220.885 C 189.060 220.570,189.021 220.828,189.021 221.458 M201.305 220.566 C 201.622 220.614,202.090 220.613,202.347 220.563 C 202.603 220.514,202.344 220.475,201.771 220.476 C 201.198 220.478,200.988 220.518,201.305 220.566 M193.909 220.981 C 194.168 221.031,194.543 221.029,194.742 220.976 C 194.941 220.924,194.729 220.884,194.271 220.886 C 193.813 220.888,193.650 220.931,193.909 220.981 M201.828 220.986 C 202.318 221.030,203.068 221.030,203.495 220.985 C 203.922 220.940,203.521 220.904,202.604 220.905 C 201.688 220.906,201.338 220.942,201.828 220.986 M199.839 221.633 C 199.694 221.725,200.397 221.765,201.402 221.722 C 203.951 221.611,204.197 221.511,201.979 221.486 C 200.948 221.474,199.985 221.540,199.839 221.633 M200.885 222.019 C 201.086 222.071,201.414 222.071,201.615 222.019 C 201.815 221.966,201.651 221.923,201.250 221.923 C 200.849 221.923,200.685 221.966,200.885 222.019 M204.010 222.019 C 204.211 222.071,204.539 222.071,204.740 222.019 C 204.940 221.966,204.776 221.923,204.375 221.923 C 203.974 221.923,203.810 221.966,204.010 222.019 M190.268 223.021 C 190.269 223.594,190.310 223.803,190.358 223.487 C 190.406 223.170,190.404 222.701,190.355 222.445 C 190.306 222.189,190.266 222.448,190.268 223.021 M199.709 222.684 C 199.491 222.770,200.194 222.805,201.271 222.762 C 203.923 222.658,204.263 222.550,201.979 222.539 C 200.948 222.534,199.926 222.599,199.709 222.684 M194.010 223.060 C 194.211 223.113,194.539 223.113,194.740 223.060 C 194.940 223.008,194.776 222.965,194.375 222.965 C 193.974 222.965,193.810 223.008,194.010 223.060 M200.885 223.060 C 201.086 223.113,201.414 223.113,201.615 223.060 C 201.815 223.008,201.651 222.965,201.250 222.965 C 200.849 222.965,200.685 223.008,200.885 223.060 M204.219 223.060 C 204.419 223.113,204.747 223.113,204.948 223.060 C 205.148 223.008,204.984 222.965,204.583 222.965 C 204.182 222.965,204.018 223.008,204.219 223.060 M202.558 224.112 C 203.106 224.155,203.950 224.154,204.433 224.111 C 204.917 224.067,204.469 224.032,203.438 224.032 C 202.406 224.033,202.011 224.069,202.558 224.112 M192.292 224.570 C 192.292 224.678,192.640 224.712,193.073 224.645 C 194.155 224.478,194.188 224.375,193.160 224.375 C 192.682 224.375,192.292 224.463,192.292 224.570 " stroke="none" fill="#7b7272" fill-rule="evenodd"></path><path id="path4" d="M111.346 76.510 C 111.291 76.654,111.271 83.849,111.302 92.500 L 111.357 108.229 111.408 92.347 L 111.458 76.464 117.760 76.406 L 124.063 76.348 117.754 76.299 C 112.862 76.261,111.423 76.308,111.346 76.510 M214.673 81.458 C 214.673 84.266,214.703 85.414,214.739 84.010 C 214.775 82.607,214.775 80.310,214.739 78.906 C 214.703 77.503,214.673 78.651,214.673 81.458 M264.667 79.583 C 264.667 81.359,264.699 82.086,264.738 81.198 C 264.777 80.310,264.777 78.857,264.738 77.969 C 264.699 77.081,264.667 77.807,264.667 79.583 M288.626 79.583 C 288.626 81.359,288.657 82.086,288.697 81.198 C 288.736 80.310,288.736 78.857,288.697 77.969 C 288.657 77.081,288.626 77.807,288.626 79.583 M142.383 80.677 L 141.771 81.354 142.448 80.742 C 142.820 80.406,143.125 80.101,143.125 80.065 C 143.125 79.904,142.953 80.046,142.383 80.677 M132.757 85.833 C 132.757 86.234,132.800 86.398,132.852 86.198 C 132.904 85.997,132.904 85.669,132.852 85.469 C 132.800 85.268,132.757 85.432,132.757 85.833 M119.228 89.113 C 120.122 89.153,121.528 89.152,122.353 89.113 C 123.179 89.073,122.448 89.041,120.729 89.042 C 119.010 89.042,118.335 89.074,119.228 89.113 M170.485 92.188 C 170.486 92.990,170.524 93.292,170.569 92.860 C 170.614 92.428,170.613 91.771,170.567 91.402 C 170.521 91.032,170.484 91.385,170.485 92.188 M182.771 92.292 C 182.771 92.922,182.810 93.180,182.858 92.865 C 182.905 92.549,182.905 92.034,182.858 91.719 C 182.810 91.404,182.771 91.661,182.771 92.292 M247.969 94.947 C 249.659 94.982,252.424 94.982,254.115 94.947 C 255.805 94.912,254.422 94.884,251.042 94.884 C 247.661 94.884,246.279 94.912,247.969 94.947 M214.675 102.083 C 214.675 105.464,214.704 106.846,214.739 105.156 C 214.774 103.466,214.774 100.701,214.739 99.010 C 214.704 97.320,214.675 98.703,214.675 102.083 M153.802 102.227 C 154.003 102.279,154.331 102.279,154.531 102.227 C 154.732 102.175,154.568 102.132,154.167 102.132 C 153.766 102.132,153.602 102.175,153.802 102.227 M165.614 103.906 L 164.896 104.688 165.677 103.970 C 166.404 103.301,166.554 103.125,166.395 103.125 C 166.360 103.125,166.009 103.477,165.614 103.906 M137.867 116.397 C 138.126 116.447,138.501 116.445,138.700 116.393 C 138.900 116.341,138.688 116.300,138.229 116.303 C 137.771 116.305,137.608 116.348,137.867 116.397 M201.771 187.500 C 201.694 187.624,201.922 187.702,202.331 187.694 C 202.906 187.681,202.951 187.649,202.604 187.500 C 202.039 187.257,201.921 187.257,201.771 187.500 M201.458 191.667 C 201.458 191.781,201.716 191.874,202.031 191.872 C 202.478 191.869,202.535 191.824,202.292 191.667 C 201.884 191.403,201.458 191.403,201.458 191.667 M194.792 193.333 C 194.964 193.444,195.245 193.535,195.417 193.535 C 195.694 193.535,195.694 193.513,195.417 193.333 C 195.245 193.222,194.964 193.131,194.792 193.131 C 194.514 193.131,194.514 193.154,194.792 193.333 M201.042 193.750 C 200.816 193.896,200.988 193.949,201.667 193.941 C 202.380 193.932,202.505 193.886,202.188 193.750 C 201.630 193.510,201.413 193.510,201.042 193.750 M200.938 194.792 C 200.631 194.923,200.797 194.971,201.563 194.971 C 202.328 194.971,202.494 194.923,202.188 194.792 C 201.958 194.693,201.677 194.613,201.563 194.613 C 201.448 194.613,201.167 194.693,200.938 194.792 M200.162 195.569 C 200.652 195.613,201.402 195.613,201.828 195.568 C 202.255 195.523,201.854 195.487,200.938 195.488 C 200.021 195.489,199.672 195.525,200.162 195.569 M201.302 196.402 C 201.732 196.447,202.435 196.447,202.865 196.402 C 203.294 196.357,202.943 196.320,202.083 196.320 C 201.224 196.320,200.872 196.357,201.302 196.402 M204.184 196.533 C 204.232 196.574,204.552 196.671,204.896 196.748 C 205.352 196.850,205.437 196.831,205.208 196.676 C 204.927 196.486,203.975 196.353,204.184 196.533 M202.950 197.776 C 203.096 197.932,203.437 198.006,203.739 197.946 L 204.271 197.840 203.750 197.691 C 202.865 197.437,202.654 197.460,202.950 197.776 M204.740 198.288 C 204.539 198.330,204.375 198.439,204.375 198.531 C 204.375 198.624,204.539 198.828,204.740 198.985 C 205.070 199.244,205.077 199.237,204.818 198.906 C 204.505 198.507,204.609 198.455,205.573 198.534 C 205.831 198.554,206.042 198.529,206.042 198.477 C 206.042 198.332,205.151 198.203,204.740 198.288 M206.186 200.551 C 206.323 200.606,206.409 200.763,206.377 200.899 C 206.345 201.035,206.358 201.076,206.406 200.990 C 206.454 200.904,206.649 200.832,206.840 200.830 C 207.141 200.827,207.145 200.800,206.875 200.625 C 206.703 200.514,206.422 200.429,206.250 200.436 C 206.055 200.445,206.031 200.488,206.186 200.551 M206.181 204.306 C 205.845 204.641,206.093 204.937,206.719 204.947 C 207.252 204.955,207.307 204.923,206.979 204.797 C 206.750 204.708,206.476 204.686,206.371 204.748 C 206.265 204.809,206.239 204.704,206.312 204.513 C 206.453 204.146,206.409 204.077,206.181 204.306 M209.423 206.042 C 209.423 206.443,209.466 206.607,209.519 206.406 C 209.571 206.206,209.571 205.878,209.519 205.677 C 209.466 205.477,209.423 205.641,209.423 206.042 M197.070 205.954 C 196.719 206.376,197.200 206.488,197.577 206.071 C 197.873 205.745,197.876 205.694,197.602 205.694 C 197.428 205.694,197.188 205.811,197.070 205.954 M210.465 206.250 C 210.465 206.651,210.508 206.815,210.560 206.615 C 210.613 206.414,210.613 206.086,210.560 205.885 C 210.508 205.685,210.465 205.849,210.465 206.250 M205.104 206.653 C 204.802 206.773,204.946 206.821,205.625 206.826 C 206.312 206.831,206.451 206.787,206.146 206.660 C 205.635 206.449,205.619 206.448,205.104 206.653 M189.840 207.500 C 189.840 207.901,189.883 208.065,189.935 207.865 C 189.988 207.664,189.988 207.336,189.935 207.135 C 189.883 206.935,189.840 207.099,189.840 207.500 M190.833 207.384 C 190.833 207.663,190.910 207.940,191.004 207.998 C 191.098 208.056,191.134 207.827,191.084 207.489 C 190.975 206.744,190.833 206.685,190.833 207.384 M210.682 208.958 C 210.682 209.474,210.722 209.685,210.772 209.427 C 210.822 209.169,210.822 208.747,210.772 208.490 C 210.722 208.232,210.682 208.443,210.682 208.958 M189.632 210.000 C 189.632 210.401,189.675 210.565,189.727 210.365 C 189.779 210.164,189.779 209.836,189.727 209.635 C 189.675 209.435,189.632 209.599,189.632 210.000 M210.908 213.542 C 210.908 214.630,210.944 215.076,210.986 214.531 C 211.029 213.987,211.029 213.096,210.986 212.552 C 210.944 212.008,210.908 212.453,210.908 213.542 M210.075 213.958 C 210.075 215.047,210.110 215.492,210.153 214.948 C 210.196 214.404,210.196 213.513,210.153 212.969 C 210.110 212.424,210.075 212.870,210.075 213.958 M190.487 213.958 C 190.487 214.818,190.523 215.169,190.568 214.740 C 190.613 214.310,190.613 213.607,190.568 213.177 C 190.523 212.747,190.487 213.099,190.487 213.958 M201.510 212.644 C 201.711 212.696,202.039 212.696,202.240 212.644 C 202.440 212.591,202.276 212.548,201.875 212.548 C 201.474 212.548,201.310 212.591,201.510 212.644 M193.646 213.331 C 193.308 213.474,193.354 213.501,193.886 213.473 C 194.247 213.453,194.499 213.367,194.447 213.281 C 194.330 213.092,194.189 213.101,193.646 213.331 M207.917 213.750 C 207.917 214.011,208.138 214.011,208.542 213.750 C 208.794 213.587,208.764 213.547,208.385 213.545 C 208.128 213.543,207.917 213.635,207.917 213.750 M189.223 214.792 C 189.223 215.307,189.264 215.518,189.314 215.260 C 189.363 215.003,189.363 214.581,189.314 214.323 C 189.264 214.065,189.223 214.276,189.223 214.792 M193.958 214.375 L 193.438 214.542 194.010 214.563 C 194.326 214.574,194.583 214.490,194.583 214.375 C 194.583 214.260,194.560 214.176,194.531 214.187 C 194.503 214.199,194.245 214.283,193.958 214.375 M200.060 214.396 C 200.309 214.541,200.791 214.547,201.518 214.414 L 202.604 214.216 201.146 214.198 C 200.043 214.184,199.778 214.232,200.060 214.396 M199.583 215.208 C 199.870 215.300,200.339 215.373,200.625 215.371 C 201.093 215.368,201.082 215.351,200.521 215.208 C 199.640 214.984,198.883 214.984,199.583 215.208 M193.958 216.250 L 193.438 216.417 194.010 216.438 C 194.326 216.449,194.583 216.365,194.583 216.250 C 194.583 216.135,194.560 216.051,194.531 216.062 C 194.503 216.074,194.245 216.158,193.958 216.250 M200.434 216.247 C 200.629 216.361,201.312 216.370,202.101 216.268 L 203.438 216.095 201.771 216.074 C 200.657 216.061,200.214 216.118,200.434 216.247 M189.032 218.438 C 189.032 219.469,189.067 219.917,189.111 219.433 C 189.154 218.950,189.155 218.106,189.112 217.558 C 189.069 217.011,189.033 217.406,189.032 218.438 M193.854 217.289 C 193.516 217.433,193.562 217.459,194.094 217.431 C 194.456 217.412,194.708 217.326,194.655 217.240 C 194.538 217.050,194.397 217.059,193.854 217.289 M200.434 217.289 C 200.629 217.403,201.312 217.411,202.101 217.309 L 203.438 217.136 201.771 217.116 C 200.657 217.103,200.214 217.160,200.434 217.289 M190.277 219.479 C 190.278 220.281,190.315 220.584,190.360 220.152 C 190.405 219.719,190.405 219.063,190.359 218.693 C 190.313 218.323,190.276 218.677,190.277 219.479 M199.792 218.326 C 200.308 218.499,201.816 218.612,201.649 218.466 C 201.602 218.424,201.047 218.336,200.417 218.271 C 199.677 218.195,199.455 218.214,199.792 218.326 M210.289 222.396 C 210.290 223.885,210.323 224.467,210.363 223.689 C 210.403 222.911,210.403 221.692,210.362 220.981 C 210.322 220.270,210.289 220.906,210.289 222.396 M199.896 220.625 C 200.240 220.712,200.755 220.786,201.042 220.788 L 201.563 220.792 201.042 220.625 C 200.755 220.533,200.240 220.460,199.896 220.462 L 199.271 220.466 199.896 220.625 M193.125 221.676 C 192.897 221.831,192.981 221.850,193.438 221.748 C 194.204 221.577,194.370 221.457,193.837 221.462 C 193.617 221.463,193.297 221.560,193.125 221.676 M210.903 223.542 C 210.903 224.401,210.940 224.753,210.985 224.323 C 211.030 223.893,211.030 223.190,210.985 222.760 C 210.940 222.331,210.903 222.682,210.903 223.542 M189.235 223.646 C 189.236 224.448,189.274 224.751,189.319 224.318 C 189.364 223.886,189.363 223.230,189.317 222.860 C 189.271 222.490,189.234 222.844,189.235 223.646 M192.708 223.750 C 192.708 224.011,192.929 224.011,193.333 223.750 C 193.586 223.587,193.556 223.547,193.177 223.545 C 192.919 223.543,192.708 223.635,192.708 223.750 M200.189 223.742 C 200.695 223.824,201.913 223.826,202.898 223.747 C 204.618 223.609,204.582 223.603,201.979 223.598 C 200.195 223.595,199.584 223.645,200.189 223.742 M200.489 224.802 C 201.045 224.895,201.888 224.894,202.364 224.800 C 203.074 224.660,202.893 224.629,201.354 224.631 C 199.699 224.632,199.597 224.652,200.489 224.802 " stroke="none" fill="#949494" fill-rule="evenodd"></path><path id="path5" d="M259.667 79.583 C 259.667 81.359,259.699 82.086,259.738 81.198 C 259.777 80.310,259.777 78.857,259.738 77.969 C 259.699 77.081,259.667 77.807,259.667 79.583 M279.890 95.521 C 279.890 102.510,279.916 105.340,279.948 101.808 C 279.980 98.276,279.980 92.557,279.948 89.100 C 279.916 85.642,279.890 88.531,279.890 95.521 M199.534 196.397 C 199.793 196.447,200.168 196.445,200.367 196.393 C 200.566 196.341,200.354 196.300,199.896 196.303 C 199.438 196.305,199.275 196.348,199.534 196.397 M190.673 210.417 C 190.673 210.818,190.716 210.982,190.769 210.781 C 190.821 210.581,190.821 210.253,190.769 210.052 C 190.716 209.852,190.673 210.016,190.673 210.417 M201.202 210.776 C 201.576 210.822,202.139 210.821,202.452 210.774 C 202.765 210.726,202.458 210.688,201.771 210.690 C 201.083 210.691,200.827 210.730,201.202 210.776 M201.406 211.609 C 201.779 211.655,202.388 211.655,202.760 211.609 C 203.133 211.563,202.828 211.525,202.083 211.525 C 201.339 211.525,201.034 211.563,201.406 211.609 M202.240 213.689 C 202.497 213.738,202.919 213.738,203.177 213.689 C 203.435 213.639,203.224 213.598,202.708 213.598 C 202.193 213.598,201.982 213.639,202.240 213.689 M190.465 216.042 C 190.465 216.443,190.508 216.607,190.560 216.406 C 190.613 216.206,190.613 215.878,190.560 215.677 C 190.508 215.477,190.465 215.641,190.465 216.042 M190.257 221.458 C 190.257 221.859,190.300 222.023,190.352 221.823 C 190.404 221.622,190.404 221.294,190.352 221.094 C 190.300 220.893,190.257 221.057,190.257 221.458 M202.347 222.024 C 202.663 222.072,203.132 222.071,203.388 222.022 C 203.645 221.972,203.385 221.933,202.813 221.935 C 202.240 221.936,202.030 221.977,202.347 222.024 M202.344 223.066 C 202.659 223.114,203.174 223.114,203.490 223.066 C 203.805 223.018,203.547 222.979,202.917 222.979 C 202.286 222.979,202.029 223.018,202.344 223.066 " stroke="none" fill="#8c8c8c" fill-rule="evenodd"></path></g></svg>