<svg id="svg" version="1.1" xmlns="http://www.w3.org/2000/svg" xmlns:xlink="http://www.w3.org/1999/xlink" width="400" height="225" viewBox="0, 0, 400,225"><g id="svgg"><path id="path0" d="M151.354 76.042 C 140.526 77.996,134.611 89.661,139.470 99.479 C 147.148 114.994,170.417 109.467,170.417 92.128 C 170.417 82.127,161.117 74.280,151.354 76.042 M190.350 76.055 C 178.881 77.374,172.385 89.696,177.727 100.000 C 182.158 108.548,193.220 111.328,201.345 105.934 C 201.980 105.513,202.500 105.079,202.500 104.970 C 202.500 104.718,198.707 100.390,198.553 100.466 C 198.489 100.498,197.922 100.795,197.292 101.126 C 190.010 104.959,181.570 98.884,182.897 90.765 C 183.918 84.514,190.655 80.761,196.458 83.209 C 197.203 83.524,197.938 83.797,198.091 83.817 C 198.687 83.896,202.284 79.516,201.940 79.129 C 200.290 77.275,194.074 75.627,190.350 76.055 M111.458 92.281 L 111.458 108.125 114.583 108.125 L 117.708 108.125 117.708 101.762 L 117.708 95.399 119.317 95.460 L 120.925 95.521 123.848 101.816 L 126.771 108.110 130.136 108.118 L 133.502 108.125 130.397 101.436 C 126.845 93.784,127.098 94.546,127.969 94.123 C 134.557 90.918,134.162 80.721,127.319 77.337 L 125.752 76.563 118.605 76.500 L 111.458 76.438 111.458 92.281 M208.333 92.292 L 208.333 108.125 211.458 108.125 L 214.583 108.125 214.583 102.129 L 214.583 96.133 215.846 94.889 C 216.956 93.796,217.138 93.687,217.356 93.986 C 217.493 94.174,219.337 97.431,221.454 101.226 L 225.304 108.125 229.006 108.125 C 231.042 108.125,232.708 108.087,232.708 108.040 C 232.708 107.992,230.286 103.844,227.324 98.821 C 224.363 93.797,221.829 89.478,221.693 89.221 C 221.464 88.788,221.820 88.339,226.722 82.867 C 229.623 79.629,232.069 76.862,232.157 76.719 C 232.282 76.514,231.428 76.458,228.142 76.458 L 223.968 76.458 219.432 81.458 C 216.937 84.208,214.826 86.458,214.740 86.458 C 214.654 86.458,214.583 84.208,214.583 81.458 L 214.583 76.458 211.458 76.458 L 208.333 76.458 208.333 92.292 M238.542 92.292 L 238.542 108.125 249.063 108.125 L 259.583 108.125 259.583 105.000 L 259.583 101.875 252.182 101.875 L 244.782 101.875 244.839 98.385 L 244.896 94.896 250.990 94.841 L 257.083 94.785 257.083 91.664 L 257.083 88.542 250.938 88.542 L 244.792 88.542 244.792 85.625 L 244.792 82.708 252.188 82.708 L 259.583 82.708 259.583 79.583 L 259.583 76.458 249.063 76.458 L 238.542 76.458 238.542 92.292 M264.792 79.583 L 264.792 82.708 269.167 82.708 L 273.542 82.708 273.542 95.417 L 273.542 108.125 276.667 108.125 L 279.792 108.125 279.792 95.417 L 279.792 82.708 284.167 82.708 L 288.542 82.708 288.542 79.583 L 288.542 76.458 276.667 76.458 L 264.792 76.458 264.792 79.583 M156.555 82.611 C 163.999 84.550,166.546 93.825,161.123 99.248 C 155.661 104.710,146.434 102.160,144.477 94.647 C 142.610 87.479,149.372 80.740,156.555 82.611 M125.000 83.177 C 126.428 84.152,126.892 86.177,125.990 87.502 C 124.999 88.957,124.701 89.055,121.027 89.133 L 117.708 89.203 117.708 85.956 L 117.708 82.708 121.011 82.708 C 124.093 82.708,124.359 82.740,125.000 83.177 M233.475 116.472 C 221.020 117.904,214.408 133.318,222.244 142.657 L 222.813 143.335 224.181 142.631 C 225.655 141.872,227.225 141.365,228.802 141.137 C 229.994 140.965,229.987 141.009,228.973 140.093 C 225.015 136.517,224.880 129.661,228.692 125.862 C 231.998 122.568,236.133 122.049,241.176 124.296 C 241.668 124.516,245.415 119.939,245.065 119.546 C 243.416 117.692,237.199 116.044,233.475 116.472 M135.440 116.774 C 129.480 118.449,126.709 124.312,129.348 129.662 C 130.449 131.892,131.560 132.770,133.492 132.936 C 134.634 133.034,135.527 133.266,136.541 133.725 C 137.703 134.252,138.255 134.377,139.456 134.384 C 140.276 134.389,141.309 134.538,141.771 134.717 C 142.884 135.149,147.708 135.335,147.708 134.946 C 147.708 133.338,142.779 130.203,137.920 128.720 C 135.155 127.877,134.033 126.265,134.930 124.429 C 136.066 122.104,139.800 122.140,143.644 124.512 C 144.508 125.045,145.269 125.425,145.337 125.358 C 145.404 125.290,146.149 124.127,146.992 122.774 L 148.525 120.313 147.981 119.863 C 144.743 117.186,139.003 115.773,135.440 116.774 M163.575 127.122 L 158.362 137.390 159.858 137.870 C 160.681 138.134,161.729 138.520,162.188 138.728 C 164.444 139.754,166.825 139.976,173.542 139.786 C 175.766 139.722,178.107 140.008,178.646 140.408 C 179.001 140.671,182.088 141.732,182.193 141.627 C 182.247 141.572,179.684 136.004,176.495 129.253 L 170.698 116.979 169.743 116.916 L 168.788 116.854 163.575 127.122 M189.419 128.281 C 189.476 139.180,189.498 139.734,189.901 140.729 L 190.324 141.771 191.568 141.816 C 193.476 141.886,196.146 142.280,198.333 142.815 C 202.391 143.808,204.572 143.959,207.154 143.425 C 208.019 143.246,209.503 143.035,210.451 142.956 L 212.175 142.813 212.634 141.993 C 213.693 140.103,213.750 139.379,213.750 127.718 L 213.750 116.875 210.625 116.875 L 207.500 116.875 207.500 127.359 C 207.500 139.154,207.517 139.004,205.982 140.748 C 203.233 143.870,198.205 143.219,196.180 139.479 C 195.736 138.659,195.728 138.471,195.670 127.760 L 195.611 116.875 192.485 116.875 L 189.358 116.875 189.419 128.281 M251.458 127.940 L 251.458 139.005 252.240 138.850 C 252.669 138.765,254.052 138.591,255.313 138.463 L 257.604 138.229 257.708 136.771 L 257.813 135.313 263.369 135.208 C 270.435 135.076,270.000 135.315,270.000 131.564 L 270.000 128.958 263.854 128.958 L 257.708 128.958 257.708 126.042 L 257.708 123.125 265.208 123.125 L 272.708 123.125 272.708 120.000 L 272.708 116.875 262.083 116.875 L 251.458 116.875 251.458 127.940 M171.278 132.806 C 172.153 134.688,172.817 136.280,172.754 136.343 C 172.612 136.486,166.042 136.498,166.042 136.356 C 166.042 136.148,169.477 129.375,169.580 129.379 C 169.639 129.382,170.403 130.924,171.278 132.806 M199.664 199.403 C 199.345 199.903,198.600 201.391,198.009 202.708 C 197.417 204.026,196.593 205.780,196.177 206.606 C 195.761 207.432,195.222 208.838,194.981 209.731 C 194.739 210.624,194.219 212.289,193.824 213.431 C 192.826 216.323,191.042 223.632,191.042 224.829 C 191.042 225.497,192.190 224.848,192.309 224.112 C 192.463 223.154,192.566 223.039,193.055 223.277 C 193.787 223.634,205.389 223.452,206.553 223.066 C 207.749 222.669,207.712 222.649,208.142 223.921 C 208.384 224.638,208.593 224.914,208.931 224.963 C 209.484 225.045,209.538 225.338,208.009 220.000 C 207.401 217.880,206.530 214.739,206.074 213.019 C 205.068 209.235,204.664 208.137,202.353 202.917 C 200.197 198.045,200.379 198.282,199.664 199.403 M201.421 201.927 C 203.295 206.221,204.732 210.401,205.951 215.104 C 206.337 216.594,206.899 218.635,207.201 219.640 C 207.875 221.885,207.852 221.949,206.217 222.311 C 204.447 222.704,195.860 222.667,194.063 222.260 L 192.813 221.976 192.870 221.144 C 192.902 220.687,193.154 219.516,193.430 218.542 C 193.706 217.568,194.305 215.363,194.759 213.642 C 195.317 211.534,196.037 209.506,196.969 207.427 C 197.729 205.729,198.632 203.633,198.976 202.769 C 200.313 199.403,200.318 199.401,201.421 201.927 M202.500 212.292 C 202.222 212.471,202.222 212.494,202.500 212.494 C 202.672 212.494,202.953 212.403,203.125 212.292 C 203.403 212.112,203.403 212.090,203.125 212.090 C 202.953 212.090,202.672 212.181,202.500 212.292 M202.552 213.685 C 202.753 213.738,203.081 213.738,203.281 213.685 C 203.482 213.633,203.318 213.590,202.917 213.590 C 202.516 213.590,202.352 213.633,202.552 213.685 M202.604 214.583 L 201.979 214.742 202.604 214.746 C 202.948 214.748,203.464 214.675,203.750 214.583 L 204.271 214.417 203.750 214.420 C 203.464 214.423,202.948 214.496,202.604 214.583 M202.500 215.625 C 201.769 215.859,202.533 215.867,203.646 215.637 L 204.479 215.465 203.750 215.461 C 203.349 215.460,202.786 215.533,202.500 215.625 M203.125 216.667 L 202.188 216.812 203.021 216.823 C 203.479 216.829,204.089 216.758,204.375 216.667 C 205.033 216.456,204.480 216.456,203.125 216.667 M203.229 217.500 L 202.396 217.649 203.125 217.658 C 203.526 217.663,204.089 217.592,204.375 217.500 C 205.044 217.286,204.426 217.286,203.229 217.500 M202.500 218.750 C 201.459 218.969,202.527 218.978,203.750 218.761 C 204.596 218.610,204.616 218.594,203.958 218.595 C 203.557 218.596,202.901 218.666,202.500 218.750 M203.333 219.583 L 202.396 219.729 203.229 219.736 C 203.688 219.739,204.344 219.671,204.688 219.583 C 205.521 219.371,204.697 219.371,203.333 219.583 M203.021 220.739 L 201.563 221.012 202.881 220.900 C 203.606 220.839,204.449 220.713,204.756 220.621 C 205.616 220.361,204.712 220.423,203.021 220.739 M203.021 221.782 L 201.563 222.057 202.960 221.950 C 204.449 221.837,206.035 221.487,205.000 221.501 C 204.714 221.505,203.823 221.631,203.021 221.782 M203.021 223.958 L 201.563 224.093 202.813 224.118 C 203.500 224.132,204.438 224.065,204.896 223.970 C 205.921 223.758,205.234 223.754,203.021 223.958 M194.375 224.375 C 194.547 224.486,194.828 224.577,195.000 224.577 C 195.278 224.577,195.278 224.555,195.000 224.375 C 194.828 224.264,194.547 224.173,194.375 224.173 C 194.097 224.173,194.097 224.195,194.375 224.375 M203.542 224.792 L 202.604 224.937 203.438 224.957 C 203.896 224.967,204.646 224.898,205.104 224.804 L 205.938 224.631 205.208 224.639 C 204.807 224.643,204.057 224.712,203.542 224.792 M199.635 224.943 C 200.065 224.988,200.768 224.988,201.198 224.943 C 201.628 224.898,201.276 224.862,200.417 224.862 C 199.557 224.862,199.206 224.898,199.635 224.943 " stroke="none" fill="#f9f9f9" fill-rule="evenodd"></path><path id="path1" d="M0.000 112.500 L 0.000 225.000 95.378 225.000 L 190.757 225.000 191.136 222.969 C 191.743 219.711,192.631 216.257,193.625 213.286 C 194.133 211.765,194.706 209.958,194.898 209.271 C 195.509 207.078,199.715 198.478,200.224 198.380 C 200.455 198.336,201.060 199.500,202.444 202.649 C 205.022 208.518,205.282 209.214,206.235 212.813 C 206.690 214.531,207.405 217.109,207.824 218.542 C 208.520 220.924,208.822 222.012,209.396 224.219 L 209.599 225.000 304.800 225.000 L 400.000 225.000 400.000 112.500 L 400.000 0.000 200.000 0.000 L 0.000 0.000 0.000 112.500 M156.529 75.944 C 167.075 77.089,173.685 89.338,169.051 99.148 C 164.124 109.580,150.681 111.997,142.483 103.926 C 132.671 94.264,138.623 77.318,152.349 75.836 C 153.833 75.675,154.122 75.683,156.529 75.944 M196.354 76.345 C 198.357 76.886,202.292 78.885,202.292 79.361 C 202.292 79.444,201.395 80.558,200.300 81.836 L 198.308 84.161 197.253 83.626 C 191.698 80.811,184.765 83.826,183.228 89.725 C 181.052 98.082,189.442 104.943,197.112 101.079 L 198.703 100.277 200.653 102.532 C 203.037 105.290,202.960 104.938,201.407 105.984 C 190.472 113.346,175.758 105.552,175.755 92.396 C 175.752 81.554,186.023 73.551,196.354 76.345 M125.250 76.481 C 133.445 78.197,135.611 89.508,128.576 93.850 L 127.340 94.613 130.441 101.295 C 132.146 104.970,133.542 108.057,133.542 108.155 C 133.542 108.456,126.958 108.376,126.730 108.073 C 126.622 107.930,125.236 105.023,123.650 101.615 L 120.767 95.417 119.238 95.417 L 117.708 95.417 117.708 101.771 L 117.708 108.125 114.479 108.125 L 111.250 108.125 111.250 92.188 L 111.250 76.250 117.698 76.250 C 121.619 76.250,124.579 76.341,125.250 76.481 M214.840 81.283 L 214.896 86.317 219.454 81.283 L 224.011 76.250 228.256 76.250 C 230.590 76.250,232.499 76.320,232.497 76.406 C 232.496 76.492,230.061 79.281,227.086 82.604 C 224.111 85.927,221.677 88.740,221.676 88.854 C 221.676 88.969,224.193 93.328,227.270 98.542 L 232.865 108.021 229.200 108.078 C 227.184 108.109,225.436 108.097,225.315 108.051 C 225.194 108.004,223.316 104.773,221.141 100.871 L 217.188 93.776 215.990 94.954 L 214.792 96.133 214.792 102.129 L 214.792 108.125 211.563 108.125 L 208.333 108.125 208.333 92.188 L 208.333 76.250 211.559 76.250 L 214.784 76.250 214.840 81.283 M259.745 79.531 L 259.803 82.708 252.401 82.708 L 245.000 82.708 245.000 85.625 L 245.000 88.542 251.042 88.542 L 257.083 88.542 257.083 91.771 L 257.083 95.000 251.042 95.000 L 245.000 95.000 245.000 98.333 L 245.000 101.667 252.297 101.667 L 259.594 101.667 259.537 104.948 L 259.479 108.229 248.958 108.229 L 238.438 108.229 238.384 92.500 C 238.354 83.849,238.375 76.653,238.430 76.509 C 238.509 76.301,240.757 76.258,249.109 76.300 L 259.688 76.354 259.745 79.531 M288.750 79.479 L 288.750 82.708 284.377 82.708 L 280.003 82.708 279.950 95.469 L 279.896 108.229 276.720 108.287 L 273.545 108.344 273.491 95.578 L 273.438 82.813 269.010 82.756 L 264.583 82.700 264.583 79.475 L 264.583 76.250 276.667 76.250 L 288.750 76.250 288.750 79.479 M151.354 82.793 C 144.042 85.115,141.860 94.165,147.370 99.320 C 155.479 106.905,167.818 97.586,162.793 87.670 C 160.795 83.728,155.508 81.473,151.354 82.793 M117.708 85.833 L 117.708 88.958 120.889 88.958 C 125.262 88.958,126.785 87.968,126.352 85.406 C 125.996 83.294,124.745 82.711,120.573 82.709 L 117.708 82.708 117.708 85.833 M142.397 116.890 C 144.464 117.527,148.542 119.743,148.542 120.229 C 148.542 120.404,145.737 125.106,145.405 125.489 C 145.320 125.586,144.729 125.331,144.091 124.923 C 139.379 121.909,134.792 122.166,134.792 125.443 C 134.792 127.280,135.337 127.730,139.096 129.000 C 146.159 131.385,149.356 134.923,149.130 140.102 C 148.708 149.753,136.364 152.434,127.333 144.837 C 125.958 143.681,125.914 143.809,128.550 141.298 L 130.747 139.205 131.874 140.141 C 136.375 143.879,142.708 143.509,142.708 139.508 C 142.708 137.922,139.776 135.778,136.563 135.015 C 125.910 132.486,125.438 118.943,135.919 116.545 C 137.613 116.157,140.524 116.312,142.397 116.890 M239.479 116.761 C 241.526 117.315,245.417 119.304,245.417 119.796 C 245.417 119.889,244.518 121.002,243.420 122.269 L 241.423 124.573 240.373 124.041 C 234.823 121.228,227.889 124.246,226.353 130.142 C 224.143 138.627,232.879 145.530,240.546 141.356 L 241.822 140.662 243.828 142.972 C 246.191 145.693,246.116 145.397,244.688 146.344 C 233.936 153.482,219.893 146.658,218.833 133.781 C 217.939 122.912,228.878 113.894,239.479 116.761 M173.814 123.333 C 175.518 126.943,178.873 134.043,181.269 139.112 C 183.665 144.181,185.625 148.425,185.625 148.544 C 185.625 148.687,184.443 148.741,182.135 148.703 L 178.646 148.646 177.203 145.677 L 175.760 142.708 169.286 142.712 L 162.813 142.715 161.269 145.733 L 159.725 148.750 156.229 148.750 C 154.306 148.750,152.696 148.680,152.650 148.594 C 152.604 148.508,154.009 145.625,155.771 142.188 C 157.533 138.750,161.183 131.597,163.881 126.291 L 168.786 116.645 169.750 116.708 L 170.714 116.771 173.814 123.333 M195.625 127.046 C 195.625 135.645,195.678 137.604,195.936 138.472 C 197.452 143.577,204.528 144.118,206.857 139.307 C 207.309 138.374,207.316 138.219,207.356 127.566 L 207.396 116.771 210.625 116.771 L 213.854 116.771 213.911 127.188 C 213.975 138.846,213.900 139.718,212.610 142.280 C 207.984 151.467,194.845 151.381,190.396 142.135 C 189.229 139.708,189.174 139.050,189.170 127.344 L 189.167 116.667 192.396 116.667 L 195.625 116.667 195.625 127.046 M272.708 119.896 L 272.708 123.125 265.313 123.125 L 257.917 123.125 257.917 126.042 L 257.917 128.958 264.063 128.958 L 270.208 128.958 270.208 132.188 L 270.208 135.417 264.063 135.417 L 257.917 135.417 257.917 138.750 L 257.917 142.083 265.208 142.083 L 272.500 142.083 272.500 145.417 L 272.500 148.750 261.979 148.750 L 251.458 148.750 251.458 132.708 L 251.458 116.667 262.083 116.667 L 272.708 116.667 272.708 119.896 M167.861 132.814 C 166.975 134.591,166.250 136.091,166.250 136.148 C 166.250 136.204,167.703 136.250,169.479 136.250 C 171.255 136.250,172.708 136.212,172.708 136.165 C 172.708 136.018,169.612 129.583,169.541 129.583 C 169.503 129.583,168.748 131.037,167.861 132.814 M199.178 202.825 C 198.580 204.278,197.596 206.558,196.991 207.890 C 195.884 210.327,195.409 211.734,194.590 215.000 C 194.346 215.974,193.923 217.568,193.650 218.542 C 192.820 221.504,192.805 221.801,193.485 221.935 C 196.656 222.563,203.736 222.643,206.306 222.079 L 207.508 221.816 207.368 221.064 C 207.291 220.651,207.011 219.670,206.745 218.885 C 206.478 218.100,206.020 216.460,205.727 215.240 C 204.600 210.557,201.274 201.206,200.432 200.351 C 200.340 200.258,199.776 201.371,199.178 202.825 M203.021 210.104 C 203.021 210.219,202.716 210.342,202.344 210.378 C 201.683 210.441,201.408 210.143,201.927 209.926 C 202.328 209.758,203.021 209.871,203.021 210.104 M203.279 211.192 C 203.384 211.507,202.100 211.766,201.820 211.486 C 201.662 211.328,201.683 211.236,201.892 211.169 C 202.055 211.117,202.328 211.028,202.500 210.971 C 202.913 210.835,203.186 210.912,203.279 211.192 M203.690 212.212 C 203.790 212.518,202.084 212.793,201.806 212.515 C 201.666 212.374,201.694 212.274,201.892 212.211 C 202.055 212.159,202.328 212.068,202.500 212.008 C 202.976 211.844,203.604 211.951,203.690 212.212 M204.167 213.516 C 204.167 213.733,203.144 213.958,202.161 213.958 C 201.423 213.958,201.199 213.640,201.823 213.477 C 202.489 213.303,204.167 213.330,204.167 213.516 M204.323 214.427 C 204.225 214.721,203.398 214.939,202.240 214.975 C 201.334 215.004,201.189 214.651,202.031 214.465 C 202.346 214.395,202.698 214.307,202.813 214.269 C 203.386 214.078,204.404 214.184,204.323 214.427 M204.583 215.394 C 204.583 215.816,201.611 216.250,201.373 215.863 C 201.292 215.733,201.435 215.594,201.710 215.535 C 201.973 215.479,202.375 215.393,202.604 215.345 C 203.390 215.179,204.583 215.208,204.583 215.394 M196.563 215.833 C 196.633 215.948,196.498 216.042,196.262 216.042 C 196.026 216.042,195.833 215.948,195.833 215.833 C 195.833 215.719,195.968 215.625,196.134 215.625 C 196.299 215.625,196.492 215.719,196.563 215.833 M205.000 216.449 C 205.000 216.744,203.588 217.081,202.344 217.082 C 200.846 217.084,200.967 216.747,202.552 216.503 C 204.335 216.229,205.000 216.214,205.000 216.449 M196.354 216.875 C 196.425 216.990,196.290 217.083,196.054 217.083 C 195.818 217.083,195.625 216.990,195.625 216.875 C 195.625 216.760,195.760 216.667,195.925 216.667 C 196.090 216.667,196.283 216.760,196.354 216.875 M205.208 217.269 C 205.208 217.588,204.543 217.745,202.708 217.858 C 201.475 217.934,201.001 217.901,201.146 217.748 C 201.533 217.342,205.208 216.908,205.208 217.269 M196.128 217.679 C 196.298 217.955,196.061 218.091,195.615 217.974 C 195.394 217.917,195.264 217.786,195.327 217.685 C 195.473 217.449,195.983 217.445,196.128 217.679 M205.625 218.324 C 205.625 218.614,204.291 218.936,202.448 219.091 C 201.296 219.188,200.833 219.158,200.833 218.988 C 200.833 218.697,200.591 218.764,202.813 218.446 C 205.231 218.100,205.625 218.082,205.625 218.324 M196.146 218.750 C 196.219 218.868,196.048 218.958,195.754 218.958 C 195.467 218.958,195.175 218.865,195.104 218.750 C 195.031 218.632,195.202 218.542,195.496 218.542 C 195.783 218.542,196.075 218.635,196.146 218.750 M205.833 219.364 C 205.833 219.718,201.564 220.275,200.938 220.002 C 200.415 219.775,200.289 219.810,203.125 219.392 C 205.514 219.041,205.833 219.037,205.833 219.364 M195.738 219.597 C 195.934 219.915,195.779 220.001,195.254 219.864 C 195.002 219.798,194.848 219.661,194.910 219.560 C 195.068 219.305,195.571 219.328,195.738 219.597 M206.135 220.192 C 206.361 220.557,203.215 221.245,201.302 221.248 C 200.528 221.250,199.984 220.869,200.677 220.812 C 200.820 220.800,201.969 220.626,203.229 220.426 C 206.190 219.955,205.999 219.970,206.135 220.192 M195.533 220.514 C 195.882 220.778,195.890 220.821,195.590 220.827 C 195.100 220.836,194.583 220.614,194.583 220.394 C 194.583 220.110,195.082 220.173,195.533 220.514 M206.344 221.233 C 206.591 221.633,203.381 222.287,201.156 222.290 C 199.155 222.293,200.045 221.918,202.924 221.546 C 204.352 221.361,205.560 221.172,205.608 221.126 C 205.766 220.972,206.224 221.039,206.344 221.233 M195.411 221.450 C 195.579 221.557,195.661 221.701,195.591 221.770 C 195.415 221.946,194.375 221.661,194.375 221.436 C 194.375 221.194,195.019 221.203,195.411 221.450 M206.875 223.136 C 206.536 223.237,206.482 223.299,206.719 223.313 C 207.462 223.355,207.049 223.723,205.990 223.964 C 203.846 224.451,198.372 224.475,198.852 223.995 C 198.929 223.918,199.571 223.870,200.278 223.889 L 201.563 223.923 200.208 223.736 C 199.464 223.633,197.589 223.569,196.042 223.593 C 194.495 223.618,193.094 223.593,192.930 223.538 C 192.717 223.467,192.590 223.669,192.491 224.233 L 192.353 225.029 195.499 224.904 C 197.230 224.836,199.691 224.746,200.968 224.706 C 202.245 224.666,204.102 224.517,205.094 224.376 C 206.758 224.140,207.349 224.179,207.024 224.503 C 206.954 224.574,206.587 224.705,206.208 224.794 C 205.645 224.928,205.775 224.961,206.925 224.979 L 208.330 225.000 207.988 224.115 C 207.554 222.991,207.504 222.947,206.875 223.136 M195.116 224.254 C 195.338 224.416,195.456 224.613,195.378 224.691 C 195.192 224.878,193.750 224.399,193.750 224.151 C 193.750 223.854,194.664 223.923,195.116 224.254 " stroke="none" fill="#343434" fill-rule="evenodd"></path><path id="path2" d="M132.292 133.034 C 132.292 133.235,135.671 134.719,136.771 135.002 C 141.766 136.285,144.034 139.186,141.965 141.645 C 140.213 143.728,135.386 143.078,131.975 140.301 L 130.810 139.352 129.207 140.803 C 128.326 141.601,127.296 142.575,126.920 142.967 L 126.236 143.680 127.233 144.609 C 130.558 147.710,134.081 149.057,138.870 149.060 L 141.802 149.063 143.588 148.178 C 148.141 145.922,150.261 140.895,148.552 136.408 L 148.096 135.211 145.559 135.231 C 143.722 135.245,142.772 135.159,142.120 134.921 C 141.625 134.739,140.423 134.531,139.449 134.457 C 138.209 134.363,137.362 134.170,136.620 133.812 C 135.317 133.184,132.292 132.640,132.292 133.034 M269.378 134.829 L 268.861 135.313 269.344 135.381 C 269.944 135.467,270.052 135.365,269.965 134.795 L 269.896 134.346 269.378 134.829 M155.434 143.026 C 153.935 145.950,152.708 148.388,152.708 148.442 C 152.708 148.497,154.301 148.542,156.249 148.542 L 159.789 148.542 161.250 145.625 L 162.711 142.708 169.286 142.708 L 175.862 142.708 177.239 145.625 L 178.616 148.542 182.118 148.542 L 185.620 148.542 185.124 147.448 C 182.737 142.178,182.612 141.973,181.531 141.579 C 180.976 141.377,179.911 140.988,179.167 140.715 C 176.682 139.805,174.694 139.564,172.188 139.869 C 167.908 140.389,163.523 139.680,159.951 137.890 C 159.752 137.790,159.268 137.708,158.875 137.708 L 158.160 137.708 155.434 143.026 M254.731 138.590 C 253.724 138.674,252.599 138.820,252.231 138.916 L 251.563 139.089 251.507 143.815 L 251.451 148.542 261.975 148.542 L 272.500 148.542 272.500 145.417 L 272.500 142.292 265.208 142.292 L 257.917 142.292 257.917 140.327 L 257.917 138.363 257.240 138.400 C 256.867 138.421,255.738 138.506,254.731 138.590 M240.288 141.560 C 237.638 142.983,234.427 143.020,231.482 141.663 L 229.995 140.978 228.223 141.326 C 226.377 141.688,222.927 143.069,222.921 143.447 C 222.916 143.723,224.168 144.925,225.506 145.928 C 231.135 150.152,239.268 150.204,244.959 146.052 L 245.855 145.398 243.902 143.180 C 241.607 140.574,241.889 140.701,240.288 141.560 M190.417 142.091 C 190.417 142.166,190.780 142.781,191.224 143.457 C 195.929 150.624,205.875 151.044,211.275 144.304 C 212.560 142.700,212.160 142.614,207.414 143.471 C 205.091 143.890,201.819 143.765,199.479 143.168 C 196.135 142.315,194.644 142.067,192.552 142.012 C 191.378 141.981,190.417 142.017,190.417 142.091 " stroke="none" fill="#fa3636" fill-rule="evenodd"></path><path id="path3" d="M209.958 76.405 C 210.909 76.444,212.409 76.444,213.291 76.405 C 214.174 76.366,213.396 76.334,211.563 76.334 C 209.729 76.335,209.007 76.366,209.958 76.405 M226.105 76.406 C 227.343 76.442,229.312 76.442,230.480 76.405 C 231.648 76.368,230.635 76.338,228.229 76.338 C 225.823 76.338,224.867 76.369,226.105 76.406 M238.429 76.510 C 238.375 76.654,238.354 83.849,238.384 92.500 L 238.438 108.229 248.906 108.232 L 259.375 108.235 248.958 108.178 L 238.542 108.121 238.542 92.292 L 238.542 76.462 249.115 76.406 L 259.688 76.350 249.108 76.300 C 240.799 76.261,238.507 76.306,238.429 76.510 M270.573 76.406 C 273.924 76.438,279.409 76.438,282.760 76.406 C 286.112 76.374,283.370 76.348,276.667 76.348 C 269.964 76.348,267.221 76.374,270.573 76.406 M153.597 82.441 C 153.913 82.489,154.382 82.488,154.638 82.438 C 154.895 82.389,154.635 82.350,154.063 82.351 C 153.490 82.353,153.280 82.393,153.597 82.441 M244.874 85.729 C 244.874 87.333,244.907 87.962,244.947 87.126 C 244.986 86.291,244.986 84.978,244.946 84.210 C 244.906 83.441,244.874 84.125,244.874 85.729 M137.557 92.292 C 137.557 92.807,137.597 93.018,137.647 92.760 C 137.697 92.503,137.697 92.081,137.647 91.823 C 137.597 91.565,137.557 91.776,137.557 92.292 M129.883 92.760 L 129.271 93.438 129.948 92.826 C 130.320 92.489,130.625 92.184,130.625 92.149 C 130.625 91.988,130.453 92.129,129.883 92.760 M215.930 94.844 L 214.896 95.938 215.990 94.904 C 216.591 94.335,217.083 93.843,217.083 93.810 C 217.083 93.654,216.890 93.827,215.930 94.844 M244.888 98.333 L 244.896 101.771 252.188 101.775 L 259.479 101.779 252.245 101.720 L 245.010 101.661 244.945 98.279 L 244.879 94.896 244.888 98.333 M146.458 98.607 C 146.458 98.643,146.763 98.947,147.135 99.284 L 147.813 99.896 147.201 99.219 C 146.630 98.588,146.458 98.446,146.458 98.607 M128.490 108.280 C 129.435 108.319,130.982 108.319,131.927 108.280 C 132.872 108.241,132.099 108.210,130.208 108.210 C 128.318 108.210,127.544 108.241,128.490 108.280 M275.052 108.280 C 275.940 108.319,277.393 108.319,278.281 108.280 C 279.169 108.241,278.443 108.209,276.667 108.209 C 274.891 108.209,274.164 108.241,275.052 108.280 M168.673 116.831 C 168.617 116.922,168.916 116.964,169.338 116.924 C 170.626 116.802,170.778 116.716,169.752 116.691 C 169.214 116.678,168.729 116.741,168.673 116.831 M190.791 116.822 C 191.742 116.861,193.242 116.860,194.124 116.821 C 195.007 116.782,194.229 116.751,192.396 116.751 C 190.563 116.751,189.840 116.783,190.791 116.822 M207.389 116.922 C 207.333 117.068,207.313 121.641,207.344 127.083 L 207.400 136.979 207.450 126.927 L 207.500 116.875 210.623 116.875 L 213.746 116.875 213.803 126.823 L 213.860 136.771 213.857 126.771 L 213.854 116.771 210.673 116.713 C 208.242 116.669,207.467 116.719,207.389 116.922 M256.719 116.823 C 259.669 116.855,264.497 116.855,267.448 116.823 C 270.398 116.790,267.984 116.763,262.083 116.763 C 256.182 116.763,253.768 116.790,256.719 116.823 M270.084 132.188 C 270.085 134.021,270.116 134.743,270.155 133.792 C 270.194 132.841,270.194 131.341,270.155 130.459 C 270.116 129.576,270.084 130.354,270.084 132.188 M130.208 131.315 C 130.208 131.351,130.513 131.656,130.885 131.992 L 131.563 132.604 130.951 131.927 C 130.380 131.296,130.208 131.154,130.208 131.315 M141.042 136.940 C 141.042 136.976,141.346 137.281,141.719 137.617 L 142.396 138.229 141.784 137.552 C 141.214 136.921,141.042 136.779,141.042 136.940 M129.886 140.052 L 129.063 140.938 129.948 140.114 C 130.435 139.661,130.833 139.263,130.833 139.229 C 130.833 139.071,130.652 139.229,129.886 140.052 M261.510 142.239 C 263.544 142.273,266.872 142.273,268.906 142.239 C 270.940 142.205,269.276 142.177,265.208 142.177 C 261.141 142.177,259.477 142.205,261.510 142.239 M138.490 142.855 C 138.747 142.905,139.169 142.905,139.427 142.855 C 139.685 142.806,139.474 142.765,138.958 142.765 C 138.443 142.765,138.232 142.806,138.490 142.855 M126.250 143.815 C 126.250 143.851,126.555 144.156,126.927 144.492 L 127.604 145.104 126.992 144.427 C 126.422 143.796,126.250 143.654,126.250 143.815 M192.292 145.065 C 192.292 145.101,192.596 145.406,192.969 145.742 L 193.646 146.354 193.034 145.677 C 192.464 145.046,192.292 144.904,192.292 145.065 M210.091 145.677 L 209.479 146.354 210.156 145.742 C 210.529 145.406,210.833 145.101,210.833 145.065 C 210.833 144.904,210.661 145.046,210.091 145.677 M152.682 148.599 C 152.771 148.688,154.430 148.734,156.370 148.703 L 159.896 148.645 156.208 148.541 C 154.179 148.484,152.593 148.510,152.682 148.599 M180.479 148.697 C 181.487 148.735,183.081 148.735,184.021 148.696 C 184.960 148.658,184.135 148.627,182.188 148.627 C 180.240 148.627,179.471 148.659,180.479 148.697 M256.733 148.698 C 259.692 148.730,264.473 148.730,267.358 148.698 C 270.244 148.665,267.823 148.638,261.979 148.638 C 256.135 148.638,253.775 148.665,256.733 148.698 M201.770 211.251 C 201.615 211.503,202.168 211.750,202.545 211.599 C 202.692 211.540,202.596 211.484,202.331 211.475 C 202.067 211.466,201.908 211.365,201.979 211.250 C 202.050 211.135,202.061 211.042,202.004 211.042 C 201.946 211.042,201.841 211.136,201.770 211.251 M201.770 212.293 C 201.615 212.544,202.168 212.792,202.545 212.640 C 202.692 212.581,202.578 212.524,202.292 212.513 C 201.877 212.498,201.834 212.453,202.083 212.292 C 202.271 212.170,202.297 212.088,202.148 212.087 C 202.011 212.085,201.841 212.178,201.770 212.293 M203.284 214.314 C 203.543 214.364,203.918 214.362,204.117 214.310 C 204.316 214.258,204.104 214.217,203.646 214.219 C 203.188 214.222,203.025 214.264,203.284 214.314 M201.458 214.838 C 201.458 214.927,201.833 215.000,202.292 215.000 C 202.750 215.000,203.125 214.963,203.125 214.918 C 203.125 214.872,202.750 214.800,202.292 214.756 C 201.833 214.712,201.458 214.749,201.458 214.838 M203.177 215.352 C 203.378 215.404,203.706 215.404,203.906 215.352 C 204.107 215.300,203.943 215.257,203.542 215.257 C 203.141 215.257,202.977 215.300,203.177 215.352 M201.437 215.896 C 201.534 215.993,201.930 216.039,202.317 216.000 C 203.004 215.929,202.999 215.925,202.141 215.823 C 201.657 215.766,201.340 215.799,201.437 215.896 M204.010 216.394 C 204.211 216.446,204.539 216.446,204.740 216.394 C 204.940 216.341,204.776 216.298,204.375 216.298 C 203.974 216.298,203.810 216.341,204.010 216.394 M203.542 217.080 C 203.714 217.193,204.081 217.287,204.358 217.288 C 205.026 217.293,204.857 217.174,203.958 217.009 C 203.445 216.915,203.322 216.936,203.542 217.080 M195.325 217.689 C 195.260 217.793,195.410 217.825,195.657 217.760 C 195.992 217.673,196.064 217.712,195.938 217.916 C 195.825 218.098,195.850 218.139,196.013 218.039 C 196.147 217.956,196.203 217.801,196.137 217.694 C 195.984 217.446,195.477 217.443,195.325 217.689 M204.583 218.205 C 204.583 218.249,204.818 218.330,205.104 218.384 C 205.391 218.439,205.625 218.403,205.625 218.304 C 205.625 218.206,205.391 218.125,205.104 218.125 C 204.818 218.125,204.583 218.161,204.583 218.205 M201.094 218.680 C 200.481 218.927,200.915 219.164,201.927 219.135 L 203.021 219.104 202.083 218.968 C 201.215 218.842,201.192 218.823,201.771 218.718 C 202.309 218.620,202.324 218.602,201.875 218.589 C 201.589 218.581,201.237 218.622,201.094 218.680 M194.915 219.552 C 194.843 219.669,194.979 219.704,195.241 219.635 C 195.549 219.555,195.643 219.594,195.541 219.759 C 195.459 219.891,195.499 220.000,195.630 220.000 C 195.980 220.000,195.750 219.490,195.367 219.416 C 195.186 219.381,194.983 219.442,194.915 219.552 M200.417 221.067 C 200.417 221.168,200.956 221.243,201.615 221.234 C 202.958 221.215,202.882 221.123,201.406 220.980 C 200.862 220.928,200.417 220.967,200.417 221.067 M200.083 222.118 C 200.024 222.213,200.661 222.284,201.498 222.275 C 203.222 222.257,203.181 222.156,201.397 222.029 C 200.734 221.982,200.142 222.022,200.083 222.118 M196.094 222.435 C 196.294 222.488,196.622 222.488,196.823 222.435 C 197.023 222.383,196.859 222.340,196.458 222.340 C 196.057 222.340,195.893 222.383,196.094 222.435 M199.531 222.654 C 200.247 222.695,201.419 222.695,202.135 222.654 C 202.852 222.614,202.266 222.580,200.833 222.580 C 199.401 222.580,198.815 222.614,199.531 222.654 M205.833 223.333 C 205.344 223.490,205.354 223.501,206.002 223.521 C 206.413 223.533,206.639 223.458,206.563 223.333 C 206.492 223.219,206.416 223.134,206.394 223.146 C 206.372 223.157,206.120 223.242,205.833 223.333 M199.050 223.866 C 198.667 224.173,198.672 224.177,199.146 223.946 C 199.471 223.787,200.202 223.745,201.229 223.824 C 202.100 223.891,203.375 223.867,204.063 223.771 C 205.132 223.622,204.888 223.592,202.384 223.569 C 200.017 223.547,199.377 223.604,199.050 223.866 M193.750 224.138 C 193.750 224.236,193.984 224.272,194.271 224.218 C 194.557 224.163,194.792 224.082,194.792 224.038 C 194.792 223.994,194.557 223.958,194.271 223.958 C 193.984 223.958,193.750 224.039,193.750 224.138 M206.094 224.310 C 206.294 224.363,206.622 224.363,206.823 224.310 C 207.023 224.258,206.859 224.215,206.458 224.215 C 206.057 224.215,205.893 224.258,206.094 224.310 " stroke="none" fill="#7c7474" fill-rule="evenodd"></path><path id="path4" d="M111.346 76.510 C 111.291 76.654,111.271 83.849,111.302 92.500 L 111.357 108.229 111.408 92.347 L 111.458 76.464 117.760 76.406 L 124.063 76.348 117.754 76.299 C 112.862 76.261,111.423 76.308,111.346 76.510 M214.673 81.458 C 214.673 84.266,214.703 85.414,214.739 84.010 C 214.775 82.607,214.775 80.310,214.739 78.906 C 214.703 77.503,214.673 78.651,214.673 81.458 M264.667 79.583 C 264.667 81.359,264.699 82.086,264.738 81.198 C 264.777 80.310,264.777 78.857,264.738 77.969 C 264.699 77.081,264.667 77.807,264.667 79.583 M288.626 79.583 C 288.626 81.359,288.657 82.086,288.697 81.198 C 288.736 80.310,288.736 78.857,288.697 77.969 C 288.657 77.081,288.626 77.807,288.626 79.583 M142.383 80.677 L 141.771 81.354 142.448 80.742 C 142.820 80.406,143.125 80.101,143.125 80.065 C 143.125 79.904,142.953 80.046,142.383 80.677 M132.757 85.833 C 132.757 86.234,132.800 86.398,132.852 86.198 C 132.904 85.997,132.904 85.669,132.852 85.469 C 132.800 85.268,132.757 85.432,132.757 85.833 M119.228 89.113 C 120.122 89.153,121.528 89.152,122.353 89.113 C 123.179 89.073,122.448 89.041,120.729 89.042 C 119.010 89.042,118.335 89.074,119.228 89.113 M170.485 92.188 C 170.486 92.990,170.524 93.292,170.569 92.860 C 170.614 92.428,170.613 91.771,170.567 91.402 C 170.521 91.032,170.484 91.385,170.485 92.188 M182.771 92.292 C 182.771 92.922,182.810 93.180,182.858 92.865 C 182.905 92.549,182.905 92.034,182.858 91.719 C 182.810 91.404,182.771 91.661,182.771 92.292 M247.969 94.947 C 249.659 94.982,252.424 94.982,254.115 94.947 C 255.805 94.912,254.422 94.884,251.042 94.884 C 247.661 94.884,246.279 94.912,247.969 94.947 M214.675 102.083 C 214.675 105.464,214.704 106.846,214.739 105.156 C 214.774 103.466,214.774 100.701,214.739 99.010 C 214.704 97.320,214.675 98.703,214.675 102.083 M153.802 102.227 C 154.003 102.279,154.331 102.279,154.531 102.227 C 154.732 102.175,154.568 102.132,154.167 102.132 C 153.766 102.132,153.602 102.175,153.802 102.227 M165.614 103.906 L 164.896 104.688 165.677 103.970 C 166.404 103.301,166.554 103.125,166.395 103.125 C 166.360 103.125,166.009 103.477,165.614 103.906 M137.867 116.397 C 138.126 116.447,138.501 116.445,138.700 116.393 C 138.900 116.341,138.688 116.300,138.229 116.303 C 137.771 116.305,137.608 116.348,137.867 116.397 M189.263 127.292 C 189.263 133.078,189.290 135.445,189.323 132.552 C 189.355 129.659,189.355 124.924,189.323 122.031 C 189.290 119.138,189.263 121.505,189.263 127.292 M257.791 126.042 C 257.791 127.703,257.823 128.383,257.863 127.552 C 257.903 126.721,257.903 125.362,257.863 124.531 C 257.823 123.701,257.791 124.380,257.791 126.042 M225.893 132.813 C 225.894 133.385,225.935 133.595,225.983 133.278 C 226.031 132.962,226.029 132.493,225.980 132.237 C 225.931 131.980,225.891 132.240,225.893 132.813 M263.438 135.203 L 257.813 135.313 257.708 136.823 C 257.651 137.654,257.674 138.334,257.760 138.334 C 257.846 138.333,257.917 137.677,257.917 136.875 L 257.917 135.417 263.425 135.417 C 266.873 135.417,268.982 135.339,269.063 135.208 C 269.133 135.094,269.162 135.021,269.127 135.047 C 269.091 135.073,266.531 135.143,263.438 135.203 M169.375 136.250 L 165.938 136.370 169.311 136.414 C 171.384 136.441,172.733 136.378,172.813 136.250 C 172.883 136.135,172.912 136.062,172.877 136.086 C 172.841 136.110,171.266 136.184,169.375 136.250 M191.406 142.022 C 191.664 142.072,192.086 142.072,192.344 142.022 C 192.602 141.972,192.391 141.932,191.875 141.932 C 191.359 141.932,191.148 141.972,191.406 142.022 M201.875 210.230 C 201.875 210.455,202.644 210.481,202.780 210.260 C 202.833 210.174,202.651 210.091,202.376 210.074 C 202.100 210.058,201.875 210.128,201.875 210.230 M202.292 211.122 C 202.292 211.306,203.135 211.403,203.241 211.230 C 203.305 211.127,203.118 211.042,202.825 211.042 C 202.532 211.042,202.292 211.078,202.292 211.122 M203.229 213.542 C 203.798 213.786,203.958 213.786,203.958 213.542 C 203.958 213.427,203.701 213.340,203.385 213.348 C 202.878 213.361,202.860 213.383,203.229 213.542 M201.771 213.750 C 201.697 213.870,201.890 213.957,202.227 213.955 C 202.682 213.953,202.743 213.907,202.500 213.750 C 202.100 213.491,201.931 213.491,201.771 213.750 M201.665 216.880 C 201.443 217.021,201.616 217.078,202.274 217.080 C 203.264 217.084,203.327 217.007,202.498 216.809 C 202.211 216.740,201.836 216.772,201.665 216.880 M201.563 217.708 C 201.256 217.840,201.422 217.887,202.188 217.887 C 202.953 217.887,203.119 217.840,202.813 217.708 C 202.583 217.610,202.302 217.529,202.188 217.529 C 202.073 217.529,201.792 217.610,201.563 217.708 M204.271 218.542 C 204.844 218.788,205.048 218.788,204.896 218.542 C 204.825 218.427,204.562 218.340,204.311 218.348 C 203.871 218.362,203.869 218.369,204.271 218.542 M202.813 218.750 C 203.042 218.848,203.417 218.926,203.646 218.923 C 203.981 218.918,203.960 218.884,203.542 218.750 C 202.829 218.522,202.282 218.522,202.813 218.750 M202.083 219.792 C 202.255 219.903,202.630 219.986,202.917 219.976 L 203.438 219.958 202.917 219.792 C 202.114 219.535,201.685 219.535,202.083 219.792 M205.147 220.438 C 205.311 220.603,205.485 220.605,205.761 220.445 C 206.098 220.249,206.070 220.220,205.531 220.215 C 205.083 220.210,204.979 220.271,205.147 220.438 M202.604 220.833 C 202.833 220.932,203.208 221.010,203.438 221.006 C 203.772 221.001,203.752 220.967,203.333 220.833 C 202.621 220.605,202.073 220.605,202.604 220.833 M205.355 221.480 C 205.520 221.645,205.694 221.646,205.970 221.486 C 206.307 221.290,206.278 221.262,205.740 221.256 C 205.291 221.252,205.187 221.312,205.355 221.480 M197.135 222.644 C 197.336 222.696,197.664 222.696,197.865 222.644 C 198.065 222.591,197.901 222.548,197.500 222.548 C 197.099 222.548,196.935 222.591,197.135 222.644 M196.205 223.487 C 196.810 223.529,197.748 223.529,198.288 223.486 C 198.829 223.443,198.333 223.409,197.188 223.409 C 196.042 223.410,195.599 223.445,196.205 223.487 M203.958 223.958 C 204.671 224.186,205.218 224.186,204.688 223.958 C 204.458 223.860,204.083 223.782,203.854 223.785 C 203.519 223.790,203.540 223.824,203.958 223.958 M200.104 224.167 C 200.333 224.265,201.177 224.340,201.979 224.333 L 203.438 224.319 202.396 224.157 C 200.918 223.927,199.559 223.933,200.104 224.167 M199.950 224.731 C 200.209 224.781,200.584 224.779,200.784 224.726 C 200.983 224.674,200.771 224.634,200.313 224.636 C 199.854 224.638,199.691 224.681,199.950 224.731 " stroke="none" fill="#949494" fill-rule="evenodd"></path><path id="path5" d="M259.667 79.583 C 259.667 81.359,259.699 82.086,259.738 81.198 C 259.777 80.310,259.777 78.857,259.738 77.969 C 259.699 77.081,259.667 77.807,259.667 79.583 M279.890 95.521 C 279.890 102.510,279.916 105.340,279.948 101.808 C 279.980 98.276,279.980 92.557,279.948 89.100 C 279.916 85.642,279.890 88.531,279.890 95.521 " stroke="none" fill="#8c8c8c" fill-rule="evenodd"></path></g></svg>