<svg id="svg" version="1.1" xmlns="http://www.w3.org/2000/svg" xmlns:xlink="http://www.w3.org/1999/xlink" width="400" height="225" viewBox="0, 0, 400,225"><g id="svgg"><path id="path0" d="M151.771 75.968 C 140.675 77.755,134.531 89.499,139.470 99.479 C 147.148 114.994,170.417 109.467,170.417 92.128 C 170.417 82.314,161.320 74.430,151.771 75.968 M190.350 76.055 C 178.876 77.374,172.383 89.692,177.727 100.000 C 179.924 104.238,184.060 107.491,186.787 107.125 C 188.225 106.933,188.694 106.985,191.952 107.694 C 195.373 108.440,198.422 107.875,201.304 105.962 C 201.962 105.525,202.500 105.079,202.500 104.970 C 202.500 104.718,198.707 100.390,198.553 100.466 C 198.489 100.498,197.969 100.770,197.396 101.072 C 189.809 105.067,181.222 98.639,182.986 90.286 C 184.252 84.296,190.836 80.838,196.458 83.209 C 197.203 83.524,197.938 83.797,198.091 83.817 C 198.687 83.896,202.284 79.516,201.940 79.129 C 200.290 77.275,194.074 75.627,190.350 76.055 M111.458 92.281 L 111.458 108.125 114.583 108.125 L 117.708 108.125 117.708 101.762 L 117.708 95.399 119.317 95.460 L 120.925 95.521 123.848 101.816 L 126.771 108.110 130.136 108.118 L 133.502 108.125 130.397 101.436 C 126.845 93.784,127.098 94.546,127.969 94.123 C 134.557 90.918,134.162 80.721,127.319 77.337 L 125.752 76.563 118.605 76.500 L 111.458 76.438 111.458 92.281 M208.333 92.040 L 208.333 107.622 211.458 107.613 L 214.582 107.604 214.583 101.868 L 214.583 96.133 215.846 94.889 C 216.956 93.796,217.138 93.687,217.356 93.986 C 217.493 94.174,219.337 97.431,221.454 101.226 L 225.304 108.125 229.006 108.125 C 231.042 108.125,232.708 108.087,232.708 108.040 C 232.708 107.992,230.286 103.844,227.324 98.821 C 224.363 93.797,221.829 89.478,221.693 89.221 C 221.464 88.788,221.829 88.329,226.869 82.707 C 229.852 79.380,232.292 76.613,232.292 76.558 C 232.292 76.503,230.419 76.458,228.130 76.458 L 223.968 76.458 219.432 81.458 C 216.937 84.208,214.826 86.458,214.740 86.458 C 214.654 86.458,214.583 84.208,214.583 81.458 L 214.583 76.458 211.458 76.458 L 208.333 76.458 208.333 92.040 M238.542 92.292 L 238.542 108.125 249.063 108.125 L 259.583 108.125 259.583 105.000 L 259.583 101.875 252.182 101.875 L 244.782 101.875 244.839 98.385 L 244.896 94.896 250.990 94.841 L 257.083 94.785 257.083 91.664 L 257.083 88.542 250.938 88.542 L 244.792 88.542 244.792 85.625 L 244.792 82.708 252.188 82.708 L 259.583 82.708 259.583 79.583 L 259.583 76.458 249.063 76.458 L 238.542 76.458 238.542 92.292 M264.792 79.583 L 264.792 82.708 269.167 82.708 L 273.542 82.708 273.542 95.417 L 273.542 108.125 276.667 108.125 L 279.792 108.125 279.792 95.417 L 279.792 82.708 284.167 82.708 L 288.542 82.708 288.542 79.583 L 288.542 76.458 276.667 76.458 L 264.792 76.458 264.792 79.583 M156.555 82.611 C 163.999 84.550,166.546 93.825,161.123 99.248 C 155.661 104.710,146.434 102.160,144.477 94.647 C 142.610 87.479,149.372 80.740,156.555 82.611 M125.000 83.177 C 126.428 84.152,126.892 86.177,125.990 87.502 C 124.999 88.957,124.701 89.055,121.027 89.133 L 117.708 89.203 117.708 85.956 L 117.708 82.708 121.011 82.708 C 124.093 82.708,124.359 82.740,125.000 83.177 M199.879 167.309 C 199.557 167.815,198.809 169.307,198.217 170.625 C 197.625 171.943,196.801 173.697,196.385 174.523 C 195.969 175.349,195.430 176.755,195.188 177.648 C 194.946 178.540,194.386 180.326,193.944 181.616 C 191.821 187.811,190.953 192.951,189.907 205.521 C 189.263 213.270,189.201 225.000,189.804 225.000 C 190.095 225.000,190.166 224.033,190.403 216.823 C 190.743 206.464,190.883 204.055,191.146 204.092 C 191.260 204.109,192.479 204.290,193.854 204.496 C 198.252 205.154,204.057 204.920,208.179 203.918 C 209.182 203.675,210.044 203.517,210.095 203.567 C 210.293 203.766,210.628 218.397,210.496 221.086 L 210.355 223.944 208.876 224.272 C 208.062 224.452,206.786 224.680,206.042 224.779 C 204.909 224.930,205.202 224.957,207.833 224.946 L 210.979 224.932 211.118 218.664 C 211.434 204.404,210.603 196.313,207.818 186.563 C 206.967 183.583,206.071 180.349,205.827 179.375 C 205.353 177.488,204.423 175.112,202.210 170.140 C 200.348 165.955,200.570 166.225,199.879 167.309 M201.525 169.698 C 203.450 174.035,205.085 178.808,206.157 183.220 C 206.434 184.361,206.895 186.002,207.181 186.866 C 208.053 189.506,208.013 189.829,206.771 190.188 C 205.339 190.601,196.570 190.638,194.412 190.239 L 192.887 189.957 193.019 189.093 C 193.091 188.618,193.377 187.385,193.654 186.354 C 195.593 179.144,195.888 178.222,197.181 175.335 C 197.939 173.642,198.841 171.550,199.184 170.685 C 200.505 167.360,200.490 167.366,201.525 169.698 M202.292 178.125 C 202.038 178.289,202.065 178.328,202.436 178.330 C 202.687 178.332,202.950 178.240,203.021 178.125 C 203.185 177.860,202.702 177.860,202.292 178.125 M202.344 179.310 C 202.544 179.363,202.872 179.363,203.073 179.310 C 203.273 179.258,203.109 179.215,202.708 179.215 C 202.307 179.215,202.143 179.258,202.344 179.310 M202.708 180.208 C 202.211 180.368,202.217 180.376,202.852 180.396 C 203.218 180.407,203.575 180.323,203.646 180.208 C 203.794 179.969,203.456 179.969,202.708 180.208 M202.867 181.606 C 203.126 181.656,203.501 181.654,203.700 181.601 C 203.900 181.549,203.688 181.509,203.229 181.511 C 202.771 181.513,202.608 181.556,202.867 181.606 M202.917 182.500 L 202.188 182.653 203.021 182.678 C 203.479 182.691,203.995 182.611,204.167 182.500 C 204.544 182.256,204.075 182.256,202.917 182.500 M202.708 183.542 C 201.984 183.694,201.985 183.695,202.917 183.708 C 203.432 183.715,204.042 183.640,204.271 183.542 C 204.808 183.311,203.806 183.311,202.708 183.542 M203.125 184.611 C 201.419 184.889,201.371 185.006,203.021 184.866 C 203.823 184.798,204.620 184.662,204.792 184.565 C 205.192 184.338,204.717 184.351,203.125 184.611 M203.125 185.444 C 201.424 185.722,201.367 185.848,203.006 185.708 C 204.493 185.580,205.875 185.223,204.792 185.246 C 204.505 185.252,203.755 185.341,203.125 185.444 M203.438 186.583 L 201.771 186.857 203.229 186.777 C 204.031 186.732,204.922 186.602,205.208 186.486 C 205.867 186.221,205.521 186.240,203.438 186.583 M202.813 187.624 L 201.146 187.898 202.813 187.801 C 203.729 187.748,204.760 187.619,205.104 187.516 L 205.729 187.327 205.104 187.339 C 204.760 187.345,203.729 187.474,202.813 187.624 M203.125 188.670 L 201.563 188.945 203.125 188.849 C 203.984 188.796,204.969 188.667,205.313 188.561 L 205.938 188.369 205.313 188.382 C 204.969 188.389,203.984 188.519,203.125 188.670 M203.229 189.691 C 201.602 189.941,201.590 189.948,202.708 189.954 C 203.339 189.957,204.323 189.840,204.896 189.692 C 206.206 189.355,205.407 189.355,203.229 189.691 M208.333 191.875 C 208.897 193.324,210.063 202.298,209.730 202.631 C 209.524 202.837,205.745 203.711,204.025 203.950 C 201.016 204.369,195.750 204.147,192.396 203.460 L 191.146 203.204 191.210 201.758 C 191.307 199.605,192.500 191.389,192.754 191.135 C 192.806 191.083,193.144 191.187,193.505 191.367 C 193.866 191.547,194.261 191.633,194.383 191.558 C 194.504 191.483,196.920 191.428,199.750 191.436 C 203.497 191.447,205.207 191.372,206.042 191.162 C 207.715 190.739,207.915 190.801,208.333 191.875 M204.792 191.706 C 203.932 191.808,202.714 191.948,202.083 192.016 C 201.453 192.084,201.063 192.184,201.215 192.238 C 201.568 192.365,205.732 191.932,206.563 191.682 C 207.328 191.452,206.861 191.458,204.792 191.706 M194.375 192.292 C 194.547 192.403,194.875 192.488,195.104 192.482 L 195.521 192.471 195.104 192.292 C 194.481 192.024,193.961 192.024,194.375 192.292 M205.417 192.531 C 204.786 192.634,203.005 192.742,201.458 192.771 C 198.328 192.829,197.658 193.043,196.046 194.500 C 195.338 195.140,195.135 195.218,194.441 195.121 L 193.646 195.010 194.330 195.245 C 195.139 195.524,195.104 195.893,194.254 196.050 C 193.688 196.154,193.679 196.171,194.115 196.291 C 194.858 196.495,194.707 197.080,193.906 197.100 L 193.229 197.116 193.802 197.325 C 194.134 197.447,194.375 197.691,194.375 197.905 C 194.375 198.193,194.247 198.255,193.802 198.184 C 193.354 198.112,193.297 198.141,193.542 198.314 C 193.714 198.436,194.003 198.537,194.186 198.538 C 194.391 198.540,194.613 198.859,194.767 199.375 C 195.145 200.636,195.258 200.520,198.875 195.156 C 200.189 193.208,200.250 193.171,201.371 193.640 C 202.265 194.013,202.408 193.690,199.288 198.332 C 198.018 200.222,196.941 201.858,196.895 201.969 C 196.615 202.641,198.359 200.278,200.079 197.656 C 201.860 194.942,202.724 194.014,202.701 194.844 C 202.692 195.168,200.191 198.990,198.729 200.915 C 197.483 202.554,197.544 202.773,199.321 203.039 C 202.092 203.455,205.225 201.989,206.330 199.759 C 206.495 199.427,206.786 199.250,207.244 199.206 C 207.614 199.170,207.917 199.069,207.917 198.981 C 207.917 198.894,207.623 198.865,207.265 198.918 C 206.776 198.990,206.637 198.942,206.708 198.725 C 206.760 198.567,207.054 198.408,207.360 198.372 C 207.666 198.335,207.917 198.220,207.917 198.116 C 207.917 198.012,207.623 197.986,207.264 198.058 C 206.759 198.159,206.633 198.122,206.708 197.896 C 206.762 197.736,206.985 197.572,207.205 197.532 C 207.424 197.492,207.695 197.373,207.806 197.268 C 207.930 197.150,207.738 197.130,207.309 197.215 C 206.762 197.325,206.632 197.292,206.707 197.063 C 206.760 196.902,207.007 196.741,207.256 196.704 C 207.505 196.668,207.708 196.567,207.708 196.480 C 207.708 196.393,207.415 196.365,207.057 196.418 C 206.203 196.543,206.330 196.002,207.205 195.790 C 207.803 195.646,207.802 195.644,207.131 195.703 C 206.216 195.783,205.771 195.277,206.596 195.095 C 207.591 194.874,207.648 194.785,206.738 194.872 C 205.412 194.999,205.162 194.540,206.398 194.245 C 206.948 194.114,207.162 194.006,206.875 194.004 C 206.589 194.002,206.120 194.068,205.833 194.151 C 205.343 194.293,203.345 193.454,203.336 193.103 C 203.335 193.033,203.981 192.916,204.773 192.843 C 205.564 192.769,206.432 192.621,206.700 192.514 C 207.289 192.277,206.939 192.282,205.417 192.531 M194.271 193.333 C 194.850 193.582,195.258 193.582,195.104 193.333 C 195.033 193.219,194.723 193.132,194.415 193.140 C 193.914 193.153,193.899 193.173,194.271 193.333 M205.833 193.333 L 205.104 193.487 205.833 193.500 C 206.234 193.507,206.750 193.432,206.979 193.333 L 207.396 193.154 206.979 193.167 C 206.750 193.174,206.234 193.249,205.833 193.333 M194.063 194.167 C 194.292 194.265,194.667 194.346,194.896 194.346 L 195.313 194.346 194.896 194.167 C 194.667 194.068,194.292 193.988,194.063 193.988 L 193.646 193.988 194.063 194.167 M193.438 199.583 C 193.667 199.682,194.042 199.762,194.271 199.762 L 194.688 199.762 194.271 199.583 C 194.042 199.485,193.667 199.404,193.438 199.404 L 193.021 199.404 193.438 199.583 M207.188 199.792 L 206.563 199.951 207.188 199.972 C 207.531 199.984,207.953 199.903,208.125 199.792 C 208.512 199.542,208.170 199.542,207.188 199.792 M193.229 200.625 C 193.458 200.723,193.833 200.804,194.063 200.804 L 194.479 200.804 194.063 200.625 C 193.833 200.527,193.458 200.446,193.229 200.446 L 192.813 200.446 193.229 200.625 M206.979 200.742 L 205.938 201.027 206.855 200.922 C 207.360 200.865,207.922 200.731,208.105 200.624 C 208.548 200.365,208.237 200.398,206.979 200.742 M207.095 201.477 C 205.757 201.740,205.568 201.896,206.734 201.775 C 207.286 201.717,207.896 201.579,208.088 201.467 C 208.495 201.229,208.353 201.231,207.095 201.477 M193.229 201.667 C 193.458 201.765,193.880 201.843,194.167 201.840 L 194.688 201.833 194.167 201.667 C 193.880 201.575,193.458 201.497,193.229 201.494 L 192.813 201.488 193.229 201.667 M206.354 202.500 C 205.323 202.705,204.720 202.882,205.014 202.894 C 205.713 202.924,207.934 202.512,208.333 202.278 C 208.741 202.040,208.581 202.058,206.354 202.500 M193.438 202.917 C 193.667 203.015,194.089 203.096,194.375 203.096 C 194.850 203.096,194.859 203.080,194.479 202.917 C 194.250 202.818,193.828 202.738,193.542 202.738 C 193.067 202.738,193.058 202.753,193.438 202.917 M206.458 205.135 C 205.599 205.294,203.771 205.510,202.396 205.615 L 199.896 205.806 202.604 205.733 C 204.933 205.670,208.198 205.204,208.513 204.890 C 208.648 204.755,208.277 204.799,206.458 205.135 M193.229 205.625 C 194.156 205.861,195.236 205.861,194.688 205.625 C 194.458 205.527,193.896 205.450,193.438 205.456 C 192.641 205.466,192.632 205.473,193.229 205.625 M206.042 206.068 C 205.526 206.172,203.979 206.336,202.604 206.432 L 200.104 206.607 201.979 206.636 C 203.642 206.662,207.635 206.185,207.890 205.930 C 208.035 205.785,207.099 205.855,206.042 206.068 M193.438 206.458 C 194.414 206.707,194.968 206.707,194.583 206.458 C 194.411 206.347,193.943 206.266,193.542 206.278 L 192.813 206.299 193.438 206.458 M206.250 207.113 C 205.734 207.219,204.047 207.389,202.500 207.491 L 199.688 207.677 202.708 207.596 C 204.370 207.551,206.292 207.380,206.979 207.216 C 208.351 206.889,207.754 206.804,206.250 207.113 M193.125 207.500 C 193.411 207.592,193.974 207.667,194.375 207.667 C 195.035 207.667,195.055 207.651,194.583 207.500 C 194.297 207.408,193.734 207.333,193.333 207.333 C 192.673 207.333,192.654 207.349,193.125 207.500 M206.771 208.149 C 206.198 208.250,204.604 208.420,203.229 208.528 L 200.729 208.724 203.542 208.638 C 205.089 208.590,206.870 208.419,207.500 208.257 C 208.779 207.929,208.370 207.868,206.771 208.149 M192.813 208.323 C 193.209 208.503,194.749 208.627,194.566 208.464 C 194.518 208.422,194.010 208.330,193.438 208.260 C 192.736 208.175,192.532 208.195,192.813 208.323 M206.819 209.084 C 206.750 209.152,205.024 209.285,202.982 209.377 L 199.271 209.545 203.021 209.474 C 205.083 209.435,207.099 209.313,207.500 209.202 L 208.229 209.001 207.587 208.980 C 207.234 208.968,206.888 209.015,206.819 209.084 M192.813 209.375 C 193.042 209.473,193.604 209.550,194.063 209.545 L 194.896 209.535 194.063 209.363 C 193.604 209.268,193.042 209.192,192.813 209.193 L 192.396 209.196 192.813 209.375 M206.250 209.998 C 205.734 210.084,204.375 210.233,203.229 210.329 C 202.083 210.424,201.422 210.538,201.759 210.582 C 202.526 210.680,206.764 210.271,207.604 210.016 C 208.418 209.770,207.669 209.760,206.250 209.998 M193.492 210.356 C 193.751 210.406,194.126 210.404,194.325 210.351 C 194.525 210.299,194.313 210.259,193.854 210.261 C 193.396 210.263,193.233 210.306,193.492 210.356 M207.230 210.965 C 207.158 211.037,205.478 211.162,203.497 211.244 L 199.896 211.392 202.813 211.415 C 205.247 211.435,209.738 210.943,207.899 210.858 C 207.603 210.845,207.302 210.892,207.230 210.965 M192.813 211.250 C 193.042 211.348,193.604 211.425,194.063 211.420 L 194.896 211.410 194.063 211.238 C 193.604 211.143,193.042 211.067,192.813 211.068 L 192.396 211.071 192.813 211.250 M207.230 212.006 C 207.158 212.078,205.478 212.204,203.497 212.286 L 199.896 212.434 202.813 212.457 C 205.247 212.477,209.738 211.985,207.899 211.900 C 207.603 211.886,207.302 211.934,207.230 212.006 M192.813 212.284 C 193.207 212.461,194.959 212.585,194.774 212.424 C 194.727 212.382,194.172 212.292,193.542 212.223 C 192.793 212.141,192.540 212.163,192.813 212.284 M206.146 213.048 C 205.000 213.200,203.516 213.382,202.847 213.451 C 202.179 213.520,201.676 213.620,201.729 213.674 C 201.893 213.837,206.695 213.346,207.917 213.041 C 209.335 212.686,208.843 212.688,206.146 213.048 M193.281 213.480 C 193.539 213.530,193.961 213.530,194.219 213.480 C 194.477 213.431,194.266 213.390,193.750 213.390 C 193.234 213.390,193.023 213.431,193.281 213.480 M206.146 214.188 C 205.458 214.285,204.052 214.455,203.021 214.566 L 201.146 214.768 203.542 214.663 C 204.859 214.605,206.547 214.435,207.292 214.283 C 208.803 213.976,208.076 213.915,206.146 214.188 M193.438 214.583 C 194.373 214.821,195.242 214.821,194.688 214.583 C 194.458 214.485,193.943 214.409,193.542 214.414 L 192.813 214.424 193.438 214.583 M206.250 215.414 C 205.734 215.501,204.469 215.648,203.438 215.742 C 202.406 215.836,201.794 215.951,202.076 215.998 C 202.710 216.102,206.751 215.689,207.604 215.432 C 208.419 215.187,207.667 215.177,206.250 215.414 M193.438 215.833 C 194.364 216.069,195.444 216.069,194.896 215.833 C 194.667 215.735,194.104 215.659,193.646 215.664 C 192.849 215.674,192.840 215.681,193.438 215.833 M205.938 216.596 C 205.708 216.641,204.490 216.763,203.229 216.868 L 200.938 217.058 203.646 216.968 C 205.135 216.918,206.682 216.793,207.083 216.689 L 207.813 216.501 207.083 216.508 C 206.682 216.512,206.167 216.552,205.938 216.596 M193.125 216.875 C 193.411 216.967,194.021 217.040,194.479 217.038 C 195.272 217.034,195.282 217.026,194.688 216.875 C 193.781 216.644,192.405 216.644,193.125 216.875 M206.875 217.530 C 206.245 217.635,204.651 217.806,203.333 217.910 L 200.938 218.099 203.750 218.013 C 205.297 217.965,207.078 217.794,207.708 217.632 C 209.007 217.298,208.585 217.247,206.875 217.530 M193.438 217.917 C 194.364 218.152,195.444 218.152,194.896 217.917 C 194.667 217.818,194.104 217.742,193.646 217.748 C 192.849 217.757,192.840 217.765,193.438 217.917 M207.292 218.552 C 206.776 218.644,204.854 218.739,203.021 218.764 L 199.688 218.809 201.667 218.980 C 203.672 219.154,207.491 218.908,208.387 218.548 C 208.945 218.323,208.570 218.325,207.292 218.552 M192.917 218.948 C 193.430 219.123,195.151 219.240,194.983 219.089 C 194.935 219.046,194.333 218.956,193.646 218.890 C 192.836 218.812,192.579 218.832,192.917 218.948 M207.027 219.501 C 206.958 219.570,205.419 219.702,203.607 219.795 L 200.313 219.965 203.646 219.895 C 206.502 219.836,209.567 219.455,207.691 219.393 C 207.395 219.383,207.096 219.431,207.027 219.501 M193.597 219.941 C 193.913 219.989,194.382 219.988,194.638 219.938 C 194.895 219.889,194.635 219.850,194.063 219.851 C 193.490 219.853,193.280 219.893,193.597 219.941 M206.823 220.538 C 206.757 220.605,205.311 220.731,203.611 220.819 L 200.521 220.979 203.021 221.000 C 205.211 221.020,209.370 220.510,207.587 220.442 C 207.234 220.428,206.890 220.471,206.823 220.538 M193.125 220.823 C 193.639 220.998,195.360 221.115,195.191 220.964 C 195.143 220.921,194.542 220.831,193.854 220.765 C 193.044 220.687,192.788 220.707,193.125 220.823 M207.188 221.486 C 206.729 221.589,204.948 221.757,203.229 221.859 L 200.104 222.044 203.333 221.977 C 205.307 221.936,207.008 221.790,207.708 221.603 C 208.950 221.270,208.547 221.179,207.188 221.486 M193.333 221.875 C 193.620 221.967,194.182 222.040,194.583 222.038 L 195.313 222.034 194.688 221.875 C 193.770 221.642,192.605 221.642,193.333 221.875 M206.771 222.620 C 205.854 222.768,204.635 222.902,204.063 222.918 C 203.490 222.933,202.833 223.025,202.604 223.121 C 201.989 223.379,204.974 223.162,207.240 222.783 C 208.299 222.606,209.167 222.423,209.167 222.377 C 209.167 222.259,208.705 222.306,206.771 222.620 M193.229 222.919 C 193.628 223.088,195.370 223.205,195.191 223.050 C 195.143 223.009,194.589 222.923,193.958 222.858 C 193.245 222.786,192.970 222.809,193.229 222.919 M206.875 223.577 C 206.359 223.686,204.625 223.855,203.021 223.954 L 200.104 224.132 203.229 224.057 C 205.040 224.014,206.836 223.856,207.500 223.681 C 208.780 223.344,208.331 223.270,206.875 223.577 M193.438 223.958 C 194.364 224.194,195.444 224.194,194.896 223.958 C 194.667 223.860,194.104 223.784,193.646 223.789 C 192.849 223.799,192.840 223.806,193.438 223.958 M191.250 224.791 C 191.250 224.921,192.331 225.000,194.097 225.000 C 195.663 225.000,196.905 224.966,196.858 224.925 C 196.629 224.727,191.250 224.599,191.250 224.791 " stroke="none" fill="#f7f6f6" fill-rule="evenodd"></path><path id="path1" d="M0.000 112.500 L 0.000 225.000 94.552 225.000 L 189.105 225.000 189.226 222.552 C 189.293 221.206,189.297 218.182,189.235 215.833 C 189.137 212.120,189.208 210.611,189.779 204.271 C 190.895 191.875,191.592 187.915,193.853 181.146 C 194.351 179.656,194.914 177.875,195.105 177.188 C 195.296 176.500,195.903 175.000,196.453 173.854 C 197.004 172.708,197.970 170.693,198.601 169.375 C 199.231 168.057,199.944 166.801,200.185 166.583 L 200.623 166.187 201.633 168.354 C 203.593 172.557,205.405 177.001,205.914 178.854 C 206.198 179.885,207.139 183.260,208.006 186.354 C 210.828 196.429,211.336 200.939,211.304 215.677 L 211.284 225.000 305.642 225.000 L 400.000 225.000 400.000 112.500 L 400.000 0.000 200.000 0.000 L 0.000 0.000 0.000 112.500 M158.193 76.273 C 169.003 78.955,174.034 91.693,167.995 101.094 C 161.522 111.170,146.780 111.274,140.325 101.290 C 132.151 88.647,143.578 72.648,158.193 76.273 M196.354 76.345 C 198.401 76.898,202.292 78.887,202.292 79.379 C 202.292 79.473,201.397 80.581,200.304 81.843 L 198.315 84.136 197.022 83.535 C 191.392 80.919,184.745 83.901,183.228 89.725 C 181.052 98.082,189.442 104.943,197.112 101.079 L 198.703 100.277 200.653 102.532 C 203.046 105.301,202.977 104.985,201.414 106.001 C 190.241 113.267,175.724 105.571,175.751 92.396 C 175.773 81.536,186.023 73.551,196.354 76.345 M125.250 76.481 C 133.603 78.230,135.617 90.345,128.185 94.136 L 127.323 94.576 130.433 101.270 C 132.143 104.952,133.542 108.048,133.542 108.149 C 133.542 108.454,126.962 108.380,126.726 108.073 C 126.616 107.930,125.232 105.023,123.650 101.615 L 120.773 95.417 119.241 95.417 L 117.708 95.417 117.708 101.771 L 117.708 108.125 114.479 108.125 L 111.250 108.125 111.250 92.188 L 111.250 76.250 117.698 76.250 C 121.619 76.250,124.579 76.341,125.250 76.481 M214.840 81.283 L 214.896 86.315 219.450 81.283 L 224.004 76.250 228.252 76.250 C 230.588 76.250,232.500 76.320,232.500 76.406 C 232.499 76.492,230.064 79.281,227.087 82.604 C 224.111 85.927,221.676 88.740,221.676 88.854 C 221.677 88.969,224.195 93.328,227.271 98.542 L 232.864 108.021 229.199 108.078 C 227.184 108.109,225.434 108.096,225.310 108.049 C 225.186 108.001,223.308 104.771,221.136 100.870 L 217.188 93.778 215.990 94.956 L 214.792 96.133 214.792 102.129 L 214.792 108.125 211.563 108.125 L 208.333 108.125 208.333 92.188 L 208.333 76.250 211.559 76.250 L 214.784 76.250 214.840 81.283 M259.792 79.479 L 259.792 82.708 252.396 82.708 L 245.000 82.708 245.000 85.625 L 245.000 88.542 251.042 88.542 L 257.083 88.542 257.083 91.771 L 257.083 95.000 251.042 95.000 L 245.000 95.000 245.000 98.333 L 245.000 101.667 252.297 101.667 L 259.594 101.667 259.537 104.948 L 259.479 108.229 248.958 108.229 L 238.438 108.229 238.384 92.500 C 238.354 83.849,238.375 76.654,238.429 76.510 C 238.507 76.307,240.847 76.250,249.160 76.250 L 259.792 76.250 259.792 79.479 M288.750 79.479 L 288.750 82.708 284.377 82.708 L 280.003 82.708 279.950 95.469 L 279.896 108.229 276.720 108.287 L 273.545 108.344 273.491 95.578 L 273.438 82.813 269.010 82.756 L 264.583 82.700 264.583 79.475 L 264.583 76.250 276.667 76.250 L 288.750 76.250 288.750 79.479 M151.354 82.793 C 144.065 85.107,141.882 94.186,147.378 99.327 C 155.472 106.899,167.812 97.575,162.797 87.677 C 160.806 83.749,155.489 81.479,151.354 82.793 M117.708 85.833 L 117.708 88.958 120.889 88.958 C 125.262 88.958,126.785 87.968,126.352 85.406 C 125.996 83.294,124.745 82.711,120.573 82.709 L 117.708 82.708 117.708 85.833 M142.396 116.888 C 144.579 117.563,148.542 119.731,148.542 120.250 C 148.542 120.443,145.769 125.076,145.406 125.489 C 145.321 125.586,144.729 125.331,144.091 124.923 C 139.379 121.909,134.792 122.166,134.792 125.443 C 134.792 127.253,135.497 127.821,139.283 129.062 C 146.064 131.283,149.310 134.899,149.123 140.023 C 148.776 149.538,136.507 152.448,127.656 145.114 C 125.884 143.646,125.844 143.826,128.505 141.324 L 130.753 139.211 131.877 140.144 C 136.375 143.879,142.708 143.507,142.708 139.508 C 142.708 137.947,139.702 135.747,136.563 135.012 C 125.966 132.528,125.398 119.201,135.776 116.562 C 137.410 116.146,140.488 116.298,142.396 116.888 M238.571 116.551 C 240.979 117.061,245.125 118.996,245.360 119.719 C 245.403 119.851,244.539 120.993,243.440 122.256 L 241.443 124.554 240.149 123.949 C 234.624 121.368,227.839 124.393,226.363 130.096 C 224.154 138.631,232.858 145.541,240.546 141.356 L 241.822 140.662 243.828 142.972 C 246.191 145.693,246.116 145.397,244.688 146.344 C 233.553 153.735,218.849 146.027,218.876 132.813 C 218.898 122.309,228.466 114.409,238.571 116.551 M178.166 132.500 C 182.257 141.151,185.610 148.349,185.615 148.495 C 185.623 148.702,184.857 148.748,182.135 148.703 L 178.646 148.646 177.203 145.677 L 175.760 142.708 169.286 142.712 L 162.813 142.715 161.269 145.733 L 159.725 148.750 156.229 148.750 C 154.306 148.750,152.695 148.680,152.649 148.594 C 152.603 148.508,154.362 144.922,156.558 140.625 C 158.754 136.328,162.404 129.175,164.669 124.729 L 168.786 116.645 169.756 116.708 L 170.726 116.771 178.166 132.500 M195.668 127.448 C 195.727 137.931,195.741 138.256,196.171 139.185 C 198.279 143.742,204.738 143.771,206.871 139.233 C 207.296 138.329,207.310 137.991,207.352 127.537 L 207.396 116.771 210.625 116.771 L 213.854 116.771 213.908 127.348 C 213.968 138.989,213.914 139.667,212.732 142.133 C 208.282 151.419,194.843 151.420,190.394 142.135 C 189.229 139.703,189.174 139.045,189.170 127.344 L 189.167 116.667 192.387 116.667 L 195.607 116.667 195.668 127.448 M272.708 119.896 L 272.708 123.125 265.313 123.125 L 257.917 123.125 257.917 126.042 L 257.917 128.958 264.063 128.958 L 270.208 128.958 270.208 132.188 L 270.208 135.417 264.063 135.417 L 257.917 135.417 257.917 138.750 L 257.917 142.083 265.208 142.083 L 272.500 142.083 272.500 145.417 L 272.500 148.750 261.979 148.750 L 251.458 148.750 251.458 132.708 L 251.458 116.667 262.083 116.667 L 272.708 116.667 272.708 119.896 M167.848 132.841 C 166.957 134.628,166.267 136.128,166.314 136.175 C 166.361 136.222,167.819 136.235,169.552 136.203 L 172.705 136.146 171.237 133.021 C 170.430 131.302,169.701 129.828,169.619 129.744 C 169.536 129.661,168.739 131.055,167.848 132.841 M199.177 171.287 C 198.451 173.043,197.554 175.089,197.183 175.833 C 196.457 177.291,195.520 180.077,194.802 182.917 C 194.556 183.891,194.127 185.484,193.849 186.458 C 193.049 189.265,193.066 189.834,193.958 190.023 C 197.538 190.782,203.934 190.761,206.921 189.981 C 207.831 189.744,207.830 189.678,206.865 186.563 C 206.545 185.531,206.078 183.844,205.826 182.813 C 204.867 178.883,202.265 171.518,200.908 168.892 L 200.497 168.096 199.177 171.287 M203.333 178.125 C 203.333 178.240,203.000 178.333,202.592 178.333 C 202.151 178.333,201.903 178.249,201.979 178.125 C 202.050 178.010,202.384 177.917,202.721 177.917 C 203.058 177.917,203.333 178.010,203.333 178.125 M203.542 179.150 C 203.542 179.256,203.263 179.403,202.922 179.478 C 202.195 179.638,201.674 179.422,202.113 179.144 C 202.491 178.904,203.542 178.909,203.542 179.150 M203.958 180.182 C 203.958 180.282,203.578 180.424,203.112 180.499 C 202.164 180.650,201.553 180.441,202.201 180.187 C 202.765 179.966,203.958 179.963,203.958 180.182 M204.375 181.432 C 204.375 181.653,203.348 181.875,202.328 181.875 C 201.872 181.875,201.660 181.801,201.781 181.684 C 202.153 181.326,204.375 181.110,204.375 181.432 M204.454 182.504 C 204.161 182.797,201.283 183.044,201.563 182.753 C 201.812 182.492,202.486 182.358,203.740 182.320 C 204.370 182.301,204.599 182.360,204.454 182.504 M204.885 183.316 C 205.014 183.524,203.261 183.958,202.294 183.958 C 201.176 183.958,201.443 183.573,202.653 183.440 C 203.314 183.367,203.995 183.277,204.167 183.241 C 204.730 183.119,204.766 183.123,204.885 183.316 M196.667 183.750 C 196.919 183.913,196.889 183.953,196.510 183.955 C 196.253 183.957,196.042 183.865,196.042 183.750 C 196.042 183.489,196.263 183.489,196.667 183.750 M205.062 184.605 C 204.815 184.852,201.054 185.154,201.282 184.909 C 201.460 184.717,203.195 184.430,204.365 184.400 C 205.041 184.382,205.229 184.437,205.062 184.605 M196.458 184.792 C 196.712 184.956,196.685 184.994,196.314 184.997 C 196.063 184.999,195.800 184.906,195.729 184.792 C 195.565 184.526,196.048 184.526,196.458 184.792 M205.105 185.470 C 204.697 185.699,201.074 185.966,201.272 185.753 C 201.443 185.568,205.058 185.038,205.287 185.165 C 205.388 185.221,205.306 185.358,205.105 185.470 M196.458 185.833 C 196.458 186.078,196.298 186.078,195.729 185.833 C 195.360 185.675,195.378 185.653,195.885 185.640 C 196.201 185.632,196.458 185.719,196.458 185.833 M205.625 186.445 C 205.178 186.706,202.999 187.083,201.941 187.083 C 200.475 187.083,200.916 186.732,202.656 186.513 C 204.831 186.238,206.026 186.211,205.625 186.445 M196.250 186.667 C 196.487 186.820,196.399 186.869,195.885 186.872 C 195.513 186.874,195.208 186.781,195.208 186.667 C 195.208 186.402,195.841 186.402,196.250 186.667 M206.042 187.277 C 206.042 187.673,201.693 188.234,200.940 187.936 C 200.655 187.823,201.241 187.673,202.815 187.456 C 205.700 187.057,206.042 187.039,206.042 187.277 M196.042 187.708 C 196.042 187.972,195.616 187.972,195.208 187.708 C 194.965 187.551,195.022 187.506,195.469 187.503 C 195.784 187.501,196.042 187.594,196.042 187.708 M206.343 188.323 C 206.076 188.591,202.699 189.167,201.396 189.167 C 199.753 189.167,200.440 188.886,202.985 188.517 C 205.847 188.103,206.608 188.059,206.343 188.323 M195.833 188.542 C 196.243 188.807,195.512 188.807,194.896 188.542 C 194.514 188.378,194.523 188.362,195.000 188.351 C 195.286 188.345,195.661 188.431,195.833 188.542 M195.533 189.473 C 195.966 189.800,195.806 189.863,195.052 189.660 C 194.794 189.591,194.583 189.452,194.583 189.351 C 194.583 189.068,195.083 189.132,195.533 189.473 M206.388 189.402 C 205.501 189.918,199.598 190.541,200.070 190.069 C 200.211 189.928,204.991 189.246,206.146 189.203 C 206.685 189.183,206.718 189.210,206.388 189.402 M206.771 191.163 C 206.052 191.404,206.031 191.426,206.615 191.329 C 207.602 191.165,207.443 191.573,206.406 191.866 C 205.201 192.205,200.039 192.389,199.375 192.116 C 198.973 191.950,199.395 191.898,201.233 191.888 C 205.507 191.864,203.496 191.641,198.406 191.574 C 195.674 191.538,193.301 191.474,193.134 191.431 C 192.722 191.326,190.953 202.689,191.324 203.060 C 192.693 204.429,208.102 204.051,209.540 202.613 C 209.820 202.332,208.728 193.839,208.199 192.188 C 207.769 190.844,207.754 190.834,206.771 191.163 M195.411 192.284 C 195.579 192.390,195.656 192.538,195.582 192.613 C 195.405 192.789,194.207 192.525,194.053 192.276 C 193.898 192.025,195.012 192.032,195.411 192.284 M207.292 192.388 C 207.292 192.520,205.943 192.849,204.696 193.021 C 203.889 193.132,203.740 193.207,204.018 193.363 C 204.247 193.491,204.652 193.484,205.156 193.344 C 206.140 193.071,207.566 193.058,207.402 193.324 C 207.334 193.433,206.708 193.587,206.010 193.666 C 205.264 193.750,204.859 193.874,205.027 193.966 C 205.184 194.051,205.802 194.020,206.401 193.896 C 207.000 193.772,207.554 193.735,207.634 193.814 C 207.867 194.048,207.590 194.194,206.684 194.316 C 206.216 194.379,205.833 194.514,205.833 194.618 C 205.833 194.724,206.302 194.744,206.906 194.664 C 208.138 194.500,208.196 194.890,206.974 195.119 C 206.037 195.295,206.241 195.634,207.191 195.480 C 208.113 195.330,208.148 195.699,207.240 195.990 L 206.563 196.207 207.240 196.229 C 208.067 196.255,208.113 196.509,207.344 196.813 L 206.771 197.039 207.448 197.061 C 207.820 197.073,208.125 197.165,208.125 197.266 C 208.125 197.366,207.820 197.521,207.448 197.611 L 206.771 197.774 207.604 197.911 L 208.438 198.048 207.851 198.295 C 207.528 198.431,207.177 198.542,207.070 198.542 C 206.963 198.542,206.875 198.617,206.875 198.708 C 206.875 198.800,207.216 198.835,207.633 198.786 C 208.611 198.672,208.402 199.096,207.386 199.286 C 206.229 199.504,206.339 199.786,207.526 199.646 C 208.303 199.554,208.566 199.584,208.462 199.753 C 208.382 199.882,207.853 200.049,207.287 200.124 C 206.721 200.200,206.138 200.407,205.993 200.586 C 205.766 200.866,205.788 200.889,206.146 200.753 C 206.917 200.461,208.667 200.340,208.430 200.595 C 208.231 200.810,206.207 201.292,205.875 201.205 C 205.795 201.183,205.139 201.553,204.419 202.026 C 202.230 203.462,199.297 203.689,197.442 202.567 C 197.354 202.513,197.735 201.890,198.291 201.182 C 199.315 199.878,201.805 196.162,202.294 195.208 L 202.561 194.688 202.097 195.099 C 201.842 195.326,201.114 196.357,200.480 197.391 C 198.984 199.829,197.283 202.083,196.938 202.083 C 196.537 202.083,196.464 202.210,199.275 198.011 C 201.678 194.419,201.854 194.092,201.514 193.834 C 200.957 193.412,200.267 193.487,199.892 194.010 C 199.708 194.268,198.836 195.523,197.956 196.798 C 195.540 200.295,195.316 200.557,194.973 200.272 C 194.813 200.140,194.238 199.919,193.695 199.782 C 192.473 199.475,192.367 199.072,193.561 199.274 C 194.656 199.459,194.684 198.779,193.593 198.497 C 192.726 198.272,192.680 197.817,193.542 197.990 C 194.010 198.083,194.167 198.038,194.167 197.807 C 194.167 197.638,194.044 197.500,193.894 197.500 C 193.744 197.500,193.439 197.357,193.217 197.181 C 192.835 196.880,192.851 196.866,193.524 196.921 C 194.378 196.991,194.648 196.535,193.869 196.339 C 193.111 196.149,193.203 195.794,193.990 195.872 C 194.380 195.911,194.683 195.832,194.736 195.677 C 194.788 195.529,194.657 195.417,194.432 195.417 C 194.215 195.417,193.856 195.271,193.634 195.092 C 193.257 194.790,193.299 194.776,194.224 194.897 C 195.166 195.020,195.268 194.983,196.167 194.191 C 197.589 192.940,198.732 192.641,202.239 192.603 C 203.872 192.585,205.270 192.508,205.347 192.431 C 205.502 192.276,207.292 192.236,207.292 192.388 M195.296 193.337 C 195.429 193.471,195.311 193.542,194.955 193.542 C 194.255 193.542,193.750 193.347,193.750 193.077 C 193.750 192.824,194.992 193.034,195.296 193.337 M194.969 194.067 C 195.251 194.148,195.381 194.286,195.275 194.392 C 195.031 194.636,193.493 194.205,193.658 193.939 C 193.728 193.826,193.941 193.776,194.132 193.829 C 194.323 193.882,194.700 193.989,194.969 194.067 M194.323 200.548 C 194.581 200.617,194.792 200.756,194.792 200.858 C 194.792 201.130,193.944 201.064,193.229 200.737 L 192.604 200.451 193.229 200.436 C 193.573 200.429,194.065 200.479,194.323 200.548 M193.948 201.476 C 195.053 201.713,195.373 202.083,194.472 202.083 C 193.923 202.083,192.500 201.565,192.500 201.365 C 192.500 201.201,192.759 201.221,193.948 201.476 M208.446 201.444 C 208.276 201.719,206.185 202.124,205.370 202.040 C 204.772 201.978,204.856 201.926,206.042 201.628 C 207.587 201.239,208.622 201.160,208.446 201.444 M208.471 202.319 C 208.066 202.554,205.247 203.105,204.385 203.118 C 203.424 203.131,204.248 202.743,205.833 202.436 C 207.820 202.051,209.024 201.997,208.471 202.319 M194.283 202.733 C 194.792 202.861,195.208 203.061,195.208 203.176 C 195.208 203.440,193.766 203.225,192.852 202.825 L 192.188 202.534 192.772 202.517 C 193.094 202.508,193.774 202.605,194.283 202.733 M207.891 204.074 C 204.126 205.067,197.707 205.250,193.023 204.498 C 191.993 204.333,191.133 204.214,191.113 204.234 C 191.047 204.301,190.417 221.537,190.417 223.290 C 190.417 224.888,190.781 225.678,191.090 224.751 C 191.154 224.558,192.391 224.561,196.576 224.766 C 203.033 225.080,209.195 224.607,210.101 223.726 C 210.486 223.352,210.210 203.486,209.821 203.571 C 209.748 203.587,208.879 203.814,207.891 204.074 M208.510 205.014 C 207.740 205.445,204.301 205.904,201.820 205.907 C 198.209 205.912,197.959 205.538,201.521 205.461 C 203.033 205.429,205.208 205.237,206.354 205.035 C 208.369 204.680,209.119 204.673,208.510 205.014 M195.094 205.643 C 195.420 205.957,193.292 205.845,192.604 205.512 C 192.012 205.226,192.056 205.217,193.438 205.332 C 194.240 205.398,194.985 205.539,195.094 205.643 M208.427 205.814 C 207.675 206.531,200.769 207.046,199.063 206.512 C 198.597 206.366,199.396 206.284,202.188 206.189 C 204.250 206.119,206.266 205.973,206.667 205.865 C 207.639 205.602,208.681 205.572,208.427 205.814 M194.975 206.473 C 195.220 206.628,194.955 206.666,194.007 206.611 C 193.289 206.569,192.586 206.412,192.445 206.262 C 192.131 205.928,194.416 206.119,194.975 206.473 M208.750 206.859 C 207.906 207.346,204.765 207.789,202.188 207.784 C 198.374 207.777,197.721 207.409,201.420 207.351 C 202.988 207.326,205.021 207.174,205.938 207.012 C 207.914 206.663,209.213 206.592,208.750 206.859 M194.871 207.434 C 195.406 207.586,194.861 207.933,194.273 207.816 C 194.042 207.770,193.503 207.676,193.073 207.607 C 192.643 207.538,192.292 207.383,192.292 207.263 C 192.292 207.054,193.916 207.161,194.871 207.434 M208.750 207.892 C 208.750 208.468,203.734 209.025,200.936 208.760 C 197.984 208.481,198.267 208.335,201.788 208.320 C 203.497 208.312,205.646 208.185,206.563 208.036 C 208.767 207.679,208.750 207.680,208.750 207.892 M194.010 208.224 C 195.072 208.369,195.375 208.751,194.427 208.749 C 193.601 208.747,192.292 208.350,192.292 208.101 C 192.292 207.984,192.456 207.934,192.656 207.989 C 192.857 208.045,193.466 208.150,194.010 208.224 M208.949 208.951 C 208.217 209.379,203.842 209.842,201.444 209.744 C 197.676 209.591,197.859 209.275,201.735 209.240 C 203.588 209.223,205.667 209.118,206.354 209.005 C 208.034 208.730,209.373 208.703,208.949 208.951 M194.531 209.298 C 194.789 209.367,195.000 209.518,195.000 209.634 C 195.000 209.878,193.021 209.667,192.511 209.369 C 192.134 209.148,193.760 209.091,194.531 209.298 M208.958 209.772 C 207.784 210.435,201.584 210.864,199.479 210.429 C 198.851 210.299,199.313 210.246,201.354 210.216 C 202.844 210.194,204.906 210.056,205.938 209.910 C 208.256 209.580,209.391 209.528,208.958 209.772 M195.085 210.418 C 195.414 210.748,193.529 210.651,192.813 210.301 C 192.211 210.008,192.239 210.000,193.533 210.104 C 194.272 210.163,194.971 210.304,195.085 210.418 M208.933 210.835 C 207.662 211.577,200.196 211.939,199.076 211.312 C 198.794 211.154,199.339 211.118,201.062 211.182 C 202.442 211.233,204.398 211.147,205.729 210.976 C 208.654 210.601,209.388 210.569,208.933 210.835 M194.219 211.147 C 195.027 211.273,195.311 211.667,194.594 211.667 C 193.799 211.667,192.082 211.212,192.194 211.031 C 192.257 210.930,192.562 210.887,192.873 210.936 C 193.183 210.984,193.789 211.079,194.219 211.147 M208.958 211.859 C 207.806 212.520,200.048 212.944,199.131 212.396 C 198.888 212.251,199.834 212.177,202.256 212.153 C 204.166 212.134,206.198 212.028,206.771 211.917 C 208.145 211.651,209.377 211.618,208.958 211.859 M194.557 212.214 C 195.682 212.439,195.306 212.777,194.073 212.649 C 192.556 212.493,191.833 212.099,193.047 212.090 C 193.520 212.086,194.199 212.142,194.557 212.214 M209.167 212.688 C 209.167 213.120,205.161 213.750,202.500 213.736 C 198.718 213.716,198.589 213.426,202.292 213.265 C 204.182 213.184,206.432 212.988,207.292 212.831 C 208.151 212.674,208.924 212.535,209.010 212.522 C 209.096 212.510,209.167 212.584,209.167 212.688 M194.242 213.257 C 195.679 213.455,195.454 213.830,193.978 213.696 C 192.549 213.567,191.534 213.142,192.627 213.131 C 192.984 213.128,193.710 213.185,194.242 213.257 M209.190 213.976 C 208.075 214.421,205.018 214.790,202.629 214.767 C 199.020 214.732,198.192 214.434,201.563 214.384 C 203.052 214.361,205.115 214.223,206.146 214.076 C 208.557 213.733,209.907 213.688,209.190 213.976 M195.104 214.620 C 195.248 214.770,194.908 214.810,194.007 214.749 C 193.289 214.700,192.586 214.538,192.445 214.388 C 192.234 214.165,192.431 214.142,193.542 214.260 C 194.286 214.339,194.990 214.501,195.104 214.620 M209.375 214.986 C 209.375 215.698,199.850 216.393,199.188 215.729 C 199.050 215.590,200.106 215.512,202.355 215.494 C 204.437 215.478,206.327 215.347,207.292 215.152 C 209.246 214.758,209.375 214.747,209.375 214.986 M195.313 215.877 C 195.456 216.025,195.074 216.059,194.095 215.985 C 193.311 215.926,192.561 215.764,192.429 215.624 C 192.239 215.425,192.502 215.401,193.646 215.516 C 194.448 215.596,195.198 215.758,195.313 215.877 M209.167 216.228 C 209.167 216.882,201.333 217.442,199.688 216.906 C 199.211 216.751,199.756 216.694,201.979 216.669 C 203.583 216.650,205.693 216.514,206.667 216.366 C 208.962 216.017,209.167 216.005,209.167 216.228 M194.975 216.796 C 195.486 216.874,195.617 216.967,195.451 217.132 C 195.171 217.413,192.225 216.943,192.408 216.647 C 192.516 216.473,193.075 216.505,194.975 216.796 M209.038 217.295 C 208.309 218.024,201.934 218.472,199.583 217.959 C 198.808 217.789,199.204 217.748,201.875 217.718 C 203.651 217.698,205.854 217.560,206.771 217.411 C 208.999 217.050,209.298 217.035,209.038 217.295 M195.302 217.928 C 195.624 218.249,193.511 218.142,192.813 217.802 C 192.218 217.512,192.259 217.503,193.646 217.614 C 194.448 217.678,195.193 217.819,195.302 217.928 M209.167 218.316 C 209.167 218.888,203.648 219.361,200.686 219.043 C 199.154 218.879,199.285 218.860,203.021 218.707 C 205.198 218.619,207.354 218.462,207.813 218.359 C 208.962 218.102,209.167 218.096,209.167 218.316 M194.766 218.880 C 195.124 218.952,195.417 219.092,195.417 219.193 C 195.417 219.460,193.983 219.386,193.021 219.068 L 192.188 218.794 193.151 218.772 C 193.681 218.760,194.408 218.809,194.766 218.880 M208.958 219.359 C 207.879 219.980,202.491 220.392,200.208 220.028 C 199.496 219.914,200.045 219.841,202.500 219.722 C 204.276 219.635,206.151 219.487,206.667 219.392 C 207.976 219.150,209.356 219.131,208.958 219.359 M194.531 219.718 C 196.119 219.909,195.919 220.289,194.299 220.159 C 192.831 220.041,191.674 219.600,192.813 219.591 C 193.156 219.589,193.930 219.646,194.531 219.718 M209.167 220.204 C 209.167 220.317,208.956 220.457,208.698 220.515 C 208.440 220.574,207.807 220.716,207.292 220.831 C 205.857 221.150,202.116 221.307,200.833 221.101 C 199.784 220.933,199.943 220.904,202.708 220.759 C 204.370 220.672,206.432 220.477,207.292 220.326 C 208.151 220.176,208.924 220.041,209.010 220.026 C 209.096 220.012,209.167 220.092,209.167 220.204 M194.948 220.756 C 195.206 220.825,195.417 220.965,195.417 221.066 C 195.417 221.332,194.200 221.263,193.229 220.943 L 192.396 220.669 193.438 220.650 C 194.010 220.639,194.690 220.687,194.948 220.756 M209.167 221.235 C 209.167 221.646,205.029 222.296,202.604 222.266 C 199.324 222.225,199.266 221.969,202.500 221.808 C 204.161 221.724,206.224 221.530,207.083 221.375 C 209.110 221.011,209.167 221.007,209.167 221.235 M195.313 221.859 C 195.725 222.020,195.725 222.023,195.299 222.159 C 194.890 222.288,192.751 221.987,192.533 221.769 C 192.365 221.602,194.860 221.682,195.313 221.859 M209.375 222.271 C 209.375 222.718,205.330 223.337,202.604 223.307 C 199.031 223.268,199.031 223.010,202.604 222.849 C 204.438 222.766,206.641 222.570,207.500 222.413 C 208.359 222.256,209.133 222.118,209.219 222.106 C 209.305 222.093,209.375 222.168,209.375 222.271 M194.948 222.840 C 195.206 222.909,195.417 223.061,195.417 223.178 C 195.417 223.430,193.249 223.220,192.733 222.918 C 192.344 222.691,194.154 222.627,194.948 222.840 M209.049 223.326 C 208.334 224.041,200.533 224.645,199.547 224.061 C 199.304 223.916,200.087 223.842,202.151 223.812 C 203.775 223.789,205.854 223.636,206.771 223.473 C 208.889 223.095,209.307 223.068,209.049 223.326 M195.417 223.958 C 195.417 224.210,193.398 224.210,192.813 223.958 C 192.526 223.835,192.869 223.775,193.906 223.765 C 194.784 223.756,195.417 223.837,195.417 223.958 " stroke="none" fill="#343434" fill-rule="evenodd"></path><path id="path2" d="M186.510 107.217 C 185.700 107.396,185.991 107.632,187.656 108.147 C 189.597 108.747,194.588 108.845,196.218 108.315 C 197.112 108.025,197.092 108.021,194.760 108.010 C 193.186 108.003,191.943 107.877,191.042 107.633 C 189.632 107.251,187.320 107.039,186.510 107.217 M209.219 107.650 C 207.131 107.845,208.538 108.125,211.604 108.125 C 214.033 108.125,214.814 108.064,214.640 107.890 C 214.400 107.650,210.883 107.494,209.219 107.650 M136.756 116.490 C 125.560 117.762,125.572 132.171,136.771 134.997 C 140.735 135.997,143.247 138.266,142.676 140.332 C 141.739 143.726,136.161 143.710,131.975 140.301 L 130.810 139.352 129.207 140.803 C 128.326 141.601,127.296 142.575,126.920 142.967 L 126.236 143.680 127.233 144.609 C 130.558 147.710,134.081 149.057,138.870 149.060 L 141.802 149.063 143.588 148.178 C 148.837 145.577,150.713 139.474,147.705 134.787 C 146.139 132.347,142.922 130.245,138.778 128.956 C 135.599 127.967,134.766 127.270,134.741 125.575 C 134.685 121.912,139.506 121.759,144.792 125.255 L 145.313 125.600 146.950 122.892 C 147.851 121.403,148.554 120.156,148.513 120.121 C 145.599 117.636,140.506 116.063,136.756 116.490 M232.438 116.581 C 220.303 118.774,214.807 133.181,222.402 142.888 C 227.785 149.768,237.917 151.190,244.957 146.054 L 245.851 145.402 243.936 143.215 C 241.585 140.530,241.966 140.708,240.369 141.541 C 232.528 145.628,223.614 137.976,226.452 129.595 C 228.268 124.231,234.422 121.458,239.630 123.656 C 241.495 124.443,241.399 124.482,243.496 122.083 C 245.787 119.461,245.751 119.867,243.802 118.697 C 240.290 116.590,236.398 115.865,232.438 116.581 M168.360 117.656 C 168.141 118.086,164.530 125.170,160.335 133.399 C 156.140 141.628,152.708 148.401,152.708 148.451 C 152.708 148.501,154.301 148.542,156.249 148.542 L 159.789 148.542 161.250 145.625 L 162.711 142.708 169.286 142.708 L 175.862 142.708 177.239 145.625 L 178.616 148.542 182.112 148.542 L 185.608 148.542 185.252 147.727 C 185.056 147.279,181.708 140.157,177.813 131.899 L 170.729 116.886 169.744 116.880 C 168.813 116.875,168.736 116.918,168.360 117.656 M189.221 127.865 C 189.309 139.900,189.292 139.719,190.619 142.414 C 194.996 151.307,208.348 151.179,212.591 142.204 C 213.857 139.525,213.797 140.300,213.770 126.927 L 213.750 116.875 210.632 116.875 L 207.514 116.875 207.455 127.656 L 207.396 138.438 206.831 139.508 C 204.932 143.109,200.255 143.824,197.382 140.951 C 195.589 139.158,195.625 139.437,195.625 127.359 L 195.625 116.875 192.383 116.875 L 189.140 116.875 189.221 127.865 M251.458 132.708 L 251.458 148.542 261.979 148.542 L 272.500 148.542 272.500 145.417 L 272.500 142.292 265.208 142.292 L 257.917 142.292 257.917 138.854 L 257.917 135.417 263.958 135.417 L 270.000 135.417 270.000 132.188 L 270.000 128.958 263.958 128.958 L 257.917 128.958 257.917 126.042 L 257.917 123.125 265.313 123.125 L 272.708 123.125 272.708 120.000 L 272.708 116.875 262.083 116.875 L 251.458 116.875 251.458 132.708 M171.239 132.847 C 172.047 134.585,172.708 136.061,172.708 136.128 C 172.708 136.195,171.209 136.250,169.376 136.250 L 166.043 136.250 167.756 132.817 C 168.698 130.930,169.536 129.453,169.619 129.536 C 169.701 129.619,170.430 131.109,171.239 132.847 " stroke="none" fill="#fa3535" fill-rule="evenodd"></path><path id="path3" d="M238.436 92.292 L 238.438 108.229 248.906 108.232 L 259.375 108.235 248.960 108.178 L 238.544 108.121 238.489 92.238 L 238.434 76.354 238.436 92.292 M153.597 82.441 C 153.913 82.489,154.382 82.488,154.638 82.438 C 154.895 82.389,154.635 82.350,154.063 82.351 C 153.490 82.353,153.280 82.393,153.597 82.441 M244.874 85.729 C 244.874 87.333,244.907 87.962,244.947 87.126 C 244.986 86.291,244.986 84.978,244.946 84.210 C 244.906 83.441,244.874 84.125,244.874 85.729 M137.557 92.292 C 137.557 92.807,137.597 93.018,137.647 92.760 C 137.697 92.503,137.697 92.081,137.647 91.823 C 137.597 91.565,137.557 91.776,137.557 92.292 M129.883 92.760 L 129.271 93.438 129.948 92.826 C 130.320 92.489,130.625 92.184,130.625 92.149 C 130.625 91.988,130.453 92.129,129.883 92.760 M215.930 94.844 L 214.896 95.938 215.990 94.904 C 216.591 94.335,217.083 93.843,217.083 93.810 C 217.083 93.654,216.890 93.827,215.930 94.844 M244.876 98.333 C 244.876 100.224,244.908 100.997,244.947 100.052 C 244.985 99.107,244.985 97.560,244.947 96.615 C 244.908 95.669,244.876 96.443,244.876 98.333 M141.875 103.399 C 141.875 103.434,142.180 103.739,142.552 104.076 L 143.229 104.688 142.617 104.010 C 142.047 103.379,141.875 103.238,141.875 103.399 M128.490 108.280 C 129.435 108.319,130.982 108.319,131.927 108.280 C 132.872 108.241,132.099 108.210,130.208 108.210 C 128.318 108.210,127.544 108.241,128.490 108.280 M275.052 108.280 C 275.940 108.319,277.393 108.319,278.281 108.280 C 279.169 108.241,278.443 108.209,276.667 108.209 C 274.891 108.209,274.164 108.241,275.052 108.280 M168.673 116.831 C 168.617 116.922,168.916 116.964,169.338 116.924 C 170.626 116.802,170.778 116.716,169.752 116.691 C 169.214 116.678,168.729 116.741,168.673 116.831 M190.791 116.822 C 191.742 116.861,193.242 116.860,194.124 116.821 C 195.007 116.782,194.229 116.751,192.396 116.751 C 190.563 116.751,189.840 116.783,190.791 116.822 M207.389 116.922 C 207.333 117.068,207.313 121.641,207.344 127.083 L 207.400 136.979 207.450 126.927 L 207.500 116.875 210.623 116.875 L 213.746 116.875 213.803 126.823 L 213.860 136.771 213.857 126.771 L 213.854 116.771 210.673 116.713 C 208.242 116.669,207.467 116.719,207.389 116.922 M256.719 116.823 C 259.669 116.855,264.497 116.855,267.448 116.823 C 270.398 116.790,267.984 116.763,262.083 116.763 C 256.182 116.763,253.768 116.790,256.719 116.823 M223.542 121.146 C 223.036 121.661,222.668 122.083,222.726 122.083 C 222.783 122.083,223.244 121.661,223.750 121.146 C 224.256 120.630,224.623 120.208,224.566 120.208 C 224.509 120.208,224.048 120.630,223.542 121.146 M228.633 125.885 L 228.021 126.563 228.698 125.951 C 229.329 125.380,229.471 125.208,229.310 125.208 C 229.274 125.208,228.969 125.513,228.633 125.885 M270.084 132.188 C 270.085 134.021,270.116 134.743,270.155 133.792 C 270.194 132.841,270.194 131.341,270.155 130.459 C 270.116 129.576,270.084 130.354,270.084 132.188 M130.208 131.315 C 130.208 131.351,130.513 131.656,130.885 131.992 L 131.563 132.604 130.951 131.927 C 130.380 131.296,130.208 131.154,130.208 131.315 M218.803 131.979 C 218.805 132.438,218.848 132.600,218.897 132.341 C 218.947 132.082,218.945 131.707,218.893 131.508 C 218.841 131.309,218.800 131.521,218.803 131.979 M145.833 132.565 C 145.833 132.601,146.138 132.906,146.510 133.242 L 147.188 133.854 146.576 133.177 C 146.005 132.546,145.833 132.404,145.833 132.565 M218.803 133.646 C 218.805 134.104,218.848 134.267,218.897 134.008 C 218.947 133.749,218.945 133.374,218.893 133.175 C 218.841 132.975,218.800 133.188,218.803 133.646 M129.989 139.948 L 129.271 140.729 130.052 140.011 C 130.482 139.616,130.833 139.265,130.833 139.230 C 130.833 139.071,130.657 139.221,129.989 139.948 M261.510 142.239 C 263.544 142.273,266.872 142.273,268.906 142.239 C 270.940 142.205,269.276 142.177,265.208 142.177 C 261.141 142.177,259.477 142.205,261.510 142.239 M126.758 142.969 L 126.146 143.646 126.823 143.034 C 127.195 142.697,127.500 142.393,127.500 142.357 C 127.500 142.196,127.328 142.338,126.758 142.969 M138.700 142.856 C 138.959 142.906,139.334 142.904,139.534 142.851 C 139.733 142.799,139.521 142.759,139.063 142.761 C 138.604 142.763,138.441 142.806,138.700 142.856 M126.250 143.815 C 126.250 143.851,126.555 144.156,126.927 144.492 L 127.604 145.104 126.992 144.427 C 126.422 143.796,126.250 143.654,126.250 143.815 M192.708 145.521 C 193.097 145.922,193.462 146.250,193.519 146.250 C 193.577 146.250,193.305 145.922,192.917 145.521 C 192.528 145.120,192.163 144.792,192.106 144.792 C 192.048 144.792,192.320 145.120,192.708 145.521 M210.197 145.573 L 209.479 146.354 210.260 145.636 C 210.988 144.968,211.137 144.792,210.978 144.792 C 210.944 144.792,210.592 145.143,210.197 145.573 M152.682 148.599 C 152.771 148.688,154.430 148.734,156.370 148.703 L 159.896 148.645 156.208 148.541 C 154.179 148.484,152.593 148.510,152.682 148.599 M180.479 148.697 C 181.487 148.735,183.081 148.735,184.021 148.696 C 184.960 148.658,184.135 148.627,182.188 148.627 C 180.240 148.627,179.471 148.659,180.479 148.697 M256.733 148.698 C 259.692 148.730,264.473 148.730,267.358 148.698 C 270.244 148.665,267.823 148.638,261.979 148.638 C 256.135 148.638,253.775 148.665,256.733 148.698 M139.010 149.310 C 139.211 149.363,139.539 149.363,139.740 149.310 C 139.940 149.258,139.776 149.215,139.375 149.215 C 138.974 149.215,138.810 149.258,139.010 149.310 M201.649 183.816 C 201.743 183.910,202.184 183.955,202.629 183.916 L 203.438 183.845 202.458 183.745 C 201.919 183.690,201.555 183.721,201.649 183.816 M199.740 191.605 C 199.997 191.655,200.419 191.655,200.677 191.605 C 200.935 191.556,200.724 191.515,200.208 191.515 C 199.693 191.515,199.482 191.556,199.740 191.605 M203.542 191.667 C 203.542 191.928,203.763 191.928,204.167 191.667 C 204.419 191.503,204.389 191.464,204.010 191.462 C 203.753 191.460,203.542 191.552,203.542 191.667 M200.156 192.647 C 200.414 192.697,200.836 192.697,201.094 192.647 C 201.352 192.597,201.141 192.557,200.625 192.557 C 200.109 192.557,199.898 192.597,200.156 192.647 M205.272 201.321 C 204.906 201.752,204.907 201.755,205.292 201.455 C 205.511 201.285,205.862 201.175,206.074 201.211 C 206.584 201.298,206.568 201.119,206.054 200.984 C 205.801 200.918,205.507 201.045,205.272 201.321 M204.045 202.945 C 203.984 203.044,204.221 203.125,204.571 203.125 C 204.922 203.125,205.208 203.089,205.208 203.045 C 205.208 202.868,204.149 202.777,204.045 202.945 M198.177 204.102 C 198.378 204.154,198.706 204.154,198.906 204.102 C 199.107 204.050,198.943 204.007,198.542 204.007 C 198.141 204.007,197.977 204.050,198.177 204.102 M210.071 205.938 C 210.072 206.854,210.109 207.203,210.153 206.713 C 210.197 206.223,210.196 205.473,210.151 205.047 C 210.107 204.620,210.071 205.021,210.071 205.938 M189.632 206.042 C 189.632 206.443,189.675 206.607,189.727 206.406 C 189.779 206.206,189.779 205.878,189.727 205.677 C 189.675 205.477,189.632 205.641,189.632 206.042 M198.842 205.605 C 198.906 205.709,199.146 205.745,199.375 205.685 C 199.948 205.535,199.897 205.417,199.259 205.417 C 198.965 205.417,198.778 205.502,198.842 205.605 M201.719 205.560 C 201.919 205.613,202.247 205.613,202.448 205.560 C 202.648 205.508,202.484 205.465,202.083 205.465 C 201.682 205.465,201.518 205.508,201.719 205.560 M201.410 205.984 C 201.784 206.031,202.347 206.030,202.660 205.982 C 202.973 205.935,202.667 205.897,201.979 205.898 C 201.292 205.899,201.036 205.938,201.410 205.984 M190.886 206.979 C 190.888 207.438,190.931 207.600,190.981 207.341 C 191.031 207.082,191.029 206.707,190.976 206.508 C 190.924 206.309,190.884 206.521,190.886 206.979 M199.511 206.406 C 199.457 206.492,199.991 206.536,200.696 206.504 C 202.853 206.406,203.109 206.314,201.314 206.281 C 200.376 206.264,199.564 206.320,199.511 206.406 M201.615 206.817 C 201.987 206.864,202.596 206.864,202.969 206.817 C 203.341 206.771,203.036 206.733,202.292 206.733 C 201.547 206.733,201.242 206.771,201.615 206.817 M192.292 207.263 C 192.292 207.361,192.526 207.397,192.813 207.343 C 193.099 207.288,193.333 207.207,193.333 207.163 C 193.333 207.119,193.099 207.083,192.813 207.083 C 192.526 207.083,192.292 207.164,192.292 207.263 M202.760 207.852 C 202.961 207.904,203.289 207.904,203.490 207.852 C 203.690 207.800,203.526 207.757,203.125 207.757 C 202.724 207.757,202.560 207.800,202.760 207.852 M202.448 208.897 C 202.706 208.947,203.128 208.947,203.385 208.897 C 203.643 208.847,203.432 208.807,202.917 208.807 C 202.401 208.807,202.190 208.847,202.448 208.897 M189.215 210.833 C 189.215 211.234,189.258 211.398,189.310 211.198 C 189.363 210.997,189.363 210.669,189.310 210.469 C 189.258 210.268,189.215 210.432,189.215 210.833 M211.335 213.854 C 211.335 215.802,211.366 216.627,211.405 215.687 C 211.443 214.748,211.444 213.154,211.405 212.146 C 211.367 211.137,211.335 211.906,211.335 213.854 M198.750 211.124 C 198.750 211.326,199.337 211.402,199.602 211.234 C 199.816 211.099,199.740 211.047,199.323 211.045 C 199.008 211.043,198.750 211.079,198.750 211.124 M210.283 213.125 C 210.283 214.214,210.319 214.659,210.361 214.115 C 210.404 213.570,210.404 212.680,210.361 212.135 C 210.319 211.591,210.283 212.036,210.283 213.125 M190.682 212.500 C 190.682 213.016,190.722 213.227,190.772 212.969 C 190.822 212.711,190.822 212.289,190.772 212.031 C 190.722 211.773,190.682 211.984,190.682 212.500 M189.229 216.667 C 189.229 217.297,189.268 217.555,189.316 217.240 C 189.364 216.924,189.364 216.409,189.316 216.094 C 189.268 215.779,189.229 216.036,189.229 216.667 M201.510 216.816 C 201.826 216.864,202.341 216.864,202.656 216.816 C 202.971 216.768,202.714 216.729,202.083 216.729 C 201.453 216.729,201.195 216.768,201.510 216.816 M194.792 217.083 L 194.063 217.237 194.727 217.264 C 195.093 217.279,195.450 217.198,195.521 217.083 C 195.592 216.969,195.621 216.887,195.585 216.902 C 195.550 216.918,195.193 216.999,194.792 217.083 M202.555 217.233 C 202.872 217.281,203.340 217.279,203.597 217.230 C 203.853 217.181,203.594 217.141,203.021 217.143 C 202.448 217.144,202.238 217.185,202.555 217.233 M190.476 218.229 C 190.478 218.802,190.518 219.012,190.566 218.695 C 190.614 218.378,190.613 217.910,190.563 217.653 C 190.514 217.397,190.475 217.656,190.476 218.229 M201.927 217.852 C 202.128 217.904,202.456 217.904,202.656 217.852 C 202.857 217.800,202.693 217.757,202.292 217.757 C 201.891 217.757,201.727 217.800,201.927 217.852 M202.552 218.274 C 202.867 218.322,203.383 218.322,203.698 218.274 C 204.013 218.226,203.755 218.187,203.125 218.187 C 202.495 218.187,202.237 218.226,202.552 218.274 M210.280 221.979 C 210.281 222.896,210.317 223.245,210.361 222.755 C 210.405 222.265,210.405 221.515,210.360 221.088 C 210.315 220.662,210.279 221.063,210.280 221.979 M189.241 223.229 C 189.240 224.260,189.275 224.709,189.319 224.225 C 189.363 223.742,189.363 222.898,189.320 222.350 C 189.277 221.802,189.241 222.198,189.241 223.229 M211.094 224.271 C 211.097 224.729,211.139 224.892,211.189 224.633 C 211.239 224.374,211.237 223.999,211.185 223.800 C 211.133 223.600,211.092 223.813,211.094 224.271 M199.167 223.832 C 199.167 224.034,199.754 224.110,200.019 223.942 C 200.233 223.807,200.157 223.756,199.740 223.753 C 199.424 223.751,199.167 223.787,199.167 223.832 " stroke="none" fill="#7a7070" fill-rule="evenodd"></path><path id="path4" d="M111.346 76.510 C 111.291 76.654,111.271 83.849,111.302 92.500 L 111.357 108.229 111.408 92.347 L 111.458 76.464 117.760 76.406 L 124.063 76.348 117.754 76.299 C 112.862 76.261,111.423 76.308,111.346 76.510 M214.673 81.458 C 214.673 84.266,214.703 85.414,214.739 84.010 C 214.775 82.607,214.775 80.310,214.739 78.906 C 214.703 77.503,214.673 78.651,214.673 81.458 M264.667 79.583 C 264.667 81.359,264.699 82.086,264.738 81.198 C 264.777 80.310,264.777 78.857,264.738 77.969 C 264.699 77.081,264.667 77.807,264.667 79.583 M288.626 79.583 C 288.626 81.359,288.657 82.086,288.697 81.198 C 288.736 80.310,288.736 78.857,288.697 77.969 C 288.657 77.081,288.626 77.807,288.626 79.583 M142.383 80.677 L 141.771 81.354 142.448 80.742 C 142.820 80.406,143.125 80.101,143.125 80.065 C 143.125 79.904,142.953 80.046,142.383 80.677 M132.757 85.833 C 132.757 86.234,132.800 86.398,132.852 86.198 C 132.904 85.997,132.904 85.669,132.852 85.469 C 132.800 85.268,132.757 85.432,132.757 85.833 M119.228 89.113 C 120.122 89.153,121.528 89.152,122.353 89.113 C 123.179 89.073,122.448 89.041,120.729 89.042 C 119.010 89.042,118.335 89.074,119.228 89.113 M170.485 92.188 C 170.486 92.990,170.524 93.292,170.569 92.860 C 170.614 92.428,170.613 91.771,170.567 91.402 C 170.521 91.032,170.484 91.385,170.485 92.188 M182.771 92.292 C 182.771 92.922,182.810 93.180,182.858 92.865 C 182.905 92.549,182.905 92.034,182.858 91.719 C 182.810 91.404,182.771 91.661,182.771 92.292 M247.969 94.947 C 249.659 94.982,252.424 94.982,254.115 94.947 C 255.805 94.912,254.422 94.884,251.042 94.884 C 247.661 94.884,246.279 94.912,247.969 94.947 M214.675 101.979 C 214.675 105.302,214.704 106.632,214.739 104.935 C 214.774 103.238,214.774 100.519,214.739 98.894 C 214.704 97.268,214.675 98.656,214.675 101.979 M153.802 102.227 C 154.003 102.279,154.331 102.279,154.531 102.227 C 154.732 102.175,154.568 102.132,154.167 102.132 C 153.766 102.132,153.602 102.175,153.802 102.227 M165.614 103.906 L 164.896 104.688 165.677 103.970 C 166.404 103.301,166.554 103.125,166.395 103.125 C 166.360 103.125,166.009 103.477,165.614 103.906 M201.980 181.666 C 201.902 181.792,202.160 181.875,202.627 181.875 C 203.492 181.875,203.504 181.791,202.669 181.591 C 202.361 181.517,202.051 181.551,201.980 181.666 M201.875 182.708 C 201.875 182.823,202.133 182.910,202.448 182.902 C 202.956 182.889,202.973 182.867,202.604 182.708 C 202.035 182.464,201.875 182.464,201.875 182.708 M201.563 186.875 C 201.633 186.990,201.897 187.077,202.148 187.069 C 202.588 187.055,202.589 187.048,202.188 186.875 C 201.614 186.629,201.410 186.629,201.563 186.875 M201.146 188.958 C 201.069 189.082,201.297 189.161,201.706 189.152 C 202.281 189.140,202.326 189.108,201.979 188.958 C 201.414 188.715,201.296 188.715,201.146 188.958 M200.729 190.000 C 200.431 190.128,200.639 190.177,201.458 190.173 C 202.333 190.168,202.481 190.127,202.083 190.000 C 201.409 189.784,201.232 189.784,200.729 190.000 M201.827 191.609 C 202.201 191.656,202.764 191.655,203.077 191.607 C 203.390 191.560,203.083 191.522,202.396 191.523 C 201.708 191.524,201.452 191.563,201.827 191.609 M199.844 192.101 C 200.296 192.208,200.954 192.208,201.406 192.101 C 202.084 191.941,201.980 191.917,200.625 191.917 C 199.270 191.917,199.166 191.941,199.844 192.101 M206.253 199.844 C 206.251 200.089,206.404 200.203,206.719 200.192 C 207.032 200.181,207.084 200.136,206.875 200.056 C 206.703 199.991,206.494 199.834,206.409 199.708 C 206.315 199.567,206.255 199.619,206.253 199.844 M205.197 201.197 C 204.568 201.881,204.559 201.907,205.119 201.403 C 205.470 201.086,205.806 200.876,205.865 200.935 C 205.924 200.993,205.972 200.901,205.972 200.729 C 205.972 200.328,206.028 200.294,205.197 201.197 M209.632 201.250 C 209.632 201.651,209.675 201.815,209.727 201.615 C 209.779 201.414,209.779 201.086,209.727 200.885 C 209.675 200.685,209.632 200.849,209.632 201.250 M197.097 201.338 C 196.954 201.510,196.934 201.679,197.050 201.750 C 197.157 201.816,197.353 201.739,197.487 201.579 C 197.630 201.406,197.649 201.238,197.534 201.167 C 197.427 201.100,197.230 201.178,197.097 201.338 M205.313 201.889 C 204.973 202.023,205.022 202.057,205.573 202.069 C 206.277 202.084,206.436 201.989,205.990 201.822 C 205.846 201.768,205.542 201.799,205.313 201.889 M190.048 202.500 C 190.048 202.901,190.091 203.065,190.144 202.865 C 190.196 202.664,190.196 202.336,190.144 202.135 C 190.091 201.935,190.048 202.099,190.048 202.500 M191.042 202.592 C 191.042 202.872,191.118 203.148,191.212 203.206 C 191.306 203.264,191.342 203.035,191.293 202.697 C 191.184 201.953,191.042 201.893,191.042 202.592 M210.886 204.063 C 210.888 204.521,210.931 204.684,210.981 204.425 C 211.031 204.166,211.029 203.791,210.976 203.591 C 210.924 203.392,210.884 203.604,210.886 204.063 M189.840 205.000 C 189.840 205.401,189.883 205.565,189.935 205.365 C 189.988 205.164,189.988 204.836,189.935 204.635 C 189.883 204.435,189.840 204.599,189.840 205.000 M200.784 204.939 C 201.043 204.989,201.418 204.987,201.617 204.935 C 201.816 204.883,201.604 204.842,201.146 204.844 C 200.688 204.847,200.525 204.889,200.784 204.939 M211.116 208.646 C 211.115 209.677,211.150 210.125,211.194 209.642 C 211.238 209.158,211.238 208.314,211.195 207.767 C 211.152 207.219,211.116 207.615,211.116 208.646 M210.283 209.167 C 210.283 210.255,210.319 210.701,210.361 210.156 C 210.404 209.612,210.404 208.721,210.361 208.177 C 210.319 207.633,210.283 208.078,210.283 209.167 M190.693 209.063 C 190.694 209.865,190.732 210.167,190.777 209.735 C 190.822 209.303,190.821 208.646,190.775 208.277 C 190.729 207.907,190.692 208.260,190.693 209.063 M199.747 208.555 C 200.253 208.655,200.840 208.650,201.101 208.545 C 201.439 208.410,201.199 208.362,200.208 208.369 C 198.895 208.379,198.881 208.384,199.747 208.555 M202.867 208.481 C 203.126 208.531,203.501 208.529,203.700 208.476 C 203.900 208.424,203.688 208.384,203.229 208.386 C 202.771 208.388,202.608 208.431,202.867 208.481 M189.432 209.792 C 189.432 210.307,189.472 210.518,189.522 210.260 C 189.572 210.003,189.572 209.581,189.522 209.323 C 189.472 209.065,189.432 209.276,189.432 209.792 M201.406 209.736 C 201.893 209.780,202.690 209.780,203.177 209.736 C 203.664 209.692,203.266 209.656,202.292 209.656 C 201.318 209.656,200.919 209.692,201.406 209.736 M194.167 210.417 C 193.677 210.573,193.687 210.585,194.335 210.604 C 194.746 210.617,194.973 210.541,194.896 210.417 C 194.825 210.302,194.749 210.218,194.727 210.229 C 194.705 210.241,194.453 210.325,194.167 210.417 M200.226 210.414 C 200.421 210.528,201.104 210.536,201.893 210.434 L 203.229 210.261 201.563 210.241 C 200.449 210.228,200.005 210.285,200.226 210.414 M201.927 211.611 C 202.471 211.654,203.362 211.654,203.906 211.611 C 204.451 211.569,204.005 211.533,202.917 211.533 C 201.828 211.533,201.383 211.569,201.927 211.611 M189.243 213.646 C 189.243 214.792,189.278 215.234,189.321 214.628 C 189.363 214.023,189.362 213.086,189.320 212.545 C 189.277 212.005,189.242 212.500,189.243 213.646 M194.375 212.500 L 193.854 212.667 194.427 212.688 C 194.742 212.699,195.000 212.615,195.000 212.500 C 195.000 212.385,194.977 212.301,194.948 212.312 C 194.919 212.324,194.661 212.408,194.375 212.500 M201.933 212.653 C 202.481 212.696,203.325 212.696,203.808 212.652 C 204.292 212.609,203.844 212.573,202.813 212.574 C 201.781 212.575,201.386 212.610,201.933 212.653 M190.487 214.583 C 190.487 215.443,190.523 215.794,190.568 215.365 C 190.613 214.935,190.613 214.232,190.568 213.802 C 190.523 213.372,190.487 213.724,190.487 214.583 M192.292 213.207 C 192.292 213.409,192.879 213.485,193.144 213.317 C 193.358 213.182,193.282 213.131,192.865 213.128 C 192.549 213.126,192.292 213.162,192.292 213.207 M194.167 213.542 C 193.677 213.698,193.687 213.710,194.335 213.729 C 194.746 213.742,194.973 213.666,194.896 213.542 C 194.825 213.427,194.749 213.343,194.727 213.354 C 194.705 213.366,194.453 213.450,194.167 213.542 M200.543 213.574 C 200.835 213.716,201.285 213.719,201.897 213.582 L 202.813 213.378 201.458 213.370 C 200.394 213.363,200.198 213.407,200.543 213.574 M203.492 213.689 C 203.751 213.739,204.126 213.737,204.325 213.685 C 204.525 213.633,204.313 213.592,203.854 213.594 C 203.396 213.597,203.233 213.639,203.492 213.689 M200.313 214.570 C 200.542 214.663,201.339 214.670,202.083 214.585 L 203.438 214.432 201.667 214.417 C 200.574 214.407,200.055 214.466,200.313 214.570 M210.498 217.708 C 210.498 219.255,210.531 219.888,210.571 219.115 C 210.611 218.341,210.611 217.076,210.571 216.302 C 210.531 215.529,210.498 216.161,210.498 217.708 M200.748 215.831 C 200.879 215.963,201.406 215.972,202.196 215.857 L 203.438 215.676 201.990 215.650 C 201.034 215.634,200.612 215.695,200.748 215.831 M199.392 216.741 C 199.613 216.931,201.042 217.035,201.042 216.862 C 201.042 216.755,200.651 216.667,200.174 216.667 C 199.696 216.667,199.345 216.700,199.392 216.741 M211.121 219.688 C 211.122 221.063,211.155 221.598,211.196 220.877 C 211.237 220.157,211.237 219.032,211.195 218.377 C 211.154 217.723,211.121 218.313,211.121 219.688 M189.452 219.583 C 189.452 220.786,189.487 221.279,189.529 220.677 C 189.571 220.076,189.571 219.091,189.529 218.490 C 189.487 217.888,189.452 218.380,189.452 219.583 M200.253 217.948 C 200.633 218.087,200.939 218.084,201.190 217.938 C 201.486 217.765,201.371 217.723,200.625 217.731 C 199.760 217.740,199.731 217.757,200.253 217.948 M203.284 217.856 C 203.543 217.906,203.918 217.904,204.117 217.851 C 204.316 217.799,204.104 217.759,203.646 217.761 C 203.188 217.763,203.025 217.806,203.284 217.856 M194.583 219.167 L 194.063 219.333 194.635 219.354 C 194.951 219.366,195.208 219.281,195.208 219.167 C 195.208 219.052,195.185 218.968,195.156 218.979 C 195.128 218.991,194.870 219.075,194.583 219.167 M201.617 219.106 C 201.876 219.156,202.251 219.154,202.450 219.101 C 202.650 219.049,202.438 219.009,201.979 219.011 C 201.521 219.013,201.358 219.056,201.617 219.106 M204.844 219.102 C 205.044 219.154,205.372 219.154,205.573 219.102 C 205.773 219.050,205.609 219.007,205.208 219.007 C 204.807 219.007,204.643 219.050,204.844 219.102 M190.291 222.083 C 190.291 223.745,190.323 224.424,190.363 223.594 C 190.403 222.763,190.403 221.404,190.363 220.573 C 190.323 219.742,190.291 220.422,190.291 222.083 M194.479 220.000 C 193.862 220.157,193.864 220.159,194.648 220.184 C 195.129 220.199,195.391 220.126,195.313 220.000 C 195.242 219.885,195.166 219.803,195.144 219.816 C 195.122 219.830,194.823 219.913,194.479 220.000 M202.245 220.153 C 202.735 220.197,203.485 220.196,203.912 220.151 C 204.338 220.107,203.938 220.071,203.021 220.071 C 202.104 220.072,201.755 220.109,202.245 220.153 M202.552 221.191 C 202.867 221.239,203.383 221.239,203.698 221.191 C 204.013 221.143,203.755 221.104,203.125 221.104 C 202.495 221.104,202.237 221.143,202.552 221.191 M202.037 222.236 C 202.527 222.280,203.277 222.280,203.703 222.235 C 204.130 222.190,203.729 222.154,202.813 222.155 C 201.896 222.156,201.547 222.192,202.037 222.236 M200.990 223.176 C 201.459 223.327,201.874 223.327,202.344 223.176 C 202.961 222.979,202.900 222.959,201.667 222.959 C 200.433 222.959,200.373 222.979,200.990 223.176 M203.490 223.272 C 203.747 223.322,204.169 223.322,204.427 223.272 C 204.685 223.222,204.474 223.182,203.958 223.182 C 203.443 223.182,203.232 223.222,203.490 223.272 M202.347 224.316 C 202.663 224.364,203.132 224.363,203.388 224.313 C 203.645 224.264,203.385 224.225,202.813 224.226 C 202.240 224.228,202.030 224.268,202.347 224.316 " stroke="none" fill="#949494" fill-rule="evenodd"></path><path id="path5" d="M210.062 76.405 C 210.955 76.444,212.361 76.444,213.187 76.404 C 214.012 76.365,213.281 76.333,211.563 76.333 C 209.844 76.334,209.168 76.366,210.062 76.405 M226.198 76.405 C 227.372 76.443,229.294 76.443,230.469 76.405 C 231.643 76.368,230.682 76.338,228.333 76.338 C 225.984 76.338,225.023 76.368,226.198 76.405 M249.005 76.405 L 259.573 76.462 259.638 79.585 L 259.704 82.709 259.696 79.531 L 259.688 76.354 249.063 76.351 L 238.438 76.348 249.005 76.405 M270.677 76.406 C 273.971 76.438,279.362 76.438,282.656 76.406 C 285.951 76.374,283.255 76.348,276.667 76.348 C 270.078 76.348,267.383 76.374,270.677 76.406 M279.890 95.521 C 279.890 102.510,279.916 105.340,279.948 101.808 C 279.980 98.276,279.980 92.557,279.948 89.100 C 279.916 85.642,279.890 88.531,279.890 95.521 M248.476 101.823 C 250.445 101.857,253.727 101.857,255.768 101.823 C 257.809 101.789,256.198 101.761,252.188 101.760 C 248.177 101.760,246.507 101.788,248.476 101.823 M190.882 205.625 C 190.882 206.026,190.925 206.190,190.977 205.990 C 191.029 205.789,191.029 205.461,190.977 205.260 C 190.925 205.060,190.882 205.224,190.882 205.625 M190.673 211.042 C 190.673 211.443,190.716 211.607,190.769 211.406 C 190.821 211.206,190.821 210.878,190.769 210.677 C 190.716 210.477,190.673 210.641,190.673 211.042 M190.465 216.667 C 190.465 217.068,190.508 217.232,190.560 217.031 C 190.613 216.831,190.613 216.503,190.560 216.302 C 190.508 216.102,190.465 216.266,190.465 216.667 M211.094 222.813 C 211.097 223.271,211.139 223.434,211.189 223.175 C 211.239 222.916,211.237 222.541,211.185 222.341 C 211.133 222.142,211.092 222.354,211.094 222.813 " stroke="none" fill="#8c8c8c" fill-rule="evenodd"></path></g></svg>