<svg id="svg" version="1.1" xmlns="http://www.w3.org/2000/svg" xmlns:xlink="http://www.w3.org/1999/xlink" width="400" height="225" viewBox="0, 0, 400,225"><g id="svgg"><path id="path0" d="M151.771 75.968 C 140.675 77.755,134.531 89.499,139.470 99.479 C 147.148 114.994,170.417 109.467,170.417 92.128 C 170.417 82.314,161.320 74.430,151.771 75.968 M190.350 76.055 C 178.876 77.374,172.383 89.692,177.727 100.000 C 182.160 108.553,193.216 111.330,201.345 105.934 C 201.980 105.513,202.500 105.079,202.500 104.970 C 202.500 104.718,198.707 100.390,198.553 100.466 C 198.489 100.498,197.969 100.770,197.396 101.072 C 189.809 105.067,181.222 98.639,182.986 90.286 C 184.252 84.296,190.836 80.838,196.458 83.209 C 197.203 83.524,197.938 83.797,198.091 83.817 C 198.687 83.896,202.284 79.516,201.940 79.129 C 200.290 77.275,194.074 75.627,190.350 76.055 M111.458 92.281 L 111.458 108.125 114.583 108.125 L 117.708 108.125 117.708 101.762 L 117.708 95.399 119.317 95.460 L 120.925 95.521 123.848 101.816 L 126.771 108.110 130.136 108.118 L 133.502 108.125 130.397 101.436 C 126.845 93.784,127.098 94.546,127.969 94.123 C 134.557 90.918,134.162 80.721,127.319 77.337 L 125.752 76.563 118.605 76.500 L 111.458 76.438 111.458 92.281 M208.333 92.292 L 208.333 108.125 211.458 108.125 L 214.583 108.125 214.583 102.129 L 214.583 96.133 215.846 94.889 C 216.956 93.796,217.138 93.687,217.356 93.986 C 217.493 94.174,219.337 97.431,221.454 101.226 L 225.304 108.125 229.006 108.125 C 231.042 108.125,232.708 108.087,232.708 108.040 C 232.708 107.992,230.286 103.844,227.324 98.821 C 224.363 93.797,221.829 89.478,221.693 89.221 C 221.464 88.788,221.829 88.329,226.869 82.707 C 229.852 79.380,232.292 76.613,232.292 76.558 C 232.292 76.503,230.419 76.458,228.130 76.458 L 223.968 76.458 219.432 81.458 C 216.937 84.208,214.826 86.458,214.740 86.458 C 214.654 86.458,214.583 84.208,214.583 81.458 L 214.583 76.458 211.458 76.458 L 208.333 76.458 208.333 92.292 M238.542 92.292 L 238.542 108.125 249.063 108.125 L 259.583 108.125 259.583 105.000 L 259.583 101.875 252.182 101.875 L 244.782 101.875 244.839 98.385 L 244.896 94.896 250.990 94.841 L 257.083 94.785 257.083 91.664 L 257.083 88.542 250.938 88.542 L 244.792 88.542 244.792 85.625 L 244.792 82.708 252.188 82.708 L 259.583 82.708 259.583 79.583 L 259.583 76.458 249.063 76.458 L 238.542 76.458 238.542 92.292 M264.792 79.583 L 264.792 82.708 269.167 82.708 L 273.542 82.708 273.542 95.417 L 273.542 108.125 276.667 108.125 L 279.792 108.125 279.792 95.417 L 279.792 82.708 284.167 82.708 L 288.542 82.708 288.542 79.583 L 288.542 76.458 276.667 76.458 L 264.792 76.458 264.792 79.583 M156.555 82.611 C 163.999 84.550,166.546 93.825,161.123 99.248 C 155.661 104.710,146.434 102.160,144.477 94.647 C 142.610 87.479,149.372 80.740,156.555 82.611 M125.000 83.177 C 126.428 84.152,126.892 86.177,125.990 87.502 C 124.999 88.957,124.701 89.055,121.027 89.133 L 117.708 89.203 117.708 85.956 L 117.708 82.708 121.011 82.708 C 124.093 82.708,124.359 82.740,125.000 83.177 M233.502 116.465 C 232.208 116.618,229.792 117.211,229.792 117.376 C 229.792 117.415,230.642 117.451,231.681 117.455 C 233.031 117.460,233.671 117.548,233.921 117.766 C 235.713 119.322,236.446 119.626,238.123 119.505 C 239.011 119.441,240.252 119.472,240.880 119.574 C 245.959 120.401,246.405 119.861,242.242 117.925 C 239.574 116.684,236.291 116.136,233.502 116.465 M135.197 116.851 C 133.813 117.294,131.735 118.391,132.069 118.502 C 132.199 118.546,132.424 118.482,132.570 118.362 C 132.715 118.242,134.007 118.048,135.442 117.931 C 137.799 117.740,140.417 117.012,140.417 116.547 C 140.417 116.276,136.234 116.519,135.197 116.851 M251.458 119.382 C 251.458 121.199,251.530 121.913,251.719 121.980 C 251.862 122.030,253.057 122.166,254.375 122.282 C 255.693 122.398,257.146 122.630,257.604 122.799 C 258.276 123.047,259.817 123.108,265.573 123.116 L 272.708 123.125 272.708 120.000 L 272.708 116.875 262.083 116.875 L 251.458 116.875 251.458 119.382 M199.934 174.125 C 199.746 174.333,199.023 175.716,198.327 177.199 C 197.632 178.682,196.650 180.740,196.145 181.771 C 195.640 182.802,195.038 184.402,194.807 185.326 C 194.575 186.251,194.243 187.348,194.069 187.766 C 192.835 190.718,191.127 198.239,190.533 203.333 C 189.825 209.409,189.168 218.157,189.167 221.525 L 189.167 225.029 189.635 224.962 L 190.104 224.896 190.353 218.258 C 190.490 214.608,190.654 211.568,190.719 211.503 C 190.784 211.438,192.078 211.566,193.596 211.786 C 198.405 212.486,204.833 212.172,208.489 211.060 C 210.108 210.567,209.933 209.953,210.087 216.667 C 210.237 223.237,210.360 225.000,210.669 225.000 C 211.005 225.000,210.734 211.214,210.325 207.500 C 209.833 203.027,209.213 199.568,208.421 196.876 C 208.033 195.558,207.287 192.885,206.764 190.938 C 205.248 185.296,204.556 183.312,202.404 178.438 C 200.059 173.125,200.361 173.652,199.934 174.125 M201.268 177.019 C 202.610 179.936,204.127 184.171,205.125 187.783 C 205.636 189.632,206.254 191.849,206.499 192.708 C 207.453 196.064,207.663 196.986,207.509 197.148 C 206.790 197.910,197.392 198.150,193.987 197.494 L 192.662 197.239 192.799 196.203 C 192.875 195.633,193.153 194.450,193.417 193.573 C 193.681 192.696,194.017 191.464,194.162 190.833 C 194.790 188.118,195.951 184.713,197.075 182.292 C 197.739 180.859,198.688 178.680,199.183 177.448 C 200.267 174.751,200.229 174.759,201.268 177.019 M202.083 185.417 C 201.829 185.581,201.856 185.619,202.227 185.622 C 202.478 185.624,202.742 185.531,202.813 185.417 C 202.976 185.151,202.494 185.151,202.083 185.417 M202.135 186.602 C 202.336 186.654,202.664 186.654,202.865 186.602 C 203.065 186.550,202.901 186.507,202.500 186.507 C 202.099 186.507,201.935 186.550,202.135 186.602 M202.396 187.500 L 201.771 187.659 202.540 187.684 C 202.963 187.697,203.367 187.615,203.438 187.500 C 203.582 187.266,203.314 187.266,202.396 187.500 M202.083 188.958 C 201.699 189.207,202.252 189.207,203.229 188.958 L 203.854 188.799 203.125 188.778 C 202.724 188.766,202.255 188.847,202.083 188.958 M202.604 189.792 L 201.771 189.941 202.604 189.956 C 203.063 189.964,203.625 189.890,203.854 189.792 L 204.271 189.613 203.854 189.628 C 203.625 189.636,203.063 189.710,202.604 189.792 M202.500 190.833 C 201.775 190.986,201.777 190.987,202.708 191.000 C 203.224 191.007,203.833 190.932,204.063 190.833 C 204.600 190.602,203.597 190.602,202.500 190.833 M202.917 191.902 C 201.266 192.172,201.140 192.312,202.670 192.176 C 203.965 192.061,205.431 191.679,204.479 191.704 C 204.250 191.710,203.547 191.800,202.917 191.902 M202.604 192.826 L 201.146 193.103 202.637 193.010 C 203.458 192.959,204.348 192.829,204.616 192.722 L 205.104 192.526 204.583 192.538 C 204.297 192.544,203.406 192.674,202.604 192.826 M203.229 193.868 L 201.563 194.143 203.021 194.065 C 203.823 194.022,204.714 193.893,205.000 193.778 C 205.666 193.510,205.294 193.529,203.229 193.868 M202.604 194.916 L 200.938 195.191 202.604 195.099 C 203.521 195.048,204.552 194.920,204.896 194.813 L 205.521 194.619 204.896 194.631 C 204.552 194.637,203.521 194.765,202.604 194.916 M202.917 195.955 L 201.354 196.231 202.917 196.138 C 203.776 196.087,204.760 195.959,205.104 195.853 L 205.729 195.661 205.104 195.670 C 204.760 195.675,203.776 195.803,202.917 195.955 M202.917 196.985 L 201.146 197.240 202.396 197.246 C 203.083 197.249,204.115 197.131,204.688 196.984 C 205.987 196.650,205.237 196.650,202.917 196.985 M207.988 198.937 C 208.468 200.137,209.583 207.630,209.583 209.656 C 209.583 210.017,207.280 210.669,204.271 211.161 C 200.876 211.715,191.745 211.203,190.956 210.414 C 190.718 210.177,191.036 207.059,191.804 202.083 C 192.453 197.875,192.341 198.233,192.918 198.543 C 193.587 198.901,204.306 198.825,205.833 198.451 C 207.568 198.027,207.629 198.041,207.988 198.937 M204.583 198.990 C 203.724 199.092,202.411 199.254,201.667 199.351 L 200.313 199.527 201.458 199.554 C 202.655 199.582,206.398 199.088,206.613 198.874 C 206.751 198.735,206.744 198.735,204.583 198.990 M194.167 199.583 C 194.339 199.694,194.667 199.780,194.896 199.774 L 195.313 199.762 194.896 199.583 C 194.273 199.316,193.753 199.316,194.167 199.583 M205.208 199.823 C 204.578 199.926,202.797 200.034,201.250 200.063 C 198.124 200.122,197.058 200.470,195.733 201.866 C 195.184 202.444,195.013 202.507,194.274 202.408 L 193.438 202.296 194.083 202.554 C 194.884 202.875,194.774 203.328,193.889 203.350 L 193.229 203.366 193.790 203.572 C 194.492 203.828,194.348 204.368,193.571 204.391 L 193.021 204.408 193.605 204.621 C 194.410 204.915,194.285 205.538,193.434 205.473 L 192.813 205.426 193.528 205.696 C 194.046 205.891,194.308 206.159,194.480 206.668 C 194.864 207.810,195.028 207.669,197.509 204.068 C 198.813 202.174,199.995 200.625,200.135 200.625 C 200.624 200.625,201.470 201.038,201.583 201.332 C 201.676 201.575,198.702 206.287,196.835 208.854 L 196.380 209.479 196.960 208.958 C 197.278 208.672,198.090 207.594,198.763 206.563 C 200.966 203.189,201.944 201.863,202.172 201.948 C 202.621 202.115,201.176 204.568,198.585 208.039 L 197.274 209.795 197.856 210.044 C 199.950 210.939,203.464 210.122,205.045 208.371 C 205.614 207.742,206.010 207.508,206.699 207.394 C 207.689 207.231,208.490 206.893,207.915 206.881 C 207.743 206.878,207.280 206.967,206.887 207.080 C 206.495 207.192,206.130 207.242,206.078 207.189 C 205.874 206.985,206.534 206.458,206.992 206.458 C 207.258 206.458,207.532 206.366,207.602 206.253 C 207.681 206.126,207.488 206.096,207.094 206.175 C 206.594 206.275,206.458 206.230,206.458 205.964 C 206.458 205.744,206.636 205.625,206.967 205.625 C 207.247 205.625,207.532 205.533,207.602 205.420 C 207.681 205.292,207.480 205.264,207.066 205.347 C 206.551 205.450,206.424 205.415,206.500 205.188 C 206.553 205.027,206.777 204.863,206.996 204.824 C 207.216 204.784,207.487 204.665,207.598 204.559 C 207.722 204.441,207.541 204.419,207.129 204.501 C 206.594 204.608,206.458 204.567,206.458 204.297 C 206.458 204.075,206.637 203.958,206.979 203.958 C 207.266 203.958,207.500 203.881,207.500 203.786 C 207.500 203.691,207.207 203.657,206.848 203.709 C 205.994 203.835,206.122 203.293,206.996 203.083 C 207.537 202.953,207.518 202.943,206.829 202.989 C 205.889 203.051,205.560 202.568,206.414 202.380 C 207.417 202.159,207.420 202.077,206.422 202.180 C 205.084 202.317,204.946 201.852,206.231 201.535 C 206.945 201.359,207.045 201.293,206.628 201.275 C 206.321 201.261,205.829 201.341,205.535 201.453 C 205.102 201.618,204.860 201.559,204.243 201.140 C 203.825 200.857,203.403 200.625,203.304 200.625 C 202.448 200.625,203.440 200.239,204.564 200.134 C 205.356 200.061,206.223 199.913,206.491 199.805 C 207.081 199.569,206.731 199.574,205.208 199.823 M194.063 200.625 C 194.641 200.874,195.050 200.874,194.896 200.625 C 194.825 200.510,194.515 200.423,194.206 200.431 C 193.706 200.444,193.690 200.465,194.063 200.625 M205.571 200.617 C 205.140 200.700,204.733 200.822,204.668 200.888 C 204.509 201.047,206.244 200.816,206.771 200.608 L 207.188 200.443 206.771 200.454 C 206.542 200.460,206.002 200.533,205.571 200.617 M193.854 201.458 C 194.477 201.726,194.997 201.726,194.583 201.458 C 194.411 201.347,194.083 201.262,193.854 201.268 L 193.438 201.279 193.854 201.458 M193.021 206.875 C 193.250 206.973,193.672 207.054,193.958 207.054 C 194.433 207.054,194.442 207.038,194.063 206.875 C 193.833 206.777,193.411 206.696,193.125 206.696 C 192.650 206.696,192.641 206.712,193.021 206.875 M192.917 207.917 C 193.089 208.028,193.464 208.113,193.750 208.107 C 194.227 208.097,194.236 208.081,193.854 207.917 C 193.238 207.652,192.507 207.652,192.917 207.917 M206.898 207.934 C 206.396 208.032,205.927 208.176,205.857 208.252 C 205.675 208.450,207.496 208.149,207.897 207.915 C 208.286 207.688,208.135 207.691,206.898 207.934 M206.483 208.863 C 205.000 209.185,204.431 209.492,205.729 209.270 C 206.931 209.064,208.125 208.749,208.125 208.638 C 208.125 208.513,208.053 208.523,206.483 208.863 M193.021 208.924 C 193.760 209.245,194.706 209.423,194.479 209.198 C 194.365 209.084,193.896 208.935,193.438 208.867 C 192.879 208.783,192.742 208.802,193.021 208.924 M205.521 209.916 L 204.271 210.196 205.587 210.086 C 206.972 209.970,208.352 209.596,207.292 209.623 C 207.005 209.631,206.208 209.763,205.521 209.916 M192.631 210.006 C 192.731 210.105,193.234 210.239,193.750 210.303 C 194.845 210.439,194.660 210.306,193.360 210.023 C 192.859 209.914,192.531 209.906,192.631 210.006 M205.625 212.536 C 204.995 212.644,203.354 212.814,201.979 212.913 L 199.479 213.095 202.396 213.016 C 204.000 212.973,205.828 212.802,206.458 212.637 C 207.760 212.297,207.330 212.245,205.625 212.536 M193.021 212.917 C 193.947 213.152,195.028 213.152,194.479 212.917 C 194.250 212.818,193.688 212.742,193.229 212.748 C 192.433 212.757,192.424 212.765,193.021 212.917 M205.833 213.361 C 205.318 213.465,203.724 213.636,202.292 213.739 L 199.688 213.927 202.500 213.852 C 204.047 213.811,205.828 213.641,206.458 213.475 C 207.726 213.139,207.305 213.062,205.833 213.361 M193.125 213.750 C 193.889 213.995,194.840 213.995,194.271 213.750 C 194.042 213.652,193.573 213.574,193.229 213.577 C 192.620 213.583,192.617 213.587,193.125 213.750 M205.938 214.401 C 205.365 214.504,203.677 214.673,202.188 214.778 L 199.479 214.969 202.500 214.888 C 204.161 214.843,206.083 214.672,206.771 214.508 C 208.147 214.179,207.585 214.108,205.938 214.401 M192.917 214.792 C 193.203 214.883,193.766 214.958,194.167 214.958 C 194.827 214.958,194.846 214.943,194.375 214.792 C 194.089 214.700,193.526 214.625,193.125 214.625 C 192.465 214.625,192.445 214.641,192.917 214.792 M206.667 215.433 C 206.151 215.530,204.510 215.694,203.021 215.796 L 200.313 215.982 202.500 216.004 C 204.477 216.025,207.779 215.623,208.077 215.326 C 208.224 215.179,207.863 215.206,206.667 215.433 M192.604 215.595 C 193.221 215.861,194.756 216.091,194.375 215.861 C 194.203 215.757,193.641 215.614,193.125 215.543 C 192.524 215.461,192.337 215.479,192.604 215.595 M205.625 216.467 C 204.995 216.554,203.260 216.648,201.771 216.675 C 199.286 216.720,199.174 216.738,200.417 216.893 C 201.771 217.062,205.886 216.809,207.292 216.469 C 208.271 216.232,207.332 216.231,205.625 216.467 M192.604 216.667 C 192.833 216.765,193.396 216.842,193.854 216.836 L 194.688 216.827 193.854 216.655 C 193.396 216.560,192.833 216.484,192.604 216.485 L 192.188 216.488 192.604 216.667 M205.625 217.311 C 204.880 217.407,203.427 217.569,202.396 217.672 C 200.522 217.859,200.522 217.859,201.875 217.887 C 203.332 217.918,206.475 217.583,207.433 217.296 C 208.225 217.058,207.547 217.064,205.625 217.311 M192.511 217.495 C 192.951 217.731,194.967 217.969,194.583 217.740 C 194.411 217.638,193.807 217.504,193.241 217.444 C 192.674 217.383,192.346 217.406,192.511 217.495 M206.146 218.343 C 205.573 218.432,203.839 218.525,202.292 218.550 C 199.560 218.593,199.521 218.600,200.938 218.789 C 202.382 218.981,205.871 218.746,207.500 218.346 C 208.442 218.116,207.619 218.113,206.146 218.343 M192.604 218.542 C 192.833 218.640,193.349 218.716,193.750 218.711 L 194.479 218.701 193.854 218.542 C 192.918 218.304,192.050 218.304,192.604 218.542 M206.042 219.384 C 205.411 219.471,203.677 219.563,202.188 219.589 C 199.520 219.635,199.501 219.639,200.938 219.830 C 202.382 220.022,205.871 219.787,207.500 219.388 C 208.427 219.161,207.671 219.159,206.042 219.384 M192.317 219.458 C 192.522 219.682,194.583 219.958,194.583 219.761 C 194.583 219.663,194.361 219.583,194.089 219.583 C 193.816 219.583,193.277 219.523,192.891 219.449 C 192.504 219.375,192.246 219.379,192.317 219.458 M206.146 220.328 C 205.115 220.477,203.521 220.673,202.604 220.763 C 201.339 220.887,201.138 220.944,201.771 221.000 C 202.791 221.090,206.152 220.709,207.708 220.327 C 209.139 219.976,208.579 219.976,206.146 220.328 M193.229 220.833 C 194.202 221.081,194.966 221.081,194.583 220.833 C 194.411 220.722,193.896 220.641,193.438 220.653 C 192.635 220.674,192.627 220.680,193.229 220.833 M206.844 221.390 C 206.655 221.440,205.202 221.612,203.615 221.771 L 200.729 222.062 203.229 221.965 C 205.437 221.880,209.421 221.301,207.813 221.299 C 207.469 221.299,207.033 221.339,206.844 221.390 M193.229 221.887 C 193.688 221.982,194.250 222.058,194.479 222.057 L 194.896 222.054 194.479 221.875 C 194.250 221.777,193.688 221.700,193.229 221.705 L 192.396 221.715 193.229 221.887 M205.729 222.727 C 205.042 222.823,203.682 222.986,202.708 223.089 L 200.938 223.275 202.292 223.303 C 203.590 223.330,207.666 222.820,207.882 222.604 C 208.017 222.469,207.283 222.511,205.729 222.727 M193.229 223.125 C 194.156 223.361,195.236 223.361,194.688 223.125 C 194.458 223.027,193.896 222.950,193.438 222.956 C 192.641 222.966,192.632 222.973,193.229 223.125 M205.729 223.890 C 205.500 223.935,204.234 224.057,202.917 224.160 L 200.521 224.347 203.333 224.264 C 204.880 224.218,206.474 224.093,206.875 223.986 L 207.604 223.793 206.875 223.800 C 206.474 223.804,205.958 223.844,205.729 223.890 M192.917 224.167 C 193.203 224.258,193.813 224.332,194.271 224.330 C 195.064 224.326,195.074 224.318,194.479 224.167 C 193.573 223.936,192.197 223.936,192.917 224.167 M206.510 224.935 C 206.711 224.988,207.039 224.988,207.240 224.935 C 207.440 224.883,207.276 224.840,206.875 224.840 C 206.474 224.840,206.310 224.883,206.510 224.935 " stroke="none" fill="#f8f8f8" fill-rule="evenodd"></path><path id="path1" d="M0.000 112.500 L 0.000 225.000 94.479 225.000 L 188.958 225.000 188.958 221.683 C 188.958 218.454,189.663 208.999,190.326 203.333 C 190.917 198.290,192.008 193.370,193.631 188.438 C 194.121 186.948,194.733 185.026,194.992 184.167 C 195.251 183.307,195.781 181.995,196.170 181.250 C 196.559 180.505,197.394 178.778,198.024 177.413 C 199.231 174.800,200.140 173.389,200.429 173.680 C 200.617 173.869,203.072 179.318,204.401 182.494 C 204.855 183.579,205.640 186.017,206.145 187.911 C 206.649 189.805,207.407 192.526,207.828 193.958 C 210.244 202.176,211.016 208.180,211.103 219.426 L 211.146 224.998 305.573 224.999 L 400.000 225.000 400.000 112.500 L 400.000 0.000 200.000 0.000 L 0.000 0.000 0.000 112.500 M158.193 76.273 C 169.003 78.955,174.034 91.693,167.995 101.094 C 161.522 111.170,146.780 111.274,140.325 101.290 C 132.151 88.647,143.578 72.648,158.193 76.273 M196.354 76.345 C 198.401 76.898,202.292 78.887,202.292 79.379 C 202.292 79.473,201.397 80.581,200.304 81.843 L 198.315 84.136 197.022 83.535 C 191.392 80.919,184.745 83.901,183.228 89.725 C 181.052 98.082,189.442 104.943,197.112 101.079 L 198.703 100.277 200.653 102.532 C 203.046 105.301,202.977 104.985,201.414 106.001 C 190.246 113.264,175.724 105.565,175.751 92.396 C 175.773 81.536,186.023 73.551,196.354 76.345 M125.250 76.481 C 133.603 78.230,135.617 90.345,128.185 94.136 L 127.323 94.576 130.433 101.270 C 132.143 104.952,133.542 108.048,133.542 108.149 C 133.542 108.454,126.962 108.380,126.726 108.073 C 126.616 107.930,125.232 105.023,123.650 101.615 L 120.773 95.417 119.241 95.417 L 117.708 95.417 117.708 101.771 L 117.708 108.125 114.479 108.125 L 111.250 108.125 111.250 92.188 L 111.250 76.250 117.698 76.250 C 121.619 76.250,124.579 76.341,125.250 76.481 M214.840 81.283 L 214.896 86.315 219.450 81.283 L 224.004 76.250 228.252 76.250 C 230.588 76.250,232.500 76.320,232.500 76.406 C 232.499 76.492,230.064 79.281,227.087 82.604 C 224.111 85.927,221.676 88.740,221.676 88.854 C 221.677 88.969,224.195 93.328,227.271 98.542 L 232.864 108.021 229.199 108.078 C 227.184 108.109,225.434 108.096,225.310 108.049 C 225.186 108.001,223.308 104.771,221.136 100.870 L 217.188 93.778 215.990 94.956 L 214.792 96.133 214.792 102.129 L 214.792 108.125 211.563 108.125 L 208.333 108.125 208.333 92.188 L 208.333 76.250 211.559 76.250 L 214.784 76.250 214.840 81.283 M259.792 79.479 L 259.792 82.708 252.396 82.708 L 245.000 82.708 245.000 85.625 L 245.000 88.542 251.042 88.542 L 257.083 88.542 257.083 91.771 L 257.083 95.000 251.042 95.000 L 245.000 95.000 245.000 98.333 L 245.000 101.667 252.297 101.667 L 259.594 101.667 259.537 104.948 L 259.479 108.229 248.958 108.229 L 238.438 108.229 238.384 92.500 C 238.354 83.849,238.375 76.654,238.429 76.510 C 238.507 76.307,240.847 76.250,249.160 76.250 L 259.792 76.250 259.792 79.479 M288.750 79.479 L 288.750 82.708 284.377 82.708 L 280.003 82.708 279.950 95.469 L 279.896 108.229 276.720 108.287 L 273.545 108.344 273.491 95.578 L 273.438 82.813 269.010 82.756 L 264.583 82.700 264.583 79.475 L 264.583 76.250 276.667 76.250 L 288.750 76.250 288.750 79.479 M151.354 82.793 C 144.065 85.107,141.882 94.186,147.378 99.327 C 155.472 106.899,167.812 97.575,162.797 87.677 C 160.806 83.749,155.489 81.479,151.354 82.793 M117.708 85.833 L 117.708 88.958 120.889 88.958 C 125.262 88.958,126.785 87.968,126.352 85.406 C 125.996 83.294,124.745 82.711,120.573 82.709 L 117.708 82.708 117.708 85.833 M142.396 116.888 C 144.579 117.563,148.542 119.731,148.542 120.250 C 148.542 120.443,145.769 125.076,145.406 125.489 C 145.321 125.586,144.729 125.331,144.091 124.923 C 139.379 121.909,134.792 122.166,134.792 125.443 C 134.792 127.253,135.497 127.821,139.283 129.062 C 146.064 131.283,149.310 134.899,149.123 140.023 C 148.776 149.538,136.507 152.448,127.656 145.114 C 125.884 143.646,125.844 143.826,128.505 141.324 L 130.753 139.211 131.877 140.144 C 136.375 143.879,142.708 143.507,142.708 139.508 C 142.708 137.947,139.702 135.747,136.563 135.012 C 125.969 132.529,125.409 119.201,135.788 116.559 C 137.410 116.146,140.494 116.300,142.396 116.888 M239.479 116.761 C 241.546 117.320,245.417 119.304,245.417 119.805 C 245.417 119.903,244.523 121.011,243.430 122.269 L 241.443 124.554 240.149 123.949 C 234.624 121.368,227.839 124.393,226.363 130.096 C 224.154 138.631,232.858 145.541,240.546 141.356 L 241.822 140.662 243.828 142.972 C 246.191 145.693,246.116 145.397,244.688 146.344 C 233.553 153.735,218.849 146.027,218.876 132.813 C 218.898 121.953,229.148 113.967,239.479 116.761 M178.166 132.500 C 182.257 141.151,185.610 148.349,185.615 148.495 C 185.623 148.702,184.857 148.748,182.135 148.703 L 178.646 148.646 177.203 145.677 L 175.760 142.708 169.286 142.712 L 162.813 142.715 161.269 145.733 L 159.725 148.750 156.229 148.750 C 154.306 148.750,152.695 148.680,152.649 148.594 C 152.603 148.508,154.362 144.922,156.558 140.625 C 158.754 136.328,162.404 129.175,164.669 124.729 L 168.786 116.645 169.756 116.708 L 170.726 116.771 178.166 132.500 M195.668 127.448 C 195.727 137.931,195.741 138.256,196.171 139.185 C 198.279 143.742,204.738 143.771,206.871 139.233 C 207.296 138.329,207.310 137.991,207.352 127.537 L 207.396 116.771 210.625 116.771 L 213.854 116.771 213.908 127.348 C 213.968 138.989,213.914 139.667,212.732 142.133 C 208.282 151.419,194.843 151.420,190.394 142.135 C 189.229 139.703,189.174 139.045,189.170 127.344 L 189.167 116.667 192.387 116.667 L 195.607 116.667 195.668 127.448 M272.708 119.896 L 272.708 123.125 265.313 123.125 L 257.917 123.125 257.917 126.042 L 257.917 128.958 264.063 128.958 L 270.208 128.958 270.208 132.188 L 270.208 135.417 264.063 135.417 L 257.917 135.417 257.917 138.750 L 257.917 142.083 265.208 142.083 L 272.500 142.083 272.500 145.417 L 272.500 148.750 261.979 148.750 L 251.458 148.750 251.458 132.708 L 251.458 116.667 262.083 116.667 L 272.708 116.667 272.708 119.896 M167.848 132.841 C 166.957 134.628,166.267 136.128,166.314 136.175 C 166.361 136.222,167.819 136.235,169.552 136.203 L 172.705 136.146 171.237 133.021 C 170.430 131.302,169.701 129.828,169.619 129.744 C 169.536 129.661,168.739 131.055,167.848 132.841 M199.686 176.797 C 199.360 177.585,198.352 179.917,197.446 181.979 C 196.041 185.174,194.851 188.687,194.164 191.667 C 194.072 192.068,193.745 193.361,193.437 194.540 C 193.130 195.719,192.926 196.808,192.985 196.960 C 193.363 197.945,203.287 198.177,206.692 197.280 L 207.446 197.082 207.277 196.197 C 207.185 195.711,206.956 194.891,206.769 194.375 C 206.582 193.859,206.103 192.132,205.705 190.536 C 204.535 185.844,202.154 179.024,200.690 176.170 L 200.277 175.365 199.686 176.797 M203.021 185.417 C 202.950 185.531,202.546 185.624,202.123 185.622 C 201.550 185.619,201.434 185.567,201.667 185.417 C 202.082 185.148,203.187 185.148,203.021 185.417 M203.333 186.449 C 203.333 186.713,201.973 186.960,201.642 186.756 C 201.453 186.639,201.491 186.552,201.785 186.437 C 202.367 186.209,203.333 186.216,203.333 186.449 M203.750 187.500 C 203.750 187.615,203.633 187.709,203.490 187.711 C 203.346 187.712,202.878 187.771,202.448 187.842 C 201.657 187.973,201.301 187.626,202.031 187.435 C 202.725 187.254,203.750 187.293,203.750 187.500 M203.958 188.726 C 203.958 188.980,203.195 189.160,202.101 189.164 C 201.074 189.167,201.084 188.994,202.125 188.747 C 203.091 188.518,203.958 188.508,203.958 188.726 M204.246 189.796 C 203.953 190.089,201.075 190.336,201.354 190.044 C 201.604 189.784,202.278 189.650,203.531 189.612 C 204.162 189.592,204.390 189.651,204.246 189.796 M204.303 190.869 C 203.769 191.168,201.250 191.347,201.250 191.087 C 201.250 190.964,201.789 190.804,202.448 190.731 C 203.107 190.659,203.786 190.575,203.958 190.545 C 204.452 190.458,204.670 190.664,204.303 190.869 M196.458 191.042 C 196.711 191.205,196.681 191.244,196.302 191.247 C 196.044 191.249,195.833 191.156,195.833 191.042 C 195.833 190.781,196.054 190.781,196.458 191.042 M204.853 191.897 C 204.607 192.143,200.845 192.446,201.073 192.201 C 201.252 192.009,202.987 191.722,204.156 191.691 C 204.833 191.673,205.021 191.729,204.853 191.897 M196.250 192.083 C 196.504 192.248,196.477 192.286,196.106 192.288 C 195.855 192.290,195.592 192.198,195.521 192.083 C 195.357 191.818,195.840 191.818,196.250 192.083 M204.897 192.762 C 204.489 192.990,200.866 193.257,201.063 193.044 C 201.234 192.859,204.850 192.330,205.079 192.457 C 205.179 192.512,205.098 192.650,204.897 192.762 M196.250 193.125 C 196.250 193.388,195.824 193.388,195.417 193.125 C 195.173 192.968,195.231 192.922,195.677 192.920 C 195.992 192.918,196.250 193.010,196.250 193.125 M205.417 193.737 C 204.595 194.217,200.625 194.596,200.625 194.195 C 200.625 194.016,203.326 193.626,204.896 193.579 C 205.463 193.562,205.629 193.613,205.417 193.737 M195.938 193.958 C 196.287 194.108,196.244 194.140,195.677 194.152 C 195.305 194.160,195.000 194.073,195.000 193.958 C 195.000 193.711,195.362 193.711,195.938 193.958 M205.833 194.555 C 205.833 194.940,201.576 195.524,200.817 195.243 C 200.440 195.104,200.850 194.990,202.612 194.747 C 205.464 194.353,205.833 194.331,205.833 194.555 M195.833 195.000 C 195.833 195.263,195.408 195.263,195.000 195.000 C 194.756 194.843,194.814 194.797,195.260 194.795 C 195.576 194.793,195.833 194.885,195.833 195.000 M206.042 195.596 C 206.042 195.849,203.968 196.245,201.875 196.392 C 199.409 196.565,199.944 196.219,202.777 195.809 C 205.637 195.395,206.042 195.369,206.042 195.596 M195.625 195.833 C 195.872 195.993,195.829 196.035,195.417 196.035 C 195.130 196.035,194.755 195.944,194.583 195.833 C 194.336 195.673,194.379 195.631,194.792 195.631 C 195.078 195.631,195.453 195.722,195.625 195.833 M195.325 196.764 C 195.723 197.065,195.722 197.070,195.300 197.077 C 195.064 197.080,194.689 196.946,194.467 196.777 C 194.069 196.477,194.069 196.471,194.491 196.465 C 194.727 196.461,195.102 196.596,195.325 196.764 M206.180 196.694 C 205.292 197.209,199.390 197.832,199.862 197.360 C 200.003 197.219,204.782 196.538,205.938 196.495 C 206.476 196.474,206.510 196.502,206.180 196.694 M206.458 198.466 C 205.812 198.658,205.728 198.716,206.190 198.650 C 207.198 198.507,207.202 198.874,206.195 199.157 C 204.979 199.499,200.073 199.680,199.167 199.416 C 198.566 199.242,198.877 199.201,200.920 199.185 C 205.238 199.153,203.373 198.934,198.198 198.866 C 195.465 198.830,193.095 198.766,192.932 198.723 C 192.589 198.634,192.527 198.915,191.791 203.958 C 191.004 209.348,190.943 210.359,191.395 210.494 C 192.733 210.893,196.803 211.287,199.688 211.297 C 203.021 211.309,204.118 211.181,207.571 210.382 L 209.413 209.956 209.278 208.468 C 208.818 203.399,208.023 198.788,207.526 198.312 C 207.455 198.244,206.974 198.313,206.458 198.466 M195.087 199.501 C 195.268 199.571,195.417 199.712,195.417 199.814 C 195.417 200.082,194.787 200.027,194.063 199.695 L 193.438 199.409 194.098 199.392 C 194.461 199.383,194.906 199.432,195.087 199.501 M206.845 199.796 C 206.657 199.906,205.778 200.104,204.892 200.236 C 203.676 200.416,203.369 200.524,203.637 200.674 C 203.869 200.804,204.312 200.794,204.902 200.645 C 206.022 200.363,207.360 200.346,207.193 200.615 C 207.126 200.725,206.505 200.878,205.814 200.956 C 205.026 201.045,204.630 201.172,204.753 201.295 C 204.877 201.418,205.251 201.408,205.756 201.268 C 207.012 200.919,207.723 200.965,207.200 201.361 C 206.977 201.529,206.532 201.667,206.210 201.667 C 205.888 201.667,205.625 201.766,205.625 201.888 C 205.625 202.032,205.952 202.060,206.563 201.968 C 207.690 201.799,207.882 202.201,206.773 202.409 C 205.831 202.586,206.028 202.926,206.983 202.772 C 207.905 202.622,207.939 202.991,207.031 203.282 L 206.354 203.499 207.031 203.520 C 207.859 203.546,207.904 203.800,207.135 204.104 L 206.563 204.331 207.240 204.353 C 207.612 204.365,207.917 204.457,207.917 204.557 C 207.917 204.658,207.612 204.813,207.240 204.903 L 206.563 205.065 207.396 205.203 L 208.229 205.340 207.643 205.587 C 207.320 205.722,206.969 205.833,206.861 205.833 C 206.754 205.833,206.667 205.911,206.667 206.006 C 206.667 206.100,206.948 206.137,207.292 206.086 C 208.179 205.956,208.080 206.409,207.185 206.577 C 206.022 206.795,206.126 207.078,207.318 206.937 C 208.094 206.845,208.358 206.875,208.253 207.044 C 208.173 207.174,207.645 207.341,207.078 207.416 C 206.512 207.491,205.930 207.699,205.785 207.878 C 205.558 208.157,205.579 208.181,205.938 208.045 C 206.167 207.958,206.823 207.835,207.396 207.771 C 208.994 207.593,208.300 208.091,206.546 208.382 C 205.495 208.556,204.880 208.795,204.253 209.273 C 202.550 210.573,199.759 210.931,197.777 210.103 L 197.044 209.796 198.066 208.492 C 199.759 206.331,202.455 202.083,202.134 202.083 C 202.029 202.083,201.035 203.466,199.926 205.156 C 197.644 208.631,197.047 209.375,196.540 209.375 C 196.218 209.375,196.215 209.341,196.508 209.010 C 197.105 208.335,201.458 201.706,201.458 201.473 C 201.458 201.159,200.518 200.750,200.135 200.897 C 199.966 200.962,198.980 202.263,197.943 203.789 C 195.329 207.637,195.174 207.815,194.675 207.532 C 194.453 207.405,193.876 207.203,193.394 207.082 C 192.473 206.853,192.000 206.458,192.645 206.458 C 192.853 206.458,193.322 206.544,193.686 206.648 C 194.305 206.826,194.337 206.809,194.184 206.396 C 194.090 206.141,193.742 205.881,193.364 205.783 C 192.513 205.562,192.484 205.126,193.333 205.313 C 193.822 205.420,193.958 205.378,193.958 205.121 C 193.958 204.940,193.836 204.792,193.686 204.792 C 193.536 204.792,193.231 204.648,193.009 204.473 C 192.626 204.172,192.643 204.158,193.316 204.213 C 193.745 204.248,194.062 204.167,194.114 204.010 C 194.162 203.867,194.071 203.750,193.911 203.750 C 193.752 203.750,193.439 203.606,193.217 203.431 C 192.837 203.131,192.862 203.115,193.626 203.170 C 194.667 203.246,194.857 202.806,193.863 202.620 C 192.743 202.409,192.929 202.007,194.067 202.177 C 194.956 202.311,195.063 202.272,195.959 201.483 C 197.374 200.238,198.521 199.938,202.030 199.898 C 203.662 199.879,205.061 199.801,205.138 199.724 C 205.215 199.646,205.707 199.586,206.233 199.590 C 206.944 199.594,207.100 199.647,206.845 199.796 M195.076 200.617 C 195.436 200.978,194.088 200.874,193.634 200.506 C 193.253 200.198,193.277 200.186,194.045 200.290 C 194.493 200.351,194.957 200.499,195.076 200.617 M194.666 201.348 C 195.088 201.441,195.203 201.547,195.049 201.701 C 194.786 201.964,193.264 201.530,193.442 201.242 C 193.504 201.142,193.669 201.095,193.809 201.138 C 193.948 201.180,194.334 201.275,194.666 201.348 M194.283 208.014 C 194.842 208.437,193.935 208.447,193.021 208.028 L 192.396 207.742 193.137 207.725 C 193.545 207.716,194.061 207.846,194.283 208.014 M194.311 208.992 C 194.800 209.193,194.832 209.247,194.506 209.324 C 194.027 209.436,192.329 208.979,192.150 208.690 C 191.992 208.433,193.447 208.637,194.311 208.992 M208.240 208.733 C 208.088 208.978,206.250 209.375,205.268 209.375 C 204.245 209.375,204.529 209.166,205.982 208.848 C 207.458 208.525,208.398 208.477,208.240 208.733 M208.263 209.610 C 207.868 209.840,205.050 210.397,204.219 210.409 C 203.145 210.426,203.870 210.042,205.469 209.747 C 207.643 209.347,208.815 209.289,208.263 209.610 M193.948 210.017 C 195.178 210.281,195.399 210.735,194.219 210.573 C 193.178 210.430,191.786 209.833,192.438 209.809 C 192.690 209.799,193.370 209.893,193.948 210.017 M207.708 211.359 C 203.961 212.348,198.104 212.565,193.542 211.884 C 192.109 211.670,190.924 211.511,190.907 211.529 C 190.855 211.586,190.416 222.537,190.417 223.769 L 190.417 224.934 197.552 224.971 C 203.041 224.999,205.164 224.935,206.753 224.691 C 208.828 224.373,209.448 224.403,208.520 224.774 C 208.105 224.940,208.208 224.976,209.131 224.987 L 210.241 225.000 210.125 223.698 C 210.061 222.982,209.949 219.794,209.876 216.615 C 209.804 213.435,209.685 210.847,209.612 210.863 C 209.539 210.879,208.682 211.102,207.708 211.359 M208.109 212.342 C 206.199 213.063,199.635 213.530,198.714 213.009 C 198.478 212.876,199.289 212.793,201.214 212.754 C 202.780 212.721,205.000 212.529,206.146 212.327 C 208.202 211.965,209.091 211.971,208.109 212.342 M194.896 212.960 C 195.039 213.108,194.658 213.142,193.679 213.069 C 192.895 213.010,192.145 212.847,192.012 212.707 C 191.823 212.508,192.085 212.485,193.229 212.599 C 194.031 212.679,194.781 212.842,194.896 212.960 M208.094 213.130 C 206.811 213.879,200.145 214.362,198.753 213.807 C 198.368 213.653,199.197 213.569,201.982 213.477 C 204.043 213.409,206.057 213.265,206.458 213.157 C 207.482 212.880,208.553 212.862,208.094 213.130 M194.767 213.765 C 195.012 213.920,194.746 213.958,193.799 213.903 C 193.081 213.861,192.378 213.704,192.236 213.554 C 191.923 213.220,194.207 213.411,194.767 213.765 M208.542 214.151 C 207.251 214.895,199.708 215.461,198.713 214.889 C 198.474 214.751,199.260 214.673,201.213 214.643 C 202.780 214.618,204.813 214.465,205.729 214.303 C 207.705 213.954,209.005 213.884,208.542 214.151 M194.669 214.727 C 195.551 214.979,194.424 215.207,193.326 214.999 C 192.726 214.885,192.201 214.792,192.159 214.792 C 192.117 214.792,192.083 214.689,192.083 214.564 C 192.083 214.344,193.683 214.445,194.669 214.727 M208.542 215.184 C 208.542 215.759,203.526 216.317,200.727 216.052 C 197.776 215.773,198.058 215.627,201.580 215.611 C 203.289 215.604,205.438 215.476,206.354 215.328 C 208.558 214.971,208.542 214.972,208.542 215.184 M193.589 215.515 C 194.732 215.671,195.128 216.042,194.151 216.042 C 193.307 216.042,191.875 215.619,191.875 215.370 C 191.875 215.265,192.039 215.226,192.240 215.281 C 192.440 215.336,193.047 215.442,193.589 215.515 M208.501 216.260 C 207.740 216.704,203.863 217.122,201.344 217.032 C 197.474 216.893,197.593 216.568,201.527 216.532 C 203.380 216.515,205.458 216.409,206.146 216.297 C 207.904 216.009,208.960 215.993,208.501 216.260 M194.323 216.590 C 194.581 216.659,194.792 216.798,194.792 216.899 C 194.792 217.165,193.575 217.097,192.604 216.777 L 191.771 216.502 192.813 216.483 C 193.385 216.473,194.065 216.521,194.323 216.590 M208.912 216.991 C 208.516 217.387,204.667 217.909,202.292 217.889 C 198.627 217.858,197.729 217.560,201.146 217.509 C 202.635 217.486,204.698 217.348,205.729 217.201 C 207.840 216.901,209.084 216.819,208.912 216.991 M194.887 217.735 C 195.046 217.906,194.750 217.938,193.778 217.856 C 193.049 217.794,192.345 217.630,192.215 217.491 C 192.031 217.294,192.275 217.267,193.324 217.370 C 194.064 217.443,194.767 217.607,194.887 217.735 M208.634 218.116 C 207.919 218.831,199.999 219.237,198.890 218.616 C 198.636 218.474,199.253 218.433,200.876 218.484 C 202.170 218.525,204.260 218.427,205.521 218.267 C 208.493 217.887,208.881 217.869,208.634 218.116 M193.802 218.439 C 194.839 218.573,195.178 218.958,194.259 218.958 C 193.471 218.958,191.875 218.521,191.875 218.305 C 191.875 218.201,192.086 218.161,192.344 218.214 C 192.602 218.267,193.258 218.368,193.802 218.439 M208.750 219.150 C 207.597 219.812,199.840 220.236,198.923 219.688 C 198.680 219.542,199.625 219.469,202.048 219.445 C 203.958 219.426,205.990 219.320,206.563 219.209 C 207.937 218.943,209.169 218.910,208.750 219.150 M194.141 219.505 C 194.499 219.577,194.792 219.717,194.792 219.818 C 194.792 220.082,193.572 220.012,192.604 219.693 L 191.771 219.419 192.630 219.397 C 193.103 219.385,193.783 219.434,194.141 219.505 M208.958 219.979 C 208.958 220.434,204.906 221.045,202.083 221.015 C 198.382 220.976,198.382 220.719,202.083 220.558 C 203.974 220.476,206.224 220.280,207.083 220.122 C 207.943 219.965,208.716 219.826,208.802 219.814 C 208.888 219.802,208.958 219.876,208.958 219.979 M194.871 220.829 C 195.207 221.165,193.121 221.072,192.396 220.718 C 191.798 220.426,191.834 220.418,193.214 220.515 C 194.008 220.571,194.754 220.712,194.871 220.829 M208.936 221.250 C 208.225 221.665,204.864 222.083,202.421 222.059 C 198.811 222.023,197.983 221.726,201.354 221.675 C 202.844 221.653,204.906 221.515,205.938 221.368 C 208.348 221.025,209.391 220.984,208.936 221.250 M194.896 221.919 C 195.036 222.060,194.675 222.100,193.799 222.040 C 193.081 221.992,192.378 221.832,192.236 221.684 C 192.027 221.466,192.232 221.444,193.333 221.563 C 194.078 221.643,194.781 221.803,194.896 221.919 M209.167 222.258 C 209.167 222.963,199.633 223.678,198.980 223.021 C 198.842 222.882,199.899 222.803,202.147 222.784 C 204.209 222.767,206.129 222.634,207.083 222.442 C 209.016 222.054,209.167 222.041,209.167 222.258 M195.104 223.170 C 195.242 223.307,194.838 223.349,193.907 223.293 C 193.134 223.247,192.384 223.089,192.240 222.941 C 191.916 222.607,194.767 222.835,195.104 223.170 M208.958 223.520 C 208.958 223.903,205.138 224.441,202.604 224.415 C 198.699 224.375,197.939 224.010,201.667 223.964 C 203.328 223.944,205.484 223.806,206.458 223.657 C 208.754 223.308,208.958 223.297,208.958 223.520 M194.635 224.092 C 195.719 224.295,195.267 224.645,194.115 224.494 C 192.589 224.295,192.083 224.153,192.083 223.923 C 192.083 223.740,193.121 223.809,194.635 224.092 " stroke="none" fill="#343434" fill-rule="evenodd"></path><path id="path2" d="M139.063 117.278 C 137.998 117.709,137.098 117.900,135.729 117.987 C 131.686 118.246,130.588 118.863,129.205 121.656 C 126.494 127.135,129.980 133.283,136.771 134.997 C 140.735 135.997,143.247 138.266,142.676 140.332 C 141.739 143.726,136.161 143.710,131.975 140.301 L 130.810 139.352 129.207 140.803 C 128.326 141.601,127.296 142.575,126.920 142.967 L 126.236 143.680 127.233 144.609 C 130.558 147.710,134.081 149.057,138.870 149.060 L 141.802 149.063 143.588 148.178 C 148.837 145.577,150.713 139.474,147.705 134.787 C 146.139 132.347,142.922 130.245,138.778 128.956 C 135.599 127.967,134.766 127.270,134.741 125.575 C 134.685 121.912,139.506 121.759,144.792 125.255 L 145.313 125.600 146.950 122.892 C 147.851 121.403,148.554 120.157,148.513 120.123 C 147.425 119.226,143.999 117.443,142.514 117.003 C 141.030 116.562,140.784 116.582,139.063 117.278 M168.360 117.656 C 168.141 118.086,164.530 125.170,160.335 133.399 C 156.140 141.628,152.708 148.401,152.708 148.451 C 152.708 148.501,154.301 148.542,156.249 148.542 L 159.789 148.542 161.250 145.625 L 162.711 142.708 169.286 142.708 L 175.862 142.708 177.239 145.625 L 178.616 148.542 182.112 148.542 L 185.608 148.542 185.252 147.727 C 185.056 147.279,181.708 140.157,177.813 131.899 L 170.729 116.886 169.744 116.880 C 168.813 116.875,168.736 116.918,168.360 117.656 M189.221 127.865 C 189.309 139.900,189.292 139.719,190.619 142.414 C 194.996 151.307,208.348 151.179,212.591 142.204 C 213.857 139.525,213.797 140.300,213.770 126.927 L 213.750 116.875 210.632 116.875 L 207.514 116.875 207.455 127.656 L 207.396 138.438 206.831 139.508 C 204.932 143.109,200.255 143.824,197.382 140.951 C 195.589 139.158,195.625 139.437,195.625 127.359 L 195.625 116.875 192.383 116.875 L 189.140 116.875 189.221 127.865 M227.833 118.114 C 218.661 122.940,216.064 134.788,222.402 142.888 C 227.785 149.768,237.917 151.190,244.957 146.054 L 245.851 145.402 243.936 143.215 C 241.585 140.530,241.966 140.708,240.369 141.541 C 232.528 145.628,223.614 137.976,226.452 129.595 C 228.268 124.231,234.422 121.458,239.630 123.656 C 241.493 124.442,241.408 124.475,243.398 122.188 L 245.209 120.104 243.803 119.954 C 239.871 119.536,238.731 119.491,237.261 119.698 C 236.587 119.793,236.339 119.681,235.073 118.705 L 233.646 117.604 231.354 117.536 C 229.131 117.469,229.026 117.486,227.833 118.114 M251.458 135.313 L 251.458 148.542 261.979 148.542 L 272.500 148.542 272.500 145.417 L 272.500 142.292 265.208 142.292 L 257.917 142.292 257.917 138.854 L 257.917 135.417 263.958 135.417 L 270.000 135.417 270.000 132.188 L 270.000 128.958 263.958 128.958 L 257.917 128.958 257.917 125.946 L 257.917 122.933 257.037 122.696 C 256.233 122.479,253.060 122.103,251.927 122.089 L 251.458 122.083 251.458 135.313 M171.239 132.847 C 172.047 134.585,172.708 136.061,172.708 136.128 C 172.708 136.195,171.209 136.250,169.376 136.250 L 166.043 136.250 167.756 132.817 C 168.698 130.930,169.536 129.453,169.619 129.536 C 169.701 129.619,170.430 131.109,171.239 132.847 " stroke="none" fill="#fa3535" fill-rule="evenodd"></path><path id="path3" d="M238.436 92.292 L 238.438 108.229 248.906 108.232 L 259.375 108.235 248.960 108.178 L 238.544 108.121 238.489 92.238 L 238.434 76.354 238.436 92.292 M153.597 82.441 C 153.913 82.489,154.382 82.488,154.638 82.438 C 154.895 82.389,154.635 82.350,154.063 82.351 C 153.490 82.353,153.280 82.393,153.597 82.441 M244.874 85.729 C 244.874 87.333,244.907 87.962,244.947 87.126 C 244.986 86.291,244.986 84.978,244.946 84.210 C 244.906 83.441,244.874 84.125,244.874 85.729 M137.557 92.292 C 137.557 92.807,137.597 93.018,137.647 92.760 C 137.697 92.503,137.697 92.081,137.647 91.823 C 137.597 91.565,137.557 91.776,137.557 92.292 M129.883 92.760 L 129.271 93.438 129.948 92.826 C 130.320 92.489,130.625 92.184,130.625 92.149 C 130.625 91.988,130.453 92.129,129.883 92.760 M215.930 94.844 L 214.896 95.938 215.990 94.904 C 216.591 94.335,217.083 93.843,217.083 93.810 C 217.083 93.654,216.890 93.827,215.930 94.844 M244.876 98.333 C 244.876 100.224,244.908 100.997,244.947 100.052 C 244.985 99.107,244.985 97.560,244.947 96.615 C 244.908 95.669,244.876 96.443,244.876 98.333 M141.875 103.399 C 141.875 103.434,142.180 103.739,142.552 104.076 L 143.229 104.688 142.617 104.010 C 142.047 103.379,141.875 103.238,141.875 103.399 M128.490 108.280 C 129.435 108.319,130.982 108.319,131.927 108.280 C 132.872 108.241,132.099 108.210,130.208 108.210 C 128.318 108.210,127.544 108.241,128.490 108.280 M275.052 108.280 C 275.940 108.319,277.393 108.319,278.281 108.280 C 279.169 108.241,278.443 108.209,276.667 108.209 C 274.891 108.209,274.164 108.241,275.052 108.280 M168.673 116.831 C 168.617 116.922,168.916 116.964,169.338 116.924 C 170.626 116.802,170.778 116.716,169.752 116.691 C 169.214 116.678,168.729 116.741,168.673 116.831 M190.791 116.822 C 191.742 116.861,193.242 116.860,194.124 116.821 C 195.007 116.782,194.229 116.751,192.396 116.751 C 190.563 116.751,189.840 116.783,190.791 116.822 M207.389 116.922 C 207.333 117.068,207.313 121.641,207.344 127.083 L 207.400 136.979 207.450 126.927 L 207.500 116.875 210.623 116.875 L 213.746 116.875 213.803 126.823 L 213.860 136.771 213.857 126.771 L 213.854 116.771 210.673 116.713 C 208.242 116.669,207.467 116.719,207.389 116.922 M223.542 121.146 C 223.036 121.661,222.668 122.083,222.726 122.083 C 222.783 122.083,223.244 121.661,223.750 121.146 C 224.256 120.630,224.623 120.208,224.566 120.208 C 224.509 120.208,224.048 120.630,223.542 121.146 M228.633 125.885 L 228.021 126.563 228.698 125.951 C 229.329 125.380,229.471 125.208,229.310 125.208 C 229.274 125.208,228.969 125.513,228.633 125.885 M270.084 132.188 C 270.085 134.021,270.116 134.743,270.155 133.792 C 270.194 132.841,270.194 131.341,270.155 130.459 C 270.116 129.576,270.084 130.354,270.084 132.188 M130.208 131.315 C 130.208 131.351,130.513 131.656,130.885 131.992 L 131.563 132.604 130.951 131.927 C 130.380 131.296,130.208 131.154,130.208 131.315 M218.803 131.979 C 218.805 132.438,218.848 132.600,218.897 132.341 C 218.947 132.082,218.945 131.707,218.893 131.508 C 218.841 131.309,218.800 131.521,218.803 131.979 M145.833 132.565 C 145.833 132.601,146.138 132.906,146.510 133.242 L 147.188 133.854 146.576 133.177 C 146.005 132.546,145.833 132.404,145.833 132.565 M218.803 133.646 C 218.805 134.104,218.848 134.267,218.897 134.008 C 218.947 133.749,218.945 133.374,218.893 133.175 C 218.841 132.975,218.800 133.188,218.803 133.646 M129.989 139.948 L 129.271 140.729 130.052 140.011 C 130.482 139.616,130.833 139.265,130.833 139.230 C 130.833 139.071,130.657 139.221,129.989 139.948 M261.510 142.239 C 263.544 142.273,266.872 142.273,268.906 142.239 C 270.940 142.205,269.276 142.177,265.208 142.177 C 261.141 142.177,259.477 142.205,261.510 142.239 M126.758 142.969 L 126.146 143.646 126.823 143.034 C 127.195 142.697,127.500 142.393,127.500 142.357 C 127.500 142.196,127.328 142.338,126.758 142.969 M138.700 142.856 C 138.959 142.906,139.334 142.904,139.534 142.851 C 139.733 142.799,139.521 142.759,139.063 142.761 C 138.604 142.763,138.441 142.806,138.700 142.856 M126.250 143.815 C 126.250 143.851,126.555 144.156,126.927 144.492 L 127.604 145.104 126.992 144.427 C 126.422 143.796,126.250 143.654,126.250 143.815 M192.708 145.521 C 193.097 145.922,193.462 146.250,193.519 146.250 C 193.577 146.250,193.305 145.922,192.917 145.521 C 192.528 145.120,192.163 144.792,192.106 144.792 C 192.048 144.792,192.320 145.120,192.708 145.521 M210.197 145.573 L 209.479 146.354 210.260 145.636 C 210.988 144.968,211.137 144.792,210.978 144.792 C 210.944 144.792,210.592 145.143,210.197 145.573 M152.682 148.599 C 152.771 148.688,154.430 148.734,156.370 148.703 L 159.896 148.645 156.208 148.541 C 154.179 148.484,152.593 148.510,152.682 148.599 M180.479 148.697 C 181.487 148.735,183.081 148.735,184.021 148.696 C 184.960 148.658,184.135 148.627,182.188 148.627 C 180.240 148.627,179.471 148.659,180.479 148.697 M256.733 148.698 C 259.692 148.730,264.473 148.730,267.358 148.698 C 270.244 148.665,267.823 148.638,261.979 148.638 C 256.135 148.638,253.775 148.665,256.733 148.698 M139.010 149.310 C 139.211 149.363,139.539 149.363,139.740 149.310 C 139.940 149.258,139.776 149.215,139.375 149.215 C 138.974 149.215,138.810 149.258,139.010 149.310 M196.808 183.031 C 196.319 184.057,196.388 184.231,196.899 183.262 C 197.132 182.821,197.285 182.424,197.240 182.379 C 197.195 182.334,197.001 182.627,196.808 183.031 M201.636 186.719 C 201.741 186.824,202.049 186.875,202.320 186.833 C 202.737 186.767,202.707 186.738,202.129 186.642 C 201.715 186.573,201.521 186.604,201.636 186.719 M201.250 191.084 C 201.250 191.175,201.695 191.243,202.240 191.234 C 203.329 191.215,203.241 191.114,202.031 190.994 C 201.602 190.952,201.250 190.992,201.250 191.084 M199.531 198.897 C 199.789 198.947,200.211 198.947,200.469 198.897 C 200.727 198.847,200.516 198.807,200.000 198.807 C 199.484 198.807,199.273 198.847,199.531 198.897 M203.333 198.958 C 203.333 199.219,203.554 199.219,203.958 198.958 C 204.211 198.795,204.181 198.756,203.802 198.753 C 203.544 198.751,203.333 198.844,203.333 198.958 M199.950 199.939 C 200.209 199.989,200.584 199.987,200.784 199.935 C 200.983 199.883,200.771 199.842,200.313 199.844 C 199.854 199.847,199.691 199.889,199.950 199.939 M210.469 207.813 C 210.472 208.271,210.514 208.434,210.564 208.175 C 210.614 207.916,210.612 207.541,210.560 207.341 C 210.508 207.142,210.467 207.354,210.469 207.813 M191.098 208.333 C 191.098 208.849,191.139 209.060,191.189 208.802 C 191.238 208.544,191.238 208.122,191.189 207.865 C 191.139 207.607,191.098 207.818,191.098 208.333 M205.300 208.353 C 205.236 208.457,205.424 208.542,205.717 208.542 C 206.355 208.542,206.407 208.423,205.834 208.273 C 205.604 208.213,205.365 208.249,205.300 208.353 M210.685 210.313 C 210.686 210.885,210.727 211.095,210.774 210.778 C 210.822 210.462,210.821 209.993,210.772 209.737 C 210.722 209.480,210.683 209.740,210.685 210.313 M189.632 210.417 C 189.632 210.818,189.675 210.982,189.727 210.781 C 189.779 210.581,189.779 210.253,189.727 210.052 C 189.675 209.852,189.632 210.016,189.632 210.417 M203.750 210.244 C 203.750 210.339,204.031 210.417,204.375 210.417 C 204.719 210.417,205.000 210.380,205.000 210.336 C 205.000 210.292,204.719 210.214,204.375 210.164 C 204.031 210.113,203.750 210.150,203.750 210.244 M197.969 211.394 C 198.169 211.446,198.497 211.446,198.698 211.394 C 198.898 211.341,198.734 211.298,198.333 211.298 C 197.932 211.298,197.768 211.341,197.969 211.394 M190.699 213.229 C 190.698 214.260,190.734 214.709,190.777 214.225 C 190.821 213.742,190.821 212.898,190.778 212.350 C 190.735 211.802,190.700 212.198,190.699 213.229 M210.906 213.958 C 210.906 214.932,210.942 215.331,210.986 214.844 C 211.030 214.357,211.030 213.560,210.986 213.073 C 210.942 212.586,210.906 212.984,210.906 213.958 M198.333 212.790 C 198.333 212.993,198.920 213.069,199.186 212.901 C 199.399 212.765,199.323 212.714,198.906 212.712 C 198.591 212.710,198.333 212.745,198.333 212.790 M201.510 212.852 C 201.711 212.904,202.039 212.904,202.240 212.852 C 202.440 212.800,202.276 212.757,201.875 212.757 C 201.474 212.757,201.310 212.800,201.510 212.852 M201.202 213.276 C 201.576 213.322,202.139 213.321,202.452 213.274 C 202.765 213.226,202.458 213.188,201.771 213.190 C 201.083 213.191,200.827 213.230,201.202 213.276 M209.864 214.792 C 209.864 215.766,209.900 216.164,209.944 215.677 C 209.988 215.190,209.988 214.393,209.944 213.906 C 209.900 213.419,209.864 213.818,209.864 214.792 M199.229 213.707 C 199.091 213.795,199.653 213.836,200.479 213.799 C 202.733 213.697,203.015 213.601,201.146 213.573 C 200.229 213.559,199.366 213.620,199.229 213.707 M201.406 214.109 C 201.779 214.155,202.388 214.155,202.760 214.109 C 203.133 214.063,202.828 214.025,202.083 214.025 C 201.339 214.025,201.034 214.063,201.406 214.109 M192.083 214.554 C 192.083 214.653,192.318 214.689,192.604 214.634 C 192.891 214.580,193.125 214.499,193.125 214.455 C 193.125 214.411,192.891 214.375,192.604 214.375 C 192.318 214.375,192.083 214.456,192.083 214.554 M202.552 215.144 C 202.753 215.196,203.081 215.196,203.281 215.144 C 203.482 215.091,203.318 215.048,202.917 215.048 C 202.516 215.048,202.352 215.091,202.552 215.144 M202.240 216.189 C 202.497 216.238,202.919 216.238,203.177 216.189 C 203.435 216.139,203.224 216.098,202.708 216.098 C 202.193 216.098,201.982 216.139,202.240 216.189 M190.493 218.438 C 190.493 219.583,190.528 220.026,190.571 219.420 C 190.613 218.815,190.612 217.877,190.570 217.337 C 190.527 216.796,190.492 217.292,190.493 218.438 M211.126 221.250 C 211.126 223.141,211.158 223.914,211.197 222.969 C 211.235 222.023,211.235 220.477,211.197 219.531 C 211.158 218.586,211.126 219.359,211.126 221.250 M210.073 222.083 C 210.073 223.057,210.109 223.456,210.153 222.969 C 210.196 222.482,210.196 221.685,210.153 221.198 C 210.109 220.711,210.073 221.109,210.073 222.083 M190.280 223.438 C 190.281 224.354,190.317 224.703,190.361 224.213 C 190.405 223.723,190.405 222.973,190.360 222.547 C 190.315 222.120,190.279 222.521,190.280 223.438 M201.302 224.108 C 201.617 224.155,202.133 224.155,202.448 224.108 C 202.763 224.060,202.505 224.021,201.875 224.021 C 201.245 224.021,200.987 224.060,201.302 224.108 M194.219 224.519 C 194.419 224.571,194.747 224.571,194.948 224.519 C 195.148 224.466,194.984 224.423,194.583 224.423 C 194.182 224.423,194.018 224.466,194.219 224.519 M202.347 224.524 C 202.663 224.572,203.132 224.571,203.388 224.522 C 203.645 224.472,203.385 224.433,202.813 224.435 C 202.240 224.436,202.030 224.477,202.347 224.524 " stroke="none" fill="#7a7070" fill-rule="evenodd"></path><path id="path4" d="M111.346 76.510 C 111.291 76.654,111.271 83.849,111.302 92.500 L 111.357 108.229 111.408 92.347 L 111.458 76.464 117.760 76.406 L 124.063 76.348 117.754 76.299 C 112.862 76.261,111.423 76.308,111.346 76.510 M214.673 81.458 C 214.673 84.266,214.703 85.414,214.739 84.010 C 214.775 82.607,214.775 80.310,214.739 78.906 C 214.703 77.503,214.673 78.651,214.673 81.458 M264.667 79.583 C 264.667 81.359,264.699 82.086,264.738 81.198 C 264.777 80.310,264.777 78.857,264.738 77.969 C 264.699 77.081,264.667 77.807,264.667 79.583 M288.626 79.583 C 288.626 81.359,288.657 82.086,288.697 81.198 C 288.736 80.310,288.736 78.857,288.697 77.969 C 288.657 77.081,288.626 77.807,288.626 79.583 M142.383 80.677 L 141.771 81.354 142.448 80.742 C 142.820 80.406,143.125 80.101,143.125 80.065 C 143.125 79.904,142.953 80.046,142.383 80.677 M132.757 85.833 C 132.757 86.234,132.800 86.398,132.852 86.198 C 132.904 85.997,132.904 85.669,132.852 85.469 C 132.800 85.268,132.757 85.432,132.757 85.833 M119.228 89.113 C 120.122 89.153,121.528 89.152,122.353 89.113 C 123.179 89.073,122.448 89.041,120.729 89.042 C 119.010 89.042,118.335 89.074,119.228 89.113 M170.485 92.188 C 170.486 92.990,170.524 93.292,170.569 92.860 C 170.614 92.428,170.613 91.771,170.567 91.402 C 170.521 91.032,170.484 91.385,170.485 92.188 M182.771 92.292 C 182.771 92.922,182.810 93.180,182.858 92.865 C 182.905 92.549,182.905 92.034,182.858 91.719 C 182.810 91.404,182.771 91.661,182.771 92.292 M247.969 94.947 C 249.659 94.982,252.424 94.982,254.115 94.947 C 255.805 94.912,254.422 94.884,251.042 94.884 C 247.661 94.884,246.279 94.912,247.969 94.947 M214.675 102.083 C 214.675 105.464,214.704 106.846,214.739 105.156 C 214.774 103.466,214.774 100.701,214.739 99.010 C 214.704 97.320,214.675 98.703,214.675 102.083 M153.802 102.227 C 154.003 102.279,154.331 102.279,154.531 102.227 C 154.732 102.175,154.568 102.132,154.167 102.132 C 153.766 102.132,153.602 102.175,153.802 102.227 M165.614 103.906 L 164.896 104.688 165.677 103.970 C 166.404 103.301,166.554 103.125,166.395 103.125 C 166.360 103.125,166.009 103.477,165.614 103.906 M137.867 116.397 C 138.126 116.447,138.501 116.445,138.700 116.393 C 138.900 116.341,138.688 116.300,138.229 116.303 C 137.771 116.305,137.608 116.348,137.867 116.397 M201.667 190.029 C 201.667 190.128,201.901 190.208,202.188 190.208 C 202.474 190.208,202.708 190.172,202.708 190.128 C 202.708 190.085,202.474 190.004,202.188 189.949 C 201.901 189.894,201.667 189.930,201.667 190.029 M201.354 194.167 C 201.425 194.281,201.688 194.368,201.939 194.360 C 202.379 194.346,202.381 194.339,201.979 194.167 C 201.406 193.920,201.202 193.920,201.354 194.167 M200.729 196.250 C 200.651 196.376,200.915 196.453,201.394 196.444 C 202.028 196.432,202.104 196.393,201.771 196.250 C 201.198 196.004,200.881 196.004,200.729 196.250 M200.417 197.300 C 200.035 197.416,200.225 197.464,201.128 197.479 C 201.806 197.491,202.322 197.467,202.274 197.426 C 202.053 197.237,200.885 197.157,200.417 197.300 M201.406 198.901 C 201.779 198.947,202.388 198.947,202.760 198.901 C 203.133 198.854,202.828 198.817,202.083 198.817 C 201.339 198.817,201.034 198.854,201.406 198.901 M199.429 199.375 C 199.745 199.470,200.448 199.473,200.991 199.382 C 201.923 199.225,201.891 199.215,200.417 199.209 C 199.274 199.204,199.008 199.249,199.429 199.375 M195.508 201.927 L 194.896 202.604 195.573 201.992 C 195.945 201.656,196.250 201.351,196.250 201.315 C 196.250 201.154,196.078 201.296,195.508 201.927 M189.840 209.167 C 189.840 209.568,189.883 209.732,189.935 209.531 C 189.988 209.331,189.988 209.003,189.935 208.802 C 189.883 208.602,189.840 208.766,189.840 209.167 M190.858 209.415 C 190.844 209.952,190.907 210.438,190.998 210.494 C 191.089 210.550,191.130 210.251,191.090 209.829 C 190.968 208.541,190.883 208.389,190.858 209.415 M209.428 209.271 C 209.430 209.729,209.473 209.892,209.522 209.633 C 209.572 209.374,209.570 208.999,209.518 208.800 C 209.466 208.600,209.425 208.813,209.428 209.271 M210.465 209.167 C 210.465 209.568,210.508 209.732,210.560 209.531 C 210.613 209.331,210.613 209.003,210.560 208.802 C 210.508 208.602,210.465 208.766,210.465 209.167 M209.788 211.833 L 209.889 213.021 209.957 212.002 C 209.995 211.442,209.949 210.907,209.856 210.814 C 209.763 210.721,209.733 211.179,209.788 211.833 M189.632 211.667 C 189.632 212.068,189.675 212.232,189.727 212.031 C 189.779 211.831,189.779 211.503,189.727 211.302 C 189.675 211.102,189.632 211.266,189.632 211.667 M210.685 212.188 C 210.686 212.760,210.727 212.970,210.774 212.653 C 210.822 212.337,210.821 211.868,210.772 211.612 C 210.722 211.355,210.683 211.615,210.685 212.188 M190.483 215.000 C 190.483 215.745,190.521 216.049,190.567 215.677 C 190.614 215.305,190.614 214.695,190.567 214.323 C 190.521 213.951,190.483 214.255,190.483 215.000 M189.215 216.250 C 189.215 216.651,189.258 216.815,189.310 216.615 C 189.363 216.414,189.363 216.086,189.310 215.885 C 189.258 215.685,189.215 215.849,189.215 216.250 M199.396 215.845 C 199.814 215.944,200.414 215.942,200.750 215.842 C 201.235 215.696,201.087 215.661,200.000 215.664 C 198.802 215.667,198.732 215.687,199.396 215.845 M202.448 215.772 C 202.706 215.822,203.128 215.822,203.385 215.772 C 203.643 215.722,203.432 215.682,202.917 215.682 C 202.401 215.682,202.190 215.722,202.448 215.772 M210.923 220.313 C 210.923 222.948,210.953 223.997,210.989 222.644 C 211.025 221.292,211.025 219.135,210.989 217.853 C 210.952 216.570,210.923 217.677,210.923 220.313 M210.075 218.333 C 210.075 219.422,210.110 219.867,210.153 219.323 C 210.196 218.779,210.196 217.888,210.153 217.344 C 210.110 216.799,210.075 217.245,210.075 218.333 M200.000 217.681 C 200.172 217.773,200.875 217.784,201.563 217.705 L 202.813 217.561 201.250 217.537 C 200.352 217.523,199.820 217.584,200.000 217.681 M189.039 221.146 C 189.040 222.635,189.073 223.217,189.113 222.439 C 189.153 221.661,189.153 220.442,189.112 219.731 C 189.072 219.020,189.039 219.656,189.039 221.146 M190.277 220.521 C 190.278 221.323,190.315 221.626,190.360 221.193 C 190.405 220.761,190.405 220.105,190.359 219.735 C 190.313 219.365,190.276 219.719,190.277 220.521 M192.083 220.499 C 192.083 220.701,192.670 220.777,192.936 220.609 C 193.149 220.474,193.073 220.422,192.656 220.420 C 192.341 220.418,192.083 220.454,192.083 220.499 M200.221 220.828 C 200.409 220.938,200.982 220.945,201.575 220.846 L 202.604 220.674 201.250 220.656 C 200.341 220.644,200.003 220.700,200.221 220.828 M200.000 221.856 C 200.172 221.952,200.969 221.963,201.771 221.879 L 203.229 221.726 201.458 221.703 C 200.398 221.689,199.813 221.750,200.000 221.856 M200.531 223.094 C 200.640 223.192,201.245 223.205,201.875 223.123 L 203.021 222.975 201.677 222.946 C 200.924 222.930,200.420 222.995,200.531 223.094 M210.257 224.375 C 210.257 224.776,210.300 224.940,210.352 224.740 C 210.404 224.539,210.404 224.211,210.352 224.010 C 210.300 223.810,210.257 223.974,210.257 224.375 M199.184 224.033 C 199.418 224.233,200.625 224.341,200.625 224.161 C 200.625 224.050,200.281 223.958,199.861 223.958 C 199.441 223.958,199.136 223.992,199.184 224.033 " stroke="none" fill="#949494" fill-rule="evenodd"></path><path id="path5" d="M210.062 76.405 C 210.955 76.444,212.361 76.444,213.187 76.404 C 214.012 76.365,213.281 76.333,211.563 76.333 C 209.844 76.334,209.168 76.366,210.062 76.405 M226.198 76.405 C 227.372 76.443,229.294 76.443,230.469 76.405 C 231.643 76.368,230.682 76.338,228.333 76.338 C 225.984 76.338,225.023 76.368,226.198 76.405 M249.005 76.405 L 259.573 76.462 259.638 79.585 L 259.704 82.709 259.696 79.531 L 259.688 76.354 249.063 76.351 L 238.438 76.348 249.005 76.405 M270.677 76.406 C 273.971 76.438,279.362 76.438,282.656 76.406 C 285.951 76.374,283.255 76.348,276.667 76.348 C 270.078 76.348,267.383 76.374,270.677 76.406 M279.890 95.521 C 279.890 102.510,279.916 105.340,279.948 101.808 C 279.980 98.276,279.980 92.557,279.948 89.100 C 279.916 85.642,279.890 88.531,279.890 95.521 M248.476 101.823 C 250.445 101.857,253.727 101.857,255.768 101.823 C 257.809 101.789,256.198 101.761,252.188 101.760 C 248.177 101.760,246.507 101.788,248.476 101.823 M256.823 116.823 C 259.716 116.855,264.451 116.855,267.344 116.823 C 270.237 116.790,267.870 116.763,262.083 116.763 C 256.297 116.763,253.930 116.790,256.823 116.823 " stroke="none" fill="#8c8c8c" fill-rule="evenodd"></path></g></svg>