<svg id="svg" version="1.1" xmlns="http://www.w3.org/2000/svg" xmlns:xlink="http://www.w3.org/1999/xlink" width="400" height="225" viewBox="0, 0, 400,225"><g id="svgg"><path id="path0" d="M151.771 75.968 C 140.675 77.755,134.531 89.499,139.470 99.479 C 147.148 114.994,170.417 109.467,170.417 92.128 C 170.417 82.314,161.320 74.430,151.771 75.968 M190.350 76.055 C 178.876 77.374,172.383 89.692,177.727 100.000 C 182.160 108.553,193.216 111.330,201.345 105.934 C 201.980 105.513,202.500 105.079,202.500 104.970 C 202.500 104.718,198.707 100.390,198.553 100.466 C 198.489 100.498,197.969 100.770,197.396 101.072 C 189.809 105.067,181.222 98.639,182.986 90.286 C 184.252 84.296,190.836 80.838,196.458 83.209 C 197.203 83.524,197.938 83.797,198.091 83.817 C 198.687 83.896,202.284 79.516,201.940 79.129 C 200.290 77.275,194.074 75.627,190.350 76.055 M111.458 92.281 L 111.458 108.125 114.583 108.125 L 117.708 108.125 117.708 101.762 L 117.708 95.399 119.317 95.460 L 120.925 95.521 123.848 101.816 L 126.771 108.110 130.136 108.118 L 133.502 108.125 130.397 101.436 C 126.845 93.784,127.098 94.546,127.969 94.123 C 134.557 90.918,134.162 80.721,127.319 77.337 L 125.752 76.563 118.605 76.500 L 111.458 76.438 111.458 92.281 M208.333 92.292 L 208.333 108.125 211.458 108.125 L 214.583 108.125 214.583 102.129 L 214.583 96.133 215.846 94.889 C 216.956 93.796,217.138 93.687,217.356 93.986 C 217.493 94.174,219.337 97.431,221.454 101.226 L 225.304 108.125 229.006 108.125 C 231.042 108.125,232.708 108.087,232.708 108.040 C 232.708 107.992,230.286 103.844,227.324 98.821 C 224.363 93.797,221.829 89.478,221.693 89.221 C 221.464 88.788,221.829 88.329,226.869 82.707 C 229.852 79.380,232.292 76.613,232.292 76.558 C 232.292 76.503,230.419 76.458,228.130 76.458 L 223.968 76.458 219.432 81.458 C 216.937 84.208,214.826 86.458,214.740 86.458 C 214.654 86.458,214.583 84.208,214.583 81.458 L 214.583 76.458 211.458 76.458 L 208.333 76.458 208.333 92.292 M238.542 92.292 L 238.542 108.125 249.063 108.125 L 259.583 108.125 259.583 105.000 L 259.583 101.875 252.182 101.875 L 244.782 101.875 244.839 98.385 L 244.896 94.896 250.990 94.841 L 257.083 94.785 257.083 91.664 L 257.083 88.542 250.938 88.542 L 244.792 88.542 244.792 85.625 L 244.792 82.708 252.188 82.708 L 259.583 82.708 259.583 79.583 L 259.583 76.458 249.063 76.458 L 238.542 76.458 238.542 92.292 M264.792 79.583 L 264.792 82.708 269.167 82.708 L 273.542 82.708 273.542 95.417 L 273.542 108.125 276.667 108.125 L 279.792 108.125 279.792 95.417 L 279.792 82.708 284.167 82.708 L 288.542 82.708 288.542 79.583 L 288.542 76.458 276.667 76.458 L 264.792 76.458 264.792 79.583 M156.555 82.611 C 163.999 84.550,166.546 93.825,161.123 99.248 C 155.661 104.710,146.434 102.160,144.477 94.647 C 142.610 87.479,149.372 80.740,156.555 82.611 M125.000 83.177 C 126.428 84.152,126.892 86.177,125.990 87.502 C 124.999 88.957,124.701 89.055,121.027 89.133 L 117.708 89.203 117.708 85.956 L 117.708 82.708 121.011 82.708 C 124.093 82.708,124.359 82.740,125.000 83.177 M233.475 116.468 C 227.725 117.144,222.614 120.885,220.324 126.094 L 219.797 127.292 220.263 127.336 C 223.216 127.617,227.498 127.370,227.748 126.903 C 229.806 123.070,235.809 121.905,241.176 124.296 C 241.707 124.533,245.411 119.935,245.032 119.510 C 243.404 117.683,237.146 116.036,233.475 116.468 M135.000 116.932 C 133.204 117.547,131.806 118.390,130.643 119.560 L 129.688 120.521 130.493 120.587 C 130.936 120.623,132.014 120.509,132.889 120.334 C 133.771 120.157,135.453 120.022,136.667 120.033 C 138.941 120.052,139.516 119.945,142.555 118.938 C 143.559 118.605,144.638 118.325,144.951 118.315 C 145.416 118.301,145.274 118.182,144.176 117.671 C 141.415 116.383,137.521 116.070,135.000 116.932 M168.443 117.490 C 168.268 117.828,168.125 118.143,168.125 118.190 C 168.125 118.340,171.463 119.232,171.581 119.113 C 171.644 119.051,171.452 118.522,171.156 117.937 C 170.469 116.581,169.035 116.344,168.443 117.490 M189.375 119.361 C 189.375 122.077,189.270 121.858,190.729 122.184 C 191.073 122.261,191.635 122.448,191.979 122.600 C 192.773 122.950,194.400 123.333,195.092 123.333 L 195.625 123.333 195.625 120.104 L 195.625 116.875 192.500 116.875 L 189.375 116.875 189.375 119.361 M207.500 120.938 C 207.500 123.172,207.523 125.008,207.552 125.017 C 207.581 125.026,208.354 125.077,209.271 125.130 C 210.188 125.183,211.529 125.363,212.253 125.530 C 212.976 125.697,213.609 125.833,213.659 125.833 C 213.709 125.833,213.750 123.818,213.750 121.354 L 213.750 116.875 210.625 116.875 L 207.500 116.875 207.500 120.938 M251.458 124.371 L 251.458 131.867 252.025 132.009 C 252.336 132.087,253.487 132.007,254.583 131.831 C 256.341 131.549,256.904 131.546,259.381 131.807 C 261.904 132.073,262.437 132.068,264.656 131.756 C 266.286 131.526,267.612 131.457,268.562 131.550 L 270.000 131.692 270.000 130.325 L 270.000 128.958 263.854 128.958 L 257.708 128.958 257.708 126.042 L 257.708 123.125 265.208 123.125 L 272.708 123.125 272.708 120.000 L 272.708 116.875 262.083 116.875 L 251.458 116.875 251.458 124.371 M198.897 184.834 C 195.985 190.815,195.403 192.129,194.987 193.667 C 194.742 194.572,194.216 196.250,193.820 197.396 C 191.942 202.819,190.768 209.265,190.008 218.333 C 189.773 221.141,189.526 223.789,189.459 224.219 C 189.342 224.979,189.356 225.000,189.982 225.000 L 190.625 225.000 190.625 222.616 C 190.625 219.757,190.470 219.885,193.386 220.345 C 197.786 221.039,204.351 220.779,208.186 219.757 C 210.163 219.230,209.952 218.959,210.125 222.247 C 210.253 224.668,210.314 225.000,210.633 225.000 C 211.037 225.000,211.034 224.274,210.608 218.542 C 210.122 212.012,209.700 209.726,207.589 202.188 C 206.722 199.094,205.780 195.719,205.496 194.688 C 204.768 192.048,200.754 182.712,200.282 182.558 C 200.150 182.514,199.531 183.531,198.897 184.834 M201.720 186.510 C 203.379 190.408,204.464 193.530,205.424 197.167 C 205.881 198.897,206.530 201.203,206.866 202.292 C 207.867 205.534,207.877 205.747,207.050 206.011 C 204.204 206.921,192.985 206.719,192.895 205.756 C 192.834 205.106,193.003 204.121,193.437 202.608 C 193.700 201.689,194.163 199.953,194.466 198.750 C 195.291 195.476,195.755 194.143,197.181 190.938 C 197.894 189.333,198.878 187.060,199.366 185.885 C 199.855 184.711,200.320 183.750,200.400 183.750 C 200.480 183.750,201.075 184.992,201.720 186.510 M202.969 198.477 C 203.169 198.529,203.497 198.529,203.698 198.477 C 203.898 198.425,203.734 198.382,203.333 198.382 C 202.932 198.382,202.768 198.425,202.969 198.477 M202.969 199.519 C 203.169 199.571,203.497 199.571,203.698 199.519 C 203.898 199.466,203.734 199.423,203.333 199.423 C 202.932 199.423,202.768 199.466,202.969 199.519 M202.344 200.769 C 202.544 200.821,202.872 200.821,203.073 200.769 C 203.273 200.716,203.109 200.673,202.708 200.673 C 202.307 200.673,202.143 200.716,202.344 200.769 M202.344 201.602 C 202.544 201.654,202.872 201.654,203.073 201.602 C 203.273 201.550,203.109 201.507,202.708 201.507 C 202.307 201.507,202.143 201.550,202.344 201.602 M203.075 202.647 C 203.334 202.697,203.709 202.695,203.909 202.643 C 204.108 202.591,203.896 202.550,203.438 202.553 C 202.979 202.555,202.816 202.598,203.075 202.647 M202.552 203.685 C 202.753 203.738,203.081 203.738,203.281 203.685 C 203.482 203.633,203.318 203.590,202.917 203.590 C 202.516 203.590,202.352 203.633,202.552 203.685 M203.229 204.583 L 202.396 204.733 203.125 204.737 C 203.526 204.740,204.135 204.671,204.479 204.583 C 205.327 204.368,204.434 204.368,203.229 204.583 M203.438 205.625 L 202.604 205.774 203.333 205.779 C 203.734 205.782,204.344 205.712,204.688 205.625 C 205.535 205.409,204.642 205.409,203.438 205.625 M208.141 207.746 C 209.053 210.071,209.871 218.373,209.222 218.720 C 206.452 220.203,194.727 220.536,191.322 219.230 C 190.853 219.050,191.046 216.157,191.873 210.958 C 192.218 208.793,192.500 206.985,192.500 206.941 C 192.500 206.896,192.710 206.973,192.966 207.110 C 193.647 207.474,204.783 207.365,206.171 206.981 C 207.579 206.591,207.707 206.640,208.141 207.746 M204.219 207.852 C 204.419 207.904,204.747 207.904,204.948 207.852 C 205.148 207.800,204.984 207.757,204.583 207.757 C 204.182 207.757,204.018 207.800,204.219 207.852 M201.615 208.067 C 201.987 208.114,202.596 208.114,202.969 208.067 C 203.341 208.021,203.036 207.983,202.292 207.983 C 201.547 207.983,201.242 208.021,201.615 208.067 M204.427 208.685 C 204.628 208.738,204.956 208.738,205.156 208.685 C 205.357 208.633,205.193 208.590,204.792 208.590 C 204.391 208.590,204.227 208.633,204.427 208.685 M198.076 209.065 C 197.159 209.402,195.505 210.504,195.261 210.940 C 195.128 211.178,194.940 211.204,194.416 211.053 C 193.998 210.934,193.788 210.934,193.862 211.055 C 193.929 211.162,194.165 211.250,194.387 211.250 C 194.944 211.250,194.898 211.846,194.323 212.077 C 194.065 212.180,193.971 212.271,194.115 212.278 C 194.501 212.298,194.430 212.864,194.010 213.108 C 193.808 213.226,193.762 213.323,193.906 213.327 C 194.306 213.337,194.215 214.123,193.802 214.231 C 193.469 214.318,193.469 214.329,193.792 214.351 C 194.003 214.365,194.322 214.771,194.579 215.351 L 195.010 216.326 196.307 214.543 C 197.021 213.562,198.150 211.948,198.818 210.954 C 200.110 209.033,200.149 209.013,201.414 209.636 C 202.022 209.935,202.070 209.833,199.483 213.698 C 196.497 218.159,196.505 218.145,197.458 217.083 C 197.921 216.568,198.797 215.349,199.404 214.375 C 201.165 211.549,202.097 210.347,202.340 210.590 C 202.485 210.735,202.400 211.056,202.073 211.599 C 201.061 213.278,198.969 216.394,198.253 217.292 C 197.316 218.465,197.312 218.435,198.438 218.750 C 201.261 219.541,205.120 218.059,206.043 215.831 C 206.184 215.489,206.453 215.207,206.640 215.205 C 206.902 215.203,206.917 215.162,206.705 215.028 C 206.253 214.742,206.686 213.484,207.303 213.292 C 207.803 213.136,207.803 213.134,207.259 213.200 C 206.706 213.268,206.253 212.376,206.576 211.854 C 206.639 211.751,206.545 211.667,206.366 211.667 C 205.777 211.667,206.029 211.106,206.719 210.883 C 207.341 210.683,207.315 210.674,206.406 210.777 C 205.744 210.853,205.417 210.812,205.417 210.655 C 205.417 210.526,204.901 210.129,204.271 209.774 C 203.641 209.418,203.177 209.042,203.241 208.938 C 203.431 208.632,198.955 208.742,198.076 209.065 M206.771 217.500 C 206.204 217.644,206.194 217.660,206.667 217.669 C 206.953 217.675,207.375 217.598,207.604 217.500 C 208.118 217.279,207.638 217.279,206.771 217.500 M193.142 217.575 C 193.190 217.616,193.510 217.713,193.854 217.790 C 194.311 217.892,194.395 217.872,194.167 217.718 C 193.885 217.527,192.933 217.395,193.142 217.575 M205.729 218.542 C 205.172 218.684,205.160 218.701,205.625 218.701 C 205.911 218.701,206.427 218.629,206.771 218.542 C 207.328 218.400,207.340 218.383,206.875 218.383 C 206.589 218.383,206.073 218.454,205.729 218.542 M193.125 218.740 C 193.297 218.857,193.617 218.953,193.837 218.955 C 194.370 218.959,194.204 218.840,193.438 218.669 C 192.981 218.567,192.897 218.586,193.125 218.740 M205.052 221.394 C 205.253 221.446,205.581 221.446,205.781 221.394 C 205.982 221.341,205.818 221.298,205.417 221.298 C 205.016 221.298,204.852 221.341,205.052 221.394 M193.594 221.602 C 193.794 221.654,194.122 221.654,194.323 221.602 C 194.523 221.550,194.359 221.507,193.958 221.507 C 193.557 221.507,193.393 221.550,193.594 221.602 M202.969 221.608 C 203.284 221.655,203.799 221.655,204.115 221.608 C 204.430 221.560,204.172 221.521,203.542 221.521 C 202.911 221.521,202.654 221.560,202.969 221.608 M193.594 222.435 C 193.794 222.488,194.122 222.488,194.323 222.435 C 194.523 222.383,194.359 222.340,193.958 222.340 C 193.557 222.340,193.393 222.383,193.594 222.435 M203.180 222.441 C 203.497 222.489,203.965 222.488,204.222 222.438 C 204.478 222.389,204.219 222.350,203.646 222.351 C 203.073 222.353,202.863 222.393,203.180 222.441 M205.260 223.269 C 205.461 223.321,205.789 223.321,205.990 223.269 C 206.190 223.216,206.026 223.173,205.625 223.173 C 205.224 223.173,205.060 223.216,205.260 223.269 M193.385 223.477 C 193.586 223.529,193.914 223.529,194.115 223.477 C 194.315 223.425,194.151 223.382,193.750 223.382 C 193.349 223.382,193.185 223.425,193.385 223.477 M203.388 223.483 C 203.705 223.531,204.174 223.529,204.430 223.480 C 204.686 223.431,204.427 223.391,203.854 223.393 C 203.281 223.394,203.072 223.435,203.388 223.483 M193.333 224.375 C 194.046 224.603,194.593 224.603,194.063 224.375 C 193.833 224.277,193.458 224.199,193.229 224.202 C 192.894 224.207,192.915 224.241,193.333 224.375 M202.870 224.528 C 203.360 224.572,204.110 224.571,204.537 224.526 C 204.963 224.482,204.563 224.446,203.646 224.446 C 202.729 224.447,202.380 224.484,202.870 224.528 " stroke="none" fill="#f8f7f7" fill-rule="evenodd"></path><path id="path1" d="M0.000 112.500 L 0.000 225.000 94.571 225.000 L 189.141 225.000 189.261 224.115 C 189.327 223.628,189.569 221.026,189.798 218.333 C 190.638 208.439,191.405 204.180,193.522 197.646 C 194.086 195.904,194.705 193.917,194.897 193.229 C 195.519 191.000,199.717 182.436,200.237 182.336 C 200.482 182.289,201.019 183.293,202.351 186.292 C 204.915 192.064,205.294 193.096,206.451 197.448 C 207.022 199.596,207.858 202.585,208.309 204.089 C 209.837 209.179,211.024 217.220,211.042 222.604 C 211.045 223.406,211.104 224.273,211.173 224.531 L 211.299 225.000 305.649 225.000 L 400.000 225.000 400.000 112.500 L 400.000 0.000 200.000 0.000 L 0.000 0.000 0.000 112.500 M158.193 76.273 C 169.003 78.955,174.034 91.693,167.995 101.094 C 161.522 111.170,146.780 111.274,140.325 101.290 C 132.151 88.647,143.578 72.648,158.193 76.273 M196.354 76.345 C 198.401 76.898,202.292 78.887,202.292 79.379 C 202.292 79.473,201.397 80.581,200.304 81.843 L 198.315 84.136 197.022 83.535 C 191.392 80.919,184.745 83.901,183.228 89.725 C 181.052 98.082,189.442 104.943,197.112 101.079 L 198.703 100.277 200.653 102.532 C 203.046 105.301,202.977 104.985,201.414 106.001 C 190.246 113.264,175.724 105.565,175.751 92.396 C 175.773 81.536,186.023 73.551,196.354 76.345 M125.250 76.481 C 133.603 78.230,135.617 90.345,128.185 94.136 L 127.323 94.576 130.433 101.270 C 132.143 104.952,133.542 108.048,133.542 108.149 C 133.542 108.454,126.962 108.380,126.726 108.073 C 126.616 107.930,125.232 105.023,123.650 101.615 L 120.773 95.417 119.241 95.417 L 117.708 95.417 117.708 101.771 L 117.708 108.125 114.479 108.125 L 111.250 108.125 111.250 92.188 L 111.250 76.250 117.698 76.250 C 121.619 76.250,124.579 76.341,125.250 76.481 M214.840 81.283 L 214.896 86.315 219.450 81.283 L 224.004 76.250 228.252 76.250 C 230.588 76.250,232.500 76.320,232.500 76.406 C 232.499 76.492,230.064 79.281,227.087 82.604 C 224.111 85.927,221.675 88.740,221.675 88.854 C 221.675 88.969,224.193 93.328,227.270 98.542 L 232.865 108.021 229.200 108.078 C 227.184 108.109,225.434 108.096,225.310 108.049 C 225.186 108.001,223.308 104.771,221.136 100.870 L 217.188 93.778 215.990 94.956 L 214.792 96.133 214.792 102.129 L 214.792 108.125 211.563 108.125 L 208.333 108.125 208.333 92.188 L 208.333 76.250 211.559 76.250 L 214.784 76.250 214.840 81.283 M259.792 79.479 L 259.792 82.708 252.396 82.708 L 245.000 82.708 245.000 85.625 L 245.000 88.542 251.042 88.542 L 257.083 88.542 257.083 91.771 L 257.083 95.000 251.042 95.000 L 245.000 95.000 245.000 98.333 L 245.000 101.667 252.297 101.667 L 259.594 101.667 259.537 104.948 L 259.479 108.229 248.958 108.229 L 238.438 108.229 238.384 92.500 C 238.354 83.849,238.375 76.654,238.429 76.510 C 238.507 76.307,240.847 76.250,249.160 76.250 L 259.792 76.250 259.792 79.479 M288.750 79.479 L 288.750 82.708 284.377 82.708 L 280.003 82.708 279.950 95.469 L 279.896 108.229 276.720 108.287 L 273.545 108.344 273.491 95.578 L 273.438 82.813 269.010 82.756 L 264.583 82.700 264.583 79.475 L 264.583 76.250 276.667 76.250 L 288.750 76.250 288.750 79.479 M151.354 82.793 C 144.065 85.107,141.882 94.186,147.378 99.327 C 155.472 106.899,167.812 97.575,162.797 87.677 C 160.799 83.735,155.504 81.474,151.354 82.793 M117.708 85.833 L 117.708 88.958 120.889 88.958 C 125.262 88.958,126.785 87.968,126.352 85.406 C 125.996 83.294,124.745 82.711,120.573 82.709 L 117.708 82.708 117.708 85.833 M142.396 116.888 C 144.579 117.563,148.542 119.731,148.542 120.250 C 148.542 120.443,145.769 125.076,145.406 125.489 C 145.321 125.586,144.729 125.331,144.091 124.923 C 139.379 121.909,134.792 122.166,134.792 125.443 C 134.792 127.248,135.501 127.823,139.237 129.047 C 146.115 131.300,149.356 134.922,149.130 140.102 C 148.708 149.753,136.364 152.434,127.333 144.837 C 125.958 143.681,125.914 143.809,128.550 141.298 L 130.747 139.205 131.874 140.141 C 136.375 143.879,142.708 143.509,142.708 139.508 C 142.708 137.922,139.776 135.778,136.563 135.015 C 125.964 132.498,125.406 119.202,135.788 116.559 C 137.410 116.146,140.494 116.300,142.396 116.888 M239.479 116.761 C 241.526 117.315,245.417 119.304,245.417 119.796 C 245.417 119.889,244.522 120.998,243.429 122.259 L 241.440 124.553 240.147 123.952 C 234.529 121.341,227.867 124.330,226.353 130.142 C 224.144 138.623,232.883 145.527,240.546 141.356 L 241.822 140.662 243.828 142.972 C 246.191 145.693,246.116 145.397,244.688 146.344 C 233.553 153.735,218.849 146.027,218.876 132.813 C 218.898 121.953,229.148 113.967,239.479 116.761 M178.166 132.500 C 182.257 141.151,185.610 148.349,185.615 148.495 C 185.623 148.702,184.857 148.748,182.135 148.703 L 178.646 148.646 177.203 145.677 L 175.760 142.708 169.286 142.712 L 162.813 142.715 161.269 145.733 L 159.725 148.750 156.229 148.750 C 154.306 148.750,152.695 148.680,152.649 148.594 C 152.603 148.508,154.362 144.922,156.558 140.625 C 158.754 136.328,162.404 129.175,164.669 124.729 L 168.786 116.645 169.756 116.708 L 170.726 116.771 178.166 132.500 M195.668 127.448 C 195.727 137.931,195.741 138.256,196.171 139.185 C 198.279 143.742,204.738 143.771,206.871 139.233 C 207.296 138.329,207.310 137.991,207.352 127.537 L 207.396 116.771 210.625 116.771 L 213.854 116.771 213.908 127.348 C 213.968 139.046,213.914 139.707,212.697 142.178 C 208.138 151.439,194.840 151.413,190.394 142.135 C 189.229 139.703,189.174 139.045,189.170 127.344 L 189.167 116.667 192.387 116.667 L 195.607 116.667 195.668 127.448 M272.708 119.896 L 272.708 123.125 265.313 123.125 L 257.917 123.125 257.917 126.042 L 257.917 128.958 264.063 128.958 L 270.208 128.958 270.208 132.188 L 270.208 135.417 264.063 135.417 L 257.917 135.417 257.917 138.750 L 257.917 142.083 265.208 142.083 L 272.500 142.083 272.500 145.417 L 272.500 148.750 261.979 148.750 L 251.458 148.750 251.458 132.708 L 251.458 116.667 262.083 116.667 L 272.708 116.667 272.708 119.896 M167.848 132.841 C 166.957 134.628,166.267 136.128,166.314 136.175 C 166.361 136.222,167.819 136.235,169.552 136.203 L 172.705 136.146 171.237 133.021 C 170.430 131.302,169.701 129.828,169.619 129.744 C 169.536 129.661,168.739 131.055,167.848 132.841 M199.675 185.573 C 199.356 186.346,198.366 188.637,197.477 190.664 C 195.802 194.479,195.367 195.741,194.511 199.271 C 194.233 200.417,193.814 202.010,193.580 202.813 C 192.777 205.564,192.784 205.759,193.694 205.901 C 198.888 206.711,207.052 206.491,207.421 205.532 C 207.471 205.401,207.275 204.502,206.987 203.533 C 206.698 202.564,206.093 200.365,205.643 198.646 C 204.204 193.157,200.907 184.167,200.332 184.167 C 200.290 184.167,199.994 184.799,199.675 185.573 M203.074 194.010 C 202.973 194.320,201.667 194.493,201.667 194.197 C 201.667 193.945,202.034 193.788,202.674 193.766 C 202.974 193.756,203.127 193.849,203.074 194.010 M203.392 195.104 C 203.417 195.219,203.039 195.341,202.552 195.377 C 202.065 195.412,201.667 195.348,201.667 195.236 C 201.667 194.821,203.303 194.697,203.392 195.104 M203.750 196.048 C 203.750 196.368,203.266 196.495,202.366 196.411 C 201.583 196.338,201.576 196.330,202.083 196.098 C 202.743 195.796,203.750 195.766,203.750 196.048 M204.063 197.292 C 204.240 197.578,203.272 197.917,202.278 197.917 C 201.396 197.917,201.158 197.572,201.927 197.408 C 202.185 197.353,202.583 197.268,202.813 197.220 C 203.569 197.060,203.932 197.081,204.063 197.292 M204.375 198.311 C 204.375 198.575,203.885 198.730,202.558 198.886 C 201.618 198.997,201.420 198.968,201.500 198.730 C 201.653 198.268,204.375 197.871,204.375 198.311 M204.491 199.486 C 204.040 199.827,201.458 199.922,201.458 199.597 C 201.458 199.364,202.197 199.238,203.750 199.205 C 204.800 199.182,204.862 199.206,204.491 199.486 M196.667 199.792 C 196.667 199.906,196.532 200.000,196.366 200.000 C 196.201 200.000,196.008 199.906,195.938 199.792 C 195.867 199.677,196.002 199.583,196.238 199.583 C 196.474 199.583,196.667 199.677,196.667 199.792 M205.000 200.413 C 205.000 200.525,204.742 200.674,204.427 200.743 C 203.431 200.963,203.414 201.008,204.323 201.025 C 206.302 201.062,204.283 201.875,202.212 201.875 C 200.853 201.875,200.857 201.591,202.220 201.325 L 203.438 201.087 202.344 201.064 C 201.078 201.038,200.887 200.703,202.031 200.516 C 202.461 200.446,202.953 200.359,203.125 200.323 C 203.852 200.169,205.000 200.224,205.000 200.413 M196.244 200.617 C 196.413 200.723,196.487 200.874,196.409 200.952 C 196.219 201.143,195.625 200.900,195.625 200.632 C 195.625 200.367,195.841 200.362,196.244 200.617 M196.250 201.667 C 196.250 201.781,196.063 201.875,195.833 201.875 C 195.604 201.875,195.417 201.781,195.417 201.667 C 195.417 201.552,195.604 201.458,195.833 201.458 C 196.063 201.458,196.250 201.552,196.250 201.667 M205.625 202.278 C 205.625 202.535,205.194 202.657,203.373 202.913 C 201.933 203.115,200.661 203.022,200.943 202.735 C 201.278 202.395,205.625 201.970,205.625 202.278 M196.146 202.708 C 196.075 202.823,195.841 202.917,195.625 202.917 C 195.409 202.917,195.175 202.823,195.104 202.708 C 195.029 202.586,195.245 202.500,195.625 202.500 C 196.005 202.500,196.221 202.586,196.146 202.708 M205.833 203.130 C 205.833 203.515,204.721 203.786,202.656 203.903 C 199.904 204.060,200.027 203.699,202.865 203.293 C 205.742 202.881,205.833 202.876,205.833 203.130 M195.833 203.542 C 195.833 203.656,195.651 203.750,195.429 203.750 C 195.207 203.750,194.967 203.656,194.896 203.542 C 194.823 203.424,194.998 203.333,195.300 203.333 C 195.593 203.333,195.833 203.427,195.833 203.542 M206.064 204.244 C 205.620 204.779,200.804 205.458,200.536 205.024 C 200.353 204.728,200.467 204.697,203.125 204.320 C 206.122 203.896,206.358 203.890,206.064 204.244 M195.619 204.367 C 195.788 204.473,195.862 204.624,195.785 204.701 C 195.589 204.897,194.583 204.621,194.583 204.371 C 194.583 204.113,195.214 204.111,195.619 204.367 M206.458 205.200 C 206.458 205.580,203.021 206.237,200.990 206.246 C 199.867 206.251,199.652 205.907,200.677 205.745 C 204.933 205.075,206.458 204.931,206.458 205.200 M195.377 205.521 C 195.316 205.764,194.780 205.682,194.479 205.383 C 194.341 205.246,194.466 205.199,194.850 205.244 C 195.169 205.282,195.406 205.406,195.377 205.521 M207.028 207.000 C 206.960 207.068,206.949 207.242,207.004 207.386 C 207.170 207.818,204.719 208.229,201.979 208.229 C 199.126 208.229,197.895 207.925,199.792 207.689 C 200.485 207.603,199.455 207.551,197.188 207.558 C 195.125 207.565,193.282 207.501,193.092 207.416 C 192.654 207.220,192.655 207.215,191.974 211.458 C 191.670 213.349,191.406 215.831,191.388 216.974 L 191.354 219.053 192.708 219.303 C 198.012 220.283,203.469 220.109,208.203 218.808 L 209.427 218.472 209.281 216.487 C 208.851 210.629,207.805 206.223,207.028 207.000 M195.207 208.120 C 195.425 208.257,195.452 208.382,195.298 208.536 C 195.047 208.786,193.750 208.425,193.750 208.105 C 193.750 207.858,194.809 207.868,195.207 208.120 M207.083 208.318 C 207.083 208.486,206.539 208.632,204.194 209.090 C 203.923 209.144,203.752 209.238,203.815 209.301 C 203.878 209.364,204.409 209.313,204.996 209.187 C 206.688 208.824,208.120 209.006,207.031 209.445 C 206.882 209.506,206.934 209.557,207.153 209.567 C 207.836 209.596,207.388 210.098,206.443 210.361 L 205.521 210.618 206.640 210.495 C 207.944 210.350,208.066 210.726,206.862 211.177 L 206.146 211.446 206.927 211.325 C 207.557 211.227,207.708 211.269,207.708 211.539 C 207.708 211.724,207.544 211.886,207.344 211.899 C 206.997 211.922,206.997 211.928,207.344 212.019 C 207.544 212.071,207.708 212.241,207.708 212.396 C 207.708 212.551,207.544 212.721,207.344 212.773 C 207.069 212.845,207.095 212.874,207.448 212.892 C 207.706 212.906,207.917 213.013,207.917 213.132 C 207.917 213.250,207.706 213.432,207.448 213.535 C 206.997 213.716,207.001 213.724,207.552 213.737 C 208.190 213.751,208.326 214.116,207.760 214.295 C 206.770 214.607,206.607 214.752,207.372 214.639 C 208.456 214.479,208.315 214.974,207.175 215.329 L 206.354 215.584 207.344 215.472 C 207.987 215.399,208.333 215.439,208.333 215.587 C 208.333 215.814,207.082 216.247,206.419 216.249 C 206.225 216.249,205.998 216.360,205.916 216.494 C 205.811 216.663,205.884 216.692,206.154 216.588 C 207.041 216.248,208.393 216.175,208.294 216.473 C 208.174 216.833,207.463 217.036,206.223 217.063 C 205.603 217.076,205.158 217.206,204.975 217.426 C 204.725 217.727,204.741 217.754,205.106 217.646 C 206.047 217.369,208.146 217.035,208.256 217.145 C 208.658 217.547,205.937 218.310,204.987 218.061 C 204.741 217.997,203.978 218.222,203.187 218.592 C 201.592 219.339,199.446 219.463,198.072 218.889 C 197.092 218.479,197.097 218.404,198.193 217.050 C 199.186 215.824,202.024 211.473,202.212 210.890 C 202.447 210.160,201.619 211.282,199.104 215.104 C 197.569 217.437,197.018 218.125,196.685 218.125 C 196.333 218.125,196.417 217.676,196.857 217.201 C 198.314 215.627,201.655 210.094,201.303 209.835 C 200.550 209.280,199.968 209.613,198.831 211.250 C 195.212 216.464,195.183 216.500,194.802 216.155 C 194.606 215.978,194.167 215.833,193.825 215.833 C 193.186 215.833,192.297 215.342,192.525 215.114 C 192.596 215.043,193.029 215.070,193.487 215.173 C 194.245 215.343,194.312 215.325,194.220 214.972 C 194.164 214.758,193.959 214.583,193.766 214.583 C 193.572 214.583,193.231 214.446,193.009 214.277 C 192.626 213.988,192.641 213.971,193.281 213.965 C 194.089 213.957,194.157 213.699,193.438 213.371 C 192.694 213.033,192.767 212.642,193.542 212.813 C 194.299 212.979,194.368 212.659,193.646 212.330 C 192.859 211.971,192.993 211.623,193.854 211.785 C 194.758 211.954,194.856 211.551,193.958 211.354 C 193.615 211.279,193.333 211.084,193.333 210.921 C 193.333 210.603,193.555 210.581,194.375 210.816 C 194.792 210.935,195.084 210.810,195.833 210.193 C 197.545 208.785,197.882 208.689,201.732 208.526 C 203.658 208.444,205.291 208.320,205.360 208.251 C 205.564 208.047,207.083 208.107,207.083 208.318 M195.052 209.099 C 195.366 209.284,195.197 209.583,194.778 209.583 C 194.234 209.583,193.542 209.220,193.542 208.934 C 193.542 208.735,194.636 208.854,195.052 209.099 M194.879 209.918 C 195.380 210.110,195.272 210.417,194.705 210.417 C 194.067 210.417,193.542 210.218,193.542 209.978 C 193.542 209.766,194.384 209.728,194.879 209.918 M194.283 216.545 C 194.505 216.708,194.617 216.910,194.532 216.996 C 194.347 217.181,192.778 216.740,192.601 216.453 C 192.404 216.135,193.829 216.213,194.283 216.545 M194.323 217.524 C 195.103 217.814,194.893 218.190,194.040 218.030 C 192.959 217.828,192.292 217.544,192.292 217.287 C 192.292 217.056,193.416 217.187,194.323 217.524 M208.542 218.115 C 208.542 218.432,207.117 218.777,205.313 218.898 C 203.240 219.037,203.417 218.759,205.691 218.306 C 207.725 217.901,208.542 217.847,208.542 218.115 M193.948 218.559 C 194.903 218.764,195.485 219.375,194.725 219.375 C 194.166 219.375,192.292 218.727,192.292 218.534 C 192.292 218.276,192.652 218.281,193.948 218.559 M207.594 220.101 C 203.044 221.242,197.877 221.307,191.732 220.302 L 190.859 220.159 190.794 222.595 L 190.729 225.030 198.958 224.926 C 203.484 224.869,207.598 224.758,208.100 224.679 C 208.751 224.576,208.972 224.601,208.869 224.767 C 208.775 224.919,208.946 225.000,209.363 225.000 C 209.984 225.000,210.000 224.976,209.999 224.010 C 209.997 222.432,209.742 219.581,209.605 219.606 C 209.536 219.618,208.631 219.841,207.594 220.101 M208.542 220.817 C 208.542 221.225,205.474 221.735,202.469 221.827 C 198.441 221.949,197.643 221.582,201.491 221.376 C 203.020 221.295,204.974 221.104,205.833 220.953 C 207.785 220.609,208.542 220.571,208.542 220.817 M194.531 221.370 C 195.321 221.532,195.052 221.874,194.115 221.899 L 193.229 221.923 194.013 222.075 C 194.444 222.158,194.856 222.286,194.928 222.359 C 195.201 222.632,194.295 222.763,193.379 222.583 C 192.356 222.382,191.926 221.889,192.743 221.854 L 193.229 221.833 192.724 221.692 C 190.993 221.209,192.472 220.945,194.531 221.370 M208.333 221.659 C 208.333 221.873,207.402 222.163,205.630 222.499 C 203.693 222.866,198.541 222.734,198.542 222.318 C 198.542 222.246,199.878 222.165,201.511 222.138 C 203.143 222.111,205.135 221.960,205.938 221.802 C 207.777 221.439,208.333 221.406,208.333 221.659 M208.750 222.692 C 208.750 223.178,202.985 223.996,200.833 223.815 C 197.580 223.541,197.858 223.239,201.407 223.188 C 202.982 223.166,205.021 223.013,205.938 222.849 C 207.978 222.484,208.750 222.441,208.750 222.692 M194.531 223.256 C 195.238 223.446,195.094 223.750,194.297 223.750 C 193.314 223.750,192.292 223.524,192.292 223.307 C 192.292 223.101,193.821 223.066,194.531 223.256 M208.570 223.856 C 208.558 224.562,199.398 225.106,198.732 224.440 C 198.541 224.249,199.239 224.188,201.794 224.172 C 203.615 224.161,205.807 224.027,206.667 223.874 C 208.396 223.567,208.574 223.566,208.570 223.856 M194.151 224.141 C 194.804 224.324,194.969 224.792,194.380 224.792 C 193.669 224.792,192.083 224.343,192.083 224.142 C 192.083 223.932,193.400 223.931,194.151 224.141 " stroke="none" fill="#343434" fill-rule="evenodd"></path><path id="path2" d="M141.875 119.198 C 139.426 119.982,139.103 120.035,136.453 120.079 C 134.904 120.104,133.520 120.197,133.378 120.285 C 133.236 120.373,132.347 120.509,131.404 120.587 L 129.688 120.729 129.063 121.979 C 126.493 127.117,130.173 133.332,136.771 134.997 C 140.735 135.997,143.247 138.266,142.676 140.332 C 141.739 143.726,136.161 143.710,131.975 140.301 L 130.810 139.352 129.207 140.803 C 128.326 141.601,127.296 142.575,126.920 142.967 L 126.236 143.680 127.233 144.609 C 130.558 147.710,134.081 149.057,138.870 149.060 L 141.802 149.063 143.588 148.178 C 148.837 145.577,150.713 139.474,147.705 134.787 C 146.139 132.347,142.922 130.245,138.778 128.956 C 135.599 127.967,134.766 127.270,134.741 125.575 C 134.685 121.912,139.506 121.759,144.792 125.255 L 145.313 125.600 146.950 122.892 C 147.851 121.403,148.554 120.156,148.513 120.121 C 146.328 118.258,145.271 118.111,141.875 119.198 M167.860 118.675 C 167.614 119.075,152.708 148.368,152.708 148.451 C 152.708 148.501,154.301 148.542,156.249 148.542 L 159.789 148.542 161.250 145.625 L 162.711 142.708 169.286 142.708 L 175.862 142.708 177.239 145.625 L 178.616 148.542 182.110 148.542 L 185.604 148.542 185.314 147.865 C 185.155 147.492,182.077 140.953,178.476 133.333 L 171.927 119.479 170.978 119.124 C 169.820 118.690,168.010 118.429,167.860 118.675 M189.247 122.173 C 188.952 122.942,189.310 138.853,189.647 139.991 C 192.884 150.894,207.803 152.333,212.591 142.204 C 213.791 139.664,213.800 139.587,213.770 131.430 L 213.750 125.881 213.073 125.746 C 211.450 125.424,209.948 125.214,208.779 125.146 L 207.521 125.072 207.458 131.755 L 207.396 138.438 206.831 139.508 C 204.932 143.109,200.255 143.824,197.382 140.951 C 195.656 139.225,195.625 139.043,195.625 130.612 L 195.625 123.382 194.303 123.240 C 193.576 123.162,192.713 122.960,192.385 122.790 C 192.058 122.619,191.384 122.425,190.889 122.357 C 190.394 122.289,189.939 122.153,189.878 122.054 C 189.707 121.779,189.375 121.841,189.247 122.173 M223.870 127.450 C 223.802 127.517,222.833 127.580,221.717 127.588 L 219.688 127.604 219.337 128.958 C 215.599 143.408,232.827 154.904,244.957 146.054 L 245.851 145.402 243.936 143.215 C 241.585 140.530,241.966 140.708,240.369 141.541 C 232.048 145.878,222.796 136.936,226.873 128.497 L 227.264 127.687 226.809 127.516 C 226.282 127.318,224.052 127.267,223.870 127.450 M171.239 132.847 C 172.047 134.585,172.708 136.061,172.708 136.128 C 172.708 136.195,171.209 136.250,169.376 136.250 L 166.043 136.250 167.756 132.817 C 168.698 130.930,169.536 129.453,169.619 129.536 C 169.701 129.619,170.430 131.109,171.239 132.847 M264.583 131.808 C 262.686 132.091,262.003 132.099,259.429 131.867 C 257.006 131.648,256.144 131.648,254.729 131.869 C 253.776 132.017,252.650 132.098,252.227 132.048 L 251.458 131.959 251.458 140.250 L 251.458 148.542 261.979 148.542 L 272.500 148.542 272.500 145.417 L 272.500 142.292 265.208 142.292 L 257.917 142.292 257.917 138.854 L 257.917 135.417 263.958 135.417 L 270.000 135.417 270.000 133.576 C 270.000 132.249,269.927 131.733,269.740 131.724 C 269.596 131.718,268.870 131.661,268.125 131.597 C 267.335 131.530,265.859 131.618,264.583 131.808 " stroke="none" fill="#fa3535" fill-rule="evenodd"></path><path id="path3" d="M209.958 76.405 C 210.909 76.444,212.409 76.444,213.291 76.405 C 214.174 76.366,213.396 76.334,211.563 76.334 C 209.729 76.335,209.007 76.366,209.958 76.405 M226.105 76.406 C 227.343 76.442,229.312 76.442,230.480 76.405 C 231.648 76.368,230.635 76.338,228.229 76.338 C 225.823 76.338,224.867 76.369,226.105 76.406 M238.429 76.510 C 238.375 76.654,238.354 83.849,238.384 92.500 L 238.438 108.229 248.906 108.232 L 259.375 108.235 248.958 108.178 L 238.542 108.121 238.542 92.292 L 238.542 76.462 249.219 76.406 L 259.896 76.350 249.212 76.300 C 240.820 76.261,238.507 76.306,238.429 76.510 M270.573 76.406 C 273.924 76.438,279.409 76.438,282.760 76.406 C 286.112 76.374,283.370 76.348,276.667 76.348 C 269.964 76.348,267.221 76.374,270.573 76.406 M153.597 82.441 C 153.913 82.489,154.382 82.488,154.638 82.438 C 154.895 82.389,154.635 82.350,154.063 82.351 C 153.490 82.353,153.280 82.393,153.597 82.441 M244.874 85.729 C 244.874 87.333,244.907 87.962,244.947 87.126 C 244.986 86.291,244.986 84.978,244.946 84.210 C 244.906 83.441,244.874 84.125,244.874 85.729 M137.557 92.292 C 137.557 92.807,137.597 93.018,137.647 92.760 C 137.697 92.503,137.697 92.081,137.647 91.823 C 137.597 91.565,137.557 91.776,137.557 92.292 M129.883 92.760 L 129.271 93.438 129.948 92.826 C 130.320 92.489,130.625 92.184,130.625 92.149 C 130.625 91.988,130.453 92.129,129.883 92.760 M215.930 94.844 L 214.896 95.938 215.990 94.904 C 216.591 94.335,217.083 93.843,217.083 93.810 C 217.083 93.654,216.890 93.827,215.930 94.844 M244.888 98.333 L 244.896 101.771 252.188 101.775 L 259.479 101.779 252.245 101.720 L 245.010 101.661 244.945 98.279 L 244.879 94.896 244.888 98.333 M141.875 103.399 C 141.875 103.434,142.180 103.739,142.552 104.076 L 143.229 104.688 142.617 104.010 C 142.047 103.379,141.875 103.238,141.875 103.399 M128.490 108.280 C 129.435 108.319,130.982 108.319,131.927 108.280 C 132.872 108.241,132.099 108.210,130.208 108.210 C 128.318 108.210,127.544 108.241,128.490 108.280 M275.052 108.280 C 275.940 108.319,277.393 108.319,278.281 108.280 C 279.169 108.241,278.443 108.209,276.667 108.209 C 274.891 108.209,274.164 108.241,275.052 108.280 M168.673 116.831 C 168.617 116.922,168.916 116.964,169.338 116.924 C 170.626 116.802,170.778 116.716,169.752 116.691 C 169.214 116.678,168.729 116.741,168.673 116.831 M190.791 116.822 C 191.742 116.861,193.242 116.860,194.124 116.821 C 195.007 116.782,194.229 116.751,192.396 116.751 C 190.563 116.751,189.840 116.783,190.791 116.822 M207.389 116.922 C 207.333 117.068,207.313 121.641,207.344 127.083 L 207.400 136.979 207.450 126.927 L 207.500 116.875 210.623 116.875 L 213.746 116.875 213.803 126.823 L 213.860 136.771 213.857 126.771 L 213.854 116.771 210.673 116.713 C 208.242 116.669,207.467 116.719,207.389 116.922 M256.719 116.823 C 259.669 116.855,264.497 116.855,267.448 116.823 C 270.398 116.790,267.984 116.763,262.083 116.763 C 256.182 116.763,253.768 116.790,256.719 116.823 M270.084 132.188 C 270.085 134.021,270.116 134.743,270.155 133.792 C 270.194 132.841,270.194 131.341,270.155 130.459 C 270.116 129.576,270.084 130.354,270.084 132.188 M130.208 131.315 C 130.208 131.351,130.513 131.656,130.885 131.992 L 131.563 132.604 130.951 131.927 C 130.380 131.296,130.208 131.154,130.208 131.315 M218.821 132.813 C 218.822 133.729,218.859 134.078,218.903 133.588 C 218.947 133.098,218.946 132.348,218.901 131.922 C 218.857 131.495,218.821 131.896,218.821 132.813 M129.989 139.948 L 129.271 140.729 130.052 140.011 C 130.482 139.616,130.833 139.265,130.833 139.230 C 130.833 139.071,130.657 139.221,129.989 139.948 M261.510 142.239 C 263.544 142.273,266.872 142.273,268.906 142.239 C 270.940 142.205,269.276 142.177,265.208 142.177 C 261.141 142.177,259.477 142.205,261.510 142.239 M138.490 142.855 C 138.747 142.905,139.169 142.905,139.427 142.855 C 139.685 142.806,139.474 142.765,138.958 142.765 C 138.443 142.765,138.232 142.806,138.490 142.855 M126.250 143.815 C 126.250 143.851,126.555 144.156,126.927 144.492 L 127.604 145.104 126.992 144.427 C 126.422 143.796,126.250 143.654,126.250 143.815 M192.708 145.521 C 193.097 145.922,193.462 146.250,193.519 146.250 C 193.577 146.250,193.305 145.922,192.917 145.521 C 192.528 145.120,192.163 144.792,192.106 144.792 C 192.048 144.792,192.320 145.120,192.708 145.521 M210.197 145.573 L 209.479 146.354 210.260 145.636 C 210.988 144.968,211.137 144.792,210.978 144.792 C 210.944 144.792,210.592 145.143,210.197 145.573 M152.682 148.599 C 152.771 148.688,154.430 148.734,156.370 148.703 L 159.896 148.645 156.208 148.541 C 154.179 148.484,152.593 148.510,152.682 148.599 M180.479 148.697 C 181.487 148.735,183.081 148.735,184.021 148.696 C 184.960 148.658,184.135 148.627,182.188 148.627 C 180.240 148.627,179.471 148.659,180.479 148.697 M256.733 148.698 C 259.692 148.730,264.473 148.730,267.358 148.698 C 270.244 148.665,267.823 148.638,261.979 148.638 C 256.135 148.638,253.775 148.665,256.733 148.698 M202.764 194.941 C 203.112 194.994,203.285 195.118,203.201 195.255 C 203.116 195.391,203.158 195.421,203.305 195.330 C 203.692 195.091,203.361 194.789,202.748 194.823 L 202.188 194.854 202.764 194.941 M203.493 197.231 C 203.765 197.283,203.906 197.417,203.825 197.547 C 203.741 197.683,203.783 197.713,203.930 197.622 C 204.289 197.400,204.004 197.079,203.477 197.112 C 203.024 197.140,203.024 197.141,203.493 197.231 M201.458 197.750 C 201.458 197.842,201.904 197.909,202.448 197.900 C 203.537 197.882,203.449 197.781,202.240 197.661 C 201.810 197.619,201.458 197.659,201.458 197.750 M201.597 198.472 C 201.276 198.793,201.507 198.956,202.240 198.925 C 203.014 198.892,203.015 198.891,202.340 198.807 C 201.965 198.761,201.713 198.635,201.779 198.528 C 201.918 198.303,201.802 198.268,201.597 198.472 M195.677 200.677 C 195.784 201.000,196.458 201.153,196.458 200.855 C 196.458 200.736,196.302 200.698,196.112 200.771 C 195.879 200.861,195.814 200.824,195.916 200.660 C 195.998 200.526,195.959 200.417,195.828 200.417 C 195.697 200.417,195.629 200.534,195.677 200.677 M202.917 201.042 C 203.720 201.299,204.148 201.299,203.750 201.042 C 203.578 200.931,203.203 200.848,202.917 200.857 L 202.396 200.875 202.917 201.042 M200.520 204.793 C 200.337 205.088,200.878 205.253,201.699 205.152 C 202.309 205.077,202.280 205.061,201.458 205.019 C 200.727 204.981,200.612 204.931,200.938 204.792 C 201.277 204.646,201.289 204.610,201.002 204.598 C 200.808 204.590,200.591 204.678,200.520 204.793 M200.000 206.072 C 200.000 206.170,200.586 206.243,201.302 206.234 C 202.781 206.215,202.699 206.117,201.094 205.985 C 200.492 205.935,200.000 205.974,200.000 206.072 M205.417 207.292 C 204.696 207.443,204.695 207.445,205.313 207.469 C 205.656 207.483,206.078 207.403,206.250 207.292 C 206.597 207.067,206.482 207.067,205.417 207.292 M193.802 207.644 C 194.003 207.696,194.331 207.696,194.531 207.644 C 194.732 207.591,194.568 207.548,194.167 207.548 C 193.766 207.548,193.602 207.591,193.802 207.644 M200.802 207.601 C 200.746 207.657,200.258 207.719,199.718 207.739 C 199.177 207.760,198.809 207.845,198.899 207.929 C 198.989 208.012,200.188 207.963,201.563 207.819 C 204.029 207.561,204.042 207.557,202.483 207.529 C 201.614 207.513,200.857 207.545,200.802 207.601 M205.104 208.125 C 205.333 208.223,205.661 208.304,205.833 208.304 C 206.030 208.304,205.992 208.238,205.729 208.125 C 205.500 208.027,205.172 207.946,205.000 207.946 C 204.803 207.946,204.842 208.012,205.104 208.125 M200.052 208.269 C 200.253 208.321,200.581 208.321,200.781 208.269 C 200.982 208.216,200.818 208.173,200.417 208.173 C 200.016 208.173,199.852 208.216,200.052 208.269 M202.517 208.200 C 202.565 208.241,203.073 208.329,203.646 208.395 C 204.316 208.472,204.539 208.451,204.271 208.335 C 203.873 208.162,202.337 208.044,202.517 208.200 M205.313 208.958 C 205.542 209.057,205.870 209.137,206.042 209.137 C 206.239 209.137,206.200 209.071,205.938 208.958 C 205.708 208.860,205.380 208.779,205.208 208.779 C 205.011 208.779,205.050 208.845,205.313 208.958 M204.400 209.355 C 204.169 209.501,204.190 209.559,204.504 209.645 C 205.648 209.959,206.069 210.005,205.943 209.800 C 205.869 209.681,205.510 209.582,205.144 209.580 C 204.638 209.578,204.554 209.529,204.792 209.375 C 204.964 209.264,205.010 209.173,204.896 209.173 C 204.781 209.173,204.558 209.255,204.400 209.355 M199.765 209.740 C 199.516 210.057,199.520 210.073,199.792 209.866 C 199.964 209.735,200.292 209.582,200.521 209.526 C 200.917 209.428,200.915 209.422,200.494 209.399 C 200.250 209.386,199.922 209.539,199.765 209.740 M206.458 209.569 C 206.458 209.692,206.651 209.792,206.887 209.792 C 207.170 209.792,207.266 209.880,207.169 210.052 C 207.053 210.259,207.079 210.260,207.299 210.056 C 207.618 209.760,207.572 209.689,206.927 209.491 C 206.644 209.404,206.458 209.435,206.458 209.569 M206.155 211.236 C 206.089 211.342,206.145 211.497,206.279 211.580 C 206.436 211.677,206.467 211.640,206.366 211.477 C 206.249 211.288,206.413 211.252,207.011 211.336 C 207.635 211.424,207.697 211.409,207.292 211.266 C 206.578 211.015,206.296 211.008,206.155 211.236 M190.048 215.208 C 190.048 215.609,190.091 215.773,190.144 215.573 C 190.196 215.372,190.196 215.044,190.144 214.844 C 190.091 214.643,190.048 214.807,190.048 215.208 M209.215 215.625 C 209.215 216.026,209.258 216.190,209.310 215.990 C 209.363 215.789,209.363 215.461,209.310 215.260 C 209.258 215.060,209.215 215.224,209.215 215.625 M206.346 215.431 C 206.270 215.553,206.265 215.709,206.333 215.778 C 206.402 215.847,206.458 215.782,206.458 215.635 C 206.458 215.471,206.618 215.410,206.875 215.477 C 207.105 215.537,207.240 215.501,207.175 215.397 C 207.016 215.139,206.513 215.159,206.346 215.431 M205.891 216.302 C 205.502 216.806,205.394 217.083,205.588 217.083 C 205.696 217.083,205.837 216.883,205.901 216.637 C 206.003 216.249,206.121 216.208,206.811 216.319 C 207.354 216.406,207.505 216.384,207.292 216.247 C 206.851 215.966,206.129 215.994,205.891 216.302 M189.840 217.708 C 189.840 218.109,189.883 218.273,189.935 218.073 C 189.988 217.872,189.988 217.544,189.935 217.344 C 189.883 217.143,189.840 217.307,189.840 217.708 M192.339 217.331 C 192.385 217.467,192.557 217.615,192.721 217.659 C 192.969 217.726,192.972 217.706,192.737 217.541 C 192.497 217.373,192.497 217.325,192.737 217.229 C 192.928 217.153,192.896 217.111,192.639 217.100 C 192.429 217.091,192.294 217.195,192.339 217.331 M191.058 218.061 C 191.049 218.541,191.116 218.980,191.206 219.036 C 191.297 219.092,191.337 218.792,191.296 218.371 C 191.182 217.218,191.077 217.081,191.058 218.061 M209.423 217.917 C 209.423 218.318,209.466 218.482,209.519 218.281 C 209.571 218.081,209.571 217.753,209.519 217.552 C 209.466 217.352,209.423 217.516,209.423 217.917 M204.304 217.864 C 204.250 217.950,204.596 218.047,205.072 218.079 C 205.548 218.111,206.125 218.185,206.354 218.245 C 206.673 218.328,206.697 218.308,206.458 218.163 C 206.021 217.896,204.420 217.675,204.304 217.864 M209.789 220.687 L 209.890 221.979 209.957 220.856 C 209.994 220.238,209.948 219.656,209.856 219.563 C 209.763 219.470,209.733 219.976,209.789 220.687 M189.632 220.208 C 189.632 220.609,189.675 220.773,189.727 220.573 C 189.779 220.372,189.779 220.044,189.727 219.844 C 189.675 219.643,189.632 219.807,189.632 220.208 M210.886 220.938 C 210.888 221.396,210.931 221.559,210.981 221.300 C 211.031 221.041,211.029 220.666,210.976 220.466 C 210.924 220.267,210.884 220.479,210.886 220.938 M196.825 220.981 C 197.084 221.031,197.459 221.029,197.659 220.976 C 197.858 220.924,197.646 220.884,197.188 220.886 C 196.729 220.888,196.566 220.931,196.825 220.981 M200.472 220.983 C 200.788 221.031,201.257 221.029,201.513 220.980 C 201.770 220.931,201.510 220.891,200.938 220.893 C 200.365 220.894,200.155 220.935,200.472 220.983 M192.131 221.289 C 192.176 221.425,192.348 221.573,192.513 221.617 C 192.766 221.686,192.768 221.667,192.522 221.495 C 192.285 221.330,192.304 221.274,192.626 221.191 C 192.950 221.108,192.934 221.086,192.535 221.066 C 192.244 221.051,192.082 221.141,192.131 221.289 M198.958 221.657 C 199.130 221.773,199.451 221.870,199.670 221.872 C 200.203 221.876,200.037 221.757,199.271 221.585 C 198.814 221.483,198.730 221.503,198.958 221.657 M192.748 221.815 C 192.238 221.913,192.220 222.315,192.721 222.451 C 192.965 222.517,192.963 222.490,192.708 222.311 C 192.445 222.124,192.461 222.089,192.813 222.083 C 193.042 222.080,193.370 221.986,193.542 221.875 C 193.893 221.648,193.699 221.634,192.748 221.815 M204.375 221.875 C 205.087 222.103,205.635 222.103,205.104 221.875 C 204.875 221.777,204.500 221.699,204.271 221.702 C 203.936 221.707,203.956 221.741,204.375 221.875 M189.423 222.500 C 189.423 222.901,189.466 223.065,189.519 222.865 C 189.571 222.664,189.571 222.336,189.519 222.135 C 189.466 221.935,189.423 222.099,189.423 222.500 M198.542 222.268 C 198.542 222.482,199.984 222.794,200.160 222.618 C 200.225 222.553,200.069 222.500,199.814 222.500 C 199.558 222.500,199.408 222.407,199.479 222.292 C 199.552 222.174,199.377 222.083,199.075 222.083 C 198.782 222.083,198.542 222.167,198.542 222.268 M190.690 223.646 C 190.691 224.333,190.730 224.589,190.776 224.215 C 190.822 223.841,190.821 223.278,190.774 222.965 C 190.726 222.652,190.688 222.958,190.690 223.646 M198.542 223.317 C 198.542 223.543,199.765 223.847,199.945 223.666 C 200.014 223.597,199.872 223.542,199.630 223.542 C 199.389 223.542,199.133 223.448,199.063 223.333 C 198.901 223.072,198.542 223.060,198.542 223.317 M198.659 224.368 C 198.784 224.492,199.376 224.502,200.211 224.394 L 201.563 224.220 200.010 224.193 C 199.013 224.176,198.530 224.239,198.659 224.368 M202.448 224.314 C 202.706 224.363,203.128 224.363,203.385 224.314 C 203.643 224.264,203.432 224.223,202.917 224.223 C 202.401 224.223,202.190 224.264,202.448 224.314 M193.802 224.727 C 194.003 224.779,194.331 224.779,194.531 224.727 C 194.732 224.675,194.568 224.632,194.167 224.632 C 193.766 224.632,193.602 224.675,193.802 224.727 M200.052 224.727 C 200.253 224.779,200.581 224.779,200.781 224.727 C 200.982 224.675,200.818 224.632,200.417 224.632 C 200.016 224.632,199.852 224.675,200.052 224.727 " stroke="none" fill="#7b7272" fill-rule="evenodd"></path><path id="path4" d="M259.667 79.583 C 259.667 81.359,259.699 82.086,259.738 81.198 C 259.777 80.310,259.777 78.857,259.738 77.969 C 259.699 77.081,259.667 77.807,259.667 79.583 M279.890 95.521 C 279.890 102.510,279.916 105.340,279.948 101.808 C 279.980 98.276,279.980 92.557,279.948 89.100 C 279.916 85.642,279.890 88.531,279.890 95.521 M200.152 206.609 C 200.521 206.655,201.178 206.655,201.610 206.610 C 202.042 206.565,201.740 206.528,200.938 206.527 C 200.135 206.526,199.782 206.563,200.152 206.609 M197.865 207.439 C 198.122 207.488,198.544 207.488,198.802 207.439 C 199.060 207.389,198.849 207.348,198.333 207.348 C 197.818 207.348,197.607 207.389,197.865 207.439 M204.167 207.500 C 203.914 207.663,203.944 207.703,204.323 207.705 C 204.581 207.707,204.792 207.615,204.792 207.500 C 204.792 207.239,204.571 207.239,204.167 207.500 M201.409 208.272 C 201.668 208.322,202.043 208.320,202.242 208.268 C 202.441 208.216,202.229 208.175,201.771 208.178 C 201.313 208.180,201.150 208.223,201.409 208.272 M198.385 220.983 C 198.701 221.030,199.216 221.030,199.531 220.983 C 199.846 220.935,199.589 220.896,198.958 220.896 C 198.328 220.896,198.070 220.935,198.385 220.983 " stroke="none" fill="#8c8c8c" fill-rule="evenodd"></path><path id="path5" d="M111.346 76.510 C 111.291 76.654,111.271 83.849,111.302 92.500 L 111.357 108.229 111.408 92.347 L 111.458 76.464 117.760 76.406 L 124.063 76.348 117.754 76.299 C 112.862 76.261,111.423 76.308,111.346 76.510 M214.673 81.458 C 214.673 84.266,214.703 85.414,214.739 84.010 C 214.775 82.607,214.775 80.310,214.739 78.906 C 214.703 77.503,214.673 78.651,214.673 81.458 M264.667 79.583 C 264.667 81.359,264.699 82.086,264.738 81.198 C 264.777 80.310,264.777 78.857,264.738 77.969 C 264.699 77.081,264.667 77.807,264.667 79.583 M288.626 79.583 C 288.626 81.359,288.657 82.086,288.697 81.198 C 288.736 80.310,288.736 78.857,288.697 77.969 C 288.657 77.081,288.626 77.807,288.626 79.583 M142.383 80.677 L 141.771 81.354 142.448 80.742 C 142.820 80.406,143.125 80.101,143.125 80.065 C 143.125 79.904,142.953 80.046,142.383 80.677 M132.757 85.833 C 132.757 86.234,132.800 86.398,132.852 86.198 C 132.904 85.997,132.904 85.669,132.852 85.469 C 132.800 85.268,132.757 85.432,132.757 85.833 M119.228 89.113 C 120.122 89.153,121.528 89.152,122.353 89.113 C 123.179 89.073,122.448 89.041,120.729 89.042 C 119.010 89.042,118.335 89.074,119.228 89.113 M170.483 92.292 C 170.483 93.036,170.521 93.341,170.567 92.969 C 170.614 92.596,170.614 91.987,170.567 91.615 C 170.521 91.242,170.483 91.547,170.483 92.292 M182.771 92.292 C 182.771 92.922,182.810 93.180,182.858 92.865 C 182.905 92.549,182.905 92.034,182.858 91.719 C 182.810 91.404,182.771 91.661,182.771 92.292 M247.969 94.947 C 249.659 94.982,252.424 94.982,254.115 94.947 C 255.805 94.912,254.422 94.884,251.042 94.884 C 247.661 94.884,246.279 94.912,247.969 94.947 M214.675 102.083 C 214.675 105.464,214.704 106.846,214.739 105.156 C 214.774 103.466,214.774 100.701,214.739 99.010 C 214.704 97.320,214.675 98.703,214.675 102.083 M153.802 102.227 C 154.003 102.279,154.331 102.279,154.531 102.227 C 154.732 102.175,154.568 102.132,154.167 102.132 C 153.766 102.132,153.602 102.175,153.802 102.227 M165.614 103.906 L 164.896 104.688 165.677 103.970 C 166.404 103.301,166.554 103.125,166.395 103.125 C 166.360 103.125,166.009 103.477,165.614 103.906 M137.867 116.397 C 138.126 116.447,138.501 116.445,138.700 116.393 C 138.900 116.341,138.688 116.300,138.229 116.303 C 137.771 116.305,137.608 116.348,137.867 116.397 M189.248 119.479 C 189.248 120.969,189.281 121.551,189.321 120.773 C 189.362 119.994,189.361 118.776,189.321 118.064 C 189.280 117.353,189.247 117.990,189.248 119.479 M257.791 126.042 C 257.791 127.703,257.823 128.383,257.863 127.552 C 257.903 126.721,257.903 125.362,257.863 124.531 C 257.823 123.701,257.791 124.380,257.791 126.042 M201.875 195.208 C 201.875 195.323,202.133 195.415,202.448 195.413 C 202.894 195.411,202.952 195.366,202.708 195.208 C 202.301 194.945,201.875 194.945,201.875 195.208 M202.083 196.250 C 202.083 196.365,202.294 196.457,202.552 196.455 C 202.931 196.453,202.961 196.413,202.708 196.250 C 202.304 195.989,202.083 195.989,202.083 196.250 M201.990 197.480 C 201.712 197.588,201.891 197.639,202.553 197.639 C 203.087 197.639,203.475 197.561,203.416 197.465 C 203.286 197.255,202.545 197.262,201.990 197.480 M201.875 198.542 C 201.649 198.688,201.822 198.740,202.500 198.732 C 203.213 198.723,203.338 198.678,203.021 198.542 C 202.463 198.302,202.246 198.302,201.875 198.542 M203.733 199.395 C 204.067 199.528,204.310 199.524,204.452 199.381 C 204.599 199.234,204.441 199.171,203.948 199.180 C 203.273 199.192,203.260 199.205,203.733 199.395 M201.875 199.583 C 201.875 199.698,202.227 199.785,202.656 199.777 C 203.283 199.765,203.355 199.727,203.021 199.583 C 202.442 199.335,201.875 199.335,201.875 199.583 M203.021 200.625 C 203.644 200.893,204.164 200.893,203.750 200.625 C 203.578 200.514,203.250 200.428,203.021 200.434 L 202.604 200.446 203.021 200.625 M204.375 201.250 C 204.779 201.511,205.000 201.511,205.000 201.250 C 205.000 201.135,204.789 201.043,204.531 201.045 C 204.152 201.047,204.122 201.087,204.375 201.250 M203.021 201.458 C 203.644 201.726,204.164 201.726,203.750 201.458 C 203.578 201.347,203.250 201.262,203.021 201.268 L 202.604 201.279 203.021 201.458 M203.854 202.500 C 204.428 202.746,204.631 202.746,204.479 202.500 C 204.408 202.385,204.145 202.298,203.894 202.306 C 203.454 202.320,203.452 202.327,203.854 202.500 M201.667 202.708 C 201.443 202.853,201.650 202.907,202.396 202.899 C 203.168 202.890,203.330 202.841,203.021 202.708 C 202.458 202.466,202.041 202.466,201.667 202.708 M204.583 203.333 C 204.987 203.594,205.208 203.594,205.208 203.333 C 205.208 203.219,204.997 203.126,204.740 203.128 C 204.361 203.131,204.331 203.170,204.583 203.333 M203.229 203.542 C 203.458 203.640,203.833 203.721,204.063 203.721 L 204.479 203.721 204.063 203.542 C 203.833 203.443,203.458 203.363,203.229 203.363 L 202.813 203.363 203.229 203.542 M201.250 203.750 C 201.250 203.865,201.484 203.958,201.771 203.958 C 202.057 203.958,202.292 203.865,202.292 203.750 C 202.292 203.635,202.057 203.542,201.771 203.542 C 201.484 203.542,201.250 203.635,201.250 203.750 M204.792 204.375 C 205.196 204.636,205.417 204.636,205.417 204.375 C 205.417 204.260,205.206 204.168,204.948 204.170 C 204.569 204.172,204.539 204.212,204.792 204.375 M203.142 204.450 C 203.190 204.491,203.510 204.588,203.854 204.665 C 204.311 204.767,204.395 204.747,204.167 204.593 C 203.885 204.402,202.933 204.270,203.142 204.450 M201.250 204.792 C 200.848 204.920,200.990 204.962,201.875 204.976 C 202.686 204.988,202.929 204.935,202.708 204.792 C 202.347 204.558,201.980 204.558,201.250 204.792 M194.688 205.417 C 194.758 205.531,194.957 205.625,195.129 205.625 C 195.301 205.625,195.383 205.531,195.313 205.417 C 195.242 205.302,195.043 205.208,194.871 205.208 C 194.699 205.208,194.617 205.302,194.688 205.417 M203.351 205.492 C 203.398 205.533,203.719 205.629,204.063 205.706 C 204.519 205.808,204.603 205.789,204.375 205.635 C 204.094 205.444,203.142 205.311,203.351 205.492 M201.250 205.833 C 200.859 205.958,201.041 206.005,201.979 206.018 C 202.857 206.030,203.136 205.975,202.917 205.833 C 202.553 205.598,201.984 205.598,201.250 205.833 M198.180 206.608 C 198.497 206.656,198.965 206.654,199.222 206.605 C 199.478 206.556,199.219 206.516,198.646 206.518 C 198.073 206.519,197.863 206.560,198.180 206.608 M202.659 206.606 C 202.918 206.656,203.293 206.654,203.492 206.601 C 203.691 206.549,203.479 206.509,203.021 206.511 C 202.563 206.513,202.400 206.556,202.659 206.606 M200.477 207.446 C 201.256 207.487,202.474 207.486,203.186 207.446 C 203.897 207.405,203.260 207.372,201.771 207.373 C 200.281 207.373,199.699 207.406,200.477 207.446 M206.146 207.500 C 206.075 207.615,206.158 207.708,206.330 207.708 C 206.501 207.708,206.700 207.615,206.771 207.500 C 206.842 207.385,206.759 207.292,206.587 207.292 C 206.415 207.292,206.217 207.385,206.146 207.500 M205.000 207.708 C 205.410 207.974,205.893 207.974,205.729 207.708 C 205.658 207.594,205.395 207.501,205.144 207.503 C 204.773 207.506,204.746 207.544,205.000 207.708 M203.021 207.917 C 203.957 208.155,204.825 208.155,204.271 207.917 C 204.042 207.818,203.526 207.742,203.125 207.748 L 202.396 207.758 203.021 207.917 M200.052 208.060 C 200.253 208.113,200.581 208.113,200.781 208.060 C 200.982 208.008,200.818 207.965,200.417 207.965 C 200.016 207.965,199.852 208.008,200.052 208.060 M206.250 208.333 C 206.250 208.448,206.385 208.542,206.550 208.542 C 206.715 208.542,206.908 208.448,206.979 208.333 C 207.050 208.219,206.915 208.125,206.679 208.125 C 206.443 208.125,206.250 208.219,206.250 208.333 M205.104 208.542 C 205.727 208.809,206.247 208.809,205.833 208.542 C 205.661 208.431,205.333 208.345,205.104 208.351 L 204.688 208.363 205.104 208.542 M199.740 208.692 C 200.112 208.739,200.721 208.739,201.094 208.692 C 201.466 208.646,201.161 208.608,200.417 208.608 C 199.672 208.608,199.367 208.646,199.740 208.692 M203.207 208.848 C 203.232 209.017,203.332 209.228,203.430 209.317 C 203.528 209.406,203.541 209.362,203.459 209.219 C 203.352 209.033,203.506 208.957,203.998 208.955 C 204.520 208.953,204.612 208.903,204.375 208.750 C 203.888 208.435,203.155 208.497,203.207 208.848 M193.942 209.233 C 194.049 209.341,194.287 209.324,194.511 209.193 C 194.849 208.996,194.826 208.974,194.326 209.009 C 193.995 209.032,193.834 209.126,193.942 209.233 M205.313 209.375 C 205.383 209.490,205.647 209.582,205.898 209.580 C 206.269 209.578,206.296 209.539,206.042 209.375 C 205.631 209.110,205.149 209.110,205.313 209.375 M204.435 209.542 C 204.256 209.655,204.317 209.785,204.644 209.989 C 205.055 210.245,205.076 210.241,204.835 209.950 C 204.615 209.683,204.615 209.604,204.835 209.516 C 204.983 209.456,205.010 209.402,204.896 209.395 C 204.781 209.387,204.574 209.453,204.435 209.542 M194.128 211.871 C 193.820 211.964,193.514 212.004,193.449 211.959 C 193.383 211.915,193.409 211.975,193.506 212.093 C 193.678 212.303,194.792 212.028,194.792 211.776 C 194.792 211.716,194.768 211.675,194.740 211.685 C 194.711 211.694,194.436 211.778,194.128 211.871 M193.854 212.905 C 193.625 212.997,193.353 213.023,193.249 212.963 C 193.145 212.902,193.128 212.961,193.209 213.093 C 193.405 213.410,193.587 213.396,194.075 213.027 C 194.525 212.687,194.471 212.657,193.854 212.905 M193.083 214.208 C 193.278 214.403,193.389 214.403,193.583 214.208 C 193.778 214.014,193.722 213.958,193.333 213.958 C 192.944 213.958,192.889 214.014,193.083 214.208 M206.554 214.401 C 206.406 214.868,206.726 215.211,207.292 215.191 C 207.483 215.184,207.422 215.093,207.135 214.954 C 206.878 214.830,206.667 214.649,206.667 214.551 C 206.667 214.454,206.878 214.374,207.135 214.372 C 207.514 214.369,207.544 214.330,207.292 214.167 C 206.833 213.870,206.710 213.909,206.554 214.401 M192.708 215.290 C 192.708 215.493,193.295 215.569,193.561 215.401 C 193.774 215.265,193.698 215.214,193.281 215.212 C 192.966 215.210,192.708 215.245,192.708 215.290 M194.073 215.529 C 193.683 215.823,193.689 215.834,194.206 215.791 C 194.550 215.762,194.708 215.649,194.642 215.477 C 194.519 215.156,194.572 215.152,194.073 215.529 M197.383 216.687 C 197.203 216.979,197.658 217.083,197.890 216.803 C 198.062 216.595,198.040 216.528,197.800 216.528 C 197.625 216.528,197.437 216.599,197.383 216.687 M205.313 217.693 C 205.011 217.812,205.145 217.858,205.800 217.859 C 206.374 217.859,206.602 217.795,206.425 217.683 C 206.092 217.472,205.868 217.474,205.313 217.693 M206.979 218.333 C 207.553 218.580,207.756 218.580,207.604 218.333 C 207.533 218.219,207.270 218.132,207.019 218.140 C 206.579 218.154,206.577 218.161,206.979 218.333 M204.479 218.750 C 204.408 218.865,204.543 218.958,204.779 218.958 C 205.015 218.958,205.208 218.865,205.208 218.750 C 205.208 218.635,205.073 218.542,204.908 218.542 C 204.743 218.542,204.550 218.635,204.479 218.750 M210.673 219.167 C 210.673 219.568,210.716 219.732,210.769 219.531 C 210.821 219.331,210.821 219.003,210.769 218.802 C 210.716 218.602,210.673 218.766,210.673 219.167 M193.958 218.958 C 193.724 219.110,193.828 219.160,194.375 219.160 C 194.922 219.160,195.026 219.110,194.792 218.958 C 194.620 218.847,194.432 218.756,194.375 218.756 C 194.318 218.756,194.130 218.847,193.958 218.958 M199.844 219.108 C 200.159 219.155,200.674 219.155,200.990 219.108 C 201.305 219.060,201.047 219.021,200.417 219.021 C 199.786 219.021,199.529 219.060,199.844 219.108 M198.802 220.154 C 199.461 220.195,200.539 220.195,201.198 220.154 C 201.857 220.113,201.318 220.079,200.000 220.079 C 198.682 220.079,198.143 220.113,198.802 220.154 M190.687 221.250 C 190.687 221.880,190.726 222.138,190.774 221.823 C 190.822 221.508,190.822 220.992,190.774 220.677 C 190.726 220.362,190.687 220.620,190.687 221.250 M201.617 220.772 C 201.876 220.822,202.251 220.820,202.450 220.768 C 202.650 220.716,202.438 220.675,201.979 220.678 C 201.521 220.680,201.358 220.723,201.617 220.772 M207.292 220.833 C 206.891 220.918,206.703 221.010,206.875 221.038 C 207.385 221.122,208.007 221.019,208.219 220.815 C 208.440 220.603,208.383 220.604,207.292 220.833 M205.729 221.250 C 206.303 221.496,206.506 221.496,206.354 221.250 C 206.283 221.135,206.020 221.048,205.769 221.056 C 205.329 221.070,205.327 221.077,205.729 221.250 M192.917 221.458 C 192.917 221.703,193.077 221.703,193.646 221.458 C 194.015 221.300,193.997 221.278,193.490 221.265 C 193.174 221.257,192.917 221.344,192.917 221.458 M204.167 221.458 C 204.970 221.715,205.398 221.715,205.000 221.458 C 204.828 221.347,204.453 221.264,204.167 221.274 L 203.646 221.292 204.167 221.458 M200.208 221.667 C 200.942 221.902,203.359 221.902,202.813 221.667 C 202.583 221.568,201.786 221.490,201.042 221.494 C 200.062 221.498,199.832 221.546,200.208 221.667 M207.448 221.624 C 207.133 221.663,206.875 221.784,206.875 221.893 C 206.875 222.067,207.872 221.944,208.108 221.742 C 208.273 221.599,208.018 221.554,207.448 221.624 M210.073 223.333 C 210.073 224.307,210.109 224.706,210.153 224.219 C 210.196 223.732,210.196 222.935,210.153 222.448 C 210.109 221.961,210.073 222.359,210.073 223.333 M210.900 222.917 C 210.900 223.661,210.938 223.966,210.984 223.594 C 211.030 223.221,211.030 222.612,210.984 222.240 C 210.938 221.867,210.900 222.172,210.900 222.917 M192.777 222.326 C 192.948 222.422,193.307 222.413,193.575 222.307 C 193.998 222.140,193.957 222.117,193.264 222.133 C 192.721 222.146,192.566 222.208,192.777 222.326 M204.271 222.292 C 204.887 222.557,205.618 222.557,205.208 222.292 C 205.036 222.181,204.661 222.095,204.375 222.101 C 203.898 222.112,203.889 222.128,204.271 222.292 M200.313 222.500 C 201.185 222.722,203.818 222.722,203.125 222.500 C 202.839 222.408,201.948 222.335,201.146 222.337 C 200.062 222.340,199.848 222.382,200.313 222.500 M207.656 222.649 C 207.341 222.697,207.083 222.834,207.083 222.953 C 207.083 223.200,208.113 223.001,208.427 222.694 C 208.552 222.571,208.552 222.512,208.427 222.531 C 208.318 222.548,207.971 222.601,207.656 222.649 M205.938 223.125 C 206.511 223.371,206.715 223.371,206.563 223.125 C 206.492 223.010,206.228 222.923,205.977 222.931 C 205.537 222.945,205.536 222.952,205.938 223.125 M192.631 223.340 C 192.774 223.482,193.016 223.486,193.350 223.353 C 193.824 223.164,193.811 223.151,193.135 223.138 C 192.642 223.129,192.484 223.192,192.631 223.340 M204.375 223.333 C 204.661 223.425,205.083 223.503,205.313 223.506 L 205.729 223.512 205.313 223.333 C 205.083 223.235,204.661 223.157,204.375 223.160 L 203.854 223.167 204.375 223.333 M199.896 223.542 C 200.760 223.762,204.020 223.762,203.333 223.542 C 203.047 223.450,202.016 223.377,201.042 223.379 C 199.814 223.381,199.462 223.431,199.896 223.542 M207.604 223.958 C 207.440 224.224,207.923 224.224,208.333 223.958 C 208.587 223.794,208.560 223.756,208.189 223.753 C 207.938 223.751,207.675 223.844,207.604 223.958 M192.458 224.208 C 192.653 224.403,192.764 224.403,192.958 224.208 C 193.153 224.014,193.097 223.958,192.708 223.958 C 192.319 223.958,192.264 224.014,192.458 224.208 M206.458 224.167 C 206.869 224.432,207.351 224.432,207.188 224.167 C 207.117 224.052,206.853 223.960,206.602 223.962 C 206.231 223.964,206.204 224.002,206.458 224.167 M204.792 224.375 C 205.588 224.630,206.228 224.630,205.833 224.375 C 205.661 224.264,205.240 224.181,204.896 224.191 C 204.283 224.208,204.281 224.212,204.792 224.375 M200.052 224.519 C 200.253 224.571,200.581 224.571,200.781 224.519 C 200.982 224.466,200.818 224.423,200.417 224.423 C 200.016 224.423,199.852 224.466,200.052 224.519 M201.667 224.585 C 201.950 224.767,203.937 224.893,203.733 224.717 C 203.685 224.675,203.130 224.584,202.500 224.514 C 201.735 224.428,201.458 224.452,201.667 224.585 " stroke="none" fill="#949494" fill-rule="evenodd"></path></g></svg>