<svg id="svg" version="1.1" xmlns="http://www.w3.org/2000/svg" xmlns:xlink="http://www.w3.org/1999/xlink" width="400" height="225" viewBox="0, 0, 400,225"><g id="svgg"><path id="path0" d="M151.771 75.968 C 140.675 77.755,134.531 89.499,139.470 99.479 C 147.148 114.994,170.417 109.467,170.417 92.128 C 170.417 82.314,161.320 74.430,151.771 75.968 M190.350 76.055 C 178.876 77.374,172.383 89.692,177.727 100.000 C 182.160 108.553,193.216 111.330,201.345 105.934 C 201.980 105.513,202.500 105.079,202.500 104.970 C 202.500 104.718,198.707 100.390,198.553 100.466 C 198.489 100.498,197.969 100.770,197.396 101.072 C 189.809 105.067,181.222 98.639,182.986 90.286 C 184.252 84.296,190.836 80.838,196.458 83.209 C 197.203 83.524,197.938 83.797,198.091 83.817 C 198.687 83.896,202.284 79.516,201.940 79.129 C 200.290 77.275,194.074 75.627,190.350 76.055 M111.458 92.281 L 111.458 108.125 114.583 108.125 L 117.708 108.125 117.708 101.762 L 117.708 95.399 119.317 95.460 L 120.925 95.521 123.848 101.816 L 126.771 108.110 130.136 108.118 L 133.502 108.125 130.397 101.436 C 126.845 93.784,127.098 94.546,127.969 94.123 C 134.557 90.918,134.162 80.721,127.319 77.337 L 125.752 76.563 118.605 76.500 L 111.458 76.438 111.458 92.281 M208.333 92.292 L 208.333 108.125 211.458 108.125 L 214.583 108.125 214.583 102.129 L 214.583 96.133 215.846 94.889 C 216.956 93.796,217.138 93.687,217.356 93.986 C 217.493 94.174,219.337 97.431,221.454 101.226 L 225.304 108.125 229.006 108.125 C 231.042 108.125,232.708 108.087,232.708 108.040 C 232.708 107.992,230.286 103.844,227.324 98.821 C 224.363 93.797,221.829 89.478,221.693 89.221 C 221.464 88.788,221.829 88.329,226.869 82.707 C 229.852 79.380,232.292 76.613,232.292 76.558 C 232.292 76.503,230.419 76.458,228.130 76.458 L 223.968 76.458 219.432 81.458 C 216.937 84.208,214.826 86.458,214.740 86.458 C 214.654 86.458,214.583 84.208,214.583 81.458 L 214.583 76.458 211.458 76.458 L 208.333 76.458 208.333 92.292 M238.542 92.292 L 238.542 108.125 249.063 108.125 L 259.583 108.125 259.583 105.000 L 259.583 101.875 252.182 101.875 L 244.782 101.875 244.839 98.385 L 244.896 94.896 250.990 94.841 L 257.083 94.785 257.083 91.664 L 257.083 88.542 250.938 88.542 L 244.792 88.542 244.792 85.625 L 244.792 82.708 252.188 82.708 L 259.583 82.708 259.583 79.583 L 259.583 76.458 249.063 76.458 L 238.542 76.458 238.542 92.292 M264.792 79.583 L 264.792 82.708 269.167 82.708 L 273.542 82.708 273.542 95.417 L 273.542 108.125 276.667 108.125 L 279.792 108.125 279.792 95.417 L 279.792 82.708 284.167 82.708 L 288.542 82.708 288.542 79.583 L 288.542 76.458 276.667 76.458 L 264.792 76.458 264.792 79.583 M156.555 82.611 C 163.999 84.550,166.546 93.825,161.123 99.248 C 155.661 104.710,146.434 102.160,144.477 94.647 C 142.610 87.479,149.372 80.740,156.555 82.611 M125.000 83.177 C 126.428 84.152,126.892 86.177,125.990 87.502 C 124.999 88.957,124.701 89.055,121.027 89.133 L 117.708 89.203 117.708 85.956 L 117.708 82.708 121.011 82.708 C 124.093 82.708,124.359 82.740,125.000 83.177 M233.475 116.468 C 226.807 117.253,221.163 122.089,219.504 128.442 C 219.122 129.906,219.142 129.934,220.842 130.331 C 222.169 130.640,223.007 130.610,224.048 130.214 C 224.357 130.096,224.956 129.998,225.378 129.996 C 226.125 129.992,226.165 129.952,226.850 128.494 C 229.332 123.211,235.009 121.548,241.176 124.296 C 241.707 124.533,245.411 119.935,245.032 119.510 C 243.404 117.683,237.146 116.036,233.475 116.468 M135.208 116.837 C 132.498 117.744,128.755 120.699,129.444 121.389 C 129.606 121.550,132.912 121.486,133.188 121.316 C 133.317 121.235,134.833 121.152,136.556 121.130 C 139.565 121.092,139.773 121.061,141.864 120.337 C 143.422 119.797,144.398 119.582,145.301 119.580 C 147.263 119.575,147.354 119.338,145.740 118.436 C 142.450 116.596,137.964 115.915,135.208 116.837 M167.919 118.537 C 166.902 120.560,166.886 120.363,168.073 120.533 C 168.617 120.611,169.883 120.891,170.885 121.156 C 173.026 121.720,172.988 121.822,171.681 119.053 L 170.654 116.875 169.704 116.875 L 168.755 116.875 167.919 118.537 M189.375 120.938 L 189.375 125.000 189.925 125.000 C 190.228 125.000,191.114 125.190,191.894 125.422 C 192.675 125.655,193.810 125.866,194.417 125.891 L 195.521 125.938 195.577 121.406 L 195.633 116.875 192.504 116.875 L 189.375 116.875 189.375 120.938 M207.500 122.384 C 207.500 125.413,207.580 127.942,207.679 128.003 C 207.777 128.063,208.832 128.169,210.022 128.237 C 211.213 128.306,212.539 128.439,212.969 128.534 L 213.750 128.706 213.750 122.790 L 213.750 116.875 210.625 116.875 L 207.500 116.875 207.500 122.384 M251.458 125.313 L 251.458 133.750 252.448 133.753 C 252.992 133.754,254.121 133.595,254.956 133.400 C 256.281 133.090,256.733 133.077,258.498 133.295 C 261.303 133.642,262.765 133.602,264.583 133.125 C 265.586 132.862,266.836 132.714,268.073 132.712 L 270.000 132.708 270.000 130.833 L 270.000 128.958 263.854 128.958 L 257.708 128.958 257.708 126.042 L 257.708 123.125 265.208 123.125 L 272.708 123.125 272.708 120.000 L 272.708 116.875 262.083 116.875 L 251.458 116.875 251.458 125.313 M199.508 185.453 C 199.214 185.954,198.542 187.300,198.014 188.443 C 197.485 189.586,196.645 191.365,196.146 192.396 C 195.647 193.427,195.083 194.833,194.892 195.521 C 194.701 196.208,194.048 198.318,193.439 200.208 C 191.552 206.075,190.576 211.402,189.907 219.479 C 189.727 221.656,189.532 223.789,189.475 224.219 C 189.379 224.931,189.413 225.000,189.864 225.000 C 190.318 225.000,190.368 224.895,190.474 223.734 C 190.622 222.098,190.413 222.174,193.483 222.628 C 198.046 223.301,203.771 223.078,207.743 222.071 C 209.808 221.548,209.792 221.546,209.792 222.367 C 209.792 223.757,210.051 225.000,210.341 225.000 C 210.723 225.000,210.714 223.290,210.309 219.044 C 209.742 213.080,209.317 210.929,207.414 204.375 C 206.765 202.141,206.002 199.402,205.719 198.289 C 205.015 195.518,204.462 194.047,202.276 189.130 C 200.053 184.129,200.183 184.302,199.508 185.453 M201.642 189.022 C 203.166 192.609,204.746 197.292,205.630 200.833 C 205.987 202.266,206.554 204.306,206.890 205.367 C 207.225 206.428,207.500 207.468,207.500 207.678 C 207.500 208.915,197.597 209.266,193.151 208.187 C 192.539 208.038,192.611 206.959,193.421 204.167 C 193.703 203.193,194.231 201.271,194.594 199.896 C 195.371 196.951,195.755 195.907,197.544 191.875 C 198.281 190.214,199.146 188.221,199.465 187.448 C 200.226 185.608,200.178 185.573,201.642 189.022 M202.135 198.477 C 202.336 198.529,202.664 198.529,202.865 198.477 C 203.065 198.425,202.901 198.382,202.500 198.382 C 202.099 198.382,201.935 198.425,202.135 198.477 M201.875 199.792 C 201.492 200.039,202.256 200.039,203.229 199.792 C 203.831 199.638,203.824 199.632,203.021 199.611 C 202.563 199.599,202.047 199.681,201.875 199.792 M202.604 200.625 L 201.771 200.774 202.604 200.789 C 203.063 200.797,203.625 200.723,203.854 200.625 L 204.271 200.446 203.854 200.461 C 203.625 200.469,203.063 200.543,202.604 200.625 M202.396 201.667 L 201.563 201.816 202.604 201.831 C 203.177 201.839,203.833 201.765,204.063 201.667 C 204.591 201.439,203.665 201.439,202.396 201.667 M203.026 202.732 C 202.341 202.832,201.684 202.961,201.567 203.020 C 201.204 203.201,203.959 202.904,204.441 202.710 C 204.991 202.488,204.667 202.493,203.026 202.732 M202.604 203.660 L 201.146 203.937 202.500 203.856 C 203.749 203.782,205.544 203.342,204.479 203.371 C 204.250 203.378,203.406 203.507,202.604 203.660 M203.229 204.708 L 201.563 204.982 203.069 204.899 C 203.898 204.854,204.742 204.720,204.944 204.602 C 205.373 204.352,205.398 204.351,203.229 204.708 M202.604 205.750 L 200.938 206.024 202.604 205.932 C 203.521 205.882,204.552 205.753,204.896 205.646 L 205.521 205.452 204.896 205.464 C 204.552 205.470,203.521 205.599,202.604 205.750 M202.917 206.771 C 201.442 207.015,201.413 207.030,202.396 207.036 C 202.969 207.040,203.906 206.923,204.479 206.776 C 205.800 206.436,204.955 206.434,202.917 206.771 M205.510 207.416 C 205.389 207.466,204.405 207.636,203.322 207.794 C 201.700 208.030,201.537 208.084,202.396 208.099 C 203.410 208.118,205.722 207.680,205.982 207.421 C 206.125 207.277,205.850 207.274,205.510 207.416 M208.082 210.469 C 208.548 212.090,209.086 215.800,209.301 218.880 L 209.434 220.782 208.727 221.013 C 204.462 222.411,198.026 222.654,192.135 221.640 L 190.833 221.416 190.833 220.434 C 190.833 218.963,192.170 209.442,192.412 209.189 C 192.455 209.144,192.632 209.225,192.805 209.369 C 193.258 209.745,204.333 209.675,205.756 209.287 C 207.602 208.783,207.597 208.781,208.082 210.469 M202.396 210.119 L 200.104 210.388 202.292 210.293 C 204.355 210.204,206.911 209.822,205.313 209.842 C 204.969 209.847,203.656 209.971,202.396 210.119 M193.958 210.417 C 194.130 210.528,194.458 210.613,194.688 210.607 L 195.104 210.596 194.688 210.417 C 194.065 210.149,193.544 210.149,193.958 210.417 M205.104 210.660 C 204.531 210.767,202.797 210.876,201.250 210.902 C 198.076 210.956,197.178 211.226,195.687 212.573 C 194.970 213.220,194.754 213.306,194.045 213.226 L 193.229 213.133 193.994 213.389 C 194.879 213.686,194.695 214.316,193.750 214.222 C 193.237 214.172,193.236 214.174,193.698 214.370 C 194.422 214.678,194.293 215.205,193.490 215.225 L 192.813 215.241 193.385 215.450 C 193.717 215.572,193.958 215.816,193.958 216.030 C 193.958 216.318,193.830 216.380,193.385 216.309 C 192.938 216.237,192.881 216.266,193.125 216.439 C 193.297 216.561,193.602 216.662,193.802 216.663 C 194.003 216.665,194.167 216.763,194.167 216.882 C 194.167 217.000,194.308 217.435,194.481 217.848 L 194.795 218.600 195.792 217.269 C 196.340 216.537,197.383 215.047,198.109 213.958 C 199.896 211.280,199.804 211.361,200.705 211.659 C 201.116 211.794,201.508 211.995,201.576 212.105 C 201.697 212.302,197.650 218.612,196.813 219.530 C 196.579 219.788,196.439 220.050,196.502 220.113 C 196.666 220.277,198.189 218.311,199.324 216.471 C 201.207 213.418,202.292 212.143,202.292 212.985 C 202.292 213.291,198.747 218.719,197.854 219.780 C 197.012 220.780,197.773 221.246,200.253 221.249 C 202.258 221.251,206.323 218.999,206.048 218.039 C 205.949 217.692,206.219 217.452,206.881 217.296 L 207.604 217.126 206.934 217.105 C 206.107 217.078,206.197 216.528,207.049 216.398 L 207.604 216.312 207.031 216.281 C 206.687 216.262,206.458 216.131,206.458 215.951 C 206.458 215.785,206.713 215.614,207.031 215.566 L 207.604 215.479 207.031 215.448 C 206.334 215.410,206.254 214.860,206.927 214.730 C 207.329 214.653,207.314 214.636,206.823 214.612 C 206.125 214.577,206.045 214.024,206.719 213.899 C 207.033 213.841,206.988 213.819,206.580 213.833 C 205.724 213.863,205.668 213.396,206.496 213.136 C 207.187 212.919,207.187 212.919,206.336 213.019 C 205.634 213.102,205.403 213.033,205.022 212.628 C 204.768 212.357,204.191 211.970,203.739 211.766 C 202.650 211.275,202.701 211.046,203.906 211.022 C 204.451 211.011,205.365 210.881,205.938 210.734 C 207.148 210.423,206.624 210.376,205.104 210.660 M193.958 211.458 C 194.130 211.569,194.458 211.660,194.688 211.660 C 195.033 211.660,195.050 211.626,194.792 211.458 C 194.620 211.347,194.292 211.256,194.063 211.256 C 193.717 211.256,193.700 211.291,193.958 211.458 M205.571 211.450 C 205.140 211.533,204.733 211.655,204.668 211.721 C 204.509 211.880,206.244 211.649,206.771 211.441 L 207.188 211.276 206.771 211.287 C 206.542 211.293,206.002 211.366,205.571 211.450 M193.750 212.292 C 193.922 212.403,194.250 212.488,194.479 212.482 L 194.896 212.471 194.479 212.292 C 193.856 212.024,193.336 212.024,193.750 212.292 M205.521 212.292 C 204.951 212.536,205.902 212.536,206.667 212.292 C 207.175 212.129,207.172 212.125,206.563 212.119 C 206.219 212.115,205.750 212.193,205.521 212.292 M193.021 217.708 C 193.250 217.807,193.625 217.887,193.854 217.887 L 194.271 217.887 193.854 217.708 C 193.625 217.610,193.250 217.529,193.021 217.529 L 192.604 217.529 193.021 217.708 M206.979 217.857 C 206.750 217.912,206.469 218.048,206.354 218.160 C 206.137 218.371,207.011 218.215,207.813 217.899 L 208.229 217.735 207.813 217.746 C 207.583 217.752,207.208 217.802,206.979 217.857 M192.813 218.750 C 193.042 218.848,193.417 218.929,193.646 218.929 L 194.063 218.929 193.646 218.750 C 193.417 218.652,193.042 218.571,192.813 218.571 L 192.396 218.571 192.813 218.750 M206.898 218.767 C 206.396 218.866,205.927 219.009,205.857 219.086 C 205.675 219.283,207.496 218.983,207.897 218.749 C 208.286 218.521,208.135 218.524,206.898 218.767 M206.667 219.628 C 206.036 219.739,205.430 219.917,205.319 220.023 C 205.109 220.224,205.904 220.121,207.344 219.762 C 207.996 219.599,208.480 219.319,207.969 219.400 C 207.883 219.413,207.297 219.516,206.667 219.628 M192.813 219.757 C 193.552 220.078,194.497 220.256,194.271 220.031 C 194.156 219.917,193.688 219.768,193.229 219.700 C 192.671 219.617,192.533 219.635,192.813 219.757 M206.042 220.619 C 205.068 220.823,204.552 221.001,204.896 221.013 C 205.569 221.037,207.852 220.550,208.065 220.338 C 208.235 220.167,208.120 220.183,206.042 220.619 M193.021 221.042 C 193.250 221.140,193.719 221.216,194.063 221.211 L 194.688 221.201 194.063 221.042 C 193.719 220.954,193.250 220.878,193.021 220.873 L 192.604 220.863 193.021 221.042 M205.625 223.365 C 205.109 223.473,203.516 223.643,202.083 223.744 L 199.479 223.927 202.396 223.849 C 204.000 223.806,205.828 223.636,206.458 223.471 C 207.729 223.139,207.100 223.059,205.625 223.365 M192.917 223.750 C 193.203 223.842,193.766 223.915,194.167 223.913 L 194.896 223.909 194.271 223.750 C 193.354 223.517,192.188 223.517,192.917 223.750 M205.833 224.199 C 205.318 224.306,203.724 224.476,202.292 224.576 L 199.688 224.759 202.500 224.685 C 204.048 224.644,205.828 224.475,206.458 224.308 C 207.732 223.971,207.297 223.895,205.833 224.199 M192.917 224.583 C 193.203 224.675,193.719 224.750,194.063 224.750 C 194.670 224.750,194.673 224.746,194.167 224.583 C 193.880 224.492,193.365 224.417,193.021 224.417 C 192.413 224.417,192.410 224.421,192.917 224.583 " stroke="none" fill="#f8f8f8" fill-rule="evenodd"></path><path id="path1" d="M0.000 112.500 L 0.000 225.000 94.635 224.948 L 189.271 224.896 189.628 220.625 C 190.390 211.520,191.446 205.644,193.333 200.000 C 193.889 198.339,194.495 196.388,194.681 195.666 C 195.178 193.727,199.400 184.905,199.979 184.594 C 200.639 184.241,204.692 193.861,206.074 199.061 C 206.530 200.781,207.413 203.949,208.035 206.102 C 209.588 211.479,210.359 216.178,210.751 222.656 L 210.893 225.000 305.446 225.000 L 400.000 225.000 400.000 112.500 L 400.000 0.000 200.000 0.000 L 0.000 0.000 0.000 112.500 M158.193 76.273 C 169.003 78.955,174.034 91.693,167.995 101.094 C 161.522 111.170,146.780 111.274,140.325 101.290 C 132.151 88.647,143.578 72.648,158.193 76.273 M196.354 76.345 C 198.401 76.898,202.292 78.887,202.292 79.379 C 202.292 79.473,201.397 80.581,200.304 81.843 L 198.315 84.136 197.022 83.535 C 191.392 80.919,184.745 83.901,183.228 89.725 C 181.052 98.082,189.442 104.943,197.112 101.079 L 198.703 100.277 200.653 102.532 C 203.046 105.301,202.977 104.985,201.414 106.001 C 190.246 113.264,175.724 105.565,175.751 92.396 C 175.773 81.536,186.023 73.551,196.354 76.345 M125.250 76.481 C 133.603 78.230,135.617 90.345,128.185 94.136 L 127.323 94.576 130.433 101.270 C 132.143 104.952,133.542 108.048,133.542 108.149 C 133.542 108.454,126.962 108.380,126.726 108.073 C 126.616 107.930,125.232 105.023,123.650 101.615 L 120.773 95.417 119.241 95.417 L 117.708 95.417 117.708 101.771 L 117.708 108.125 114.479 108.125 L 111.250 108.125 111.250 92.188 L 111.250 76.250 117.698 76.250 C 121.619 76.250,124.579 76.341,125.250 76.481 M214.840 81.283 L 214.896 86.315 219.450 81.283 L 224.004 76.250 228.252 76.250 C 230.588 76.250,232.500 76.320,232.500 76.406 C 232.499 76.492,230.064 79.281,227.087 82.604 C 224.111 85.927,221.675 88.740,221.675 88.854 C 221.675 88.969,224.193 93.328,227.270 98.542 L 232.865 108.021 229.200 108.078 C 227.184 108.109,225.434 108.096,225.310 108.049 C 225.186 108.001,223.308 104.771,221.136 100.870 L 217.188 93.778 215.990 94.956 L 214.792 96.133 214.792 102.129 L 214.792 108.125 211.563 108.125 L 208.333 108.125 208.333 92.188 L 208.333 76.250 211.559 76.250 L 214.784 76.250 214.840 81.283 M259.792 79.479 L 259.792 82.708 252.396 82.708 L 245.000 82.708 245.000 85.625 L 245.000 88.542 251.042 88.542 L 257.083 88.542 257.083 91.771 L 257.083 95.000 251.042 95.000 L 245.000 95.000 245.000 98.333 L 245.000 101.667 252.297 101.667 L 259.594 101.667 259.537 104.948 L 259.479 108.229 248.958 108.229 L 238.438 108.229 238.384 92.500 C 238.354 83.849,238.375 76.654,238.429 76.510 C 238.507 76.307,240.847 76.250,249.160 76.250 L 259.792 76.250 259.792 79.479 M288.750 79.479 L 288.750 82.708 284.377 82.708 L 280.003 82.708 279.950 95.469 L 279.896 108.229 276.720 108.287 L 273.545 108.344 273.491 95.578 L 273.438 82.813 269.010 82.756 L 264.583 82.700 264.583 79.475 L 264.583 76.250 276.667 76.250 L 288.750 76.250 288.750 79.479 M151.354 82.793 C 144.065 85.107,141.882 94.186,147.378 99.327 C 155.472 106.899,167.812 97.575,162.797 87.677 C 160.799 83.735,155.504 81.474,151.354 82.793 M117.708 85.833 L 117.708 88.958 120.889 88.958 C 125.262 88.958,126.785 87.968,126.352 85.406 C 125.996 83.294,124.745 82.711,120.573 82.709 L 117.708 82.708 117.708 85.833 M142.396 116.888 C 144.518 117.544,148.542 119.747,148.542 120.253 C 148.542 120.444,145.766 125.080,145.406 125.489 C 145.321 125.586,144.729 125.331,144.091 124.923 C 139.379 121.909,134.792 122.166,134.792 125.443 C 134.792 127.248,135.501 127.823,139.237 129.047 C 146.115 131.300,149.356 134.922,149.130 140.102 C 148.708 149.753,136.364 152.434,127.333 144.837 C 125.958 143.681,125.914 143.809,128.550 141.298 L 130.747 139.205 131.874 140.141 C 136.375 143.879,142.708 143.509,142.708 139.508 C 142.708 137.922,139.776 135.778,136.563 135.015 C 125.964 132.498,125.406 119.202,135.788 116.559 C 137.409 116.146,140.494 116.300,142.396 116.888 M239.479 116.761 C 241.526 117.315,245.417 119.304,245.417 119.796 C 245.417 119.889,244.522 120.998,243.429 122.259 L 241.440 124.553 240.147 123.952 C 234.529 121.341,227.867 124.330,226.353 130.142 C 224.144 138.623,232.883 145.527,240.546 141.356 L 241.822 140.662 243.828 142.972 C 246.191 145.693,246.116 145.397,244.688 146.344 C 231.488 155.107,214.620 142.398,219.685 127.506 C 222.464 119.336,231.289 114.546,239.479 116.761 M178.164 132.500 C 182.257 141.151,185.610 148.349,185.616 148.495 C 185.623 148.702,184.857 148.748,182.135 148.703 L 178.646 148.646 177.203 145.677 L 175.760 142.708 169.286 142.712 L 162.813 142.715 161.269 145.733 L 159.725 148.750 156.229 148.750 C 154.306 148.750,152.695 148.680,152.649 148.594 C 152.603 148.508,154.362 144.922,156.558 140.625 C 158.754 136.328,162.404 129.175,164.669 124.729 L 168.786 116.645 169.754 116.708 L 170.722 116.771 178.164 132.500 M195.668 127.448 C 195.727 137.931,195.741 138.256,196.171 139.185 C 198.279 143.742,204.738 143.771,206.871 139.233 C 207.296 138.329,207.310 137.991,207.352 127.537 L 207.396 116.771 210.625 116.771 L 213.854 116.771 213.908 127.348 C 213.968 139.046,213.914 139.707,212.697 142.178 C 208.138 151.439,194.840 151.413,190.394 142.135 C 189.229 139.703,189.174 139.045,189.170 127.344 L 189.167 116.667 192.387 116.667 L 195.607 116.667 195.668 127.448 M272.708 119.896 L 272.708 123.125 265.313 123.125 L 257.917 123.125 257.917 126.042 L 257.917 128.958 264.063 128.958 L 270.208 128.958 270.208 132.188 L 270.208 135.417 264.063 135.417 L 257.917 135.417 257.917 138.750 L 257.917 142.083 265.208 142.083 L 272.500 142.083 272.500 145.417 L 272.500 148.750 261.979 148.750 L 251.458 148.750 251.458 132.708 L 251.458 116.667 262.083 116.667 L 272.708 116.667 272.708 119.896 M167.848 132.841 C 166.957 134.628,166.267 136.128,166.314 136.175 C 166.361 136.222,167.819 136.235,169.552 136.203 L 172.705 136.146 171.237 133.021 C 170.430 131.302,169.701 129.828,169.619 129.744 C 169.536 129.661,168.739 131.055,167.848 132.841 M199.178 188.490 C 198.681 189.721,197.721 191.926,197.046 193.389 C 195.888 195.899,195.423 197.339,193.667 203.854 C 192.636 207.682,192.628 207.958,193.542 208.152 C 196.553 208.793,203.096 208.859,205.938 208.277 C 207.491 207.959,207.525 207.821,206.689 205.190 C 206.346 204.112,205.820 202.245,205.520 201.042 C 204.292 196.121,201.100 187.266,200.246 186.412 C 200.157 186.323,199.676 187.258,199.178 188.490 M202.917 196.250 C 202.917 196.365,202.583 196.458,202.175 196.458 C 201.734 196.458,201.486 196.374,201.563 196.250 C 201.633 196.135,201.967 196.042,202.304 196.042 C 202.641 196.042,202.917 196.135,202.917 196.250 M203.333 197.282 C 203.333 197.547,201.973 197.793,201.642 197.589 C 201.453 197.472,201.491 197.385,201.785 197.270 C 202.367 197.042,203.333 197.050,203.333 197.282 M203.542 198.315 C 203.542 198.568,201.960 198.827,201.636 198.627 C 201.455 198.515,201.498 198.424,201.785 198.312 C 202.358 198.087,203.542 198.089,203.542 198.315 M203.958 199.559 C 203.958 199.814,203.195 199.994,202.101 199.997 C 201.074 200.000,201.084 199.827,202.125 199.581 C 203.091 199.352,203.958 199.342,203.958 199.559 M204.024 200.643 C 203.900 200.767,203.201 200.919,202.472 200.981 C 201.207 201.088,200.896 200.826,201.979 200.565 C 202.852 200.355,204.258 200.408,204.024 200.643 M204.466 201.437 C 204.630 201.703,204.050 201.882,202.584 202.019 C 200.698 202.195,200.671 201.755,202.552 201.506 C 203.383 201.396,204.127 201.293,204.206 201.278 C 204.286 201.263,204.402 201.334,204.466 201.437 M196.250 201.875 C 196.503 202.038,196.473 202.078,196.094 202.080 C 195.836 202.082,195.625 201.990,195.625 201.875 C 195.625 201.614,195.846 201.614,196.250 201.875 M204.692 202.752 C 204.248 203.009,200.847 203.272,201.073 203.032 C 201.257 202.838,203.012 202.553,204.167 202.531 C 204.969 202.515,205.045 202.547,204.692 202.752 M196.146 202.917 C 196.217 203.031,196.082 203.125,195.846 203.125 C 195.610 203.125,195.417 203.031,195.417 202.917 C 195.417 202.802,195.552 202.708,195.717 202.708 C 195.882 202.708,196.075 202.802,196.146 202.917 M204.846 203.570 C 204.606 203.811,200.634 204.115,200.856 203.876 C 200.999 203.722,204.846 203.157,204.986 203.268 C 205.036 203.308,204.973 203.444,204.846 203.570 M196.042 203.958 C 196.042 204.222,195.616 204.222,195.208 203.958 C 194.965 203.801,195.022 203.756,195.469 203.753 C 195.784 203.751,196.042 203.844,196.042 203.958 M205.302 204.566 C 204.830 205.023,200.625 205.442,200.625 205.032 C 200.625 204.935,201.352 204.762,202.240 204.648 C 204.458 204.362,205.544 204.333,205.302 204.566 M195.833 204.792 C 196.077 204.949,196.019 204.994,195.573 204.997 C 195.258 204.999,195.000 204.906,195.000 204.792 C 195.000 204.528,195.426 204.528,195.833 204.792 M205.742 205.396 C 205.470 205.835,201.169 206.408,200.658 206.073 C 200.477 205.954,201.174 205.779,202.637 205.577 C 205.462 205.187,205.887 205.162,205.742 205.396 M195.729 205.833 C 195.894 206.099,195.203 206.099,194.792 205.833 C 194.547 205.675,194.601 205.631,195.040 205.628 C 195.348 205.626,195.658 205.719,195.729 205.833 M205.904 206.471 C 205.575 206.800,202.251 207.324,200.991 207.246 C 199.566 207.158,200.018 206.992,202.708 206.617 C 205.575 206.217,206.186 206.189,205.904 206.471 M195.417 206.667 C 195.675 206.834,195.658 206.869,195.313 206.869 C 195.083 206.869,194.755 206.778,194.583 206.667 C 194.325 206.499,194.342 206.465,194.688 206.465 C 194.917 206.465,195.245 206.556,195.417 206.667 M195.399 207.621 C 195.447 207.669,195.428 207.766,195.357 207.838 C 195.160 208.035,194.167 207.731,194.167 207.473 C 194.167 207.266,195.164 207.386,195.399 207.621 M206.112 207.513 C 205.767 207.858,202.449 208.361,200.995 208.289 C 199.403 208.210,199.841 208.064,202.917 207.649 C 205.811 207.258,206.392 207.233,206.112 207.513 M206.042 209.393 C 205.583 209.556,205.602 209.566,206.198 209.482 C 207.126 209.350,207.053 209.718,206.094 210.010 C 205.021 210.337,199.618 210.512,198.958 210.241 C 198.552 210.073,198.963 210.017,200.833 209.982 L 203.229 209.937 200.417 209.757 C 198.870 209.657,196.648 209.631,195.480 209.697 C 194.119 209.775,193.203 209.737,192.933 209.592 C 192.420 209.317,192.470 209.142,191.768 213.646 C 191.042 218.306,190.875 221.141,191.316 221.311 C 193.156 222.017,201.372 222.387,204.271 221.894 C 206.178 221.570,209.014 220.866,209.186 220.673 C 209.514 220.307,208.371 211.594,207.798 210.096 C 207.423 209.113,207.145 209.001,206.042 209.393 M194.994 210.409 C 195.163 210.515,195.240 210.663,195.165 210.738 C 194.989 210.914,193.790 210.650,193.636 210.401 C 193.481 210.150,194.596 210.157,194.994 210.409 M206.756 210.619 C 206.644 210.731,205.817 210.931,204.917 211.065 C 203.777 211.235,203.380 211.364,203.608 211.491 C 203.799 211.598,204.307 211.588,204.832 211.467 C 205.325 211.353,206.053 211.258,206.448 211.255 C 207.604 211.247,206.904 211.672,205.528 211.814 C 204.713 211.898,204.432 211.994,204.648 212.115 C 204.831 212.218,205.412 212.189,206.023 212.048 C 207.086 211.803,207.650 211.938,207.077 212.300 C 206.909 212.406,206.519 212.495,206.210 212.497 C 205.902 212.499,205.589 212.598,205.515 212.718 C 205.424 212.865,205.723 212.890,206.440 212.795 C 207.729 212.624,207.943 213.049,206.670 213.253 C 206.214 213.326,205.893 213.470,205.958 213.574 C 206.022 213.678,206.395 213.703,206.787 213.629 C 207.259 213.541,207.500 213.575,207.500 213.732 C 207.500 213.862,207.220 214.025,206.878 214.093 C 206.072 214.254,206.244 214.543,207.074 214.421 C 207.903 214.299,207.883 214.528,207.031 214.898 L 206.354 215.192 207.031 215.200 C 207.859 215.210,207.906 215.467,207.135 215.771 L 206.563 215.997 207.240 216.020 C 208.138 216.049,208.105 216.404,207.188 216.576 C 206.786 216.651,206.458 216.778,206.458 216.856 C 206.458 216.935,206.786 216.961,207.188 216.915 C 208.216 216.794,208.121 217.254,207.083 217.420 C 205.913 217.607,206.041 217.887,207.240 217.762 C 208.582 217.620,208.159 218.095,206.765 218.295 C 206.193 218.376,205.722 218.564,205.666 218.731 C 205.595 218.943,205.675 218.984,205.952 218.878 C 206.888 218.518,208.256 218.491,207.825 218.840 C 207.458 219.137,207.169 219.194,205.675 219.266 C 205.417 219.279,205.042 219.462,204.842 219.674 C 204.520 220.016,204.518 220.046,204.823 219.940 C 205.599 219.671,207.675 219.339,208.043 219.425 C 208.782 219.598,207.284 220.046,205.728 220.118 C 204.710 220.164,203.912 220.348,203.088 220.725 C 201.447 221.477,200.090 221.601,198.433 221.152 C 196.833 220.719,196.842 220.755,197.978 219.342 C 199.196 217.826,202.083 213.391,202.083 213.036 C 202.083 212.629,201.457 213.434,199.846 215.911 C 197.615 219.340,196.676 220.509,196.385 220.219 C 196.236 220.070,196.332 219.825,196.695 219.428 C 197.248 218.824,201.171 212.947,201.373 212.421 C 201.442 212.242,201.317 212.022,201.072 211.891 C 200.125 211.384,199.866 211.586,198.075 214.219 C 195.386 218.173,195.122 218.525,194.844 218.534 C 194.701 218.538,194.583 218.448,194.583 218.333 C 194.583 218.219,194.393 218.125,194.160 218.125 C 193.585 218.125,192.126 217.477,192.435 217.359 C 192.572 217.308,193.017 217.357,193.425 217.470 C 193.833 217.583,194.167 217.606,194.167 217.523 C 194.167 217.215,193.634 216.700,193.246 216.632 C 193.027 216.594,192.805 216.435,192.753 216.280 C 192.681 216.064,192.811 216.031,193.309 216.140 C 194.163 216.328,194.183 215.890,193.333 215.594 C 192.990 215.474,192.708 215.280,192.708 215.162 C 192.708 215.035,192.963 214.999,193.333 215.073 C 193.802 215.167,193.958 215.121,193.958 214.891 C 193.958 214.722,193.883 214.583,193.790 214.583 C 193.697 214.583,193.439 214.437,193.217 214.258 C 192.837 213.952,192.860 213.940,193.594 214.059 C 194.214 214.159,194.375 214.119,194.375 213.864 C 194.375 213.687,194.205 213.542,193.998 213.542 C 193.791 213.542,193.439 213.404,193.217 213.236 C 192.742 212.877,193.466 212.791,194.271 213.112 C 194.590 213.239,194.877 213.107,195.496 212.552 C 197.132 211.084,198.222 210.770,201.810 210.731 C 203.563 210.712,205.061 210.634,205.138 210.557 C 205.215 210.480,205.656 210.417,206.118 210.417 C 206.662 210.417,206.887 210.488,206.756 210.619 M194.879 211.462 C 195.013 211.596,194.895 211.667,194.538 211.667 C 193.838 211.667,193.333 211.472,193.333 211.202 C 193.333 210.949,194.575 211.159,194.879 211.462 M194.954 212.385 C 195.190 212.620,194.409 212.711,193.878 212.509 C 193.095 212.211,193.369 211.855,194.198 212.092 C 194.556 212.195,194.896 212.326,194.954 212.385 M193.906 218.673 C 194.164 218.742,194.375 218.881,194.375 218.983 C 194.375 219.255,193.527 219.189,192.813 218.862 L 192.188 218.576 192.813 218.561 C 193.156 218.554,193.648 218.604,193.906 218.673 M193.531 219.601 C 194.636 219.838,194.956 220.208,194.056 220.208 C 193.507 220.208,192.083 219.690,192.083 219.490 C 192.083 219.326,192.342 219.346,193.531 219.601 M208.196 220.429 C 208.075 220.550,207.236 220.781,206.331 220.942 C 203.197 221.501,202.469 221.202,205.482 220.593 C 207.555 220.174,208.509 220.116,208.196 220.429 M194.494 221.057 C 195.414 221.423,194.718 221.555,193.413 221.263 C 191.987 220.944,191.636 220.507,192.951 220.687 C 193.464 220.758,194.158 220.924,194.494 221.057 M207.708 222.215 C 203.222 223.341,196.040 223.413,191.198 222.381 L 190.625 222.259 190.625 223.629 L 190.625 225.000 195.677 224.974 C 198.976 224.957,200.345 224.892,199.622 224.787 C 197.706 224.508,198.169 224.375,201.059 224.374 C 202.596 224.374,204.698 224.235,205.729 224.065 C 207.948 223.701,208.188 223.688,208.029 223.944 C 207.899 224.155,206.202 224.551,204.375 224.796 C 203.597 224.900,204.282 224.943,206.510 224.930 L 209.792 224.909 209.771 223.757 C 209.733 221.672,209.769 221.698,207.708 222.215 M208.119 223.130 C 206.747 223.981,198.863 224.439,198.403 223.693 C 198.314 223.550,198.563 223.525,199.143 223.618 C 200.148 223.779,204.879 223.429,206.875 223.046 C 208.277 222.778,208.646 222.802,208.119 223.130 M194.792 223.782 C 194.998 223.911,194.627 223.953,193.698 223.906 C 192.904 223.865,192.179 223.716,192.032 223.563 C 191.723 223.242,194.245 223.442,194.792 223.782 M194.559 224.598 C 194.803 224.753,194.538 224.791,193.591 224.736 C 192.873 224.694,192.170 224.537,192.028 224.387 C 191.714 224.053,193.999 224.244,194.559 224.598 " stroke="none" fill="#343434" fill-rule="evenodd"></path><path id="path2" d="M144.063 119.735 C 143.719 119.783,142.641 120.110,141.667 120.461 C 140.085 121.031,139.596 121.106,137.083 121.169 C 135.536 121.207,133.490 121.345,132.535 121.476 C 131.581 121.607,130.440 121.657,130.000 121.587 C 128.863 121.405,128.438 122.509,128.438 125.636 C 128.438 130.218,131.510 133.669,136.771 134.997 C 140.735 135.997,143.247 138.266,142.676 140.332 C 141.739 143.726,136.161 143.710,131.975 140.301 L 130.810 139.352 129.207 140.803 C 128.326 141.601,127.296 142.575,126.920 142.967 L 126.236 143.680 127.233 144.609 C 130.558 147.710,134.081 149.057,138.870 149.060 L 141.802 149.063 143.588 148.178 C 148.837 145.577,150.713 139.474,147.705 134.787 C 146.139 132.347,142.922 130.245,138.778 128.956 C 135.599 127.967,134.766 127.270,134.741 125.575 C 134.685 121.912,139.506 121.759,144.792 125.255 L 145.313 125.600 146.950 122.892 C 147.851 121.403,148.554 120.156,148.513 120.121 C 147.932 119.624,146.014 119.457,144.063 119.735 M165.782 122.733 C 164.310 125.513,152.708 148.339,152.708 148.455 C 152.708 148.502,154.301 148.542,156.249 148.542 L 159.789 148.542 161.250 145.625 L 162.711 142.708 169.286 142.708 L 175.862 142.708 177.239 145.625 L 178.616 148.542 182.116 148.542 L 185.616 148.542 185.360 147.969 C 185.219 147.654,182.382 141.633,179.056 134.589 L 173.007 121.782 171.347 121.312 C 170.434 121.054,169.066 120.781,168.307 120.706 L 166.927 120.570 165.782 122.733 M189.253 125.284 C 188.962 126.041,189.308 138.823,189.651 139.991 C 192.406 149.374,203.981 152.215,210.557 145.121 C 213.270 142.194,213.778 140.397,213.758 133.776 C 213.741 128.118,213.924 128.584,211.661 128.432 C 208.865 128.245,207.911 128.146,207.712 128.023 C 207.606 127.957,207.498 130.164,207.461 133.173 L 207.396 138.438 206.831 139.508 C 204.932 143.109,200.255 143.824,197.382 140.951 C 195.699 139.268,195.625 138.887,195.625 131.942 L 195.625 126.042 195.119 126.042 C 194.662 126.042,191.117 125.392,189.880 125.082 C 189.532 124.994,189.340 125.056,189.253 125.284 M171.239 132.847 C 172.047 134.585,172.708 136.061,172.708 136.128 C 172.708 136.195,171.209 136.250,169.376 136.250 L 166.043 136.250 167.756 132.817 C 168.698 130.930,169.536 129.453,169.619 129.536 C 169.701 129.619,170.430 131.109,171.239 132.847 M219.104 130.132 C 218.768 130.468,218.958 135.141,219.373 136.764 C 222.236 147.956,235.666 152.832,244.957 146.054 L 245.851 145.402 243.936 143.215 C 241.585 140.530,241.966 140.708,240.369 141.541 C 233.612 145.062,226.146 140.449,226.146 132.751 L 226.146 129.982 225.313 130.069 C 224.854 130.117,224.041 130.279,223.506 130.429 C 222.591 130.686,220.643 130.522,219.527 130.094 C 219.374 130.035,219.184 130.052,219.104 130.132 M265.729 132.925 C 265.271 133.015,264.521 133.189,264.063 133.311 C 262.983 133.597,260.298 133.601,258.201 133.319 C 256.845 133.136,256.290 133.155,255.135 133.423 C 254.359 133.603,253.214 133.750,252.591 133.750 L 251.458 133.750 251.458 141.146 L 251.458 148.542 261.979 148.542 L 272.500 148.542 272.500 145.417 L 272.500 142.292 265.208 142.292 L 257.917 142.292 257.917 138.854 L 257.917 135.417 263.958 135.417 L 270.000 135.417 270.000 134.193 C 270.000 132.678,268.794 132.320,265.729 132.925 " stroke="none" fill="#fa3636" fill-rule="evenodd"></path><path id="path3" d="M209.958 76.405 C 210.909 76.444,212.409 76.444,213.291 76.405 C 214.174 76.366,213.396 76.334,211.563 76.334 C 209.729 76.335,209.007 76.366,209.958 76.405 M226.105 76.406 C 227.343 76.442,229.312 76.442,230.480 76.405 C 231.648 76.368,230.635 76.338,228.229 76.338 C 225.823 76.338,224.867 76.369,226.105 76.406 M238.429 76.510 C 238.375 76.654,238.354 83.849,238.384 92.500 L 238.438 108.229 248.906 108.232 L 259.375 108.235 248.958 108.178 L 238.542 108.121 238.542 92.292 L 238.542 76.462 249.219 76.406 L 259.896 76.350 249.212 76.300 C 240.820 76.261,238.507 76.306,238.429 76.510 M270.573 76.406 C 273.924 76.438,279.409 76.438,282.760 76.406 C 286.112 76.374,283.370 76.348,276.667 76.348 C 269.964 76.348,267.221 76.374,270.573 76.406 M153.597 82.441 C 153.913 82.489,154.382 82.488,154.638 82.438 C 154.895 82.389,154.635 82.350,154.063 82.351 C 153.490 82.353,153.280 82.393,153.597 82.441 M244.874 85.729 C 244.874 87.333,244.907 87.962,244.947 87.126 C 244.986 86.291,244.986 84.978,244.946 84.210 C 244.906 83.441,244.874 84.125,244.874 85.729 M137.557 92.292 C 137.557 92.807,137.597 93.018,137.647 92.760 C 137.697 92.503,137.697 92.081,137.647 91.823 C 137.597 91.565,137.557 91.776,137.557 92.292 M129.883 92.760 L 129.271 93.438 129.948 92.826 C 130.320 92.489,130.625 92.184,130.625 92.149 C 130.625 91.988,130.453 92.129,129.883 92.760 M215.930 94.844 L 214.896 95.938 215.990 94.904 C 216.591 94.335,217.083 93.843,217.083 93.810 C 217.083 93.654,216.890 93.827,215.930 94.844 M244.888 98.333 L 244.896 101.771 252.188 101.775 L 259.479 101.779 252.245 101.720 L 245.010 101.661 244.945 98.279 L 244.879 94.896 244.888 98.333 M141.875 103.399 C 141.875 103.434,142.180 103.739,142.552 104.076 L 143.229 104.688 142.617 104.010 C 142.047 103.379,141.875 103.238,141.875 103.399 M128.490 108.280 C 129.435 108.319,130.982 108.319,131.927 108.280 C 132.872 108.241,132.099 108.210,130.208 108.210 C 128.318 108.210,127.544 108.241,128.490 108.280 M275.052 108.280 C 275.940 108.319,277.393 108.319,278.281 108.280 C 279.169 108.241,278.443 108.209,276.667 108.209 C 274.891 108.209,274.164 108.241,275.052 108.280 M168.673 116.831 C 168.617 116.922,168.916 116.964,169.338 116.924 C 170.626 116.802,170.778 116.716,169.752 116.691 C 169.214 116.678,168.729 116.741,168.673 116.831 M190.791 116.822 C 191.742 116.861,193.242 116.860,194.124 116.821 C 195.007 116.782,194.229 116.751,192.396 116.751 C 190.563 116.751,189.840 116.783,190.791 116.822 M207.389 116.922 C 207.333 117.068,207.313 121.641,207.344 127.083 L 207.400 136.979 207.450 126.927 L 207.500 116.875 210.623 116.875 L 213.746 116.875 213.803 126.823 L 213.860 136.771 213.857 126.771 L 213.854 116.771 210.673 116.713 C 208.242 116.669,207.467 116.719,207.389 116.922 M256.719 116.823 C 259.669 116.855,264.497 116.855,267.448 116.823 C 270.398 116.790,267.984 116.763,262.083 116.763 C 256.182 116.763,253.768 116.790,256.719 116.823 M270.084 132.188 C 270.085 134.021,270.116 134.743,270.155 133.792 C 270.194 132.841,270.194 131.341,270.155 130.459 C 270.116 129.576,270.084 130.354,270.084 132.188 M130.208 131.315 C 130.208 131.351,130.513 131.656,130.885 131.992 L 131.563 132.604 130.951 131.927 C 130.380 131.296,130.208 131.154,130.208 131.315 M218.821 132.813 C 218.822 133.729,218.859 134.078,218.903 133.588 C 218.947 133.098,218.946 132.348,218.901 131.922 C 218.857 131.495,218.821 131.896,218.821 132.813 M141.042 136.940 C 141.042 136.976,141.346 137.281,141.719 137.617 L 142.396 138.229 141.784 137.552 C 141.214 136.921,141.042 136.779,141.042 136.940 M213.798 137.708 C 213.798 138.109,213.841 138.273,213.894 138.073 C 213.946 137.872,213.946 137.544,213.894 137.344 C 213.841 137.143,213.798 137.307,213.798 137.708 M129.886 140.052 L 129.063 140.938 129.948 140.114 C 130.435 139.661,130.833 139.263,130.833 139.229 C 130.833 139.071,130.652 139.229,129.886 140.052 M261.510 142.239 C 263.544 142.273,266.872 142.273,268.906 142.239 C 270.940 142.205,269.276 142.177,265.208 142.177 C 261.141 142.177,259.477 142.205,261.510 142.239 M138.597 142.858 C 138.913 142.906,139.382 142.904,139.638 142.855 C 139.895 142.806,139.635 142.766,139.063 142.768 C 138.490 142.769,138.280 142.810,138.597 142.858 M126.250 143.815 C 126.250 143.851,126.555 144.156,126.927 144.492 L 127.604 145.104 126.992 144.427 C 126.422 143.796,126.250 143.654,126.250 143.815 M192.708 145.521 C 193.097 145.922,193.462 146.250,193.519 146.250 C 193.577 146.250,193.305 145.922,192.917 145.521 C 192.528 145.120,192.163 144.792,192.106 144.792 C 192.048 144.792,192.320 145.120,192.708 145.521 M210.197 145.573 L 209.479 146.354 210.260 145.636 C 210.988 144.968,211.137 144.792,210.978 144.792 C 210.944 144.792,210.592 145.143,210.197 145.573 M152.682 148.599 C 152.771 148.688,154.430 148.734,156.370 148.703 L 159.896 148.645 156.208 148.541 C 154.179 148.484,152.593 148.510,152.682 148.599 M180.479 148.697 C 181.487 148.735,183.081 148.735,184.021 148.696 C 184.960 148.658,184.135 148.627,182.188 148.627 C 180.240 148.627,179.471 148.659,180.479 148.697 M256.733 148.698 C 259.692 148.730,264.473 148.730,267.358 148.698 C 270.244 148.665,267.823 148.638,261.979 148.638 C 256.135 148.638,253.775 148.665,256.733 148.698 M201.636 197.553 C 201.741 197.658,202.049 197.709,202.320 197.666 C 202.737 197.600,202.707 197.571,202.129 197.475 C 201.715 197.407,201.521 197.437,201.636 197.553 M201.636 198.594 C 201.741 198.699,202.049 198.750,202.320 198.708 C 202.737 198.642,202.707 198.613,202.129 198.517 C 201.715 198.448,201.521 198.479,201.636 198.594 M201.094 206.185 C 201.294 206.238,201.622 206.238,201.823 206.185 C 202.023 206.133,201.859 206.090,201.458 206.090 C 201.057 206.090,200.893 206.133,201.094 206.185 M199.323 209.730 C 199.581 209.780,200.003 209.780,200.260 209.730 C 200.518 209.681,200.307 209.640,199.792 209.640 C 199.276 209.640,199.065 209.681,199.323 209.730 M203.229 209.792 C 203.065 210.057,203.548 210.057,203.958 209.792 C 204.212 209.627,204.185 209.589,203.814 209.587 C 203.563 209.585,203.300 209.677,203.229 209.792 M199.740 210.772 C 199.997 210.822,200.419 210.822,200.677 210.772 C 200.935 210.722,200.724 210.682,200.208 210.682 C 199.693 210.682,199.482 210.722,199.740 210.772 M195.299 212.760 L 194.688 213.438 195.365 212.826 C 195.737 212.489,196.042 212.184,196.042 212.149 C 196.042 211.988,195.870 212.129,195.299 212.760 M190.908 220.609 C 190.926 221.048,191.058 221.354,191.250 221.406 C 191.461 221.463,191.484 221.434,191.321 221.317 C 191.188 221.222,191.034 220.864,190.979 220.520 C 190.887 219.948,190.881 219.956,190.908 220.609 M203.624 221.076 C 203.565 221.172,203.851 221.250,204.259 221.250 C 204.666 221.250,205.000 221.214,205.000 221.169 C 205.000 220.998,203.726 220.912,203.624 221.076 M197.760 222.227 C 197.961 222.279,198.289 222.279,198.490 222.227 C 198.690 222.175,198.526 222.132,198.125 222.132 C 197.724 222.132,197.560 222.175,197.760 222.227 M198.480 223.772 C 198.645 223.936,198.819 223.938,199.095 223.778 C 199.432 223.582,199.403 223.554,198.865 223.548 C 198.416 223.543,198.312 223.604,198.480 223.772 M201.510 223.685 C 201.711 223.738,202.039 223.738,202.240 223.685 C 202.440 223.633,202.276 223.590,201.875 223.590 C 201.474 223.590,201.310 223.633,201.510 223.685 M200.990 224.109 C 201.362 224.155,201.971 224.155,202.344 224.109 C 202.716 224.063,202.411 224.025,201.667 224.025 C 200.922 224.025,200.617 224.063,200.990 224.109 M199.094 224.531 C 199.041 224.617,199.574 224.661,200.280 224.629 C 202.577 224.526,202.849 224.442,201.002 224.408 C 200.006 224.390,199.148 224.445,199.094 224.531 M201.193 224.942 C 201.563 224.988,202.219 224.989,202.652 224.944 C 203.084 224.899,202.781 224.861,201.979 224.860 C 201.177 224.859,200.823 224.896,201.193 224.942 " stroke="none" fill="#7c7272" fill-rule="evenodd"></path><path id="path4" d="M111.346 76.510 C 111.291 76.654,111.271 83.849,111.302 92.500 L 111.357 108.229 111.408 92.347 L 111.458 76.464 117.760 76.406 L 124.063 76.348 117.754 76.299 C 112.862 76.261,111.423 76.308,111.346 76.510 M214.673 81.458 C 214.673 84.266,214.703 85.414,214.739 84.010 C 214.775 82.607,214.775 80.310,214.739 78.906 C 214.703 77.503,214.673 78.651,214.673 81.458 M264.667 79.583 C 264.667 81.359,264.699 82.086,264.738 81.198 C 264.777 80.310,264.777 78.857,264.738 77.969 C 264.699 77.081,264.667 77.807,264.667 79.583 M288.626 79.583 C 288.626 81.359,288.657 82.086,288.697 81.198 C 288.736 80.310,288.736 78.857,288.697 77.969 C 288.657 77.081,288.626 77.807,288.626 79.583 M142.383 80.677 L 141.771 81.354 142.448 80.742 C 142.820 80.406,143.125 80.101,143.125 80.065 C 143.125 79.904,142.953 80.046,142.383 80.677 M132.757 85.833 C 132.757 86.234,132.800 86.398,132.852 86.198 C 132.904 85.997,132.904 85.669,132.852 85.469 C 132.800 85.268,132.757 85.432,132.757 85.833 M119.228 89.113 C 120.122 89.153,121.528 89.152,122.353 89.113 C 123.179 89.073,122.448 89.041,120.729 89.042 C 119.010 89.042,118.335 89.074,119.228 89.113 M170.485 92.188 C 170.486 92.990,170.524 93.292,170.569 92.860 C 170.614 92.428,170.613 91.771,170.567 91.402 C 170.521 91.032,170.484 91.385,170.485 92.188 M182.771 92.292 C 182.771 92.922,182.810 93.180,182.858 92.865 C 182.905 92.549,182.905 92.034,182.858 91.719 C 182.810 91.404,182.771 91.661,182.771 92.292 M247.969 94.947 C 249.659 94.982,252.424 94.982,254.115 94.947 C 255.805 94.912,254.422 94.884,251.042 94.884 C 247.661 94.884,246.279 94.912,247.969 94.947 M214.675 102.083 C 214.675 105.464,214.704 106.846,214.739 105.156 C 214.774 103.466,214.774 100.701,214.739 99.010 C 214.704 97.320,214.675 98.703,214.675 102.083 M153.802 102.227 C 154.003 102.279,154.331 102.279,154.531 102.227 C 154.732 102.175,154.568 102.132,154.167 102.132 C 153.766 102.132,153.602 102.175,153.802 102.227 M165.614 103.906 L 164.896 104.688 165.677 103.970 C 166.404 103.301,166.554 103.125,166.395 103.125 C 166.360 103.125,166.009 103.477,165.614 103.906 M137.867 116.397 C 138.126 116.447,138.501 116.445,138.700 116.393 C 138.900 116.341,138.688 116.300,138.229 116.303 C 137.771 116.305,137.608 116.348,137.867 116.397 M189.255 121.042 C 189.255 123.391,189.285 124.352,189.322 123.177 C 189.359 122.003,189.359 120.081,189.322 118.906 C 189.285 117.732,189.255 118.693,189.255 121.042 M134.427 121.185 C 134.628 121.238,134.956 121.238,135.156 121.185 C 135.357 121.133,135.193 121.090,134.792 121.090 C 134.391 121.090,134.227 121.133,134.427 121.185 M257.791 126.042 C 257.791 127.703,257.823 128.383,257.863 127.552 C 257.903 126.721,257.903 125.362,257.863 124.531 C 257.823 123.701,257.791 124.380,257.791 126.042 M190.417 125.208 C 191.129 125.436,191.677 125.436,191.146 125.208 C 190.917 125.110,190.542 125.032,190.313 125.035 C 189.978 125.040,189.998 125.074,190.417 125.208 M201.875 196.122 C 201.875 196.306,202.718 196.403,202.825 196.230 C 202.889 196.127,202.701 196.042,202.408 196.042 C 202.115 196.042,201.875 196.078,201.875 196.122 M202.500 198.205 C 202.500 198.390,203.343 198.486,203.450 198.314 C 203.514 198.210,203.326 198.125,203.033 198.125 C 202.740 198.125,202.500 198.161,202.500 198.205 M201.545 200.861 C 201.484 200.960,201.721 201.042,202.071 201.042 C 202.422 201.042,202.708 201.006,202.708 200.962 C 202.708 200.785,201.649 200.693,201.545 200.861 M201.146 205.000 C 201.217 205.115,201.527 205.202,201.835 205.194 C 202.336 205.181,202.351 205.160,201.979 205.000 C 201.400 204.751,200.992 204.751,201.146 205.000 M200.729 207.083 C 200.651 207.209,200.915 207.286,201.394 207.277 C 202.028 207.265,202.104 207.226,201.771 207.083 C 201.198 206.837,200.881 206.837,200.729 207.083 M200.313 208.125 C 200.020 208.251,200.269 208.302,201.146 208.298 C 202.073 208.293,202.261 208.249,201.875 208.125 C 201.193 207.907,200.820 207.907,200.313 208.125 M199.943 208.900 C 200.313 208.946,200.969 208.947,201.402 208.902 C 201.834 208.857,201.531 208.819,200.729 208.818 C 199.927 208.817,199.573 208.854,199.943 208.900 M201.193 209.734 C 201.563 209.780,202.219 209.780,202.652 209.735 C 203.084 209.690,202.781 209.653,201.979 209.652 C 201.177 209.651,200.823 209.688,201.193 209.734 M199.181 210.198 C 199.475 210.287,200.319 210.292,201.056 210.209 L 202.396 210.057 200.521 210.046 C 199.322 210.040,198.839 210.094,199.181 210.198 M202.500 210.966 C 202.672 211.042,202.859 211.167,202.917 211.244 C 202.974 211.320,203.255 211.316,203.542 211.233 C 203.967 211.111,203.986 211.079,203.646 211.060 C 203.417 211.047,202.995 210.989,202.708 210.932 C 202.422 210.875,202.328 210.891,202.500 210.966 M204.427 211.596 C 204.284 211.654,204.167 211.799,204.167 211.918 C 204.167 212.063,204.256 212.060,204.438 211.909 C 204.587 211.785,204.939 211.729,205.219 211.784 C 205.671 211.872,205.681 211.861,205.313 211.686 C 204.835 211.459,204.782 211.453,204.427 211.596 M190.469 223.854 C 190.472 224.313,190.514 224.475,190.564 224.216 C 190.614 223.957,190.612 223.582,190.560 223.383 C 190.508 223.184,190.467 223.396,190.469 223.854 M209.840 224.375 C 209.840 224.776,209.883 224.940,209.935 224.740 C 209.988 224.539,209.988 224.211,209.935 224.010 C 209.883 223.810,209.840 223.974,209.840 224.375 " stroke="none" fill="#949494" fill-rule="evenodd"></path><path id="path5" d="M259.667 79.583 C 259.667 81.359,259.699 82.086,259.738 81.198 C 259.777 80.310,259.777 78.857,259.738 77.969 C 259.699 77.081,259.667 77.807,259.667 79.583 M279.890 95.521 C 279.890 102.510,279.916 105.340,279.948 101.808 C 279.980 98.276,279.980 92.557,279.948 89.100 C 279.916 85.642,279.890 88.531,279.890 95.521 " stroke="none" fill="#8c8c8c" fill-rule="evenodd"></path></g></svg>