<svg id="svg" version="1.1" xmlns="http://www.w3.org/2000/svg" xmlns:xlink="http://www.w3.org/1999/xlink" width="400" height="225" viewBox="0, 0, 400,225"><g id="svgg"><path id="path0" d="M151.771 75.968 C 140.675 77.755,134.531 89.499,139.470 99.479 C 147.148 114.994,170.417 109.467,170.417 92.128 C 170.417 82.314,161.320 74.430,151.771 75.968 M190.350 76.055 C 178.876 77.374,172.383 89.692,177.727 100.000 C 182.160 108.553,193.216 111.330,201.345 105.934 C 201.980 105.513,202.500 105.079,202.500 104.970 C 202.500 104.718,198.707 100.390,198.553 100.466 C 198.489 100.498,197.969 100.770,197.396 101.072 C 189.809 105.067,181.222 98.639,182.986 90.286 C 184.252 84.296,190.836 80.838,196.458 83.209 C 197.203 83.524,197.938 83.797,198.091 83.817 C 198.687 83.896,202.284 79.516,201.940 79.129 C 200.290 77.275,194.074 75.627,190.350 76.055 M111.458 92.281 L 111.458 108.125 114.583 108.125 L 117.708 108.125 117.708 101.762 L 117.708 95.399 119.317 95.460 L 120.925 95.521 123.848 101.816 L 126.771 108.110 130.136 108.118 L 133.502 108.125 130.397 101.436 C 126.845 93.784,127.098 94.546,127.969 94.123 C 134.557 90.918,134.162 80.721,127.319 77.337 L 125.752 76.563 118.605 76.500 L 111.458 76.438 111.458 92.281 M208.333 92.292 L 208.333 108.125 211.458 108.125 L 214.583 108.125 214.583 102.129 L 214.583 96.133 215.846 94.889 C 216.956 93.796,217.138 93.687,217.356 93.986 C 217.493 94.174,219.337 97.431,221.454 101.226 L 225.304 108.125 229.006 108.125 C 231.042 108.125,232.708 108.087,232.708 108.040 C 232.708 107.992,230.286 103.844,227.324 98.821 C 224.363 93.797,221.829 89.478,221.693 89.221 C 221.464 88.788,221.829 88.329,226.869 82.707 C 229.852 79.380,232.292 76.613,232.292 76.558 C 232.292 76.503,230.419 76.458,228.130 76.458 L 223.968 76.458 219.432 81.458 C 216.937 84.208,214.826 86.458,214.740 86.458 C 214.654 86.458,214.583 84.208,214.583 81.458 L 214.583 76.458 211.458 76.458 L 208.333 76.458 208.333 92.292 M238.542 92.292 L 238.542 108.125 249.063 108.125 L 259.583 108.125 259.583 105.000 L 259.583 101.875 252.182 101.875 L 244.782 101.875 244.839 98.385 L 244.896 94.896 250.990 94.841 L 257.083 94.785 257.083 91.664 L 257.083 88.542 250.938 88.542 L 244.792 88.542 244.792 85.625 L 244.792 82.708 252.188 82.708 L 259.583 82.708 259.583 79.583 L 259.583 76.458 249.063 76.458 L 238.542 76.458 238.542 92.292 M264.792 79.583 L 264.792 82.708 269.167 82.708 L 273.542 82.708 273.542 95.417 L 273.542 108.125 276.667 108.125 L 279.792 108.125 279.792 95.417 L 279.792 82.708 284.167 82.708 L 288.542 82.708 288.542 79.583 L 288.542 76.458 276.667 76.458 L 264.792 76.458 264.792 79.583 M156.555 82.611 C 163.999 84.550,166.546 93.825,161.123 99.248 C 155.661 104.710,146.434 102.160,144.477 94.647 C 142.610 87.479,149.372 80.740,156.555 82.611 M125.000 83.177 C 126.428 84.152,126.892 86.177,125.990 87.502 C 124.999 88.957,124.701 89.055,121.027 89.133 L 117.708 89.203 117.708 85.956 L 117.708 82.708 121.011 82.708 C 124.093 82.708,124.359 82.740,125.000 83.177 M233.475 116.468 C 228.961 116.999,224.830 119.379,222.155 122.990 C 221.017 124.527,221.033 124.545,223.563 124.566 C 224.719 124.575,225.742 124.631,225.838 124.691 C 225.934 124.750,226.733 124.890,227.614 125.001 L 229.215 125.204 230.389 124.483 C 232.370 123.266,233.176 123.052,235.833 123.036 C 238.311 123.020,238.314 123.021,241.176 124.296 C 241.707 124.533,245.411 119.935,245.032 119.510 C 243.404 117.683,237.146 116.036,233.475 116.468 M135.000 116.932 C 133.472 117.455,132.116 118.213,131.042 119.143 L 130.313 119.775 130.938 119.781 C 131.281 119.784,132.312 119.603,133.228 119.378 C 134.372 119.097,135.262 119.005,136.070 119.085 C 138.264 119.300,144.324 117.835,143.375 117.318 C 141.686 116.399,137.167 116.191,135.000 116.932 M189.375 117.909 L 189.375 118.942 190.260 119.179 C 190.747 119.310,191.676 119.639,192.325 119.911 C 192.973 120.183,193.957 120.432,194.512 120.463 L 195.521 120.521 195.581 118.698 L 195.641 116.875 192.508 116.875 L 189.375 116.875 189.375 117.909 M207.500 119.463 L 207.500 122.050 208.107 122.183 C 208.440 122.257,209.261 122.349,209.929 122.388 C 210.598 122.428,211.732 122.602,212.448 122.774 L 213.750 123.088 213.750 119.982 L 213.750 116.875 210.625 116.875 L 207.500 116.875 207.500 119.463 M251.458 123.311 C 251.458 130.446,251.364 130.000,252.869 130.000 C 253.283 130.000,254.160 129.889,254.818 129.753 C 255.759 129.558,256.342 129.562,257.539 129.771 C 260.805 130.341,262.695 130.434,264.881 130.134 C 266.235 129.948,267.385 129.904,268.125 130.012 C 269.987 130.282,270.000 130.279,270.000 129.583 L 270.000 128.958 263.854 128.958 L 257.708 128.958 257.708 126.042 L 257.708 123.125 265.208 123.125 L 272.708 123.125 272.708 120.000 L 272.708 116.875 262.083 116.875 L 251.458 116.875 251.458 123.311 M199.799 181.066 C 199.558 181.454,199.096 182.333,198.770 183.021 C 196.018 188.838,195.369 190.353,194.891 192.075 C 194.590 193.159,194.205 194.378,194.035 194.783 C 192.271 198.999,190.855 206.623,189.991 216.563 C 189.752 219.313,189.488 222.336,189.405 223.281 L 189.254 225.000 189.811 225.000 C 190.533 225.000,190.618 224.662,190.624 221.771 C 190.627 220.510,190.685 219.145,190.752 218.738 L 190.875 217.996 193.406 218.392 C 197.938 219.100,204.159 218.864,208.127 217.834 L 209.944 217.362 210.075 219.046 C 210.147 219.972,210.206 221.690,210.207 222.865 C 210.208 224.911,210.227 225.000,210.656 225.000 C 211.103 225.000,211.104 224.988,210.959 221.510 C 210.578 212.377,209.901 208.056,207.622 200.208 C 206.973 197.974,206.211 195.235,205.928 194.122 C 205.223 191.352,204.670 189.881,202.485 184.964 C 200.296 180.040,200.369 180.147,199.799 181.066 M201.421 183.802 C 203.298 188.102,204.975 192.985,206.041 197.250 C 206.376 198.591,206.897 200.510,207.200 201.515 C 207.870 203.742,207.834 203.853,206.315 204.201 C 204.662 204.581,196.482 204.580,194.427 204.200 L 192.917 203.921 192.917 203.234 C 192.917 202.856,193.142 201.763,193.416 200.805 C 193.691 199.846,194.207 197.921,194.562 196.526 C 195.319 193.557,196.272 190.777,197.085 189.165 C 197.577 188.190,199.444 183.849,200.019 182.344 C 200.318 181.560,200.545 181.795,201.421 183.802 M202.083 192.083 C 201.829 192.248,201.856 192.286,202.227 192.288 C 202.478 192.290,202.742 192.198,202.813 192.083 C 202.976 191.818,202.494 191.818,202.083 192.083 M202.500 194.167 C 202.003 194.326,202.009 194.334,202.644 194.354 C 203.010 194.366,203.367 194.281,203.438 194.167 C 203.586 193.927,203.248 193.927,202.500 194.167 M202.659 195.564 C 202.918 195.614,203.293 195.612,203.492 195.560 C 203.691 195.508,203.479 195.467,203.021 195.469 C 202.563 195.472,202.400 195.514,202.659 195.564 M202.708 196.458 L 201.979 196.612 202.708 196.625 C 203.109 196.632,203.625 196.557,203.854 196.458 L 204.271 196.279 203.854 196.292 C 203.625 196.299,203.109 196.374,202.708 196.458 M202.500 197.500 L 201.771 197.653 202.604 197.660 C 203.063 197.664,203.672 197.592,203.958 197.500 C 204.671 197.272,203.585 197.272,202.500 197.500 M202.930 198.570 C 202.307 198.673,201.750 198.806,201.691 198.865 C 201.537 199.019,203.983 198.720,204.479 198.524 L 204.896 198.360 204.479 198.371 C 204.250 198.377,203.553 198.467,202.930 198.570 M202.917 199.402 C 202.286 199.505,201.677 199.634,201.563 199.688 C 201.232 199.844,203.929 199.557,204.547 199.371 L 205.104 199.202 204.583 199.209 C 204.297 199.212,203.547 199.300,202.917 199.402 M203.229 200.541 L 201.563 200.816 203.054 200.721 C 203.874 200.668,204.765 200.538,205.033 200.430 C 205.659 200.180,205.287 200.202,203.229 200.541 M202.708 201.579 L 201.146 201.854 202.708 201.757 C 203.568 201.703,204.552 201.575,204.896 201.472 L 205.521 201.286 204.896 201.295 C 204.552 201.300,203.568 201.428,202.708 201.579 M202.917 202.611 C 201.749 202.803,201.565 202.872,202.188 202.883 C 202.646 202.891,203.630 202.772,204.375 202.619 C 206.071 202.271,205.015 202.265,202.917 202.611 M203.021 203.666 L 201.354 203.941 202.917 203.847 C 204.442 203.756,206.413 203.354,205.208 203.381 C 204.922 203.387,203.938 203.515,203.021 203.666 M208.290 206.302 C 208.757 207.925,209.294 211.634,209.510 214.723 L 209.643 216.634 208.759 216.872 C 203.480 218.294,198.366 218.483,192.536 217.472 C 191.684 217.324,191.174 217.127,191.092 216.914 C 190.701 215.896,192.385 204.895,192.894 205.138 C 193.532 205.443,204.368 205.433,205.729 205.127 C 207.889 204.641,207.801 204.601,208.290 206.302 M204.479 205.668 C 201.521 206.001,200.933 206.095,201.200 206.191 C 201.537 206.313,205.532 205.885,206.354 205.639 C 207.110 205.413,206.691 205.420,204.479 205.668 M194.167 206.250 C 194.339 206.361,194.667 206.452,194.896 206.452 C 195.241 206.452,195.259 206.417,195.000 206.250 C 194.828 206.139,194.500 206.048,194.271 206.048 C 193.926 206.048,193.908 206.083,194.167 206.250 M204.479 206.558 C 203.448 206.698,201.854 206.770,200.938 206.718 C 198.895 206.602,197.397 207.092,195.980 208.339 C 195.184 209.040,194.937 209.149,194.344 209.059 C 193.647 208.954,193.646 208.954,194.229 209.185 C 194.946 209.470,194.859 209.858,194.045 210.008 C 193.480 210.112,193.470 210.129,193.906 210.249 C 194.589 210.436,194.511 211.039,193.802 211.055 C 193.251 211.068,193.247 211.075,193.698 211.256 C 194.405 211.541,194.323 212.253,193.594 212.163 C 193.026 212.092,193.027 212.094,193.646 212.311 C 194.085 212.465,194.384 212.790,194.650 213.401 L 195.029 214.271 195.588 213.574 C 195.895 213.190,196.993 211.643,198.028 210.136 C 200.037 207.211,200.649 206.809,201.616 207.776 C 201.903 208.064,197.595 215.076,196.848 215.538 C 196.748 215.599,196.667 215.761,196.668 215.898 C 196.669 216.313,197.620 215.056,199.925 211.593 C 201.540 209.167,202.185 208.352,202.355 208.522 C 202.526 208.693,202.484 208.933,202.196 209.429 C 201.346 210.896,199.460 213.713,198.498 214.954 C 197.329 216.461,197.340 216.537,198.774 216.881 C 201.676 217.577,204.879 216.164,206.227 213.594 C 206.398 213.268,206.662 213.125,207.091 213.125 C 207.430 213.125,207.708 213.047,207.708 212.953 C 207.708 212.858,207.415 212.824,207.057 212.876 C 206.568 212.948,206.429 212.900,206.500 212.684 C 206.552 212.525,206.845 212.366,207.151 212.330 C 207.458 212.294,207.708 212.175,207.708 212.066 C 207.708 211.956,207.474 211.926,207.188 211.998 C 206.794 212.097,206.667 212.047,206.667 211.793 C 206.667 211.601,206.838 211.458,207.071 211.458 C 207.293 211.458,207.536 211.361,207.609 211.242 C 207.696 211.101,207.554 211.072,207.205 211.160 C 206.793 211.263,206.667 211.216,206.667 210.960 C 206.667 210.764,206.839 210.625,207.083 210.625 C 207.313 210.625,207.500 210.544,207.500 210.446 C 207.500 210.347,207.266 210.311,206.979 210.366 C 206.605 210.437,206.458 210.374,206.458 210.142 C 206.458 209.965,206.669 209.780,206.927 209.733 C 207.227 209.677,207.170 209.653,206.771 209.667 C 206.347 209.681,206.146 209.588,206.146 209.377 C 206.146 209.204,206.422 209.001,206.771 208.919 C 207.303 208.792,207.273 208.780,206.563 208.831 C 205.870 208.882,205.589 208.773,204.901 208.188 C 204.446 207.801,203.860 207.431,203.599 207.366 C 202.739 207.150,203.103 206.937,204.564 206.801 C 205.356 206.727,206.223 206.579,206.491 206.472 C 207.102 206.227,206.819 206.239,204.479 206.558 M194.271 207.292 C 194.844 207.538,195.048 207.538,194.896 207.292 C 194.825 207.177,194.562 207.090,194.311 207.098 C 193.871 207.112,193.869 207.119,194.271 207.292 M205.625 207.292 L 204.896 207.445 205.625 207.458 C 206.026 207.465,206.542 207.390,206.771 207.292 L 207.188 207.113 206.771 207.125 C 206.542 207.132,206.026 207.207,205.625 207.292 M193.958 208.125 C 194.130 208.236,194.458 208.327,194.688 208.327 C 195.033 208.327,195.050 208.292,194.792 208.125 C 194.620 208.014,194.292 207.923,194.063 207.923 C 193.717 207.923,193.700 207.958,193.958 208.125 M205.729 208.125 L 205.313 208.304 205.729 208.298 C 205.958 208.295,206.380 208.217,206.667 208.125 L 207.188 207.958 206.667 207.952 C 206.380 207.949,205.958 208.027,205.729 208.125 M193.229 213.542 C 193.846 213.807,194.577 213.807,194.167 213.542 C 193.995 213.431,193.620 213.345,193.333 213.351 C 192.856 213.362,192.848 213.378,193.229 213.542 M207.083 213.750 L 206.563 213.917 207.083 213.934 C 207.370 213.944,207.745 213.861,207.917 213.750 C 208.315 213.493,207.886 213.493,207.083 213.750 M193.125 214.583 C 193.297 214.694,193.672 214.777,193.958 214.768 L 194.479 214.750 193.958 214.583 C 193.155 214.326,192.727 214.326,193.125 214.583 M206.992 214.609 C 206.540 214.715,206.118 214.859,206.054 214.928 C 205.889 215.108,207.540 214.791,207.917 214.571 C 208.298 214.348,208.067 214.357,206.992 214.609 M206.667 215.485 C 205.892 215.639,205.690 215.734,206.042 215.778 C 206.328 215.815,206.984 215.710,207.500 215.547 C 208.610 215.195,208.261 215.169,206.667 215.485 M193.125 215.625 C 193.297 215.736,193.672 215.822,193.958 215.816 C 194.435 215.805,194.444 215.789,194.063 215.625 C 193.446 215.360,192.715 215.360,193.125 215.625 M205.625 216.576 L 204.479 216.855 205.585 216.740 C 206.193 216.676,206.943 216.548,207.251 216.455 L 207.813 216.286 207.292 216.291 C 207.005 216.294,206.255 216.422,205.625 216.576 M193.333 216.875 C 193.620 216.967,194.089 217.042,194.375 217.042 L 194.896 217.042 194.375 216.875 C 194.089 216.783,193.620 216.708,193.333 216.708 L 192.813 216.708 193.333 216.875 M205.625 219.200 C 204.995 219.307,203.448 219.477,202.188 219.580 L 199.896 219.766 202.604 219.678 C 204.094 219.630,205.828 219.459,206.458 219.298 C 207.762 218.964,207.327 218.913,205.625 219.200 M193.229 219.583 C 194.165 219.821,195.033 219.821,194.479 219.583 C 194.250 219.485,193.734 219.409,193.333 219.414 L 192.604 219.424 193.229 219.583 M205.833 220.025 C 205.318 220.128,203.818 220.299,202.500 220.405 L 200.104 220.598 202.708 220.515 C 204.141 220.469,205.828 220.297,206.458 220.134 C 207.728 219.806,207.302 219.731,205.833 220.025 M192.726 220.286 C 192.773 220.328,193.281 220.420,193.854 220.490 C 194.555 220.575,194.760 220.555,194.479 220.427 C 194.083 220.247,192.543 220.123,192.726 220.286 M206.042 221.070 C 205.526 221.176,203.885 221.347,202.396 221.450 L 199.688 221.639 202.604 221.550 C 204.208 221.502,206.083 221.330,206.771 221.169 C 208.146 220.847,207.540 220.764,206.042 221.070 M193.125 221.458 C 193.411 221.550,193.927 221.625,194.271 221.625 C 194.879 221.625,194.881 221.621,194.375 221.458 C 194.089 221.367,193.573 221.292,193.229 221.292 C 192.621 221.292,192.619 221.296,193.125 221.458 M207.455 221.990 C 207.392 222.053,205.853 222.229,204.035 222.381 C 201.276 222.613,201.005 222.662,202.396 222.682 C 203.313 222.695,204.992 222.566,206.129 222.394 C 208.094 222.098,208.892 221.875,207.986 221.875 C 207.757 221.875,207.518 221.927,207.455 221.990 M192.813 222.292 C 193.042 222.390,193.510 222.466,193.854 222.461 L 194.479 222.451 193.854 222.292 C 193.510 222.204,193.042 222.128,192.813 222.123 L 192.396 222.113 192.813 222.292 M206.542 223.044 C 206.416 223.096,205.104 223.216,203.625 223.310 L 200.938 223.481 202.917 223.498 C 204.005 223.508,205.599 223.393,206.458 223.242 C 207.318 223.092,207.740 222.965,207.396 222.959 C 207.052 222.954,206.668 222.992,206.542 223.044 M192.708 223.333 C 192.995 223.425,193.557 223.498,193.958 223.496 L 194.688 223.492 194.063 223.333 C 193.145 223.100,191.980 223.100,192.708 223.333 M205.625 223.983 C 204.880 224.080,203.568 224.249,202.708 224.358 C 201.162 224.556,201.168 224.557,203.229 224.450 C 204.375 224.391,205.922 224.220,206.667 224.071 C 208.197 223.764,207.657 223.718,205.625 223.983 M193.284 224.314 C 193.543 224.364,193.918 224.362,194.117 224.310 C 194.316 224.258,194.104 224.217,193.646 224.219 C 193.188 224.222,193.025 224.264,193.284 224.314 " stroke="none" fill="#f8f8f8" fill-rule="evenodd"></path><path id="path1" d="M0.000 112.500 L 0.000 225.000 94.552 225.000 L 189.105 225.000 189.229 223.177 C 190.150 209.670,191.648 200.361,193.772 194.949 C 193.985 194.405,194.400 193.093,194.695 192.032 C 195.387 189.538,199.240 181.209,200.034 180.490 C 200.525 180.046,200.321 179.714,202.280 184.138 C 204.655 189.500,205.368 191.314,205.851 193.229 C 206.082 194.146,206.966 197.333,207.815 200.313 C 210.051 208.157,211.248 216.562,211.250 224.427 L 211.250 225.000 305.625 225.000 L 400.000 225.000 400.000 112.500 L 400.000 0.000 200.000 0.000 L 0.000 0.000 0.000 112.500 M158.193 76.273 C 169.003 78.955,174.034 91.693,167.995 101.094 C 161.522 111.170,146.780 111.274,140.325 101.290 C 132.151 88.647,143.578 72.648,158.193 76.273 M196.354 76.345 C 198.401 76.898,202.292 78.887,202.292 79.379 C 202.292 79.473,201.397 80.581,200.304 81.843 L 198.315 84.136 197.022 83.535 C 191.392 80.919,184.745 83.901,183.228 89.725 C 181.052 98.082,189.442 104.943,197.112 101.079 L 198.703 100.277 200.653 102.532 C 203.046 105.301,202.977 104.985,201.414 106.001 C 190.246 113.264,175.724 105.565,175.751 92.396 C 175.773 81.536,186.023 73.551,196.354 76.345 M125.250 76.481 C 133.603 78.230,135.617 90.345,128.185 94.136 L 127.323 94.576 130.433 101.270 C 132.143 104.952,133.542 108.048,133.542 108.149 C 133.542 108.454,126.962 108.380,126.726 108.073 C 126.616 107.930,125.232 105.023,123.650 101.615 L 120.773 95.417 119.241 95.417 L 117.708 95.417 117.708 101.771 L 117.708 108.125 114.479 108.125 L 111.250 108.125 111.250 92.188 L 111.250 76.250 117.698 76.250 C 121.619 76.250,124.579 76.341,125.250 76.481 M214.840 81.283 L 214.896 86.315 219.450 81.283 L 224.004 76.250 228.252 76.250 C 230.588 76.250,232.500 76.320,232.500 76.406 C 232.499 76.492,230.064 79.281,227.087 82.604 C 224.111 85.927,221.675 88.740,221.675 88.854 C 221.675 88.969,224.193 93.328,227.270 98.542 L 232.865 108.021 229.200 108.078 C 227.184 108.109,225.434 108.096,225.310 108.049 C 225.186 108.001,223.308 104.771,221.136 100.870 L 217.188 93.778 215.990 94.956 L 214.792 96.133 214.792 102.129 L 214.792 108.125 211.563 108.125 L 208.333 108.125 208.333 92.188 L 208.333 76.250 211.559 76.250 L 214.784 76.250 214.840 81.283 M259.792 79.479 L 259.792 82.708 252.396 82.708 L 245.000 82.708 245.000 85.625 L 245.000 88.542 251.042 88.542 L 257.083 88.542 257.083 91.771 L 257.083 95.000 251.042 95.000 L 245.000 95.000 245.000 98.333 L 245.000 101.667 252.297 101.667 L 259.594 101.667 259.537 104.948 L 259.479 108.229 248.958 108.229 L 238.438 108.229 238.384 92.500 C 238.354 83.849,238.375 76.654,238.429 76.510 C 238.507 76.307,240.847 76.250,249.160 76.250 L 259.792 76.250 259.792 79.479 M288.750 79.479 L 288.750 82.708 284.377 82.708 L 280.003 82.708 279.950 95.469 L 279.896 108.229 276.720 108.287 L 273.545 108.344 273.491 95.578 L 273.438 82.813 269.010 82.756 L 264.583 82.700 264.583 79.475 L 264.583 76.250 276.667 76.250 L 288.750 76.250 288.750 79.479 M151.354 82.793 C 144.065 85.107,141.882 94.186,147.378 99.327 C 155.472 106.899,167.812 97.575,162.797 87.677 C 160.799 83.735,155.504 81.474,151.354 82.793 M117.708 85.833 L 117.708 88.958 120.889 88.958 C 125.262 88.958,126.785 87.968,126.352 85.406 C 125.996 83.294,124.745 82.711,120.573 82.709 L 117.708 82.708 117.708 85.833 M142.396 116.888 C 144.579 117.563,148.542 119.731,148.542 120.250 C 148.542 120.443,145.769 125.076,145.406 125.489 C 145.321 125.586,144.729 125.331,144.091 124.923 C 139.379 121.909,134.792 122.166,134.792 125.443 C 134.792 127.248,135.501 127.823,139.237 129.047 C 146.115 131.300,149.356 134.922,149.130 140.102 C 148.708 149.753,136.364 152.434,127.333 144.837 C 125.958 143.681,125.914 143.809,128.550 141.298 L 130.747 139.205 131.874 140.141 C 136.375 143.879,142.708 143.509,142.708 139.508 C 142.708 137.922,139.776 135.778,136.563 135.015 C 125.964 132.498,125.406 119.202,135.788 116.559 C 137.410 116.146,140.494 116.300,142.396 116.888 M239.479 116.761 C 241.526 117.315,245.417 119.304,245.417 119.796 C 245.417 119.889,244.522 120.998,243.429 122.259 L 241.440 124.553 240.147 123.952 C 232.571 120.431,224.549 126.843,226.274 135.042 C 227.592 141.308,234.786 144.491,240.546 141.356 L 241.822 140.662 243.828 142.972 C 246.191 145.693,246.116 145.397,244.688 146.344 C 233.553 153.735,218.849 146.027,218.876 132.813 C 218.898 121.953,229.148 113.967,239.479 116.761 M178.166 132.500 C 182.257 141.151,185.610 148.349,185.615 148.495 C 185.623 148.702,184.857 148.748,182.135 148.703 L 178.646 148.646 177.203 145.677 L 175.760 142.708 169.286 142.712 L 162.813 142.715 161.269 145.733 L 159.725 148.750 156.229 148.750 C 154.306 148.750,152.695 148.680,152.649 148.594 C 152.603 148.508,154.362 144.922,156.558 140.625 C 158.754 136.328,162.404 129.175,164.669 124.729 L 168.786 116.645 169.756 116.708 L 170.726 116.771 178.166 132.500 M195.668 127.448 C 195.727 137.931,195.741 138.256,196.171 139.185 C 198.279 143.742,204.738 143.771,206.871 139.233 C 207.296 138.329,207.310 137.991,207.352 127.537 L 207.396 116.771 210.625 116.771 L 213.854 116.771 213.908 127.348 C 213.968 139.046,213.914 139.707,212.697 142.178 C 208.138 151.439,194.840 151.413,190.394 142.135 C 189.229 139.703,189.174 139.045,189.170 127.344 L 189.167 116.667 192.387 116.667 L 195.607 116.667 195.668 127.448 M272.708 119.896 L 272.708 123.125 265.313 123.125 L 257.917 123.125 257.917 126.042 L 257.917 128.958 264.063 128.958 L 270.208 128.958 270.208 132.188 L 270.208 135.417 264.063 135.417 L 257.917 135.417 257.917 138.750 L 257.917 142.083 265.208 142.083 L 272.500 142.083 272.500 145.417 L 272.500 148.750 261.979 148.750 L 251.458 148.750 251.458 132.708 L 251.458 116.667 262.083 116.667 L 272.708 116.667 272.708 119.896 M167.848 132.841 C 166.957 134.628,166.267 136.128,166.314 136.175 C 166.361 136.222,167.819 136.235,169.552 136.203 L 172.705 136.146 171.237 133.021 C 170.430 131.302,169.701 129.828,169.619 129.744 C 169.536 129.661,168.739 131.055,167.848 132.841 M199.367 184.310 C 198.873 185.549,198.007 187.547,197.443 188.750 C 196.220 191.356,195.585 193.132,194.872 195.938 C 194.581 197.083,194.076 199.005,193.750 200.208 C 192.906 203.329,192.858 203.704,193.289 203.838 C 196.702 204.901,207.500 204.608,207.500 203.453 C 207.500 203.299,207.265 202.388,206.977 201.430 C 206.689 200.472,206.215 198.750,205.924 197.604 C 204.488 191.952,201.343 183.134,200.441 182.232 C 200.344 182.136,199.861 183.070,199.367 184.310 M203.125 192.083 C 203.125 192.198,202.791 192.292,202.384 192.292 C 201.942 192.292,201.694 192.207,201.771 192.083 C 201.842 191.969,202.175 191.875,202.512 191.875 C 202.849 191.875,203.125 191.969,203.125 192.083 M203.447 193.109 C 203.282 193.376,202.144 193.604,201.858 193.427 C 201.690 193.323,201.703 193.230,201.905 193.102 C 202.286 192.861,203.597 192.867,203.447 193.109 M203.750 194.148 C 203.750 194.394,202.172 194.663,201.860 194.470 C 201.483 194.237,202.074 193.965,202.969 193.962 C 203.398 193.960,203.750 194.044,203.750 194.148 M204.167 195.392 C 204.167 195.648,203.402 195.827,202.302 195.830 C 201.387 195.833,201.322 195.565,202.188 195.357 C 202.923 195.180,204.167 195.202,204.167 195.392 M204.251 196.457 C 203.946 196.762,201.458 196.988,201.458 196.711 C 201.458 196.443,202.035 196.317,203.427 196.278 C 204.110 196.260,204.388 196.320,204.251 196.457 M204.674 197.270 C 204.836 197.532,204.366 197.676,202.838 197.833 C 201.306 197.990,200.656 197.602,202.131 197.412 C 202.621 197.349,203.255 197.262,203.542 197.219 C 204.477 197.078,204.557 197.081,204.674 197.270 M196.563 197.708 C 196.633 197.823,196.498 197.917,196.262 197.917 C 196.026 197.917,195.833 197.823,195.833 197.708 C 195.833 197.594,195.968 197.500,196.134 197.500 C 196.299 197.500,196.492 197.594,196.563 197.708 M204.841 198.576 C 204.576 198.841,201.049 199.111,201.300 198.847 C 201.516 198.620,202.831 198.386,204.052 198.357 C 204.836 198.339,205.025 198.391,204.841 198.576 M196.354 198.750 C 196.425 198.865,196.290 198.958,196.054 198.958 C 195.818 198.958,195.625 198.865,195.625 198.750 C 195.625 198.635,195.760 198.542,195.925 198.542 C 196.090 198.542,196.283 198.635,196.354 198.750 M205.208 199.157 C 205.208 199.473,203.762 199.789,202.309 199.791 C 200.568 199.792,200.804 199.602,202.958 199.268 C 205.180 198.923,205.208 198.922,205.208 199.157 M196.250 199.792 C 196.250 200.036,196.090 200.036,195.521 199.792 C 195.152 199.633,195.169 199.611,195.677 199.598 C 195.992 199.590,196.250 199.677,196.250 199.792 M205.510 200.393 C 205.257 200.629,202.835 201.042,201.702 201.042 C 200.303 201.042,200.703 200.682,202.344 200.464 C 204.378 200.195,205.756 200.164,205.510 200.393 M196.042 200.625 C 196.285 200.782,196.228 200.828,195.781 200.830 C 195.466 200.832,195.208 200.740,195.208 200.625 C 195.208 200.362,195.634 200.362,196.042 200.625 M206.042 201.151 C 206.042 201.572,201.508 202.248,200.913 201.916 C 200.655 201.771,201.052 201.653,202.416 201.469 C 203.436 201.332,204.365 201.187,204.479 201.147 C 204.818 201.029,206.042 201.032,206.042 201.151 M195.833 201.667 C 195.833 201.911,195.673 201.911,195.104 201.667 C 194.735 201.508,194.753 201.486,195.260 201.473 C 195.576 201.465,195.833 201.552,195.833 201.667 M206.135 202.263 C 205.784 202.583,203.901 202.947,201.979 203.066 C 199.486 203.220,199.863 202.900,202.671 202.478 C 205.307 202.082,206.410 202.014,206.135 202.263 M195.729 202.500 C 195.894 202.766,195.203 202.766,194.792 202.500 C 194.547 202.342,194.601 202.297,195.040 202.295 C 195.348 202.293,195.658 202.385,195.729 202.500 M195.411 203.325 C 195.579 203.432,195.661 203.576,195.591 203.645 C 195.415 203.821,194.375 203.536,194.375 203.311 C 194.375 203.069,195.019 203.078,195.411 203.325 M206.180 203.360 C 205.284 203.881,199.615 204.486,200.085 204.010 C 200.250 203.844,204.613 203.199,205.833 203.161 C 206.445 203.141,206.501 203.173,206.180 203.360 M207.001 204.941 C 206.691 205.021,206.667 205.080,206.891 205.218 C 207.628 205.674,204.767 206.248,201.875 206.226 C 198.771 206.201,198.041 205.888,200.938 205.824 L 203.229 205.772 200.625 205.587 C 199.193 205.485,197.010 205.453,195.775 205.517 C 194.387 205.589,193.375 205.550,193.124 205.416 C 192.630 205.152,192.672 205.005,191.969 209.479 C 191.203 214.349,191.070 217.000,191.585 217.154 C 195.653 218.372,205.073 218.104,208.862 216.664 L 209.436 216.446 209.298 214.525 C 208.990 210.250,207.967 204.711,207.503 204.816 C 207.444 204.829,207.218 204.885,207.001 204.941 M195.366 206.406 C 195.477 206.743,195.055 206.723,194.271 206.353 L 193.646 206.059 194.463 206.102 C 194.913 206.126,195.319 206.263,195.366 206.406 M207.083 206.242 C 207.083 206.467,206.023 206.776,204.503 206.994 C 203.712 207.107,203.563 207.183,203.837 207.336 C 204.063 207.463,204.419 207.453,204.834 207.308 C 205.625 207.032,207.362 207.009,207.197 207.277 C 207.131 207.384,206.556 207.536,205.919 207.616 C 205.281 207.695,204.838 207.833,204.932 207.922 C 205.027 208.011,205.594 207.982,206.193 207.856 C 206.791 207.731,207.346 207.693,207.425 207.772 C 207.659 208.006,207.381 208.153,206.476 208.274 C 206.008 208.337,205.625 208.465,205.625 208.559 C 205.625 208.653,206.108 208.673,206.699 208.603 C 207.939 208.456,207.984 208.849,206.754 209.079 C 205.844 209.250,206.018 209.489,206.990 209.405 C 207.900 209.327,207.930 209.705,207.031 209.923 L 206.354 210.088 207.188 210.210 L 208.021 210.333 207.292 210.670 L 206.563 211.008 207.240 211.025 C 208.067 211.045,208.113 211.300,207.344 211.604 L 206.771 211.831 207.483 211.853 C 208.286 211.878,208.199 212.072,207.225 212.432 L 206.563 212.677 207.356 212.692 C 208.309 212.712,208.200 213.053,207.180 213.244 C 206.123 213.443,206.300 213.661,207.448 213.575 C 208.742 213.479,208.409 213.869,206.996 214.104 C 206.432 214.198,205.934 214.385,205.889 214.520 C 205.828 214.703,205.998 214.712,206.560 214.557 C 206.975 214.443,207.566 214.384,207.875 214.426 L 208.438 214.503 207.868 214.745 C 207.554 214.878,206.878 215.023,206.365 215.068 C 205.763 215.119,205.168 215.348,204.691 215.712 C 203.023 216.985,201.001 217.486,199.115 217.094 C 197.058 216.667,197.040 216.582,198.566 214.535 C 200.206 212.333,202.292 209.091,202.292 208.741 C 202.292 208.378,201.134 209.946,199.638 212.335 C 198.192 214.644,197.098 216.032,196.719 216.038 C 196.379 216.043,196.389 215.840,196.749 215.433 C 198.310 213.667,201.691 208.033,201.342 207.778 C 200.772 207.361,200.061 207.442,199.684 207.969 C 199.500 208.227,198.464 209.722,197.381 211.291 C 195.350 214.235,195.047 214.580,194.820 214.212 C 194.747 214.094,194.340 213.932,193.917 213.852 C 192.607 213.606,192.160 213.070,193.401 213.232 C 194.529 213.380,194.564 212.697,193.443 212.416 C 192.755 212.243,192.750 211.795,193.438 211.926 C 193.784 211.992,193.958 211.932,193.958 211.746 C 193.958 211.592,193.724 211.407,193.438 211.336 C 192.717 211.155,192.784 210.833,193.542 210.833 C 193.885 210.833,194.167 210.740,194.167 210.625 C 194.167 210.510,194.091 210.417,193.998 210.417 C 193.905 210.417,193.648 210.273,193.425 210.098 C 193.043 209.797,193.060 209.783,193.732 209.838 C 194.162 209.873,194.479 209.792,194.531 209.635 C 194.580 209.488,194.447 209.375,194.224 209.375 C 194.007 209.375,193.648 209.228,193.425 209.048 C 193.048 208.743,193.089 208.729,194.038 208.839 C 194.987 208.950,195.109 208.908,195.887 208.205 C 197.385 206.853,198.267 206.593,201.563 206.536 C 203.167 206.508,204.995 206.397,205.625 206.290 C 206.255 206.182,206.841 206.082,206.927 206.068 C 207.013 206.053,207.083 206.132,207.083 206.242 M195.165 207.179 C 195.414 207.428,194.979 207.542,194.281 207.411 C 193.283 207.224,193.299 206.781,194.297 206.943 C 194.712 207.010,195.103 207.116,195.165 207.179 M194.983 208.045 C 195.167 208.104,195.204 208.212,195.082 208.335 C 194.832 208.584,193.702 208.292,193.587 207.948 C 193.506 207.704,194.020 207.740,194.983 208.045 M194.254 214.501 C 194.435 214.571,194.583 214.722,194.583 214.837 C 194.583 215.068,193.229 214.876,192.708 214.571 C 192.342 214.356,193.715 214.295,194.254 214.501 M193.866 215.441 C 194.783 215.672,195.130 216.043,194.427 216.041 C 193.848 216.039,192.527 215.629,192.391 215.409 C 192.227 215.144,192.730 215.155,193.866 215.441 M207.946 215.548 C 207.194 215.876,204.380 216.207,204.629 215.938 C 204.863 215.686,206.888 215.244,207.813 215.243 L 208.646 215.242 207.946 215.548 M208.427 216.222 C 207.947 216.658,203.442 217.344,203.854 216.918 C 204.112 216.651,206.691 216.093,207.802 216.063 C 208.277 216.051,208.541 216.118,208.427 216.222 M194.879 216.922 C 195.565 217.289,194.897 217.382,193.621 217.096 C 192.086 216.753,191.880 216.350,193.338 216.543 C 193.948 216.624,194.642 216.795,194.879 216.922 M207.708 218.026 C 203.950 219.017,198.484 219.224,193.752 218.553 C 192.207 218.334,190.931 218.172,190.917 218.192 C 190.903 218.212,190.834 219.754,190.764 221.617 L 190.636 225.004 198.912 224.916 C 203.463 224.867,207.609 224.767,208.125 224.693 C 208.805 224.596,208.977 224.618,208.750 224.776 C 208.508 224.944,208.615 224.994,209.219 224.997 L 210.000 225.000 210.000 222.844 C 210.000 220.347,209.787 217.487,209.605 217.529 C 209.536 217.545,208.682 217.769,207.708 218.026 M208.542 218.742 C 208.542 218.950,207.863 219.158,205.729 219.605 C 204.270 219.911,199.047 219.964,198.760 219.676 C 198.636 219.552,199.548 219.457,201.209 219.419 C 202.664 219.386,204.839 219.186,206.042 218.976 C 207.245 218.765,208.299 218.581,208.385 218.567 C 208.471 218.553,208.542 218.632,208.542 218.742 M193.906 219.302 C 194.508 219.374,195.000 219.525,195.000 219.637 C 195.000 219.921,192.556 219.723,192.247 219.414 C 191.955 219.121,192.244 219.102,193.906 219.302 M208.219 219.775 C 207.476 220.496,200.270 221.029,198.958 220.461 C 198.547 220.282,199.031 220.229,201.250 220.208 C 202.797 220.194,204.766 220.059,205.625 219.909 C 207.583 219.567,208.481 219.520,208.219 219.775 M194.887 220.444 C 195.046 220.615,194.750 220.647,193.778 220.564 C 193.049 220.502,192.345 220.338,192.215 220.199 C 192.031 220.002,192.275 219.975,193.324 220.079 C 194.064 220.151,194.767 220.316,194.887 220.444 M208.750 220.617 C 208.750 220.831,207.845 221.112,205.897 221.502 C 204.215 221.839,199.391 221.831,198.854 221.490 C 198.498 221.263,198.598 221.243,199.542 221.350 C 200.790 221.492,205.044 221.146,207.083 220.738 C 207.828 220.588,208.508 220.455,208.594 220.442 C 208.680 220.428,208.750 220.507,208.750 220.617 M194.866 221.406 C 195.127 221.559,194.533 221.880,194.167 221.784 C 193.995 221.740,193.503 221.644,193.073 221.571 C 191.776 221.352,192.137 220.993,193.490 221.157 C 194.148 221.237,194.768 221.349,194.866 221.406 M208.622 221.878 C 207.903 222.597,200.803 223.078,199.063 222.526 C 198.600 222.379,199.249 222.319,201.563 222.296 C 203.281 222.279,205.438 222.143,206.354 221.995 C 208.583 221.634,208.882 221.618,208.622 221.878 M194.010 222.188 C 194.440 222.255,194.792 222.400,194.792 222.509 C 194.792 222.771,193.843 222.761,192.865 222.489 C 191.964 222.239,191.802 221.841,192.656 221.976 C 192.971 222.025,193.581 222.121,194.010 222.188 M208.740 222.910 C 207.990 223.349,203.636 223.802,201.216 223.692 C 197.504 223.525,197.683 223.235,201.526 223.189 C 203.380 223.167,205.411 223.061,206.042 222.954 C 207.605 222.690,209.160 222.664,208.740 222.910 M194.674 223.312 C 195.364 223.582,194.658 223.799,193.574 223.650 C 192.045 223.440,191.770 223.129,193.125 223.143 C 193.755 223.149,194.452 223.225,194.674 223.312 M208.750 223.731 C 208.026 224.139,204.564 224.583,202.292 224.559 C 198.886 224.523,198.000 224.226,201.146 224.175 C 202.521 224.153,204.490 224.015,205.521 223.868 C 207.814 223.542,209.189 223.483,208.750 223.731 M194.219 224.092 C 195.460 224.297,195.164 224.659,193.864 224.524 C 192.440 224.377,191.601 223.973,192.708 223.967 C 193.109 223.965,193.789 224.021,194.219 224.092 " stroke="none" fill="#343434" fill-rule="evenodd"></path><path id="path2" d="M168.360 117.656 C 168.141 118.086,164.530 125.170,160.335 133.399 C 156.140 141.628,152.708 148.401,152.708 148.451 C 152.708 148.501,154.301 148.542,156.249 148.542 L 159.789 148.542 161.250 145.625 L 162.711 142.708 169.286 142.708 L 175.862 142.708 177.239 145.625 L 178.616 148.542 182.118 148.542 L 185.620 148.542 185.126 147.448 C 184.313 145.644,171.772 119.150,171.173 117.969 C 170.417 116.480,169.038 116.326,168.360 117.656 M143.542 117.753 C 141.432 118.569,138.256 119.167,136.023 119.167 C 134.850 119.167,133.602 119.295,133.002 119.477 C 132.439 119.648,131.644 119.788,131.234 119.789 C 128.698 119.797,127.434 125.803,129.212 129.401 C 130.537 132.081,133.288 134.118,136.771 134.997 C 140.735 135.997,143.247 138.266,142.676 140.332 C 141.739 143.726,136.161 143.710,131.975 140.301 L 130.810 139.352 129.207 140.803 C 128.326 141.601,127.296 142.575,126.920 142.967 L 126.236 143.680 127.233 144.609 C 130.558 147.710,134.081 149.057,138.870 149.060 L 141.802 149.063 143.588 148.178 C 148.837 145.577,150.713 139.474,147.705 134.787 C 146.139 132.347,142.922 130.245,138.778 128.956 C 135.599 127.967,134.766 127.270,134.741 125.575 C 134.685 121.912,139.506 121.759,144.792 125.255 L 145.313 125.600 146.950 122.892 C 147.851 121.403,148.554 120.157,148.513 120.123 C 147.040 118.908,144.136 117.523,143.542 117.753 M189.245 119.263 C 188.946 120.042,189.309 138.869,189.645 139.991 C 192.907 150.898,207.802 152.335,212.591 142.204 C 213.817 139.609,213.799 139.802,213.770 130.060 L 213.750 123.141 212.969 122.941 C 211.973 122.687,210.201 122.458,209.220 122.458 C 208.802 122.458,208.247 122.378,207.989 122.279 L 207.518 122.101 207.457 130.269 L 207.396 138.438 206.831 139.508 C 204.932 143.109,200.255 143.824,197.382 140.951 C 195.623 139.192,195.625 139.205,195.625 129.262 L 195.625 120.682 194.427 120.542 C 193.768 120.465,192.620 120.158,191.875 119.860 C 189.818 119.037,189.371 118.935,189.245 119.263 M220.397 125.913 C 213.342 140.991,231.494 155.877,244.957 146.054 L 245.851 145.402 243.936 143.215 C 241.585 140.530,241.966 140.708,240.369 141.541 C 230.766 146.546,221.363 134.532,228.361 126.198 C 229.032 125.398,229.119 125.205,228.814 125.192 C 228.607 125.184,228.273 125.145,228.072 125.107 C 226.989 124.899,223.273 124.584,222.216 124.610 L 220.994 124.639 220.397 125.913 M171.239 132.847 C 172.047 134.585,172.708 136.061,172.708 136.128 C 172.708 136.195,171.209 136.250,169.376 136.250 L 166.043 136.250 167.756 132.817 C 168.698 130.930,169.536 129.453,169.619 129.536 C 169.701 129.619,170.430 131.109,171.239 132.847 M254.792 129.796 C 254.505 129.885,253.638 129.968,252.865 129.979 L 251.458 130.000 251.458 139.271 L 251.458 148.542 261.979 148.542 L 272.500 148.542 272.500 145.417 L 272.500 142.292 265.208 142.292 L 257.917 142.292 257.917 138.854 L 257.917 135.417 263.958 135.417 L 270.000 135.417 270.000 132.830 L 270.000 130.244 268.408 130.095 C 267.435 130.004,265.983 130.048,264.669 130.211 C 262.454 130.484,259.411 130.370,258.372 129.975 C 257.651 129.701,255.451 129.591,254.792 129.796 " stroke="none" fill="#fa3535" fill-rule="evenodd"></path><path id="path3" d="M209.958 76.405 C 210.909 76.444,212.409 76.444,213.291 76.405 C 214.174 76.366,213.396 76.334,211.563 76.334 C 209.729 76.335,209.007 76.366,209.958 76.405 M226.105 76.406 C 227.343 76.442,229.312 76.442,230.480 76.405 C 231.648 76.368,230.635 76.338,228.229 76.338 C 225.823 76.338,224.867 76.369,226.105 76.406 M238.429 76.510 C 238.375 76.654,238.354 83.849,238.384 92.500 L 238.438 108.229 248.906 108.232 L 259.375 108.235 248.958 108.178 L 238.542 108.121 238.542 92.292 L 238.542 76.462 249.219 76.406 L 259.896 76.350 249.212 76.300 C 240.820 76.261,238.507 76.306,238.429 76.510 M270.573 76.406 C 273.924 76.438,279.409 76.438,282.760 76.406 C 286.112 76.374,283.370 76.348,276.667 76.348 C 269.964 76.348,267.221 76.374,270.573 76.406 M153.597 82.441 C 153.913 82.489,154.382 82.488,154.638 82.438 C 154.895 82.389,154.635 82.350,154.063 82.351 C 153.490 82.353,153.280 82.393,153.597 82.441 M244.874 85.729 C 244.874 87.333,244.907 87.962,244.947 87.126 C 244.986 86.291,244.986 84.978,244.946 84.210 C 244.906 83.441,244.874 84.125,244.874 85.729 M137.557 92.292 C 137.557 92.807,137.597 93.018,137.647 92.760 C 137.697 92.503,137.697 92.081,137.647 91.823 C 137.597 91.565,137.557 91.776,137.557 92.292 M129.883 92.760 L 129.271 93.438 129.948 92.826 C 130.320 92.489,130.625 92.184,130.625 92.149 C 130.625 91.988,130.453 92.129,129.883 92.760 M215.930 94.844 L 214.896 95.938 215.990 94.904 C 216.591 94.335,217.083 93.843,217.083 93.810 C 217.083 93.654,216.890 93.827,215.930 94.844 M244.888 98.333 L 244.896 101.771 252.188 101.775 L 259.479 101.779 252.245 101.720 L 245.010 101.661 244.945 98.279 L 244.879 94.896 244.888 98.333 M141.875 103.399 C 141.875 103.434,142.180 103.739,142.552 104.076 L 143.229 104.688 142.617 104.010 C 142.047 103.379,141.875 103.238,141.875 103.399 M128.490 108.280 C 129.435 108.319,130.982 108.319,131.927 108.280 C 132.872 108.241,132.099 108.210,130.208 108.210 C 128.318 108.210,127.544 108.241,128.490 108.280 M275.052 108.280 C 275.940 108.319,277.393 108.319,278.281 108.280 C 279.169 108.241,278.443 108.209,276.667 108.209 C 274.891 108.209,274.164 108.241,275.052 108.280 M168.673 116.831 C 168.617 116.922,168.916 116.964,169.338 116.924 C 170.626 116.802,170.778 116.716,169.752 116.691 C 169.214 116.678,168.729 116.741,168.673 116.831 M190.791 116.822 C 191.742 116.861,193.242 116.860,194.124 116.821 C 195.007 116.782,194.229 116.751,192.396 116.751 C 190.563 116.751,189.840 116.783,190.791 116.822 M207.389 116.922 C 207.333 117.068,207.313 121.641,207.344 127.083 L 207.400 136.979 207.450 126.927 L 207.500 116.875 210.623 116.875 L 213.746 116.875 213.803 126.823 L 213.860 136.771 213.857 126.771 L 213.854 116.771 210.673 116.713 C 208.242 116.669,207.467 116.719,207.389 116.922 M256.719 116.823 C 259.669 116.855,264.497 116.855,267.448 116.823 C 270.398 116.790,267.984 116.763,262.083 116.763 C 256.182 116.763,253.768 116.790,256.719 116.823 M270.084 132.188 C 270.085 134.021,270.116 134.743,270.155 133.792 C 270.194 132.841,270.194 131.341,270.155 130.459 C 270.116 129.576,270.084 130.354,270.084 132.188 M130.208 131.315 C 130.208 131.351,130.513 131.656,130.885 131.992 L 131.563 132.604 130.951 131.927 C 130.380 131.296,130.208 131.154,130.208 131.315 M218.821 132.813 C 218.822 133.729,218.859 134.078,218.903 133.588 C 218.947 133.098,218.946 132.348,218.901 131.922 C 218.857 131.495,218.821 131.896,218.821 132.813 M141.042 136.940 C 141.042 136.976,141.346 137.281,141.719 137.617 L 142.396 138.229 141.784 137.552 C 141.214 136.921,141.042 136.779,141.042 136.940 M213.798 137.708 C 213.798 138.109,213.841 138.273,213.894 138.073 C 213.946 137.872,213.946 137.544,213.894 137.344 C 213.841 137.143,213.798 137.307,213.798 137.708 M129.886 140.052 L 129.063 140.938 129.948 140.114 C 130.435 139.661,130.833 139.263,130.833 139.229 C 130.833 139.071,130.652 139.229,129.886 140.052 M261.510 142.239 C 263.544 142.273,266.872 142.273,268.906 142.239 C 270.940 142.205,269.276 142.177,265.208 142.177 C 261.141 142.177,259.477 142.205,261.510 142.239 M138.597 142.858 C 138.913 142.906,139.382 142.904,139.638 142.855 C 139.895 142.806,139.635 142.766,139.063 142.768 C 138.490 142.769,138.280 142.810,138.597 142.858 M126.250 143.815 C 126.250 143.851,126.555 144.156,126.927 144.492 L 127.604 145.104 126.992 144.427 C 126.422 143.796,126.250 143.654,126.250 143.815 M192.708 145.521 C 193.097 145.922,193.462 146.250,193.519 146.250 C 193.577 146.250,193.305 145.922,192.917 145.521 C 192.528 145.120,192.163 144.792,192.106 144.792 C 192.048 144.792,192.320 145.120,192.708 145.521 M210.197 145.573 L 209.479 146.354 210.260 145.636 C 210.988 144.968,211.137 144.792,210.978 144.792 C 210.944 144.792,210.592 145.143,210.197 145.573 M152.682 148.599 C 152.771 148.688,154.430 148.734,156.370 148.703 L 159.896 148.645 156.208 148.541 C 154.179 148.484,152.593 148.510,152.682 148.599 M180.479 148.697 C 181.487 148.735,183.081 148.735,184.021 148.696 C 184.960 148.658,184.135 148.627,182.188 148.627 C 180.240 148.627,179.471 148.659,180.479 148.697 M256.733 148.698 C 259.692 148.730,264.473 148.730,267.358 148.698 C 270.244 148.665,267.823 148.638,261.979 148.638 C 256.135 148.638,253.775 148.665,256.733 148.698 M201.844 194.428 C 201.949 194.533,202.257 194.584,202.528 194.541 C 202.945 194.475,202.916 194.446,202.337 194.350 C 201.923 194.282,201.729 194.312,201.844 194.428 M201.441 197.774 C 201.535 197.868,201.976 197.913,202.420 197.874 L 203.229 197.804 202.249 197.703 C 201.710 197.648,201.346 197.680,201.441 197.774 M201.302 202.019 C 201.503 202.071,201.831 202.071,202.031 202.019 C 202.232 201.966,202.068 201.923,201.667 201.923 C 201.266 201.923,201.102 201.966,201.302 202.019 M199.742 205.564 C 200.001 205.614,200.376 205.612,200.575 205.560 C 200.775 205.508,200.563 205.467,200.104 205.469 C 199.646 205.472,199.483 205.514,199.742 205.564 M203.333 205.625 C 202.919 205.893,203.440 205.893,204.063 205.625 L 204.479 205.446 204.063 205.434 C 203.833 205.428,203.505 205.514,203.333 205.625 M199.844 206.608 C 200.159 206.655,200.674 206.655,200.990 206.608 C 201.305 206.560,201.047 206.521,200.417 206.521 C 199.786 206.521,199.529 206.560,199.844 206.608 M205.229 215.082 C 204.865 215.470,204.822 215.617,205.036 215.741 C 205.188 215.828,205.243 215.823,205.158 215.730 C 204.931 215.479,205.374 215.034,205.789 215.096 C 205.985 215.125,206.027 215.108,205.883 215.058 C 205.738 215.009,205.673 214.882,205.739 214.776 C 205.956 214.425,205.704 214.576,205.229 215.082 M189.840 215.833 C 189.840 216.234,189.883 216.398,189.935 216.198 C 189.988 215.997,189.988 215.669,189.935 215.469 C 189.883 215.268,189.840 215.432,189.840 215.833 M209.359 215.885 C 209.297 216.333,209.328 216.588,209.433 216.484 C 209.534 216.383,209.582 216.032,209.541 215.702 C 209.473 215.152,209.458 215.166,209.359 215.885 M191.094 216.354 C 191.097 216.813,191.139 216.975,191.189 216.716 C 191.239 216.457,191.237 216.082,191.185 215.883 C 191.133 215.684,191.092 215.896,191.094 216.354 M203.833 216.910 C 203.774 217.005,204.059 217.083,204.467 217.083 C 204.875 217.083,205.208 217.047,205.208 217.003 C 205.208 216.832,203.934 216.746,203.833 216.910 M209.854 218.542 C 209.854 219.172,209.893 219.430,209.941 219.115 C 209.989 218.799,209.989 218.284,209.941 217.969 C 209.893 217.654,209.854 217.911,209.854 218.542 M189.632 218.333 C 189.632 218.734,189.675 218.898,189.727 218.698 C 189.779 218.497,189.779 218.169,189.727 217.969 C 189.675 217.768,189.632 217.932,189.632 218.333 M198.177 218.060 C 198.378 218.113,198.706 218.113,198.906 218.060 C 199.107 218.008,198.943 217.965,198.542 217.965 C 198.141 217.965,197.977 218.008,198.177 218.060 M201.094 218.060 C 201.294 218.113,201.622 218.113,201.823 218.060 C 202.023 218.008,201.859 217.965,201.458 217.965 C 201.057 217.965,200.893 218.008,201.094 218.060 M198.688 219.605 C 198.853 219.770,199.027 219.771,199.303 219.611 C 199.640 219.415,199.612 219.387,199.073 219.381 C 198.625 219.377,198.521 219.437,198.688 219.605 M201.198 219.942 C 201.570 219.989,202.180 219.989,202.552 219.942 C 202.924 219.896,202.620 219.858,201.875 219.858 C 201.130 219.858,200.826 219.896,201.198 219.942 M199.303 220.365 C 199.249 220.451,199.736 220.494,200.384 220.462 C 202.419 220.360,202.664 220.272,201.002 220.240 C 200.121 220.222,199.356 220.279,199.303 220.365 M201.406 220.776 C 201.779 220.822,202.388 220.822,202.760 220.776 C 203.133 220.729,202.828 220.692,202.083 220.692 C 201.339 220.692,201.034 220.729,201.406 220.776 M192.292 221.221 C 192.292 221.320,192.526 221.356,192.813 221.301 C 193.099 221.246,193.333 221.165,193.333 221.122 C 193.333 221.078,193.099 221.042,192.813 221.042 C 192.526 221.042,192.292 221.122,192.292 221.221 M198.721 221.436 C 198.980 221.600,199.792 221.519,199.792 221.330 C 199.792 221.286,199.487 221.251,199.115 221.253 C 198.654 221.255,198.528 221.314,198.721 221.436 M190.678 222.188 C 190.680 222.646,190.723 222.809,190.772 222.550 C 190.822 222.291,190.820 221.916,190.768 221.716 C 190.716 221.517,190.675 221.729,190.678 222.188 M202.552 221.810 C 202.753 221.863,203.081 221.863,203.281 221.810 C 203.482 221.758,203.318 221.715,202.917 221.715 C 202.516 221.715,202.352 221.758,202.552 221.810 M189.215 222.917 C 189.215 223.318,189.258 223.482,189.310 223.281 C 189.363 223.081,189.363 222.753,189.310 222.552 C 189.258 222.352,189.215 222.516,189.215 222.917 M211.106 223.438 C 211.107 224.125,211.146 224.381,211.193 224.007 C 211.239 223.632,211.238 223.070,211.191 222.757 C 211.143 222.444,211.105 222.750,211.106 223.438 M202.450 222.856 C 202.709 222.906,203.084 222.904,203.284 222.851 C 203.483 222.799,203.271 222.759,202.813 222.761 C 202.354 222.763,202.191 222.806,202.450 222.856 M198.405 223.361 C 198.681 223.521,198.855 223.520,199.020 223.355 C 199.188 223.187,199.084 223.127,198.635 223.131 C 198.097 223.137,198.068 223.165,198.405 223.361 M210.060 224.063 C 210.061 224.635,210.102 224.845,210.149 224.528 C 210.197 224.212,210.196 223.743,210.147 223.487 C 210.097 223.230,210.058 223.490,210.060 224.063 " stroke="none" fill="#7c7272" fill-rule="evenodd"></path><path id="path4" d="M111.346 76.510 C 111.291 76.654,111.271 83.849,111.302 92.500 L 111.357 108.229 111.408 92.347 L 111.458 76.464 117.760 76.406 L 124.063 76.348 117.754 76.299 C 112.862 76.261,111.423 76.308,111.346 76.510 M214.673 81.458 C 214.673 84.266,214.703 85.414,214.739 84.010 C 214.775 82.607,214.775 80.310,214.739 78.906 C 214.703 77.503,214.673 78.651,214.673 81.458 M264.667 79.583 C 264.667 81.359,264.699 82.086,264.738 81.198 C 264.777 80.310,264.777 78.857,264.738 77.969 C 264.699 77.081,264.667 77.807,264.667 79.583 M288.626 79.583 C 288.626 81.359,288.657 82.086,288.697 81.198 C 288.736 80.310,288.736 78.857,288.697 77.969 C 288.657 77.081,288.626 77.807,288.626 79.583 M142.383 80.677 L 141.771 81.354 142.448 80.742 C 142.820 80.406,143.125 80.101,143.125 80.065 C 143.125 79.904,142.953 80.046,142.383 80.677 M132.757 85.833 C 132.757 86.234,132.800 86.398,132.852 86.198 C 132.904 85.997,132.904 85.669,132.852 85.469 C 132.800 85.268,132.757 85.432,132.757 85.833 M119.228 89.113 C 120.122 89.153,121.528 89.152,122.353 89.113 C 123.179 89.073,122.448 89.041,120.729 89.042 C 119.010 89.042,118.335 89.074,119.228 89.113 M170.485 92.188 C 170.486 92.990,170.524 93.292,170.569 92.860 C 170.614 92.428,170.613 91.771,170.567 91.402 C 170.521 91.032,170.484 91.385,170.485 92.188 M182.771 92.292 C 182.771 92.922,182.810 93.180,182.858 92.865 C 182.905 92.549,182.905 92.034,182.858 91.719 C 182.810 91.404,182.771 91.661,182.771 92.292 M247.969 94.947 C 249.659 94.982,252.424 94.982,254.115 94.947 C 255.805 94.912,254.422 94.884,251.042 94.884 C 247.661 94.884,246.279 94.912,247.969 94.947 M214.675 102.083 C 214.675 105.464,214.704 106.846,214.739 105.156 C 214.774 103.466,214.774 100.701,214.739 99.010 C 214.704 97.320,214.675 98.703,214.675 102.083 M153.802 102.227 C 154.003 102.279,154.331 102.279,154.531 102.227 C 154.732 102.175,154.568 102.132,154.167 102.132 C 153.766 102.132,153.602 102.175,153.802 102.227 M165.614 103.906 L 164.896 104.688 165.677 103.970 C 166.404 103.301,166.554 103.125,166.395 103.125 C 166.360 103.125,166.009 103.477,165.614 103.906 M137.867 116.397 C 138.126 116.447,138.501 116.445,138.700 116.393 C 138.900 116.341,138.688 116.300,138.229 116.303 C 137.771 116.305,137.608 116.348,137.867 116.397 M189.231 118.021 C 189.232 118.708,189.271 118.964,189.318 118.590 C 189.364 118.216,189.363 117.653,189.316 117.340 C 189.268 117.027,189.230 117.333,189.231 118.021 M257.791 126.042 C 257.791 127.703,257.823 128.383,257.863 127.552 C 257.903 126.721,257.903 125.362,257.863 124.531 C 257.823 123.701,257.791 124.380,257.791 126.042 M224.742 124.731 C 225.001 124.781,225.376 124.779,225.575 124.726 C 225.775 124.674,225.563 124.634,225.104 124.636 C 224.646 124.638,224.483 124.681,224.742 124.731 M260.677 130.352 C 260.878 130.404,261.206 130.404,261.406 130.352 C 261.607 130.300,261.443 130.257,261.042 130.257 C 260.641 130.257,260.477 130.300,260.677 130.352 M201.771 195.625 C 201.694 195.749,201.922 195.827,202.331 195.819 C 202.906 195.806,202.951 195.774,202.604 195.625 C 202.039 195.382,201.921 195.382,201.771 195.625 M202.292 198.740 C 202.464 198.857,202.784 198.953,203.003 198.955 C 203.536 198.959,203.370 198.840,202.604 198.669 C 202.148 198.567,202.063 198.586,202.292 198.740 M200.033 206.069 C 200.389 206.200,200.835 206.200,201.283 206.071 C 201.921 205.888,201.875 205.871,200.729 205.869 C 199.680 205.867,199.568 205.899,200.033 206.069 M204.570 207.508 C 204.161 207.761,204.388 207.872,205.000 207.717 C 205.400 207.616,205.444 207.555,205.189 207.458 C 205.007 207.388,204.729 207.410,204.570 207.508 M205.313 208.542 C 205.520 208.771,205.769 208.958,205.866 208.958 C 205.962 208.958,205.854 208.771,205.625 208.542 C 205.396 208.313,205.147 208.125,205.072 208.125 C 204.997 208.125,205.105 208.313,205.313 208.542 M206.042 213.977 C 206.042 214.081,206.245 214.167,206.493 214.167 C 206.741 214.167,206.879 214.101,206.800 214.022 C 206.574 213.797,206.042 213.765,206.042 213.977 M196.967 215.229 C 196.786 215.520,197.241 215.625,197.473 215.345 C 197.646 215.137,197.624 215.069,197.383 215.069 C 197.208 215.069,197.021 215.141,196.967 215.229 M205.104 215.848 C 204.765 215.982,204.813 216.015,205.365 216.027 C 206.069 216.042,206.228 215.948,205.781 215.780 C 205.638 215.727,205.333 215.757,205.104 215.848 M192.292 216.540 C 192.292 216.743,192.879 216.819,193.144 216.651 C 193.358 216.515,193.282 216.464,192.865 216.462 C 192.549 216.460,192.292 216.495,192.292 216.540 M200.260 218.894 C 200.461 218.946,200.789 218.946,200.990 218.894 C 201.190 218.841,201.026 218.798,200.625 218.798 C 200.224 218.798,200.060 218.841,200.260 218.894 M190.678 219.688 C 190.680 220.146,190.723 220.309,190.772 220.050 C 190.822 219.791,190.820 219.416,190.768 219.216 C 190.716 219.017,190.675 219.229,190.678 219.688 M210.060 220.521 C 210.061 221.094,210.102 221.303,210.149 220.987 C 210.197 220.670,210.196 220.201,210.147 219.945 C 210.097 219.689,210.058 219.948,210.060 220.521 M194.063 222.500 C 193.696 222.657,193.716 222.681,194.231 222.694 C 194.571 222.702,194.762 222.621,194.688 222.500 C 194.617 222.385,194.541 222.298,194.519 222.306 C 194.497 222.314,194.292 222.402,194.063 222.500 M199.747 222.513 C 200.253 222.613,200.840 222.609,201.101 222.504 C 201.439 222.368,201.199 222.321,200.208 222.328 C 198.895 222.337,198.881 222.343,199.747 222.513 M202.448 222.439 C 202.706 222.488,203.128 222.488,203.385 222.439 C 203.643 222.389,203.432 222.348,202.917 222.348 C 202.401 222.348,202.190 222.389,202.448 222.439 M200.521 223.541 C 201.152 223.702,203.477 223.814,203.316 223.675 C 203.268 223.634,202.479 223.551,201.563 223.490 C 200.617 223.428,200.166 223.450,200.521 223.541 M192.471 224.144 C 192.730 224.308,193.542 224.228,193.542 224.038 C 193.542 223.994,193.237 223.960,192.865 223.962 C 192.404 223.964,192.278 224.022,192.471 224.144 M194.063 224.375 C 193.715 224.524,193.761 224.556,194.335 224.569 C 194.745 224.577,194.972 224.499,194.896 224.375 C 194.746 224.132,194.628 224.132,194.063 224.375 M199.823 224.379 C 200.356 224.469,201.293 224.470,201.906 224.381 C 202.876 224.240,202.750 224.218,200.938 224.217 C 199.248 224.216,199.037 224.247,199.823 224.379 " stroke="none" fill="#949494" fill-rule="evenodd"></path><path id="path5" d="M259.667 79.583 C 259.667 81.359,259.699 82.086,259.738 81.198 C 259.777 80.310,259.777 78.857,259.738 77.969 C 259.699 77.081,259.667 77.807,259.667 79.583 M279.890 95.521 C 279.890 102.510,279.916 105.340,279.948 101.808 C 279.980 98.276,279.980 92.557,279.948 89.100 C 279.916 85.642,279.890 88.531,279.890 95.521 M201.667 196.696 C 201.667 196.794,201.901 196.875,202.188 196.875 C 202.474 196.875,202.708 196.839,202.708 196.795 C 202.708 196.751,202.474 196.670,202.188 196.616 C 201.901 196.561,201.667 196.597,201.667 196.696 M200.704 202.957 C 200.647 203.049,200.981 203.125,201.446 203.125 C 201.911 203.125,202.292 203.088,202.292 203.044 C 202.292 202.877,200.804 202.796,200.704 202.957 M200.267 203.991 C 200.054 204.075,200.405 204.144,201.094 204.152 C 201.753 204.160,202.292 204.130,202.292 204.084 C 202.292 203.923,200.631 203.847,200.267 203.991 M201.402 205.567 C 201.771 205.613,202.428 205.614,202.860 205.569 C 203.292 205.524,202.990 205.486,202.188 205.485 C 201.385 205.484,201.032 205.521,201.402 205.567 M210.057 222.292 C 210.057 222.807,210.097 223.018,210.147 222.760 C 210.197 222.503,210.197 222.081,210.147 221.823 C 210.097 221.565,210.057 221.776,210.057 222.292 " stroke="none" fill="#8c8c8c" fill-rule="evenodd"></path></g></svg>