<svg id="svg" version="1.1" xmlns="http://www.w3.org/2000/svg" xmlns:xlink="http://www.w3.org/1999/xlink" width="400" height="225" viewBox="0, 0, 400,225"><g id="svgg"><path id="path0" d="M151.771 75.968 C 140.675 77.755,134.531 89.499,139.470 99.479 C 147.148 114.994,170.417 109.467,170.417 92.128 C 170.417 82.314,161.320 74.430,151.771 75.968 M190.350 76.055 C 178.876 77.374,172.383 89.692,177.727 100.000 C 181.648 107.564,191.103 110.822,198.890 107.291 C 200.402 106.605,202.500 105.257,202.500 104.970 C 202.500 104.718,198.707 100.390,198.553 100.466 C 198.489 100.498,197.969 100.770,197.396 101.072 C 189.809 105.067,181.222 98.639,182.986 90.286 C 184.252 84.296,190.836 80.838,196.458 83.209 C 197.203 83.524,197.938 83.797,198.091 83.817 C 198.687 83.896,202.284 79.516,201.940 79.129 C 200.290 77.275,194.074 75.627,190.350 76.055 M111.458 92.281 L 111.458 108.125 114.583 108.125 L 117.708 108.125 117.708 101.762 L 117.708 95.399 119.317 95.460 L 120.925 95.521 123.848 101.816 L 126.771 108.110 130.136 108.118 L 133.502 108.125 130.397 101.436 C 126.845 93.784,127.098 94.546,127.969 94.123 C 134.557 90.918,134.162 80.721,127.319 77.337 L 125.752 76.563 118.605 76.500 L 111.458 76.438 111.458 92.281 M208.333 92.292 L 208.333 108.125 211.458 108.125 L 214.583 108.125 214.583 102.129 L 214.583 96.133 215.846 94.889 C 216.956 93.796,217.138 93.687,217.356 93.986 C 217.493 94.174,219.337 97.431,221.454 101.226 L 225.304 108.125 229.006 108.125 C 231.042 108.125,232.708 108.087,232.708 108.040 C 232.708 107.992,230.286 103.844,227.324 98.821 C 224.363 93.797,221.829 89.478,221.693 89.221 C 221.464 88.788,221.829 88.329,226.869 82.707 C 229.852 79.380,232.292 76.613,232.292 76.558 C 232.292 76.503,230.419 76.458,228.130 76.458 L 223.968 76.458 219.432 81.458 C 216.937 84.208,214.826 86.458,214.740 86.458 C 214.654 86.458,214.583 84.208,214.583 81.458 L 214.583 76.458 211.458 76.458 L 208.333 76.458 208.333 92.292 M238.542 92.292 L 238.542 108.125 249.063 108.125 L 259.583 108.125 259.583 105.000 L 259.583 101.875 252.182 101.875 L 244.782 101.875 244.839 98.385 L 244.896 94.896 250.990 94.841 L 257.083 94.785 257.083 91.664 L 257.083 88.542 250.938 88.542 L 244.792 88.542 244.792 85.625 L 244.792 82.708 252.188 82.708 L 259.583 82.708 259.583 79.583 L 259.583 76.458 249.063 76.458 L 238.542 76.458 238.542 92.292 M264.792 79.583 L 264.792 82.708 269.167 82.708 L 273.542 82.708 273.542 95.417 L 273.542 108.125 276.667 108.125 L 279.792 108.125 279.792 95.417 L 279.792 82.708 284.167 82.708 L 288.542 82.708 288.542 79.583 L 288.542 76.458 276.667 76.458 L 264.792 76.458 264.792 79.583 M156.555 82.611 C 163.999 84.550,166.546 93.825,161.123 99.248 C 155.661 104.710,146.434 102.160,144.477 94.647 C 142.610 87.479,149.372 80.740,156.555 82.611 M125.000 83.177 C 126.428 84.152,126.892 86.177,125.990 87.502 C 124.999 88.957,124.701 89.055,121.027 89.133 L 117.708 89.203 117.708 85.956 L 117.708 82.708 121.011 82.708 C 124.093 82.708,124.359 82.740,125.000 83.177 M134.792 116.985 L 134.063 117.271 135.000 117.150 C 135.516 117.084,136.027 116.948,136.135 116.848 C 136.434 116.574,135.630 116.656,134.792 116.985 M255.624 117.030 C 256.025 117.078,256.447 117.191,256.562 117.282 C 257.103 117.708,260.166 118.144,263.142 118.219 C 264.909 118.264,266.495 118.354,266.667 118.419 C 267.032 118.558,271.551 119.163,272.240 119.165 C 272.669 119.167,272.708 119.071,272.708 118.021 L 272.708 116.875 263.802 116.908 C 258.904 116.927,255.224 116.981,255.624 117.030 M199.742 169.911 C 199.323 170.599,198.884 171.418,198.766 171.730 C 198.647 172.042,197.856 173.772,197.007 175.576 C 196.159 177.379,195.346 179.370,195.202 180.000 C 195.057 180.630,194.619 182.031,194.229 183.114 C 192.034 189.201,191.124 194.354,189.994 207.083 C 189.296 214.954,189.247 225.000,189.908 225.000 C 190.259 225.000,190.348 223.695,190.642 214.271 C 190.775 210.031,190.919 206.523,190.964 206.474 C 191.009 206.425,192.287 206.566,193.804 206.786 C 198.490 207.468,204.178 207.242,208.284 206.213 C 209.236 205.974,210.063 205.827,210.123 205.887 C 210.293 206.057,210.656 218.736,210.585 222.032 C 210.509 225.569,210.896 226.256,211.113 222.969 C 211.887 211.282,210.705 198.973,207.825 188.725 C 206.943 185.588,205.989 182.177,205.706 181.146 C 205.224 179.392,203.064 174.105,201.283 170.319 L 200.502 168.660 199.742 169.911 M201.661 172.240 C 203.525 176.550,205.063 181.069,206.146 185.417 C 206.445 186.620,206.966 188.472,207.304 189.534 C 208.189 192.320,208.241 192.189,206.094 192.583 C 203.057 193.140,195.170 192.950,193.400 192.277 C 192.829 192.060,192.845 191.910,193.860 188.125 C 194.244 186.693,194.802 184.585,195.100 183.442 C 195.653 181.315,195.947 180.554,198.524 174.583 C 199.340 172.693,200.098 170.935,200.208 170.677 C 200.539 169.900,200.744 170.119,201.661 172.240 M202.292 180.417 C 202.038 180.581,202.065 180.619,202.436 180.622 C 202.687 180.624,202.950 180.531,203.021 180.417 C 203.185 180.151,202.702 180.151,202.292 180.417 M202.344 181.602 C 202.544 181.654,202.872 181.654,203.073 181.602 C 203.273 181.550,203.109 181.507,202.708 181.507 C 202.307 181.507,202.143 181.550,202.344 181.602 M202.708 182.500 C 202.211 182.659,202.217 182.668,202.852 182.688 C 203.218 182.699,203.575 182.615,203.646 182.500 C 203.794 182.260,203.456 182.260,202.708 182.500 M202.292 183.958 C 201.907 184.207,202.461 184.207,203.438 183.958 L 204.063 183.799 203.333 183.778 C 202.932 183.766,202.464 183.847,202.292 183.958 M202.917 184.792 L 202.188 184.945 203.021 184.969 C 203.479 184.983,203.995 184.903,204.167 184.792 C 204.544 184.548,204.075 184.548,202.917 184.792 M202.708 185.833 C 201.987 185.985,201.989 185.987,202.917 185.993 C 203.432 185.997,204.089 185.925,204.375 185.833 C 205.080 185.607,203.781 185.607,202.708 185.833 M203.234 186.899 C 201.445 187.159,201.319 187.314,203.004 187.179 C 203.797 187.116,204.594 186.978,204.775 186.872 C 205.179 186.636,205.023 186.638,203.234 186.899 M203.021 187.826 L 201.563 188.103 202.965 188.004 C 204.280 187.912,205.949 187.509,204.896 187.538 C 204.667 187.544,203.823 187.674,203.021 187.826 M203.438 188.875 L 201.771 189.149 203.402 189.055 C 204.299 189.003,205.189 188.869,205.381 188.758 C 205.822 188.500,205.647 188.511,203.438 188.875 M202.917 189.913 L 201.146 190.187 202.813 190.097 C 204.399 190.011,206.485 189.604,205.208 189.629 C 204.922 189.635,203.891 189.763,202.917 189.913 M203.229 190.958 L 201.563 191.232 203.125 191.139 C 204.651 191.047,206.622 190.646,205.417 190.672 C 205.130 190.678,204.146 190.807,203.229 190.958 M203.854 191.884 C 202.185 192.149,201.821 192.254,202.514 192.270 C 203.580 192.294,205.772 191.933,206.250 191.653 C 206.621 191.437,206.736 191.426,203.854 191.884 M208.242 193.906 C 208.683 194.946,209.064 196.994,209.463 200.459 C 209.964 204.812,209.952 204.934,209.010 205.205 C 204.140 206.607,198.125 206.819,192.523 205.787 L 191.191 205.542 191.322 203.344 C 191.443 201.307,192.556 193.625,192.759 193.421 C 192.809 193.372,193.122 193.452,193.456 193.598 C 194.231 193.939,205.851 193.752,206.667 193.386 C 207.579 192.976,207.892 193.079,208.242 193.906 M205.000 193.978 C 200.247 194.580,200.308 194.567,202.708 194.464 C 203.911 194.412,205.411 194.241,206.042 194.083 C 207.333 193.760,206.994 193.726,205.000 193.978 M194.375 194.583 C 194.547 194.694,194.875 194.780,195.104 194.774 L 195.521 194.762 195.104 194.583 C 194.481 194.316,193.961 194.316,194.375 194.583 M204.688 194.897 C 203.656 195.041,202.063 195.113,201.146 195.057 C 199.099 194.932,197.612 195.419,196.175 196.685 C 195.333 197.426,195.134 197.509,194.435 197.412 L 193.646 197.301 194.330 197.537 C 195.139 197.816,195.104 198.184,194.254 198.341 C 193.688 198.446,193.679 198.463,194.115 198.582 C 194.858 198.786,194.707 199.372,193.906 199.391 L 193.229 199.408 193.802 199.617 C 194.134 199.738,194.375 199.982,194.375 200.197 C 194.375 200.484,194.247 200.547,193.802 200.476 C 193.354 200.404,193.297 200.432,193.542 200.605 C 193.714 200.727,194.003 200.828,194.186 200.830 C 194.391 200.832,194.613 201.151,194.767 201.667 C 195.146 202.933,195.425 202.659,198.652 197.852 C 199.330 196.842,200.001 195.919,200.143 195.802 C 200.422 195.570,201.768 195.909,201.989 196.266 C 202.105 196.454,197.464 203.619,197.069 203.863 C 196.962 203.929,196.875 204.095,196.876 204.231 C 196.878 204.599,197.780 203.470,199.176 201.354 C 202.027 197.031,202.708 196.206,202.708 197.074 C 202.708 197.508,199.773 202.020,198.380 203.726 C 196.288 206.289,202.818 205.993,205.327 203.411 C 205.926 202.795,206.426 202.488,206.997 202.385 C 207.446 202.304,207.953 202.151,208.125 202.043 C 208.438 201.848,208.064 201.895,206.748 202.216 C 206.246 202.338,206.223 202.315,206.443 201.903 C 206.604 201.603,206.881 201.458,207.299 201.458 C 207.639 201.458,207.917 201.381,207.917 201.286 C 207.917 201.191,207.623 201.157,207.265 201.209 C 206.776 201.281,206.637 201.233,206.708 201.017 C 206.760 200.859,207.054 200.700,207.360 200.663 C 207.666 200.627,207.917 200.523,207.917 200.432 C 207.917 200.341,207.682 200.311,207.396 200.366 C 207.014 200.439,206.875 200.375,206.875 200.128 C 206.875 199.934,207.046 199.792,207.279 199.792 C 207.502 199.792,207.741 199.699,207.811 199.586 C 207.890 199.458,207.688 199.431,207.274 199.514 C 206.465 199.676,206.495 199.154,207.307 198.943 C 207.792 198.816,207.787 198.808,207.188 198.728 C 206.844 198.683,206.563 198.553,206.563 198.440 C 206.563 198.326,206.844 198.168,207.188 198.089 L 207.813 197.945 207.187 197.975 C 206.073 198.029,205.824 197.655,206.771 197.349 L 207.604 197.080 206.738 197.164 C 205.412 197.291,205.162 196.831,206.398 196.537 C 206.948 196.406,207.162 196.298,206.875 196.296 C 206.589 196.293,206.120 196.359,205.833 196.442 C 205.343 196.585,203.345 195.746,203.336 195.395 C 203.335 195.325,203.966 195.215,204.740 195.149 C 205.513 195.083,206.380 194.935,206.667 194.820 C 207.315 194.558,207.040 194.569,204.688 194.897 M194.271 195.625 C 194.850 195.874,195.258 195.874,195.104 195.625 C 195.033 195.510,194.723 195.423,194.415 195.431 C 193.914 195.444,193.899 195.465,194.271 195.625 M205.779 195.617 C 204.624 195.841,204.619 196.009,205.771 195.886 C 206.804 195.776,207.805 195.412,206.979 195.447 C 206.750 195.457,206.210 195.533,205.779 195.617 M194.167 196.458 C 194.339 196.569,194.667 196.655,194.896 196.649 L 195.313 196.637 194.896 196.458 C 194.273 196.191,193.753 196.191,194.167 196.458 M193.333 201.875 C 193.505 201.986,193.880 202.072,194.167 202.066 C 194.644 202.055,194.652 202.039,194.271 201.875 C 193.654 201.610,192.923 201.610,193.333 201.875 M193.229 202.917 C 193.458 203.015,193.833 203.096,194.063 203.096 L 194.479 203.096 194.063 202.917 C 193.833 202.818,193.458 202.738,193.229 202.738 L 192.813 202.738 193.229 202.917 M206.979 203.032 L 205.938 203.315 206.979 203.203 C 207.552 203.141,208.110 203.005,208.219 202.900 C 208.471 202.655,208.292 202.675,206.979 203.032 M207.813 203.649 C 207.698 203.690,207.058 203.831,206.390 203.963 C 204.777 204.282,204.982 204.422,206.664 204.151 C 207.926 203.948,209.086 203.540,208.333 203.564 C 208.161 203.570,207.927 203.608,207.813 203.649 M193.229 203.924 C 193.968 204.245,194.914 204.423,194.688 204.198 C 194.573 204.084,194.104 203.935,193.646 203.867 C 193.087 203.783,192.950 203.802,193.229 203.924 M206.354 204.792 C 205.323 204.996,204.720 205.174,205.014 205.186 C 205.713 205.215,207.934 204.803,208.333 204.570 C 208.741 204.332,208.581 204.350,206.354 204.792 M193.438 205.208 C 193.667 205.307,194.135 205.385,194.479 205.381 C 195.089 205.375,195.091 205.371,194.583 205.208 C 193.819 204.964,192.868 204.964,193.438 205.208 M206.563 207.423 C 205.760 207.584,203.885 207.794,202.396 207.890 L 199.688 208.065 201.771 208.094 C 203.797 208.123,207.145 207.710,208.149 207.309 C 208.826 207.038,208.302 207.076,206.563 207.423 M193.229 207.917 C 194.146 208.150,195.312 208.150,194.583 207.917 C 194.297 207.825,193.734 207.752,193.333 207.754 L 192.604 207.758 193.229 207.917 M206.042 208.361 C 205.526 208.465,203.932 208.636,202.500 208.740 L 199.896 208.929 202.813 208.850 C 204.417 208.806,206.245 208.636,206.875 208.471 C 208.139 208.140,207.527 208.060,206.042 208.361 M193.333 208.750 C 194.089 208.992,195.251 208.992,194.688 208.750 C 194.458 208.652,193.943 208.574,193.542 208.577 C 192.879 208.583,192.860 208.598,193.333 208.750 M206.250 209.405 C 205.734 209.511,204.047 209.674,202.500 209.768 L 199.688 209.938 201.979 209.968 C 203.940 209.994,207.818 209.543,208.106 209.255 C 208.245 209.116,207.277 209.194,206.250 209.405 M193.125 209.792 C 193.411 209.883,193.974 209.957,194.375 209.955 L 195.104 209.951 194.479 209.792 C 193.562 209.558,192.396 209.558,193.125 209.792 M206.866 210.438 C 206.346 210.538,204.705 210.709,203.220 210.817 L 200.521 211.013 203.438 210.933 C 205.042 210.890,206.870 210.719,207.500 210.554 C 208.762 210.224,208.358 210.150,206.866 210.438 M192.813 210.598 C 193.503 210.890,194.921 211.099,194.688 210.874 C 194.573 210.764,194.010 210.617,193.438 210.548 C 192.794 210.470,192.555 210.489,192.813 210.598 M205.833 211.467 C 205.203 211.554,203.469 211.648,201.979 211.675 C 199.494 211.720,199.383 211.738,200.625 211.893 C 201.979 212.062,206.095 211.809,207.500 211.469 C 208.479 211.232,207.540 211.231,205.833 211.467 M192.813 211.667 C 193.042 211.765,193.604 211.842,194.063 211.836 L 194.896 211.827 194.063 211.655 C 193.604 211.560,193.042 211.484,192.813 211.485 L 192.396 211.488 192.813 211.667 M206.844 212.223 C 206.655 212.273,205.202 212.437,203.615 212.588 C 201.403 212.797,201.045 212.867,202.083 212.888 C 203.542 212.918,206.685 212.583,207.641 212.296 C 208.305 212.096,207.572 212.029,206.844 212.223 M192.860 212.512 C 193.082 212.716,195.142 212.994,194.945 212.794 C 194.857 212.705,194.316 212.573,193.742 212.499 C 193.168 212.425,192.771 212.431,192.860 212.512 M206.354 213.343 C 205.781 213.432,204.094 213.525,202.604 213.549 C 199.987 213.592,199.942 213.600,201.250 213.795 C 202.614 213.998,206.556 213.725,207.846 213.338 C 208.635 213.101,207.890 213.104,206.354 213.343 M192.813 213.542 C 193.042 213.640,193.604 213.717,194.063 213.711 L 194.896 213.702 194.063 213.530 C 193.604 213.435,193.042 213.359,192.813 213.360 L 192.396 213.363 192.813 213.542 M206.354 214.385 C 205.781 214.474,204.094 214.567,202.604 214.591 C 200.002 214.633,199.949 214.643,201.250 214.832 C 202.594 215.029,206.071 214.789,207.708 214.388 C 208.650 214.157,207.827 214.155,206.354 214.385 M192.526 214.458 C 192.731 214.682,194.792 214.958,194.792 214.761 C 194.792 214.663,194.569 214.583,194.297 214.583 C 194.025 214.583,193.486 214.523,193.099 214.449 C 192.712 214.375,192.454 214.379,192.526 214.458 M205.625 215.436 C 200.887 216.036,200.942 216.025,203.333 215.913 C 204.536 215.857,206.130 215.686,206.875 215.534 C 208.384 215.226,207.705 215.173,205.625 215.436 M193.438 215.833 C 194.410 216.081,195.175 216.081,194.792 215.833 C 194.620 215.722,194.104 215.641,193.646 215.653 C 192.843 215.674,192.835 215.680,193.438 215.833 M207.116 216.400 C 206.848 216.451,205.348 216.622,203.783 216.780 L 200.938 217.067 203.438 216.968 C 204.813 216.913,206.547 216.741,207.292 216.584 C 208.496 216.331,208.340 216.167,207.116 216.400 M193.333 216.875 C 194.089 217.117,195.251 217.117,194.688 216.875 C 194.458 216.777,193.943 216.699,193.542 216.702 C 192.879 216.708,192.860 216.723,193.333 216.875 M207.396 217.537 C 206.823 217.646,205.182 217.858,203.750 218.007 C 201.598 218.231,201.376 218.283,202.473 218.306 C 203.873 218.335,207.821 217.818,208.602 217.503 C 209.184 217.269,208.734 217.282,207.396 217.537 M193.438 218.125 C 194.355 218.358,195.520 218.358,194.792 218.125 C 194.505 218.033,193.943 217.960,193.542 217.962 L 192.813 217.966 193.438 218.125 M206.939 218.771 C 206.344 218.870,204.703 219.033,203.293 219.133 L 200.729 219.316 202.708 219.344 C 204.454 219.370,208.462 218.899,208.723 218.638 C 208.853 218.508,208.242 218.554,206.939 218.771 M193.125 219.167 C 193.411 219.258,194.021 219.332,194.479 219.330 L 195.313 219.327 194.479 219.155 C 194.021 219.060,193.411 218.986,193.125 218.991 L 192.604 219.000 193.125 219.167 M206.875 219.823 C 206.245 219.928,204.604 220.099,203.229 220.201 L 200.729 220.388 203.646 220.308 C 205.250 220.265,207.078 220.094,207.708 219.929 C 209.005 219.590,208.589 219.537,206.875 219.823 M193.438 220.208 C 194.364 220.444,195.444 220.444,194.896 220.208 C 194.667 220.110,194.104 220.034,193.646 220.039 C 192.849 220.049,192.840 220.056,193.438 220.208 M207.292 220.844 C 206.776 220.936,204.854 221.030,203.021 221.054 C 199.988 221.093,199.819 221.113,201.146 221.285 C 202.899 221.512,206.335 221.343,207.917 220.954 C 209.168 220.645,208.786 220.578,207.292 220.844 M192.507 221.106 C 192.698 221.318,195.000 221.614,195.000 221.427 C 195.000 221.330,194.789 221.249,194.531 221.248 C 194.273 221.246,193.688 221.186,193.229 221.114 C 192.771 221.042,192.446 221.038,192.507 221.106 M206.146 221.885 C 205.573 221.974,203.932 222.067,202.500 222.092 C 199.971 222.137,199.938 222.143,201.354 222.314 C 202.790 222.487,206.191 222.259,207.708 221.888 C 208.699 221.645,207.694 221.643,206.146 221.885 M193.854 222.304 C 194.313 222.398,194.875 222.475,195.104 222.473 L 195.521 222.471 195.104 222.292 C 194.875 222.193,194.313 222.117,193.854 222.122 L 193.021 222.131 193.854 222.304 M207.035 222.826 C 206.971 222.890,205.432 223.017,203.615 223.107 L 200.313 223.270 202.917 223.292 C 205.099 223.310,209.368 222.811,207.691 222.733 C 207.395 222.720,207.100 222.761,207.035 222.826 M193.125 223.114 C 193.639 223.289,195.360 223.407,195.191 223.255 C 195.143 223.212,194.542 223.123,193.854 223.057 C 193.044 222.979,192.788 222.999,193.125 223.114 M205.833 223.969 C 205.318 224.061,203.818 224.154,202.500 224.177 C 200.326 224.215,200.210 224.235,201.250 224.399 C 202.386 224.578,205.787 224.337,207.292 223.970 C 208.300 223.725,207.213 223.724,205.833 223.969 M193.333 224.167 C 193.620 224.258,194.229 224.332,194.688 224.330 L 195.521 224.327 194.688 224.155 C 194.229 224.060,193.620 223.986,193.333 223.991 L 192.813 224.000 193.333 224.167 M207.344 224.935 C 207.544 224.988,207.872 224.988,208.073 224.935 C 208.273 224.883,208.109 224.840,207.708 224.840 C 207.307 224.840,207.143 224.883,207.344 224.935 " stroke="none" fill="#f7f7f7" fill-rule="evenodd"></path><path id="path1" d="M0.000 112.500 L 0.000 225.000 94.557 225.000 L 189.113 225.000 189.252 224.134 C 189.328 223.657,189.330 221.243,189.257 218.769 C 189.121 214.204,189.566 207.265,190.538 198.770 C 191.150 193.427,192.514 187.252,193.949 183.329 C 194.305 182.357,194.736 180.953,194.908 180.208 C 195.334 178.362,199.458 169.533,200.214 168.849 C 200.614 168.487,200.644 168.525,201.633 170.646 C 203.593 174.848,205.405 179.292,205.914 181.146 C 206.198 182.177,207.139 185.552,208.006 188.646 C 210.752 198.448,211.316 203.245,211.320 216.823 L 211.323 225.000 305.661 225.000 L 400.000 225.000 400.000 112.500 L 400.000 0.000 200.000 0.000 L 0.000 0.000 0.000 112.500 M158.193 76.273 C 169.003 78.955,174.034 91.693,167.995 101.094 C 161.522 111.170,146.780 111.274,140.325 101.290 C 132.151 88.647,143.578 72.648,158.193 76.273 M196.354 76.345 C 198.401 76.898,202.292 78.887,202.292 79.379 C 202.292 79.473,201.397 80.581,200.304 81.843 L 198.315 84.136 197.022 83.535 C 191.392 80.919,184.745 83.901,183.228 89.725 C 181.052 98.082,189.442 104.943,197.112 101.079 L 198.703 100.277 200.653 102.532 C 203.046 105.301,202.977 104.985,201.414 106.001 C 190.246 113.264,175.724 105.565,175.751 92.396 C 175.773 81.536,186.023 73.551,196.354 76.345 M125.250 76.481 C 133.603 78.230,135.617 90.345,128.185 94.136 L 127.323 94.576 130.433 101.270 C 132.143 104.952,133.542 108.048,133.542 108.149 C 133.542 108.454,126.962 108.380,126.726 108.073 C 126.616 107.930,125.232 105.023,123.650 101.615 L 120.773 95.417 119.241 95.417 L 117.708 95.417 117.708 101.771 L 117.708 108.125 114.479 108.125 L 111.250 108.125 111.250 92.188 L 111.250 76.250 117.698 76.250 C 121.619 76.250,124.579 76.341,125.250 76.481 M214.840 81.283 L 214.896 86.315 219.450 81.283 L 224.004 76.250 228.252 76.250 C 230.588 76.250,232.500 76.320,232.500 76.406 C 232.499 76.492,230.064 79.281,227.087 82.604 C 224.111 85.927,221.675 88.740,221.675 88.854 C 221.675 88.969,224.193 93.328,227.270 98.542 L 232.865 108.021 229.200 108.078 C 227.184 108.109,225.434 108.096,225.310 108.049 C 225.186 108.001,223.308 104.771,221.136 100.870 L 217.188 93.778 215.990 94.956 L 214.792 96.133 214.792 102.129 L 214.792 108.125 211.563 108.125 L 208.333 108.125 208.333 92.188 L 208.333 76.250 211.559 76.250 L 214.784 76.250 214.840 81.283 M259.792 79.479 L 259.792 82.708 252.396 82.708 L 245.000 82.708 245.000 85.625 L 245.000 88.542 251.042 88.542 L 257.083 88.542 257.083 91.771 L 257.083 95.000 251.042 95.000 L 245.000 95.000 245.000 98.333 L 245.000 101.667 252.297 101.667 L 259.594 101.667 259.537 104.948 L 259.479 108.229 248.958 108.229 L 238.438 108.229 238.384 92.500 C 238.354 83.849,238.375 76.654,238.429 76.510 C 238.507 76.307,240.847 76.250,249.160 76.250 L 259.792 76.250 259.792 79.479 M288.750 79.479 L 288.750 82.708 284.377 82.708 L 280.003 82.708 279.950 95.469 L 279.896 108.229 276.720 108.287 L 273.545 108.344 273.491 95.578 L 273.438 82.813 269.010 82.756 L 264.583 82.700 264.583 79.475 L 264.583 76.250 276.667 76.250 L 288.750 76.250 288.750 79.479 M151.354 82.793 C 144.065 85.107,141.882 94.186,147.378 99.327 C 155.472 106.899,167.812 97.575,162.797 87.677 C 160.799 83.735,155.504 81.474,151.354 82.793 M117.708 85.833 L 117.708 88.958 120.889 88.958 C 125.262 88.958,126.785 87.968,126.352 85.406 C 125.996 83.294,124.745 82.711,120.573 82.709 L 117.708 82.708 117.708 85.833 M142.396 116.888 C 144.579 117.563,148.542 119.731,148.542 120.250 C 148.542 120.443,145.769 125.076,145.406 125.489 C 145.321 125.586,144.729 125.331,144.091 124.923 C 139.379 121.909,134.792 122.166,134.792 125.443 C 134.792 127.248,135.501 127.823,139.237 129.047 C 146.115 131.300,149.356 134.922,149.130 140.102 C 148.708 149.753,136.364 152.434,127.333 144.837 C 125.958 143.681,125.914 143.809,128.550 141.298 L 130.747 139.205 131.874 140.141 C 136.375 143.879,142.708 143.509,142.708 139.508 C 142.708 137.922,139.776 135.778,136.563 135.015 C 125.964 132.498,125.406 119.202,135.788 116.559 C 137.410 116.146,140.494 116.300,142.396 116.888 M239.896 116.874 C 242.174 117.593,245.417 119.325,245.417 119.822 C 245.417 119.911,244.523 121.011,243.430 122.269 L 241.443 124.554 240.149 123.949 C 234.624 121.368,227.839 124.393,226.363 130.096 C 224.154 138.631,232.858 145.541,240.546 141.356 L 241.822 140.662 243.828 142.972 C 246.191 145.693,246.116 145.397,244.688 146.344 C 230.582 155.708,213.108 140.656,220.515 125.521 C 224.007 118.385,232.573 114.564,239.896 116.874 M178.166 132.500 C 182.257 141.151,185.610 148.349,185.615 148.495 C 185.623 148.702,184.857 148.748,182.135 148.703 L 178.646 148.646 177.203 145.677 L 175.760 142.708 169.286 142.712 L 162.813 142.715 161.269 145.733 L 159.725 148.750 156.229 148.750 C 154.306 148.750,152.695 148.680,152.649 148.594 C 152.603 148.508,154.362 144.922,156.558 140.625 C 158.754 136.328,162.404 129.175,164.669 124.729 L 168.786 116.645 169.756 116.708 L 170.726 116.771 178.166 132.500 M195.668 127.448 C 195.727 137.931,195.741 138.256,196.171 139.185 C 198.279 143.742,204.738 143.771,206.871 139.233 C 207.296 138.329,207.310 137.991,207.352 127.537 L 207.396 116.771 210.625 116.771 L 213.854 116.771 213.908 127.348 C 213.968 139.046,213.914 139.707,212.697 142.178 C 208.138 151.439,194.840 151.413,190.394 142.135 C 189.229 139.703,189.174 139.045,189.170 127.344 L 189.167 116.667 192.387 116.667 L 195.607 116.667 195.668 127.448 M272.708 119.896 L 272.708 123.125 265.313 123.125 L 257.917 123.125 257.917 126.042 L 257.917 128.958 264.063 128.958 L 270.208 128.958 270.208 132.188 L 270.208 135.417 264.063 135.417 L 257.917 135.417 257.917 138.750 L 257.917 142.083 265.208 142.083 L 272.500 142.083 272.500 145.417 L 272.500 148.750 261.979 148.750 L 251.458 148.750 251.458 132.708 L 251.458 116.667 262.083 116.667 L 272.708 116.667 272.708 119.896 M167.848 132.841 C 166.957 134.628,166.267 136.128,166.314 136.175 C 166.361 136.222,167.819 136.235,169.552 136.203 L 172.705 136.146 171.237 133.021 C 170.430 131.302,169.701 129.828,169.619 129.744 C 169.536 129.661,168.739 131.055,167.848 132.841 M199.031 173.912 C 198.216 175.828,197.215 178.146,196.807 179.063 C 196.176 180.478,195.509 182.578,194.591 186.042 C 194.484 186.443,194.159 187.661,193.868 188.750 C 193.060 191.772,193.069 192.126,193.958 192.317 C 197.807 193.146,207.270 192.925,207.626 191.997 C 207.678 191.863,207.484 190.960,207.195 189.991 C 206.906 189.022,206.299 186.809,205.846 185.072 C 204.589 180.259,201.435 171.468,200.645 170.579 C 200.572 170.496,199.846 171.996,199.031 173.912 M203.333 180.417 C 203.333 180.531,203.000 180.625,202.592 180.625 C 202.151 180.625,201.903 180.541,201.979 180.417 C 202.050 180.302,202.384 180.208,202.721 180.208 C 203.058 180.208,203.333 180.302,203.333 180.417 M203.542 181.454 C 203.542 181.736,202.581 181.953,202.136 181.771 C 201.800 181.634,201.805 181.608,202.188 181.451 C 202.774 181.209,203.542 181.211,203.542 181.454 M203.958 182.482 C 203.958 182.735,202.376 182.994,202.053 182.794 C 201.872 182.682,201.915 182.591,202.201 182.479 C 202.775 182.254,203.958 182.256,203.958 182.482 M204.375 183.726 C 204.375 183.981,203.611 184.160,202.510 184.164 C 201.940 184.166,201.659 184.093,201.781 183.974 C 202.128 183.638,204.375 183.422,204.375 183.726 M204.441 184.809 C 204.125 185.125,201.667 185.332,201.667 185.043 C 201.667 184.797,202.319 184.662,203.740 184.615 C 204.406 184.592,204.603 184.647,204.441 184.809 M204.882 185.603 C 205.044 185.865,204.574 186.010,203.046 186.166 C 202.202 186.253,201.674 186.223,201.588 186.083 C 201.502 185.944,201.894 185.815,202.653 185.732 C 203.314 185.659,203.995 185.569,204.167 185.532 C 204.730 185.411,204.766 185.415,204.882 185.603 M196.667 186.042 C 196.919 186.205,196.889 186.244,196.510 186.247 C 196.253 186.249,196.042 186.156,196.042 186.042 C 196.042 185.781,196.263 185.781,196.667 186.042 M205.046 186.912 C 204.907 187.051,204.010 187.186,202.973 187.223 C 201.070 187.292,200.944 187.201,202.512 186.894 C 203.976 186.607,205.342 186.617,205.046 186.912 M196.458 187.083 C 196.712 187.248,196.685 187.286,196.314 187.288 C 196.063 187.290,195.800 187.198,195.729 187.083 C 195.565 186.818,196.048 186.818,196.458 187.083 M205.104 187.754 C 204.681 188.000,201.048 188.279,201.264 188.050 C 201.431 187.871,203.474 187.552,204.583 187.531 C 205.391 187.515,205.463 187.546,205.104 187.754 M196.458 188.125 C 196.458 188.370,196.298 188.370,195.729 188.125 C 195.360 187.966,195.378 187.944,195.885 187.931 C 196.201 187.923,196.458 188.010,196.458 188.125 M205.719 188.738 C 205.476 188.979,203.133 189.371,201.927 189.373 C 200.479 189.376,200.920 189.038,202.656 188.814 C 204.896 188.526,205.960 188.499,205.719 188.738 M196.146 188.958 C 196.495 189.108,196.453 189.140,195.885 189.152 C 195.513 189.160,195.208 189.073,195.208 188.958 C 195.208 188.711,195.570 188.711,196.146 188.958 M206.250 189.484 C 206.250 189.891,202.063 190.531,201.099 190.272 C 200.654 190.153,201.074 190.038,202.917 189.773 C 205.644 189.382,206.250 189.330,206.250 189.484 M196.042 190.000 C 196.042 190.263,195.616 190.263,195.208 190.000 C 194.965 189.843,195.022 189.797,195.469 189.795 C 195.784 189.793,196.042 189.885,196.042 190.000 M206.344 190.597 C 205.751 191.136,200.187 191.789,200.500 191.283 C 200.582 191.150,200.996 191.036,201.419 191.029 C 201.841 191.021,202.891 190.893,203.750 190.742 C 205.664 190.408,206.610 190.355,206.344 190.597 M195.833 190.833 C 196.092 191.001,196.074 191.035,195.729 191.035 C 195.500 191.035,195.172 190.944,195.000 190.833 C 194.741 190.666,194.759 190.631,195.104 190.631 C 195.333 190.631,195.661 190.722,195.833 190.833 M195.533 191.764 C 195.966 192.092,195.806 192.154,195.052 191.952 C 194.794 191.883,194.583 191.744,194.583 191.642 C 194.583 191.360,195.083 191.424,195.533 191.764 M206.115 191.780 C 205.181 192.189,203.057 192.500,201.354 192.477 C 200.185 192.461,200.020 192.423,200.521 192.282 C 201.253 192.076,205.238 191.526,206.146 191.506 L 206.771 191.492 206.115 191.780 M206.771 193.473 C 206.026 193.724,206.010 193.744,206.615 193.653 C 207.594 193.507,207.447 193.864,206.406 194.157 C 205.201 194.497,200.039 194.681,199.375 194.407 C 198.968 194.240,199.379 194.183,201.250 194.149 L 203.646 194.104 200.833 193.922 C 199.286 193.822,197.059 193.792,195.884 193.856 C 194.584 193.926,193.590 193.888,193.346 193.757 C 192.843 193.488,192.875 193.380,192.207 197.604 C 191.629 201.264,191.191 205.219,191.347 205.375 C 191.563 205.591,194.831 206.054,197.501 206.247 C 201.371 206.528,204.513 206.227,208.675 205.179 L 209.636 204.937 209.494 203.146 C 209.151 198.801,208.256 193.782,207.740 193.314 C 207.665 193.247,207.229 193.318,206.771 193.473 M195.411 194.575 C 195.579 194.682,195.656 194.830,195.582 194.904 C 195.405 195.081,194.207 194.816,194.053 194.567 C 193.898 194.317,195.012 194.323,195.411 194.575 M207.083 194.788 C 206.911 194.897,206.082 195.097,205.239 195.233 C 204.141 195.411,203.802 195.533,204.041 195.667 C 204.242 195.779,204.684 195.767,205.156 195.636 C 205.586 195.517,206.308 195.418,206.760 195.418 C 207.996 195.416,207.395 195.831,205.945 195.981 C 205.130 196.065,204.849 196.161,205.064 196.282 C 205.247 196.384,205.828 196.356,206.440 196.215 C 207.022 196.080,207.561 196.033,207.638 196.110 C 207.867 196.339,207.584 196.487,206.684 196.607 C 205.422 196.777,205.650 197.119,206.927 196.973 C 207.944 196.857,207.992 196.871,207.616 197.174 C 207.394 197.353,206.990 197.500,206.719 197.500 C 206.447 197.500,206.280 197.588,206.346 197.695 C 206.412 197.802,206.792 197.836,207.191 197.772 C 208.128 197.620,208.166 198.041,207.240 198.309 L 206.563 198.504 207.240 198.523 C 208.067 198.546,208.119 198.850,207.344 199.133 L 206.771 199.342 207.448 199.359 C 208.276 199.379,208.321 199.634,207.552 199.938 L 206.979 200.164 207.669 200.186 C 208.484 200.212,208.382 200.535,207.498 200.730 C 206.620 200.922,206.721 201.184,207.633 201.078 C 208.610 200.964,208.403 201.387,207.389 201.578 C 206.312 201.780,206.517 202.048,207.656 201.928 C 208.436 201.846,208.594 201.879,208.404 202.081 C 208.270 202.223,207.733 202.387,207.209 202.446 C 206.685 202.505,206.138 202.698,205.993 202.875 C 205.764 203.155,205.798 203.178,206.250 203.054 C 207.374 202.745,208.653 202.647,208.430 202.887 C 208.197 203.137,206.039 203.608,205.875 203.444 C 205.820 203.389,205.421 203.625,204.987 203.968 C 203.143 205.429,200.931 205.908,198.795 205.308 C 197.230 204.869,197.233 204.902,198.594 203.125 C 200.037 201.240,202.573 197.295,202.432 197.154 C 202.308 197.031,201.177 198.596,199.555 201.134 C 198.273 203.140,197.278 204.366,196.927 204.371 C 196.627 204.376,196.577 204.038,196.853 203.868 C 197.043 203.750,199.674 199.863,201.081 197.620 C 201.793 196.484,201.827 196.364,201.500 196.116 C 200.697 195.505,200.276 195.762,199.020 197.628 C 196.140 201.908,195.212 203.012,194.909 202.521 C 194.845 202.418,194.324 202.221,193.751 202.083 C 193.177 201.946,192.708 201.749,192.708 201.646 C 192.708 201.408,193.057 201.408,193.894 201.648 C 194.513 201.826,194.546 201.809,194.393 201.396 C 194.298 201.141,193.950 200.881,193.573 200.783 C 192.720 200.562,192.692 200.111,193.542 200.281 C 194.010 200.375,194.167 200.329,194.167 200.099 C 194.167 199.930,194.044 199.792,193.894 199.792 C 193.744 199.792,193.439 199.644,193.217 199.464 C 192.836 199.156,192.857 199.143,193.594 199.243 C 194.510 199.367,194.730 198.847,193.854 198.627 C 193.107 198.440,193.211 198.086,193.990 198.164 C 194.380 198.203,194.683 198.123,194.736 197.969 C 194.788 197.820,194.657 197.708,194.432 197.708 C 194.215 197.708,193.856 197.571,193.634 197.402 C 193.159 197.043,193.882 196.958,194.688 197.278 C 195.006 197.405,195.294 197.274,195.912 196.719 C 197.549 195.251,198.639 194.937,202.227 194.898 C 203.980 194.879,205.477 194.801,205.554 194.723 C 205.631 194.646,206.077 194.585,206.545 194.587 C 207.164 194.589,207.311 194.644,207.083 194.788 M195.296 195.629 C 195.429 195.763,195.311 195.833,194.955 195.833 C 194.255 195.833,193.750 195.638,193.750 195.368 C 193.750 195.116,194.992 195.325,195.296 195.629 M194.874 196.348 C 195.243 196.430,195.402 196.556,195.284 196.674 C 195.041 196.917,193.484 196.512,193.647 196.248 C 193.711 196.144,193.878 196.095,194.017 196.138 C 194.157 196.180,194.542 196.275,194.874 196.348 M194.323 202.840 C 194.581 202.909,194.792 203.048,194.792 203.149 C 194.792 203.421,193.944 203.356,193.229 203.028 L 192.604 202.742 193.229 202.728 C 193.573 202.720,194.065 202.771,194.323 202.840 M193.948 203.767 C 195.053 204.004,195.373 204.375,194.472 204.375 C 193.923 204.375,192.500 203.857,192.500 203.656 C 192.500 203.492,192.759 203.512,193.948 203.767 M208.125 203.896 C 207.414 204.209,204.571 204.557,204.805 204.302 C 205.001 204.090,207.346 203.576,208.125 203.576 L 208.854 203.576 208.125 203.896 M208.635 204.555 C 208.187 204.962,203.661 205.682,204.024 205.288 C 204.216 205.079,207.288 204.425,208.219 204.395 C 208.577 204.383,208.751 204.450,208.635 204.555 M194.155 205.017 C 195.543 205.315,195.832 205.739,194.524 205.559 C 193.345 205.398,191.937 204.835,192.646 204.809 C 192.898 204.799,193.577 204.893,194.155 205.017 M207.978 206.359 C 204.411 207.350,197.727 207.542,193.023 206.789 C 191.993 206.624,191.135 206.505,191.116 206.526 C 191.077 206.566,190.416 223.506,190.416 224.427 L 190.417 225.000 198.073 224.998 C 204.800 224.997,207.083 224.886,208.906 224.473 C 209.453 224.349,209.552 224.715,209.010 224.856 C 208.810 224.909,208.987 224.963,209.404 224.976 L 210.163 225.000 210.302 222.760 C 210.379 221.529,210.343 217.474,210.223 213.750 C 210.103 210.026,210.003 206.721,210.002 206.406 C 210.001 206.091,209.930 205.845,209.844 205.859 C 209.758 205.873,208.918 206.098,207.978 206.359 M208.542 207.279 C 207.316 207.997,199.550 208.592,198.971 208.012 C 198.844 207.885,199.765 207.790,201.521 207.751 C 203.034 207.717,205.021 207.566,205.938 207.415 C 208.013 207.074,208.978 207.024,208.542 207.279 M195.104 207.960 C 195.244 208.101,194.883 208.141,194.007 208.082 C 193.289 208.034,192.586 207.873,192.445 207.726 C 192.236 207.508,192.441 207.485,193.542 207.604 C 194.286 207.685,194.990 207.845,195.104 207.960 M208.427 208.109 C 207.685 208.830,200.479 209.363,199.167 208.794 C 198.757 208.616,199.269 208.562,201.563 208.542 C 203.167 208.527,205.182 208.393,206.042 208.242 C 208.020 207.896,208.684 207.859,208.427 208.109 M194.975 208.765 C 195.220 208.920,194.955 208.958,194.007 208.903 C 193.289 208.861,192.586 208.704,192.445 208.554 C 192.131 208.220,194.416 208.411,194.975 208.765 M208.750 209.154 C 207.493 209.890,200.310 210.427,199.024 209.881 C 198.708 209.747,199.476 209.671,201.524 209.633 C 203.149 209.604,205.229 209.453,206.146 209.298 C 208.202 208.950,209.191 208.896,208.750 209.154 M194.878 209.727 C 195.656 209.950,194.727 210.170,193.688 210.009 C 192.176 209.775,191.856 209.292,193.333 209.473 C 193.964 209.550,194.659 209.665,194.878 209.727 M208.750 210.192 C 208.750 210.891,201.044 211.437,199.271 210.863 C 198.804 210.712,199.462 210.653,201.875 210.629 C 204.500 210.604,206.419 210.432,208.594 210.029 C 208.680 210.013,208.750 210.086,208.750 210.192 M194.010 210.523 C 195.070 210.660,195.378 211.042,194.427 211.041 C 193.652 211.039,192.292 210.648,192.292 210.426 C 192.292 210.328,192.456 210.281,192.656 210.321 C 192.857 210.362,193.466 210.452,194.010 210.523 M208.949 211.243 C 208.217 211.671,203.842 212.133,201.444 212.036 C 197.676 211.882,197.859 211.567,201.735 211.532 C 203.588 211.515,205.667 211.409,206.354 211.297 C 208.034 211.022,209.373 210.994,208.949 211.243 M194.531 211.590 C 194.789 211.659,195.000 211.810,195.000 211.926 C 195.000 212.170,193.021 211.959,192.511 211.660 C 192.134 211.440,193.760 211.383,194.531 211.590 M208.936 212.083 C 207.815 212.739,201.593 213.158,199.479 212.720 C 198.851 212.590,199.313 212.538,201.354 212.508 C 202.844 212.486,204.906 212.348,205.938 212.201 C 208.348 211.858,209.391 211.817,208.936 212.083 M195.085 212.710 C 195.414 213.039,193.529 212.943,192.813 212.593 C 192.211 212.300,192.239 212.292,193.533 212.395 C 194.272 212.454,194.971 212.596,195.085 212.710 M209.052 213.107 C 208.588 213.554,204.540 214.013,201.944 213.913 C 198.077 213.764,198.401 213.443,202.459 213.403 C 204.372 213.384,206.406 213.278,206.979 213.167 C 208.385 212.895,209.300 212.869,209.052 213.107 M194.219 213.442 C 194.763 213.511,195.208 213.668,195.208 213.791 C 195.208 214.016,193.327 213.895,192.622 213.624 C 192.128 213.434,192.224 213.173,192.760 213.249 C 193.018 213.286,193.674 213.372,194.219 213.442 M209.052 214.149 C 208.588 214.596,204.540 215.055,201.944 214.955 C 198.081 214.806,198.401 214.486,202.460 214.440 C 204.373 214.418,206.406 214.312,206.979 214.204 C 208.397 213.936,209.298 213.912,209.052 214.149 M194.427 214.509 C 195.668 214.714,195.372 215.075,194.073 214.941 C 192.648 214.794,191.810 214.390,192.917 214.384 C 193.318 214.381,193.997 214.438,194.427 214.509 M209.167 214.983 C 209.167 215.608,203.035 216.256,200.294 215.922 C 198.924 215.754,199.015 215.738,202.188 215.591 C 204.021 215.505,206.271 215.302,207.188 215.139 C 208.104 214.976,208.924 214.831,209.010 214.817 C 209.096 214.803,209.167 214.878,209.167 214.983 M194.242 215.549 C 194.773 215.622,195.208 215.776,195.208 215.891 C 195.208 216.166,192.737 215.945,192.434 215.643 C 192.168 215.376,192.758 215.346,194.242 215.549 M209.190 216.267 C 208.075 216.713,205.018 217.082,202.629 217.059 C 198.524 217.019,198.510 216.761,202.604 216.605 C 204.667 216.527,206.729 216.379,207.188 216.276 C 208.399 216.005,209.862 215.998,209.190 216.267 M195.104 216.912 C 195.248 217.061,194.908 217.101,194.007 217.040 C 193.289 216.992,192.586 216.830,192.445 216.680 C 192.234 216.457,192.431 216.434,193.542 216.552 C 194.286 216.631,194.990 216.793,195.104 216.912 M209.375 217.277 C 209.375 217.991,200.399 218.655,199.340 218.021 C 199.098 217.876,200.046 217.804,202.465 217.786 C 204.676 217.769,206.467 217.646,207.396 217.446 C 209.227 217.052,209.375 217.039,209.375 217.277 M195.313 218.168 C 195.456 218.316,195.074 218.350,194.095 218.277 C 193.311 218.218,192.561 218.056,192.429 217.916 C 192.239 217.716,192.502 217.693,193.646 217.807 C 194.448 217.888,195.198 218.050,195.313 218.168 M209.167 218.506 C 209.167 219.069,203.662 219.673,201.143 219.386 C 198.462 219.082,198.726 218.960,202.101 218.945 C 203.753 218.937,205.854 218.810,206.771 218.661 C 208.916 218.314,209.167 218.298,209.167 218.506 M194.954 219.084 C 195.660 219.191,195.695 219.583,194.998 219.583 C 194.250 219.583,192.500 219.132,192.500 218.939 C 192.500 218.762,193.046 218.794,194.954 219.084 M209.167 219.553 C 209.167 219.983,205.714 220.495,203.021 220.466 C 198.833 220.419,198.078 220.051,202.083 220.008 C 203.859 219.989,206.016 219.851,206.875 219.701 C 208.859 219.354,209.167 219.334,209.167 219.553 M195.302 220.219 C 195.624 220.541,193.511 220.434,192.813 220.094 C 192.218 219.804,192.259 219.795,193.646 219.905 C 194.448 219.969,195.193 220.111,195.302 220.219 M209.167 220.600 C 209.167 221.189,203.745 221.662,200.705 221.337 C 199.159 221.172,199.302 221.152,203.125 221.001 C 205.359 220.913,207.516 220.755,207.917 220.650 C 208.898 220.393,209.167 220.382,209.167 220.600 M194.766 221.172 C 195.124 221.243,195.417 221.384,195.417 221.484 C 195.417 221.752,193.983 221.677,193.021 221.360 L 192.188 221.085 193.151 221.064 C 193.681 221.051,194.408 221.100,194.766 221.172 M209.107 221.588 C 208.523 222.172,202.560 222.696,200.417 222.351 C 199.397 222.187,199.638 222.150,202.604 222.012 C 204.438 221.928,206.359 221.780,206.875 221.684 C 208.038 221.469,209.280 221.415,209.107 221.588 M194.531 222.010 C 195.133 222.082,195.625 222.235,195.625 222.349 C 195.625 222.628,192.951 222.409,192.647 222.106 C 192.376 221.834,192.861 221.809,194.531 222.010 M209.096 222.640 C 208.551 223.185,202.805 223.709,200.833 223.393 C 199.786 223.225,199.947 223.195,202.708 223.053 C 204.370 222.968,206.479 222.782,207.396 222.639 C 209.068 222.380,209.356 222.380,209.096 222.640 M194.971 223.046 C 195.327 223.117,195.567 223.258,195.505 223.359 C 195.344 223.619,194.207 223.557,193.229 223.235 L 192.396 222.960 193.359 222.939 C 193.889 222.926,194.614 222.975,194.971 223.046 M209.167 223.527 C 209.167 223.938,205.029 224.588,202.604 224.557 C 199.324 224.516,199.266 224.261,202.500 224.099 C 204.161 224.016,206.224 223.822,207.083 223.667 C 209.110 223.302,209.167 223.299,209.167 223.527 M195.313 224.159 C 195.679 224.310,195.687 224.347,195.385 224.471 C 195.053 224.607,192.750 224.277,192.536 224.063 C 192.361 223.889,194.865 223.975,195.313 224.159 " stroke="none" fill="#343434" fill-rule="evenodd"></path><path id="path2" d="M136.231 116.918 C 135.153 117.233,134.045 117.493,133.768 117.495 C 132.442 117.507,130.128 119.662,129.091 121.849 C 126.547 127.220,130.107 133.315,136.771 134.997 C 140.735 135.997,143.247 138.266,142.676 140.332 C 141.739 143.726,136.161 143.710,131.975 140.301 L 130.810 139.352 129.207 140.803 C 128.326 141.601,127.296 142.575,126.920 142.967 L 126.236 143.680 127.233 144.609 C 130.558 147.710,134.081 149.057,138.870 149.060 L 141.802 149.063 143.588 148.178 C 148.837 145.577,150.713 139.474,147.705 134.787 C 146.139 132.347,142.922 130.245,138.778 128.956 C 135.599 127.967,134.766 127.270,134.741 125.575 C 134.685 121.912,139.506 121.759,144.792 125.255 L 145.313 125.600 146.950 122.892 C 147.851 121.403,148.554 120.157,148.513 120.123 C 144.905 117.146,139.909 115.842,136.231 116.918 M232.438 116.581 C 220.303 118.774,214.807 133.181,222.402 142.888 C 227.785 149.768,237.917 151.190,244.957 146.054 L 245.851 145.402 243.936 143.215 C 241.585 140.530,241.966 140.708,240.369 141.541 C 232.528 145.628,223.614 137.976,226.452 129.595 C 228.268 124.231,234.422 121.458,239.630 123.656 C 241.495 124.443,241.399 124.482,243.496 122.083 C 245.787 119.461,245.751 119.867,243.802 118.697 C 240.290 116.590,236.398 115.865,232.438 116.581 M168.360 117.656 C 168.141 118.086,164.530 125.170,160.335 133.399 C 156.140 141.628,152.708 148.401,152.708 148.451 C 152.708 148.501,154.301 148.542,156.249 148.542 L 159.789 148.542 161.250 145.625 L 162.711 142.708 169.286 142.708 L 175.862 142.708 177.239 145.625 L 178.616 148.542 182.112 148.542 L 185.608 148.542 185.252 147.727 C 185.056 147.279,181.708 140.157,177.813 131.899 L 170.729 116.886 169.744 116.880 C 168.813 116.875,168.736 116.918,168.360 117.656 M189.221 127.865 C 189.309 139.900,189.292 139.719,190.619 142.414 C 194.996 151.307,208.348 151.179,212.591 142.204 C 213.857 139.525,213.797 140.300,213.770 126.927 L 213.750 116.875 210.632 116.875 L 207.514 116.875 207.455 127.656 L 207.396 138.438 206.831 139.508 C 204.932 143.109,200.255 143.824,197.382 140.951 C 195.589 139.158,195.625 139.437,195.625 127.359 L 195.625 116.875 192.383 116.875 L 189.140 116.875 189.221 127.865 M251.458 132.708 L 251.458 148.542 261.979 148.542 L 272.500 148.542 272.500 145.417 L 272.500 142.292 265.208 142.292 L 257.917 142.292 257.917 138.854 L 257.917 135.417 263.958 135.417 L 270.000 135.417 270.000 132.188 L 270.000 128.958 263.958 128.958 L 257.917 128.958 257.917 126.042 L 257.917 123.125 265.313 123.125 L 272.708 123.125 272.708 121.254 C 272.708 119.062,273.099 119.320,269.063 118.848 C 267.573 118.674,265.839 118.449,265.208 118.349 C 264.578 118.248,263.359 118.215,262.500 118.274 C 261.018 118.377,258.279 117.917,255.418 117.086 C 255.018 116.970,253.963 116.875,253.074 116.875 L 251.458 116.875 251.458 132.708 M171.239 132.847 C 172.047 134.585,172.708 136.061,172.708 136.128 C 172.708 136.195,171.209 136.250,169.376 136.250 L 166.043 136.250 167.756 132.817 C 168.698 130.930,169.536 129.453,169.619 129.536 C 169.701 129.619,170.430 131.109,171.239 132.847 " stroke="none" fill="#fa3535" fill-rule="evenodd"></path><path id="path3" d="M238.436 92.292 L 238.438 108.229 248.906 108.232 L 259.375 108.235 248.960 108.178 L 238.544 108.121 238.489 92.238 L 238.434 76.354 238.436 92.292 M153.597 82.441 C 153.913 82.489,154.382 82.488,154.638 82.438 C 154.895 82.389,154.635 82.350,154.063 82.351 C 153.490 82.353,153.280 82.393,153.597 82.441 M244.874 85.729 C 244.874 87.333,244.907 87.962,244.947 87.126 C 244.986 86.291,244.986 84.978,244.946 84.210 C 244.906 83.441,244.874 84.125,244.874 85.729 M137.557 92.292 C 137.557 92.807,137.597 93.018,137.647 92.760 C 137.697 92.503,137.697 92.081,137.647 91.823 C 137.597 91.565,137.557 91.776,137.557 92.292 M129.883 92.760 L 129.271 93.438 129.948 92.826 C 130.320 92.489,130.625 92.184,130.625 92.149 C 130.625 91.988,130.453 92.129,129.883 92.760 M215.930 94.844 L 214.896 95.938 215.990 94.904 C 216.591 94.335,217.083 93.843,217.083 93.810 C 217.083 93.654,216.890 93.827,215.930 94.844 M244.876 98.333 C 244.876 100.224,244.908 100.997,244.947 100.052 C 244.985 99.107,244.985 97.560,244.947 96.615 C 244.908 95.669,244.876 96.443,244.876 98.333 M141.875 103.399 C 141.875 103.434,142.180 103.739,142.552 104.076 L 143.229 104.688 142.617 104.010 C 142.047 103.379,141.875 103.238,141.875 103.399 M128.490 108.280 C 129.435 108.319,130.982 108.319,131.927 108.280 C 132.872 108.241,132.099 108.210,130.208 108.210 C 128.318 108.210,127.544 108.241,128.490 108.280 M275.052 108.280 C 275.940 108.319,277.393 108.319,278.281 108.280 C 279.169 108.241,278.443 108.209,276.667 108.209 C 274.891 108.209,274.164 108.241,275.052 108.280 M168.673 116.831 C 168.617 116.922,168.916 116.964,169.338 116.924 C 170.626 116.802,170.778 116.716,169.752 116.691 C 169.214 116.678,168.729 116.741,168.673 116.831 M190.791 116.822 C 191.742 116.861,193.242 116.860,194.124 116.821 C 195.007 116.782,194.229 116.751,192.396 116.751 C 190.563 116.751,189.840 116.783,190.791 116.822 M207.389 116.922 C 207.333 117.068,207.313 121.641,207.344 127.083 L 207.400 136.979 207.450 126.927 L 207.500 116.875 210.623 116.875 L 213.746 116.875 213.803 126.823 L 213.860 136.771 213.857 126.771 L 213.854 116.771 210.673 116.713 C 208.242 116.669,207.467 116.719,207.389 116.922 M252.350 116.820 C 252.898 116.863,253.742 116.863,254.225 116.819 C 254.709 116.775,254.260 116.740,253.229 116.741 C 252.198 116.741,251.802 116.777,252.350 116.820 M223.542 121.146 C 223.036 121.661,222.668 122.083,222.726 122.083 C 222.783 122.083,223.244 121.661,223.750 121.146 C 224.256 120.630,224.623 120.208,224.566 120.208 C 224.509 120.208,224.048 120.630,223.542 121.146 M228.633 125.885 L 228.021 126.563 228.698 125.951 C 229.329 125.380,229.471 125.208,229.310 125.208 C 229.274 125.208,228.969 125.513,228.633 125.885 M270.084 132.188 C 270.085 134.021,270.116 134.743,270.155 133.792 C 270.194 132.841,270.194 131.341,270.155 130.459 C 270.116 129.576,270.084 130.354,270.084 132.188 M130.208 131.315 C 130.208 131.351,130.513 131.656,130.885 131.992 L 131.563 132.604 130.951 131.927 C 130.380 131.296,130.208 131.154,130.208 131.315 M218.821 132.813 C 218.822 133.729,218.859 134.078,218.903 133.588 C 218.947 133.098,218.946 132.348,218.901 131.922 C 218.857 131.495,218.821 131.896,218.821 132.813 M141.042 136.940 C 141.042 136.976,141.346 137.281,141.719 137.617 L 142.396 138.229 141.784 137.552 C 141.214 136.921,141.042 136.779,141.042 136.940 M129.886 140.052 L 129.063 140.938 129.948 140.114 C 130.435 139.661,130.833 139.263,130.833 139.229 C 130.833 139.071,130.652 139.229,129.886 140.052 M261.510 142.239 C 263.544 142.273,266.872 142.273,268.906 142.239 C 270.940 142.205,269.276 142.177,265.208 142.177 C 261.141 142.177,259.477 142.205,261.510 142.239 M138.490 142.855 C 138.747 142.905,139.169 142.905,139.427 142.855 C 139.685 142.806,139.474 142.765,138.958 142.765 C 138.443 142.765,138.232 142.806,138.490 142.855 M126.250 143.815 C 126.250 143.851,126.555 144.156,126.927 144.492 L 127.604 145.104 126.992 144.427 C 126.422 143.796,126.250 143.654,126.250 143.815 M192.708 145.521 C 193.097 145.922,193.462 146.250,193.519 146.250 C 193.577 146.250,193.305 145.922,192.917 145.521 C 192.528 145.120,192.163 144.792,192.106 144.792 C 192.048 144.792,192.320 145.120,192.708 145.521 M210.197 145.573 L 209.479 146.354 210.260 145.636 C 210.988 144.968,211.137 144.792,210.978 144.792 C 210.944 144.792,210.592 145.143,210.197 145.573 M152.682 148.599 C 152.771 148.688,154.430 148.734,156.370 148.703 L 159.896 148.645 156.208 148.541 C 154.179 148.484,152.593 148.510,152.682 148.599 M180.479 148.697 C 181.487 148.735,183.081 148.735,184.021 148.696 C 184.960 148.658,184.135 148.627,182.188 148.627 C 180.240 148.627,179.471 148.659,180.479 148.697 M256.733 148.698 C 259.692 148.730,264.473 148.730,267.358 148.698 C 270.244 148.665,267.823 148.638,261.979 148.638 C 256.135 148.638,253.775 148.665,256.733 148.698 M202.053 182.761 C 202.158 182.866,202.465 182.917,202.736 182.874 C 203.153 182.809,203.124 182.779,202.546 182.684 C 202.132 182.615,201.937 182.646,202.053 182.761 M201.649 186.107 C 201.743 186.201,202.184 186.247,202.629 186.208 L 203.438 186.137 202.458 186.037 C 201.919 185.981,201.555 186.013,201.649 186.107 M201.510 190.352 C 201.711 190.404,202.039 190.404,202.240 190.352 C 202.440 190.300,202.276 190.257,201.875 190.257 C 201.474 190.257,201.310 190.300,201.510 190.352 M199.740 193.897 C 199.997 193.947,200.419 193.947,200.677 193.897 C 200.935 193.847,200.724 193.807,200.208 193.807 C 199.693 193.807,199.482 193.847,199.740 193.897 M203.646 193.958 C 203.482 194.224,203.965 194.224,204.375 193.958 C 204.629 193.794,204.602 193.756,204.231 193.753 C 203.980 193.751,203.717 193.844,203.646 193.958 M200.156 194.939 C 200.414 194.988,200.836 194.988,201.094 194.939 C 201.352 194.889,201.141 194.848,200.625 194.848 C 200.109 194.848,199.898 194.889,200.156 194.939 M190.465 199.375 C 190.465 199.776,190.508 199.940,190.560 199.740 C 190.613 199.539,190.613 199.211,190.560 199.010 C 190.508 198.810,190.465 198.974,190.465 199.375 M190.261 201.563 C 190.263 202.021,190.306 202.184,190.356 201.925 C 190.406 201.666,190.404 201.291,190.351 201.091 C 190.299 200.892,190.259 201.104,190.261 201.563 M209.423 202.292 C 209.423 202.693,209.466 202.857,209.519 202.656 C 209.571 202.456,209.571 202.128,209.519 201.927 C 209.466 201.727,209.423 201.891,209.423 202.292 M190.060 203.854 C 190.061 204.427,190.102 204.637,190.149 204.320 C 190.197 204.003,190.196 203.535,190.147 203.278 C 190.097 203.022,190.058 203.281,190.060 203.854 M204.041 205.243 C 203.982 205.339,204.267 205.417,204.675 205.417 C 205.083 205.417,205.417 205.380,205.417 205.336 C 205.417 205.165,204.143 205.079,204.041 205.243 M189.851 206.354 C 189.853 206.927,189.893 207.137,189.941 206.820 C 189.989 206.503,189.988 206.035,189.938 205.778 C 189.889 205.522,189.850 205.781,189.851 206.354 M210.074 207.813 C 210.073 208.844,210.109 209.292,210.152 208.808 C 210.196 208.325,210.196 207.481,210.153 206.933 C 210.110 206.386,210.075 206.781,210.074 207.813 M198.177 206.394 C 198.378 206.446,198.706 206.446,198.906 206.394 C 199.107 206.341,198.943 206.298,198.542 206.298 C 198.141 206.298,197.977 206.341,198.177 206.394 M201.510 206.394 C 201.711 206.446,202.039 206.446,202.240 206.394 C 202.440 206.341,202.276 206.298,201.875 206.298 C 201.474 206.298,201.310 206.341,201.510 206.394 M198.842 207.897 C 198.906 208.001,199.146 208.037,199.375 207.977 C 199.948 207.827,199.897 207.708,199.259 207.708 C 198.965 207.708,198.778 207.793,198.842 207.897 M201.927 207.852 C 202.128 207.904,202.456 207.904,202.656 207.852 C 202.857 207.800,202.693 207.757,202.292 207.757 C 201.891 207.757,201.727 207.800,201.927 207.852 M189.640 208.750 C 189.640 209.266,189.681 209.477,189.730 209.219 C 189.780 208.961,189.780 208.539,189.730 208.281 C 189.681 208.023,189.640 208.234,189.640 208.750 M201.406 208.276 C 201.779 208.322,202.388 208.322,202.760 208.276 C 203.133 208.229,202.828 208.192,202.083 208.192 C 201.339 208.192,201.034 208.229,201.406 208.276 M199.511 208.698 C 199.457 208.784,199.991 208.828,200.696 208.796 C 202.853 208.698,203.109 208.606,201.314 208.573 C 200.376 208.556,199.564 208.612,199.511 208.698 M190.886 209.479 C 190.888 209.938,190.931 210.100,190.981 209.841 C 191.031 209.582,191.029 209.207,190.976 209.008 C 190.924 208.809,190.884 209.021,190.886 209.479 M201.615 209.109 C 201.987 209.155,202.596 209.155,202.969 209.109 C 203.341 209.063,203.036 209.025,202.292 209.025 C 201.547 209.025,201.242 209.063,201.615 209.109 M189.428 210.938 C 189.430 211.396,189.473 211.559,189.522 211.300 C 189.572 211.041,189.570 210.666,189.518 210.466 C 189.466 210.267,189.425 210.479,189.428 210.938 M202.555 211.191 C 202.872 211.239,203.340 211.238,203.597 211.188 C 203.853 211.139,203.594 211.100,203.021 211.101 C 202.448 211.103,202.238 211.143,202.555 211.191 M210.291 214.479 C 210.291 216.083,210.324 216.712,210.363 215.876 C 210.403 215.041,210.403 213.728,210.363 212.960 C 210.323 212.191,210.290 212.875,210.291 214.479 M211.336 216.250 C 211.336 218.255,211.367 219.076,211.405 218.073 C 211.443 217.070,211.443 215.430,211.405 214.427 C 211.367 213.424,211.336 214.245,211.336 216.250 M189.226 213.854 C 189.228 214.427,189.268 214.637,189.316 214.320 C 189.364 214.003,189.363 213.535,189.313 213.278 C 189.264 213.022,189.225 213.281,189.226 213.854 M190.678 214.896 C 190.680 215.354,190.723 215.517,190.772 215.258 C 190.822 214.999,190.820 214.624,190.768 214.425 C 190.716 214.225,190.675 214.438,190.678 214.896 M189.237 218.333 C 189.237 219.193,189.273 219.544,189.318 219.115 C 189.363 218.685,189.363 217.982,189.318 217.552 C 189.273 217.122,189.237 217.474,189.237 218.333 M201.510 219.108 C 201.826 219.155,202.341 219.155,202.656 219.108 C 202.971 219.060,202.714 219.021,202.083 219.021 C 201.453 219.021,201.195 219.060,201.510 219.108 M210.485 220.313 C 210.486 221.115,210.524 221.417,210.569 220.985 C 210.614 220.553,210.613 219.896,210.567 219.527 C 210.521 219.157,210.484 219.510,210.485 220.313 M194.792 219.375 L 194.063 219.528 194.727 219.556 C 195.093 219.571,195.450 219.490,195.521 219.375 C 195.592 219.260,195.621 219.179,195.585 219.194 C 195.550 219.209,195.193 219.291,194.792 219.375 M202.555 219.524 C 202.872 219.572,203.340 219.571,203.597 219.522 C 203.853 219.472,203.594 219.433,203.021 219.435 C 202.448 219.436,202.238 219.477,202.555 219.524 M190.473 220.625 C 190.473 221.141,190.514 221.352,190.564 221.094 C 190.613 220.836,190.613 220.414,190.564 220.156 C 190.514 219.898,190.473 220.109,190.473 220.625 M201.927 220.144 C 202.128 220.196,202.456 220.196,202.656 220.144 C 202.857 220.091,202.693 220.048,202.292 220.048 C 201.891 220.048,201.727 220.091,201.927 220.144 M202.660 220.568 C 203.034 220.614,203.597 220.613,203.910 220.566 C 204.223 220.518,203.917 220.480,203.229 220.481 C 202.542 220.482,202.286 220.521,202.660 220.568 M210.273 223.854 C 210.274 224.542,210.313 224.798,210.359 224.423 C 210.406 224.049,210.405 223.486,210.357 223.173 C 210.310 222.860,210.272 223.167,210.273 223.854 M194.896 224.375 L 194.271 224.534 194.831 224.559 C 195.140 224.572,195.450 224.490,195.521 224.375 C 195.592 224.260,195.621 224.178,195.585 224.191 C 195.550 224.205,195.240 224.288,194.896 224.375 " stroke="none" fill="#7b7171" fill-rule="evenodd"></path><path id="path4" d="M111.346 76.510 C 111.291 76.654,111.271 83.849,111.302 92.500 L 111.357 108.229 111.408 92.347 L 111.458 76.464 117.760 76.406 L 124.063 76.348 117.754 76.299 C 112.862 76.261,111.423 76.308,111.346 76.510 M214.673 81.458 C 214.673 84.266,214.703 85.414,214.739 84.010 C 214.775 82.607,214.775 80.310,214.739 78.906 C 214.703 77.503,214.673 78.651,214.673 81.458 M264.667 79.583 C 264.667 81.359,264.699 82.086,264.738 81.198 C 264.777 80.310,264.777 78.857,264.738 77.969 C 264.699 77.081,264.667 77.807,264.667 79.583 M288.626 79.583 C 288.626 81.359,288.657 82.086,288.697 81.198 C 288.736 80.310,288.736 78.857,288.697 77.969 C 288.657 77.081,288.626 77.807,288.626 79.583 M142.383 80.677 L 141.771 81.354 142.448 80.742 C 142.820 80.406,143.125 80.101,143.125 80.065 C 143.125 79.904,142.953 80.046,142.383 80.677 M132.757 85.833 C 132.757 86.234,132.800 86.398,132.852 86.198 C 132.904 85.997,132.904 85.669,132.852 85.469 C 132.800 85.268,132.757 85.432,132.757 85.833 M119.228 89.113 C 120.122 89.153,121.528 89.152,122.353 89.113 C 123.179 89.073,122.448 89.041,120.729 89.042 C 119.010 89.042,118.335 89.074,119.228 89.113 M170.485 92.188 C 170.486 92.990,170.524 93.292,170.569 92.860 C 170.614 92.428,170.613 91.771,170.567 91.402 C 170.521 91.032,170.484 91.385,170.485 92.188 M182.771 92.292 C 182.771 92.922,182.810 93.180,182.858 92.865 C 182.905 92.549,182.905 92.034,182.858 91.719 C 182.810 91.404,182.771 91.661,182.771 92.292 M247.969 94.947 C 249.659 94.982,252.424 94.982,254.115 94.947 C 255.805 94.912,254.422 94.884,251.042 94.884 C 247.661 94.884,246.279 94.912,247.969 94.947 M214.675 102.083 C 214.675 105.464,214.704 106.846,214.739 105.156 C 214.774 103.466,214.774 100.701,214.739 99.010 C 214.704 97.320,214.675 98.703,214.675 102.083 M153.802 102.227 C 154.003 102.279,154.331 102.279,154.531 102.227 C 154.732 102.175,154.568 102.132,154.167 102.132 C 153.766 102.132,153.602 102.175,153.802 102.227 M165.614 103.906 L 164.896 104.688 165.677 103.970 C 166.404 103.301,166.554 103.125,166.395 103.125 C 166.360 103.125,166.009 103.477,165.614 103.906 M260.575 118.272 C 260.834 118.322,261.209 118.320,261.409 118.268 C 261.608 118.216,261.396 118.175,260.938 118.178 C 260.479 118.180,260.316 118.223,260.575 118.272 M201.875 185.000 C 201.875 185.115,202.133 185.202,202.448 185.194 C 202.956 185.181,202.973 185.159,202.604 185.000 C 202.035 184.755,201.875 184.755,201.875 185.000 M201.563 189.167 C 201.633 189.281,201.897 189.368,202.148 189.360 C 202.588 189.346,202.589 189.339,202.188 189.167 C 201.614 188.920,201.410 188.920,201.563 189.167 M201.042 191.250 C 200.812 191.398,200.951 191.449,201.563 191.441 C 202.217 191.432,202.307 191.391,201.979 191.250 C 201.431 191.014,201.406 191.014,201.042 191.250 M200.729 192.292 C 200.431 192.420,200.639 192.469,201.458 192.465 C 202.333 192.460,202.481 192.419,202.083 192.292 C 201.409 192.076,201.232 192.076,200.729 192.292 M201.615 193.901 C 201.987 193.947,202.596 193.947,202.969 193.901 C 203.341 193.854,203.036 193.817,202.292 193.817 C 201.547 193.817,201.242 193.854,201.615 193.901 M199.637 194.375 C 199.953 194.470,200.656 194.473,201.200 194.382 C 202.132 194.225,202.099 194.215,200.625 194.209 C 199.482 194.204,199.217 194.249,199.637 194.375 M190.257 202.917 C 190.257 203.318,190.300 203.482,190.352 203.281 C 190.404 203.081,190.404 202.753,190.352 202.552 C 190.300 202.352,190.257 202.516,190.257 202.917 M197.068 203.664 C 196.909 203.855,196.939 203.912,197.178 203.877 C 197.649 203.808,198.016 203.403,197.608 203.403 C 197.430 203.403,197.188 203.520,197.068 203.664 M190.048 205.417 C 190.048 205.818,190.091 205.982,190.144 205.781 C 190.196 205.581,190.196 205.253,190.144 205.052 C 190.091 204.852,190.048 205.016,190.048 205.417 M210.886 205.729 C 210.888 206.188,210.931 206.350,210.981 206.091 C 211.031 205.832,211.029 205.457,210.976 205.258 C 210.924 205.059,210.884 205.271,210.886 205.729 M190.896 207.500 C 190.896 208.130,190.935 208.388,190.983 208.073 C 191.030 207.758,191.030 207.242,190.983 206.927 C 190.935 206.612,190.896 206.870,190.896 207.500 M210.281 209.792 C 210.281 210.766,210.317 211.164,210.361 210.677 C 210.405 210.190,210.405 209.393,210.361 208.906 C 210.317 208.419,210.281 208.818,210.281 209.792 M211.110 209.479 C 211.111 210.281,211.149 210.584,211.194 210.152 C 211.239 209.719,211.238 209.063,211.192 208.693 C 211.146 208.323,211.109 208.677,211.110 209.479 M199.604 210.845 C 200.022 210.944,200.622 210.942,200.959 210.842 C 201.443 210.696,201.295 210.661,200.208 210.664 C 199.010 210.667,198.941 210.687,199.604 210.845 M202.865 210.772 C 203.122 210.822,203.544 210.822,203.802 210.772 C 204.060 210.722,203.849 210.682,203.333 210.682 C 202.818 210.682,202.607 210.722,202.865 210.772 M190.695 212.708 C 190.695 213.568,190.732 213.919,190.777 213.490 C 190.822 213.060,190.822 212.357,190.777 211.927 C 190.732 211.497,190.695 211.849,190.695 212.708 M189.423 212.500 C 189.423 212.901,189.466 213.065,189.519 212.865 C 189.571 212.664,189.571 212.336,189.519 212.135 C 189.466 211.935,189.423 212.099,189.423 212.500 M200.208 212.679 C 200.380 212.770,201.130 212.782,201.875 212.704 L 203.229 212.564 201.563 212.538 C 200.627 212.524,200.033 212.586,200.208 212.679 M192.292 215.499 C 192.292 215.701,192.879 215.777,193.144 215.609 C 193.358 215.474,193.282 215.422,192.865 215.420 C 192.549 215.418,192.292 215.454,192.292 215.499 M210.489 217.083 C 210.489 218.057,210.525 218.456,210.569 217.969 C 210.613 217.482,210.613 216.685,210.569 216.198 C 210.525 215.711,210.489 216.109,210.489 217.083 M200.429 215.828 C 200.617 215.938,201.190 215.945,201.784 215.846 L 202.813 215.674 201.458 215.656 C 200.550 215.644,200.211 215.700,200.429 215.828 M200.208 216.853 C 200.380 216.949,201.224 216.960,202.083 216.878 L 203.646 216.728 201.771 216.704 C 200.670 216.689,200.025 216.751,200.208 216.853 M190.485 218.229 C 190.486 219.031,190.524 219.334,190.569 218.902 C 190.614 218.469,190.613 217.813,190.567 217.443 C 190.521 217.073,190.484 217.427,190.485 218.229 M200.740 218.091 C 200.848 218.187,201.500 218.201,202.188 218.122 L 203.438 217.978 201.990 217.947 C 201.193 217.930,200.631 217.995,200.740 218.091 M189.458 221.979 C 189.459 223.698,189.491 224.373,189.530 223.480 C 189.569 222.587,189.569 221.181,189.529 220.355 C 189.490 219.530,189.458 220.260,189.458 221.979 M199.392 219.033 C 199.627 219.233,200.833 219.341,200.833 219.161 C 200.833 219.050,200.490 218.958,200.069 218.958 C 199.649 218.958,199.345 218.992,199.392 219.033 M200.156 220.215 C 200.436 220.327,200.814 220.327,201.094 220.215 C 201.477 220.061,201.391 220.026,200.625 220.026 C 199.859 220.026,199.773 220.061,200.156 220.215 M203.385 220.144 C 203.586 220.196,203.914 220.196,204.115 220.144 C 204.315 220.091,204.151 220.048,203.750 220.048 C 203.349 220.048,203.185 220.091,203.385 220.144 M210.488 223.229 C 210.489 224.146,210.525 224.495,210.569 224.005 C 210.613 223.515,210.613 222.765,210.568 222.338 C 210.523 221.912,210.487 222.313,210.488 223.229 M211.110 223.646 C 211.111 224.448,211.149 224.751,211.194 224.318 C 211.239 223.886,211.238 223.230,211.192 222.860 C 211.146 222.490,211.109 222.844,211.110 223.646 M202.448 223.484 C 202.820 223.530,203.430 223.530,203.802 223.484 C 204.174 223.438,203.870 223.400,203.125 223.400 C 202.380 223.400,202.076 223.438,202.448 223.484 M190.261 224.271 C 190.263 224.729,190.306 224.892,190.356 224.633 C 190.406 224.374,190.404 223.999,190.351 223.800 C 190.299 223.600,190.259 223.813,190.261 224.271 " stroke="none" fill="#949494" fill-rule="evenodd"></path><path id="path5" d="M210.062 76.405 C 210.955 76.444,212.361 76.444,213.187 76.404 C 214.012 76.365,213.281 76.333,211.563 76.333 C 209.844 76.334,209.168 76.366,210.062 76.405 M226.198 76.405 C 227.372 76.443,229.294 76.443,230.469 76.405 C 231.643 76.368,230.682 76.338,228.333 76.338 C 225.984 76.338,225.023 76.368,226.198 76.405 M249.005 76.405 L 259.573 76.462 259.638 79.585 L 259.704 82.709 259.696 79.531 L 259.688 76.354 249.063 76.351 L 238.438 76.348 249.005 76.405 M270.677 76.406 C 273.971 76.438,279.362 76.438,282.656 76.406 C 285.951 76.374,283.255 76.348,276.667 76.348 C 270.078 76.348,267.383 76.374,270.677 76.406 M279.890 95.521 C 279.890 102.510,279.916 105.340,279.948 101.808 C 279.980 98.276,279.980 92.557,279.948 89.100 C 279.916 85.642,279.890 88.531,279.890 95.521 M248.476 101.823 C 250.445 101.857,253.727 101.857,255.768 101.823 C 257.809 101.789,256.198 101.761,252.188 101.760 C 248.177 101.760,246.507 101.788,248.476 101.823 M259.635 116.823 C 262.013 116.856,265.904 116.856,268.281 116.823 C 270.659 116.789,268.714 116.762,263.958 116.762 C 259.203 116.762,257.258 116.789,259.635 116.823 M189.229 215.833 C 189.229 216.464,189.268 216.721,189.316 216.406 C 189.364 216.091,189.364 215.576,189.316 215.260 C 189.268 214.945,189.229 215.203,189.229 215.833 " stroke="none" fill="#8c8c8c" fill-rule="evenodd"></path></g></svg>