<svg id="svg" version="1.1" xmlns="http://www.w3.org/2000/svg" xmlns:xlink="http://www.w3.org/1999/xlink" width="400" height="225" viewBox="0, 0, 400,225"><g id="svgg"><path id="path0" d="M151.354 76.042 C 140.526 77.996,134.611 89.661,139.470 99.479 C 147.148 114.994,170.417 109.467,170.417 92.128 C 170.417 82.127,161.117 74.280,151.354 76.042 M190.350 76.055 C 178.881 77.374,172.385 89.696,177.727 100.000 C 182.158 108.548,193.220 111.328,201.345 105.934 C 201.980 105.513,202.500 105.079,202.500 104.970 C 202.500 104.718,198.707 100.390,198.553 100.466 C 198.489 100.498,197.922 100.795,197.292 101.126 C 190.010 104.959,181.570 98.884,182.897 90.765 C 183.918 84.514,190.655 80.761,196.458 83.209 C 197.203 83.524,197.938 83.797,198.091 83.817 C 198.687 83.896,202.284 79.516,201.940 79.129 C 200.290 77.275,194.074 75.627,190.350 76.055 M111.458 92.281 L 111.458 108.125 114.583 108.125 L 117.708 108.125 117.708 101.762 L 117.708 95.399 119.317 95.460 L 120.925 95.521 123.848 101.816 L 126.771 108.110 130.136 108.118 L 133.502 108.125 130.397 101.436 C 126.845 93.784,127.098 94.546,127.969 94.123 C 134.557 90.918,134.162 80.721,127.319 77.337 L 125.752 76.563 118.605 76.500 L 111.458 76.438 111.458 92.281 M208.333 92.292 L 208.333 108.125 211.458 108.125 L 214.583 108.125 214.583 102.129 L 214.583 96.133 215.846 94.889 C 216.956 93.796,217.138 93.687,217.356 93.986 C 217.493 94.174,219.337 97.431,221.454 101.226 L 225.304 108.125 229.006 108.125 C 231.042 108.125,232.708 108.087,232.708 108.040 C 232.708 107.992,230.286 103.844,227.324 98.821 C 224.363 93.797,221.829 89.478,221.693 89.221 C 221.464 88.788,221.820 88.339,226.722 82.867 C 229.623 79.629,232.069 76.862,232.157 76.719 C 232.282 76.514,231.428 76.458,228.142 76.458 L 223.968 76.458 219.432 81.458 C 216.937 84.208,214.826 86.458,214.740 86.458 C 214.654 86.458,214.583 84.208,214.583 81.458 L 214.583 76.458 211.458 76.458 L 208.333 76.458 208.333 92.292 M238.542 92.292 L 238.542 108.125 249.063 108.125 L 259.583 108.125 259.583 105.000 L 259.583 101.875 252.182 101.875 L 244.782 101.875 244.839 98.385 L 244.896 94.896 250.990 94.841 L 257.083 94.785 257.083 91.664 L 257.083 88.542 250.938 88.542 L 244.792 88.542 244.792 85.625 L 244.792 82.708 252.188 82.708 L 259.583 82.708 259.583 79.583 L 259.583 76.458 249.063 76.458 L 238.542 76.458 238.542 92.292 M264.792 79.583 L 264.792 82.708 269.167 82.708 L 273.542 82.708 273.542 95.417 L 273.542 108.125 276.667 108.125 L 279.792 108.125 279.792 95.417 L 279.792 82.708 284.167 82.708 L 288.542 82.708 288.542 79.583 L 288.542 76.458 276.667 76.458 L 264.792 76.458 264.792 79.583 M156.555 82.611 C 163.999 84.550,166.546 93.825,161.123 99.248 C 155.661 104.710,146.434 102.160,144.477 94.647 C 142.610 87.479,149.372 80.740,156.555 82.611 M125.000 83.177 C 126.428 84.152,126.892 86.177,125.990 87.502 C 124.999 88.957,124.701 89.055,121.027 89.133 L 117.708 89.203 117.708 85.956 L 117.708 82.708 121.011 82.708 C 124.093 82.708,124.359 82.740,125.000 83.177 M233.475 116.472 C 225.222 117.420,218.966 124.388,218.960 132.637 L 218.958 134.545 220.249 134.981 C 221.825 135.513,222.595 135.520,224.479 135.016 L 225.938 134.627 225.873 133.646 C 225.326 125.374,233.031 120.667,241.176 124.296 C 241.668 124.516,245.415 119.939,245.065 119.546 C 243.416 117.692,237.199 116.044,233.475 116.472 M135.440 116.774 C 132.064 117.723,129.317 120.298,128.641 123.146 L 128.512 123.688 130.392 123.830 C 132.945 124.023,134.884 123.812,136.135 123.207 C 137.351 122.619,138.971 122.549,140.549 123.018 C 141.429 123.279,141.815 123.286,143.035 123.065 C 143.829 122.921,145.023 122.817,145.688 122.834 L 146.898 122.865 147.717 121.589 L 148.536 120.313 147.987 119.863 C 144.701 117.175,139.004 115.772,135.440 116.774 M166.672 121.031 L 164.581 125.208 165.364 125.229 C 167.839 125.296,169.093 125.482,170.835 126.042 C 171.903 126.386,173.190 126.667,173.694 126.667 C 174.198 126.667,174.792 126.764,175.014 126.882 C 175.554 127.171,175.706 127.555,173.055 121.962 L 170.693 116.979 169.728 116.916 L 168.763 116.853 166.672 121.031 M189.375 123.542 L 189.375 130.208 189.844 130.209 C 190.102 130.209,190.969 130.340,191.771 130.502 C 192.573 130.663,193.768 130.857,194.427 130.933 L 195.625 131.072 195.625 123.973 L 195.625 116.875 192.500 116.875 L 189.375 116.875 189.375 123.542 M207.500 125.208 L 207.500 133.542 210.625 133.542 L 213.750 133.542 213.750 125.208 L 213.750 116.875 210.625 116.875 L 207.500 116.875 207.500 125.208 M251.458 126.695 L 251.458 136.516 252.843 136.374 C 253.604 136.296,254.414 136.132,254.641 136.011 C 255.472 135.566,258.299 135.223,261.190 135.216 C 263.594 135.210,264.340 135.134,265.153 134.813 C 265.705 134.596,266.810 134.357,267.609 134.282 C 270.236 134.035,270.000 134.314,270.000 131.454 L 270.000 128.958 263.854 128.958 L 257.708 128.958 257.708 126.042 L 257.708 123.125 265.208 123.125 L 272.708 123.125 272.708 120.000 L 272.708 116.875 262.083 116.875 L 251.458 116.875 251.458 126.695 M199.669 190.238 C 199.356 190.734,198.775 191.844,198.378 192.705 C 197.981 193.566,197.157 195.315,196.549 196.592 C 195.940 197.869,195.288 199.463,195.100 200.134 C 194.911 200.805,194.337 202.610,193.824 204.146 C 192.140 209.180,191.135 213.925,190.412 220.252 C 189.889 224.821,189.889 225.000,190.407 225.000 C 190.838 225.000,190.897 224.800,191.144 222.500 C 191.305 220.993,192.281 214.555,192.401 214.210 C 192.473 213.999,192.592 213.993,192.945 214.182 C 193.638 214.552,204.292 214.447,206.003 214.053 C 206.726 213.886,207.399 213.750,207.498 213.750 C 208.089 213.750,208.538 216.070,209.503 224.115 C 209.636 225.222,210.417 225.452,210.417 224.383 C 210.417 221.615,209.165 214.864,207.808 210.313 C 207.398 208.938,206.644 206.241,206.132 204.321 C 205.087 200.400,201.199 190.460,200.300 189.407 C 200.266 189.368,199.982 189.742,199.669 190.238 M201.268 192.644 C 203.005 196.420,204.986 202.256,206.032 206.674 C 206.263 207.652,206.681 209.122,206.959 209.941 C 207.797 212.404,207.771 212.745,206.728 213.048 C 203.954 213.852,196.596 213.815,193.155 212.980 C 192.454 212.809,192.493 212.600,194.810 204.167 C 195.267 202.505,196.068 200.208,196.591 199.063 C 197.114 197.917,198.118 195.597,198.823 193.908 C 200.333 190.289,200.214 190.351,201.268 192.644 M202.135 202.227 C 202.336 202.279,202.664 202.279,202.865 202.227 C 203.065 202.175,202.901 202.132,202.500 202.132 C 202.099 202.132,201.935 202.175,202.135 202.227 M202.344 203.269 C 202.544 203.321,202.872 203.321,203.073 203.269 C 203.273 203.216,203.109 203.173,202.708 203.173 C 202.307 203.173,202.143 203.216,202.344 203.269 M202.179 204.597 C 202.086 204.748,202.298 204.772,202.844 204.673 C 203.908 204.481,203.987 204.375,203.068 204.375 C 202.654 204.375,202.255 204.475,202.179 204.597 M202.813 205.417 L 201.979 205.566 202.813 205.592 C 203.271 205.607,203.786 205.528,203.958 205.417 C 204.331 205.176,204.157 205.176,202.813 205.417 M202.604 206.458 L 201.771 206.608 202.708 206.622 C 203.224 206.631,203.833 206.557,204.063 206.458 C 204.596 206.229,203.884 206.229,202.604 206.458 M203.234 207.524 C 201.490 207.778,201.297 207.942,202.911 207.798 C 203.653 207.731,204.403 207.593,204.578 207.491 C 204.941 207.278,204.918 207.279,203.234 207.524 M202.813 208.451 L 201.354 208.728 202.757 208.629 C 204.072 208.537,205.741 208.134,204.688 208.163 C 204.458 208.169,203.615 208.299,202.813 208.451 M202.708 209.583 L 201.771 209.729 202.708 209.736 C 203.224 209.739,203.927 209.671,204.271 209.583 L 204.896 209.424 204.271 209.431 C 203.927 209.435,203.224 209.503,202.708 209.583 M202.813 210.541 L 201.146 210.816 202.708 210.722 C 204.234 210.631,206.205 210.229,205.000 210.256 C 204.714 210.262,203.729 210.390,202.813 210.541 M203.125 211.580 L 201.563 211.856 203.021 211.761 C 204.498 211.665,206.326 211.275,205.208 211.295 C 204.922 211.300,203.984 211.428,203.125 211.580 M203.229 212.625 L 201.563 212.899 203.144 212.809 C 204.014 212.760,204.952 212.629,205.228 212.519 C 205.918 212.243,205.373 212.272,203.229 212.625 M203.229 214.813 C 200.722 215.075,200.485 215.199,202.708 215.085 C 204.669 214.985,206.951 214.618,205.521 214.632 C 205.177 214.636,204.146 214.717,203.229 214.813 M205.313 215.454 C 204.740 215.561,203.005 215.671,201.458 215.697 C 198.274 215.751,197.384 216.020,195.873 217.384 C 195.126 218.060,194.934 218.135,194.232 218.033 C 193.450 217.918,193.447 217.920,194.063 218.153 C 194.877 218.462,194.893 218.481,194.612 218.820 C 194.478 218.981,194.119 219.075,193.801 219.032 L 193.229 218.956 193.813 219.187 C 194.529 219.469,194.443 219.857,193.629 220.009 L 193.021 220.122 193.594 220.274 C 193.977 220.375,194.167 220.562,194.167 220.841 C 194.167 221.183,194.064 221.238,193.594 221.149 C 193.047 221.045,193.051 221.054,193.680 221.346 C 194.132 221.557,194.382 221.850,194.477 222.283 C 194.787 223.693,194.850 223.636,197.866 219.219 C 198.981 217.586,200.005 216.250,200.141 216.250 C 200.644 216.250,201.473 216.670,201.594 216.986 C 201.711 217.291,197.848 223.384,196.810 224.531 C 196.577 224.789,196.453 225.000,196.536 225.000 C 196.797 225.000,197.662 223.914,198.778 222.188 C 201.612 217.800,201.984 217.319,202.302 217.636 C 202.551 217.884,200.741 220.870,198.660 223.646 L 197.723 224.896 200.879 224.954 L 204.035 225.011 204.946 224.120 C 205.447 223.630,205.970 222.995,206.108 222.708 C 206.279 222.354,206.591 222.146,207.086 222.059 L 207.813 221.930 207.135 221.902 C 206.698 221.885,206.458 221.769,206.458 221.576 C 206.458 221.394,206.725 221.243,207.135 221.192 L 207.813 221.108 207.118 221.075 C 206.318 221.037,206.306 220.613,207.099 220.391 C 207.588 220.254,207.585 220.249,207.014 220.229 C 206.304 220.204,206.360 219.764,207.099 219.558 C 207.546 219.433,207.524 219.414,206.910 219.396 C 206.056 219.370,206.113 218.919,206.996 218.712 C 207.524 218.588,207.497 218.574,206.791 218.607 C 205.718 218.658,205.599 218.233,206.605 217.944 L 207.396 217.716 206.491 217.822 C 205.696 217.915,205.509 217.853,204.957 217.313 C 204.611 216.974,204.057 216.585,203.726 216.448 C 202.804 216.066,202.997 215.905,204.531 215.774 C 205.305 215.708,206.172 215.560,206.458 215.445 C 207.092 215.189,206.700 215.192,205.313 215.454 M194.063 216.250 C 194.685 216.518,195.206 216.518,194.792 216.250 C 194.620 216.139,194.292 216.053,194.063 216.059 L 193.646 216.071 194.063 216.250 M205.833 216.194 C 205.432 216.241,205.032 216.350,204.943 216.436 C 204.854 216.523,205.251 216.533,205.825 216.459 C 206.399 216.386,206.933 216.262,207.011 216.184 C 207.089 216.106,207.020 216.057,206.858 216.075 C 206.695 216.093,206.234 216.147,205.833 216.194 M193.750 217.083 C 193.922 217.194,194.250 217.280,194.479 217.274 L 194.896 217.262 194.479 217.083 C 193.856 216.816,193.336 216.816,193.750 217.083 M205.729 217.083 L 205.313 217.262 205.729 217.256 C 205.958 217.253,206.380 217.175,206.667 217.083 L 207.188 216.917 206.667 216.910 C 206.380 216.907,205.958 216.985,205.729 217.083 M193.125 222.500 C 193.297 222.611,193.625 222.697,193.854 222.691 L 194.271 222.679 193.854 222.500 C 193.231 222.232,192.711 222.232,193.125 222.500 M207.188 222.649 C 206.958 222.704,206.689 222.826,206.589 222.921 C 206.489 223.015,206.754 223.014,207.179 222.919 C 207.603 222.823,208.005 222.690,208.072 222.622 C 208.209 222.485,207.817 222.497,207.188 222.649 M192.917 223.542 C 193.089 223.653,193.464 223.736,193.750 223.726 L 194.271 223.708 193.750 223.542 C 192.947 223.285,192.519 223.285,192.917 223.542 M206.250 223.750 L 205.729 223.917 206.250 223.917 C 206.536 223.917,207.005 223.842,207.292 223.750 L 207.813 223.583 207.292 223.583 C 207.005 223.583,206.536 223.658,206.250 223.750 M192.744 224.473 C 192.821 224.554,193.231 224.698,193.655 224.794 C 194.079 224.889,194.344 224.891,194.244 224.797 C 194.020 224.587,192.550 224.269,192.744 224.473 M206.250 224.525 C 205.214 224.711,205.419 224.937,206.472 224.771 C 207.066 224.677,207.603 224.549,207.665 224.488 C 207.791 224.362,207.049 224.382,206.250 224.525 " stroke="none" fill="#f9f8f8" fill-rule="evenodd"></path><path id="path1" d="M0.000 112.500 L 0.000 225.000 94.896 225.000 C 178.851 225.000,189.792 224.964,189.792 224.689 C 189.792 220.193,191.728 209.789,193.616 204.146 C 194.129 202.610,194.706 200.792,194.897 200.104 C 195.088 199.417,195.697 197.917,196.251 196.771 C 196.805 195.625,197.691 193.756,198.218 192.616 C 199.258 190.373,200.155 189.029,200.429 189.305 C 200.639 189.517,203.847 196.754,204.754 199.063 C 205.114 199.979,205.922 202.656,206.549 205.011 C 207.176 207.366,207.922 210.038,208.206 210.948 C 209.444 214.913,210.625 221.386,210.625 224.210 L 210.625 225.000 305.313 225.000 L 400.000 225.000 400.000 112.500 L 400.000 0.000 200.000 0.000 L 0.000 0.000 0.000 112.500 M156.529 75.944 C 167.075 77.089,173.685 89.338,169.051 99.148 C 164.124 109.580,150.681 111.997,142.483 103.926 C 132.671 94.264,138.623 77.318,152.349 75.836 C 153.833 75.675,154.122 75.683,156.529 75.944 M196.354 76.345 C 198.357 76.886,202.292 78.885,202.292 79.361 C 202.292 79.444,201.395 80.558,200.300 81.836 L 198.308 84.161 197.253 83.626 C 191.698 80.811,184.765 83.826,183.228 89.725 C 181.052 98.082,189.442 104.943,197.112 101.079 L 198.703 100.277 200.653 102.532 C 203.037 105.290,202.960 104.938,201.407 105.984 C 190.472 113.346,175.758 105.552,175.755 92.396 C 175.752 81.554,186.023 73.551,196.354 76.345 M125.250 76.481 C 133.445 78.197,135.611 89.508,128.576 93.850 L 127.340 94.613 130.441 101.295 C 132.146 104.970,133.542 108.057,133.542 108.155 C 133.542 108.456,126.958 108.376,126.730 108.073 C 126.622 107.930,125.236 105.023,123.650 101.615 L 120.767 95.417 119.238 95.417 L 117.708 95.417 117.708 101.771 L 117.708 108.125 114.479 108.125 L 111.250 108.125 111.250 92.188 L 111.250 76.250 117.698 76.250 C 121.619 76.250,124.579 76.341,125.250 76.481 M214.840 81.283 L 214.896 86.317 219.454 81.283 L 224.011 76.250 228.256 76.250 C 230.590 76.250,232.499 76.320,232.497 76.406 C 232.496 76.492,230.061 79.281,227.086 82.604 C 224.111 85.927,221.677 88.740,221.676 88.854 C 221.676 88.969,224.193 93.328,227.270 98.542 L 232.865 108.021 229.200 108.078 C 227.184 108.109,225.436 108.097,225.315 108.051 C 225.194 108.004,223.316 104.773,221.141 100.871 L 217.188 93.776 215.990 94.954 L 214.792 96.133 214.792 102.129 L 214.792 108.125 211.563 108.125 L 208.333 108.125 208.333 92.188 L 208.333 76.250 211.559 76.250 L 214.784 76.250 214.840 81.283 M259.745 79.531 L 259.803 82.708 252.401 82.708 L 245.000 82.708 245.000 85.625 L 245.000 88.542 251.042 88.542 L 257.083 88.542 257.083 91.771 L 257.083 95.000 251.042 95.000 L 245.000 95.000 245.000 98.333 L 245.000 101.667 252.297 101.667 L 259.594 101.667 259.537 104.948 L 259.479 108.229 248.958 108.229 L 238.438 108.229 238.384 92.500 C 238.354 83.849,238.375 76.653,238.430 76.509 C 238.509 76.301,240.757 76.258,249.109 76.300 L 259.688 76.354 259.745 79.531 M288.750 79.479 L 288.750 82.708 284.377 82.708 L 280.003 82.708 279.950 95.469 L 279.896 108.229 276.720 108.287 L 273.545 108.344 273.491 95.578 L 273.438 82.813 269.010 82.756 L 264.583 82.700 264.583 79.475 L 264.583 76.250 276.667 76.250 L 288.750 76.250 288.750 79.479 M151.354 82.793 C 144.042 85.115,141.860 94.165,147.370 99.320 C 155.479 106.905,167.818 97.586,162.793 87.670 C 160.795 83.728,155.508 81.473,151.354 82.793 M117.708 85.833 L 117.708 88.958 120.889 88.958 C 125.262 88.958,126.785 87.968,126.352 85.406 C 125.996 83.294,124.745 82.711,120.573 82.709 L 117.708 82.708 117.708 85.833 M142.397 116.890 C 144.464 117.527,148.542 119.743,148.542 120.229 C 148.542 120.410,145.729 125.134,145.410 125.489 C 145.323 125.586,144.729 125.331,144.091 124.923 C 139.379 121.909,134.792 122.166,134.792 125.443 C 134.792 127.248,135.501 127.823,139.237 129.047 C 146.115 131.300,149.356 134.922,149.130 140.102 C 148.708 149.753,136.364 152.434,127.333 144.837 C 125.958 143.681,125.914 143.809,128.550 141.298 L 130.747 139.205 131.874 140.141 C 136.375 143.879,142.708 143.509,142.708 139.508 C 142.708 137.922,139.776 135.778,136.563 135.015 C 125.910 132.486,125.438 118.943,135.919 116.545 C 137.613 116.157,140.524 116.312,142.397 116.890 M239.479 116.761 C 241.526 117.315,245.417 119.304,245.417 119.796 C 245.417 119.889,244.518 121.002,243.420 122.269 L 241.423 124.573 240.373 124.041 C 234.823 121.228,227.889 124.246,226.353 130.142 C 224.143 138.627,232.879 145.530,240.546 141.356 L 241.822 140.662 243.828 142.972 C 246.191 145.693,246.116 145.397,244.688 146.344 C 233.974 153.456,219.868 146.662,218.841 133.894 C 217.955 122.894,228.817 113.878,239.479 116.761 M172.981 121.563 C 182.105 140.848,185.625 148.361,185.625 148.546 C 185.625 148.686,184.423 148.740,182.135 148.703 L 178.646 148.646 177.203 145.677 L 175.760 142.708 169.286 142.712 L 162.813 142.715 161.269 145.733 L 159.725 148.750 156.229 148.750 C 154.306 148.750,152.696 148.680,152.651 148.594 C 152.606 148.508,154.198 145.250,156.189 141.354 C 158.181 137.458,161.830 130.305,164.298 125.458 L 168.786 116.645 169.750 116.708 L 170.714 116.771 172.981 121.563 M195.668 127.448 C 195.727 137.931,195.741 138.256,196.171 139.185 C 198.279 143.742,204.738 143.771,206.871 139.233 C 207.296 138.329,207.310 137.991,207.352 127.537 L 207.396 116.771 210.625 116.771 L 213.854 116.771 213.908 127.348 C 213.968 139.032,213.913 139.709,212.707 142.159 C 208.139 151.438,194.866 151.424,190.396 142.135 C 189.229 139.708,189.174 139.050,189.170 127.344 L 189.167 116.667 192.387 116.667 L 195.607 116.667 195.668 127.448 M272.708 119.896 L 272.708 123.125 265.313 123.125 L 257.917 123.125 257.917 126.042 L 257.917 128.958 264.063 128.958 L 270.208 128.958 270.208 132.188 L 270.208 135.417 264.063 135.417 L 257.917 135.417 257.917 138.750 L 257.917 142.083 265.208 142.083 L 272.500 142.083 272.500 145.417 L 272.500 148.750 261.979 148.750 L 251.458 148.750 251.458 132.708 L 251.458 116.667 262.083 116.667 L 272.708 116.667 272.708 119.896 M167.848 132.841 C 166.957 134.628,166.267 136.128,166.314 136.175 C 166.361 136.222,167.819 136.235,169.552 136.203 L 172.705 136.146 171.237 133.021 C 170.430 131.302,169.701 129.828,169.619 129.744 C 169.536 129.661,168.739 131.055,167.848 132.841 M199.184 193.645 C 198.583 195.106,197.578 197.422,196.952 198.791 C 196.226 200.377,195.509 202.430,194.977 204.443 C 194.517 206.182,193.914 208.401,193.636 209.375 C 193.358 210.349,193.073 211.531,193.002 212.002 L 192.873 212.857 194.926 213.147 C 197.556 213.519,204.408 213.487,206.146 213.095 C 207.614 212.763,207.632 212.677,206.760 210.000 C 206.480 209.141,205.972 207.290,205.629 205.888 C 204.587 201.616,202.126 194.594,200.689 191.793 L 200.276 190.988 199.184 193.645 M203.021 201.042 C 202.950 201.156,202.611 201.250,202.267 201.250 C 201.903 201.250,201.696 201.163,201.771 201.042 C 201.842 200.927,202.181 200.833,202.525 200.833 C 202.888 200.833,203.096 200.920,203.021 201.042 M203.333 202.061 C 203.333 202.302,202.808 202.500,202.170 202.500 C 201.589 202.500,201.491 202.160,202.031 202.019 C 202.680 201.849,203.333 201.870,203.333 202.061 M203.750 203.099 C 203.750 203.284,202.766 203.542,202.057 203.542 C 201.564 203.542,201.545 203.187,202.031 203.060 C 202.688 202.889,203.750 202.913,203.750 203.099 M203.958 204.353 C 203.958 204.646,203.387 204.792,202.240 204.792 C 201.054 204.792,201.052 204.596,202.237 204.367 C 203.376 204.146,203.958 204.141,203.958 204.353 M204.228 205.439 C 203.925 205.742,201.063 205.970,201.354 205.668 C 201.604 205.409,202.280 205.275,203.531 205.237 C 204.209 205.216,204.396 205.270,204.228 205.439 M204.425 206.491 C 204.132 206.785,201.250 206.985,201.250 206.712 C 201.250 206.589,201.789 206.429,202.448 206.356 C 203.107 206.284,203.786 206.200,203.958 206.170 C 204.404 206.092,204.653 206.263,204.425 206.491 M204.838 207.537 C 204.699 207.676,203.802 207.811,202.765 207.848 C 200.862 207.917,200.735 207.826,202.304 207.519 C 203.767 207.232,205.133 207.242,204.838 207.537 M196.250 207.708 C 196.504 207.873,196.477 207.911,196.106 207.913 C 195.855 207.915,195.592 207.823,195.521 207.708 C 195.357 207.443,195.840 207.443,196.250 207.708 M205.058 208.359 C 204.822 208.595,200.838 208.912,201.055 208.677 C 201.217 208.501,203.239 208.179,204.365 208.149 C 205.049 208.131,205.231 208.186,205.058 208.359 M196.250 208.750 C 196.250 209.013,195.824 209.013,195.417 208.750 C 195.173 208.593,195.231 208.547,195.677 208.545 C 195.992 208.543,196.250 208.635,196.250 208.750 M205.510 209.358 C 205.039 209.815,200.833 210.233,200.833 209.824 C 200.833 209.727,201.560 209.554,202.448 209.439 C 204.666 209.153,205.752 209.124,205.510 209.358 M195.822 209.517 C 196.290 209.642,196.299 209.665,195.926 209.798 C 195.469 209.961,195.000 209.841,195.000 209.561 C 195.000 209.341,195.138 209.334,195.822 209.517 M205.833 210.188 C 205.833 210.599,201.486 211.205,200.724 210.900 C 200.441 210.787,201.062 210.629,202.708 210.395 C 205.720 209.967,205.833 209.960,205.833 210.188 M195.833 210.625 C 195.833 210.740,195.651 210.833,195.429 210.833 C 195.207 210.833,194.967 210.740,194.896 210.625 C 194.823 210.507,194.998 210.417,195.300 210.417 C 195.593 210.417,195.833 210.510,195.833 210.625 M206.042 211.233 C 206.042 211.509,204.141 211.882,201.999 212.025 C 200.619 212.117,200.181 212.087,200.292 211.908 C 200.374 211.775,200.787 211.661,201.210 211.654 C 201.633 211.646,202.682 211.518,203.542 211.367 C 205.518 211.022,206.042 210.994,206.042 211.233 M195.625 211.458 C 195.872 211.618,195.829 211.660,195.417 211.660 C 195.130 211.660,194.755 211.569,194.583 211.458 C 194.336 211.298,194.379 211.256,194.792 211.256 C 195.078 211.256,195.453 211.347,195.625 211.458 M195.510 212.523 C 195.631 212.636,195.577 212.708,195.371 212.708 C 194.871 212.708,194.375 212.483,194.375 212.255 C 194.375 212.035,195.195 212.229,195.510 212.523 M206.321 212.304 C 205.980 212.645,202.990 213.112,201.250 213.096 C 199.315 213.079,199.919 212.867,203.125 212.438 C 206.024 212.050,206.599 212.026,206.321 212.304 M206.563 214.097 C 205.995 214.288,205.914 214.353,206.307 214.300 C 207.193 214.181,207.193 214.531,206.307 214.801 C 205.230 215.129,199.828 215.304,199.167 215.032 C 198.764 214.867,199.187 214.815,201.024 214.805 C 202.332 214.798,203.351 214.740,203.288 214.677 C 203.042 214.430,192.500 214.434,192.500 214.680 C 192.500 214.812,192.264 216.431,191.975 218.280 C 191.686 220.128,191.377 222.397,191.287 223.320 L 191.125 225.000 192.281 224.984 C 193.306 224.969,193.372 224.943,192.865 224.758 C 192.549 224.643,192.292 224.452,192.292 224.334 C 192.292 224.066,193.622 224.292,194.459 224.703 C 196.026 225.473,196.126 225.386,199.462 220.365 C 201.573 217.187,201.702 216.788,200.702 216.537 C 200.031 216.369,199.979 216.425,197.660 219.825 C 195.329 223.243,195.162 223.431,194.675 223.171 C 194.453 223.053,193.872 222.849,193.385 222.719 C 191.989 222.347,192.153 221.940,193.567 222.269 C 194.590 222.507,194.459 221.795,193.416 221.451 C 192.533 221.160,192.467 220.747,193.333 220.938 C 193.822 221.045,193.958 221.003,193.958 220.746 C 193.958 220.563,193.785 220.417,193.567 220.417 C 193.352 220.417,193.052 220.268,192.901 220.085 C 192.658 219.792,192.706 219.762,193.324 219.825 C 194.155 219.909,194.419 219.484,193.655 219.292 C 192.899 219.102,192.998 218.711,193.781 218.789 C 194.171 218.828,194.474 218.748,194.528 218.594 C 194.583 218.435,194.429 218.332,194.132 218.330 C 193.562 218.326,192.972 218.001,193.172 217.800 C 193.248 217.724,193.667 217.749,194.103 217.855 C 194.855 218.039,194.947 218.003,195.892 217.164 C 197.324 215.891,198.521 215.551,201.667 215.520 C 203.099 215.506,204.927 215.418,205.729 215.325 C 207.849 215.079,207.232 215.555,205.026 215.867 C 203.765 216.046,203.394 216.163,203.647 216.305 C 203.866 216.427,204.328 216.415,204.902 216.270 C 205.401 216.145,206.162 216.042,206.592 216.042 C 207.789 216.042,207.163 216.459,205.747 216.605 C 205.063 216.675,204.638 216.805,204.744 216.911 C 204.850 217.017,205.390 216.995,206.020 216.860 C 207.125 216.623,207.639 216.736,207.077 217.091 C 206.909 217.198,206.565 217.287,206.314 217.288 C 206.063 217.290,205.796 217.393,205.719 217.516 C 205.623 217.672,205.875 217.696,206.540 217.597 C 207.141 217.507,207.500 217.531,207.500 217.662 C 207.500 217.911,207.005 218.125,206.429 218.125 C 206.202 218.125,206.073 218.216,206.142 218.327 C 206.210 218.437,206.532 218.475,206.858 218.410 C 207.194 218.342,207.511 218.391,207.593 218.523 C 207.681 218.667,207.493 218.804,207.097 218.883 C 206.273 219.047,206.261 219.332,207.083 219.211 C 207.868 219.096,207.905 219.477,207.135 219.758 L 206.563 219.967 207.240 219.984 C 207.612 219.993,207.917 220.080,207.917 220.178 C 207.917 220.276,207.612 220.454,207.240 220.574 L 206.563 220.791 207.396 220.819 C 208.284 220.848,207.948 221.458,207.044 221.458 C 206.836 221.458,206.667 221.536,206.667 221.631 C 206.667 221.725,206.948 221.762,207.292 221.711 C 207.635 221.661,207.917 221.714,207.917 221.829 C 207.917 222.074,207.423 222.292,206.870 222.292 C 206.657 222.292,206.427 222.381,206.360 222.491 C 206.284 222.614,206.659 222.643,207.337 222.568 C 208.208 222.472,208.387 222.500,208.195 222.705 C 208.062 222.847,207.524 223.012,207.001 223.071 C 206.477 223.130,205.930 223.325,205.785 223.503 C 205.562 223.778,205.577 223.807,205.883 223.692 C 206.789 223.353,208.455 223.292,208.059 223.613 C 207.851 223.782,207.146 223.983,206.492 224.059 C 205.839 224.134,205.084 224.363,204.813 224.567 C 204.344 224.921,204.385 224.921,205.755 224.564 C 207.445 224.124,208.534 224.049,208.186 224.397 C 208.059 224.524,207.642 224.702,207.259 224.793 C 206.682 224.929,206.804 224.961,207.969 224.979 C 208.742 224.990,209.374 224.930,209.373 224.844 C 209.368 224.448,208.731 219.014,208.531 217.661 C 208.308 216.150,207.774 214.173,207.526 213.939 C 207.455 213.872,207.021 213.943,206.563 214.097 M195.087 215.126 C 195.268 215.196,195.417 215.337,195.417 215.439 C 195.417 215.723,194.543 215.647,193.958 215.313 L 193.438 215.015 194.098 215.007 C 194.461 215.003,194.906 215.057,195.087 215.126 M195.076 216.242 C 195.436 216.603,194.088 216.499,193.634 216.131 C 193.253 215.823,193.277 215.811,194.045 215.915 C 194.493 215.976,194.957 216.124,195.076 216.242 M194.957 217.267 C 195.028 217.479,194.886 217.509,194.348 217.393 C 193.486 217.208,193.296 217.103,193.431 216.886 C 193.587 216.633,194.851 216.949,194.957 217.267 M201.515 218.435 C 201.185 218.834,200.477 219.899,199.940 220.802 C 199.404 221.704,198.542 222.986,198.025 223.652 C 197.066 224.887,196.891 225.592,197.822 224.471 C 198.408 223.766,201.698 218.883,202.064 218.177 C 202.414 217.501,202.203 217.600,201.515 218.435 M194.283 223.660 C 194.662 223.966,194.630 223.980,193.777 223.885 C 193.276 223.829,192.765 223.682,192.641 223.558 C 192.272 223.189,193.819 223.285,194.283 223.660 " stroke="none" fill="#343434" fill-rule="evenodd"></path><path id="path2" d="M142.626 123.194 L 141.814 123.439 143.555 124.504 L 145.295 125.570 145.855 124.688 C 147.064 122.780,147.117 122.915,145.164 122.933 C 144.214 122.941,143.072 123.059,142.626 123.194 M128.383 124.128 C 128.325 124.282,128.326 125.205,128.387 126.182 C 128.651 130.407,131.830 133.750,136.771 134.997 C 140.735 135.997,143.247 138.266,142.676 140.332 C 141.739 143.728,136.163 143.712,131.975 140.301 L 130.810 139.352 129.207 140.803 C 128.326 141.601,127.296 142.575,126.920 142.967 L 126.236 143.680 127.233 144.609 C 130.558 147.710,134.081 149.057,138.870 149.060 L 141.802 149.063 143.588 148.178 C 147.903 146.039,150.096 141.355,148.772 137.102 C 147.639 133.463,144.455 130.824,139.065 129.058 C 135.103 127.761,134.133 126.730,134.867 124.599 L 135.124 123.854 131.807 123.852 C 129.231 123.851,128.466 123.912,128.383 124.128 M164.269 125.726 C 163.931 126.273,152.708 148.333,152.708 148.452 C 152.708 148.501,154.301 148.542,156.249 148.542 L 159.789 148.542 161.250 145.625 L 162.711 142.708 169.286 142.708 L 175.862 142.708 177.239 145.625 L 178.616 148.542 182.128 148.542 C 185.402 148.542,185.627 148.517,185.459 148.177 C 185.360 147.977,183.083 143.150,180.400 137.452 L 175.521 127.091 174.375 126.879 C 172.014 126.441,170.097 125.985,169.875 125.808 C 169.165 125.242,164.609 125.176,164.269 125.726 M171.239 132.847 C 172.047 134.585,172.708 136.061,172.708 136.128 C 172.708 136.195,171.209 136.250,169.376 136.250 L 166.043 136.250 167.756 132.817 C 168.698 130.930,169.536 129.453,169.619 129.536 C 169.701 129.619,170.430 131.109,171.239 132.847 M189.225 134.531 C 189.376 140.434,189.973 142.322,192.578 145.132 C 200.388 153.556,213.821 147.954,213.766 136.296 C 213.751 133.343,214.083 133.624,210.554 133.569 L 207.544 133.522 207.461 135.980 C 207.287 141.133,203.870 143.860,199.466 142.359 C 196.616 141.388,195.625 139.349,195.625 134.459 L 195.625 131.075 194.219 130.938 C 193.445 130.862,192.137 130.667,191.311 130.505 C 188.872 130.023,189.099 129.585,189.225 134.531 M267.500 134.375 C 263.796 134.870,263.625 135.417,267.175 135.417 L 270.000 135.417 270.000 134.792 C 270.000 134.091,269.829 134.063,267.500 134.375 M219.066 135.477 C 220.969 147.308,235.245 153.140,244.957 146.054 L 245.851 145.402 243.936 143.215 C 241.585 140.530,241.966 140.708,240.369 141.541 C 235.485 144.086,229.291 142.087,226.954 137.211 C 226.567 136.402,226.250 135.580,226.250 135.383 C 226.250 134.777,225.906 134.753,223.985 135.224 L 222.132 135.679 220.528 135.140 L 218.925 134.601 219.066 135.477 M256.377 135.651 C 255.816 135.737,255.113 135.899,254.814 136.011 C 253.777 136.399,252.377 136.650,251.919 136.530 L 251.458 136.410 251.458 142.476 L 251.458 148.542 261.979 148.542 L 272.500 148.542 272.500 145.417 L 272.500 142.292 265.208 142.292 L 257.917 142.292 257.917 138.981 C 257.917 135.277,257.976 135.405,256.377 135.651 " stroke="none" fill="#fb3636" fill-rule="evenodd"></path><path id="path3" d="M209.958 76.405 C 210.909 76.444,212.409 76.444,213.291 76.405 C 214.174 76.366,213.396 76.334,211.563 76.334 C 209.729 76.335,209.007 76.366,209.958 76.405 M226.105 76.406 C 227.343 76.442,229.312 76.442,230.480 76.405 C 231.648 76.368,230.635 76.338,228.229 76.338 C 225.823 76.338,224.867 76.369,226.105 76.406 M238.429 76.510 C 238.375 76.654,238.354 83.849,238.384 92.500 L 238.438 108.229 248.906 108.232 L 259.375 108.235 248.958 108.178 L 238.542 108.121 238.542 92.292 L 238.542 76.462 249.115 76.406 L 259.688 76.350 249.108 76.300 C 240.799 76.261,238.507 76.306,238.429 76.510 M270.573 76.406 C 273.924 76.438,279.409 76.438,282.760 76.406 C 286.112 76.374,283.370 76.348,276.667 76.348 C 269.964 76.348,267.221 76.374,270.573 76.406 M153.597 82.441 C 153.913 82.489,154.382 82.488,154.638 82.438 C 154.895 82.389,154.635 82.350,154.063 82.351 C 153.490 82.353,153.280 82.393,153.597 82.441 M244.874 85.729 C 244.874 87.333,244.907 87.962,244.947 87.126 C 244.986 86.291,244.986 84.978,244.946 84.210 C 244.906 83.441,244.874 84.125,244.874 85.729 M137.557 92.292 C 137.557 92.807,137.597 93.018,137.647 92.760 C 137.697 92.503,137.697 92.081,137.647 91.823 C 137.597 91.565,137.557 91.776,137.557 92.292 M129.883 92.760 L 129.271 93.438 129.948 92.826 C 130.320 92.489,130.625 92.184,130.625 92.149 C 130.625 91.988,130.453 92.129,129.883 92.760 M215.930 94.844 L 214.896 95.938 215.990 94.904 C 216.591 94.335,217.083 93.843,217.083 93.810 C 217.083 93.654,216.890 93.827,215.930 94.844 M244.888 98.333 L 244.896 101.771 252.188 101.775 L 259.479 101.779 252.245 101.720 L 245.010 101.661 244.945 98.279 L 244.879 94.896 244.888 98.333 M128.490 108.280 C 129.435 108.319,130.982 108.319,131.927 108.280 C 132.872 108.241,132.099 108.210,130.208 108.210 C 128.318 108.210,127.544 108.241,128.490 108.280 M275.052 108.280 C 275.940 108.319,277.393 108.319,278.281 108.280 C 279.169 108.241,278.443 108.209,276.667 108.209 C 274.891 108.209,274.164 108.241,275.052 108.280 M168.673 116.831 C 168.617 116.922,168.916 116.964,169.338 116.924 C 170.626 116.802,170.778 116.716,169.752 116.691 C 169.214 116.678,168.729 116.741,168.673 116.831 M190.791 116.822 C 191.742 116.861,193.242 116.860,194.124 116.821 C 195.007 116.782,194.229 116.751,192.396 116.751 C 190.563 116.751,189.840 116.783,190.791 116.822 M207.389 116.922 C 207.333 117.068,207.313 121.641,207.344 127.083 L 207.400 136.979 207.450 126.927 L 207.500 116.875 210.623 116.875 L 213.746 116.875 213.803 126.823 L 213.860 136.771 213.857 126.771 L 213.854 116.771 210.673 116.713 C 208.242 116.669,207.467 116.719,207.389 116.922 M256.719 116.823 C 259.669 116.855,264.497 116.855,267.448 116.823 C 270.398 116.790,267.984 116.763,262.083 116.763 C 256.182 116.763,253.768 116.790,256.719 116.823 M270.084 132.188 C 270.085 134.021,270.116 134.743,270.155 133.792 C 270.194 132.841,270.194 131.341,270.155 130.459 C 270.116 129.576,270.084 130.354,270.084 132.188 M130.208 131.315 C 130.208 131.351,130.513 131.656,130.885 131.992 L 131.563 132.604 130.951 131.927 C 130.380 131.296,130.208 131.154,130.208 131.315 M141.042 136.940 C 141.042 136.976,141.346 137.281,141.719 137.617 L 142.396 138.229 141.784 137.552 C 141.214 136.921,141.042 136.779,141.042 136.940 M213.798 137.708 C 213.798 138.109,213.841 138.273,213.894 138.073 C 213.946 137.872,213.946 137.544,213.894 137.344 C 213.841 137.143,213.798 137.307,213.798 137.708 M129.886 140.052 L 129.063 140.938 129.948 140.114 C 130.435 139.661,130.833 139.263,130.833 139.229 C 130.833 139.071,130.652 139.229,129.886 140.052 M261.510 142.239 C 263.544 142.273,266.872 142.273,268.906 142.239 C 270.940 142.205,269.276 142.177,265.208 142.177 C 261.141 142.177,259.477 142.205,261.510 142.239 M138.597 142.858 C 138.913 142.906,139.382 142.904,139.638 142.855 C 139.895 142.806,139.635 142.766,139.063 142.768 C 138.490 142.769,138.280 142.810,138.597 142.858 M126.250 143.815 C 126.250 143.851,126.555 144.156,126.927 144.492 L 127.604 145.104 126.992 144.427 C 126.422 143.796,126.250 143.654,126.250 143.815 M192.292 145.065 C 192.292 145.101,192.596 145.406,192.969 145.742 L 193.646 146.354 193.034 145.677 C 192.464 145.046,192.292 144.904,192.292 145.065 M210.091 145.677 L 209.479 146.354 210.156 145.742 C 210.529 145.406,210.833 145.101,210.833 145.065 C 210.833 144.904,210.661 145.046,210.091 145.677 M152.682 148.599 C 152.771 148.688,154.430 148.734,156.370 148.703 L 159.896 148.645 156.208 148.541 C 154.179 148.484,152.593 148.510,152.682 148.599 M180.479 148.697 C 181.487 148.735,183.081 148.735,184.021 148.696 C 184.960 148.658,184.135 148.627,182.188 148.627 C 180.240 148.627,179.471 148.659,180.479 148.697 M256.733 148.698 C 259.692 148.730,264.473 148.730,267.358 148.698 C 270.244 148.665,267.823 148.638,261.979 148.638 C 256.135 148.638,253.775 148.665,256.733 148.698 M201.927 202.435 C 202.128 202.488,202.456 202.488,202.656 202.435 C 202.857 202.383,202.693 202.340,202.292 202.340 C 201.891 202.340,201.727 202.383,201.927 202.435 M201.667 203.369 C 201.667 203.464,201.948 203.542,202.292 203.542 C 202.635 203.542,202.917 203.505,202.917 203.461 C 202.917 203.417,202.635 203.339,202.292 203.289 C 201.948 203.238,201.667 203.275,201.667 203.369 M201.200 210.981 C 201.459 211.031,201.834 211.029,202.034 210.976 C 202.233 210.924,202.021 210.884,201.563 210.886 C 201.104 210.888,200.941 210.931,201.200 210.981 M199.323 214.522 C 199.581 214.572,200.003 214.572,200.260 214.522 C 200.518 214.472,200.307 214.432,199.792 214.432 C 199.276 214.432,199.065 214.472,199.323 214.522 M203.438 214.583 C 203.285 214.830,203.489 214.830,204.063 214.583 C 204.464 214.411,204.463 214.404,204.023 214.390 C 203.772 214.382,203.508 214.469,203.438 214.583 M199.950 215.564 C 200.209 215.614,200.584 215.612,200.784 215.560 C 200.983 215.508,200.771 215.467,200.313 215.469 C 199.854 215.472,199.691 215.514,199.950 215.564 M210.469 223.438 C 210.472 223.896,210.514 224.059,210.564 223.800 C 210.614 223.541,210.612 223.166,210.560 222.966 C 210.508 222.767,210.467 222.979,210.469 223.438 M191.094 224.063 C 191.097 224.521,191.139 224.684,191.189 224.425 C 191.239 224.166,191.237 223.791,191.185 223.591 C 191.133 223.392,191.092 223.604,191.094 224.063 M204.973 224.323 C 204.725 224.640,204.728 224.656,205.000 224.446 C 205.172 224.312,205.594 224.162,205.938 224.112 L 206.563 224.021 205.911 223.990 C 205.509 223.970,205.150 224.098,204.973 224.323 " stroke="none" fill="#7c7373" fill-rule="evenodd"></path><path id="path4" d="M111.346 76.510 C 111.291 76.654,111.271 83.849,111.302 92.500 L 111.357 108.229 111.408 92.347 L 111.458 76.464 117.760 76.406 L 124.063 76.348 117.754 76.299 C 112.862 76.261,111.423 76.308,111.346 76.510 M214.673 81.458 C 214.673 84.266,214.703 85.414,214.739 84.010 C 214.775 82.607,214.775 80.310,214.739 78.906 C 214.703 77.503,214.673 78.651,214.673 81.458 M264.667 79.583 C 264.667 81.359,264.699 82.086,264.738 81.198 C 264.777 80.310,264.777 78.857,264.738 77.969 C 264.699 77.081,264.667 77.807,264.667 79.583 M288.626 79.583 C 288.626 81.359,288.657 82.086,288.697 81.198 C 288.736 80.310,288.736 78.857,288.697 77.969 C 288.657 77.081,288.626 77.807,288.626 79.583 M142.383 80.677 L 141.771 81.354 142.448 80.742 C 142.820 80.406,143.125 80.101,143.125 80.065 C 143.125 79.904,142.953 80.046,142.383 80.677 M132.757 85.833 C 132.757 86.234,132.800 86.398,132.852 86.198 C 132.904 85.997,132.904 85.669,132.852 85.469 C 132.800 85.268,132.757 85.432,132.757 85.833 M119.228 89.113 C 120.122 89.153,121.528 89.152,122.353 89.113 C 123.179 89.073,122.448 89.041,120.729 89.042 C 119.010 89.042,118.335 89.074,119.228 89.113 M170.485 92.188 C 170.486 92.990,170.524 93.292,170.569 92.860 C 170.614 92.428,170.613 91.771,170.567 91.402 C 170.521 91.032,170.484 91.385,170.485 92.188 M182.771 92.292 C 182.771 92.922,182.810 93.180,182.858 92.865 C 182.905 92.549,182.905 92.034,182.858 91.719 C 182.810 91.404,182.771 91.661,182.771 92.292 M247.969 94.947 C 249.659 94.982,252.424 94.982,254.115 94.947 C 255.805 94.912,254.422 94.884,251.042 94.884 C 247.661 94.884,246.279 94.912,247.969 94.947 M214.675 102.083 C 214.675 105.464,214.704 106.846,214.739 105.156 C 214.774 103.466,214.774 100.701,214.739 99.010 C 214.704 97.320,214.675 98.703,214.675 102.083 M153.802 102.227 C 154.003 102.279,154.331 102.279,154.531 102.227 C 154.732 102.175,154.568 102.132,154.167 102.132 C 153.766 102.132,153.602 102.175,153.802 102.227 M165.614 103.906 L 164.896 104.688 165.677 103.970 C 166.404 103.301,166.554 103.125,166.395 103.125 C 166.360 103.125,166.009 103.477,165.614 103.906 M137.867 116.397 C 138.126 116.447,138.501 116.445,138.700 116.393 C 138.900 116.341,138.688 116.300,138.229 116.303 C 137.771 116.305,137.608 116.348,137.867 116.397 M189.260 123.542 C 189.260 127.266,189.288 128.789,189.323 126.927 C 189.357 125.065,189.357 122.018,189.323 120.156 C 189.288 118.294,189.260 119.818,189.260 123.542 M257.791 126.042 C 257.791 127.703,257.823 128.383,257.863 127.552 C 257.903 126.721,257.903 125.362,257.863 124.531 C 257.823 123.701,257.791 124.380,257.791 126.042 M225.893 132.813 C 225.894 133.385,225.935 133.595,225.983 133.278 C 226.031 132.962,226.029 132.493,225.980 132.237 C 225.931 131.980,225.891 132.240,225.893 132.813 M261.110 135.198 C 259.258 135.261,257.695 135.359,257.638 135.417 C 257.580 135.474,259.049 135.491,260.902 135.455 C 262.755 135.419,264.360 135.302,264.469 135.195 C 264.578 135.088,264.624 135.019,264.573 135.042 C 264.521 135.065,262.963 135.135,261.110 135.198 M201.667 205.625 C 201.667 205.740,201.924 205.827,202.240 205.819 C 202.747 205.806,202.765 205.784,202.396 205.625 C 201.827 205.380,201.667 205.380,201.667 205.625 M201.354 209.792 C 201.425 209.906,201.688 209.999,201.939 209.997 C 202.310 209.994,202.337 209.956,202.083 209.792 C 201.673 209.526,201.190 209.526,201.354 209.792 M194.792 211.458 C 194.964 211.569,195.245 211.660,195.417 211.660 C 195.694 211.660,195.694 211.638,195.417 211.458 C 195.245 211.347,194.964 211.256,194.792 211.256 C 194.514 211.256,194.514 211.279,194.792 211.458 M200.833 211.875 C 200.607 212.021,200.780 212.074,201.458 212.066 C 202.172 212.057,202.296 212.011,201.979 211.875 C 201.421 211.635,201.204 211.635,200.833 211.875 M200.625 212.917 C 200.228 213.044,200.376 213.085,201.250 213.090 C 202.069 213.094,202.277 213.045,201.979 212.917 C 201.476 212.701,201.300 212.701,200.625 212.917 M200.052 213.693 C 200.482 213.738,201.185 213.738,201.615 213.693 C 202.044 213.648,201.693 213.612,200.833 213.612 C 199.974 213.612,199.622 213.648,200.052 213.693 M201.193 214.525 C 201.563 214.571,202.219 214.572,202.652 214.527 C 203.084 214.482,202.781 214.444,201.979 214.443 C 201.177 214.442,200.823 214.479,201.193 214.525 M202.760 215.769 C 202.961 215.821,203.125 215.942,203.125 216.037 C 203.125 216.133,203.336 216.155,203.594 216.086 C 204.102 215.951,203.486 215.661,202.708 215.670 C 202.503 215.672,202.520 215.706,202.760 215.769 M204.588 216.456 C 204.461 216.534,204.689 216.611,205.095 216.626 C 205.501 216.641,205.833 216.621,205.833 216.580 C 205.833 216.423,204.806 216.321,204.588 216.456 M204.792 217.155 C 204.964 217.298,205.216 217.541,205.353 217.696 C 205.554 217.923,205.580 217.895,205.490 217.549 C 205.428 217.314,205.176 217.071,204.929 217.009 C 204.547 216.913,204.526 216.935,204.792 217.155 M205.833 218.311 C 205.833 218.575,206.655 219.040,206.823 218.871 C 206.890 218.804,206.842 218.750,206.716 218.750 C 206.591 218.750,206.341 218.603,206.161 218.423 C 205.981 218.243,205.833 218.192,205.833 218.311 M190.048 222.500 C 190.048 222.901,190.091 223.065,190.144 222.865 C 190.196 222.664,190.196 222.336,190.144 222.135 C 190.091 221.935,190.048 222.099,190.048 222.500 M204.883 224.219 L 204.271 224.896 204.910 224.320 C 205.262 224.003,205.629 223.816,205.725 223.903 C 205.821 223.991,205.833 223.945,205.750 223.802 C 205.552 223.458,205.584 223.443,204.883 224.219 M196.785 224.359 C 196.440 224.740,196.440 224.757,196.788 224.706 C 196.988 224.677,197.176 224.497,197.204 224.306 C 197.269 223.865,197.228 223.870,196.785 224.359 M205.101 224.798 C 204.801 224.907,204.902 224.950,205.469 224.954 C 205.898 224.956,206.250 224.932,206.250 224.899 C 206.250 224.736,205.463 224.667,205.101 224.798 " stroke="none" fill="#949494" fill-rule="evenodd"></path><path id="path5" d="M259.667 79.583 C 259.667 81.359,259.699 82.086,259.738 81.198 C 259.777 80.310,259.777 78.857,259.738 77.969 C 259.699 77.081,259.667 77.807,259.667 79.583 M279.890 95.521 C 279.890 102.510,279.916 105.340,279.948 101.808 C 279.980 98.276,279.980 92.557,279.948 89.100 C 279.916 85.642,279.890 88.531,279.890 95.521 M199.453 214.939 C 199.602 215.088,201.279 215.036,201.441 214.877 C 201.489 214.830,201.028 214.792,200.417 214.792 C 199.806 214.792,199.372 214.858,199.453 214.939 " stroke="none" fill="#8c8c8c" fill-rule="evenodd"></path></g></svg>