<svg id="svg" version="1.1" xmlns="http://www.w3.org/2000/svg" xmlns:xlink="http://www.w3.org/1999/xlink" width="400" height="225" viewBox="0, 0, 400,225"><g id="svgg"><path id="path0" d="M151.354 76.042 C 140.526 77.996,134.611 89.661,139.470 99.479 C 147.148 114.994,170.417 109.467,170.417 92.128 C 170.417 82.127,161.117 74.280,151.354 76.042 M190.350 76.055 C 178.881 77.374,172.385 89.696,177.727 100.000 C 182.158 108.548,193.220 111.328,201.345 105.934 C 201.980 105.513,202.500 105.079,202.500 104.970 C 202.500 104.718,198.707 100.390,198.553 100.466 C 198.489 100.498,197.922 100.795,197.292 101.126 C 190.010 104.959,181.570 98.884,182.897 90.765 C 183.918 84.514,190.655 80.761,196.458 83.209 C 197.203 83.524,197.938 83.797,198.091 83.817 C 198.687 83.896,202.284 79.516,201.940 79.129 C 200.290 77.275,194.074 75.627,190.350 76.055 M111.458 92.281 L 111.458 108.125 114.583 108.125 L 117.708 108.125 117.708 101.762 L 117.708 95.399 119.317 95.460 L 120.925 95.521 123.848 101.816 L 126.771 108.110 130.136 108.118 L 133.502 108.125 130.397 101.436 C 126.845 93.784,127.098 94.546,127.969 94.123 C 134.557 90.918,134.162 80.721,127.319 77.337 L 125.752 76.563 118.605 76.500 L 111.458 76.438 111.458 92.281 M208.333 92.292 L 208.333 108.125 211.458 108.125 L 214.583 108.125 214.583 102.129 L 214.583 96.133 215.846 94.889 C 216.956 93.796,217.138 93.687,217.356 93.986 C 217.493 94.174,219.337 97.431,221.454 101.226 L 225.304 108.125 229.006 108.125 C 231.042 108.125,232.708 108.087,232.708 108.040 C 232.708 107.992,230.286 103.844,227.324 98.821 C 224.363 93.797,221.829 89.478,221.693 89.221 C 221.464 88.788,221.820 88.339,226.722 82.867 C 229.623 79.629,232.069 76.862,232.157 76.719 C 232.282 76.514,231.428 76.458,228.142 76.458 L 223.968 76.458 219.432 81.458 C 216.937 84.208,214.826 86.458,214.740 86.458 C 214.654 86.458,214.583 84.208,214.583 81.458 L 214.583 76.458 211.458 76.458 L 208.333 76.458 208.333 92.292 M238.542 92.292 L 238.542 108.125 249.063 108.125 L 259.583 108.125 259.583 105.000 L 259.583 101.875 252.182 101.875 L 244.782 101.875 244.839 98.385 L 244.896 94.896 250.990 94.841 L 257.083 94.785 257.083 91.664 L 257.083 88.542 250.938 88.542 L 244.792 88.542 244.792 85.625 L 244.792 82.708 252.188 82.708 L 259.583 82.708 259.583 79.583 L 259.583 76.458 249.063 76.458 L 238.542 76.458 238.542 92.292 M264.792 79.583 L 264.792 82.708 269.167 82.708 L 273.542 82.708 273.542 95.417 L 273.542 108.125 276.667 108.125 L 279.792 108.125 279.792 95.417 L 279.792 82.708 284.167 82.708 L 288.542 82.708 288.542 79.583 L 288.542 76.458 276.667 76.458 L 264.792 76.458 264.792 79.583 M156.555 82.611 C 163.999 84.550,166.546 93.825,161.123 99.248 C 155.661 104.710,146.434 102.160,144.477 94.647 C 142.610 87.479,149.372 80.740,156.555 82.611 M125.000 83.177 C 126.428 84.152,126.892 86.177,125.990 87.502 C 124.999 88.957,124.701 89.055,121.027 89.133 L 117.708 89.203 117.708 85.956 L 117.708 82.708 121.011 82.708 C 124.093 82.708,124.359 82.740,125.000 83.177 M233.475 116.472 C 226.530 117.270,220.996 122.226,219.346 129.123 C 218.509 132.622,219.211 138.460,220.529 138.961 C 221.454 139.313,223.379 139.222,224.630 138.767 C 225.286 138.528,226.091 138.333,226.418 138.333 C 227.274 138.333,227.292 138.246,226.726 136.845 C 222.979 127.568,231.639 120.047,241.176 124.296 C 241.668 124.516,245.415 119.939,245.065 119.546 C 243.416 117.692,237.199 116.044,233.475 116.472 M135.472 116.766 C 131.096 117.999,128.333 121.390,128.333 125.529 L 128.333 126.595 129.948 126.840 C 130.836 126.975,132.323 127.085,133.252 127.085 L 134.942 127.083 134.733 126.171 C 133.890 122.483,138.858 121.558,143.644 124.512 C 144.508 125.045,145.269 125.425,145.337 125.358 C 145.404 125.290,146.149 124.127,146.992 122.774 L 148.525 120.313 147.981 119.863 C 144.757 117.198,138.998 115.772,135.472 116.766 M165.368 123.583 C 161.614 130.959,161.709 130.582,163.581 130.610 C 164.119 130.618,164.609 130.706,164.669 130.804 C 164.730 130.903,165.489 131.047,166.356 131.126 C 167.222 131.204,168.051 131.315,168.197 131.371 C 168.361 131.434,168.653 131.069,168.955 130.424 C 169.573 129.104,169.582 129.106,170.275 130.698 L 170.852 132.021 173.482 132.064 C 174.929 132.088,176.261 132.182,176.442 132.274 C 176.623 132.366,177.069 132.498,177.433 132.567 L 178.094 132.692 177.597 131.606 C 177.323 131.009,175.658 127.474,173.898 123.750 L 170.697 116.979 169.745 116.917 L 168.793 116.854 165.368 123.583 M189.375 125.917 L 189.375 134.958 190.365 135.178 C 190.909 135.299,191.964 135.453,192.708 135.520 C 193.453 135.587,194.414 135.693,194.844 135.756 L 195.625 135.870 195.625 126.372 L 195.625 116.875 192.500 116.875 L 189.375 116.875 189.375 125.917 M207.500 127.486 L 207.500 138.097 208.906 138.028 C 209.680 137.990,211.086 137.950,212.031 137.938 L 213.750 137.917 213.750 127.396 L 213.750 116.875 210.625 116.875 L 207.500 116.875 207.500 127.486 M251.458 127.527 L 251.458 138.178 252.253 138.051 C 252.690 137.981,253.639 137.735,254.363 137.504 C 255.087 137.273,256.130 137.083,256.682 137.083 L 257.684 137.083 257.748 136.198 L 257.813 135.313 263.125 135.193 C 266.773 135.111,268.682 134.986,269.219 134.794 L 270.000 134.513 270.000 131.736 L 270.000 128.958 263.854 128.958 L 257.708 128.958 257.708 126.042 L 257.708 123.125 265.208 123.125 L 272.708 123.125 272.708 120.000 L 272.708 116.875 262.083 116.875 L 251.458 116.875 251.458 127.527 M199.690 194.460 C 199.279 195.195,198.583 196.625,198.143 197.638 C 197.703 198.650,196.964 200.229,196.502 201.146 C 196.039 202.063,195.506 203.422,195.316 204.167 C 195.126 204.911,194.563 206.740,194.065 208.229 C 192.540 212.789,191.440 217.975,190.740 223.906 C 190.615 224.967,190.626 225.000,191.129 225.000 C 191.713 225.000,191.614 225.351,192.302 220.833 C 192.829 217.372,192.828 217.375,193.235 217.713 C 193.706 218.104,205.002 218.002,206.575 217.592 C 207.210 217.427,207.815 217.292,207.921 217.292 C 208.314 217.292,209.583 223.105,209.583 224.903 C 209.583 224.956,209.771 225.000,210.000 225.000 C 210.537 225.000,210.537 224.579,210.001 221.354 C 209.552 218.656,209.350 217.845,207.746 212.292 C 207.167 210.286,206.450 207.680,206.153 206.500 C 205.520 203.988,204.972 202.556,202.564 197.135 C 200.532 192.560,200.677 192.696,199.690 194.460 M202.063 197.153 C 203.353 200.088,205.370 206.074,206.146 209.271 C 206.452 210.531,206.981 212.445,207.320 213.525 C 208.181 216.260,208.126 216.497,206.563 216.824 C 203.777 217.406,196.949 217.335,193.958 216.692 C 192.837 216.451,192.852 216.343,195.203 207.803 C 195.688 206.040,196.557 203.651,197.388 201.796 C 198.147 200.102,199.049 198.008,199.392 197.144 C 200.732 193.771,200.576 193.770,202.063 197.153 M202.917 208.125 C 202.504 208.257,202.483 208.292,202.813 208.292 C 203.042 208.292,203.464 208.217,203.750 208.125 C 204.162 207.993,204.184 207.958,203.854 207.958 C 203.625 207.958,203.203 208.033,202.917 208.125 M203.177 209.102 C 203.378 209.154,203.706 209.154,203.906 209.102 C 204.107 209.050,203.943 209.007,203.542 209.007 C 203.141 209.007,202.977 209.050,203.177 209.102 M203.284 210.147 C 203.543 210.197,203.918 210.195,204.117 210.143 C 204.316 210.091,204.104 210.050,203.646 210.053 C 203.188 210.055,203.025 210.098,203.284 210.147 M202.552 211.394 C 202.753 211.446,203.081 211.446,203.281 211.394 C 203.482 211.341,203.318 211.298,202.917 211.298 C 202.516 211.298,202.352 211.341,202.552 211.394 M203.021 212.083 L 202.188 212.233 202.917 212.237 C 203.318 212.240,203.927 212.171,204.271 212.083 C 205.119 211.868,204.226 211.868,203.021 212.083 M203.284 213.272 C 203.543 213.322,203.918 213.320,204.117 213.268 C 204.316 213.216,204.104 213.175,203.646 213.178 C 203.188 213.180,203.025 213.223,203.284 213.272 M203.125 214.167 C 202.266 214.300,202.249 214.314,202.917 214.332 C 203.318 214.342,204.021 214.273,204.479 214.179 C 205.555 213.956,204.537 213.947,203.125 214.167 M203.438 215.208 L 202.604 215.358 203.333 215.362 C 203.734 215.365,204.344 215.296,204.688 215.208 C 205.535 214.993,204.642 214.993,203.438 215.208 M203.542 216.250 L 202.604 216.396 203.438 216.402 C 203.896 216.406,204.552 216.337,204.896 216.250 C 205.729 216.038,204.906 216.038,203.542 216.250 M204.325 218.481 C 204.584 218.531,204.959 218.529,205.159 218.476 C 205.358 218.424,205.146 218.384,204.688 218.386 C 204.229 218.388,204.066 218.431,204.325 218.481 M202.035 218.693 C 202.409 218.739,202.972 218.738,203.285 218.691 C 203.598 218.643,203.292 218.605,202.604 218.606 C 201.917 218.607,201.661 218.646,202.035 218.693 M199.447 219.382 C 197.429 219.785,194.395 222.218,194.549 223.308 C 194.612 223.752,194.557 223.792,194.028 223.687 L 193.438 223.570 194.010 223.804 C 194.706 224.089,194.769 224.727,194.115 224.853 C 193.857 224.903,194.356 224.956,195.225 224.972 L 196.803 225.000 198.550 222.396 C 199.511 220.964,200.374 219.792,200.468 219.792 C 200.913 219.792,202.083 220.426,202.083 220.668 C 202.083 220.818,201.465 221.865,200.710 222.994 C 199.955 224.123,199.429 225.013,199.542 224.972 C 199.655 224.930,200.325 224.029,201.033 222.969 C 201.740 221.909,202.400 221.042,202.501 221.042 C 202.997 221.042,202.840 221.570,201.933 222.958 C 201.385 223.795,200.863 224.596,200.771 224.740 C 200.640 224.944,201.302 225.000,203.841 225.000 C 207.043 225.000,207.078 224.995,207.029 224.546 C 206.993 224.219,207.125 224.050,207.500 223.942 C 208.020 223.792,208.020 223.791,207.431 223.771 C 206.722 223.746,206.776 223.311,207.515 223.089 C 207.971 222.951,207.959 222.941,207.396 222.979 C 206.960 223.008,206.771 222.926,206.771 222.708 C 206.771 222.536,206.654 222.321,206.510 222.229 C 206.062 221.943,206.222 221.716,207.031 221.490 L 207.813 221.273 206.845 221.386 C 206.142 221.468,205.828 221.419,205.699 221.207 C 205.601 221.046,205.146 220.694,204.688 220.425 C 204.229 220.156,203.760 219.825,203.646 219.688 C 203.374 219.365,200.557 219.160,199.447 219.382 M204.534 219.314 C 204.793 219.364,205.168 219.362,205.367 219.310 C 205.566 219.258,205.354 219.217,204.896 219.219 C 204.438 219.222,204.275 219.264,204.534 219.314 M194.375 219.782 C 194.547 219.898,194.867 219.995,195.087 219.997 C 195.620 220.001,195.454 219.882,194.688 219.710 C 194.231 219.608,194.147 219.628,194.375 219.782 M206.458 220.625 C 206.040 220.759,206.019 220.793,206.354 220.798 C 206.583 220.801,206.958 220.723,207.188 220.625 C 207.718 220.397,207.171 220.397,206.458 220.625 " stroke="none" fill="#f9f8f8" fill-rule="evenodd"></path><path id="path1" d="M0.000 112.500 L 0.000 225.000 95.204 225.000 L 190.409 225.000 190.506 224.531 C 190.559 224.273,190.659 223.500,190.728 222.813 C 191.160 218.477,192.377 212.882,193.935 208.073 C 194.501 206.326,195.121 204.333,195.313 203.646 C 195.505 202.958,195.900 201.927,196.191 201.354 C 196.482 200.781,197.299 199.047,198.008 197.500 C 199.439 194.377,200.291 192.916,200.680 192.919 C 200.927 192.921,201.787 194.750,204.401 200.835 C 205.149 202.577,205.966 204.998,206.543 207.189 C 207.057 209.136,207.822 211.901,208.244 213.333 C 209.499 217.591,209.994 219.675,210.385 222.357 L 210.756 224.896 305.378 224.948 L 400.000 225.000 400.000 112.500 L 400.000 0.000 200.000 0.000 L 0.000 0.000 0.000 112.500 M158.193 76.273 C 169.003 78.955,174.034 91.693,167.995 101.094 C 161.522 111.170,146.780 111.274,140.325 101.290 C 132.151 88.647,143.578 72.648,158.193 76.273 M196.354 76.345 C 198.401 76.898,202.292 78.887,202.292 79.379 C 202.292 79.473,201.397 80.581,200.304 81.843 L 198.315 84.136 197.022 83.535 C 191.392 80.919,184.745 83.901,183.228 89.725 C 181.052 98.082,189.442 104.943,197.112 101.079 L 198.703 100.277 200.653 102.532 C 203.046 105.301,202.977 104.985,201.414 106.001 C 190.246 113.264,175.724 105.565,175.751 92.396 C 175.773 81.536,186.023 73.551,196.354 76.345 M125.250 76.481 C 133.603 78.230,135.617 90.345,128.185 94.136 L 127.323 94.576 130.433 101.270 C 132.143 104.952,133.542 108.048,133.542 108.149 C 133.542 108.454,126.962 108.380,126.726 108.073 C 126.616 107.930,125.232 105.023,123.650 101.615 L 120.773 95.417 119.241 95.417 L 117.708 95.417 117.708 101.771 L 117.708 108.125 114.479 108.125 L 111.250 108.125 111.250 92.188 L 111.250 76.250 117.698 76.250 C 121.619 76.250,124.579 76.341,125.250 76.481 M214.840 81.283 L 214.896 86.315 219.450 81.283 L 224.004 76.250 228.252 76.250 C 230.588 76.250,232.500 76.320,232.500 76.406 C 232.499 76.492,230.064 79.281,227.087 82.604 C 224.111 85.927,221.675 88.740,221.675 88.854 C 221.675 88.969,224.193 93.328,227.270 98.542 L 232.865 108.021 229.200 108.078 C 227.184 108.109,225.434 108.096,225.310 108.049 C 225.186 108.001,223.308 104.771,221.136 100.870 L 217.188 93.778 215.990 94.956 L 214.792 96.133 214.792 102.129 L 214.792 108.125 211.563 108.125 L 208.333 108.125 208.333 92.188 L 208.333 76.250 211.559 76.250 L 214.784 76.250 214.840 81.283 M259.792 79.479 L 259.792 82.708 252.396 82.708 L 245.000 82.708 245.000 85.625 L 245.000 88.542 251.042 88.542 L 257.083 88.542 257.083 91.771 L 257.083 95.000 251.042 95.000 L 245.000 95.000 245.000 98.333 L 245.000 101.667 252.297 101.667 L 259.594 101.667 259.537 104.948 L 259.479 108.229 248.958 108.229 L 238.438 108.229 238.384 92.500 C 238.354 83.849,238.375 76.654,238.429 76.510 C 238.507 76.307,240.847 76.250,249.160 76.250 L 259.792 76.250 259.792 79.479 M288.750 79.479 L 288.750 82.708 284.377 82.708 L 280.003 82.708 279.950 95.469 L 279.896 108.229 276.720 108.287 L 273.545 108.344 273.491 95.578 L 273.438 82.813 269.010 82.756 L 264.583 82.700 264.583 79.475 L 264.583 76.250 276.667 76.250 L 288.750 76.250 288.750 79.479 M151.354 82.793 C 144.065 85.107,141.882 94.186,147.378 99.327 C 155.472 106.899,167.812 97.575,162.797 87.677 C 160.799 83.735,155.504 81.474,151.354 82.793 M117.708 85.833 L 117.708 88.958 120.889 88.958 C 125.262 88.958,126.785 87.968,126.352 85.406 C 125.996 83.294,124.745 82.711,120.573 82.709 L 117.708 82.708 117.708 85.833 M142.396 116.888 C 144.467 117.528,148.542 119.744,148.542 120.229 C 148.542 120.410,145.729 125.134,145.410 125.489 C 145.323 125.586,144.729 125.331,144.091 124.923 C 139.379 121.909,134.792 122.166,134.792 125.443 C 134.792 127.248,135.501 127.823,139.237 129.047 C 146.115 131.300,149.356 134.922,149.130 140.102 C 148.708 149.753,136.364 152.434,127.333 144.837 C 125.958 143.681,125.914 143.809,128.550 141.298 L 130.747 139.205 131.874 140.141 C 136.375 143.879,142.708 143.509,142.708 139.508 C 142.708 137.922,139.776 135.778,136.563 135.015 C 125.964 132.498,125.406 119.202,135.788 116.559 C 137.409 116.146,140.494 116.300,142.396 116.888 M239.479 116.761 C 241.526 117.315,245.417 119.304,245.417 119.796 C 245.417 119.889,244.522 120.998,243.429 122.259 L 241.440 124.553 240.147 123.952 C 234.529 121.341,227.867 124.330,226.353 130.142 C 224.143 138.627,232.879 145.530,240.546 141.356 L 241.822 140.662 243.828 142.972 C 246.191 145.693,246.116 145.397,244.688 146.344 C 233.974 153.456,219.868 146.662,218.841 133.894 C 217.955 122.884,228.807 113.875,239.479 116.761 M178.163 132.500 C 182.256 141.151,185.610 148.349,185.615 148.495 C 185.623 148.702,184.857 148.748,182.135 148.703 L 178.646 148.646 177.203 145.677 L 175.760 142.708 169.286 142.712 L 162.813 142.715 161.269 145.733 L 159.725 148.750 156.229 148.750 C 154.306 148.750,152.696 148.680,152.651 148.594 C 152.606 148.508,154.198 145.250,156.189 141.354 C 158.181 137.458,161.830 130.305,164.298 125.458 L 168.786 116.645 169.753 116.708 L 170.719 116.771 178.163 132.500 M195.668 127.448 C 195.727 137.931,195.741 138.256,196.171 139.185 C 198.281 143.747,204.738 143.771,206.874 139.226 C 207.304 138.312,207.316 138.007,207.356 127.529 L 207.396 116.771 210.625 116.771 L 213.854 116.771 213.908 127.348 C 213.968 139.032,213.913 139.709,212.707 142.159 C 208.139 151.438,194.866 151.424,190.396 142.135 C 189.229 139.708,189.174 139.050,189.170 127.344 L 189.167 116.667 192.387 116.667 L 195.607 116.667 195.668 127.448 M272.708 119.896 L 272.708 123.125 265.313 123.125 L 257.917 123.125 257.917 126.042 L 257.917 128.958 264.063 128.958 L 270.208 128.958 270.208 132.188 L 270.208 135.417 264.063 135.417 L 257.917 135.417 257.917 138.750 L 257.917 142.083 265.208 142.083 L 272.500 142.083 272.500 145.417 L 272.500 148.750 261.979 148.750 L 251.458 148.750 251.458 132.708 L 251.458 116.667 262.083 116.667 L 272.708 116.667 272.708 119.896 M167.848 132.841 C 166.957 134.628,166.267 136.128,166.314 136.175 C 166.361 136.222,167.819 136.235,169.552 136.203 L 172.705 136.146 171.237 133.021 C 170.430 131.302,169.701 129.828,169.619 129.744 C 169.536 129.661,168.739 131.055,167.848 132.841 M200.106 195.955 C 199.779 196.748,198.775 199.071,197.876 201.119 C 196.869 203.412,195.927 205.973,195.423 207.786 C 193.503 214.692,193.105 216.454,193.463 216.463 C 193.564 216.465,194.771 216.603,196.146 216.769 C 200.250 217.264,207.086 216.988,207.732 216.301 C 207.872 216.151,207.651 215.196,206.707 211.875 C 206.463 211.016,205.832 208.766,205.305 206.875 C 204.361 203.485,202.745 199.009,201.393 196.036 L 200.701 194.515 200.106 195.955 M203.333 204.688 C 203.333 204.896,203.125 205.000,202.708 205.000 C 202.111 205.000,201.924 204.813,202.222 204.514 C 202.495 204.241,203.333 204.372,203.333 204.688 M203.699 205.677 C 203.598 205.987,202.083 206.159,202.083 205.861 C 202.083 205.637,202.540 205.479,203.299 205.441 C 203.601 205.426,203.752 205.515,203.699 205.677 M204.116 206.719 C 204.014 207.028,202.083 207.201,202.083 206.902 C 202.083 206.657,202.564 206.515,203.507 206.483 C 203.977 206.466,204.174 206.542,204.116 206.719 M204.375 207.995 C 204.375 208.294,203.507 208.542,202.457 208.542 C 201.553 208.542,201.837 208.048,202.829 207.894 C 204.185 207.684,204.375 207.696,204.375 207.995 M204.515 209.052 C 203.997 209.444,202.108 209.691,201.821 209.404 C 201.489 209.072,202.387 208.810,203.958 208.781 C 204.800 208.765,204.857 208.793,204.515 209.052 M205.000 209.976 C 205.000 210.249,204.212 210.411,202.865 210.414 C 201.585 210.417,201.216 210.082,202.344 209.942 C 203.670 209.778,205.000 209.795,205.000 209.976 M196.875 210.417 C 196.875 210.531,196.734 210.625,196.563 210.625 C 196.391 210.625,196.250 210.531,196.250 210.417 C 196.250 210.302,196.391 210.208,196.563 210.208 C 196.734 210.208,196.875 210.302,196.875 210.417 M205.417 211.024 C 205.417 211.263,203.585 211.667,202.502 211.667 C 201.323 211.667,201.282 211.299,202.444 211.143 C 202.990 211.069,203.531 210.977,203.646 210.938 C 204.104 210.781,205.417 210.845,205.417 211.024 M196.571 211.264 C 196.647 211.386,196.666 211.529,196.613 211.581 C 196.468 211.727,195.833 211.439,195.833 211.228 C 195.833 210.967,196.405 210.995,196.571 211.264 M205.484 211.891 C 204.979 212.396,201.458 212.757,201.458 212.304 C 201.458 212.197,201.904 212.049,202.448 211.976 C 202.992 211.902,203.531 211.810,203.646 211.771 C 204.203 211.580,205.697 211.678,205.484 211.891 M196.563 212.292 C 196.636 212.410,196.460 212.500,196.158 212.500 C 195.865 212.500,195.625 212.406,195.625 212.292 C 195.625 212.177,195.807 212.083,196.029 212.083 C 196.252 212.083,196.492 212.177,196.563 212.292 M205.833 212.894 C 205.833 213.340,202.528 213.845,201.543 213.550 C 200.789 213.325,200.774 213.331,202.917 213.021 C 205.189 212.692,205.833 212.664,205.833 212.894 M196.458 213.333 C 196.458 213.448,196.276 213.542,196.054 213.542 C 195.832 213.542,195.592 213.448,195.521 213.333 C 195.448 213.215,195.623 213.125,195.925 213.125 C 196.218 213.125,196.458 213.219,196.458 213.333 M206.198 213.802 C 206.076 214.170,204.323 214.540,202.587 214.563 C 200.297 214.594,200.560 214.306,203.160 213.934 C 206.227 213.496,206.301 213.493,206.198 213.802 M196.146 214.167 C 196.219 214.285,196.044 214.375,195.741 214.375 C 195.448 214.375,195.208 214.281,195.208 214.167 C 195.208 214.052,195.390 213.958,195.613 213.958 C 195.835 213.958,196.075 214.052,196.146 214.167 M206.410 214.832 C 206.257 215.291,201.926 216.010,201.029 215.725 C 200.309 215.497,200.718 215.363,203.282 214.991 C 206.400 214.539,206.510 214.533,206.410 214.832 M195.991 215.156 C 196.109 215.516,195.581 215.483,195.092 215.099 C 194.706 214.797,194.716 214.785,195.296 214.839 C 195.631 214.870,195.944 215.013,195.991 215.156 M206.667 215.824 C 206.667 216.344,200.845 217.178,200.389 216.722 C 200.134 216.467,199.980 216.503,203.646 215.980 C 206.309 215.600,206.667 215.582,206.667 215.824 M195.920 216.013 C 195.980 216.111,195.984 216.238,195.927 216.295 C 195.763 216.459,194.792 216.221,194.792 216.017 C 194.792 215.780,195.773 215.776,195.920 216.013 M207.355 217.906 C 207.201 218.495,205.408 218.835,202.396 218.845 C 199.553 218.855,198.298 218.551,200.208 218.315 C 200.891 218.230,199.837 218.179,197.604 218.188 C 195.542 218.197,193.655 218.137,193.412 218.055 C 192.988 217.912,192.952 218.027,192.516 220.880 C 192.266 222.516,192.012 224.112,191.952 224.427 C 191.848 224.967,191.885 225.000,192.600 225.000 C 193.052 225.000,193.306 224.916,193.229 224.792 C 193.154 224.670,193.366 224.583,193.738 224.583 C 194.552 224.583,194.558 224.271,193.750 223.990 C 192.921 223.701,192.915 223.239,193.742 223.405 C 194.525 223.561,194.734 223.260,194.056 222.952 C 193.366 222.637,193.378 222.206,194.072 222.380 C 194.916 222.591,195.176 222.249,194.376 221.980 C 193.641 221.732,193.275 221.250,193.823 221.250 C 193.997 221.250,194.396 221.347,194.709 221.466 C 195.216 221.659,195.360 221.605,196.025 220.963 C 197.512 219.530,198.286 219.287,201.875 219.131 C 203.651 219.054,205.667 218.930,206.354 218.856 C 207.500 218.733,207.571 218.748,207.209 219.041 C 206.992 219.217,206.263 219.424,205.590 219.500 C 204.917 219.576,204.306 219.734,204.234 219.852 C 204.147 219.992,204.345 220.014,204.811 219.915 C 206.553 219.548,207.842 219.531,207.408 219.882 C 207.054 220.168,207.047 220.208,207.356 220.208 C 208.071 220.208,207.685 220.780,206.823 220.997 L 205.938 221.220 206.954 221.103 C 208.165 220.964,208.232 221.367,207.071 221.802 L 206.354 222.071 207.135 221.950 C 207.963 221.821,208.329 222.362,207.552 222.565 C 207.278 222.636,207.304 222.666,207.656 222.684 C 207.914 222.697,208.125 222.805,208.125 222.923 C 208.125 223.042,207.914 223.223,207.656 223.327 C 207.210 223.506,207.216 223.516,207.778 223.528 C 208.441 223.543,208.455 224.015,207.795 224.135 C 207.097 224.261,207.042 224.517,207.735 224.416 C 208.286 224.335,208.377 224.376,208.269 224.659 C 208.165 224.929,208.271 225.000,208.777 225.000 L 209.416 225.000 209.271 223.698 C 208.771 219.201,207.791 216.239,207.355 217.906 M195.295 218.668 C 195.569 218.773,195.788 219.375,195.552 219.375 C 195.232 219.375,194.167 218.879,194.167 218.730 C 194.167 218.515,194.806 218.480,195.295 218.668 M195.487 219.790 C 195.778 220.062,195.237 220.248,194.578 220.103 C 194.227 220.026,193.958 219.832,193.958 219.654 C 193.958 219.329,195.102 219.431,195.487 219.790 M198.812 222.344 C 198.017 223.518,197.298 224.596,197.213 224.740 C 197.098 224.934,197.325 225.000,198.107 225.000 L 199.156 225.000 200.419 223.121 C 201.911 220.902,202.029 220.642,201.645 220.399 C 200.752 219.834,200.299 220.145,198.812 222.344 M205.625 220.417 C 205.213 220.549,205.191 220.583,205.521 220.583 C 205.750 220.583,206.172 220.508,206.458 220.417 C 206.871 220.285,206.892 220.250,206.563 220.250 C 206.333 220.250,205.911 220.325,205.625 220.417 M195.087 220.543 C 195.268 220.613,195.417 220.753,195.417 220.856 C 195.417 221.152,194.493 221.071,194.050 220.736 C 193.603 220.398,194.347 220.259,195.087 220.543 M202.153 221.720 C 201.269 222.709,199.890 225.000,200.178 225.000 C 200.295 225.000,200.920 224.196,201.567 223.213 C 202.720 221.462,202.984 220.789,202.153 221.720 " stroke="none" fill="#343434" fill-rule="evenodd"></path><path id="path2" d="M128.497 126.781 C 128.281 126.996,128.771 128.627,129.412 129.829 C 130.646 132.144,133.551 134.184,136.771 134.997 C 140.735 135.997,143.247 138.266,142.676 140.332 C 141.739 143.728,136.163 143.712,131.975 140.301 L 130.810 139.352 129.207 140.803 C 128.326 141.601,127.296 142.575,126.920 142.967 L 126.236 143.680 127.233 144.609 C 130.558 147.710,134.081 149.057,138.870 149.060 L 141.802 149.063 143.588 148.178 C 148.837 145.577,150.713 139.474,147.705 134.787 C 146.135 132.339,142.920 130.244,138.747 128.947 C 137.626 128.599,136.274 128.026,135.743 127.674 C 134.860 127.089,134.665 127.043,133.482 127.136 C 132.770 127.192,131.438 127.109,130.521 126.952 C 128.612 126.626,128.649 126.629,128.497 126.781 M157.282 139.387 C 154.824 144.207,152.781 148.238,152.743 148.346 C 152.701 148.463,154.099 148.542,156.231 148.542 L 159.789 148.542 161.250 145.625 L 162.711 142.708 169.286 142.708 L 175.862 142.708 177.239 145.625 L 178.616 148.542 182.116 148.542 L 185.616 148.542 185.361 147.969 C 185.221 147.654,183.556 144.118,181.661 140.111 L 178.215 132.827 177.285 132.536 C 176.229 132.206,171.042 131.975,171.042 132.258 C 171.042 132.359,171.417 133.243,171.875 134.221 C 172.333 135.199,172.708 136.055,172.708 136.124 C 172.708 136.194,171.208 136.250,169.373 136.250 L 166.038 136.250 167.186 133.962 C 167.817 132.703,168.333 131.638,168.333 131.595 C 168.333 131.552,167.888 131.457,167.344 131.384 C 166.799 131.311,165.604 131.112,164.688 130.942 C 161.527 130.356,162.393 129.369,157.282 139.387 M268.870 134.912 C 267.702 135.340,267.710 135.417,268.924 135.417 C 269.861 135.417,270.000 135.363,270.000 135.000 C 270.000 134.517,269.958 134.514,268.870 134.912 M189.237 135.326 C 188.846 136.345,189.562 140.135,190.537 142.204 C 195.392 152.512,211.130 150.673,213.559 139.514 C 213.891 137.989,213.737 137.851,211.875 138.008 C 211.130 138.071,209.842 138.123,209.013 138.124 L 207.506 138.125 206.887 139.351 C 204.100 144.872,195.625 143.072,195.625 136.958 C 195.625 135.873,195.271 135.719,192.292 135.512 C 191.203 135.437,190.155 135.290,189.962 135.187 C 189.480 134.930,189.381 134.949,189.237 135.326 M254.688 137.516 C 254.000 137.747,253.016 138.003,252.500 138.085 L 251.563 138.234 251.507 143.388 L 251.451 148.542 261.976 148.542 L 272.500 148.542 272.500 145.417 L 272.500 142.292 265.215 142.292 L 257.929 142.292 257.871 139.740 L 257.813 137.188 256.875 137.142 C 256.359 137.117,255.375 137.285,254.688 137.516 M224.479 138.858 C 222.855 139.432,221.932 139.489,220.798 139.084 L 220.033 138.811 220.240 139.353 C 223.754 148.600,236.669 152.101,244.957 146.054 L 245.851 145.402 243.936 143.215 C 241.585 140.530,241.966 140.708,240.369 141.541 C 236.492 143.562,231.684 142.771,228.594 139.603 C 227.139 138.112,226.776 138.046,224.479 138.858 " stroke="none" fill="#fa3535" fill-rule="evenodd"></path><path id="path3" d="M209.958 76.405 C 210.909 76.444,212.409 76.444,213.291 76.405 C 214.174 76.366,213.396 76.334,211.563 76.334 C 209.729 76.335,209.007 76.366,209.958 76.405 M226.105 76.406 C 227.343 76.442,229.312 76.442,230.480 76.405 C 231.648 76.368,230.635 76.338,228.229 76.338 C 225.823 76.338,224.867 76.369,226.105 76.406 M238.429 76.510 C 238.375 76.654,238.354 83.849,238.384 92.500 L 238.438 108.229 248.906 108.232 L 259.375 108.235 248.958 108.178 L 238.542 108.121 238.542 92.292 L 238.542 76.462 249.219 76.406 L 259.896 76.350 249.212 76.300 C 240.820 76.261,238.507 76.306,238.429 76.510 M270.573 76.406 C 273.924 76.438,279.409 76.438,282.760 76.406 C 286.112 76.374,283.370 76.348,276.667 76.348 C 269.964 76.348,267.221 76.374,270.573 76.406 M153.597 82.441 C 153.913 82.489,154.382 82.488,154.638 82.438 C 154.895 82.389,154.635 82.350,154.063 82.351 C 153.490 82.353,153.280 82.393,153.597 82.441 M244.874 85.729 C 244.874 87.333,244.907 87.962,244.947 87.126 C 244.986 86.291,244.986 84.978,244.946 84.210 C 244.906 83.441,244.874 84.125,244.874 85.729 M137.557 92.292 C 137.557 92.807,137.597 93.018,137.647 92.760 C 137.697 92.503,137.697 92.081,137.647 91.823 C 137.597 91.565,137.557 91.776,137.557 92.292 M129.883 92.760 L 129.271 93.438 129.948 92.826 C 130.320 92.489,130.625 92.184,130.625 92.149 C 130.625 91.988,130.453 92.129,129.883 92.760 M215.930 94.844 L 214.896 95.938 215.990 94.904 C 216.591 94.335,217.083 93.843,217.083 93.810 C 217.083 93.654,216.890 93.827,215.930 94.844 M244.888 98.333 L 244.896 101.771 252.188 101.775 L 259.479 101.779 252.245 101.720 L 245.010 101.661 244.945 98.279 L 244.879 94.896 244.888 98.333 M141.875 103.399 C 141.875 103.434,142.180 103.739,142.552 104.076 L 143.229 104.688 142.617 104.010 C 142.047 103.379,141.875 103.238,141.875 103.399 M128.490 108.280 C 129.435 108.319,130.982 108.319,131.927 108.280 C 132.872 108.241,132.099 108.210,130.208 108.210 C 128.318 108.210,127.544 108.241,128.490 108.280 M275.052 108.280 C 275.940 108.319,277.393 108.319,278.281 108.280 C 279.169 108.241,278.443 108.209,276.667 108.209 C 274.891 108.209,274.164 108.241,275.052 108.280 M168.673 116.831 C 168.617 116.922,168.916 116.964,169.338 116.924 C 170.626 116.802,170.778 116.716,169.752 116.691 C 169.214 116.678,168.729 116.741,168.673 116.831 M190.791 116.822 C 191.742 116.861,193.242 116.860,194.124 116.821 C 195.007 116.782,194.229 116.751,192.396 116.751 C 190.563 116.751,189.840 116.783,190.791 116.822 M207.389 116.922 C 207.333 117.068,207.313 121.641,207.344 127.083 L 207.400 136.979 207.450 126.927 L 207.500 116.875 210.623 116.875 L 213.746 116.875 213.803 126.823 L 213.860 136.771 213.857 126.771 L 213.854 116.771 210.673 116.713 C 208.242 116.669,207.467 116.719,207.389 116.922 M256.719 116.823 C 259.669 116.855,264.497 116.855,267.448 116.823 C 270.398 116.790,267.984 116.763,262.083 116.763 C 256.182 116.763,253.768 116.790,256.719 116.823 M270.084 132.188 C 270.085 134.021,270.116 134.743,270.155 133.792 C 270.194 132.841,270.194 131.341,270.155 130.459 C 270.116 129.576,270.084 130.354,270.084 132.188 M130.208 131.315 C 130.208 131.351,130.513 131.656,130.885 131.992 L 131.563 132.604 130.951 131.927 C 130.380 131.296,130.208 131.154,130.208 131.315 M129.989 139.948 L 129.271 140.729 130.052 140.011 C 130.482 139.616,130.833 139.265,130.833 139.230 C 130.833 139.071,130.657 139.221,129.989 139.948 M261.510 142.239 C 263.544 142.273,266.872 142.273,268.906 142.239 C 270.940 142.205,269.276 142.177,265.208 142.177 C 261.141 142.177,259.477 142.205,261.510 142.239 M138.490 142.855 C 138.747 142.905,139.169 142.905,139.427 142.855 C 139.685 142.806,139.474 142.765,138.958 142.765 C 138.443 142.765,138.232 142.806,138.490 142.855 M126.250 143.815 C 126.250 143.851,126.555 144.156,126.927 144.492 L 127.604 145.104 126.992 144.427 C 126.422 143.796,126.250 143.654,126.250 143.815 M192.292 145.065 C 192.292 145.101,192.596 145.406,192.969 145.742 L 193.646 146.354 193.034 145.677 C 192.464 145.046,192.292 144.904,192.292 145.065 M210.091 145.677 L 209.479 146.354 210.156 145.742 C 210.529 145.406,210.833 145.101,210.833 145.065 C 210.833 144.904,210.661 145.046,210.091 145.677 M152.682 148.599 C 152.771 148.688,154.430 148.734,156.370 148.703 L 159.896 148.645 156.208 148.541 C 154.179 148.484,152.593 148.510,152.682 148.599 M180.479 148.697 C 181.487 148.735,183.081 148.735,184.021 148.696 C 184.960 148.658,184.135 148.627,182.188 148.627 C 180.240 148.627,179.471 148.659,180.479 148.697 M256.733 148.698 C 259.692 148.730,264.473 148.730,267.358 148.698 C 270.244 148.665,267.823 148.638,261.979 148.638 C 256.135 148.638,253.775 148.665,256.733 148.698 M202.344 204.935 C 202.544 204.988,202.872 204.988,203.073 204.935 C 203.273 204.883,203.109 204.840,202.708 204.840 C 202.307 204.840,202.143 204.883,202.344 204.935 M202.014 208.056 C 201.683 208.387,201.935 208.539,202.760 208.507 L 203.646 208.472 202.824 208.388 C 202.229 208.327,202.086 208.251,202.304 208.113 C 202.469 208.009,202.503 207.922,202.378 207.920 C 202.254 207.918,202.090 207.979,202.014 208.056 M201.770 209.168 C 201.599 209.444,202.136 209.640,202.745 209.524 C 203.090 209.458,203.019 209.423,202.500 209.400 C 201.947 209.376,201.846 209.320,202.083 209.167 C 202.271 209.045,202.297 208.963,202.148 208.962 C 202.011 208.960,201.841 209.053,201.770 209.168 M201.618 211.480 C 201.800 211.647,204.217 211.856,204.052 211.690 C 203.988 211.627,203.381 211.523,202.701 211.458 C 202.021 211.393,201.533 211.402,201.618 211.480 M201.458 212.342 C 201.458 212.429,202.044 212.489,202.760 212.476 C 204.168 212.450,204.031 212.350,202.448 212.248 C 201.904 212.213,201.458 212.255,201.458 212.342 M201.146 213.333 C 201.075 213.448,201.158 213.542,201.330 213.542 C 201.501 213.542,201.700 213.448,201.771 213.333 C 201.842 213.219,201.759 213.125,201.587 213.125 C 201.415 213.125,201.217 213.219,201.146 213.333 M205.707 213.691 C 206.029 213.774,206.049 213.830,205.811 213.995 C 205.566 214.167,205.567 214.186,205.820 214.117 C 206.338 213.978,206.321 213.540,205.799 213.566 C 205.400 213.586,205.383 213.608,205.707 213.691 M203.075 214.522 C 203.334 214.572,203.709 214.570,203.909 214.518 C 204.108 214.466,203.896 214.425,203.438 214.428 C 202.979 214.430,202.816 214.473,203.075 214.522 M200.844 215.406 C 200.460 215.648,201.377 215.915,202.114 215.775 C 202.437 215.714,202.319 215.667,201.771 215.639 C 201.102 215.604,201.020 215.560,201.354 215.417 C 201.629 215.299,201.664 215.234,201.458 215.226 C 201.286 215.220,201.010 215.301,200.844 215.406 M200.332 216.698 C 200.392 216.795,200.975 216.868,201.627 216.859 C 202.997 216.840,202.868 216.739,201.309 216.610 C 200.711 216.561,200.272 216.601,200.332 216.698 M205.521 217.917 L 204.688 218.066 205.417 218.092 C 205.818 218.107,206.286 218.028,206.458 217.917 C 206.799 217.696,206.751 217.696,205.521 217.917 M196.725 218.070 C 197.273 218.113,198.117 218.113,198.600 218.069 C 199.084 218.025,198.635 217.990,197.604 217.991 C 196.573 217.991,196.177 218.027,196.725 218.070 M201.227 218.217 C 201.177 218.268,200.691 218.332,200.148 218.360 C 199.606 218.388,199.233 218.477,199.320 218.557 C 199.408 218.636,200.604 218.584,201.979 218.439 C 204.437 218.181,204.453 218.177,202.899 218.151 C 202.030 218.137,201.278 218.166,201.227 218.217 M201.205 218.904 C 201.810 218.946,202.748 218.946,203.288 218.903 C 203.829 218.860,203.333 218.826,202.188 218.826 C 201.042 218.827,200.599 218.862,201.205 218.904 M195.293 219.759 C 195.387 219.913,195.267 220.009,194.960 220.024 C 194.573 220.044,194.555 220.068,194.866 220.148 C 195.350 220.273,195.770 219.906,195.403 219.679 C 195.236 219.576,195.197 219.604,195.293 219.759 M206.771 220.208 C 206.842 220.323,207.105 220.410,207.356 220.402 C 207.796 220.388,207.798 220.381,207.396 220.208 C 206.822 219.962,206.619 219.962,206.771 220.208 M205.000 220.365 C 205.000 220.451,205.272 220.521,205.605 220.521 C 205.938 220.521,206.167 220.451,206.114 220.365 C 206.061 220.279,205.788 220.208,205.509 220.208 C 205.229 220.208,205.000 220.279,205.000 220.365 M206.563 221.042 C 206.792 221.140,207.120 221.221,207.292 221.221 C 207.489 221.221,207.450 221.155,207.188 221.042 C 206.958 220.943,206.630 220.863,206.458 220.863 C 206.261 220.863,206.300 220.929,206.563 221.042 M193.542 221.446 C 193.542 221.554,193.650 221.709,193.782 221.791 C 193.925 221.879,193.966 221.848,193.884 221.715 C 193.807 221.591,193.910 221.447,194.112 221.394 C 194.391 221.321,194.367 221.293,194.010 221.274 C 193.753 221.261,193.542 221.338,193.542 221.446 M206.771 221.875 C 207.000 221.973,207.375 222.051,207.604 222.048 C 207.939 222.043,207.919 222.009,207.500 221.875 C 206.788 221.647,206.240 221.647,206.771 221.875 M193.125 223.529 C 193.125 223.637,193.233 223.792,193.366 223.874 C 193.509 223.962,193.550 223.932,193.467 223.798 C 193.391 223.674,193.493 223.530,193.695 223.477 C 193.975 223.405,193.950 223.376,193.594 223.358 C 193.336 223.344,193.125 223.422,193.125 223.529 " stroke="none" fill="#7b7373" fill-rule="evenodd"></path><path id="path4" d="M111.346 76.510 C 111.291 76.654,111.271 83.849,111.302 92.500 L 111.357 108.229 111.408 92.347 L 111.458 76.464 117.760 76.406 L 124.063 76.348 117.754 76.299 C 112.862 76.261,111.423 76.308,111.346 76.510 M214.673 81.458 C 214.673 84.266,214.703 85.414,214.739 84.010 C 214.775 82.607,214.775 80.310,214.739 78.906 C 214.703 77.503,214.673 78.651,214.673 81.458 M264.667 79.583 C 264.667 81.359,264.699 82.086,264.738 81.198 C 264.777 80.310,264.777 78.857,264.738 77.969 C 264.699 77.081,264.667 77.807,264.667 79.583 M288.626 79.583 C 288.626 81.359,288.657 82.086,288.697 81.198 C 288.736 80.310,288.736 78.857,288.697 77.969 C 288.657 77.081,288.626 77.807,288.626 79.583 M142.383 80.677 L 141.771 81.354 142.448 80.742 C 142.820 80.406,143.125 80.101,143.125 80.065 C 143.125 79.904,142.953 80.046,142.383 80.677 M132.757 85.833 C 132.757 86.234,132.800 86.398,132.852 86.198 C 132.904 85.997,132.904 85.669,132.852 85.469 C 132.800 85.268,132.757 85.432,132.757 85.833 M119.228 89.113 C 120.122 89.153,121.528 89.152,122.353 89.113 C 123.179 89.073,122.448 89.041,120.729 89.042 C 119.010 89.042,118.335 89.074,119.228 89.113 M170.485 92.188 C 170.486 92.990,170.524 93.292,170.569 92.860 C 170.614 92.428,170.613 91.771,170.567 91.402 C 170.521 91.032,170.484 91.385,170.485 92.188 M182.771 92.292 C 182.771 92.922,182.810 93.180,182.858 92.865 C 182.905 92.549,182.905 92.034,182.858 91.719 C 182.810 91.404,182.771 91.661,182.771 92.292 M247.969 94.947 C 249.659 94.982,252.424 94.982,254.115 94.947 C 255.805 94.912,254.422 94.884,251.042 94.884 C 247.661 94.884,246.279 94.912,247.969 94.947 M214.675 102.083 C 214.675 105.464,214.704 106.846,214.739 105.156 C 214.774 103.466,214.774 100.701,214.739 99.010 C 214.704 97.320,214.675 98.703,214.675 102.083 M153.802 102.227 C 154.003 102.279,154.331 102.279,154.531 102.227 C 154.732 102.175,154.568 102.132,154.167 102.132 C 153.766 102.132,153.602 102.175,153.802 102.227 M165.614 103.906 L 164.896 104.688 165.677 103.970 C 166.404 103.301,166.554 103.125,166.395 103.125 C 166.360 103.125,166.009 103.477,165.614 103.906 M137.867 116.397 C 138.126 116.447,138.501 116.445,138.700 116.393 C 138.900 116.341,138.688 116.300,138.229 116.303 C 137.771 116.305,137.608 116.348,137.867 116.397 M189.262 126.042 C 189.262 131.141,189.290 133.227,189.323 130.677 C 189.356 128.128,189.356 123.956,189.323 121.406 C 189.290 118.857,189.262 120.943,189.262 126.042 M257.791 126.042 C 257.791 127.703,257.823 128.383,257.863 127.552 C 257.903 126.721,257.903 125.362,257.863 124.531 C 257.823 123.701,257.791 124.380,257.791 126.042 M163.542 130.706 C 163.542 130.750,163.818 130.827,164.156 130.876 C 164.493 130.926,164.722 130.889,164.664 130.796 C 164.561 130.629,163.542 130.547,163.542 130.706 M167.135 131.394 C 167.336 131.446,167.664 131.446,167.865 131.394 C 168.065 131.341,167.901 131.298,167.500 131.298 C 167.099 131.298,166.935 131.341,167.135 131.394 M225.893 132.813 C 225.894 133.385,225.935 133.595,225.983 133.278 C 226.031 132.962,226.029 132.493,225.980 132.237 C 225.931 131.980,225.891 132.240,225.893 132.813 M262.917 135.203 L 257.813 135.313 257.795 136.250 L 257.778 137.188 257.859 136.302 L 257.939 135.417 262.876 135.413 C 265.703 135.412,267.946 135.324,268.125 135.208 C 268.297 135.097,268.344 135.026,268.229 135.050 C 268.115 135.073,265.724 135.142,262.917 135.203 M210.469 138.060 C 210.669 138.113,210.997 138.113,211.198 138.060 C 211.398 138.008,211.234 137.965,210.833 137.965 C 210.432 137.965,210.268 138.008,210.469 138.060 M221.825 139.314 C 222.084 139.364,222.459 139.362,222.659 139.310 C 222.858 139.258,222.646 139.217,222.188 139.219 C 221.729 139.222,221.566 139.264,221.825 139.314 M202.292 205.833 C 202.292 205.948,202.503 206.040,202.760 206.038 C 203.139 206.036,203.169 205.997,202.917 205.833 C 202.513 205.572,202.292 205.572,202.292 205.833 M203.958 208.958 C 204.362 209.219,204.583 209.219,204.583 208.958 C 204.583 208.844,204.372 208.751,204.115 208.753 C 203.736 208.756,203.706 208.795,203.958 208.958 M202.188 209.167 C 202.110 209.292,202.373 209.369,202.852 209.360 C 203.486 209.349,203.562 209.310,203.229 209.167 C 202.657 208.921,202.340 208.921,202.188 209.167 M203.542 209.872 C 203.542 210.048,204.601 210.140,204.705 209.972 C 204.766 209.873,204.529 209.792,204.179 209.792 C 203.828 209.792,203.542 209.828,203.542 209.872 M202.188 210.208 C 202.258 210.323,202.615 210.410,202.981 210.402 C 203.541 210.390,203.580 210.359,203.229 210.208 C 202.648 209.958,202.033 209.958,202.188 210.208 M204.583 211.042 C 204.987 211.303,205.208 211.303,205.208 211.042 C 205.208 210.927,204.997 210.835,204.740 210.837 C 204.361 210.839,204.331 210.878,204.583 211.042 M203.229 211.250 C 203.852 211.518,204.372 211.518,203.958 211.250 C 203.786 211.139,203.458 211.053,203.229 211.059 L 202.813 211.071 203.229 211.250 M204.655 211.903 C 204.931 212.063,205.105 212.061,205.270 211.897 C 205.438 211.729,205.334 211.668,204.885 211.673 C 204.347 211.679,204.318 211.707,204.655 211.903 M202.934 211.950 C 202.982 211.991,203.302 212.088,203.646 212.165 C 204.102 212.267,204.187 212.247,203.958 212.093 C 203.677 211.902,202.725 211.770,202.934 211.950 M203.559 212.992 C 203.804 213.203,204.814 213.329,204.693 213.133 C 204.619 213.014,204.314 212.917,204.015 212.917 C 203.717 212.917,203.511 212.950,203.559 212.992 M201.875 213.333 C 201.651 213.478,201.859 213.532,202.604 213.524 C 203.376 213.515,203.538 213.466,203.229 213.333 C 202.666 213.091,202.249 213.091,201.875 213.333 M203.542 214.167 C 204.254 214.395,204.802 214.395,204.271 214.167 C 204.042 214.068,203.667 213.990,203.438 213.994 C 203.103 213.999,203.123 214.033,203.542 214.167 M201.563 214.375 C 201.633 214.490,201.879 214.583,202.108 214.583 C 202.337 214.583,202.467 214.490,202.396 214.375 C 202.325 214.260,202.080 214.167,201.850 214.167 C 201.621 214.167,201.492 214.260,201.563 214.375 M205.000 215.000 C 205.404 215.261,205.625 215.261,205.625 215.000 C 205.625 214.885,205.414 214.793,205.156 214.795 C 204.777 214.797,204.747 214.837,205.000 215.000 M203.351 215.075 C 203.398 215.116,203.719 215.213,204.063 215.290 C 204.519 215.392,204.603 215.372,204.375 215.218 C 204.094 215.027,203.142 214.895,203.351 215.075 M201.458 215.417 C 201.234 215.562,201.439 215.619,202.188 215.619 C 202.936 215.619,203.141 215.562,202.917 215.417 C 202.745 215.306,202.417 215.215,202.188 215.215 C 201.958 215.215,201.630 215.306,201.458 215.417 M203.559 216.117 C 203.607 216.158,203.927 216.254,204.271 216.331 C 204.727 216.433,204.812 216.414,204.583 216.260 C 204.302 216.069,203.350 215.936,203.559 216.117 M201.354 216.458 C 201.060 216.585,201.306 216.637,202.188 216.637 C 203.069 216.637,203.315 216.585,203.021 216.458 C 202.792 216.360,202.417 216.279,202.188 216.279 C 201.958 216.279,201.583 216.360,201.354 216.458 M199.844 217.238 C 200.617 217.278,201.883 217.278,202.656 217.238 C 203.430 217.198,202.797 217.165,201.250 217.165 C 199.703 217.165,199.070 217.198,199.844 217.238 M200.781 218.071 C 201.497 218.112,202.669 218.112,203.385 218.071 C 204.102 218.030,203.516 217.997,202.083 217.997 C 200.651 217.997,200.065 218.030,200.781 218.071 M206.458 218.125 C 206.458 218.386,206.679 218.386,207.083 218.125 C 207.336 217.962,207.306 217.922,206.927 217.920 C 206.669 217.918,206.458 218.010,206.458 218.125 M205.104 218.333 C 205.683 218.582,206.091 218.582,205.938 218.333 C 205.867 218.219,205.556 218.132,205.248 218.140 C 204.748 218.153,204.732 218.173,205.104 218.333 M202.309 218.411 C 202.357 218.454,202.958 218.544,203.646 218.610 C 204.456 218.688,204.712 218.668,204.375 218.552 C 203.861 218.377,202.140 218.260,202.309 218.411 M200.469 218.685 C 200.669 218.738,200.997 218.738,201.198 218.685 C 201.398 218.633,201.234 218.590,200.833 218.590 C 200.432 218.590,200.268 218.633,200.469 218.685 M206.625 219.000 C 206.819 219.194,206.931 219.194,207.125 219.000 C 207.319 218.806,207.264 218.750,206.875 218.750 C 206.486 218.750,206.431 218.806,206.625 219.000 M205.313 219.167 C 205.935 219.434,206.456 219.434,206.042 219.167 C 205.870 219.056,205.542 218.970,205.313 218.976 L 204.896 218.988 205.313 219.167 M203.542 219.583 C 203.664 219.813,203.814 220.000,203.874 220.000 C 203.934 220.000,203.925 219.906,203.854 219.792 C 203.781 219.673,203.976 219.577,204.311 219.569 C 204.825 219.556,204.846 219.532,204.479 219.375 C 203.680 219.032,203.293 219.118,203.542 219.583 M206.875 219.792 C 207.279 220.053,207.500 220.053,207.500 219.792 C 207.500 219.677,207.289 219.585,207.031 219.587 C 206.652 219.589,206.622 219.628,206.875 219.792 M205.039 220.011 C 204.641 220.171,204.553 220.625,204.920 220.625 C 204.978 220.625,204.967 220.531,204.896 220.417 C 204.765 220.204,205.112 220.137,206.042 220.195 C 206.458 220.220,206.500 220.184,206.250 220.012 C 205.877 219.756,205.676 219.756,205.039 220.011 M195.663 221.266 C 195.283 221.612,195.002 221.963,195.038 222.046 C 195.074 222.130,195.420 221.845,195.805 221.412 C 196.648 220.466,196.599 220.415,195.663 221.266 M205.625 220.925 C 205.625 221.389,205.951 221.481,205.985 221.027 C 206.002 220.806,205.928 220.625,205.820 220.625 C 205.713 220.625,205.625 220.760,205.625 220.925 M202.189 221.248 C 202.113 221.370,202.207 221.398,202.421 221.316 C 202.710 221.205,202.751 221.257,202.628 221.578 C 202.512 221.884,202.533 221.922,202.720 221.737 C 202.970 221.488,202.829 221.042,202.500 221.042 C 202.399 221.042,202.259 221.134,202.189 221.248 M206.253 221.816 C 206.250 222.098,206.908 222.508,207.330 222.486 C 207.481 222.478,207.370 222.364,207.083 222.231 C 206.797 222.099,206.494 221.894,206.409 221.777 C 206.311 221.638,206.255 221.652,206.253 221.816 M193.942 222.775 C 194.049 222.883,194.287 222.866,194.511 222.735 C 194.849 222.538,194.826 222.515,194.326 222.550 C 193.995 222.574,193.834 222.668,193.942 222.775 " stroke="none" fill="#949494" fill-rule="evenodd"></path><path id="path5" d="M259.667 79.583 C 259.667 81.359,259.699 82.086,259.738 81.198 C 259.777 80.310,259.777 78.857,259.738 77.969 C 259.699 77.081,259.667 77.807,259.667 79.583 M279.890 95.521 C 279.890 102.510,279.916 105.340,279.948 101.808 C 279.980 98.276,279.980 92.557,279.948 89.100 C 279.916 85.642,279.890 88.531,279.890 95.521 " stroke="none" fill="#8c8c8c" fill-rule="evenodd"></path></g></svg>