<svg id="svg" version="1.1" xmlns="http://www.w3.org/2000/svg" xmlns:xlink="http://www.w3.org/1999/xlink" width="400" height="225" viewBox="0, 0, 400,225"><g id="svgg"><path id="path0" d="M151.354 76.042 C 140.526 77.996,134.611 89.661,139.470 99.479 C 147.148 114.994,170.417 109.467,170.417 92.128 C 170.417 82.127,161.117 74.280,151.354 76.042 M190.350 76.055 C 178.881 77.374,172.385 89.696,177.727 100.000 C 182.158 108.548,193.220 111.328,201.345 105.934 C 201.980 105.513,202.500 105.079,202.500 104.970 C 202.500 104.718,198.707 100.390,198.553 100.466 C 198.489 100.498,197.922 100.795,197.292 101.126 C 190.010 104.959,181.570 98.884,182.897 90.765 C 183.918 84.514,190.655 80.761,196.458 83.209 C 197.203 83.524,197.938 83.797,198.091 83.817 C 198.687 83.896,202.284 79.516,201.940 79.129 C 200.290 77.275,194.074 75.627,190.350 76.055 M111.458 92.281 L 111.458 108.125 114.583 108.125 L 117.708 108.125 117.708 101.762 L 117.708 95.399 119.317 95.460 L 120.925 95.521 123.848 101.816 L 126.771 108.110 130.136 108.118 L 133.502 108.125 130.397 101.436 C 126.845 93.784,127.098 94.546,127.969 94.123 C 134.557 90.918,134.162 80.721,127.319 77.337 L 125.752 76.563 118.605 76.500 L 111.458 76.438 111.458 92.281 M208.333 92.292 L 208.333 108.125 211.458 108.125 L 214.583 108.125 214.583 102.129 L 214.583 96.133 215.846 94.889 C 216.956 93.796,217.138 93.687,217.356 93.986 C 217.493 94.174,219.337 97.431,221.454 101.226 L 225.304 108.125 229.006 108.125 C 231.042 108.125,232.708 108.087,232.708 108.040 C 232.708 107.992,230.286 103.844,227.324 98.821 C 224.363 93.797,221.829 89.478,221.693 89.221 C 221.464 88.788,221.820 88.339,226.722 82.867 C 229.623 79.629,232.069 76.862,232.157 76.719 C 232.282 76.514,231.428 76.458,228.142 76.458 L 223.968 76.458 219.432 81.458 C 216.937 84.208,214.826 86.458,214.740 86.458 C 214.654 86.458,214.583 84.208,214.583 81.458 L 214.583 76.458 211.458 76.458 L 208.333 76.458 208.333 92.292 M238.542 92.292 L 238.542 108.125 249.063 108.125 L 259.583 108.125 259.583 105.000 L 259.583 101.875 252.182 101.875 L 244.782 101.875 244.839 98.385 L 244.896 94.896 250.990 94.841 L 257.083 94.785 257.083 91.664 L 257.083 88.542 250.938 88.542 L 244.792 88.542 244.792 85.625 L 244.792 82.708 252.188 82.708 L 259.583 82.708 259.583 79.583 L 259.583 76.458 249.063 76.458 L 238.542 76.458 238.542 92.292 M264.792 79.583 L 264.792 82.708 269.167 82.708 L 273.542 82.708 273.542 95.417 L 273.542 108.125 276.667 108.125 L 279.792 108.125 279.792 95.417 L 279.792 82.708 284.167 82.708 L 288.542 82.708 288.542 79.583 L 288.542 76.458 276.667 76.458 L 264.792 76.458 264.792 79.583 M156.555 82.611 C 163.999 84.550,166.546 93.825,161.123 99.248 C 155.661 104.710,146.434 102.160,144.477 94.647 C 142.610 87.479,149.372 80.740,156.555 82.611 M125.000 83.177 C 126.428 84.152,126.892 86.177,125.990 87.502 C 124.999 88.957,124.701 89.055,121.027 89.133 L 117.708 89.203 117.708 85.956 L 117.708 82.708 121.011 82.708 C 124.093 82.708,124.359 82.740,125.000 83.177 M233.475 116.472 C 219.920 118.030,214.449 133.160,223.467 144.146 C 223.504 144.192,224.029 143.905,224.632 143.507 C 225.441 142.974,226.374 142.630,228.185 142.198 C 230.916 141.548,230.890 141.577,229.585 140.587 C 225.086 137.174,224.645 129.895,228.692 125.862 C 231.998 122.568,236.133 122.049,241.176 124.296 C 241.668 124.516,245.415 119.939,245.065 119.546 C 243.416 117.692,237.199 116.044,233.475 116.472 M135.440 116.774 C 130.557 118.146,127.763 122.210,128.487 126.885 C 129.120 130.977,131.380 133.170,136.829 134.979 C 140.559 136.218,142.516 137.615,142.824 139.261 C 142.984 140.110,143.661 140.328,146.937 140.585 C 149.271 140.768,149.167 140.806,149.167 139.767 C 149.167 134.703,145.400 131.003,137.920 128.720 C 135.155 127.877,134.033 126.265,134.930 124.429 C 136.066 122.104,139.800 122.140,143.644 124.512 C 144.508 125.045,145.269 125.425,145.337 125.358 C 145.404 125.290,146.149 124.127,146.992 122.774 L 148.525 120.313 147.981 119.863 C 144.743 117.186,139.003 115.773,135.440 116.774 M167.114 120.145 C 166.207 121.956,163.345 127.590,160.754 132.666 C 155.273 143.400,155.862 141.964,156.823 142.245 C 157.253 142.371,158.617 142.793,159.855 143.183 L 162.106 143.893 162.413 143.301 L 162.719 142.708 169.367 142.708 L 176.015 142.708 176.269 143.412 C 176.497 144.042,176.644 144.141,177.689 144.369 C 178.330 144.508,179.536 144.848,180.369 145.124 C 181.605 145.533,184.167 145.828,184.167 145.561 C 184.167 145.527,181.136 139.081,177.433 131.239 L 170.699 116.979 169.731 116.916 L 168.764 116.853 167.114 120.145 M189.375 127.769 C 189.375 140.645,189.417 140.929,191.791 144.187 L 192.489 145.145 194.317 145.276 C 195.323 145.349,197.177 145.596,198.438 145.826 C 200.863 146.268,204.390 146.367,206.042 146.039 C 206.557 145.937,207.776 145.704,208.750 145.522 C 210.781 145.142,211.126 144.855,212.372 142.500 C 213.737 139.924,213.750 139.780,213.750 127.730 L 213.750 116.875 210.625 116.875 L 207.500 116.875 207.500 127.359 C 207.500 139.154,207.517 139.004,205.982 140.748 C 203.233 143.870,198.205 143.219,196.180 139.479 C 195.736 138.659,195.728 138.471,195.670 127.760 L 195.611 116.875 192.493 116.875 L 189.375 116.875 189.375 127.769 M251.458 128.044 L 251.458 139.214 252.344 139.082 C 252.831 139.010,253.817 138.899,254.536 138.836 C 255.254 138.773,256.238 138.607,256.723 138.467 L 257.604 138.213 257.708 136.763 L 257.813 135.313 263.854 135.200 C 267.177 135.139,269.919 135.068,269.948 135.044 C 269.977 135.020,270.000 133.641,270.000 131.979 L 270.000 128.958 263.854 128.958 L 257.708 128.958 257.708 126.042 L 257.708 123.125 265.208 123.125 L 272.708 123.125 272.708 120.000 L 272.708 116.875 262.083 116.875 L 251.458 116.875 251.458 128.044 M171.278 132.806 C 172.153 134.688,172.817 136.280,172.754 136.343 C 172.612 136.486,166.042 136.498,166.042 136.356 C 166.042 136.148,169.477 129.375,169.580 129.379 C 169.639 129.382,170.403 130.924,171.278 132.806 M199.649 203.385 C 199.339 203.872,198.600 205.349,198.009 206.667 C 197.417 207.984,196.597 209.729,196.187 210.545 C 195.776 211.360,195.250 212.766,195.018 213.670 C 194.787 214.573,194.311 216.094,193.961 217.049 C 192.356 221.431,191.636 225.000,192.356 225.000 C 192.876 225.000,192.834 225.126,194.891 217.396 C 195.655 214.526,196.114 213.271,197.445 210.417 C 197.899 209.443,198.720 207.544,199.268 206.198 C 199.816 204.852,200.324 203.750,200.395 203.750 C 201.000 203.750,204.570 213.519,205.946 218.937 C 206.999 223.086,207.612 224.885,208.001 224.963 C 208.441 225.052,208.503 225.375,207.075 220.137 C 205.240 213.402,204.843 212.251,202.590 207.135 C 200.333 202.011,200.439 202.146,199.649 203.385 M202.969 219.519 C 203.169 219.571,203.497 219.571,203.698 219.519 C 203.898 219.466,203.734 219.423,203.333 219.423 C 202.932 219.423,202.768 219.466,202.969 219.519 M202.344 220.769 C 202.544 220.821,202.872 220.821,203.073 220.769 C 203.273 220.716,203.109 220.673,202.708 220.673 C 202.307 220.673,202.143 220.716,202.344 220.769 M203.177 222.644 C 203.378 222.696,203.706 222.696,203.906 222.644 C 204.107 222.591,203.943 222.548,203.542 222.548 C 203.141 222.548,202.977 222.591,203.177 222.644 M202.552 223.685 C 202.753 223.738,203.081 223.738,203.281 223.685 C 203.482 223.633,203.318 223.590,202.917 223.590 C 202.516 223.590,202.352 223.633,202.552 223.685 M203.333 224.583 C 202.630 224.731,202.627 224.737,203.229 224.740 C 203.573 224.741,204.135 224.671,204.479 224.583 C 205.344 224.363,204.379 224.363,203.333 224.583 " stroke="none" fill="#f9f9f9" fill-rule="evenodd"></path><path id="path1" d="M0.000 112.500 L 0.000 225.000 95.808 225.000 L 191.615 225.000 192.079 222.969 C 192.335 221.852,192.996 219.556,193.550 217.867 C 194.104 216.178,194.751 214.090,194.988 213.226 C 195.225 212.362,195.876 210.744,196.435 209.630 C 196.994 208.516,197.707 206.995,198.021 206.251 C 199.431 202.899,200.333 201.811,200.826 202.865 C 204.101 209.864,205.374 213.248,206.883 218.958 C 207.352 220.734,207.926 222.820,208.159 223.594 L 208.582 225.000 304.291 225.000 L 400.000 225.000 400.000 112.500 L 400.000 0.000 200.000 0.000 L 0.000 0.000 0.000 112.500 M156.529 75.944 C 167.075 77.089,173.685 89.338,169.051 99.148 C 164.124 109.580,150.681 111.997,142.483 103.926 C 132.671 94.264,138.623 77.318,152.349 75.836 C 153.833 75.675,154.122 75.683,156.529 75.944 M196.354 76.345 C 198.357 76.886,202.292 78.885,202.292 79.361 C 202.292 79.444,201.395 80.558,200.300 81.836 L 198.308 84.161 197.253 83.626 C 191.698 80.811,184.765 83.826,183.228 89.725 C 181.052 98.082,189.442 104.943,197.112 101.079 L 198.703 100.277 200.653 102.532 C 203.037 105.290,202.960 104.938,201.407 105.984 C 190.472 113.346,175.758 105.552,175.755 92.396 C 175.752 81.554,186.023 73.551,196.354 76.345 M125.250 76.481 C 133.445 78.197,135.611 89.508,128.576 93.850 L 127.340 94.613 130.441 101.295 C 132.146 104.970,133.542 108.057,133.542 108.155 C 133.542 108.456,126.958 108.376,126.730 108.073 C 126.622 107.930,125.236 105.023,123.650 101.615 L 120.767 95.417 119.238 95.417 L 117.708 95.417 117.708 101.771 L 117.708 108.125 114.479 108.125 L 111.250 108.125 111.250 92.188 L 111.250 76.250 117.698 76.250 C 121.619 76.250,124.579 76.341,125.250 76.481 M214.840 81.283 L 214.896 86.317 219.454 81.283 L 224.011 76.250 228.256 76.250 C 230.590 76.250,232.499 76.320,232.497 76.406 C 232.496 76.492,230.061 79.281,227.086 82.604 C 224.111 85.927,221.677 88.740,221.676 88.854 C 221.676 88.969,224.193 93.328,227.270 98.542 L 232.865 108.021 229.200 108.078 C 227.184 108.109,225.436 108.097,225.315 108.051 C 225.194 108.004,223.316 104.773,221.141 100.871 L 217.188 93.776 215.990 94.954 L 214.792 96.133 214.792 102.129 L 214.792 108.125 211.563 108.125 L 208.333 108.125 208.333 92.188 L 208.333 76.250 211.559 76.250 L 214.784 76.250 214.840 81.283 M259.745 79.531 L 259.803 82.708 252.401 82.708 L 245.000 82.708 245.000 85.625 L 245.000 88.542 251.042 88.542 L 257.083 88.542 257.083 91.771 L 257.083 95.000 251.042 95.000 L 245.000 95.000 245.000 98.333 L 245.000 101.667 252.297 101.667 L 259.594 101.667 259.537 104.948 L 259.479 108.229 248.958 108.229 L 238.438 108.229 238.384 92.500 C 238.354 83.849,238.375 76.653,238.430 76.509 C 238.509 76.301,240.757 76.258,249.109 76.300 L 259.688 76.354 259.745 79.531 M288.750 79.479 L 288.750 82.708 284.377 82.708 L 280.003 82.708 279.950 95.469 L 279.896 108.229 276.720 108.287 L 273.545 108.344 273.491 95.578 L 273.438 82.813 269.010 82.756 L 264.583 82.700 264.583 79.475 L 264.583 76.250 276.667 76.250 L 288.750 76.250 288.750 79.479 M151.354 82.793 C 144.042 85.115,141.860 94.165,147.370 99.320 C 155.479 106.905,167.818 97.586,162.793 87.670 C 160.795 83.728,155.508 81.473,151.354 82.793 M117.708 85.833 L 117.708 88.958 120.889 88.958 C 125.262 88.958,126.785 87.968,126.352 85.406 C 125.996 83.294,124.745 82.711,120.573 82.709 L 117.708 82.708 117.708 85.833 M142.397 116.890 C 144.464 117.527,148.542 119.743,148.542 120.229 C 148.542 120.404,145.737 125.106,145.405 125.489 C 145.320 125.586,144.729 125.331,144.091 124.923 C 139.379 121.909,134.792 122.166,134.792 125.443 C 134.792 127.280,135.337 127.730,139.096 129.000 C 146.159 131.385,149.356 134.923,149.130 140.102 C 148.708 149.753,136.364 152.434,127.333 144.837 C 125.958 143.681,125.914 143.809,128.550 141.298 L 130.747 139.205 131.874 140.141 C 136.353 143.861,142.708 143.509,142.708 139.541 C 142.708 137.903,140.198 135.994,136.875 135.103 C 131.172 133.574,128.438 130.467,128.438 125.516 C 128.438 118.715,135.054 114.626,142.397 116.890 M239.479 116.761 C 241.526 117.315,245.417 119.304,245.417 119.796 C 245.417 119.889,244.518 121.002,243.420 122.269 L 241.423 124.573 240.373 124.041 C 234.823 121.228,227.889 124.246,226.353 130.142 C 224.175 138.503,232.567 145.360,240.244 141.492 L 241.843 140.686 243.838 142.984 C 246.190 145.692,246.116 145.397,244.688 146.344 C 233.936 153.482,219.893 146.658,218.833 133.781 C 217.939 122.912,228.878 113.894,239.479 116.761 M178.158 132.500 C 182.252 141.151,185.607 148.349,185.613 148.495 C 185.622 148.702,184.858 148.748,182.135 148.703 L 178.646 148.646 178.018 147.396 C 177.673 146.708,177.031 145.372,176.592 144.427 L 175.793 142.708 169.303 142.712 L 162.813 142.715 161.269 145.733 L 159.725 148.750 156.229 148.750 C 154.306 148.750,152.696 148.680,152.650 148.594 C 152.604 148.508,154.009 145.625,155.771 142.188 C 157.533 138.750,161.183 131.597,163.881 126.291 L 168.786 116.645 169.750 116.708 L 170.715 116.771 178.158 132.500 M195.625 127.046 C 195.625 135.645,195.678 137.604,195.936 138.472 C 197.452 143.577,204.528 144.118,206.857 139.307 C 207.309 138.374,207.316 138.219,207.356 127.566 L 207.396 116.771 210.625 116.771 L 213.854 116.771 213.911 127.188 C 213.975 138.846,213.900 139.718,212.610 142.280 C 207.976 151.482,194.938 151.398,190.422 142.136 C 189.223 139.676,189.174 139.097,189.170 127.344 L 189.167 116.667 192.396 116.667 L 195.625 116.667 195.625 127.046 M272.708 119.896 L 272.708 123.125 265.313 123.125 L 257.917 123.125 257.917 126.042 L 257.917 128.958 264.063 128.958 L 270.208 128.958 270.208 132.188 L 270.208 135.417 264.063 135.417 L 257.917 135.417 257.917 138.750 L 257.917 142.083 265.208 142.083 L 272.500 142.083 272.500 145.417 L 272.500 148.750 261.979 148.750 L 251.458 148.750 251.458 132.708 L 251.458 116.667 262.083 116.667 L 272.708 116.667 272.708 119.896 M167.861 132.814 C 166.975 134.591,166.250 136.091,166.250 136.148 C 166.250 136.204,167.703 136.250,169.479 136.250 C 171.255 136.250,172.708 136.212,172.708 136.165 C 172.708 136.018,169.612 129.583,169.541 129.583 C 169.503 129.583,168.748 131.037,167.861 132.814 M199.480 206.094 C 199.046 207.154,198.105 209.333,197.387 210.938 C 195.990 214.060,195.343 215.955,194.368 219.777 C 194.030 221.103,193.612 222.700,193.439 223.327 C 193.266 223.953,193.125 224.590,193.125 224.742 C 193.125 225.182,199.845 224.963,203.318 224.409 C 204.857 224.163,206.161 224.009,206.217 224.065 C 206.401 224.248,206.065 224.433,205.055 224.705 L 204.063 224.972 205.781 224.986 C 206.727 224.994,207.500 224.961,207.500 224.913 C 207.500 224.865,207.183 223.810,206.796 222.569 C 206.408 221.328,206.026 219.984,205.945 219.583 C 205.165 215.686,201.034 204.167,200.417 204.167 C 200.335 204.167,199.913 205.034,199.480 206.094 M203.073 214.010 C 202.968 214.326,202.394 214.459,201.921 214.277 C 201.622 214.163,201.617 214.117,201.881 213.950 C 202.339 213.660,203.175 213.703,203.073 214.010 M203.438 215.104 C 203.438 215.219,203.039 215.341,202.552 215.377 C 201.634 215.443,201.310 215.100,202.135 214.935 C 202.843 214.793,203.438 214.871,203.438 215.104 M203.699 216.094 C 203.598 216.402,201.875 216.576,201.875 216.277 C 201.875 216.042,202.345 215.892,203.194 215.858 C 203.581 215.842,203.755 215.923,203.699 216.094 M204.167 217.297 C 204.167 217.793,201.845 218.166,201.566 217.714 C 201.447 217.521,201.773 217.402,202.917 217.222 C 203.898 217.068,204.167 217.084,204.167 217.297 M204.375 218.311 C 204.375 218.575,203.885 218.730,202.558 218.886 C 201.618 218.997,201.420 218.968,201.500 218.730 C 201.653 218.268,204.375 217.871,204.375 218.311 M204.491 219.486 C 204.039 219.828,201.458 219.922,201.458 219.597 C 201.458 219.380,202.276 219.247,203.854 219.207 C 204.812 219.182,204.863 219.204,204.491 219.486 M196.667 219.792 C 196.667 219.906,196.532 220.000,196.366 220.000 C 196.201 220.000,196.008 219.906,195.938 219.792 C 195.867 219.677,196.002 219.583,196.238 219.583 C 196.474 219.583,196.667 219.677,196.667 219.792 M205.000 220.394 C 205.000 220.694,204.372 220.859,202.760 220.985 C 201.031 221.119,200.605 220.737,202.240 220.517 C 202.784 220.444,203.323 220.352,203.438 220.313 C 203.884 220.160,205.000 220.218,205.000 220.394 M196.244 220.617 C 196.413 220.723,196.487 220.874,196.409 220.952 C 196.219 221.143,195.625 220.900,195.625 220.632 C 195.625 220.367,195.841 220.362,196.244 220.617 M205.208 221.228 C 205.208 221.535,204.565 221.698,202.865 221.819 C 201.050 221.949,200.555 221.578,202.240 221.351 C 202.784 221.277,203.323 221.185,203.438 221.146 C 203.889 220.991,205.208 221.052,205.208 221.228 M196.250 221.667 C 196.250 221.781,196.063 221.875,195.833 221.875 C 195.604 221.875,195.417 221.781,195.417 221.667 C 195.417 221.552,195.604 221.458,195.833 221.458 C 196.063 221.458,196.250 221.552,196.250 221.667 M205.625 222.284 C 205.625 222.725,201.911 223.252,201.146 222.919 C 200.623 222.691,200.589 222.702,202.708 222.396 C 205.011 222.063,205.625 222.039,205.625 222.284 M196.250 222.708 C 196.250 222.823,196.016 222.917,195.729 222.917 C 195.443 222.917,195.208 222.823,195.208 222.708 C 195.208 222.594,195.443 222.500,195.729 222.500 C 196.016 222.500,196.250 222.594,196.250 222.708 M205.857 223.229 C 205.859 223.555,204.016 223.916,202.240 223.938 C 199.921 223.967,200.251 223.678,202.969 223.299 C 205.575 222.935,205.855 222.929,205.857 223.229 M195.938 223.542 C 196.011 223.660,195.835 223.750,195.533 223.750 C 195.240 223.750,195.000 223.656,195.000 223.542 C 195.000 223.427,195.182 223.333,195.404 223.333 C 195.627 223.333,195.867 223.427,195.938 223.542 M195.619 224.367 C 195.788 224.473,195.869 224.617,195.800 224.686 C 195.623 224.863,194.583 224.578,194.583 224.352 C 194.583 224.110,195.227 224.119,195.619 224.367 " stroke="none" fill="#343434" fill-rule="evenodd"></path><path id="path2" d="M256.563 138.652 C 256.104 138.817,255.120 138.954,254.375 138.956 C 253.630 138.959,252.669 139.058,252.240 139.178 L 251.458 139.395 251.458 143.968 L 251.458 148.542 261.979 148.542 L 272.500 148.542 272.500 145.417 L 272.500 142.292 265.208 142.292 L 257.917 142.292 257.917 140.313 C 257.917 138.131,257.938 138.156,256.563 138.652 M128.477 141.488 L 126.225 143.600 126.914 144.320 C 129.866 147.402,134.039 149.057,138.870 149.060 L 141.802 149.063 143.588 148.178 C 145.646 147.158,147.144 145.694,148.132 143.736 C 148.758 142.496,149.152 140.845,148.829 140.818 C 148.728 140.809,147.967 140.765,147.137 140.720 C 146.307 140.674,145.074 140.494,144.398 140.319 C 142.808 139.906,142.776 139.910,142.627 140.505 C 141.821 143.716,136.040 143.611,131.990 140.312 C 131.357 139.797,130.814 139.375,130.784 139.375 C 130.754 139.376,129.716 140.326,128.477 141.488 M240.520 141.462 C 238.222 142.793,235.093 143.039,232.420 142.100 C 231.050 141.619,230.747 141.637,227.866 142.366 C 225.958 142.849,223.978 143.797,223.807 144.307 C 223.766 144.433,224.275 144.968,224.939 145.497 C 230.754 150.132,239.052 150.362,244.959 146.052 L 245.855 145.398 243.902 143.180 C 241.614 140.582,241.841 140.697,240.520 141.462 M154.323 145.187 C 153.435 146.891,152.708 148.343,152.708 148.413 C 152.708 148.484,154.301 148.542,156.248 148.542 L 159.788 148.542 160.940 146.245 C 161.738 144.653,162.011 143.921,161.827 143.860 C 161.682 143.811,160.719 143.525,159.688 143.223 C 158.656 142.922,157.434 142.542,156.972 142.379 C 156.510 142.216,156.088 142.085,156.035 142.086 C 155.981 142.088,155.211 143.483,154.323 145.187 M177.408 145.960 C 177.824 146.864,178.265 147.815,178.387 148.073 C 178.604 148.532,178.684 148.542,182.106 148.542 L 185.604 148.542 185.279 147.760 C 184.498 145.884,184.448 145.833,183.363 145.833 C 182.812 145.833,181.478 145.548,180.399 145.200 C 179.320 144.851,178.035 144.510,177.544 144.441 L 176.650 144.316 177.408 145.960 M209.792 145.349 C 209.505 145.395,208.403 145.625,207.343 145.859 C 204.797 146.421,201.367 146.415,198.052 145.843 C 196.694 145.608,194.962 145.417,194.202 145.417 L 192.821 145.417 193.442 146.030 C 196.896 149.445,203.365 150.058,207.813 147.394 C 208.810 146.796,210.833 145.119,210.413 145.237 C 210.358 145.252,210.078 145.303,209.792 145.349 " stroke="none" fill="#fa3636" fill-rule="evenodd"></path><path id="path3" d="M209.958 76.405 C 210.909 76.444,212.409 76.444,213.291 76.405 C 214.174 76.366,213.396 76.334,211.563 76.334 C 209.729 76.335,209.007 76.366,209.958 76.405 M226.105 76.406 C 227.343 76.442,229.312 76.442,230.480 76.405 C 231.648 76.368,230.635 76.338,228.229 76.338 C 225.823 76.338,224.867 76.369,226.105 76.406 M238.429 76.510 C 238.375 76.654,238.354 83.849,238.384 92.500 L 238.438 108.229 248.906 108.232 L 259.375 108.235 248.958 108.178 L 238.542 108.121 238.542 92.292 L 238.542 76.462 249.115 76.406 L 259.688 76.350 249.108 76.300 C 240.799 76.261,238.507 76.306,238.429 76.510 M270.573 76.406 C 273.924 76.438,279.409 76.438,282.760 76.406 C 286.112 76.374,283.370 76.348,276.667 76.348 C 269.964 76.348,267.221 76.374,270.573 76.406 M153.597 82.441 C 153.913 82.489,154.382 82.488,154.638 82.438 C 154.895 82.389,154.635 82.350,154.063 82.351 C 153.490 82.353,153.280 82.393,153.597 82.441 M244.874 85.729 C 244.874 87.333,244.907 87.962,244.947 87.126 C 244.986 86.291,244.986 84.978,244.946 84.210 C 244.906 83.441,244.874 84.125,244.874 85.729 M137.557 92.292 C 137.557 92.807,137.597 93.018,137.647 92.760 C 137.697 92.503,137.697 92.081,137.647 91.823 C 137.597 91.565,137.557 91.776,137.557 92.292 M129.883 92.760 L 129.271 93.438 129.948 92.826 C 130.320 92.489,130.625 92.184,130.625 92.149 C 130.625 91.988,130.453 92.129,129.883 92.760 M215.930 94.844 L 214.896 95.938 215.990 94.904 C 216.591 94.335,217.083 93.843,217.083 93.810 C 217.083 93.654,216.890 93.827,215.930 94.844 M244.888 98.333 L 244.896 101.771 252.188 101.775 L 259.479 101.779 252.245 101.720 L 245.010 101.661 244.945 98.279 L 244.879 94.896 244.888 98.333 M128.490 108.280 C 129.435 108.319,130.982 108.319,131.927 108.280 C 132.872 108.241,132.099 108.210,130.208 108.210 C 128.318 108.210,127.544 108.241,128.490 108.280 M275.052 108.280 C 275.940 108.319,277.393 108.319,278.281 108.280 C 279.169 108.241,278.443 108.209,276.667 108.209 C 274.891 108.209,274.164 108.241,275.052 108.280 M168.673 116.831 C 168.617 116.922,168.916 116.964,169.338 116.924 C 170.626 116.802,170.778 116.716,169.752 116.691 C 169.214 116.678,168.729 116.741,168.673 116.831 M190.791 116.822 C 191.742 116.861,193.242 116.860,194.124 116.821 C 195.007 116.782,194.229 116.751,192.396 116.751 C 190.563 116.751,189.840 116.783,190.791 116.822 M207.389 116.922 C 207.333 117.068,207.313 121.641,207.344 127.083 L 207.400 136.979 207.450 126.927 L 207.500 116.875 210.623 116.875 L 213.746 116.875 213.803 126.823 L 213.860 136.771 213.857 126.771 L 213.854 116.771 210.673 116.713 C 208.242 116.669,207.467 116.719,207.389 116.922 M256.719 116.823 C 259.669 116.855,264.497 116.855,267.448 116.823 C 270.398 116.790,267.984 116.763,262.083 116.763 C 256.182 116.763,253.768 116.790,256.719 116.823 M270.084 132.188 C 270.085 134.021,270.116 134.743,270.155 133.792 C 270.194 132.841,270.194 131.341,270.155 130.459 C 270.116 129.576,270.084 130.354,270.084 132.188 M130.208 131.315 C 130.208 131.351,130.513 131.656,130.885 131.992 L 131.563 132.604 130.951 131.927 C 130.380 131.296,130.208 131.154,130.208 131.315 M129.989 139.948 L 129.271 140.729 130.052 140.011 C 130.482 139.616,130.833 139.265,130.833 139.230 C 130.833 139.071,130.657 139.221,129.989 139.948 M261.510 142.239 C 263.544 142.273,266.872 142.273,268.906 142.239 C 270.940 142.205,269.276 142.177,265.208 142.177 C 261.141 142.177,259.477 142.205,261.510 142.239 M138.700 142.856 C 138.959 142.906,139.334 142.904,139.534 142.851 C 139.733 142.799,139.521 142.759,139.063 142.761 C 138.604 142.763,138.441 142.806,138.700 142.856 M126.250 143.815 C 126.250 143.851,126.555 144.156,126.927 144.492 L 127.604 145.104 126.992 144.427 C 126.422 143.796,126.250 143.654,126.250 143.815 M192.292 145.065 C 192.292 145.101,192.596 145.406,192.969 145.742 L 193.646 146.354 193.034 145.677 C 192.464 145.046,192.292 144.904,192.292 145.065 M210.091 145.677 L 209.479 146.354 210.156 145.742 C 210.529 145.406,210.833 145.101,210.833 145.065 C 210.833 144.904,210.661 145.046,210.091 145.677 M152.682 148.599 C 152.771 148.688,154.430 148.734,156.370 148.703 L 159.896 148.645 156.208 148.541 C 154.179 148.484,152.593 148.510,152.682 148.599 M180.479 148.697 C 181.487 148.735,183.081 148.735,184.021 148.696 C 184.960 148.658,184.135 148.627,182.188 148.627 C 180.240 148.627,179.471 148.659,180.479 148.697 M256.733 148.698 C 259.692 148.730,264.473 148.730,267.358 148.698 C 270.244 148.665,267.823 148.638,261.979 148.638 C 256.135 148.638,253.775 148.665,256.733 148.698 M202.868 214.939 C 203.140 214.991,203.281 215.125,203.200 215.255 C 203.116 215.391,203.158 215.421,203.305 215.330 C 203.664 215.108,203.379 214.787,202.852 214.820 C 202.399 214.848,202.399 214.849,202.868 214.939 M203.596 217.227 C 203.798 217.280,203.901 217.424,203.825 217.548 C 203.742 217.682,203.783 217.712,203.926 217.624 C 204.327 217.377,204.196 217.082,203.698 217.108 C 203.341 217.126,203.317 217.155,203.596 217.227 M201.649 217.774 C 201.743 217.868,202.184 217.913,202.629 217.874 L 203.438 217.804 202.458 217.703 C 201.919 217.648,201.555 217.680,201.649 217.774 M201.597 218.472 C 201.276 218.793,201.507 218.956,202.240 218.925 L 203.021 218.892 202.305 218.805 C 201.778 218.741,201.669 218.668,201.889 218.529 C 202.053 218.425,202.086 218.338,201.962 218.337 C 201.838 218.335,201.674 218.396,201.597 218.472 M195.677 220.677 C 195.784 221.000,196.458 221.153,196.458 220.855 C 196.458 220.736,196.302 220.698,196.112 220.771 C 195.879 220.861,195.814 220.824,195.916 220.660 C 195.998 220.526,195.959 220.417,195.828 220.417 C 195.697 220.417,195.629 220.534,195.677 220.677 M202.517 220.908 C 202.565 220.948,202.932 221.042,203.333 221.116 C 203.846 221.210,203.970 221.189,203.750 221.045 C 203.468 220.859,202.311 220.731,202.517 220.908 M205.499 223.054 C 205.822 223.146,205.841 223.204,205.603 223.370 C 205.383 223.524,205.380 223.556,205.589 223.500 C 205.993 223.393,205.917 223.027,205.480 222.981 C 205.159 222.946,205.162 222.957,205.499 223.054 " stroke="none" fill="#7b7474" fill-rule="evenodd"></path><path id="path4" d="M111.346 76.510 C 111.291 76.654,111.271 83.849,111.302 92.500 L 111.357 108.229 111.408 92.347 L 111.458 76.464 117.760 76.406 L 124.063 76.348 117.754 76.299 C 112.862 76.261,111.423 76.308,111.346 76.510 M214.673 81.458 C 214.673 84.266,214.703 85.414,214.739 84.010 C 214.775 82.607,214.775 80.310,214.739 78.906 C 214.703 77.503,214.673 78.651,214.673 81.458 M264.667 79.583 C 264.667 81.359,264.699 82.086,264.738 81.198 C 264.777 80.310,264.777 78.857,264.738 77.969 C 264.699 77.081,264.667 77.807,264.667 79.583 M288.626 79.583 C 288.626 81.359,288.657 82.086,288.697 81.198 C 288.736 80.310,288.736 78.857,288.697 77.969 C 288.657 77.081,288.626 77.807,288.626 79.583 M142.383 80.677 L 141.771 81.354 142.448 80.742 C 142.820 80.406,143.125 80.101,143.125 80.065 C 143.125 79.904,142.953 80.046,142.383 80.677 M132.757 85.833 C 132.757 86.234,132.800 86.398,132.852 86.198 C 132.904 85.997,132.904 85.669,132.852 85.469 C 132.800 85.268,132.757 85.432,132.757 85.833 M119.228 89.113 C 120.122 89.153,121.528 89.152,122.353 89.113 C 123.179 89.073,122.448 89.041,120.729 89.042 C 119.010 89.042,118.335 89.074,119.228 89.113 M170.485 92.188 C 170.486 92.990,170.524 93.292,170.569 92.860 C 170.614 92.428,170.613 91.771,170.567 91.402 C 170.521 91.032,170.484 91.385,170.485 92.188 M182.771 92.292 C 182.771 92.922,182.810 93.180,182.858 92.865 C 182.905 92.549,182.905 92.034,182.858 91.719 C 182.810 91.404,182.771 91.661,182.771 92.292 M247.969 94.947 C 249.659 94.982,252.424 94.982,254.115 94.947 C 255.805 94.912,254.422 94.884,251.042 94.884 C 247.661 94.884,246.279 94.912,247.969 94.947 M214.675 102.083 C 214.675 105.464,214.704 106.846,214.739 105.156 C 214.774 103.466,214.774 100.701,214.739 99.010 C 214.704 97.320,214.675 98.703,214.675 102.083 M153.802 102.227 C 154.003 102.279,154.331 102.279,154.531 102.227 C 154.732 102.175,154.568 102.132,154.167 102.132 C 153.766 102.132,153.602 102.175,153.802 102.227 M165.614 103.906 L 164.896 104.688 165.677 103.970 C 166.404 103.301,166.554 103.125,166.395 103.125 C 166.360 103.125,166.009 103.477,165.614 103.906 M137.867 116.397 C 138.126 116.447,138.501 116.445,138.700 116.393 C 138.900 116.341,138.688 116.300,138.229 116.303 C 137.771 116.305,137.608 116.348,137.867 116.397 M189.263 127.292 C 189.263 133.078,189.290 135.445,189.323 132.552 C 189.355 129.659,189.355 124.924,189.323 122.031 C 189.290 119.138,189.263 121.505,189.263 127.292 M257.791 126.042 C 257.791 127.703,257.823 128.383,257.863 127.552 C 257.903 126.721,257.903 125.362,257.863 124.531 C 257.823 123.701,257.791 124.380,257.791 126.042 M225.893 132.813 C 225.894 133.385,225.935 133.595,225.983 133.278 C 226.031 132.962,226.029 132.493,225.980 132.237 C 225.931 131.980,225.891 132.240,225.893 132.813 M263.750 135.203 L 257.813 135.313 257.708 136.823 C 257.651 137.654,257.674 138.334,257.760 138.334 C 257.846 138.333,257.917 137.677,257.917 136.875 L 257.917 135.417 263.698 135.413 C 267.071 135.412,269.609 135.326,269.792 135.208 C 269.964 135.097,270.010 135.026,269.896 135.050 C 269.781 135.075,267.016 135.143,263.750 135.203 M169.375 136.250 L 165.938 136.370 169.311 136.414 C 171.384 136.441,172.733 136.378,172.813 136.250 C 172.883 136.135,172.912 136.062,172.877 136.086 C 172.841 136.110,171.266 136.184,169.375 136.250 M255.313 138.750 L 254.479 138.899 255.208 138.926 C 255.609 138.940,256.078 138.861,256.250 138.750 C 256.591 138.530,256.543 138.530,255.313 138.750 M230.459 141.589 C 230.167 141.902,230.303 141.931,230.922 141.688 C 231.233 141.567,231.256 141.505,231.025 141.417 C 230.861 141.354,230.607 141.431,230.459 141.589 M193.285 145.359 C 193.659 145.406,194.222 145.405,194.535 145.357 C 194.848 145.310,194.542 145.272,193.854 145.273 C 193.167 145.274,192.911 145.313,193.285 145.359 M182.660 145.776 C 183.034 145.822,183.597 145.821,183.910 145.774 C 184.223 145.726,183.917 145.688,183.229 145.690 C 182.542 145.691,182.286 145.730,182.660 145.776 M201.979 215.208 C 201.905 215.329,202.098 215.415,202.436 215.413 C 202.890 215.411,202.951 215.365,202.708 215.208 C 202.308 214.950,202.139 214.950,201.979 215.208 M202.083 216.250 C 202.083 216.365,202.341 216.452,202.656 216.444 C 203.164 216.431,203.182 216.409,202.813 216.250 C 202.243 216.005,202.083 216.005,202.083 216.250 M202.708 217.500 C 203.119 217.765,203.601 217.765,203.438 217.500 C 203.367 217.385,203.103 217.293,202.852 217.295 C 202.481 217.297,202.454 217.336,202.708 217.500 M201.875 218.542 C 201.648 218.688,201.819 218.744,202.500 218.744 C 203.181 218.744,203.352 218.688,203.125 218.542 C 202.953 218.431,202.672 218.340,202.500 218.340 C 202.328 218.340,202.047 218.431,201.875 218.542 M203.822 219.403 C 204.098 219.563,204.272 219.561,204.437 219.397 C 204.604 219.229,204.500 219.168,204.052 219.173 C 203.513 219.179,203.485 219.207,203.822 219.403 M201.979 219.583 C 201.901 219.709,202.165 219.786,202.644 219.777 C 203.278 219.765,203.354 219.726,203.021 219.583 C 202.448 219.337,202.131 219.337,201.979 219.583 M203.021 220.625 C 203.644 220.893,204.164 220.893,203.750 220.625 C 203.578 220.514,203.250 220.428,203.021 220.434 L 202.604 220.446 203.021 220.625 M204.542 221.292 C 204.736 221.486,204.847 221.486,205.042 221.292 C 205.236 221.097,205.181 221.042,204.792 221.042 C 204.403 221.042,204.347 221.097,204.542 221.292 M203.125 221.458 C 203.297 221.569,203.578 221.660,203.750 221.660 C 204.028 221.660,204.028 221.638,203.750 221.458 C 203.578 221.347,203.297 221.256,203.125 221.256 C 202.847 221.256,202.847 221.279,203.125 221.458 M203.854 222.500 C 204.428 222.746,204.631 222.746,204.479 222.500 C 204.408 222.385,204.145 222.298,203.894 222.306 C 203.454 222.320,203.452 222.327,203.854 222.500 M201.667 222.708 C 201.442 222.853,201.647 222.910,202.396 222.910 C 203.144 222.910,203.350 222.853,203.125 222.708 C 202.953 222.597,202.625 222.506,202.396 222.506 C 202.167 222.506,201.839 222.597,201.667 222.708 M203.333 223.542 C 203.505 223.653,203.833 223.738,204.063 223.732 L 204.479 223.721 204.063 223.542 C 203.440 223.274,202.919 223.274,203.333 223.542 M201.354 223.750 C 201.279 223.872,201.495 223.958,201.875 223.958 C 202.255 223.958,202.471 223.872,202.396 223.750 C 202.325 223.635,202.091 223.542,201.875 223.542 C 201.659 223.542,201.425 223.635,201.354 223.750 M204.792 224.375 C 205.196 224.636,205.417 224.636,205.417 224.375 C 205.417 224.260,205.206 224.168,204.948 224.170 C 204.569 224.172,204.539 224.212,204.792 224.375 M201.250 224.792 C 200.859 224.917,201.041 224.963,201.979 224.976 C 202.857 224.988,203.136 224.934,202.917 224.792 C 202.553 224.557,201.984 224.557,201.250 224.792 " stroke="none" fill="#949494" fill-rule="evenodd"></path><path id="path5" d="M259.667 79.583 C 259.667 81.359,259.699 82.086,259.738 81.198 C 259.777 80.310,259.777 78.857,259.738 77.969 C 259.699 77.081,259.667 77.807,259.667 79.583 M279.890 95.521 C 279.890 102.510,279.916 105.340,279.948 101.808 C 279.980 98.276,279.980 92.557,279.948 89.100 C 279.916 85.642,279.890 88.531,279.890 95.521 " stroke="none" fill="#8c8c8c" fill-rule="evenodd"></path></g></svg>