<svg id="svg" version="1.1" xmlns="http://www.w3.org/2000/svg" xmlns:xlink="http://www.w3.org/1999/xlink" width="400" height="225" viewBox="0, 0, 400,225"><g id="svgg"><path id="path0" d="M151.771 75.968 C 140.675 77.755,134.531 89.499,139.470 99.479 C 147.148 114.994,170.417 109.467,170.417 92.128 C 170.417 82.314,161.320 74.430,151.771 75.968 M190.350 76.055 C 176.824 77.610,170.990 94.102,180.515 103.857 C 181.719 105.091,182.218 105.234,183.751 104.788 C 184.152 104.672,185.834 104.484,187.490 104.371 C 189.146 104.258,190.594 104.072,190.709 103.958 C 190.823 103.844,191.231 103.750,191.616 103.750 C 192.395 103.750,194.095 103.399,194.596 103.134 C 194.775 103.040,195.970 102.695,197.252 102.369 C 199.708 101.743,199.881 101.602,199.095 100.863 L 198.606 100.404 197.688 100.933 C 190.179 105.259,181.197 98.755,182.986 90.286 C 184.252 84.296,190.836 80.838,196.458 83.209 C 197.203 83.524,197.938 83.797,198.091 83.817 C 198.687 83.896,202.284 79.516,201.940 79.129 C 200.290 77.275,194.074 75.627,190.350 76.055 M111.458 92.281 L 111.458 108.125 114.583 108.125 L 117.708 108.125 117.708 101.762 L 117.708 95.399 119.317 95.460 L 120.925 95.521 123.848 101.816 L 126.771 108.110 130.136 108.118 L 133.502 108.125 130.397 101.436 C 126.845 93.784,127.098 94.546,127.969 94.123 C 134.557 90.918,134.162 80.721,127.319 77.337 L 125.752 76.563 118.605 76.500 L 111.458 76.438 111.458 92.281 M208.333 88.774 C 208.333 100.406,208.354 101.084,208.698 100.983 C 208.898 100.923,209.988 100.584,211.119 100.229 C 212.251 99.874,213.493 99.583,213.880 99.583 L 214.583 99.583 214.583 97.858 L 214.583 96.133 215.831 94.898 C 216.607 94.130,217.151 93.738,217.268 93.863 C 217.372 93.973,218.081 95.188,218.845 96.563 C 220.777 100.042,220.664 99.995,225.454 99.338 L 227.471 99.062 224.759 94.479 C 223.268 91.958,221.913 89.639,221.748 89.324 L 221.449 88.753 226.870 82.706 C 229.852 79.380,232.292 76.613,232.292 76.558 C 232.292 76.503,230.419 76.458,228.130 76.458 L 223.968 76.458 219.432 81.458 C 216.937 84.208,214.826 86.458,214.740 86.458 C 214.654 86.458,214.583 84.208,214.583 81.458 L 214.583 76.458 211.458 76.458 L 208.333 76.458 208.333 88.774 M238.542 87.708 L 238.542 98.958 239.010 98.957 C 239.268 98.956,240.042 98.859,240.729 98.741 C 241.417 98.622,242.608 98.527,243.377 98.528 L 244.776 98.531 244.836 96.713 L 244.896 94.896 250.990 94.841 L 257.083 94.785 257.083 91.664 L 257.083 88.542 250.938 88.542 L 244.792 88.542 244.792 85.625 L 244.792 82.708 252.188 82.708 L 259.583 82.708 259.583 79.583 L 259.583 76.458 249.063 76.458 L 238.542 76.458 238.542 87.708 M264.792 79.583 L 264.792 82.708 269.167 82.708 L 273.542 82.708 273.542 92.067 L 273.542 101.425 274.635 101.783 C 275.237 101.980,276.150 102.362,276.665 102.633 C 277.304 102.969,277.948 103.125,278.696 103.125 L 279.792 103.125 279.792 92.917 L 279.792 82.708 284.167 82.708 L 288.542 82.708 288.542 79.583 L 288.542 76.458 276.667 76.458 L 264.792 76.458 264.792 79.583 M156.555 82.611 C 163.999 84.550,166.546 93.825,161.123 99.248 C 155.661 104.710,146.434 102.160,144.477 94.647 C 142.610 87.479,149.372 80.740,156.555 82.611 M125.000 83.177 C 126.428 84.152,126.892 86.177,125.990 87.502 C 124.999 88.957,124.701 89.055,121.027 89.133 L 117.708 89.203 117.708 85.956 L 117.708 82.708 121.011 82.708 C 124.093 82.708,124.359 82.740,125.000 83.177 M199.274 156.544 C 198.863 157.278,198.167 158.708,197.726 159.721 C 197.286 160.734,196.547 162.313,196.085 163.229 C 195.623 164.146,195.089 165.505,194.898 166.250 C 194.708 166.995,194.098 168.964,193.542 170.625 C 191.536 176.621,190.628 181.909,189.696 193.021 C 189.408 196.458,189.131 199.646,189.081 200.104 C 188.961 201.213,189.332 221.799,189.505 223.594 C 189.635 224.940,189.664 225.000,190.189 225.000 L 190.738 225.000 190.578 222.673 C 190.490 221.393,190.455 220.308,190.501 220.263 C 190.547 220.217,192.278 220.290,194.348 220.426 C 199.337 220.754,206.054 220.602,208.088 220.116 C 209.975 219.665,209.900 219.567,209.613 222.086 C 209.295 224.884,209.301 225.000,209.765 225.000 C 210.241 225.000,210.306 224.265,210.649 214.965 C 211.244 198.844,210.483 185.313,208.629 179.066 C 208.357 178.147,207.566 175.333,206.873 172.813 C 206.179 170.292,205.342 167.385,205.012 166.354 C 204.352 164.292,200.405 155.208,200.168 155.208 C 200.087 155.208,199.684 155.809,199.274 156.544 M201.597 159.360 C 202.929 162.367,204.935 168.289,205.730 171.563 C 206.036 172.823,206.559 174.722,206.893 175.784 C 207.776 178.592,207.767 178.634,206.198 178.982 C 204.436 179.373,196.316 179.376,194.195 178.986 L 192.661 178.704 192.799 177.665 C 192.874 177.093,193.153 175.908,193.417 175.031 C 193.681 174.155,194.064 172.734,194.268 171.875 C 194.934 169.079,195.855 166.405,197.069 163.750 C 197.724 162.318,198.668 160.136,199.167 158.902 C 200.266 156.188,200.186 156.173,201.597 159.360 M201.979 166.875 C 201.607 167.035,201.623 167.056,202.123 167.069 C 202.431 167.077,202.742 166.990,202.813 166.875 C 202.966 166.626,202.558 166.626,201.979 166.875 M202.135 168.060 C 202.336 168.113,202.664 168.113,202.865 168.060 C 203.065 168.008,202.901 167.965,202.500 167.965 C 202.099 167.965,201.935 168.008,202.135 168.060 M202.292 168.958 C 201.824 169.108,201.849 169.127,202.540 169.146 C 202.963 169.157,203.367 169.073,203.438 168.958 C 203.586 168.717,203.044 168.717,202.292 168.958 M202.448 170.355 C 202.706 170.405,203.128 170.405,203.385 170.355 C 203.643 170.306,203.432 170.265,202.917 170.265 C 202.401 170.265,202.190 170.306,202.448 170.355 M202.500 171.250 L 201.771 171.403 202.604 171.416 C 203.063 171.423,203.625 171.348,203.854 171.250 C 204.397 171.017,203.607 171.017,202.500 171.250 M202.396 172.292 C 201.832 172.435,201.862 172.452,202.708 172.461 C 203.224 172.466,203.833 172.390,204.063 172.292 C 204.607 172.058,203.315 172.058,202.396 172.292 M202.833 173.355 C 202.157 173.454,201.548 173.593,201.479 173.666 C 201.313 173.840,203.945 173.537,204.479 173.320 L 204.896 173.151 204.479 173.164 C 204.250 173.170,203.509 173.257,202.833 173.355 M202.604 174.284 L 201.146 174.561 202.500 174.466 C 203.928 174.365,205.622 173.987,204.583 174.001 C 204.297 174.005,203.406 174.132,202.604 174.284 M203.229 175.327 L 201.563 175.601 203.021 175.523 C 203.823 175.481,204.714 175.352,205.000 175.236 C 205.666 174.968,205.294 174.987,203.229 175.327 M202.604 176.368 L 200.938 176.642 202.604 176.548 C 203.521 176.496,204.552 176.369,204.896 176.266 L 205.521 176.077 204.896 176.086 C 204.552 176.090,203.521 176.217,202.604 176.368 M202.813 177.399 C 201.186 177.650,201.173 177.656,202.292 177.662 C 202.922 177.666,203.906 177.548,204.479 177.401 C 205.789 177.064,204.991 177.063,202.813 177.399 M202.813 178.441 L 201.146 178.698 202.396 178.704 C 203.083 178.707,204.115 178.590,204.688 178.442 C 206.062 178.089,205.098 178.088,202.813 178.441 M208.104 180.917 C 208.455 182.054,209.043 186.079,209.455 190.170 C 209.590 191.509,209.510 191.558,205.938 192.322 C 202.080 193.147,191.926 192.843,190.956 191.873 C 190.691 191.608,192.055 180.340,192.414 179.828 C 192.440 179.791,192.760 179.915,193.124 180.104 C 193.489 180.292,193.943 180.386,194.133 180.312 C 194.324 180.237,196.823 180.177,199.688 180.177 C 203.337 180.178,205.176 180.097,205.833 179.908 C 207.584 179.403,207.644 179.430,208.104 180.917 M202.754 180.627 C 201.805 180.710,200.961 180.847,200.879 180.933 C 200.703 181.116,204.195 180.870,205.227 180.627 L 205.938 180.459 205.208 180.468 C 204.807 180.473,203.703 180.544,202.754 180.627 M194.063 181.042 C 194.685 181.309,195.206 181.309,194.792 181.042 C 194.620 180.931,194.292 180.845,194.063 180.851 L 193.646 180.863 194.063 181.042 M205.000 181.279 C 204.370 181.380,202.635 181.486,201.146 181.513 C 198.126 181.569,197.329 181.819,195.682 183.229 C 194.978 183.832,194.713 183.938,194.135 183.850 L 193.438 183.745 194.083 184.008 C 194.884 184.334,194.773 184.787,193.889 184.805 C 193.285 184.817,193.269 184.834,193.698 185.006 C 194.369 185.276,194.301 185.829,193.594 185.850 L 193.021 185.866 193.605 186.079 C 194.410 186.373,194.285 186.997,193.434 186.932 L 192.813 186.885 193.438 187.120 C 194.711 187.597,194.748 188.385,193.490 188.227 C 192.736 188.132,192.680 188.148,193.115 188.337 C 193.396 188.460,193.818 188.531,194.053 188.497 C 194.287 188.462,194.589 188.575,194.723 188.748 C 194.856 188.921,195.002 189.015,195.047 188.958 C 195.852 187.926,196.702 186.731,198.135 184.618 C 199.810 182.148,199.901 182.053,200.492 182.171 C 202.057 182.484,202.069 182.441,199.275 186.614 C 196.292 191.070,196.298 191.060,197.275 190.018 C 197.750 189.512,198.575 188.387,199.110 187.518 C 201.122 184.246,202.013 183.124,202.339 183.450 C 202.516 183.627,199.711 188.041,198.011 190.259 L 197.255 191.246 197.846 191.482 C 199.058 191.965,201.256 191.953,202.571 191.457 C 203.878 190.964,206.042 189.128,206.042 188.513 C 206.042 188.149,206.449 187.917,207.088 187.917 C 207.301 187.917,207.530 187.828,207.597 187.721 C 207.668 187.604,207.418 187.573,206.980 187.644 C 206.356 187.746,206.262 187.712,206.372 187.424 C 206.444 187.237,206.722 187.083,206.989 187.083 C 207.257 187.083,207.532 186.991,207.602 186.878 C 207.681 186.751,207.488 186.721,207.094 186.800 C 206.594 186.900,206.458 186.855,206.458 186.589 C 206.458 186.369,206.636 186.250,206.967 186.250 C 207.247 186.250,207.540 186.146,207.618 186.019 C 207.717 185.859,207.562 185.832,207.109 185.932 C 206.595 186.045,206.458 186.006,206.458 185.746 C 206.458 185.559,206.633 185.417,206.863 185.417 C 207.085 185.417,207.315 185.340,207.373 185.246 C 207.431 185.152,207.202 185.116,206.864 185.166 C 206.115 185.275,205.976 184.662,206.719 184.524 C 207.033 184.466,206.988 184.444,206.580 184.458 C 205.738 184.487,205.631 183.988,206.445 183.826 C 206.801 183.754,207.136 183.625,207.190 183.537 C 207.244 183.450,206.908 183.464,206.443 183.568 C 205.979 183.673,205.511 183.704,205.403 183.638 C 204.983 183.378,205.251 183.165,206.198 183.006 C 206.870 182.892,207.033 182.813,206.706 182.757 C 206.442 182.713,205.948 182.773,205.608 182.891 C 205.084 183.074,204.877 183.029,204.237 182.595 C 203.823 182.314,203.403 182.083,203.304 182.083 C 202.627 182.083,203.307 181.663,204.010 181.647 C 204.497 181.636,205.365 181.506,205.938 181.359 C 207.139 181.050,206.667 181.010,205.000 181.279 M194.063 182.083 C 194.685 182.351,195.206 182.351,194.792 182.083 C 194.620 181.972,194.292 181.887,194.063 181.893 L 193.646 181.904 194.063 182.083 M205.521 182.083 L 204.896 182.242 205.625 182.252 C 206.026 182.258,206.542 182.182,206.771 182.083 C 207.325 181.845,206.457 181.845,205.521 182.083 M193.750 182.917 C 193.922 183.028,194.250 183.119,194.479 183.119 C 194.824 183.119,194.842 183.084,194.583 182.917 C 194.411 182.806,194.083 182.715,193.854 182.715 C 193.509 182.715,193.491 182.749,193.750 182.917 M206.875 188.542 C 206.365 188.705,206.367 188.709,206.979 188.726 C 207.323 188.736,207.745 188.653,207.917 188.542 C 208.311 188.287,207.672 188.287,206.875 188.542 M192.917 189.375 C 193.089 189.486,193.464 189.572,193.750 189.566 C 194.227 189.555,194.236 189.539,193.854 189.375 C 193.238 189.110,192.507 189.110,192.917 189.375 M206.783 189.401 C 205.634 189.670,205.542 189.878,206.647 189.709 C 207.575 189.566,208.569 189.163,207.917 189.194 C 207.745 189.202,207.235 189.295,206.783 189.401 M206.887 190.227 C 205.549 190.490,205.359 190.646,206.525 190.525 C 207.078 190.467,207.687 190.329,207.880 190.217 C 208.287 189.979,208.144 189.981,206.887 190.227 M192.917 190.417 C 193.089 190.528,193.510 190.611,193.854 190.601 C 194.467 190.584,194.469 190.580,193.958 190.417 C 193.162 190.162,192.522 190.162,192.917 190.417 M205.417 191.354 C 204.441 191.580,204.379 191.620,205.000 191.623 C 205.401 191.625,206.198 191.506,206.771 191.359 C 208.199 190.992,206.997 190.988,205.417 191.354 M192.631 191.464 C 192.731 191.564,193.234 191.698,193.750 191.762 C 194.845 191.898,194.660 191.764,193.360 191.481 C 192.859 191.372,192.531 191.365,192.631 191.464 M210.112 202.813 C 210.194 208.771,210.167 212.293,210.038 212.477 C 209.380 213.418,201.787 213.970,195.121 213.562 C 191.247 213.325,190.061 213.440,191.437 213.920 C 194.210 214.887,205.930 214.700,209.531 213.632 C 210.038 213.482,210.201 215.561,209.871 217.967 L 209.742 218.909 207.423 219.335 C 203.858 219.989,202.790 220.042,198.264 219.796 C 191.142 219.407,190.638 219.359,190.308 219.029 C 189.895 218.616,189.897 210.522,190.313 200.625 C 190.478 196.672,190.617 193.290,190.620 193.110 C 190.624 192.815,190.886 192.823,193.177 193.182 C 197.800 193.908,203.998 193.682,207.939 192.643 L 209.688 192.183 209.836 192.810 C 209.918 193.155,210.042 197.656,210.112 202.813 M205.589 193.984 C 205.054 194.087,203.507 194.258,202.152 194.364 L 199.688 194.557 202.500 194.471 C 204.047 194.423,205.828 194.252,206.458 194.090 C 207.727 193.765,207.118 193.690,205.589 193.984 M193.021 194.375 C 193.938 194.608,195.104 194.608,194.375 194.375 C 194.089 194.283,193.526 194.210,193.125 194.212 L 192.396 194.216 193.021 194.375 M205.625 194.825 C 204.995 194.932,203.448 195.102,202.188 195.204 L 199.896 195.389 202.604 195.307 C 204.094 195.262,205.828 195.091,206.458 194.927 C 207.759 194.589,207.333 194.537,205.625 194.825 M193.229 195.208 C 193.573 195.296,194.042 195.372,194.271 195.377 L 194.688 195.387 194.271 195.208 C 194.042 195.110,193.573 195.034,193.229 195.039 L 192.604 195.049 193.229 195.208 M205.938 195.860 C 205.365 195.962,203.677 196.132,202.188 196.237 L 199.479 196.428 202.500 196.350 C 204.200 196.306,206.022 196.141,206.667 195.972 C 207.944 195.637,207.538 195.574,205.938 195.860 M192.917 196.250 C 193.203 196.342,193.719 196.417,194.063 196.417 C 194.670 196.417,194.673 196.412,194.167 196.250 C 193.880 196.158,193.365 196.083,193.021 196.083 C 192.413 196.083,192.410 196.088,192.917 196.250 M192.604 197.083 C 192.833 197.182,193.302 197.258,193.646 197.252 L 194.271 197.242 193.646 197.083 C 193.302 196.996,192.833 196.920,192.604 196.914 L 192.188 196.904 192.604 197.083 M205.625 197.017 C 205.339 197.060,204.073 197.181,202.813 197.285 L 200.521 197.475 203.333 197.391 C 204.880 197.346,206.427 197.219,206.771 197.109 L 207.396 196.911 206.771 196.924 C 206.427 196.931,205.911 196.973,205.625 197.017 M206.404 197.832 C 206.336 197.900,204.657 198.032,202.672 198.126 L 199.063 198.296 202.813 198.225 C 204.875 198.185,206.891 198.063,207.292 197.952 L 208.021 197.751 207.274 197.730 C 206.864 197.718,206.472 197.764,206.404 197.832 M192.604 198.125 C 192.833 198.223,193.396 198.300,193.854 198.295 L 194.688 198.285 193.854 198.113 C 193.396 198.018,192.833 197.942,192.604 197.943 L 192.188 197.946 192.604 198.125 M205.469 198.778 C 201.015 199.310,200.791 199.356,203.229 199.242 C 204.490 199.182,206.083 199.010,206.771 198.859 C 208.195 198.546,207.679 198.514,205.469 198.778 M192.524 198.978 C 192.794 199.149,194.546 199.256,194.358 199.090 C 194.310 199.048,193.813 198.965,193.253 198.904 C 192.631 198.837,192.348 198.866,192.524 198.978 M206.813 199.715 C 206.741 199.787,205.061 199.912,203.081 199.994 L 199.479 200.142 202.500 200.165 C 205.104 200.186,209.648 199.688,207.587 199.608 C 207.234 199.595,206.885 199.642,206.813 199.715 M192.604 200.000 C 192.833 200.098,193.349 200.175,193.750 200.169 L 194.479 200.159 193.854 200.000 C 192.918 199.762,192.050 199.762,192.604 200.000 M206.813 200.756 C 206.741 200.828,205.061 200.954,203.081 201.036 L 199.479 201.184 202.500 201.207 C 205.104 201.227,209.648 200.730,207.587 200.650 C 207.234 200.636,206.885 200.684,206.813 200.756 M192.604 201.034 C 192.999 201.211,194.750 201.335,194.566 201.174 C 194.518 201.132,193.964 201.042,193.333 200.973 C 192.585 200.891,192.332 200.913,192.604 201.034 M204.896 201.918 C 201.796 202.267,201.420 202.323,201.519 202.422 C 201.663 202.566,206.447 202.119,207.188 201.893 L 207.813 201.702 207.188 201.717 C 206.844 201.725,205.813 201.815,204.896 201.918 M193.073 202.230 C 193.331 202.280,193.753 202.280,194.010 202.230 C 194.268 202.181,194.057 202.140,193.542 202.140 C 193.026 202.140,192.815 202.181,193.073 202.230 M206.771 202.847 C 206.542 202.892,205.135 203.054,203.646 203.208 C 201.918 203.386,201.337 203.497,202.039 203.514 C 203.342 203.547,206.738 203.189,207.614 202.928 C 208.290 202.726,207.684 202.668,206.771 202.847 M193.229 203.345 C 193.688 203.440,194.250 203.516,194.479 203.515 L 194.896 203.512 194.479 203.333 C 194.250 203.235,193.688 203.158,193.229 203.164 L 192.396 203.173 193.229 203.345 M205.729 204.172 C 205.156 204.262,203.938 204.410,203.021 204.500 C 202.104 204.590,201.585 204.701,201.868 204.748 C 202.501 204.852,206.542 204.439,207.396 204.182 L 208.021 203.994 207.396 204.001 C 207.052 204.004,206.302 204.081,205.729 204.172 M193.229 204.583 C 194.146 204.817,195.312 204.817,194.583 204.583 C 194.297 204.492,193.734 204.418,193.333 204.420 L 192.604 204.424 193.229 204.583 M206.458 205.231 C 205.828 205.331,204.281 205.502,203.021 205.611 L 200.729 205.809 203.438 205.721 C 204.927 205.672,206.661 205.500,207.292 205.339 C 208.579 205.010,208.184 204.959,206.458 205.231 M192.917 205.625 C 193.203 205.717,193.813 205.790,194.271 205.789 L 195.104 205.785 194.271 205.613 C 193.813 205.518,193.203 205.445,192.917 205.449 L 192.396 205.458 192.917 205.625 M205.729 206.388 C 205.500 206.433,204.281 206.555,203.021 206.659 L 200.729 206.848 203.438 206.763 C 204.927 206.716,206.474 206.591,206.875 206.485 L 207.604 206.293 206.875 206.300 C 206.474 206.304,205.958 206.343,205.729 206.388 M193.229 206.667 C 194.156 206.902,195.236 206.902,194.688 206.667 C 194.458 206.568,193.896 206.492,193.438 206.498 C 192.641 206.507,192.632 206.515,193.229 206.667 M202.917 207.492 L 199.479 207.604 201.591 207.750 C 203.491 207.882,207.418 207.652,207.676 207.394 C 207.732 207.338,207.457 207.312,207.066 207.336 C 206.674 207.360,204.807 207.431,202.917 207.492 M192.708 207.698 C 193.222 207.873,194.943 207.990,194.774 207.839 C 194.727 207.796,194.125 207.706,193.438 207.640 C 192.628 207.562,192.371 207.582,192.708 207.698 M206.613 208.248 C 206.545 208.316,205.053 208.443,203.297 208.529 L 200.104 208.686 202.708 208.708 C 204.978 208.728,209.216 208.221,207.378 208.150 C 207.025 208.136,206.681 208.181,206.613 208.248 M193.281 208.689 C 193.539 208.738,193.961 208.738,194.219 208.689 C 194.477 208.639,194.266 208.598,193.750 208.598 C 193.234 208.598,193.023 208.639,193.281 208.689 M206.623 209.279 C 206.561 209.341,205.116 209.468,203.412 209.561 L 200.313 209.730 202.813 209.751 C 205.004 209.770,209.160 209.260,207.378 209.192 C 207.025 209.178,206.685 209.217,206.623 209.279 M192.917 209.573 C 193.430 209.748,195.151 209.865,194.983 209.714 C 194.935 209.671,194.333 209.581,193.646 209.515 C 192.836 209.437,192.579 209.457,192.917 209.573 M206.771 210.247 C 206.198 210.356,204.370 210.523,202.708 210.618 L 199.688 210.792 203.021 210.727 C 205.100 210.686,206.785 210.545,207.500 210.354 C 208.787 210.008,208.358 209.945,206.771 210.247 M193.021 210.625 C 193.365 210.712,193.974 210.784,194.375 210.784 L 195.104 210.784 194.479 210.625 C 194.135 210.538,193.526 210.466,193.125 210.466 L 192.396 210.466 193.021 210.625 M205.104 211.503 C 202.843 211.759,202.027 211.888,202.115 211.976 C 202.242 212.103,206.741 211.679,207.396 211.478 L 208.021 211.286 207.396 211.300 C 207.052 211.308,206.021 211.399,205.104 211.503 M192.917 211.665 C 193.199 211.849,194.981 211.979,194.774 211.800 C 194.727 211.759,194.219 211.666,193.646 211.593 C 192.935 211.503,192.703 211.526,192.917 211.665 M206.563 212.324 C 205.990 212.429,204.255 212.598,202.708 212.699 L 199.896 212.883 203.021 212.808 C 204.830 212.764,206.628 212.605,207.292 212.431 C 208.575 212.093,208.155 212.031,206.563 212.324 M193.229 212.708 C 194.156 212.944,195.236 212.944,194.688 212.708 C 194.458 212.610,193.896 212.534,193.438 212.539 C 192.641 212.549,192.632 212.556,193.229 212.708 M192.633 215.522 C 192.567 215.693,192.271 215.833,191.975 215.833 C 191.524 215.833,191.471 215.892,191.642 216.198 C 191.787 216.458,191.758 216.659,191.538 216.902 C 191.263 217.206,191.284 217.255,191.736 217.369 C 192.018 217.439,192.300 217.704,192.374 217.966 C 192.495 218.396,192.526 218.405,192.722 218.073 C 192.840 217.872,193.167 217.708,193.448 217.708 C 193.991 217.708,194.096 217.512,193.741 217.158 C 193.591 217.007,193.622 216.859,193.845 216.674 C 194.315 216.284,194.239 216.042,193.646 216.042 C 193.331 216.042,193.125 215.923,193.125 215.741 C 193.125 215.310,192.774 215.154,192.633 215.522 M207.200 215.586 C 207.100 215.900,206.888 216.042,206.516 216.042 C 205.998 216.042,205.991 216.057,206.338 216.441 C 206.633 216.766,206.655 216.924,206.458 217.291 C 206.238 217.704,206.262 217.737,206.745 217.673 C 207.089 217.628,207.384 217.750,207.589 218.021 C 207.873 218.397,207.904 218.401,207.910 218.068 C 207.914 217.865,208.150 217.593,208.436 217.463 C 208.829 217.284,208.901 217.161,208.731 216.956 C 208.608 216.808,208.571 216.487,208.648 216.244 C 208.763 215.880,208.712 215.813,208.362 215.869 C 208.120 215.908,207.809 215.764,207.640 215.534 C 207.351 215.139,207.341 215.140,207.200 215.586 M197.525 215.996 C 197.329 216.361,197.160 216.433,196.744 216.329 C 196.245 216.204,196.229 216.222,196.490 216.639 C 196.713 216.997,196.716 217.164,196.507 217.500 C 196.273 217.874,196.299 217.917,196.755 217.917 C 197.094 217.917,197.311 218.067,197.407 218.368 L 197.550 218.819 197.909 218.344 C 198.174 217.993,198.386 217.905,198.720 218.011 C 199.139 218.144,199.154 218.117,198.930 217.625 C 198.743 217.215,198.748 217.024,198.953 216.777 C 199.178 216.506,199.141 216.458,198.703 216.458 C 198.372 216.458,198.115 216.293,197.981 215.994 L 197.774 215.529 197.525 215.996 M202.402 216.024 C 202.309 216.315,202.088 216.458,201.731 216.458 C 201.277 216.458,201.238 216.505,201.463 216.777 C 201.666 217.021,201.673 217.216,201.492 217.614 C 201.271 218.098,201.288 218.123,201.757 218.006 C 202.141 217.909,202.317 217.992,202.514 218.359 L 202.770 218.839 202.941 218.378 C 203.059 218.059,203.284 217.917,203.671 217.917 C 204.198 217.917,204.211 217.894,203.891 217.540 C 203.575 217.192,203.576 217.128,203.892 216.676 C 204.227 216.197,204.224 216.191,203.692 216.324 C 203.280 216.427,203.076 216.355,202.845 216.024 L 202.540 215.589 202.402 216.024 M207.243 220.743 C 207.178 220.808,205.452 220.941,203.406 221.039 L 199.688 221.216 203.333 221.144 C 206.308 221.086,209.590 220.717,207.795 220.643 C 207.556 220.633,207.308 220.678,207.243 220.743 M193.597 220.983 C 193.913 221.031,194.382 221.029,194.638 220.980 C 194.895 220.931,194.635 220.891,194.063 220.893 C 193.490 220.894,193.280 220.935,193.597 220.983 M193.750 222.083 C 193.922 222.194,194.344 222.280,194.688 222.274 C 195.224 222.264,195.254 222.237,194.896 222.083 C 194.283 221.820,193.343 221.820,193.750 222.083 M204.103 222.091 C 202.979 222.176,201.995 222.313,201.915 222.394 C 201.741 222.574,205.947 222.310,206.917 222.080 L 207.604 221.918 206.875 221.927 C 206.474 221.932,205.226 222.005,204.103 222.091 M194.167 223.125 C 194.915 223.365,195.252 223.365,195.104 223.125 C 195.033 223.010,194.676 222.926,194.311 222.937 C 193.676 222.957,193.669 222.966,194.167 223.125 M202.708 223.333 L 200.104 223.457 202.917 223.484 C 204.464 223.499,206.151 223.436,206.667 223.344 L 207.604 223.177 206.458 223.193 C 205.828 223.202,204.141 223.265,202.708 223.333 M194.063 224.167 C 193.986 224.290,194.214 224.369,194.623 224.360 C 195.198 224.348,195.243 224.316,194.896 224.167 C 194.331 223.924,194.213 223.924,194.063 224.167 M202.917 224.375 L 199.896 224.497 202.917 224.528 C 204.578 224.545,206.313 224.482,206.771 224.387 L 207.604 224.215 206.771 224.234 C 206.313 224.245,204.578 224.308,202.917 224.375 " stroke="none" fill="#f7f6f6" fill-rule="evenodd"></path><path id="path1" d="M0.000 112.500 L 0.000 225.000 94.714 225.000 L 189.427 225.000 189.292 223.177 C 188.862 217.409,188.980 198.695,189.480 193.229 C 190.582 181.190,191.916 173.878,193.860 169.224 C 194.035 168.807,194.367 167.709,194.598 166.785 C 194.830 165.860,195.430 164.260,195.931 163.229 C 196.433 162.198,197.499 159.984,198.301 158.310 C 199.783 155.216,200.274 154.612,200.613 155.473 C 200.713 155.728,201.468 157.438,202.290 159.271 C 204.520 164.243,205.293 166.289,206.032 169.167 C 206.399 170.599,207.293 173.833,208.017 176.354 C 211.035 186.858,211.699 199.236,210.489 222.448 L 210.356 225.000 305.178 225.000 L 400.000 225.000 400.000 112.500 L 400.000 0.000 200.000 0.000 L 0.000 0.000 0.000 112.500 M158.193 76.273 C 169.176 78.998,174.082 91.831,167.791 101.380 C 161.323 111.196,146.698 111.148,140.325 101.290 C 132.150 88.645,143.576 72.647,158.193 76.273 M196.354 76.345 C 198.401 76.898,202.292 78.887,202.292 79.379 C 202.292 79.473,201.397 80.581,200.304 81.843 L 198.315 84.136 197.022 83.532 C 191.458 80.932,184.736 83.937,183.236 89.695 C 181.051 98.083,189.426 104.951,197.115 101.077 L 198.709 100.274 200.652 102.521 C 203.031 105.271,202.959 105.002,201.572 105.922 C 190.412 113.330,175.723 105.636,175.751 92.396 C 175.773 81.536,186.023 73.551,196.354 76.345 M125.250 76.481 C 133.603 78.230,135.617 90.345,128.185 94.136 L 127.323 94.576 130.433 101.270 C 132.143 104.952,133.542 108.048,133.542 108.149 C 133.542 108.454,126.962 108.380,126.724 108.073 C 126.612 107.930,125.228 105.023,123.648 101.615 L 120.774 95.417 119.241 95.417 L 117.708 95.417 117.708 101.771 L 117.708 108.125 114.479 108.125 L 111.250 108.125 111.250 92.188 L 111.250 76.250 117.698 76.250 C 121.619 76.250,124.579 76.341,125.250 76.481 M214.840 81.283 L 214.896 86.315 219.450 81.283 L 224.004 76.250 228.252 76.250 C 230.588 76.250,232.500 76.320,232.500 76.406 C 232.499 76.492,230.064 79.281,227.087 82.604 C 224.111 85.927,221.676 88.740,221.676 88.854 C 221.676 88.969,224.196 93.328,227.276 98.542 L 232.875 108.021 229.205 108.078 C 227.186 108.109,225.430 108.095,225.302 108.046 C 225.174 107.997,223.296 104.766,221.128 100.867 L 217.188 93.778 215.990 94.955 L 214.792 96.133 214.792 102.129 L 214.792 108.125 211.563 108.125 L 208.333 108.125 208.333 92.188 L 208.333 76.250 211.559 76.250 L 214.784 76.250 214.840 81.283 M259.792 79.479 L 259.792 82.708 252.396 82.708 L 245.000 82.708 245.000 85.625 L 245.000 88.542 251.042 88.542 L 257.083 88.542 257.083 91.771 L 257.083 95.000 251.042 95.000 L 245.000 95.000 245.000 98.333 L 245.000 101.667 252.292 101.667 L 259.583 101.667 259.583 105.002 L 259.583 108.337 249.010 108.283 L 238.438 108.229 238.384 92.500 C 238.354 83.849,238.375 76.654,238.429 76.510 C 238.507 76.307,240.847 76.250,249.160 76.250 L 259.792 76.250 259.792 79.479 M288.750 79.479 L 288.750 82.708 284.377 82.708 L 280.003 82.708 279.950 95.469 L 279.896 108.229 276.720 108.287 L 273.545 108.344 273.491 95.578 L 273.438 82.813 269.010 82.756 L 264.583 82.700 264.583 79.475 L 264.583 76.250 276.667 76.250 L 288.750 76.250 288.750 79.479 M151.354 82.793 C 144.065 85.107,141.882 94.186,147.378 99.327 C 155.472 106.899,167.812 97.575,162.797 87.677 C 160.806 83.749,155.489 81.479,151.354 82.793 M117.708 85.833 L 117.708 88.958 120.889 88.958 C 125.262 88.958,126.785 87.968,126.352 85.406 C 125.996 83.294,124.745 82.711,120.573 82.709 L 117.708 82.708 117.708 85.833 M142.396 116.888 C 144.579 117.563,148.542 119.731,148.542 120.250 C 148.542 120.443,145.769 125.076,145.406 125.489 C 145.321 125.586,144.729 125.331,144.091 124.923 C 139.379 121.909,134.792 122.166,134.792 125.443 C 134.792 127.253,135.497 127.821,139.283 129.062 C 146.064 131.283,149.310 134.899,149.123 140.023 C 148.775 149.546,136.514 152.454,127.656 145.114 C 125.884 143.646,125.844 143.826,128.505 141.324 L 130.753 139.211 131.877 140.144 C 136.375 143.879,142.708 143.507,142.708 139.508 C 142.708 137.947,139.702 135.747,136.563 135.012 C 125.966 132.528,125.398 119.201,135.776 116.562 C 137.410 116.146,140.488 116.298,142.396 116.888 M238.571 116.551 C 240.979 117.061,245.125 118.996,245.360 119.719 C 245.403 119.851,244.539 120.993,243.440 122.256 L 241.443 124.554 240.149 123.953 C 232.581 120.435,224.551 126.852,226.274 135.042 C 227.551 141.113,234.579 144.397,240.175 141.538 L 241.843 140.686 243.838 142.984 C 246.185 145.686,246.108 145.403,244.740 146.307 C 230.533 155.692,213.079 140.716,220.515 125.521 C 223.805 118.798,231.392 115.029,238.571 116.551 M178.166 132.500 C 182.257 141.151,185.610 148.349,185.615 148.495 C 185.623 148.702,184.857 148.748,182.135 148.703 L 178.646 148.646 177.203 145.677 L 175.760 142.708 169.286 142.711 L 162.813 142.713 161.279 145.732 L 159.745 148.750 156.239 148.750 C 154.311 148.750,152.695 148.680,152.649 148.594 C 152.603 148.508,154.362 144.922,156.558 140.625 C 158.754 136.328,162.404 129.175,164.669 124.729 L 168.786 116.645 169.756 116.708 L 170.726 116.771 178.166 132.500 M195.668 127.448 C 195.727 137.931,195.741 138.256,196.171 139.185 C 198.072 143.295,203.697 143.863,206.297 140.208 C 207.287 138.818,207.307 138.577,207.353 127.366 L 207.396 116.771 210.625 116.771 L 213.854 116.771 213.908 127.348 C 213.968 138.989,213.914 139.667,212.732 142.133 C 208.282 151.419,194.843 151.420,190.394 142.135 C 189.229 139.703,189.174 139.045,189.170 127.344 L 189.167 116.667 192.387 116.667 L 195.607 116.667 195.668 127.448 M272.662 119.948 L 272.604 123.229 265.260 123.284 L 257.917 123.339 257.917 126.148 L 257.917 128.958 264.063 128.958 L 270.208 128.958 270.208 132.188 L 270.208 135.417 264.063 135.417 L 257.917 135.417 257.917 138.747 L 257.917 142.078 265.260 142.133 L 272.604 142.188 272.604 145.417 L 272.604 148.646 262.031 148.700 L 251.458 148.754 251.458 132.710 L 251.458 116.667 262.089 116.667 L 272.719 116.667 272.662 119.948 M167.848 132.841 C 166.957 134.628,166.267 136.128,166.314 136.175 C 166.361 136.222,167.819 136.235,169.552 136.203 L 172.705 136.146 171.237 133.021 C 170.430 131.302,169.701 129.828,169.619 129.744 C 169.536 129.661,168.739 131.055,167.848 132.841 M200.041 157.216 C 199.918 157.445,199.522 158.377,199.161 159.285 C 198.800 160.194,197.902 162.269,197.164 163.897 C 196.316 165.769,195.513 167.989,194.979 169.939 C 194.514 171.634,193.899 173.835,193.612 174.830 C 193.325 175.824,193.075 177.090,193.056 177.642 L 193.021 178.646 194.479 178.894 C 198.101 179.512,204.077 179.437,206.692 178.741 L 207.446 178.540 207.277 177.656 C 207.185 177.169,206.956 176.349,206.769 175.833 C 206.582 175.318,206.103 173.590,205.705 171.994 C 204.008 165.188,200.572 156.223,200.041 157.216 M202.917 166.875 C 202.917 166.990,202.565 167.082,202.135 167.080 C 201.554 167.078,201.434 167.025,201.667 166.875 C 202.077 166.610,202.917 166.610,202.917 166.875 M203.333 167.907 C 203.333 168.172,201.973 168.418,201.642 168.214 C 201.453 168.097,201.491 168.010,201.785 167.895 C 202.367 167.667,203.333 167.675,203.333 167.907 M203.657 168.940 C 203.508 169.181,201.893 169.463,201.711 169.280 C 201.472 169.042,202.160 168.756,202.981 168.753 C 203.417 168.751,203.722 168.836,203.657 168.940 M203.958 170.184 C 203.958 170.439,203.195 170.619,202.101 170.622 C 201.074 170.625,201.084 170.452,202.125 170.206 C 203.091 169.977,203.958 169.967,203.958 170.184 M204.246 171.254 C 204.129 171.371,203.383 171.524,202.589 171.594 C 201.225 171.713,200.847 171.463,201.979 171.190 C 202.821 170.988,204.466 171.034,204.246 171.254 M204.466 172.062 C 204.631 172.329,204.049 172.507,202.555 172.647 C 200.867 172.804,200.768 172.376,202.448 172.187 C 203.107 172.112,203.740 172.019,203.854 171.980 C 204.220 171.854,204.348 171.871,204.466 172.062 M196.458 172.500 C 196.712 172.664,196.685 172.703,196.314 172.705 C 196.063 172.707,195.800 172.615,195.729 172.500 C 195.565 172.235,196.048 172.235,196.458 172.500 M204.692 173.377 C 204.248 173.634,200.847 173.897,201.073 173.657 C 201.257 173.463,203.012 173.178,204.167 173.156 C 204.969 173.140,205.045 173.172,204.692 173.377 M196.146 173.542 C 196.217 173.656,196.134 173.750,195.962 173.750 C 195.790 173.750,195.592 173.656,195.521 173.542 C 195.450 173.427,195.533 173.333,195.705 173.333 C 195.876 173.333,196.075 173.427,196.146 173.542 M204.850 174.192 C 204.600 174.442,200.850 174.732,201.082 174.483 C 201.237 174.318,204.835 173.774,204.986 173.894 C 205.036 173.933,204.974 174.067,204.850 174.192 M196.250 174.583 C 196.250 174.847,195.824 174.847,195.417 174.583 C 195.173 174.426,195.231 174.381,195.677 174.378 C 195.992 174.376,196.250 174.469,196.250 174.583 M205.402 175.204 C 204.630 175.656,200.625 176.036,200.625 175.657 C 200.625 175.469,203.236 175.082,204.792 175.039 C 205.451 175.020,205.632 175.069,205.402 175.204 M195.833 175.417 C 196.077 175.574,196.019 175.619,195.573 175.622 C 195.258 175.624,195.000 175.531,195.000 175.417 C 195.000 175.153,195.426 175.153,195.833 175.417 M205.833 176.018 C 205.833 176.194,204.349 176.507,202.277 176.769 C 201.753 176.835,201.101 176.806,200.827 176.705 C 200.436 176.560,200.821 176.453,202.612 176.205 C 205.474 175.810,205.833 175.789,205.833 176.018 M195.833 176.458 C 195.833 176.722,195.408 176.722,195.000 176.458 C 194.756 176.301,194.814 176.256,195.260 176.253 C 195.576 176.251,195.833 176.344,195.833 176.458 M205.904 177.096 C 205.378 177.622,200.208 178.178,200.208 177.708 C 200.208 177.594,200.560 177.494,200.990 177.487 C 201.419 177.480,202.474 177.351,203.333 177.201 C 205.389 176.841,206.192 176.808,205.904 177.096 M195.625 177.292 C 195.872 177.452,195.829 177.494,195.417 177.494 C 195.130 177.494,194.755 177.403,194.583 177.292 C 194.336 177.132,194.379 177.090,194.792 177.090 C 195.078 177.090,195.453 177.181,195.625 177.292 M195.325 178.223 C 195.723 178.523,195.722 178.529,195.300 178.535 C 195.064 178.539,194.689 178.404,194.467 178.236 C 194.069 177.935,194.069 177.930,194.491 177.923 C 194.727 177.920,195.102 178.054,195.325 178.223 M206.112 178.138 C 205.767 178.483,202.449 178.986,200.995 178.914 C 199.403 178.835,199.841 178.689,202.917 178.274 C 205.811 177.883,206.392 177.858,206.112 178.138 M206.458 179.925 C 205.794 180.122,205.718 180.175,206.198 180.107 C 206.903 180.006,207.147 180.309,206.510 180.495 C 205.357 180.832,203.416 181.039,201.576 181.021 C 198.470 180.990,197.912 180.671,200.920 180.646 C 205.217 180.610,203.386 180.392,198.198 180.322 C 195.465 180.285,193.076 180.192,192.888 180.114 C 192.509 179.958,192.450 180.217,191.669 185.417 C 190.979 190.014,190.899 191.803,191.377 191.946 C 192.696 192.341,196.785 192.743,199.583 192.753 C 202.929 192.766,204.171 192.623,207.465 191.845 L 209.410 191.386 209.276 189.912 C 208.819 184.861,208.022 180.245,207.526 179.771 C 207.455 179.702,206.974 179.771,206.458 179.925 M195.158 181.198 C 195.268 181.535,194.847 181.515,194.063 181.145 L 193.438 180.850 194.255 180.894 C 194.704 180.918,195.110 181.055,195.158 181.198 M206.850 181.257 C 206.692 181.344,205.826 181.533,204.927 181.677 C 203.799 181.858,203.391 181.995,203.613 182.119 C 203.798 182.223,204.316 182.211,204.832 182.092 C 206.068 181.807,207.526 181.812,207.032 182.099 C 206.833 182.216,206.195 182.367,205.615 182.436 C 205.010 182.507,204.639 182.639,204.744 182.744 C 204.848 182.848,205.386 182.820,206.004 182.678 C 207.082 182.429,207.654 182.560,207.077 182.925 C 206.909 183.031,206.466 183.120,206.094 183.122 C 205.721 183.124,205.417 183.222,205.417 183.341 C 205.417 183.479,205.791 183.506,206.458 183.418 C 207.671 183.257,207.943 183.648,206.771 183.868 C 206.370 183.943,206.042 184.092,206.042 184.199 C 206.042 184.309,206.360 184.334,206.771 184.257 C 207.651 184.092,207.763 184.452,206.927 184.758 L 206.354 184.967 207.031 184.984 C 207.858 185.004,207.916 185.312,207.135 185.535 L 206.563 185.698 207.292 185.830 L 208.021 185.962 207.292 186.297 L 206.563 186.633 207.240 186.650 C 208.139 186.672,208.105 187.029,207.188 187.201 C 206.786 187.276,206.458 187.403,206.458 187.481 C 206.458 187.560,206.786 187.586,207.188 187.540 C 208.216 187.419,208.121 187.879,207.083 188.045 C 205.866 188.240,206.064 188.497,207.344 188.382 C 208.805 188.252,208.423 188.710,206.923 188.887 C 206.266 188.965,205.811 189.132,205.738 189.322 C 205.652 189.548,205.718 189.592,205.987 189.488 C 206.714 189.206,208.452 189.097,208.220 189.347 C 207.970 189.616,205.710 190.077,205.445 189.913 C 205.348 189.853,205.060 190.027,204.805 190.298 C 203.434 191.757,199.781 192.445,197.853 191.606 L 197.060 191.261 198.374 189.497 C 199.508 187.973,200.384 186.666,201.981 184.115 C 202.178 183.799,202.241 183.542,202.120 183.542 C 201.888 183.542,201.316 184.339,198.979 187.917 C 197.475 190.218,196.850 190.929,196.447 190.795 C 196.293 190.743,196.396 190.483,196.728 190.089 C 197.481 189.194,201.458 183.174,201.458 182.929 C 201.458 182.662,200.762 182.292,200.260 182.292 C 199.998 182.292,199.460 182.899,198.646 184.115 C 197.505 185.818,195.526 188.636,195.195 189.028 C 195.115 189.123,194.874 189.102,194.660 188.980 C 194.446 188.859,193.876 188.661,193.394 188.541 C 192.110 188.220,191.978 187.822,193.218 188.008 C 194.421 188.189,194.561 187.552,193.385 187.247 C 192.519 187.022,192.472 186.582,193.333 186.771 C 193.822 186.878,193.958 186.836,193.958 186.579 C 193.958 186.398,193.836 186.250,193.686 186.250 C 193.536 186.250,193.231 186.104,193.009 185.925 C 192.624 185.617,192.637 185.605,193.273 185.680 C 193.697 185.730,193.981 185.658,194.048 185.484 C 194.106 185.332,194.034 185.208,193.887 185.208 C 193.741 185.208,193.439 185.061,193.217 184.881 C 192.835 184.572,192.855 184.560,193.577 184.657 C 194.616 184.797,194.855 184.264,193.840 184.074 C 192.807 183.880,192.915 183.455,193.954 183.621 C 194.690 183.739,194.895 183.668,195.777 182.991 C 197.605 181.588,198.283 181.399,201.771 181.324 C 203.490 181.286,205.318 181.178,205.833 181.083 C 206.820 180.902,207.335 180.990,206.850 181.257 M195.076 182.076 C 195.436 182.436,194.088 182.332,193.634 181.964 C 193.253 181.657,193.277 181.644,194.045 181.749 C 194.493 181.810,194.957 181.957,195.076 182.076 M194.774 182.838 C 194.967 182.898,194.999 183.001,194.865 183.135 C 194.624 183.376,193.275 182.972,193.438 182.708 C 193.533 182.553,194.017 182.601,194.774 182.838 M194.045 189.293 C 194.227 189.363,194.375 189.503,194.375 189.606 C 194.375 189.874,193.745 189.818,193.021 189.487 L 192.396 189.201 193.056 189.184 C 193.419 189.174,193.864 189.224,194.045 189.293 M193.658 190.233 C 194.588 190.467,194.917 190.833,194.198 190.833 C 193.721 190.833,192.465 190.423,192.198 190.180 C 191.923 189.930,192.542 189.952,193.658 190.233 M208.240 190.191 C 208.088 190.436,206.250 190.833,205.268 190.833 C 204.282 190.833,204.512 190.633,205.879 190.302 C 207.198 189.983,208.404 189.926,208.240 190.191 M208.196 191.054 C 207.979 191.271,205.133 191.854,204.219 191.868 C 202.483 191.895,205.915 190.926,207.802 190.856 C 208.235 190.840,208.351 190.899,208.196 191.054 M193.948 191.476 C 195.178 191.739,195.399 192.193,194.219 192.031 C 193.178 191.888,191.786 191.291,192.438 191.267 C 192.690 191.258,193.370 191.352,193.948 191.476 M207.708 192.817 C 203.961 193.806,198.104 194.023,193.542 193.342 C 192.109 193.129,190.894 192.996,190.842 193.048 C 190.650 193.238,190.233 206.321,190.221 212.544 L 190.208 218.942 190.990 219.138 C 193.463 219.759,204.203 219.856,207.252 219.286 C 209.806 218.808,209.704 218.938,209.901 215.898 L 210.052 213.567 209.134 213.843 C 205.311 214.994,192.763 214.962,191.051 213.798 L 190.521 213.438 191.146 213.361 C 191.490 213.319,193.974 213.398,196.667 213.536 C 202.503 213.836,209.003 213.336,209.847 212.522 C 210.209 212.174,209.977 192.240,209.612 192.321 C 209.539 192.337,208.682 192.560,207.708 192.817 M208.109 193.801 C 206.053 194.577,199.578 194.989,198.646 194.403 C 198.285 194.175,198.348 194.156,199.123 194.261 C 200.181 194.405,204.953 194.041,206.875 193.670 C 208.285 193.397,208.981 193.471,208.109 193.801 M194.896 194.418 C 195.039 194.566,194.658 194.600,193.679 194.527 C 192.895 194.468,192.145 194.306,192.012 194.166 C 191.823 193.966,192.085 193.943,193.229 194.057 C 194.031 194.138,194.781 194.300,194.896 194.418 M208.094 194.588 C 206.793 195.348,200.090 195.822,198.750 195.249 C 198.344 195.076,198.872 195.021,201.146 195.000 C 202.750 194.986,204.766 194.851,205.625 194.701 C 207.621 194.352,208.574 194.308,208.094 194.588 M194.685 195.239 C 194.835 195.399,194.546 195.437,193.691 195.370 C 193.028 195.319,192.371 195.156,192.232 195.008 C 192.026 194.789,192.211 194.764,193.226 194.877 C 193.912 194.953,194.569 195.116,194.685 195.239 M208.451 195.603 C 208.041 196.267,199.687 196.904,198.713 196.346 C 198.475 196.209,199.268 196.132,201.213 196.101 C 202.780 196.076,204.813 195.924,205.729 195.762 C 207.752 195.405,208.604 195.355,208.451 195.603 M194.639 196.186 C 195.006 196.399,194.497 196.682,193.938 196.575 C 193.606 196.511,193.052 196.404,192.708 196.338 C 192.365 196.271,192.083 196.124,192.083 196.010 C 192.083 195.815,194.257 195.965,194.639 196.186 M208.542 196.649 C 208.542 197.206,203.443 197.767,200.727 197.510 C 197.776 197.231,198.059 197.085,201.580 197.070 C 203.289 197.062,205.438 196.935,206.354 196.786 C 208.564 196.428,208.542 196.430,208.542 196.649 M193.594 196.974 C 194.642 197.117,194.963 197.500,194.035 197.500 C 193.286 197.500,191.875 197.061,191.875 196.828 C 191.875 196.724,192.039 196.684,192.240 196.739 C 192.440 196.795,193.049 196.900,193.594 196.974 M208.501 197.718 C 207.740 198.162,203.863 198.581,201.344 198.490 C 197.430 198.350,197.611 198.028,201.632 197.977 C 203.542 197.952,205.620 197.847,206.250 197.742 C 207.907 197.467,208.951 197.456,208.501 197.718 M194.323 198.048 C 194.581 198.117,194.792 198.256,194.792 198.358 C 194.792 198.623,193.575 198.555,192.604 198.235 L 191.771 197.960 192.813 197.941 C 193.385 197.931,194.065 197.979,194.323 198.048 M208.519 198.542 C 207.823 198.949,204.450 199.374,202.108 199.350 C 198.577 199.314,197.829 199.017,201.146 198.967 C 202.635 198.945,204.651 198.806,205.625 198.657 C 207.875 198.315,208.983 198.271,208.519 198.542 M194.010 198.884 C 194.440 198.955,194.792 199.107,194.792 199.223 C 194.792 199.495,192.522 199.272,192.220 198.970 C 191.965 198.715,192.760 198.677,194.010 198.884 M208.661 199.559 C 208.276 200.182,199.841 200.654,198.923 200.104 C 198.680 199.959,199.625 199.885,202.048 199.862 C 203.958 199.843,205.990 199.737,206.563 199.626 C 207.940 199.359,208.801 199.332,208.661 199.559 M193.802 199.897 C 194.839 200.032,195.178 200.417,194.259 200.417 C 193.471 200.417,191.875 199.979,191.875 199.763 C 191.875 199.660,192.086 199.619,192.344 199.672 C 192.602 199.725,193.258 199.827,193.802 199.897 M208.750 200.609 C 207.597 201.270,199.840 201.694,198.923 201.146 C 198.680 201.001,199.625 200.927,202.048 200.903 C 203.958 200.884,205.990 200.778,206.563 200.667 C 207.937 200.401,209.169 200.368,208.750 200.609 M194.141 200.964 C 194.499 201.035,194.792 201.176,194.792 201.276 C 194.792 201.540,193.572 201.471,192.604 201.152 L 191.771 200.877 192.630 200.855 C 193.103 200.843,193.783 200.892,194.141 200.964 M208.958 201.444 C 208.958 201.638,207.835 201.916,205.521 202.294 C 204.132 202.520,200.242 202.529,199.271 202.308 C 198.897 202.223,199.984 202.107,201.979 202.018 C 203.813 201.937,206.016 201.743,206.875 201.586 C 208.897 201.219,208.958 201.215,208.958 201.444 M194.871 202.287 C 195.207 202.624,193.121 202.530,192.396 202.176 C 191.798 201.885,191.834 201.876,193.214 201.973 C 194.008 202.029,194.754 202.170,194.871 202.287 M208.951 202.700 C 208.253 203.109,204.797 203.539,202.396 203.516 C 198.806 203.482,197.995 203.184,201.354 203.134 C 202.844 203.111,204.906 202.973,205.938 202.826 C 208.307 202.489,209.389 202.444,208.951 202.700 M194.896 203.377 C 195.036 203.518,194.675 203.558,193.799 203.499 C 193.081 203.450,192.378 203.290,192.236 203.142 C 192.027 202.925,192.232 202.902,193.333 203.021 C 194.078 203.101,194.781 203.262,194.896 203.377 M209.031 203.760 C 208.486 204.306,204.731 204.831,201.932 204.753 C 197.885 204.640,198.038 204.277,202.147 204.242 C 204.242 204.224,206.074 204.095,206.979 203.902 C 208.835 203.505,209.320 203.472,209.031 203.760 M195.104 204.629 C 195.242 204.766,194.838 204.807,193.907 204.752 C 193.134 204.706,192.384 204.547,192.240 204.399 C 191.916 204.065,194.767 204.293,195.104 204.629 M208.831 205.003 C 208.137 205.696,201.288 206.169,199.375 205.655 C 198.816 205.505,199.351 205.451,201.667 205.422 C 203.328 205.402,205.484 205.264,206.458 205.116 C 208.818 204.757,209.089 204.744,208.831 205.003 M194.637 205.551 C 195.625 205.736,195.031 206.093,193.986 205.943 C 192.534 205.733,192.083 205.600,192.083 205.381 C 192.083 205.198,193.122 205.267,194.637 205.551 M208.750 206.024 C 208.750 206.606,203.573 207.166,200.815 206.883 C 197.781 206.572,198.002 206.460,201.684 206.445 C 203.451 206.437,205.646 206.310,206.563 206.161 C 208.772 205.803,208.750 205.805,208.750 206.024 M194.994 206.694 C 195.213 206.835,194.868 206.870,193.887 206.805 C 193.103 206.754,192.353 206.596,192.220 206.456 C 191.925 206.142,194.478 206.362,194.994 206.694 M208.958 207.066 C 208.958 207.642,203.285 208.117,200.270 207.793 C 198.750 207.629,198.906 207.608,202.708 207.458 C 204.943 207.370,207.146 207.213,207.604 207.110 C 208.752 206.852,208.958 206.845,208.958 207.066 M194.427 207.634 C 195.747 207.852,195.346 208.199,193.943 208.052 C 192.355 207.886,191.583 207.515,192.813 207.509 C 193.271 207.506,193.997 207.563,194.427 207.634 M208.635 208.105 C 208.007 208.703,201.985 209.168,199.896 208.779 C 199.282 208.665,199.914 208.584,202.292 208.470 C 204.068 208.385,205.943 208.237,206.458 208.142 C 207.789 207.896,208.874 207.878,208.635 208.105 M194.242 208.466 C 194.773 208.539,195.208 208.679,195.208 208.778 C 195.208 209.062,193.296 208.970,192.604 208.653 L 191.979 208.367 192.627 208.350 C 192.984 208.341,193.710 208.393,194.242 208.466 M208.547 209.206 C 207.291 209.670,203.967 210.037,201.907 209.938 C 198.750 209.786,198.957 209.486,202.253 209.435 C 203.821 209.411,205.901 209.265,206.875 209.112 C 208.657 208.830,209.442 208.874,208.547 209.206 M194.557 209.505 C 195.689 209.732,195.307 210.069,194.082 209.925 C 192.385 209.726,191.705 209.405,192.943 209.388 C 193.473 209.381,194.199 209.434,194.557 209.505 M208.838 209.975 C 209.197 210.555,202.667 211.256,200.133 210.909 C 198.512 210.687,199.051 210.518,201.197 210.576 C 202.429 210.609,204.214 210.477,205.729 210.240 C 208.909 209.744,208.706 209.761,208.838 209.975 M194.994 210.617 C 195.258 210.784,195.253 210.829,194.955 210.944 C 194.622 211.072,192.292 210.689,192.292 210.506 C 192.292 210.329,194.695 210.428,194.994 210.617 M209.053 211.026 C 209.172 211.218,208.123 211.487,205.729 211.877 C 204.341 212.104,200.658 212.113,199.688 211.892 C 199.309 211.806,200.338 211.691,202.292 211.601 C 204.068 211.519,206.224 211.325,207.083 211.169 C 207.943 211.013,208.711 210.874,208.790 210.860 C 208.869 210.845,208.987 210.920,209.053 211.026 M194.792 211.659 C 195.243 211.797,195.264 211.838,194.945 211.974 C 194.521 212.154,192.959 211.956,192.500 211.664 C 192.117 211.420,193.996 211.416,194.792 211.659 M208.841 212.076 C 208.132 212.784,199.794 213.421,199.188 212.813 C 199.050 212.674,199.933 212.590,201.834 212.563 C 203.404 212.541,205.438 212.388,206.354 212.224 C 208.444 211.850,209.106 211.811,208.841 212.076 M195.104 212.708 C 195.263 212.965,193.203 212.965,192.604 212.708 C 192.314 212.583,192.610 212.525,193.581 212.515 C 194.348 212.507,195.033 212.594,195.104 212.708 M193.211 215.521 C 193.306 215.901,193.481 216.042,193.858 216.042 C 194.447 216.042,194.523 216.285,194.054 216.674 C 193.831 216.859,193.799 217.007,193.950 217.158 C 194.362 217.570,194.198 217.932,193.660 217.797 C 193.283 217.703,193.082 217.782,192.880 218.106 C 192.524 218.676,192.365 218.656,192.206 218.021 C 192.111 217.640,191.936 217.500,191.559 217.500 C 190.975 217.500,190.893 217.257,191.350 216.879 C 191.574 216.693,191.602 216.519,191.454 216.242 C 191.145 215.665,191.202 215.568,191.767 215.710 C 192.151 215.806,192.352 215.731,192.546 215.420 C 192.892 214.866,193.052 214.890,193.211 215.521 M208.520 215.692 C 208.980 215.571,209.008 215.606,208.875 216.138 C 208.772 216.547,208.834 216.830,209.085 217.108 C 209.425 217.484,209.413 217.500,208.805 217.500 C 208.286 217.500,208.144 217.605,208.026 218.073 L 207.882 218.646 207.495 218.170 C 207.202 217.808,206.981 217.726,206.575 217.828 C 205.978 217.978,205.928 217.885,206.293 217.300 C 206.500 216.969,206.476 216.823,206.156 216.470 C 205.774 216.048,205.777 216.042,206.327 216.042 C 206.744 216.042,206.940 215.897,207.102 215.471 L 207.319 214.901 207.670 215.362 C 207.930 215.705,208.150 215.790,208.520 215.692 M198.125 215.950 C 198.125 216.144,198.345 216.250,198.750 216.250 C 199.437 216.250,199.546 216.473,199.058 216.879 C 198.774 217.115,198.774 217.194,199.063 217.634 C 199.373 218.107,199.364 218.125,198.840 218.125 C 198.532 218.125,198.125 218.328,197.902 218.594 L 197.507 219.063 197.375 218.594 C 197.277 218.247,197.087 218.125,196.642 218.125 C 195.951 218.125,195.903 217.998,196.391 217.459 C 196.659 217.164,196.683 217.016,196.495 216.828 C 196.113 216.446,196.204 216.250,196.764 216.250 C 197.066 216.250,197.370 216.077,197.503 215.827 C 197.744 215.377,198.125 215.452,198.125 215.950 M203.671 216.250 C 204.214 216.250,204.300 216.450,203.922 216.828 C 203.734 217.016,203.758 217.164,204.026 217.459 C 204.515 218.000,204.465 218.125,203.764 218.125 C 203.336 218.125,203.113 218.250,203.021 218.542 C 202.948 218.771,202.807 218.958,202.708 218.958 C 202.609 218.958,202.469 218.771,202.396 218.542 C 202.302 218.245,202.081 218.125,201.629 218.125 C 201.006 218.125,201.000 218.116,201.322 217.623 C 201.610 217.184,201.613 217.090,201.346 216.869 C 200.875 216.477,200.983 216.250,201.642 216.250 C 202.086 216.250,202.279 216.127,202.380 215.781 L 202.516 215.313 202.846 215.781 C 203.030 216.043,203.394 216.250,203.671 216.250 M188.480 219.219 C 188.431 219.477,188.390 219.266,188.390 218.750 C 188.390 218.234,188.431 218.023,188.480 218.281 C 188.530 218.539,188.530 218.961,188.480 219.219 M208.021 220.254 C 206.591 220.573,206.509 220.612,207.448 220.531 C 208.542 220.436,208.957 220.685,208.073 220.905 C 205.770 221.479,199.295 221.587,198.967 221.056 C 198.890 220.932,197.313 220.746,195.301 220.625 C 193.360 220.509,191.451 220.354,191.060 220.282 C 190.427 220.164,190.366 220.192,190.499 220.539 C 190.581 220.753,190.704 221.844,190.772 222.964 L 190.896 225.000 200.031 225.000 C 207.195 225.000,209.169 224.944,209.177 224.740 C 209.182 224.596,209.310 223.448,209.461 222.188 C 209.611 220.927,209.724 219.893,209.711 219.890 C 209.698 219.886,208.938 220.050,208.021 220.254 M204.948 220.772 C 205.206 220.822,205.628 220.822,205.885 220.772 C 206.143 220.722,205.932 220.682,205.417 220.682 C 204.901 220.682,204.690 220.722,204.948 220.772 M195.208 221.042 C 195.208 221.308,193.538 221.308,193.125 221.042 C 192.903 220.898,193.160 220.839,194.010 220.837 C 194.672 220.835,195.208 220.927,195.208 221.042 M200.268 220.988 C 200.931 221.029,201.962 221.029,202.560 220.987 C 203.157 220.945,202.615 220.911,201.354 220.911 C 200.094 220.912,199.605 220.946,200.268 220.988 M208.333 221.860 C 207.737 222.204,205.011 222.500,202.668 222.475 C 199.174 222.439,198.492 222.143,201.771 222.085 C 203.260 222.059,205.042 221.968,205.729 221.883 C 207.577 221.654,208.708 221.644,208.333 221.860 M195.417 222.083 C 195.417 222.198,194.953 222.292,194.387 222.292 C 193.821 222.292,193.300 222.198,193.229 222.083 C 193.149 221.954,193.540 221.875,194.259 221.875 C 194.896 221.875,195.417 221.969,195.417 222.083 M195.417 223.125 C 195.417 223.240,195.000 223.333,194.491 223.333 C 193.983 223.333,193.508 223.240,193.438 223.125 C 193.358 222.997,193.713 222.917,194.363 222.917 C 194.942 222.917,195.417 223.010,195.417 223.125 M208.331 223.114 C 207.285 223.727,200.460 223.898,199.165 223.343 C 198.763 223.171,199.046 223.144,200.417 223.222 C 201.391 223.278,203.172 223.246,204.375 223.151 C 207.509 222.904,208.709 222.892,208.331 223.114 M195.208 224.167 C 195.208 224.281,194.833 224.375,194.375 224.375 C 193.917 224.375,193.542 224.281,193.542 224.167 C 193.542 224.052,193.917 223.958,194.375 223.958 C 194.833 223.958,195.208 224.052,195.208 224.167 M208.087 224.176 C 207.028 224.793,200.030 224.973,199.028 224.408 C 198.755 224.254,199.297 224.223,200.938 224.298 C 202.198 224.356,204.073 224.316,205.104 224.209 C 207.795 223.930,208.522 223.922,208.087 224.176 " stroke="none" fill="#343434" fill-rule="evenodd"></path><path id="path2" d="M240.313 98.863 C 239.396 99.013,238.622 99.142,238.594 99.151 C 238.565 99.160,238.542 101.182,238.542 103.646 L 238.542 108.125 249.063 108.125 L 259.583 108.125 259.583 105.003 L 259.583 101.880 252.240 101.826 L 244.896 101.771 244.835 100.156 L 244.774 98.542 243.377 98.567 C 242.608 98.580,241.229 98.714,240.313 98.863 M225.521 99.455 C 224.490 99.568,222.966 99.658,222.135 99.656 C 221.305 99.653,220.625 99.690,220.625 99.738 C 220.625 99.786,221.667 101.693,222.942 103.975 L 225.258 108.125 228.983 108.125 C 231.032 108.125,232.708 108.073,232.708 108.009 C 232.708 107.805,227.898 99.697,227.642 99.468 C 227.472 99.317,226.816 99.313,225.521 99.455 M212.784 99.795 C 212.311 99.891,211.139 100.242,210.180 100.574 L 208.438 101.177 208.380 104.651 L 208.323 108.125 211.562 108.125 L 214.800 108.125 214.744 103.906 L 214.688 99.688 214.167 99.654 C 213.880 99.635,213.258 99.699,212.784 99.795 M273.542 104.896 L 273.542 108.125 276.667 108.125 L 279.792 108.125 279.792 105.673 L 279.792 103.222 279.010 103.264 C 278.175 103.310,276.667 102.948,276.667 102.702 C 276.667 102.621,276.242 102.435,275.724 102.290 C 275.205 102.145,274.731 101.945,274.670 101.846 C 274.609 101.748,274.330 101.667,274.050 101.667 L 273.542 101.667 273.542 104.896 M198.958 102.018 C 197.850 102.202,195.103 102.953,194.889 103.131 C 194.766 103.233,193.873 103.458,192.905 103.630 C 191.938 103.803,190.818 104.046,190.417 104.172 C 190.016 104.297,188.698 104.428,187.489 104.462 C 186.279 104.496,184.826 104.629,184.260 104.757 C 183.693 104.885,182.948 105.047,182.604 105.116 C 181.865 105.265,181.954 105.357,184.052 106.596 C 189.422 109.766,197.636 109.252,202.037 105.468 L 202.703 104.896 201.331 103.385 C 200.576 102.555,199.851 101.888,199.719 101.903 C 199.587 101.919,199.245 101.971,198.958 102.018 M136.756 116.490 C 125.560 117.762,125.572 132.171,136.771 134.997 C 140.735 135.997,143.247 138.266,142.676 140.332 C 141.739 143.726,136.161 143.710,131.975 140.301 L 130.810 139.352 129.207 140.803 C 128.326 141.601,127.296 142.575,126.920 142.967 L 126.236 143.680 127.233 144.609 C 130.558 147.710,134.081 149.057,138.870 149.060 L 141.802 149.063 143.588 148.178 C 148.837 145.577,150.713 139.474,147.705 134.787 C 146.139 132.347,142.922 130.245,138.778 128.956 C 135.599 127.967,134.766 127.270,134.741 125.575 C 134.685 121.912,139.506 121.759,144.792 125.255 L 145.313 125.600 146.950 122.892 C 147.851 121.403,148.554 120.156,148.513 120.121 C 145.599 117.636,140.506 116.063,136.756 116.490 M232.438 116.581 C 220.303 118.774,214.807 133.181,222.402 142.888 C 227.785 149.768,237.917 151.190,244.957 146.054 L 245.851 145.402 243.936 143.215 C 241.585 140.530,241.966 140.708,240.369 141.541 C 232.528 145.628,223.614 137.976,226.452 129.595 C 228.268 124.231,234.422 121.458,239.630 123.656 C 241.495 124.443,241.399 124.482,243.496 122.083 C 245.787 119.461,245.751 119.867,243.802 118.697 C 240.290 116.590,236.398 115.865,232.438 116.581 M168.360 117.656 C 168.141 118.086,164.530 125.170,160.335 133.399 C 156.140 141.628,152.708 148.401,152.708 148.451 C 152.708 148.501,154.301 148.542,156.249 148.542 L 159.789 148.542 161.250 145.625 L 162.711 142.708 169.286 142.708 L 175.862 142.708 177.239 145.625 L 178.616 148.542 182.112 148.542 L 185.608 148.542 185.252 147.727 C 185.056 147.279,181.708 140.157,177.813 131.899 L 170.729 116.886 169.744 116.880 C 168.813 116.875,168.736 116.918,168.360 117.656 M189.221 127.865 C 189.309 139.900,189.292 139.719,190.619 142.414 C 194.996 151.307,208.348 151.179,212.591 142.204 C 213.857 139.525,213.797 140.300,213.770 126.927 L 213.750 116.875 210.632 116.875 L 207.514 116.875 207.455 127.656 L 207.396 138.438 206.831 139.508 C 204.932 143.109,200.255 143.824,197.382 140.951 C 195.589 139.158,195.625 139.437,195.625 127.359 L 195.625 116.875 192.383 116.875 L 189.140 116.875 189.221 127.865 M251.458 132.708 L 251.458 148.542 261.979 148.542 L 272.500 148.542 272.500 145.417 L 272.500 142.292 265.208 142.292 L 257.917 142.292 257.917 138.854 L 257.917 135.417 263.958 135.417 L 270.000 135.417 270.000 132.188 L 270.000 128.958 263.958 128.958 L 257.917 128.958 257.917 126.042 L 257.917 123.125 265.313 123.125 L 272.708 123.125 272.708 120.000 L 272.708 116.875 262.083 116.875 L 251.458 116.875 251.458 132.708 M171.239 132.847 C 172.047 134.585,172.708 136.061,172.708 136.128 C 172.708 136.195,171.209 136.250,169.376 136.250 L 166.043 136.250 167.756 132.817 C 168.698 130.930,169.536 129.453,169.619 129.536 C 169.701 129.619,170.430 131.109,171.239 132.847 " stroke="none" fill="#fa3535" fill-rule="evenodd"></path><path id="path3" d="M111.346 76.510 C 111.291 76.654,111.271 83.849,111.302 92.500 L 111.357 108.229 111.408 92.347 L 111.458 76.464 117.760 76.406 L 124.063 76.348 117.754 76.299 C 112.862 76.261,111.423 76.308,111.346 76.510 M214.673 81.458 C 214.673 84.266,214.703 85.414,214.739 84.010 C 214.775 82.607,214.775 80.310,214.739 78.906 C 214.703 77.503,214.673 78.651,214.673 81.458 M264.667 79.583 C 264.667 81.359,264.699 82.086,264.738 81.198 C 264.777 80.310,264.777 78.857,264.738 77.969 C 264.699 77.081,264.667 77.807,264.667 79.583 M288.626 79.583 C 288.626 81.359,288.657 82.086,288.697 81.198 C 288.736 80.310,288.736 78.857,288.697 77.969 C 288.657 77.081,288.626 77.807,288.626 79.583 M142.383 80.677 L 141.771 81.354 142.448 80.742 C 142.820 80.406,143.125 80.101,143.125 80.065 C 143.125 79.904,142.953 80.046,142.383 80.677 M132.757 85.833 C 132.757 86.234,132.800 86.398,132.852 86.198 C 132.904 85.997,132.904 85.669,132.852 85.469 C 132.800 85.268,132.757 85.432,132.757 85.833 M119.228 89.113 C 120.122 89.153,121.528 89.152,122.353 89.113 C 123.179 89.073,122.448 89.041,120.729 89.042 C 119.010 89.042,118.335 89.074,119.228 89.113 M170.485 92.188 C 170.486 92.990,170.524 93.292,170.569 92.860 C 170.614 92.428,170.613 91.771,170.567 91.402 C 170.521 91.032,170.484 91.385,170.485 92.188 M182.771 92.292 C 182.771 92.922,182.810 93.180,182.858 92.865 C 182.905 92.549,182.905 92.034,182.858 91.719 C 182.810 91.404,182.771 91.661,182.771 92.292 M247.969 94.947 C 249.659 94.982,252.424 94.982,254.115 94.947 C 255.805 94.912,254.422 94.884,251.042 94.884 C 247.661 94.884,246.279 94.912,247.969 94.947 M214.658 97.917 C 214.658 99.005,214.694 99.451,214.736 98.906 C 214.779 98.362,214.779 97.471,214.736 96.927 C 214.694 96.383,214.658 96.828,214.658 97.917 M225.990 99.314 C 226.247 99.363,226.669 99.363,226.927 99.314 C 227.185 99.264,226.974 99.223,226.458 99.223 C 225.943 99.223,225.732 99.264,225.990 99.314 M153.802 102.227 C 154.003 102.279,154.331 102.279,154.531 102.227 C 154.732 102.175,154.568 102.132,154.167 102.132 C 153.766 102.132,153.602 102.175,153.802 102.227 M165.614 103.906 L 164.896 104.688 165.677 103.970 C 166.404 103.301,166.554 103.125,166.395 103.125 C 166.360 103.125,166.009 103.477,165.614 103.906 M201.619 170.450 C 201.460 170.551,201.708 170.620,202.240 170.622 C 202.727 170.624,203.125 170.589,203.125 170.544 C 203.125 170.370,201.869 170.292,201.619 170.450 M201.545 171.486 C 201.484 171.585,201.721 171.667,202.071 171.667 C 202.422 171.667,202.708 171.631,202.708 171.587 C 202.708 171.410,201.649 171.318,201.545 171.486 M201.250 175.625 C 201.422 175.736,201.750 175.822,201.979 175.816 L 202.396 175.804 201.979 175.625 C 201.356 175.357,200.836 175.357,201.250 175.625 M200.730 177.708 C 200.652 177.833,200.910 177.917,201.377 177.917 C 202.242 177.917,202.254 177.833,201.419 177.633 C 201.111 177.559,200.801 177.593,200.730 177.708 M200.313 178.750 C 200.015 178.878,200.249 178.933,201.128 178.944 C 201.806 178.952,202.322 178.924,202.274 178.882 C 202.049 178.683,200.683 178.591,200.313 178.750 M201.406 180.359 C 201.779 180.405,202.388 180.405,202.760 180.359 C 203.133 180.313,202.828 180.275,202.083 180.275 C 201.339 180.275,201.034 180.313,201.406 180.359 M199.561 180.866 C 200.016 180.997,200.535 180.998,201.019 180.869 C 201.699 180.687,201.631 180.668,200.313 180.665 C 199.023 180.663,198.936 180.686,199.561 180.866 M204.418 182.261 C 204.248 182.368,204.441 182.438,204.939 182.449 C 205.551 182.462,205.635 182.426,205.313 182.289 C 204.771 182.060,204.736 182.059,204.418 182.261 M205.000 190.625 C 204.766 190.776,204.870 190.827,205.417 190.827 C 205.963 190.827,206.068 190.776,205.833 190.625 C 205.661 190.514,205.474 190.423,205.417 190.423 C 205.359 190.423,205.172 190.514,205.000 190.625 M209.844 193.854 C 209.847 194.313,209.889 194.475,209.939 194.216 C 209.989 193.957,209.987 193.582,209.935 193.383 C 209.883 193.184,209.842 193.396,209.844 193.854 M200.575 193.689 C 200.834 193.739,201.209 193.737,201.409 193.685 C 201.608 193.633,201.396 193.592,200.938 193.594 C 200.479 193.597,200.316 193.639,200.575 193.689 M190.465 195.833 C 190.465 196.234,190.508 196.398,190.560 196.198 C 190.613 195.997,190.613 195.669,190.560 195.469 C 190.508 195.268,190.465 195.432,190.465 195.833 M193.854 197.292 C 193.488 197.449,193.508 197.472,194.023 197.485 C 194.363 197.494,194.554 197.413,194.479 197.292 C 194.408 197.177,194.333 197.090,194.311 197.098 C 194.289 197.106,194.083 197.193,193.854 197.292 M199.465 197.317 C 199.971 197.436,200.489 197.434,200.819 197.313 C 201.248 197.155,201.084 197.117,200.000 197.121 C 198.716 197.125,198.688 197.135,199.465 197.317 M202.448 197.230 C 202.706 197.280,203.128 197.280,203.385 197.230 C 203.643 197.181,203.432 197.140,202.917 197.140 C 202.401 197.140,202.190 197.181,202.448 197.230 M201.198 198.486 C 201.685 198.530,202.482 198.530,202.969 198.486 C 203.456 198.442,203.057 198.406,202.083 198.406 C 201.109 198.406,200.711 198.442,201.198 198.486 M193.958 199.167 C 193.469 199.323,193.479 199.335,194.127 199.354 C 194.538 199.367,194.764 199.291,194.688 199.167 C 194.617 199.052,194.541 198.968,194.519 198.979 C 194.497 198.991,194.245 199.075,193.958 199.167 M199.925 199.175 C 200.070 199.320,200.582 199.329,201.477 199.201 L 202.813 199.010 201.260 198.984 C 200.186 198.966,199.775 199.025,199.925 199.175 M210.919 202.604 C 210.918 204.552,210.950 205.377,210.988 204.437 C 211.027 203.498,211.027 201.904,210.989 200.896 C 210.950 199.887,210.919 200.656,210.919 202.604 M210.062 200.833 C 210.062 201.464,210.101 201.721,210.149 201.406 C 210.197 201.091,210.197 200.576,210.149 200.260 C 210.101 199.945,210.062 200.203,210.062 200.833 M201.719 200.361 C 202.263 200.404,203.154 200.404,203.698 200.361 C 204.242 200.319,203.797 200.283,202.708 200.283 C 201.620 200.283,201.174 200.319,201.719 200.361 M190.261 201.354 C 190.263 201.813,190.306 201.975,190.356 201.716 C 190.406 201.457,190.404 201.082,190.351 200.883 C 190.299 200.684,190.259 200.896,190.261 201.354 M201.725 201.403 C 202.273 201.446,203.117 201.446,203.600 201.402 C 204.084 201.359,203.635 201.323,202.604 201.324 C 201.573 201.325,201.177 201.360,201.725 201.403 M192.083 201.957 C 192.083 202.159,192.670 202.235,192.936 202.067 C 193.149 201.932,193.073 201.881,192.656 201.878 C 192.341 201.876,192.083 201.912,192.083 201.957 M193.854 202.292 C 193.237 202.449,193.239 202.451,194.023 202.475 C 194.504 202.490,194.766 202.418,194.688 202.292 C 194.617 202.177,194.541 202.094,194.519 202.108 C 194.497 202.122,194.198 202.204,193.854 202.292 M200.104 202.292 C 200.253 202.533,201.122 202.533,201.875 202.292 C 202.271 202.165,202.106 202.120,201.186 202.104 C 200.427 202.091,200.023 202.161,200.104 202.292 M203.284 202.439 C 203.543 202.489,203.918 202.487,204.117 202.435 C 204.316 202.383,204.104 202.342,203.646 202.344 C 203.188 202.347,203.025 202.389,203.284 202.439 M200.010 203.327 C 200.195 203.435,200.950 203.444,201.781 203.348 L 203.229 203.180 201.458 203.159 C 200.310 203.145,199.801 203.204,200.010 203.327 M200.417 204.598 C 200.417 204.748,200.811 204.774,201.615 204.676 C 203.225 204.481,203.255 204.375,201.701 204.375 C 200.926 204.375,200.417 204.464,200.417 204.598 M199.184 205.493 C 199.427 205.707,200.863 205.841,200.737 205.638 C 200.662 205.516,200.262 205.417,199.849 205.417 C 199.435 205.417,199.136 205.451,199.184 205.493 M190.060 206.979 C 190.061 207.552,190.102 207.762,190.149 207.445 C 190.197 207.128,190.196 206.660,190.147 206.403 C 190.097 206.147,190.058 206.406,190.060 206.979 M192.083 206.332 C 192.083 206.534,192.670 206.610,192.936 206.442 C 193.149 206.307,193.073 206.256,192.656 206.253 C 192.341 206.251,192.083 206.287,192.083 206.332 M199.948 206.713 C 200.285 206.875,200.548 206.875,200.885 206.713 C 201.297 206.514,201.240 206.487,200.417 206.487 C 199.594 206.487,199.536 206.514,199.948 206.713 M202.969 206.602 C 203.169 206.654,203.497 206.654,203.698 206.602 C 203.898 206.550,203.734 206.507,203.333 206.507 C 202.932 206.507,202.768 206.550,202.969 206.602 M194.375 207.917 L 193.854 208.083 194.427 208.104 C 194.742 208.116,195.000 208.031,195.000 207.917 C 195.000 207.802,194.977 207.718,194.948 207.729 C 194.919 207.741,194.661 207.825,194.375 207.917 M201.409 207.856 C 201.668 207.906,202.043 207.904,202.242 207.851 C 202.441 207.799,202.229 207.759,201.771 207.761 C 201.313 207.763,201.150 207.806,201.409 207.856 M204.635 207.852 C 204.836 207.904,205.164 207.904,205.365 207.852 C 205.565 207.800,205.401 207.757,205.000 207.757 C 204.599 207.757,204.435 207.800,204.635 207.852 M192.292 208.415 C 192.292 208.618,192.879 208.694,193.144 208.526 C 193.358 208.390,193.282 208.339,192.865 208.337 C 192.549 208.335,192.292 208.370,192.292 208.415 M194.063 208.750 C 193.480 208.898,193.498 208.911,194.335 208.934 C 194.886 208.949,195.183 208.878,195.104 208.750 C 194.963 208.521,194.961 208.521,194.063 208.750 M201.823 208.903 C 202.310 208.946,203.107 208.946,203.594 208.903 C 204.081 208.859,203.682 208.823,202.708 208.823 C 201.734 208.823,201.336 208.859,201.823 208.903 M202.243 209.943 C 202.618 209.989,203.180 209.988,203.493 209.941 C 203.806 209.893,203.500 209.855,202.813 209.856 C 202.125 209.857,201.869 209.896,202.243 209.943 M201.615 210.986 C 202.102 211.030,202.898 211.030,203.385 210.986 C 203.872 210.942,203.474 210.906,202.500 210.906 C 201.526 210.906,201.128 210.942,201.615 210.986 M200.417 211.875 C 200.796 212.120,201.826 212.120,202.396 211.875 C 202.687 211.750,202.406 211.693,201.458 211.684 C 200.511 211.676,200.198 211.734,200.417 211.875 M203.281 212.022 C 203.539 212.072,203.961 212.072,204.219 212.022 C 204.477 211.972,204.266 211.932,203.750 211.932 C 203.234 211.932,203.023 211.972,203.281 212.022 M210.682 213.333 C 210.682 213.849,210.722 214.060,210.772 213.802 C 210.822 213.544,210.822 213.122,210.772 212.865 C 210.722 212.607,210.682 212.818,210.682 213.333 M201.927 213.066 C 202.242 213.114,202.758 213.114,203.073 213.066 C 203.388 213.018,203.130 212.979,202.500 212.979 C 201.870 212.979,201.612 213.018,201.927 213.066 M203.909 214.522 C 204.168 214.572,204.543 214.570,204.742 214.518 C 204.941 214.466,204.729 214.425,204.271 214.428 C 203.813 214.430,203.650 214.473,203.909 214.522 M208.707 216.907 C 208.927 217.188,208.927 217.271,208.707 217.359 C 208.535 217.428,208.570 217.473,208.802 217.484 C 209.003 217.493,209.167 217.418,209.167 217.317 C 209.167 217.217,209.003 217.006,208.802 216.848 C 208.476 216.593,208.466 216.599,208.707 216.907 M210.465 218.750 C 210.465 219.151,210.508 219.315,210.560 219.115 C 210.613 218.914,210.613 218.586,210.560 218.385 C 210.508 218.185,210.465 218.349,210.465 218.750 M194.010 219.519 C 194.211 219.571,194.539 219.571,194.740 219.519 C 194.940 219.466,194.776 219.423,194.375 219.423 C 193.974 219.423,193.810 219.466,194.010 219.519 M201.203 219.944 C 201.693 219.988,202.443 219.988,202.870 219.943 C 203.297 219.898,202.896 219.862,201.979 219.863 C 201.063 219.864,200.713 219.900,201.203 219.944 M194.531 220.564 C 194.789 220.613,195.211 220.613,195.469 220.564 C 195.727 220.514,195.516 220.473,195.000 220.473 C 194.484 220.473,194.273 220.514,194.531 220.564 M200.164 220.779 C 200.885 220.820,202.010 220.820,202.664 220.779 C 203.319 220.738,202.729 220.704,201.354 220.705 C 199.979 220.705,199.444 220.739,200.164 220.779 M194.375 221.042 L 193.646 221.195 194.427 221.223 C 194.857 221.238,195.208 221.156,195.208 221.042 C 195.208 220.927,195.185 220.846,195.156 220.861 C 195.128 220.876,194.776 220.957,194.375 221.042 M201.818 221.400 C 202.188 221.446,202.844 221.447,203.277 221.402 C 203.709 221.357,203.406 221.319,202.604 221.318 C 201.802 221.317,201.448 221.354,201.818 221.400 M200.625 222.292 C 200.625 222.528,201.467 222.528,202.396 222.292 C 202.910 222.161,202.809 222.128,201.823 222.108 C 201.147 222.094,200.625 222.174,200.625 222.292 M204.219 222.435 C 204.419 222.488,204.747 222.488,204.948 222.435 C 205.148 222.383,204.984 222.340,204.583 222.340 C 204.182 222.340,204.018 222.383,204.219 222.435 M190.685 223.854 C 190.686 224.427,190.727 224.637,190.774 224.320 C 190.822 224.003,190.821 223.535,190.772 223.278 C 190.722 223.022,190.683 223.281,190.685 223.854 M202.240 223.692 C 202.612 223.739,203.221 223.739,203.594 223.692 C 203.966 223.646,203.661 223.608,202.917 223.608 C 202.172 223.608,201.867 223.646,202.240 223.692 M202.135 224.736 C 202.680 224.779,203.570 224.779,204.115 224.736 C 204.659 224.694,204.214 224.658,203.125 224.658 C 202.036 224.658,201.591 224.694,202.135 224.736 " stroke="none" fill="#949494" fill-rule="evenodd"></path><path id="path4" d="M238.436 92.292 L 238.438 108.229 248.958 108.232 L 259.479 108.235 249.012 108.178 L 238.544 108.121 238.489 92.238 L 238.434 76.354 238.436 92.292 M153.698 82.439 C 153.956 82.488,154.378 82.488,154.635 82.439 C 154.893 82.389,154.682 82.348,154.167 82.348 C 153.651 82.348,153.440 82.389,153.698 82.439 M244.874 85.729 C 244.874 87.333,244.907 87.962,244.947 87.126 C 244.986 86.291,244.986 84.978,244.946 84.210 C 244.906 83.441,244.874 84.125,244.874 85.729 M137.557 92.292 C 137.557 92.807,137.597 93.018,137.647 92.760 C 137.697 92.503,137.697 92.081,137.647 91.823 C 137.597 91.565,137.557 91.776,137.557 92.292 M129.883 92.760 L 129.271 93.438 129.948 92.826 C 130.320 92.489,130.625 92.184,130.625 92.149 C 130.625 91.988,130.453 92.129,129.883 92.760 M215.930 94.844 L 214.896 95.938 215.990 94.904 C 216.591 94.335,217.083 93.843,217.083 93.810 C 217.083 93.654,216.890 93.827,215.930 94.844 M244.888 98.333 L 244.896 101.771 252.188 101.775 L 259.479 101.779 252.245 101.720 L 245.010 101.661 244.945 98.279 L 244.879 94.896 244.888 98.333 M141.875 103.399 C 141.875 103.434,142.180 103.739,142.552 104.076 L 143.229 104.688 142.617 104.010 C 142.047 103.379,141.875 103.238,141.875 103.399 M279.836 105.672 L 279.792 108.114 276.615 108.178 L 273.438 108.241 276.621 108.287 C 280.346 108.341,280.039 108.598,279.948 105.507 L 279.880 103.229 279.836 105.672 M128.490 108.280 C 129.435 108.319,130.982 108.319,131.927 108.280 C 132.872 108.241,132.099 108.210,130.208 108.210 C 128.318 108.210,127.544 108.241,128.490 108.280 M191.825 108.897 C 192.084 108.947,192.459 108.945,192.659 108.893 C 192.858 108.841,192.646 108.800,192.188 108.803 C 191.729 108.805,191.566 108.848,191.825 108.897 M168.673 116.831 C 168.617 116.922,168.916 116.964,169.338 116.924 C 170.626 116.802,170.778 116.716,169.752 116.691 C 169.214 116.678,168.729 116.741,168.673 116.831 M190.791 116.822 C 191.742 116.861,193.242 116.860,194.124 116.821 C 195.007 116.782,194.229 116.751,192.396 116.751 C 190.563 116.751,189.840 116.783,190.791 116.822 M207.389 116.922 C 207.333 117.068,207.313 121.641,207.344 127.083 L 207.400 136.979 207.450 126.927 L 207.500 116.875 210.623 116.875 L 213.746 116.875 213.803 126.823 L 213.860 136.771 213.857 126.771 L 213.854 116.771 210.673 116.713 C 208.242 116.669,207.467 116.719,207.389 116.922 M256.719 116.823 C 259.669 116.855,264.497 116.855,267.448 116.823 C 270.398 116.790,267.984 116.763,262.083 116.763 C 256.182 116.763,253.768 116.790,256.719 116.823 M223.542 121.146 C 223.036 121.661,222.668 122.083,222.726 122.083 C 222.783 122.083,223.244 121.661,223.750 121.146 C 224.256 120.630,224.623 120.208,224.566 120.208 C 224.509 120.208,224.048 120.630,223.542 121.146 M261.510 123.281 C 263.544 123.315,266.872 123.315,268.906 123.281 C 270.940 123.247,269.276 123.219,265.208 123.219 C 261.141 123.219,259.477 123.247,261.510 123.281 M228.633 125.885 L 228.021 126.563 228.698 125.951 C 229.329 125.380,229.471 125.208,229.310 125.208 C 229.274 125.208,228.969 125.513,228.633 125.885 M270.084 132.188 C 270.085 134.021,270.116 134.743,270.155 133.792 C 270.194 132.841,270.194 131.341,270.155 130.459 C 270.116 129.576,270.084 130.354,270.084 132.188 M130.208 131.315 C 130.208 131.351,130.513 131.656,130.885 131.992 L 131.563 132.604 130.951 131.927 C 130.380 131.296,130.208 131.154,130.208 131.315 M218.803 131.979 C 218.805 132.438,218.848 132.600,218.897 132.341 C 218.947 132.082,218.945 131.707,218.893 131.508 C 218.841 131.309,218.800 131.521,218.803 131.979 M145.833 132.565 C 145.833 132.601,146.138 132.906,146.510 133.242 L 147.188 133.854 146.576 133.177 C 146.005 132.546,145.833 132.404,145.833 132.565 M218.803 133.646 C 218.805 134.104,218.848 134.267,218.897 134.008 C 218.947 133.749,218.945 133.374,218.893 133.175 C 218.841 132.975,218.800 133.188,218.803 133.646 M129.989 139.948 L 129.271 140.729 130.052 140.011 C 130.482 139.616,130.833 139.265,130.833 139.230 C 130.833 139.071,130.657 139.221,129.989 139.948 M265.156 142.238 L 272.500 142.297 272.500 145.417 L 272.500 148.538 262.031 148.595 L 251.563 148.652 262.083 148.649 L 272.604 148.646 272.604 145.417 L 272.604 142.188 265.208 142.183 L 257.813 142.179 265.156 142.238 M126.758 142.969 L 126.146 143.646 126.823 143.034 C 127.195 142.697,127.500 142.393,127.500 142.357 C 127.500 142.196,127.328 142.338,126.758 142.969 M235.156 142.651 C 235.529 142.697,236.138 142.697,236.510 142.651 C 236.883 142.604,236.578 142.567,235.833 142.567 C 235.089 142.567,234.784 142.604,235.156 142.651 M138.700 142.856 C 138.959 142.906,139.334 142.904,139.534 142.851 C 139.733 142.799,139.521 142.759,139.063 142.761 C 138.604 142.763,138.441 142.806,138.700 142.856 M126.250 143.815 C 126.250 143.851,126.555 144.156,126.927 144.492 L 127.604 145.104 126.992 144.427 C 126.422 143.796,126.250 143.654,126.250 143.815 M192.708 145.521 C 193.097 145.922,193.462 146.250,193.519 146.250 C 193.577 146.250,193.305 145.922,192.917 145.521 C 192.528 145.120,192.163 144.792,192.106 144.792 C 192.048 144.792,192.320 145.120,192.708 145.521 M210.197 145.573 L 209.479 146.354 210.260 145.636 C 210.988 144.968,211.137 144.792,210.978 144.792 C 210.944 144.792,210.592 145.143,210.197 145.573 M152.682 148.599 C 152.771 148.688,154.430 148.734,156.370 148.703 L 159.896 148.645 156.208 148.541 C 154.179 148.484,152.593 148.510,152.682 148.599 M180.479 148.697 C 181.487 148.735,183.081 148.735,184.021 148.696 C 184.960 148.658,184.135 148.627,182.188 148.627 C 180.240 148.627,179.471 148.659,180.479 148.697 M138.698 149.314 C 138.956 149.363,139.378 149.363,139.635 149.314 C 139.893 149.264,139.682 149.223,139.167 149.223 C 138.651 149.223,138.440 149.264,138.698 149.314 M234.950 149.314 C 235.209 149.364,235.584 149.362,235.784 149.310 C 235.983 149.258,235.771 149.217,235.313 149.219 C 234.854 149.222,234.691 149.264,234.950 149.314 M201.636 168.178 C 201.741 168.283,202.049 168.334,202.320 168.291 C 202.737 168.225,202.707 168.196,202.129 168.100 C 201.715 168.032,201.521 168.062,201.636 168.178 M201.722 172.649 C 202.038 172.697,202.507 172.696,202.763 172.647 C 203.020 172.597,202.760 172.558,202.188 172.560 C 201.615 172.561,201.405 172.602,201.722 172.649 M199.534 180.356 C 199.793 180.406,200.168 180.404,200.367 180.351 C 200.566 180.299,200.354 180.259,199.896 180.261 C 199.438 180.263,199.275 180.306,199.534 180.356 M203.333 180.417 C 203.333 180.678,203.554 180.678,203.958 180.417 C 204.211 180.253,204.181 180.214,203.802 180.212 C 203.544 180.210,203.333 180.302,203.333 180.417 M199.740 181.397 C 199.997 181.447,200.419 181.447,200.677 181.397 C 200.935 181.347,200.724 181.307,200.208 181.307 C 199.693 181.307,199.482 181.347,199.740 181.397 M195.145 183.444 C 194.823 183.727,194.643 183.958,194.744 183.958 C 194.845 183.958,195.148 183.724,195.417 183.438 C 196.039 182.775,195.902 182.778,195.145 183.444 M203.750 191.703 C 203.750 191.797,204.031 191.875,204.375 191.875 C 204.719 191.875,205.000 191.839,205.000 191.794 C 205.000 191.750,204.719 191.673,204.375 191.622 C 204.031 191.572,203.750 191.608,203.750 191.703 M197.969 192.852 C 198.169 192.904,198.497 192.904,198.698 192.852 C 198.898 192.800,198.734 192.757,198.333 192.757 C 197.932 192.757,197.768 192.800,197.969 192.852 M198.333 194.249 C 198.333 194.451,198.920 194.527,199.186 194.359 C 199.399 194.224,199.323 194.172,198.906 194.170 C 198.591 194.168,198.333 194.204,198.333 194.249 M201.510 194.310 C 201.711 194.363,202.039 194.363,202.240 194.310 C 202.440 194.258,202.276 194.215,201.875 194.215 C 201.474 194.215,201.310 194.258,201.510 194.310 M201.202 194.734 C 201.576 194.781,202.139 194.780,202.452 194.732 C 202.765 194.685,202.458 194.647,201.771 194.648 C 201.083 194.649,200.827 194.688,201.202 194.734 M199.094 195.156 C 199.041 195.242,199.574 195.286,200.280 195.254 C 202.437 195.156,202.692 195.064,200.898 195.031 C 199.959 195.014,199.148 195.070,199.094 195.156 M201.406 195.567 C 201.779 195.614,202.388 195.614,202.760 195.567 C 203.133 195.521,202.828 195.483,202.083 195.483 C 201.339 195.483,201.034 195.521,201.406 195.567 M210.886 196.354 C 210.888 196.813,210.931 196.975,210.981 196.716 C 211.031 196.457,211.029 196.082,210.976 195.883 C 210.924 195.684,210.884 195.896,210.886 196.354 M192.083 196.013 C 192.083 196.111,192.318 196.147,192.604 196.093 C 192.891 196.038,193.125 195.957,193.125 195.913 C 193.125 195.869,192.891 195.833,192.604 195.833 C 192.318 195.833,192.083 195.914,192.083 196.013 M209.851 196.979 C 209.853 197.552,209.893 197.762,209.941 197.445 C 209.989 197.128,209.988 196.660,209.938 196.403 C 209.889 196.147,209.850 196.406,209.851 196.979 M202.240 197.647 C 202.497 197.697,202.919 197.697,203.177 197.647 C 203.435 197.597,203.224 197.557,202.708 197.557 C 202.193 197.557,201.982 197.597,202.240 197.647 M190.469 198.438 C 190.472 198.896,190.514 199.059,190.564 198.800 C 190.614 198.541,190.612 198.166,190.560 197.966 C 190.508 197.767,190.467 197.979,190.469 198.438 M190.261 204.063 C 190.263 204.521,190.306 204.684,190.356 204.425 C 190.406 204.166,190.404 203.791,190.351 203.591 C 190.299 203.392,190.259 203.604,190.261 204.063 M210.053 204.479 C 210.055 204.938,210.098 205.100,210.147 204.841 C 210.197 204.582,210.195 204.207,210.143 204.008 C 210.091 203.809,210.050 204.021,210.053 204.479 M201.305 205.566 C 201.622 205.614,202.090 205.613,202.347 205.563 C 202.603 205.514,202.344 205.475,201.771 205.476 C 201.198 205.478,200.988 205.518,201.305 205.566 M202.240 205.980 C 202.497 206.030,202.919 206.030,203.177 205.980 C 203.435 205.931,203.224 205.890,202.708 205.890 C 202.193 205.890,201.982 205.931,202.240 205.980 M189.035 208.333 C 189.035 209.536,189.070 210.029,189.112 209.427 C 189.154 208.826,189.154 207.841,189.112 207.240 C 189.070 206.638,189.035 207.130,189.035 208.333 M201.510 206.602 C 201.711 206.654,202.039 206.654,202.240 206.602 C 202.440 206.550,202.276 206.507,201.875 206.507 C 201.474 206.507,201.310 206.550,201.510 206.602 M202.344 207.024 C 202.659 207.072,203.174 207.072,203.490 207.024 C 203.805 206.976,203.547 206.937,202.917 206.937 C 202.286 206.937,202.029 206.976,202.344 207.024 M210.896 209.792 C 210.896 210.422,210.935 210.680,210.983 210.365 C 211.030 210.049,211.030 209.534,210.983 209.219 C 210.935 208.904,210.896 209.161,210.896 209.792 M190.087 213.958 C 190.087 216.193,190.118 217.107,190.155 215.990 C 190.193 214.872,190.193 213.044,190.155 211.927 C 190.118 210.810,190.087 211.724,190.087 213.958 M197.977 214.738 C 198.756 214.778,199.974 214.778,200.686 214.737 C 201.397 214.697,200.760 214.664,199.271 214.664 C 197.781 214.665,197.199 214.698,197.977 214.738 M210.678 216.146 C 210.680 216.604,210.723 216.767,210.772 216.508 C 210.822 216.249,210.820 215.874,210.768 215.675 C 210.716 215.475,210.675 215.688,210.678 216.146 M189.015 216.667 C 189.015 217.182,189.056 217.393,189.105 217.135 C 189.155 216.878,189.155 216.456,189.105 216.198 C 189.056 215.940,189.015 216.151,189.015 216.667 M188.390 218.750 C 188.390 219.266,188.431 219.477,188.480 219.219 C 188.530 218.961,188.530 218.539,188.480 218.281 C 188.431 218.023,188.390 218.234,188.390 218.750 M192.760 219.519 C 192.961 219.571,193.289 219.571,193.490 219.519 C 193.690 219.466,193.526 219.423,193.125 219.423 C 192.724 219.423,192.560 219.466,192.760 219.519 M210.469 221.146 C 210.472 221.604,210.514 221.767,210.564 221.508 C 210.614 221.249,210.612 220.874,210.560 220.675 C 210.508 220.475,210.467 220.688,210.469 221.146 M198.018 220.772 C 198.475 220.823,198.927 220.975,199.024 221.109 C 199.144 221.278,199.172 221.256,199.114 221.042 C 199.057 220.829,198.736 220.721,198.109 220.705 C 197.194 220.681,197.194 220.681,198.018 220.772 M203.646 220.833 C 203.575 220.948,203.705 221.042,203.934 221.042 C 204.163 221.042,204.408 220.948,204.479 220.833 C 204.550 220.719,204.420 220.625,204.191 220.625 C 203.962 220.625,203.717 220.719,203.646 220.833 M203.385 223.269 C 203.586 223.321,203.914 223.321,204.115 223.269 C 204.315 223.216,204.151 223.173,203.750 223.173 C 203.349 223.173,203.185 223.216,203.385 223.269 " stroke="none" fill="#796d6d" fill-rule="evenodd"></path><path id="path5" d="M210.062 76.405 C 210.955 76.444,212.361 76.444,213.187 76.404 C 214.012 76.365,213.281 76.333,211.563 76.333 C 209.844 76.334,209.168 76.366,210.062 76.405 M226.198 76.405 C 227.372 76.443,229.294 76.443,230.469 76.405 C 231.643 76.368,230.682 76.338,228.333 76.338 C 225.984 76.338,225.023 76.368,226.198 76.405 M249.005 76.405 L 259.573 76.462 259.638 79.585 L 259.704 82.709 259.696 79.531 L 259.688 76.354 249.063 76.351 L 238.438 76.348 249.005 76.405 M270.677 76.406 C 273.971 76.438,279.362 76.438,282.656 76.406 C 285.951 76.374,283.255 76.348,276.667 76.348 C 270.078 76.348,267.383 76.374,270.677 76.406 M279.888 93.125 C 279.888 98.797,279.915 101.117,279.948 98.281 C 279.980 95.445,279.980 90.805,279.948 87.969 C 279.915 85.133,279.888 87.453,279.888 93.125 M209.844 195.313 C 209.847 195.771,209.889 195.934,209.939 195.675 C 209.989 195.416,209.987 195.041,209.935 194.841 C 209.883 194.642,209.842 194.854,209.844 195.313 M190.465 197.083 C 190.465 197.484,190.508 197.648,190.560 197.448 C 190.613 197.247,190.613 196.919,190.560 196.719 C 190.508 196.518,190.465 196.682,190.465 197.083 M210.896 198.125 C 210.896 198.755,210.935 199.013,210.983 198.698 C 211.030 198.383,211.030 197.867,210.983 197.552 C 210.935 197.237,210.896 197.495,210.896 198.125 M210.060 202.813 C 210.061 203.385,210.102 203.595,210.149 203.278 C 210.197 202.962,210.196 202.493,210.147 202.237 C 210.097 201.980,210.058 202.240,210.060 202.813 M190.257 202.708 C 190.257 203.109,190.300 203.273,190.352 203.073 C 190.404 202.872,190.404 202.544,190.352 202.344 C 190.300 202.143,190.257 202.307,190.257 202.708 M210.902 207.396 C 210.903 208.198,210.940 208.501,210.985 208.068 C 211.030 207.636,211.030 206.980,210.984 206.610 C 210.938 206.240,210.901 206.594,210.902 207.396 M190.062 208.958 C 190.062 209.589,190.101 209.846,190.149 209.531 C 190.197 209.216,190.197 208.701,190.149 208.385 C 190.101 208.070,190.062 208.328,190.062 208.958 M210.062 210.208 C 210.062 210.839,210.101 211.096,210.149 210.781 C 210.197 210.466,210.197 209.951,210.149 209.635 C 210.101 209.320,210.062 209.578,210.062 210.208 M189.040 213.125 C 189.040 214.672,189.073 215.305,189.113 214.531 C 189.153 213.758,189.153 212.492,189.113 211.719 C 189.073 210.945,189.040 211.578,189.040 213.125 M210.673 214.792 C 210.673 215.193,210.716 215.357,210.769 215.156 C 210.821 214.956,210.821 214.628,210.769 214.427 C 210.716 214.227,210.673 214.391,210.673 214.792 " stroke="none" fill="#8c8c8c" fill-rule="evenodd"></path></g></svg>