<svg id="svg" version="1.1" xmlns="http://www.w3.org/2000/svg" xmlns:xlink="http://www.w3.org/1999/xlink" width="400" height="225" viewBox="0, 0, 400,225"><g id="svgg"><path id="path0" d="M151.354 76.042 C 140.526 77.996,134.611 89.661,139.470 99.479 C 147.148 114.994,170.417 109.467,170.417 92.128 C 170.417 82.127,161.117 74.280,151.354 76.042 M190.350 76.055 C 178.881 77.374,172.385 89.696,177.727 100.000 C 182.158 108.548,193.220 111.328,201.345 105.934 C 201.980 105.513,202.500 105.079,202.500 104.970 C 202.500 104.718,198.707 100.390,198.553 100.466 C 198.489 100.498,197.922 100.795,197.292 101.126 C 190.010 104.959,181.570 98.884,182.897 90.765 C 183.918 84.514,190.655 80.761,196.458 83.209 C 197.203 83.524,197.938 83.797,198.091 83.817 C 198.687 83.896,202.284 79.516,201.940 79.129 C 200.290 77.275,194.074 75.627,190.350 76.055 M111.458 92.281 L 111.458 108.125 114.583 108.125 L 117.708 108.125 117.708 101.762 L 117.708 95.399 119.317 95.460 L 120.925 95.521 123.848 101.816 L 126.771 108.110 130.136 108.118 L 133.502 108.125 130.397 101.436 C 126.845 93.784,127.098 94.546,127.969 94.123 C 134.557 90.918,134.162 80.721,127.319 77.337 L 125.752 76.563 118.605 76.500 L 111.458 76.438 111.458 92.281 M208.333 92.292 L 208.333 108.125 211.458 108.125 L 214.583 108.125 214.583 102.129 L 214.583 96.133 215.846 94.889 C 216.956 93.796,217.138 93.687,217.356 93.986 C 217.493 94.174,219.337 97.431,221.454 101.226 L 225.304 108.125 229.006 108.125 C 231.042 108.125,232.708 108.087,232.708 108.040 C 232.708 107.992,230.286 103.844,227.324 98.821 C 224.363 93.797,221.829 89.478,221.693 89.221 C 221.464 88.788,221.820 88.339,226.722 82.867 C 229.623 79.629,232.069 76.862,232.157 76.719 C 232.282 76.514,231.428 76.458,228.142 76.458 L 223.968 76.458 219.432 81.458 C 216.937 84.208,214.826 86.458,214.740 86.458 C 214.654 86.458,214.583 84.208,214.583 81.458 L 214.583 76.458 211.458 76.458 L 208.333 76.458 208.333 92.292 M238.542 92.292 L 238.542 108.125 249.063 108.125 L 259.583 108.125 259.583 105.000 L 259.583 101.875 252.182 101.875 L 244.782 101.875 244.839 98.385 L 244.896 94.896 250.990 94.841 L 257.083 94.785 257.083 91.664 L 257.083 88.542 250.938 88.542 L 244.792 88.542 244.792 85.625 L 244.792 82.708 252.188 82.708 L 259.583 82.708 259.583 79.583 L 259.583 76.458 249.063 76.458 L 238.542 76.458 238.542 92.292 M264.792 79.583 L 264.792 82.708 269.167 82.708 L 273.542 82.708 273.542 95.417 L 273.542 108.125 276.667 108.125 L 279.792 108.125 279.792 95.417 L 279.792 82.708 284.167 82.708 L 288.542 82.708 288.542 79.583 L 288.542 76.458 276.667 76.458 L 264.792 76.458 264.792 79.583 M156.555 82.611 C 163.999 84.550,166.546 93.825,161.123 99.248 C 155.661 104.710,146.434 102.160,144.477 94.647 C 142.610 87.479,149.372 80.740,156.555 82.611 M125.000 83.177 C 126.428 84.152,126.892 86.177,125.990 87.502 C 124.999 88.957,124.701 89.055,121.027 89.133 L 117.708 89.203 117.708 85.956 L 117.708 82.708 121.011 82.708 C 124.093 82.708,124.359 82.740,125.000 83.177 M233.475 116.472 C 220.809 117.928,214.497 132.995,222.424 142.852 C 222.960 143.518,223.416 144.087,223.438 144.118 C 223.460 144.148,224.547 143.992,225.854 143.770 C 228.100 143.390,228.928 143.172,229.896 142.708 C 230.125 142.598,230.570 142.415,230.885 142.301 C 231.653 142.023,231.608 141.858,230.606 141.286 C 224.094 137.566,224.447 127.375,231.204 124.011 C 234.356 122.443,237.199 122.524,241.176 124.296 C 241.668 124.516,245.415 119.939,245.065 119.546 C 243.416 117.692,237.199 116.044,233.475 116.472 M135.440 116.774 C 130.557 118.146,127.763 122.210,128.487 126.885 C 129.120 130.974,131.381 133.170,136.817 134.975 C 142.395 136.827,144.113 139.092,141.919 141.700 C 140.160 143.790,135.019 143.032,131.822 140.212 L 130.832 139.338 128.532 141.477 C 126.340 143.515,126.249 143.633,126.605 143.969 C 127.192 144.524,128.910 145.000,130.328 145.000 C 131.081 145.000,132.220 145.190,133.051 145.453 C 134.436 145.893,136.010 145.971,139.701 145.781 C 140.292 145.751,140.952 145.935,141.888 146.392 C 144.807 147.815,145.342 147.693,147.193 145.178 C 151.990 138.662,148.148 131.842,137.920 128.720 C 135.155 127.877,134.033 126.265,134.930 124.429 C 136.066 122.104,139.800 122.140,143.644 124.512 C 144.508 125.045,145.269 125.425,145.337 125.358 C 145.404 125.290,146.149 124.127,146.992 122.774 L 148.525 120.313 147.981 119.863 C 144.743 117.186,139.003 115.773,135.440 116.774 M164.579 125.146 C 162.261 129.706,158.731 136.640,156.737 140.553 L 153.110 147.669 154.003 147.812 C 154.494 147.890,155.298 148.086,155.789 148.248 C 156.280 148.409,157.358 148.540,158.184 148.537 L 159.688 148.533 161.162 145.673 L 162.637 142.813 169.291 142.758 L 175.946 142.703 177.283 145.622 L 178.620 148.542 182.120 148.542 L 185.621 148.542 184.989 147.240 C 184.642 146.523,181.284 139.422,177.527 131.458 L 170.697 116.979 169.746 116.917 L 168.795 116.854 164.579 125.146 M189.375 127.769 C 189.375 139.841,189.381 139.907,190.736 142.485 C 191.961 144.817,194.331 147.105,196.398 147.950 C 197.379 148.351,203.556 148.327,205.665 147.914 C 208.572 147.344,210.765 145.579,212.368 142.521 C 213.738 139.908,213.750 139.783,213.750 127.730 L 213.750 116.875 210.625 116.875 L 207.500 116.875 207.500 127.359 C 207.500 139.154,207.517 139.004,205.982 140.748 C 203.233 143.870,198.205 143.219,196.180 139.479 C 195.736 138.659,195.728 138.471,195.670 127.760 L 195.611 116.875 192.493 116.875 L 189.375 116.875 189.375 127.769 M251.458 128.035 C 251.458 138.564,251.479 139.189,251.823 139.091 C 252.023 139.035,253.172 138.930,254.375 138.858 C 257.919 138.648,257.681 138.785,257.752 136.912 L 257.813 135.313 263.906 135.257 L 270.000 135.202 270.000 132.080 L 270.000 128.958 263.854 128.958 L 257.708 128.958 257.708 126.042 L 257.708 123.125 265.208 123.125 L 272.708 123.125 272.708 120.000 L 272.708 116.875 262.083 116.875 L 251.458 116.875 251.458 128.035 M171.278 132.806 C 172.153 134.688,172.817 136.280,172.754 136.343 C 172.612 136.486,166.042 136.498,166.042 136.356 C 166.042 136.148,169.477 129.375,169.580 129.379 C 169.639 129.382,170.403 130.924,171.278 132.806 M199.274 208.835 C 198.863 209.570,198.167 211.000,197.726 212.013 C 197.286 213.025,196.547 214.604,196.085 215.521 C 195.623 216.438,195.090 217.797,194.901 218.542 C 194.713 219.286,194.189 220.957,193.737 222.253 C 192.761 225.058,192.762 225.046,193.486 224.962 C 194.026 224.899,194.090 224.769,194.700 222.500 C 195.454 219.700,195.883 218.529,197.141 215.833 C 197.650 214.745,198.514 212.753,199.061 211.406 C 199.609 210.060,200.124 208.958,200.207 208.958 C 200.839 208.958,205.077 220.513,205.739 224.041 C 205.874 224.761,206.310 225.217,206.594 224.934 C 206.917 224.611,204.902 218.026,203.458 214.688 C 199.823 206.284,200.315 206.973,199.274 208.835 M201.875 219.167 C 201.631 219.325,201.685 219.369,202.123 219.372 C 202.431 219.374,202.742 219.281,202.813 219.167 C 202.977 218.901,202.287 218.901,201.875 219.167 M202.135 220.352 C 202.336 220.404,202.664 220.404,202.865 220.352 C 203.065 220.300,202.901 220.257,202.500 220.257 C 202.099 220.257,201.935 220.300,202.135 220.352 M202.292 221.250 C 201.824 221.400,201.849 221.419,202.540 221.438 C 202.963 221.449,203.367 221.365,203.438 221.250 C 203.586 221.009,203.044 221.009,202.292 221.250 M201.875 222.708 C 201.492 222.956,202.256 222.956,203.229 222.708 C 203.831 222.555,203.824 222.549,203.021 222.528 C 202.563 222.516,202.047 222.597,201.875 222.708 M202.500 223.542 L 201.771 223.695 202.604 223.708 C 203.063 223.715,203.625 223.640,203.854 223.542 C 204.397 223.309,203.607 223.309,202.500 223.542 M202.292 224.583 C 201.606 224.728,201.625 224.738,202.604 224.750 C 203.177 224.757,203.833 224.682,204.063 224.583 C 204.596 224.354,203.382 224.354,202.292 224.583 " stroke="none" fill="#f9f9f9" fill-rule="evenodd"></path><path id="path1" d="M0.000 112.500 L 0.000 225.000 96.357 224.948 L 192.715 224.896 193.529 222.500 C 193.977 221.182,194.496 219.495,194.682 218.750 C 194.868 218.005,195.431 216.552,195.932 215.521 C 196.433 214.490,197.499 212.276,198.301 210.602 C 200.211 206.613,200.026 206.593,201.980 211.009 C 204.541 216.795,205.146 218.386,205.940 221.427 C 206.349 222.991,206.732 224.435,206.793 224.635 C 206.898 224.982,211.681 225.000,303.452 225.000 L 400.000 225.000 400.000 112.500 L 400.000 0.000 200.000 0.000 L 0.000 0.000 0.000 112.500 M157.708 76.179 C 167.810 78.248,173.490 89.750,169.051 99.148 C 163.515 110.869,147.301 112.080,140.327 101.294 C 132.254 88.806,143.066 73.182,157.708 76.179 M196.354 76.345 C 198.357 76.886,202.292 78.885,202.292 79.361 C 202.292 79.444,201.395 80.558,200.300 81.836 L 198.308 84.161 197.253 83.626 C 191.698 80.811,184.765 83.826,183.228 89.725 C 181.050 98.087,189.437 104.945,197.112 101.079 L 198.703 100.277 200.653 102.532 C 203.037 105.290,202.960 104.938,201.407 105.984 C 190.475 113.344,175.771 105.557,175.752 92.396 C 175.736 81.576,186.033 73.553,196.354 76.345 M125.250 76.481 C 133.405 78.189,135.594 89.213,128.680 93.759 L 127.349 94.634 130.446 101.305 C 132.148 104.975,133.542 108.057,133.542 108.155 C 133.542 108.456,126.958 108.376,126.730 108.073 C 126.622 107.930,125.236 105.023,123.650 101.615 L 120.767 95.417 119.238 95.417 L 117.708 95.417 117.708 101.771 L 117.708 108.125 114.479 108.125 L 111.250 108.125 111.250 92.188 L 111.250 76.250 117.698 76.250 C 121.619 76.250,124.579 76.341,125.250 76.481 M214.840 81.283 L 214.896 86.317 219.454 81.283 L 224.011 76.250 228.273 76.250 C 230.922 76.250,232.508 76.326,232.465 76.451 C 232.427 76.562,230.005 79.332,227.083 82.606 C 224.161 85.881,221.748 88.673,221.719 88.811 C 221.691 88.949,224.187 93.328,227.266 98.542 L 232.864 108.021 229.199 108.078 C 227.184 108.109,225.436 108.097,225.315 108.051 C 225.194 108.004,223.316 104.773,221.141 100.871 L 217.188 93.776 215.990 94.954 L 214.792 96.133 214.792 102.129 L 214.792 108.125 211.563 108.125 L 208.333 108.125 208.333 92.188 L 208.333 76.250 211.559 76.250 L 214.784 76.250 214.840 81.283 M259.745 79.531 L 259.803 82.708 252.401 82.708 L 245.000 82.708 245.000 85.625 L 245.000 88.542 251.042 88.542 L 257.083 88.542 257.083 91.771 L 257.083 95.000 251.042 95.000 L 245.000 95.000 245.000 98.333 L 245.000 101.667 252.297 101.667 L 259.594 101.667 259.537 104.948 L 259.479 108.229 248.958 108.229 L 238.438 108.229 238.384 92.500 C 238.354 83.849,238.375 76.653,238.430 76.509 C 238.509 76.301,240.757 76.258,249.109 76.300 L 259.688 76.354 259.745 79.531 M288.750 79.479 L 288.750 82.708 284.377 82.708 L 280.003 82.708 279.950 95.469 L 279.896 108.229 276.720 108.287 L 273.545 108.344 273.491 95.578 L 273.438 82.813 269.010 82.756 L 264.583 82.700 264.583 79.475 L 264.583 76.250 276.667 76.250 L 288.750 76.250 288.750 79.479 M151.354 82.793 C 144.042 85.115,141.860 94.165,147.370 99.320 C 155.479 106.905,167.818 97.586,162.793 87.670 C 160.795 83.728,155.508 81.473,151.354 82.793 M117.708 85.833 L 117.708 88.958 120.889 88.958 C 125.256 88.958,126.785 87.967,126.354 85.415 C 125.994 83.287,124.793 82.708,120.736 82.708 L 117.708 82.708 117.708 85.833 M142.397 116.890 C 144.464 117.527,148.542 119.743,148.542 120.229 C 148.542 120.402,145.741 125.100,145.410 125.483 C 145.329 125.577,144.758 125.332,144.142 124.939 C 139.401 121.913,134.792 122.162,134.792 125.443 C 134.792 127.270,135.372 127.756,138.983 128.957 C 146.069 131.313,149.355 134.925,149.126 140.104 C 148.700 149.742,136.325 152.428,127.344 144.833 C 125.950 143.654,125.892 143.844,128.360 141.491 C 130.930 139.041,130.586 139.155,132.028 140.274 C 136.676 143.881,142.687 143.479,142.705 139.559 C 142.712 137.905,140.219 135.999,136.875 135.103 C 131.172 133.574,128.438 130.467,128.438 125.516 C 128.438 118.715,135.054 114.626,142.397 116.890 M239.479 116.761 C 241.526 117.315,245.417 119.304,245.417 119.796 C 245.417 119.889,244.518 121.002,243.420 122.269 L 241.423 124.573 240.373 124.041 C 234.823 121.228,227.889 124.246,226.353 130.142 C 224.175 138.503,232.567 145.360,240.244 141.492 L 241.843 140.686 243.838 142.984 C 246.190 145.692,246.116 145.397,244.688 146.344 C 235.142 152.681,222.167 147.895,219.383 137.010 C 216.255 124.780,227.443 113.506,239.479 116.761 M178.158 132.500 C 182.251 141.151,185.605 148.349,185.612 148.495 C 185.622 148.702,184.859 148.748,182.135 148.703 L 178.646 148.646 178.125 147.604 C 177.838 147.031,177.195 145.695,176.695 144.635 L 175.787 142.708 169.300 142.713 L 162.813 142.718 161.250 145.682 L 159.688 148.646 156.266 148.703 C 154.384 148.735,152.784 148.688,152.712 148.599 C 152.639 148.510,153.993 145.672,155.722 142.292 C 157.450 138.911,161.097 131.758,163.825 126.396 L 168.786 116.645 169.752 116.708 L 170.717 116.771 178.158 132.500 M195.625 127.046 C 195.625 135.645,195.678 137.604,195.936 138.472 C 197.452 143.577,204.528 144.118,206.857 139.307 C 207.309 138.374,207.316 138.219,207.356 127.566 L 207.396 116.771 210.625 116.771 L 213.854 116.771 213.908 127.244 C 213.953 135.868,213.907 137.982,213.652 139.223 C 211.259 150.833,195.702 152.772,190.417 142.118 C 189.227 139.719,189.174 139.092,189.170 127.344 L 189.167 116.667 192.396 116.667 L 195.625 116.667 195.625 127.046 M272.708 119.896 L 272.708 123.125 265.313 123.125 L 257.917 123.125 257.917 126.042 L 257.917 128.958 264.063 128.958 L 270.208 128.958 270.208 132.188 L 270.208 135.417 264.063 135.417 L 257.917 135.417 257.917 138.750 L 257.917 142.083 265.208 142.083 L 272.500 142.083 272.500 145.417 L 272.500 148.750 261.979 148.750 L 251.458 148.750 251.458 132.708 L 251.458 116.667 262.083 116.667 L 272.708 116.667 272.708 119.896 M167.861 132.814 C 166.975 134.591,166.250 136.091,166.250 136.148 C 166.250 136.204,167.703 136.250,169.479 136.250 C 171.255 136.250,172.708 136.212,172.708 136.165 C 172.708 136.018,169.612 129.583,169.541 129.583 C 169.503 129.583,168.748 131.037,167.861 132.814 M199.178 211.406 C 198.681 212.638,197.723 214.839,197.050 216.297 C 196.028 218.512,194.928 221.758,194.295 224.427 C 194.151 225.032,195.472 225.354,195.670 224.762 C 195.729 224.583,195.860 224.583,196.194 224.762 C 196.729 225.048,201.184 225.087,201.285 224.806 C 201.379 224.543,204.223 224.167,204.457 224.386 C 204.561 224.483,204.378 224.619,204.041 224.694 C 202.959 224.934,203.002 224.967,204.427 224.984 C 205.201 224.993,205.833 224.919,205.833 224.820 C 205.833 223.181,200.808 209.167,200.220 209.167 C 200.145 209.167,199.676 210.174,199.178 211.406 M202.917 219.167 C 202.917 219.281,202.565 219.374,202.135 219.372 C 201.554 219.369,201.434 219.317,201.667 219.167 C 202.077 218.901,202.917 218.901,202.917 219.167 M203.333 220.199 C 203.333 220.463,201.973 220.710,201.642 220.506 C 201.453 220.389,201.491 220.302,201.785 220.187 C 202.367 219.959,203.333 219.966,203.333 220.199 M203.657 221.232 C 203.508 221.472,201.893 221.754,201.711 221.572 C 201.472 221.333,202.160 221.048,202.981 221.045 C 203.417 221.043,203.722 221.127,203.657 221.232 M203.958 222.476 C 203.958 222.730,203.195 222.910,202.101 222.914 C 201.074 222.917,201.084 222.744,202.125 222.497 C 203.091 222.268,203.958 222.258,203.958 222.476 M204.024 223.559 C 203.900 223.683,203.201 223.836,202.472 223.898 C 201.207 224.005,200.896 223.742,201.979 223.482 C 202.852 223.272,204.258 223.325,204.024 223.559 " stroke="none" fill="#343434" fill-rule="evenodd"></path><path id="path2" d="M257.239 138.663 C 257.168 138.735,255.946 138.863,254.525 138.948 C 251.141 139.149,251.458 138.630,251.458 143.971 L 251.458 148.542 261.979 148.542 L 272.500 148.542 272.500 145.417 L 272.500 142.292 265.216 142.292 L 257.933 142.292 257.873 140.486 C 257.818 138.846,257.622 138.281,257.239 138.663 M240.521 141.466 C 238.437 142.688,235.046 143.012,232.768 142.209 C 231.990 141.934,231.853 141.949,230.707 142.434 C 228.785 143.248,227.112 143.750,226.324 143.750 C 225.419 143.750,223.750 144.160,223.750 144.383 C 223.750 144.475,224.289 144.979,224.948 145.504 C 230.753 150.131,239.056 150.359,244.959 146.052 L 245.855 145.398 243.902 143.180 C 241.611 140.579,241.838 140.694,240.521 141.466 M127.307 144.706 C 129.362 147.183,134.334 149.057,138.854 149.060 L 141.771 149.063 143.333 148.310 L 144.896 147.558 143.958 147.300 C 143.443 147.158,142.418 146.752,141.681 146.398 C 140.297 145.732,140.063 145.709,137.604 145.990 C 136.083 146.164,134.714 146.019,133.125 145.517 C 132.609 145.353,131.438 145.183,130.521 145.139 C 129.604 145.094,128.491 144.904,128.047 144.717 C 127.046 144.293,126.963 144.291,127.307 144.706 M205.625 148.032 C 204.980 148.235,203.549 148.334,201.042 148.351 C 197.495 148.374,197.421 148.383,198.333 148.690 C 200.447 149.402,205.302 148.966,206.875 147.922 C 207.339 147.615,206.798 147.662,205.625 148.032 M152.847 148.056 C 152.471 148.432,152.860 148.540,154.531 148.526 C 156.289 148.511,156.328 148.500,155.625 148.229 C 154.854 147.932,153.081 147.821,152.847 148.056 " stroke="none" fill="#fa3636" fill-rule="evenodd"></path><path id="path3" d="M209.958 76.405 C 210.909 76.444,212.409 76.444,213.291 76.405 C 214.174 76.366,213.396 76.334,211.563 76.334 C 209.729 76.335,209.007 76.366,209.958 76.405 M226.105 76.406 C 227.343 76.442,229.312 76.442,230.480 76.405 C 231.648 76.368,230.635 76.338,228.229 76.338 C 225.823 76.338,224.867 76.369,226.105 76.406 M238.429 76.510 C 238.375 76.654,238.354 83.849,238.384 92.500 L 238.438 108.229 248.906 108.232 L 259.375 108.235 248.958 108.178 L 238.542 108.121 238.542 92.292 L 238.542 76.462 249.115 76.406 L 259.688 76.350 249.108 76.300 C 240.799 76.261,238.507 76.306,238.429 76.510 M270.573 76.406 C 273.924 76.438,279.409 76.438,282.760 76.406 C 286.112 76.374,283.370 76.348,276.667 76.348 C 269.964 76.348,267.221 76.374,270.573 76.406 M153.597 82.441 C 153.913 82.489,154.382 82.488,154.638 82.438 C 154.895 82.389,154.635 82.350,154.063 82.351 C 153.490 82.353,153.280 82.393,153.597 82.441 M244.874 85.729 C 244.874 87.333,244.907 87.962,244.947 87.126 C 244.986 86.291,244.986 84.978,244.946 84.210 C 244.906 83.441,244.874 84.125,244.874 85.729 M137.557 92.292 C 137.557 92.807,137.597 93.018,137.647 92.760 C 137.697 92.503,137.697 92.081,137.647 91.823 C 137.597 91.565,137.557 91.776,137.557 92.292 M215.930 94.844 L 214.896 95.938 215.990 94.904 C 216.591 94.335,217.083 93.843,217.083 93.810 C 217.083 93.654,216.890 93.827,215.930 94.844 M244.888 98.333 L 244.896 101.771 252.188 101.775 L 259.479 101.779 252.245 101.720 L 245.010 101.661 244.945 98.279 L 244.879 94.896 244.888 98.333 M146.458 98.607 C 146.458 98.643,146.763 98.947,147.135 99.284 L 147.813 99.896 147.201 99.219 C 146.630 98.588,146.458 98.446,146.458 98.607 M128.490 108.280 C 129.435 108.319,130.982 108.319,131.927 108.280 C 132.872 108.241,132.099 108.210,130.208 108.210 C 128.318 108.210,127.544 108.241,128.490 108.280 M275.052 108.280 C 275.940 108.319,277.393 108.319,278.281 108.280 C 279.169 108.241,278.443 108.209,276.667 108.209 C 274.891 108.209,274.164 108.241,275.052 108.280 M168.673 116.831 C 168.617 116.922,168.916 116.964,169.338 116.924 C 170.626 116.802,170.778 116.716,169.752 116.691 C 169.214 116.678,168.729 116.741,168.673 116.831 M190.791 116.822 C 191.742 116.861,193.242 116.860,194.124 116.821 C 195.007 116.782,194.229 116.751,192.396 116.751 C 190.563 116.751,189.840 116.783,190.791 116.822 M207.389 116.922 C 207.333 117.068,207.313 121.641,207.344 127.083 L 207.400 136.979 207.450 126.927 L 207.500 116.875 210.623 116.875 L 213.746 116.875 213.803 126.823 L 213.860 136.771 213.857 126.771 L 213.854 116.771 210.673 116.713 C 208.242 116.669,207.467 116.719,207.389 116.922 M256.719 116.823 C 259.669 116.855,264.497 116.855,267.448 116.823 C 270.398 116.790,267.984 116.763,262.083 116.763 C 256.182 116.763,253.768 116.790,256.719 116.823 M270.084 132.188 C 270.085 134.021,270.116 134.743,270.155 133.792 C 270.194 132.841,270.194 131.341,270.155 130.459 C 270.116 129.576,270.084 130.354,270.084 132.188 M130.208 131.315 C 130.208 131.351,130.513 131.656,130.885 131.992 L 131.563 132.604 130.951 131.927 C 130.380 131.296,130.208 131.154,130.208 131.315 M261.510 142.239 C 263.544 142.273,266.872 142.273,268.906 142.239 C 270.940 142.205,269.276 142.177,265.208 142.177 C 261.141 142.177,259.477 142.205,261.510 142.239 M152.682 148.599 C 152.771 148.688,154.384 148.735,156.266 148.703 L 159.688 148.645 156.104 148.541 C 154.133 148.484,152.593 148.510,152.682 148.599 M180.479 148.697 C 181.487 148.735,183.081 148.735,184.021 148.696 C 184.960 148.658,184.135 148.627,182.188 148.627 C 180.240 148.627,179.471 148.659,180.479 148.697 M256.733 148.698 C 259.692 148.730,264.473 148.730,267.358 148.698 C 270.244 148.665,267.823 148.638,261.979 148.638 C 256.135 148.638,253.775 148.665,256.733 148.698 M201.636 220.469 C 201.741 220.574,202.049 220.625,202.320 220.583 C 202.737 220.517,202.707 220.488,202.129 220.392 C 201.715 220.323,201.521 220.354,201.636 220.469 M201.722 224.941 C 202.038 224.989,202.507 224.988,202.763 224.938 C 203.020 224.889,202.760 224.850,202.188 224.851 C 201.615 224.853,201.405 224.893,201.722 224.941 " stroke="none" fill="#7d7777" fill-rule="evenodd"></path><path id="path4" d="M111.346 76.510 C 111.291 76.654,111.271 83.849,111.302 92.500 L 111.357 108.229 111.408 92.347 L 111.458 76.464 117.760 76.406 L 124.063 76.348 117.754 76.299 C 112.862 76.261,111.423 76.308,111.346 76.510 M214.673 81.458 C 214.673 84.266,214.703 85.414,214.739 84.010 C 214.775 82.607,214.775 80.310,214.739 78.906 C 214.703 77.503,214.673 78.651,214.673 81.458 M264.667 79.583 C 264.667 81.359,264.699 82.086,264.738 81.198 C 264.777 80.310,264.777 78.857,264.738 77.969 C 264.699 77.081,264.667 77.807,264.667 79.583 M288.626 79.583 C 288.626 81.359,288.657 82.086,288.697 81.198 C 288.736 80.310,288.736 78.857,288.697 77.969 C 288.657 77.081,288.626 77.807,288.626 79.583 M142.383 80.677 L 141.771 81.354 142.448 80.742 C 142.820 80.406,143.125 80.101,143.125 80.065 C 143.125 79.904,142.953 80.046,142.383 80.677 M132.757 85.833 C 132.757 86.234,132.800 86.398,132.852 86.198 C 132.904 85.997,132.904 85.669,132.852 85.469 C 132.800 85.268,132.757 85.432,132.757 85.833 M119.228 89.113 C 120.122 89.153,121.528 89.152,122.353 89.113 C 123.179 89.073,122.448 89.041,120.729 89.042 C 119.010 89.042,118.335 89.074,119.228 89.113 M170.485 92.188 C 170.486 92.990,170.524 93.292,170.569 92.860 C 170.614 92.428,170.613 91.771,170.567 91.402 C 170.521 91.032,170.484 91.385,170.485 92.188 M182.771 92.292 C 182.771 92.922,182.810 93.180,182.858 92.865 C 182.905 92.549,182.905 92.034,182.858 91.719 C 182.810 91.404,182.771 91.661,182.771 92.292 M247.969 94.947 C 249.659 94.982,252.424 94.982,254.115 94.947 C 255.805 94.912,254.422 94.884,251.042 94.884 C 247.661 94.884,246.279 94.912,247.969 94.947 M214.675 102.083 C 214.675 105.464,214.704 106.846,214.739 105.156 C 214.774 103.466,214.774 100.701,214.739 99.010 C 214.704 97.320,214.675 98.703,214.675 102.083 M153.802 102.227 C 154.003 102.279,154.331 102.279,154.531 102.227 C 154.732 102.175,154.568 102.132,154.167 102.132 C 153.766 102.132,153.602 102.175,153.802 102.227 M165.614 103.906 L 164.896 104.688 165.677 103.970 C 166.404 103.301,166.554 103.125,166.395 103.125 C 166.360 103.125,166.009 103.477,165.614 103.906 M137.867 116.397 C 138.126 116.447,138.501 116.445,138.700 116.393 C 138.900 116.341,138.688 116.300,138.229 116.303 C 137.771 116.305,137.608 116.348,137.867 116.397 M189.263 127.292 C 189.263 133.078,189.290 135.445,189.323 132.552 C 189.355 129.659,189.355 124.924,189.323 122.031 C 189.290 119.138,189.263 121.505,189.263 127.292 M257.791 126.042 C 257.791 127.703,257.823 128.383,257.863 127.552 C 257.903 126.721,257.903 125.362,257.863 124.531 C 257.823 123.701,257.791 124.380,257.791 126.042 M225.893 132.813 C 225.894 133.385,225.935 133.595,225.983 133.278 C 226.031 132.962,226.029 132.493,225.980 132.237 C 225.931 131.980,225.891 132.240,225.893 132.813 M257.796 135.488 C 257.737 135.642,257.721 136.463,257.761 137.311 L 257.834 138.854 257.875 137.139 L 257.917 135.423 264.010 135.364 L 270.104 135.306 264.004 135.257 C 259.055 135.218,257.883 135.261,257.796 135.488 M169.375 136.250 L 165.938 136.370 169.311 136.414 C 171.384 136.441,172.733 136.378,172.813 136.250 C 172.883 136.135,172.912 136.062,172.877 136.086 C 172.841 136.110,171.266 136.184,169.375 136.250 M254.847 138.899 C 255.163 138.947,255.632 138.946,255.888 138.897 C 256.145 138.847,255.885 138.808,255.313 138.810 C 254.740 138.811,254.530 138.852,254.847 138.899 M130.784 145.147 C 131.043 145.197,131.418 145.195,131.617 145.143 C 131.816 145.091,131.604 145.050,131.146 145.053 C 130.688 145.055,130.525 145.098,130.784 145.147 M199.844 148.269 C 200.044 148.321,200.372 148.321,200.573 148.269 C 200.773 148.216,200.609 148.173,200.208 148.173 C 199.807 148.173,199.643 148.216,199.844 148.269 M201.545 223.778 C 201.484 223.877,201.721 223.958,202.071 223.958 C 202.422 223.958,202.708 223.922,202.708 223.878 C 202.708 223.702,201.649 223.610,201.545 223.778 " stroke="none" fill="#949494" fill-rule="evenodd"></path><path id="path5" d="M259.667 79.583 C 259.667 81.359,259.699 82.086,259.738 81.198 C 259.777 80.310,259.777 78.857,259.738 77.969 C 259.699 77.081,259.667 77.807,259.667 79.583 M279.890 95.521 C 279.890 102.510,279.916 105.340,279.948 101.808 C 279.980 98.276,279.980 92.557,279.948 89.100 C 279.916 85.642,279.890 88.531,279.890 95.521 " stroke="none" fill="#8c8c8c" fill-rule="evenodd"></path></g></svg>