<svg id="svg" version="1.1" xmlns="http://www.w3.org/2000/svg" xmlns:xlink="http://www.w3.org/1999/xlink" width="400" height="225" viewBox="0, 0, 400,225"><g id="svgg"><path id="path0" d="M151.354 76.042 C 140.526 77.996,134.611 89.661,139.470 99.479 C 147.148 114.994,170.417 109.467,170.417 92.128 C 170.417 82.127,161.117 74.280,151.354 76.042 M190.350 76.055 C 178.881 77.374,172.385 89.696,177.727 100.000 C 182.158 108.548,193.220 111.328,201.345 105.934 C 201.980 105.513,202.500 105.079,202.500 104.970 C 202.500 104.718,198.707 100.390,198.553 100.466 C 198.489 100.498,197.922 100.795,197.292 101.126 C 190.010 104.959,181.570 98.884,182.897 90.765 C 183.918 84.514,190.655 80.761,196.458 83.209 C 197.203 83.524,197.938 83.797,198.091 83.817 C 198.687 83.896,202.284 79.516,201.940 79.129 C 200.290 77.275,194.074 75.627,190.350 76.055 M111.458 92.281 L 111.458 108.125 114.583 108.125 L 117.708 108.125 117.708 101.762 L 117.708 95.399 119.317 95.460 L 120.925 95.521 123.848 101.816 L 126.771 108.110 130.136 108.118 L 133.502 108.125 130.397 101.436 C 126.845 93.784,127.098 94.546,127.969 94.123 C 134.557 90.918,134.162 80.721,127.319 77.337 L 125.752 76.563 118.605 76.500 L 111.458 76.438 111.458 92.281 M208.333 92.292 L 208.333 108.125 211.458 108.125 L 214.583 108.125 214.583 102.129 L 214.583 96.133 215.846 94.889 C 216.956 93.796,217.138 93.687,217.356 93.986 C 217.493 94.174,219.337 97.431,221.454 101.226 L 225.304 108.125 229.006 108.125 C 231.042 108.125,232.708 108.087,232.708 108.040 C 232.708 107.992,230.286 103.844,227.324 98.821 C 224.363 93.797,221.829 89.478,221.693 89.221 C 221.464 88.788,221.820 88.339,226.722 82.867 C 229.623 79.629,232.069 76.862,232.157 76.719 C 232.282 76.514,231.428 76.458,228.142 76.458 L 223.968 76.458 219.432 81.458 C 216.937 84.208,214.826 86.458,214.740 86.458 C 214.654 86.458,214.583 84.208,214.583 81.458 L 214.583 76.458 211.458 76.458 L 208.333 76.458 208.333 92.292 M238.542 92.292 L 238.542 108.125 249.063 108.125 L 259.583 108.125 259.583 105.000 L 259.583 101.875 252.182 101.875 L 244.782 101.875 244.839 98.385 L 244.896 94.896 250.990 94.841 L 257.083 94.785 257.083 91.664 L 257.083 88.542 250.938 88.542 L 244.792 88.542 244.792 85.625 L 244.792 82.708 252.188 82.708 L 259.583 82.708 259.583 79.583 L 259.583 76.458 249.063 76.458 L 238.542 76.458 238.542 92.292 M264.792 79.583 L 264.792 82.708 269.167 82.708 L 273.542 82.708 273.542 95.417 L 273.542 108.125 276.667 108.125 L 279.792 108.125 279.792 95.417 L 279.792 82.708 284.167 82.708 L 288.542 82.708 288.542 79.583 L 288.542 76.458 276.667 76.458 L 264.792 76.458 264.792 79.583 M156.555 82.611 C 163.999 84.550,166.546 93.825,161.123 99.248 C 155.661 104.710,146.434 102.160,144.477 94.647 C 142.610 87.479,149.372 80.740,156.555 82.611 M125.000 83.177 C 126.428 84.152,126.892 86.177,125.990 87.502 C 124.999 88.957,124.701 89.055,121.027 89.133 L 117.708 89.203 117.708 85.956 L 117.708 82.708 121.011 82.708 C 124.093 82.708,124.359 82.740,125.000 83.177 M233.475 116.472 C 220.809 117.928,214.497 132.995,222.424 142.852 C 222.960 143.518,223.421 144.092,223.450 144.129 C 223.478 144.166,223.896 143.994,224.378 143.749 C 224.860 143.503,225.877 143.171,226.638 143.013 C 227.398 142.854,228.619 142.533,229.350 142.300 C 230.081 142.066,230.873 141.875,231.110 141.875 C 231.415 141.875,231.242 141.688,230.510 141.229 C 224.065 137.192,224.462 127.367,231.204 124.011 C 234.356 122.443,237.199 122.524,241.176 124.296 C 241.668 124.516,245.415 119.939,245.065 119.546 C 243.416 117.692,237.199 116.044,233.475 116.472 M135.440 116.774 C 130.557 118.146,127.763 122.210,128.487 126.885 C 129.120 130.977,131.380 133.170,136.829 134.979 C 141.837 136.642,143.613 138.492,142.451 140.839 L 141.947 141.859 142.796 142.201 C 145.558 143.316,148.246 143.586,148.558 142.781 C 150.881 136.777,146.847 131.445,137.920 128.720 C 135.155 127.877,134.033 126.265,134.930 124.429 C 136.066 122.104,139.800 122.140,143.644 124.512 C 144.508 125.045,145.269 125.425,145.337 125.358 C 145.404 125.290,146.149 124.127,146.992 122.774 L 148.525 120.313 147.981 119.863 C 144.743 117.186,139.003 115.773,135.440 116.774 M167.272 119.833 C 166.452 121.472,163.396 127.486,160.480 133.198 C 157.565 138.910,155.229 143.712,155.290 143.870 C 155.350 144.027,155.827 144.264,156.349 144.395 C 156.871 144.527,157.350 144.717,157.412 144.817 C 157.474 144.918,157.683 145.001,157.877 145.001 C 158.071 145.002,158.510 145.149,158.852 145.327 C 159.195 145.506,159.804 145.722,160.206 145.807 L 160.938 145.962 161.835 144.335 L 162.733 142.708 169.344 142.708 L 175.955 142.708 176.753 144.479 C 177.390 145.895,177.639 146.250,177.994 146.252 C 178.238 146.252,179.047 146.440,179.792 146.669 C 181.649 147.238,183.291 147.481,184.201 147.322 L 184.965 147.188 177.832 132.083 L 170.700 116.979 169.732 116.916 L 168.764 116.853 167.272 119.833 M189.375 127.769 C 189.375 141.136,189.531 141.936,192.805 145.335 L 194.063 146.641 195.367 146.643 C 196.084 146.644,196.742 146.689,196.829 146.742 C 197.687 147.273,205.320 147.225,207.187 146.677 C 207.989 146.442,208.848 146.250,209.097 146.250 C 209.712 146.250,211.456 144.262,212.368 142.521 C 213.738 139.908,213.750 139.783,213.750 127.730 L 213.750 116.875 210.625 116.875 L 207.500 116.875 207.500 127.359 C 207.500 139.154,207.517 139.004,205.982 140.748 C 203.233 143.870,198.205 143.219,196.180 139.479 C 195.736 138.659,195.728 138.471,195.670 127.760 L 195.611 116.875 192.493 116.875 L 189.375 116.875 189.375 127.769 M251.458 128.021 C 251.458 135.771,251.526 139.167,251.680 139.167 C 251.802 139.167,252.067 139.078,252.269 138.971 C 252.470 138.863,253.519 138.733,254.599 138.681 C 257.439 138.546,257.676 138.396,257.752 136.689 L 257.813 135.313 263.906 135.257 L 270.000 135.202 270.000 132.080 L 270.000 128.958 263.854 128.958 L 257.708 128.958 257.708 126.042 L 257.708 123.125 265.208 123.125 L 272.708 123.125 272.708 120.000 L 272.708 116.875 262.083 116.875 L 251.458 116.875 251.458 128.021 M171.278 132.806 C 172.153 134.688,172.817 136.280,172.754 136.343 C 172.612 136.486,166.042 136.498,166.042 136.356 C 166.042 136.148,169.477 129.375,169.580 129.379 C 169.639 129.382,170.403 130.924,171.278 132.806 M130.417 139.688 C 130.195 139.954,130.256 140.000,130.833 140.000 C 131.411 140.000,131.471 139.954,131.250 139.688 C 131.107 139.516,130.920 139.375,130.833 139.375 C 130.747 139.375,130.559 139.516,130.417 139.688 M199.845 204.876 C 198.968 205.991,195.316 213.937,194.809 215.833 C 194.580 216.693,194.057 218.380,193.648 219.583 C 193.240 220.786,192.762 222.333,192.587 223.021 C 192.413 223.708,192.219 224.442,192.158 224.651 C 192.065 224.964,192.147 225.019,192.621 224.964 C 193.237 224.891,193.540 224.204,194.166 221.458 C 194.775 218.787,195.946 215.348,197.075 212.917 C 197.739 211.484,198.689 209.303,199.185 208.070 C 199.680 206.836,200.170 205.855,200.271 205.889 C 200.937 206.111,204.608 216.097,205.727 220.729 C 206.578 224.256,206.850 225.000,207.289 225.000 C 207.647 225.000,207.640 224.896,207.162 223.177 C 206.883 222.174,206.291 219.995,205.845 218.333 C 205.400 216.672,204.845 214.831,204.613 214.241 C 204.174 213.129,200.408 204.527,200.311 204.416 C 200.281 204.381,200.071 204.588,199.845 204.876 M202.135 217.227 C 202.336 217.279,202.664 217.279,202.865 217.227 C 203.065 217.175,202.901 217.132,202.500 217.132 C 202.099 217.132,201.935 217.175,202.135 217.227 M202.242 218.272 C 202.501 218.322,202.876 218.320,203.075 218.268 C 203.275 218.216,203.063 218.175,202.604 218.178 C 202.146 218.180,201.983 218.223,202.242 218.272 M202.083 219.583 C 201.699 219.832,202.252 219.832,203.229 219.583 L 203.854 219.424 203.125 219.403 C 202.724 219.391,202.255 219.472,202.083 219.583 M202.813 220.417 L 201.979 220.566 202.708 220.581 C 203.109 220.589,203.625 220.515,203.854 220.417 C 204.345 220.206,203.991 220.206,202.813 220.417 M202.604 221.458 L 201.771 221.608 202.708 221.622 C 203.224 221.631,203.833 221.557,204.063 221.458 C 204.596 221.229,203.884 221.229,202.604 221.458 M203.026 222.524 C 202.341 222.624,201.684 222.754,201.567 222.813 C 201.184 223.006,203.870 222.728,204.390 222.520 C 204.992 222.280,204.696 222.281,203.026 222.524 M202.813 223.451 L 201.354 223.728 202.757 223.629 C 204.072 223.537,205.741 223.134,204.688 223.163 C 204.458 223.169,203.615 223.299,202.813 223.451 M202.500 224.583 L 201.563 224.729 202.604 224.736 C 203.177 224.739,203.927 224.671,204.271 224.583 L 204.896 224.424 204.167 224.431 C 203.766 224.435,203.016 224.503,202.500 224.583 " stroke="none" fill="#f9f9f9" fill-rule="evenodd"></path><path id="path1" d="M-0.000 112.500 L -0.000 225.000 95.969 224.948 L 191.938 224.896 192.435 223.021 C 192.709 221.990,193.291 220.068,193.729 218.750 C 194.168 217.432,194.737 215.651,194.994 214.792 C 195.252 213.932,195.779 212.620,196.165 211.875 C 196.551 211.130,197.466 209.255,198.200 207.708 C 199.815 204.301,200.253 203.794,200.691 204.822 C 200.855 205.206,201.576 206.833,202.293 208.438 C 204.563 213.513,205.203 215.224,206.151 218.750 C 206.659 220.641,207.242 222.797,207.447 223.542 L 207.819 224.896 303.909 224.948 L 400.000 225.000 400.000 112.500 L 400.000 0.000 200.000 0.000 L 0.000 0.000 -0.000 112.500 M156.529 75.944 C 167.075 77.089,173.685 89.338,169.051 99.148 C 164.124 109.580,150.681 111.997,142.483 103.926 C 132.671 94.264,138.623 77.318,152.349 75.836 C 153.833 75.675,154.122 75.683,156.529 75.944 M196.354 76.345 C 198.357 76.886,202.292 78.885,202.292 79.361 C 202.292 79.444,201.395 80.558,200.300 81.836 L 198.308 84.161 197.253 83.626 C 191.698 80.811,184.765 83.826,183.228 89.725 C 181.052 98.082,189.442 104.943,197.112 101.079 L 198.703 100.277 200.653 102.532 C 203.037 105.290,202.960 104.938,201.407 105.984 C 190.472 113.346,175.758 105.552,175.755 92.396 C 175.752 81.554,186.023 73.551,196.354 76.345 M125.250 76.481 C 133.445 78.197,135.611 89.508,128.576 93.850 L 127.340 94.613 130.441 101.295 C 132.146 104.970,133.542 108.057,133.542 108.155 C 133.542 108.456,126.958 108.376,126.730 108.073 C 126.622 107.930,125.236 105.023,123.650 101.615 L 120.767 95.417 119.238 95.417 L 117.708 95.417 117.708 101.771 L 117.708 108.125 114.479 108.125 L 111.250 108.125 111.250 92.188 L 111.250 76.250 117.698 76.250 C 121.619 76.250,124.579 76.341,125.250 76.481 M214.840 81.283 L 214.896 86.317 219.454 81.283 L 224.011 76.250 228.256 76.250 C 230.590 76.250,232.499 76.320,232.497 76.406 C 232.496 76.492,230.061 79.281,227.086 82.604 C 224.111 85.927,221.677 88.740,221.676 88.854 C 221.676 88.969,224.193 93.328,227.270 98.542 L 232.865 108.021 229.200 108.078 C 227.184 108.109,225.436 108.097,225.315 108.051 C 225.194 108.004,223.316 104.773,221.141 100.871 L 217.188 93.776 215.990 94.954 L 214.792 96.133 214.792 102.129 L 214.792 108.125 211.563 108.125 L 208.333 108.125 208.333 92.188 L 208.333 76.250 211.559 76.250 L 214.784 76.250 214.840 81.283 M259.745 79.531 L 259.803 82.708 252.401 82.708 L 245.000 82.708 245.000 85.625 L 245.000 88.542 251.042 88.542 L 257.083 88.542 257.083 91.771 L 257.083 95.000 251.042 95.000 L 245.000 95.000 245.000 98.333 L 245.000 101.667 252.297 101.667 L 259.594 101.667 259.537 104.948 L 259.479 108.229 248.958 108.229 L 238.438 108.229 238.384 92.500 C 238.354 83.849,238.375 76.653,238.430 76.509 C 238.509 76.301,240.757 76.258,249.109 76.300 L 259.688 76.354 259.745 79.531 M288.750 79.479 L 288.750 82.708 284.377 82.708 L 280.003 82.708 279.950 95.469 L 279.896 108.229 276.720 108.287 L 273.545 108.344 273.491 95.578 L 273.438 82.813 269.010 82.756 L 264.583 82.700 264.583 79.475 L 264.583 76.250 276.667 76.250 L 288.750 76.250 288.750 79.479 M151.354 82.793 C 144.042 85.115,141.860 94.165,147.370 99.320 C 155.479 106.905,167.818 97.586,162.793 87.670 C 160.795 83.728,155.508 81.473,151.354 82.793 M117.708 85.833 L 117.708 88.958 120.889 88.958 C 125.262 88.958,126.785 87.968,126.352 85.406 C 125.996 83.294,124.745 82.711,120.573 82.709 L 117.708 82.708 117.708 85.833 M142.397 116.890 C 144.464 117.527,148.542 119.743,148.542 120.229 C 148.542 120.404,145.737 125.106,145.405 125.489 C 145.320 125.586,144.729 125.331,144.091 124.923 C 139.379 121.909,134.792 122.166,134.792 125.443 C 134.792 127.280,135.337 127.730,139.096 129.000 C 146.145 131.381,149.360 134.929,149.129 140.074 C 148.694 149.748,136.379 152.446,127.344 144.846 C 125.940 143.665,125.896 143.812,128.363 141.478 C 130.938 139.042,130.588 139.157,132.028 140.274 C 136.665 143.873,142.708 143.458,142.708 139.541 C 142.708 137.903,140.198 135.994,136.875 135.103 C 131.172 133.574,128.438 130.467,128.438 125.516 C 128.438 118.715,135.054 114.626,142.397 116.890 M239.479 116.761 C 241.526 117.315,245.417 119.304,245.417 119.796 C 245.417 119.889,244.518 121.002,243.420 122.269 L 241.423 124.573 240.373 124.041 C 234.823 121.228,227.889 124.246,226.353 130.142 C 224.175 138.503,232.567 145.360,240.244 141.492 L 241.843 140.686 243.838 142.984 C 246.190 145.692,246.116 145.397,244.688 146.344 C 233.936 153.482,219.893 146.658,218.833 133.781 C 217.939 122.912,228.878 113.894,239.479 116.761 M178.158 132.500 C 182.251 141.151,185.605 148.349,185.612 148.495 C 185.622 148.702,184.859 148.748,182.135 148.703 L 178.646 148.646 178.018 147.396 C 177.673 146.708,177.031 145.372,176.592 144.427 L 175.793 142.708 169.303 142.712 L 162.813 142.715 161.269 145.733 L 159.725 148.750 156.229 148.750 C 154.306 148.750,152.696 148.680,152.650 148.594 C 152.604 148.508,154.009 145.625,155.771 142.188 C 157.533 138.750,161.183 131.597,163.881 126.291 L 168.786 116.645 169.752 116.708 L 170.717 116.771 178.158 132.500 M195.625 127.046 C 195.625 135.645,195.678 137.604,195.936 138.472 C 197.452 143.577,204.528 144.118,206.857 139.307 C 207.309 138.374,207.316 138.219,207.356 127.566 L 207.396 116.771 210.625 116.771 L 213.854 116.771 213.911 127.188 C 213.977 139.092,213.914 139.757,212.464 142.544 C 207.783 151.545,194.970 151.297,190.417 142.118 C 189.227 139.719,189.174 139.092,189.170 127.344 L 189.167 116.667 192.396 116.667 L 195.625 116.667 195.625 127.046 M272.708 119.896 L 272.708 123.125 265.313 123.125 L 257.917 123.125 257.917 126.042 L 257.917 128.958 264.063 128.958 L 270.208 128.958 270.208 132.188 L 270.208 135.417 264.063 135.417 L 257.917 135.417 257.917 138.750 L 257.917 142.083 265.208 142.083 L 272.500 142.083 272.500 145.417 L 272.500 148.750 261.979 148.750 L 251.458 148.750 251.458 132.708 L 251.458 116.667 262.083 116.667 L 272.708 116.667 272.708 119.896 M167.861 132.814 C 166.975 134.591,166.250 136.091,166.250 136.148 C 166.250 136.204,167.703 136.250,169.479 136.250 C 171.255 136.250,172.708 136.212,172.708 136.165 C 172.708 136.018,169.612 129.583,169.541 129.583 C 169.503 129.583,168.748 131.037,167.861 132.814 M200.024 206.463 C 199.904 206.747,199.138 208.526,198.322 210.417 C 197.506 212.307,196.564 214.500,196.229 215.290 C 195.893 216.079,195.289 218.001,194.886 219.560 C 194.483 221.120,193.977 222.982,193.762 223.698 L 193.371 225.000 196.998 225.000 C 198.993 225.000,200.625 224.923,200.625 224.829 C 200.625 224.678,204.254 224.162,205.295 224.165 C 205.997 224.168,205.448 224.444,204.215 224.708 L 203.021 224.965 204.868 224.983 C 206.688 225.000,206.713 224.993,206.580 224.531 C 206.505 224.273,206.114 222.750,205.710 221.146 C 204.778 217.444,203.051 212.265,201.701 209.121 C 200.269 205.786,200.294 205.825,200.024 206.463 M202.917 216.042 C 202.917 216.156,202.565 216.249,202.135 216.247 C 201.554 216.244,201.434 216.192,201.667 216.042 C 202.077 215.776,202.917 215.776,202.917 216.042 M203.333 217.074 C 203.333 217.338,201.973 217.585,201.642 217.381 C 201.453 217.264,201.491 217.177,201.785 217.062 C 202.367 216.834,203.333 216.841,203.333 217.074 M203.609 218.141 C 203.293 218.457,201.667 218.654,201.667 218.376 C 201.667 218.114,202.133 217.974,203.115 217.941 C 203.629 217.924,203.769 217.981,203.609 218.141 M203.958 219.353 C 203.958 219.646,203.387 219.792,202.240 219.792 C 201.087 219.792,201.043 219.628,202.125 219.372 C 203.094 219.143,203.958 219.133,203.958 219.353 M204.246 220.421 C 203.953 220.714,201.075 220.961,201.354 220.669 C 201.604 220.409,202.278 220.275,203.531 220.237 C 204.162 220.217,204.390 220.276,204.246 220.421 M204.303 221.494 C 203.769 221.793,201.250 221.972,201.250 221.712 C 201.250 221.589,201.789 221.429,202.448 221.356 C 203.107 221.284,203.786 221.200,203.958 221.170 C 204.452 221.083,204.670 221.289,204.303 221.494 M204.838 222.537 C 204.583 222.792,200.833 223.077,201.073 222.823 C 201.253 222.633,202.994 222.347,204.156 222.316 C 204.868 222.297,205.026 222.349,204.838 222.537 M196.146 222.708 C 196.217 222.823,196.134 222.917,195.962 222.917 C 195.790 222.917,195.592 222.823,195.521 222.708 C 195.450 222.594,195.533 222.500,195.705 222.500 C 195.876 222.500,196.075 222.594,196.146 222.708 M204.871 223.402 C 204.449 223.638,200.854 223.888,201.063 223.667 C 201.236 223.483,204.852 222.956,205.079 223.082 C 205.179 223.137,205.086 223.281,204.871 223.402 M196.250 223.750 C 196.250 224.013,195.824 224.013,195.417 223.750 C 195.173 223.593,195.231 223.547,195.677 223.545 C 195.992 223.543,196.250 223.635,196.250 223.750 M195.833 224.583 C 196.077 224.741,196.019 224.786,195.573 224.788 C 195.258 224.790,195.000 224.698,195.000 224.583 C 195.000 224.320,195.426 224.320,195.833 224.583 " stroke="none" fill="#343434" fill-rule="evenodd"></path><path id="path2" d="M257.083 138.393 C 256.797 138.513,255.672 138.678,254.583 138.759 C 253.495 138.840,252.346 139.009,252.031 139.136 L 251.458 139.365 251.458 143.953 L 251.458 148.542 261.979 148.542 L 272.500 148.542 272.500 145.417 L 272.500 142.292 265.208 142.292 L 257.917 142.292 257.917 140.325 C 257.917 138.190,257.863 138.065,257.083 138.393 M128.153 141.790 L 126.227 143.602 126.916 144.321 C 129.866 147.402,134.040 149.057,138.870 149.060 L 141.802 149.063 143.588 148.178 C 146.762 146.605,149.218 143.334,147.227 143.333 C 146.523 143.332,142.938 142.429,142.314 142.095 C 142.043 141.950,141.669 142.038,140.920 142.424 C 139.142 143.339,135.472 142.709,132.990 141.063 C 130.792 139.605,130.413 139.662,128.153 141.790 M240.538 141.456 C 238.372 142.724,235.087 143.029,232.701 142.183 C 231.786 141.859,229.981 141.915,229.479 142.283 C 229.267 142.438,228.312 142.694,226.250 143.148 C 223.633 143.724,223.350 144.231,224.939 145.497 C 230.754 150.132,239.052 150.362,244.959 146.052 L 245.855 145.398 243.902 143.180 C 241.614 140.582,241.836 140.695,240.538 141.456 M154.517 144.857 C 153.911 145.898,152.708 148.276,152.708 148.432 C 152.708 148.492,154.301 148.542,156.247 148.542 L 159.786 148.542 160.409 147.306 L 161.033 146.071 160.048 145.770 C 159.506 145.605,158.154 145.136,157.043 144.728 L 155.024 143.985 154.517 144.857 M177.708 146.453 C 177.708 146.564,177.915 147.080,178.167 147.599 L 178.625 148.542 182.107 148.542 L 185.589 148.542 185.347 147.901 C 185.120 147.299,185.054 147.267,184.271 147.378 C 183.288 147.518,181.508 147.258,179.479 146.678 C 177.781 146.194,177.708 146.184,177.708 146.453 M207.292 146.692 C 205.259 147.227,201.321 147.335,198.021 146.946 C 194.345 146.513,193.962 146.587,195.417 147.451 C 199.111 149.645,204.105 149.620,207.813 147.391 C 209.942 146.110,209.870 146.013,207.292 146.692 " stroke="none" fill="#fa3636" fill-rule="evenodd"></path><path id="path3" d="M209.958 76.405 C 210.909 76.444,212.409 76.444,213.291 76.405 C 214.174 76.366,213.396 76.334,211.563 76.334 C 209.729 76.335,209.007 76.366,209.958 76.405 M226.105 76.406 C 227.343 76.442,229.312 76.442,230.480 76.405 C 231.648 76.368,230.635 76.338,228.229 76.338 C 225.823 76.338,224.867 76.369,226.105 76.406 M238.429 76.510 C 238.375 76.654,238.354 83.849,238.384 92.500 L 238.438 108.229 248.906 108.232 L 259.375 108.235 248.958 108.178 L 238.542 108.121 238.542 92.292 L 238.542 76.462 249.115 76.406 L 259.688 76.350 249.108 76.300 C 240.799 76.261,238.507 76.306,238.429 76.510 M270.573 76.406 C 273.924 76.438,279.409 76.438,282.760 76.406 C 286.112 76.374,283.370 76.348,276.667 76.348 C 269.964 76.348,267.221 76.374,270.573 76.406 M153.597 82.441 C 153.913 82.489,154.382 82.488,154.638 82.438 C 154.895 82.389,154.635 82.350,154.063 82.351 C 153.490 82.353,153.280 82.393,153.597 82.441 M244.874 85.729 C 244.874 87.333,244.907 87.962,244.947 87.126 C 244.986 86.291,244.986 84.978,244.946 84.210 C 244.906 83.441,244.874 84.125,244.874 85.729 M137.557 92.292 C 137.557 92.807,137.597 93.018,137.647 92.760 C 137.697 92.503,137.697 92.081,137.647 91.823 C 137.597 91.565,137.557 91.776,137.557 92.292 M129.883 92.760 L 129.271 93.438 129.948 92.826 C 130.320 92.489,130.625 92.184,130.625 92.149 C 130.625 91.988,130.453 92.129,129.883 92.760 M215.930 94.844 L 214.896 95.938 215.990 94.904 C 216.591 94.335,217.083 93.843,217.083 93.810 C 217.083 93.654,216.890 93.827,215.930 94.844 M244.888 98.333 L 244.896 101.771 252.188 101.775 L 259.479 101.779 252.245 101.720 L 245.010 101.661 244.945 98.279 L 244.879 94.896 244.888 98.333 M128.490 108.280 C 129.435 108.319,130.982 108.319,131.927 108.280 C 132.872 108.241,132.099 108.210,130.208 108.210 C 128.318 108.210,127.544 108.241,128.490 108.280 M275.052 108.280 C 275.940 108.319,277.393 108.319,278.281 108.280 C 279.169 108.241,278.443 108.209,276.667 108.209 C 274.891 108.209,274.164 108.241,275.052 108.280 M168.673 116.831 C 168.617 116.922,168.916 116.964,169.338 116.924 C 170.626 116.802,170.778 116.716,169.752 116.691 C 169.214 116.678,168.729 116.741,168.673 116.831 M190.791 116.822 C 191.742 116.861,193.242 116.860,194.124 116.821 C 195.007 116.782,194.229 116.751,192.396 116.751 C 190.563 116.751,189.840 116.783,190.791 116.822 M207.389 116.922 C 207.333 117.068,207.313 121.641,207.344 127.083 L 207.400 136.979 207.450 126.927 L 207.500 116.875 210.623 116.875 L 213.746 116.875 213.803 126.823 L 213.860 136.771 213.857 126.771 L 213.854 116.771 210.673 116.713 C 208.242 116.669,207.467 116.719,207.389 116.922 M256.719 116.823 C 259.669 116.855,264.497 116.855,267.448 116.823 C 270.398 116.790,267.984 116.763,262.083 116.763 C 256.182 116.763,253.768 116.790,256.719 116.823 M270.084 132.188 C 270.085 134.021,270.116 134.743,270.155 133.792 C 270.194 132.841,270.194 131.341,270.155 130.459 C 270.116 129.576,270.084 130.354,270.084 132.188 M130.208 131.315 C 130.208 131.351,130.513 131.656,130.885 131.992 L 131.563 132.604 130.951 131.927 C 130.380 131.296,130.208 131.154,130.208 131.315 M129.883 140.052 L 129.271 140.729 129.948 140.117 C 130.320 139.781,130.625 139.476,130.625 139.440 C 130.625 139.279,130.453 139.421,129.883 140.052 M261.510 142.239 C 263.544 142.273,266.872 142.273,268.906 142.239 C 270.940 142.205,269.276 142.177,265.208 142.177 C 261.141 142.177,259.477 142.205,261.510 142.239 M138.700 142.856 C 138.959 142.906,139.334 142.904,139.534 142.851 C 139.733 142.799,139.521 142.759,139.063 142.761 C 138.604 142.763,138.441 142.806,138.700 142.856 M126.250 143.815 C 126.250 143.851,126.555 144.156,126.927 144.492 L 127.604 145.104 126.992 144.427 C 126.422 143.796,126.250 143.654,126.250 143.815 M152.682 148.599 C 152.771 148.688,154.430 148.734,156.370 148.703 L 159.896 148.645 156.208 148.541 C 154.179 148.484,152.593 148.510,152.682 148.599 M180.479 148.697 C 181.487 148.735,183.081 148.735,184.021 148.696 C 184.960 148.658,184.135 148.627,182.188 148.627 C 180.240 148.627,179.471 148.659,180.479 148.697 M256.733 148.698 C 259.692 148.730,264.473 148.730,267.358 148.698 C 270.244 148.665,267.823 148.638,261.979 148.638 C 256.135 148.638,253.775 148.665,256.733 148.698 M201.636 217.344 C 201.741 217.449,202.049 217.500,202.320 217.458 C 202.737 217.392,202.707 217.363,202.129 217.267 C 201.715 217.198,201.521 217.229,201.636 217.344 M201.927 218.477 C 202.128 218.529,202.456 218.529,202.656 218.477 C 202.857 218.425,202.693 218.382,202.292 218.382 C 201.891 218.382,201.727 218.425,201.927 218.477 " stroke="none" fill="#7b7474" fill-rule="evenodd"></path><path id="path4" d="M111.346 76.510 C 111.291 76.654,111.271 83.849,111.302 92.500 L 111.357 108.229 111.408 92.347 L 111.458 76.464 117.760 76.406 L 124.063 76.348 117.754 76.299 C 112.862 76.261,111.423 76.308,111.346 76.510 M214.673 81.458 C 214.673 84.266,214.703 85.414,214.739 84.010 C 214.775 82.607,214.775 80.310,214.739 78.906 C 214.703 77.503,214.673 78.651,214.673 81.458 M264.667 79.583 C 264.667 81.359,264.699 82.086,264.738 81.198 C 264.777 80.310,264.777 78.857,264.738 77.969 C 264.699 77.081,264.667 77.807,264.667 79.583 M288.626 79.583 C 288.626 81.359,288.657 82.086,288.697 81.198 C 288.736 80.310,288.736 78.857,288.697 77.969 C 288.657 77.081,288.626 77.807,288.626 79.583 M142.383 80.677 L 141.771 81.354 142.448 80.742 C 142.820 80.406,143.125 80.101,143.125 80.065 C 143.125 79.904,142.953 80.046,142.383 80.677 M132.757 85.833 C 132.757 86.234,132.800 86.398,132.852 86.198 C 132.904 85.997,132.904 85.669,132.852 85.469 C 132.800 85.268,132.757 85.432,132.757 85.833 M119.228 89.113 C 120.122 89.153,121.528 89.152,122.353 89.113 C 123.179 89.073,122.448 89.041,120.729 89.042 C 119.010 89.042,118.335 89.074,119.228 89.113 M170.485 92.188 C 170.486 92.990,170.524 93.292,170.569 92.860 C 170.614 92.428,170.613 91.771,170.567 91.402 C 170.521 91.032,170.484 91.385,170.485 92.188 M182.771 92.292 C 182.771 92.922,182.810 93.180,182.858 92.865 C 182.905 92.549,182.905 92.034,182.858 91.719 C 182.810 91.404,182.771 91.661,182.771 92.292 M247.969 94.947 C 249.659 94.982,252.424 94.982,254.115 94.947 C 255.805 94.912,254.422 94.884,251.042 94.884 C 247.661 94.884,246.279 94.912,247.969 94.947 M214.675 102.083 C 214.675 105.464,214.704 106.846,214.739 105.156 C 214.774 103.466,214.774 100.701,214.739 99.010 C 214.704 97.320,214.675 98.703,214.675 102.083 M153.802 102.227 C 154.003 102.279,154.331 102.279,154.531 102.227 C 154.732 102.175,154.568 102.132,154.167 102.132 C 153.766 102.132,153.602 102.175,153.802 102.227 M165.614 103.906 L 164.896 104.688 165.677 103.970 C 166.404 103.301,166.554 103.125,166.395 103.125 C 166.360 103.125,166.009 103.477,165.614 103.906 M137.867 116.397 C 138.126 116.447,138.501 116.445,138.700 116.393 C 138.900 116.341,138.688 116.300,138.229 116.303 C 137.771 116.305,137.608 116.348,137.867 116.397 M189.263 127.292 C 189.263 133.078,189.290 135.445,189.323 132.552 C 189.355 129.659,189.355 124.924,189.323 122.031 C 189.290 119.138,189.263 121.505,189.263 127.292 M257.791 126.042 C 257.791 127.703,257.823 128.383,257.863 127.552 C 257.903 126.721,257.903 125.362,257.863 124.531 C 257.823 123.701,257.791 124.380,257.791 126.042 M225.893 132.813 C 225.894 133.385,225.935 133.595,225.983 133.278 C 226.031 132.962,226.029 132.493,225.980 132.237 C 225.931 131.980,225.891 132.240,225.893 132.813 M257.795 135.491 C 257.736 135.646,257.721 136.373,257.762 137.105 L 257.836 138.438 257.877 136.930 L 257.917 135.423 264.010 135.364 L 270.104 135.306 264.004 135.257 C 259.029 135.217,257.884 135.260,257.795 135.491 M169.375 136.250 L 165.938 136.370 169.311 136.414 C 171.384 136.441,172.733 136.378,172.813 136.250 C 172.883 136.135,172.912 136.062,172.877 136.086 C 172.841 136.110,171.266 136.184,169.375 136.250 M201.563 220.625 C 201.486 220.749,201.714 220.827,202.123 220.819 C 202.698 220.806,202.743 220.774,202.396 220.625 C 201.831 220.382,201.713 220.382,201.563 220.625 M201.250 224.792 C 201.250 224.906,201.508 224.993,201.823 224.985 C 202.331 224.972,202.348 224.950,201.979 224.792 C 201.410 224.547,201.250 224.547,201.250 224.792 " stroke="none" fill="#949494" fill-rule="evenodd"></path><path id="path5" d="M259.667 79.583 C 259.667 81.359,259.699 82.086,259.738 81.198 C 259.777 80.310,259.777 78.857,259.738 77.969 C 259.699 77.081,259.667 77.807,259.667 79.583 M279.890 95.521 C 279.890 102.510,279.916 105.340,279.948 101.808 C 279.980 98.276,279.980 92.557,279.948 89.100 C 279.916 85.642,279.890 88.531,279.890 95.521 " stroke="none" fill="#8c8c8c" fill-rule="evenodd"></path></g></svg>