<svg id="svg" version="1.1" xmlns="http://www.w3.org/2000/svg" xmlns:xlink="http://www.w3.org/1999/xlink" width="400" height="225" viewBox="0, 0, 400,225"><g id="svgg"><path id="path0" d="M151.354 76.042 C 140.526 77.996,134.611 89.661,139.470 99.479 C 147.148 114.994,170.417 109.467,170.417 92.128 C 170.417 82.127,161.117 74.280,151.354 76.042 M190.350 76.055 C 178.881 77.374,172.385 89.696,177.727 100.000 C 182.158 108.548,193.220 111.328,201.345 105.934 C 201.980 105.513,202.500 105.079,202.500 104.970 C 202.500 104.718,198.707 100.390,198.553 100.466 C 198.489 100.498,197.922 100.795,197.292 101.126 C 190.010 104.959,181.570 98.884,182.897 90.765 C 183.918 84.514,190.655 80.761,196.458 83.209 C 197.203 83.524,197.938 83.797,198.091 83.817 C 198.687 83.896,202.284 79.516,201.940 79.129 C 200.290 77.275,194.074 75.627,190.350 76.055 M111.458 92.281 L 111.458 108.125 114.583 108.125 L 117.708 108.125 117.708 101.762 L 117.708 95.399 119.317 95.460 L 120.925 95.521 123.848 101.816 L 126.771 108.110 130.136 108.118 L 133.502 108.125 130.397 101.436 C 126.845 93.784,127.098 94.546,127.969 94.123 C 134.557 90.918,134.162 80.721,127.319 77.337 L 125.752 76.563 118.605 76.500 L 111.458 76.438 111.458 92.281 M208.333 92.292 L 208.333 108.125 211.458 108.125 L 214.583 108.125 214.583 102.129 L 214.583 96.133 215.846 94.889 C 216.956 93.796,217.138 93.687,217.356 93.986 C 217.493 94.174,219.337 97.431,221.454 101.226 L 225.304 108.125 229.006 108.125 C 231.042 108.125,232.708 108.087,232.708 108.040 C 232.708 107.992,230.286 103.844,227.324 98.821 C 224.363 93.797,221.829 89.478,221.693 89.221 C 221.464 88.788,221.820 88.339,226.722 82.867 C 229.623 79.629,232.069 76.862,232.157 76.719 C 232.282 76.514,231.428 76.458,228.142 76.458 L 223.968 76.458 219.432 81.458 C 216.937 84.208,214.826 86.458,214.740 86.458 C 214.654 86.458,214.583 84.208,214.583 81.458 L 214.583 76.458 211.458 76.458 L 208.333 76.458 208.333 92.292 M238.542 92.292 L 238.542 108.125 249.063 108.125 L 259.583 108.125 259.583 105.000 L 259.583 101.875 252.182 101.875 L 244.782 101.875 244.839 98.385 L 244.896 94.896 250.990 94.841 L 257.083 94.785 257.083 91.664 L 257.083 88.542 250.938 88.542 L 244.792 88.542 244.792 85.625 L 244.792 82.708 252.188 82.708 L 259.583 82.708 259.583 79.583 L 259.583 76.458 249.063 76.458 L 238.542 76.458 238.542 92.292 M264.792 79.583 L 264.792 82.708 269.167 82.708 L 273.542 82.708 273.542 95.417 L 273.542 108.125 276.667 108.125 L 279.792 108.125 279.792 95.417 L 279.792 82.708 284.167 82.708 L 288.542 82.708 288.542 79.583 L 288.542 76.458 276.667 76.458 L 264.792 76.458 264.792 79.583 M156.555 82.611 C 163.999 84.550,166.546 93.825,161.123 99.248 C 155.661 104.710,146.434 102.160,144.477 94.647 C 142.610 87.479,149.372 80.740,156.555 82.611 M125.000 83.177 C 126.428 84.152,126.892 86.177,125.990 87.502 C 124.999 88.957,124.701 89.055,121.027 89.133 L 117.708 89.203 117.708 85.956 L 117.708 82.708 121.011 82.708 C 124.093 82.708,124.359 82.740,125.000 83.177 M233.475 116.472 C 221.875 117.805,215.369 130.465,221.008 140.729 C 221.951 142.445,222.183 142.490,224.674 141.432 C 225.468 141.095,226.804 140.717,227.643 140.593 L 229.169 140.366 228.487 139.610 C 224.111 134.760,225.488 126.856,231.204 124.011 C 234.356 122.443,237.199 122.524,241.176 124.296 C 241.668 124.516,245.415 119.939,245.065 119.546 C 243.416 117.692,237.199 116.044,233.475 116.472 M135.440 116.774 C 129.644 118.403,126.857 123.960,129.156 129.304 C 129.699 130.566,130.364 130.833,132.957 130.833 C 133.905 130.834,135.186 131.023,136.354 131.334 C 137.385 131.610,139.138 131.896,140.249 131.971 C 141.360 132.046,142.508 132.150,142.801 132.203 C 147.340 133.026,143.835 130.526,137.920 128.720 C 135.155 127.877,134.033 126.265,134.930 124.429 C 136.066 122.104,139.800 122.140,143.644 124.512 C 144.508 125.045,145.269 125.425,145.337 125.358 C 145.404 125.290,146.149 124.127,146.992 122.774 L 148.525 120.313 147.981 119.863 C 144.743 117.186,139.003 115.773,135.440 116.774 M164.168 125.949 C 161.625 130.951,159.623 135.114,159.720 135.201 C 160.543 135.939,169.243 137.495,171.250 137.264 C 173.877 136.962,176.014 137.184,178.402 138.008 C 179.643 138.436,180.711 138.734,180.774 138.670 C 180.838 138.606,178.597 133.700,175.794 127.766 L 170.697 116.979 169.745 116.917 L 168.793 116.854 164.168 125.949 M189.420 128.212 C 189.453 134.447,189.534 139.604,189.601 139.670 C 189.668 139.737,191.027 139.883,192.622 139.993 C 194.216 140.104,195.813 140.281,196.171 140.387 L 196.821 140.580 196.275 139.613 L 195.729 138.646 195.670 127.760 L 195.611 116.875 192.486 116.875 L 189.361 116.875 189.420 128.212 M207.500 127.359 C 207.500 139.449,207.545 139.109,205.708 141.006 L 204.606 142.143 206.209 141.992 C 207.091 141.909,208.984 141.731,210.416 141.597 L 213.020 141.354 213.368 140.104 C 213.673 139.012,213.719 137.463,213.733 127.865 L 213.750 116.875 210.625 116.875 L 207.500 116.875 207.500 127.359 M251.458 127.813 C 251.458 136.425,251.514 138.749,251.719 138.747 C 251.862 138.745,252.551 138.609,253.249 138.444 C 253.948 138.280,255.233 138.117,256.106 138.084 L 257.692 138.023 257.752 136.668 L 257.813 135.313 263.483 135.208 C 270.557 135.078,270.000 135.381,270.000 131.669 L 270.000 128.958 263.854 128.958 L 257.708 128.958 257.708 126.042 L 257.708 123.125 265.208 123.125 L 272.708 123.125 272.708 120.000 L 272.708 116.875 262.083 116.875 L 251.458 116.875 251.458 127.813 M171.278 132.806 C 172.153 134.688,172.817 136.280,172.754 136.343 C 172.612 136.486,166.042 136.498,166.042 136.356 C 166.042 136.148,169.477 129.375,169.580 129.379 C 169.639 129.382,170.403 130.924,171.278 132.806 M198.689 198.792 C 195.778 204.772,195.195 206.088,194.777 207.625 C 194.532 208.530,193.969 210.326,193.527 211.616 C 192.279 215.257,190.625 222.551,190.625 224.411 C 190.625 225.806,191.596 225.164,191.861 223.594 C 192.365 220.610,192.291 220.818,192.764 221.072 C 193.523 221.478,204.410 221.380,206.018 220.952 C 206.750 220.758,207.414 220.675,207.494 220.768 C 207.800 221.125,208.352 222.906,208.473 223.930 C 208.587 224.889,208.652 225.000,209.106 225.000 C 209.488 225.000,209.586 224.911,209.507 224.635 C 209.449 224.435,209.245 223.474,209.052 222.500 C 208.859 221.526,208.427 219.839,208.090 218.750 C 207.754 217.661,206.913 214.661,206.222 212.083 C 205.530 209.505,204.600 206.505,204.154 205.417 C 202.614 201.654,200.284 196.588,200.060 196.513 C 199.936 196.472,199.319 197.497,198.689 198.792 M200.732 198.755 C 202.284 201.818,204.336 207.591,205.618 212.500 C 206.052 214.161,206.662 216.390,206.974 217.452 C 207.286 218.514,207.492 219.512,207.431 219.670 C 207.121 220.478,197.590 220.834,194.063 220.170 L 192.604 219.896 192.662 219.063 C 192.694 218.604,192.900 217.620,193.120 216.875 C 193.340 216.130,193.891 214.068,194.344 212.292 C 195.160 209.096,195.979 206.766,196.982 204.787 C 197.404 203.953,198.962 200.304,199.804 198.177 C 200.062 197.526,200.130 197.568,200.732 198.755 M202.292 212.497 C 202.079 212.633,202.245 212.656,202.813 212.569 C 203.842 212.411,204.018 212.291,203.212 212.295 C 202.878 212.297,202.464 212.388,202.292 212.497 M202.760 213.477 C 202.961 213.529,203.289 213.529,203.490 213.477 C 203.690 213.425,203.526 213.382,203.125 213.382 C 202.724 213.382,202.560 213.425,202.760 213.477 M202.135 214.727 C 202.336 214.779,202.664 214.779,202.865 214.727 C 203.065 214.675,202.901 214.632,202.500 214.632 C 202.099 214.632,201.935 214.675,202.135 214.727 M202.135 215.560 C 202.336 215.613,202.664 215.613,202.865 215.560 C 203.065 215.508,202.901 215.465,202.500 215.465 C 202.099 215.465,201.935 215.508,202.135 215.560 M202.867 216.606 C 203.126 216.656,203.501 216.654,203.700 216.601 C 203.900 216.549,203.688 216.509,203.229 216.511 C 202.771 216.513,202.608 216.556,202.867 216.606 M202.344 217.644 C 202.544 217.696,202.872 217.696,203.073 217.644 C 203.273 217.591,203.109 217.548,202.708 217.548 C 202.307 217.548,202.143 217.591,202.344 217.644 M203.021 218.542 L 202.188 218.691 202.917 218.696 C 203.318 218.698,203.927 218.629,204.271 218.542 C 205.119 218.326,204.226 218.326,203.021 218.542 M203.229 219.583 L 202.396 219.733 203.125 219.737 C 203.526 219.740,204.135 219.671,204.479 219.583 C 205.327 219.368,204.434 219.368,203.229 219.583 M204.010 221.810 C 204.211 221.863,204.539 221.863,204.740 221.810 C 204.940 221.758,204.776 221.715,204.375 221.715 C 203.974 221.715,203.810 221.758,204.010 221.810 M201.402 222.025 C 201.771 222.071,202.428 222.072,202.860 222.027 C 203.292 221.982,202.990 221.944,202.188 221.943 C 201.385 221.942,201.032 221.979,201.402 222.025 M204.219 222.644 C 204.419 222.696,204.747 222.696,204.948 222.644 C 205.148 222.591,204.984 222.548,204.583 222.548 C 204.182 222.548,204.018 222.591,204.219 222.644 M197.867 223.024 C 197.064 223.319,195.327 224.431,195.103 224.794 C 195.023 224.924,195.635 225.000,196.749 225.000 L 198.522 225.000 199.148 224.090 C 200.033 222.803,202.199 223.219,201.351 224.513 C 200.981 225.078,201.154 225.151,201.698 224.659 C 202.047 224.344,202.084 224.344,202.205 224.659 C 202.352 225.040,205.955 225.144,206.771 224.790 C 207.042 224.673,206.841 224.651,206.198 224.729 C 205.532 224.809,205.208 224.771,205.208 224.613 C 205.208 224.484,204.673 224.076,204.019 223.707 C 202.912 223.082,202.865 223.026,203.342 222.893 C 203.623 222.814,202.682 222.747,201.250 222.744 C 199.545 222.740,198.377 222.836,197.867 223.024 " stroke="none" fill="#f9f8f8" fill-rule="evenodd"></path><path id="path1" d="M0.000 112.500 L 0.000 225.000 95.136 224.948 L 190.273 224.896 190.762 221.979 C 191.405 218.145,192.273 214.620,193.413 211.211 C 193.924 209.686,194.495 207.875,194.683 207.188 C 195.274 205.030,199.510 196.388,200.023 196.293 C 200.276 196.246,200.801 197.231,202.168 200.321 C 204.806 206.285,205.059 206.983,206.433 212.112 C 207.121 214.678,207.937 217.572,208.245 218.545 C 208.554 219.517,209.016 221.344,209.271 222.604 L 209.736 224.896 304.868 224.948 L 400.000 225.000 400.000 112.500 L 400.000 0.000 200.000 0.000 L 0.000 0.000 0.000 112.500 M158.193 76.273 C 169.003 78.955,174.034 91.693,167.995 101.094 C 161.522 111.170,146.780 111.274,140.325 101.290 C 132.151 88.647,143.578 72.648,158.193 76.273 M196.354 76.345 C 198.401 76.898,202.292 78.887,202.292 79.379 C 202.292 79.473,201.397 80.581,200.304 81.843 L 198.315 84.136 197.022 83.535 C 191.392 80.919,184.745 83.901,183.228 89.725 C 181.052 98.082,189.442 104.943,197.112 101.079 L 198.703 100.277 200.653 102.532 C 203.046 105.301,202.977 104.985,201.414 106.001 C 190.246 113.264,175.724 105.565,175.751 92.396 C 175.773 81.536,186.023 73.551,196.354 76.345 M125.250 76.481 C 133.603 78.230,135.617 90.345,128.185 94.136 L 127.323 94.576 130.433 101.270 C 132.143 104.952,133.542 108.048,133.542 108.149 C 133.542 108.454,126.962 108.380,126.726 108.073 C 126.616 107.930,125.232 105.023,123.650 101.615 L 120.773 95.417 119.241 95.417 L 117.708 95.417 117.708 101.771 L 117.708 108.125 114.479 108.125 L 111.250 108.125 111.250 92.188 L 111.250 76.250 117.698 76.250 C 121.619 76.250,124.579 76.341,125.250 76.481 M214.840 81.283 L 214.896 86.315 219.450 81.283 L 224.004 76.250 228.252 76.250 C 230.588 76.250,232.500 76.320,232.500 76.406 C 232.499 76.492,230.064 79.281,227.087 82.604 C 224.111 85.927,221.675 88.740,221.675 88.854 C 221.675 88.969,224.193 93.328,227.270 98.542 L 232.865 108.021 229.200 108.078 C 227.184 108.109,225.434 108.096,225.310 108.049 C 225.186 108.001,223.308 104.771,221.136 100.870 L 217.188 93.778 215.990 94.956 L 214.792 96.133 214.792 102.129 L 214.792 108.125 211.563 108.125 L 208.333 108.125 208.333 92.188 L 208.333 76.250 211.559 76.250 L 214.784 76.250 214.840 81.283 M259.792 79.479 L 259.792 82.708 252.396 82.708 L 245.000 82.708 245.000 85.625 L 245.000 88.542 251.042 88.542 L 257.083 88.542 257.083 91.771 L 257.083 95.000 251.042 95.000 L 245.000 95.000 245.000 98.333 L 245.000 101.667 252.297 101.667 L 259.594 101.667 259.537 104.948 L 259.479 108.229 248.958 108.229 L 238.438 108.229 238.384 92.500 C 238.354 83.849,238.375 76.654,238.429 76.510 C 238.507 76.307,240.847 76.250,249.160 76.250 L 259.792 76.250 259.792 79.479 M288.750 79.479 L 288.750 82.708 284.377 82.708 L 280.003 82.708 279.950 95.469 L 279.896 108.229 276.720 108.287 L 273.545 108.344 273.491 95.578 L 273.438 82.813 269.010 82.756 L 264.583 82.700 264.583 79.475 L 264.583 76.250 276.667 76.250 L 288.750 76.250 288.750 79.479 M151.354 82.793 C 144.065 85.107,141.882 94.186,147.378 99.327 C 155.472 106.899,167.812 97.575,162.797 87.677 C 160.799 83.735,155.504 81.474,151.354 82.793 M117.708 85.833 L 117.708 88.958 120.889 88.958 C 125.262 88.958,126.785 87.968,126.352 85.406 C 125.996 83.294,124.745 82.711,120.573 82.709 L 117.708 82.708 117.708 85.833 M142.396 116.888 C 144.467 117.528,148.542 119.744,148.542 120.229 C 148.542 120.410,145.729 125.134,145.410 125.489 C 145.323 125.586,144.729 125.331,144.091 124.923 C 139.379 121.909,134.792 122.166,134.792 125.443 C 134.792 127.274,135.341 127.715,139.294 129.061 C 146.164 131.400,149.354 134.980,149.130 140.102 C 148.708 149.753,136.364 152.434,127.333 144.837 C 125.958 143.681,125.914 143.809,128.550 141.298 L 130.747 139.205 131.874 140.141 C 136.375 143.879,142.708 143.509,142.708 139.508 C 142.708 137.922,139.776 135.778,136.563 135.015 C 125.964 132.498,125.406 119.202,135.788 116.559 C 137.409 116.146,140.494 116.300,142.396 116.888 M239.479 116.761 C 241.526 117.315,245.417 119.304,245.417 119.796 C 245.417 119.889,244.522 120.998,243.429 122.259 L 241.440 124.553 240.147 123.952 C 234.529 121.341,227.867 124.330,226.353 130.142 C 224.143 138.627,232.879 145.530,240.546 141.356 L 241.822 140.662 243.828 142.972 C 246.191 145.693,246.116 145.397,244.688 146.344 C 233.989 153.446,219.867 146.644,218.841 133.894 C 217.955 122.884,228.807 113.875,239.479 116.761 M178.162 132.500 C 182.256 141.151,185.610 148.349,185.615 148.495 C 185.623 148.702,184.857 148.748,182.135 148.703 L 178.646 148.646 177.203 145.677 L 175.760 142.708 169.286 142.712 L 162.813 142.715 161.269 145.733 L 159.725 148.750 156.229 148.750 C 154.306 148.750,152.696 148.680,152.651 148.594 C 152.606 148.508,154.198 145.250,156.189 141.354 C 158.181 137.458,161.830 130.305,164.298 125.458 L 168.786 116.645 169.752 116.708 L 170.718 116.771 178.162 132.500 M195.668 127.448 C 195.727 137.931,195.741 138.256,196.171 139.185 C 198.276 143.735,204.693 143.779,206.881 139.259 C 207.302 138.388,207.316 138.042,207.356 127.566 L 207.396 116.771 210.625 116.771 L 213.854 116.771 213.854 127.917 C 213.854 139.036,213.853 139.066,213.368 140.521 C 209.826 151.152,195.228 152.177,190.396 142.135 C 189.229 139.708,189.174 139.050,189.170 127.344 L 189.167 116.667 192.387 116.667 L 195.607 116.667 195.668 127.448 M272.708 119.896 L 272.708 123.125 265.313 123.125 L 257.917 123.125 257.917 126.042 L 257.917 128.958 264.063 128.958 L 270.208 128.958 270.208 132.188 L 270.208 135.417 264.063 135.417 L 257.917 135.417 257.917 138.750 L 257.917 142.083 265.208 142.083 L 272.500 142.083 272.500 145.417 L 272.500 148.750 261.979 148.750 L 251.458 148.750 251.458 132.708 L 251.458 116.667 262.083 116.667 L 272.708 116.667 272.708 119.896 M167.861 132.814 C 166.975 134.591,166.250 136.091,166.250 136.148 C 166.250 136.204,167.703 136.250,169.479 136.250 C 171.255 136.250,172.708 136.215,172.708 136.172 C 172.708 136.033,169.604 129.583,169.537 129.583 C 169.502 129.583,168.748 131.037,167.861 132.814 M199.472 199.518 C 199.150 200.299,198.144 202.625,197.237 204.688 C 196.084 207.310,195.339 209.377,194.760 211.563 C 194.305 213.281,193.710 215.484,193.439 216.458 C 193.167 217.432,192.890 218.571,192.821 218.988 L 192.698 219.747 194.526 220.025 C 198.492 220.627,206.913 220.269,207.214 219.485 C 207.267 219.346,207.032 218.350,206.691 217.272 C 206.350 216.194,205.777 214.141,205.418 212.708 C 204.258 208.079,201.030 199.072,200.254 198.295 C 200.131 198.173,199.838 198.633,199.472 199.518 M202.866 207.969 C 202.764 208.278,201.458 208.451,201.458 208.156 C 201.458 207.904,201.826 207.746,202.465 207.725 C 202.766 207.715,202.919 207.808,202.866 207.969 M203.125 209.063 C 203.125 209.288,202.894 209.375,202.292 209.375 C 200.978 209.375,201.300 208.844,202.656 208.774 C 202.945 208.759,203.125 208.870,203.125 209.063 M203.542 210.007 C 203.542 210.327,203.058 210.454,202.157 210.370 C 201.375 210.297,201.368 210.289,201.875 210.056 C 202.535 209.754,203.542 209.724,203.542 210.007 M203.854 211.250 C 204.031 211.536,203.064 211.875,202.070 211.875 C 201.187 211.875,200.950 211.530,201.719 211.366 C 201.977 211.311,202.375 211.227,202.604 211.178 C 203.361 211.018,203.724 211.039,203.854 211.250 M204.167 212.269 C 204.167 212.534,203.677 212.689,202.350 212.845 C 201.409 212.955,201.212 212.926,201.291 212.688 C 201.445 212.226,204.167 211.830,204.167 212.269 M204.375 213.311 C 204.375 213.615,203.792 213.750,202.483 213.750 C 201.226 213.750,200.784 213.432,201.823 213.274 C 202.932 213.106,204.375 213.127,204.375 213.311 M196.458 213.750 C 196.458 213.865,196.323 213.958,196.158 213.958 C 195.993 213.958,195.800 213.865,195.729 213.750 C 195.658 213.635,195.793 213.542,196.029 213.542 C 196.265 213.542,196.458 213.635,196.458 213.750 M204.792 214.353 C 204.792 214.652,204.164 214.818,202.552 214.943 C 200.928 215.069,200.371 214.712,201.823 214.475 C 202.253 214.405,202.745 214.317,202.917 214.281 C 203.614 214.134,204.792 214.179,204.792 214.353 M196.036 214.575 C 196.204 214.682,196.279 214.833,196.201 214.910 C 196.010 215.101,195.417 214.858,195.417 214.590 C 195.417 214.325,195.632 214.320,196.036 214.575 M205.000 215.184 C 205.000 215.655,201.221 216.084,200.949 215.643 C 200.884 215.539,201.418 215.363,202.134 215.253 C 203.872 214.986,205.000 214.959,205.000 215.184 M196.042 215.625 C 196.042 215.740,195.860 215.833,195.637 215.833 C 195.415 215.833,195.175 215.740,195.104 215.625 C 195.031 215.507,195.206 215.417,195.509 215.417 C 195.802 215.417,196.042 215.510,196.042 215.625 M205.417 216.242 C 205.417 216.683,201.703 217.210,200.938 216.877 C 200.422 216.653,200.379 216.668,202.396 216.357 C 204.544 216.026,205.417 215.993,205.417 216.242 M195.938 216.667 C 195.867 216.781,195.632 216.875,195.417 216.875 C 195.201 216.875,194.967 216.781,194.896 216.667 C 194.821 216.545,195.037 216.458,195.417 216.458 C 195.797 216.458,196.013 216.545,195.938 216.667 M205.575 217.135 C 205.392 217.697,200.417 218.281,200.417 217.741 C 200.417 217.605,203.179 217.139,205.382 216.905 C 205.535 216.888,205.622 216.992,205.575 217.135 M195.625 217.500 C 195.625 217.615,195.443 217.708,195.221 217.708 C 194.998 217.708,194.758 217.615,194.688 217.500 C 194.614 217.382,194.790 217.292,195.092 217.292 C 195.385 217.292,195.625 217.385,195.625 217.500 M205.785 218.167 C 205.602 218.714,200.619 219.454,200.325 218.978 C 200.247 218.853,200.260 218.740,200.352 218.728 C 200.445 218.716,201.552 218.543,202.813 218.342 C 205.755 217.875,205.885 217.867,205.785 218.167 M195.411 218.325 C 195.579 218.432,195.654 218.582,195.577 218.660 C 195.381 218.855,194.375 218.579,194.375 218.329 C 194.375 218.072,195.006 218.069,195.411 218.325 M206.250 219.159 C 206.250 219.556,202.941 220.187,200.781 220.202 C 199.659 220.209,199.443 219.865,200.469 219.704 C 204.636 219.050,206.250 218.898,206.250 219.159 M195.169 219.479 C 195.108 219.723,194.572 219.640,194.271 219.342 C 194.133 219.204,194.258 219.158,194.642 219.203 C 194.961 219.240,195.198 219.365,195.169 219.479 M206.563 221.042 C 206.206 221.195,206.199 221.223,206.510 221.235 C 207.309 221.267,206.803 221.626,205.573 221.899 C 204.093 222.227,199.483 222.289,198.854 221.989 C 198.514 221.827,198.649 221.764,199.583 221.648 C 200.263 221.565,199.160 221.511,196.875 221.518 C 194.755 221.524,192.887 221.489,192.722 221.441 C 192.448 221.361,191.934 223.330,191.888 224.635 C 191.873 225.050,192.686 225.147,193.058 224.775 C 193.213 224.620,193.513 224.613,194.019 224.753 C 194.685 224.937,194.809 224.901,195.310 224.378 C 196.657 222.972,197.716 222.638,201.354 222.471 C 203.188 222.388,205.180 222.253,205.781 222.172 C 206.509 222.074,206.875 222.100,206.875 222.248 C 206.875 222.441,206.353 222.586,203.986 223.049 C 203.715 223.102,203.544 223.197,203.607 223.260 C 203.670 223.323,204.201 223.271,204.788 223.145 C 206.480 222.782,207.912 222.964,206.823 223.404 C 206.674 223.464,206.725 223.516,206.944 223.525 C 207.630 223.555,207.178 224.057,206.235 224.314 L 205.313 224.566 206.354 224.523 C 207.094 224.492,207.381 224.555,207.344 224.740 C 207.313 224.895,207.513 225.000,207.841 225.000 C 208.476 225.000,208.457 224.110,207.773 221.942 C 207.418 220.814,207.299 220.725,206.563 221.042 M194.998 222.078 C 195.216 222.216,195.243 222.340,195.089 222.494 C 194.839 222.744,193.542 222.383,193.542 222.063 C 193.542 221.816,194.601 221.827,194.998 222.078 M194.844 223.058 C 195.158 223.243,194.988 223.542,194.570 223.542 C 194.026 223.542,193.333 223.178,193.333 222.893 C 193.333 222.693,194.427 222.813,194.844 223.058 M199.217 224.273 L 198.746 225.000 199.766 225.000 C 200.997 225.000,201.847 224.181,201.055 223.757 C 200.291 223.348,199.711 223.511,199.217 224.273 M194.670 223.876 C 195.171 224.069,195.064 224.375,194.496 224.375 C 193.858 224.375,193.333 224.177,193.333 223.936 C 193.333 223.724,194.176 223.687,194.670 223.876 " stroke="none" fill="#343434" fill-rule="evenodd"></path><path id="path2" d="M130.000 130.785 C 130.000 131.730,134.188 134.338,136.771 135.002 C 141.766 136.285,144.034 139.186,141.965 141.645 C 140.213 143.728,135.386 143.078,131.975 140.301 L 130.810 139.352 129.207 140.803 C 128.326 141.601,127.296 142.575,126.920 142.967 L 126.236 143.680 127.233 144.609 C 130.558 147.710,134.081 149.057,138.870 149.060 L 141.802 149.063 143.588 148.178 C 147.823 146.079,150.053 141.446,148.836 137.277 C 148.148 134.919,146.033 132.209,145.024 132.393 C 144.725 132.447,143.682 132.398,142.708 132.284 C 141.734 132.169,140.234 132.024,139.375 131.960 C 138.516 131.896,137.246 131.662,136.554 131.440 C 135.861 131.218,134.455 130.995,133.429 130.943 C 132.402 130.892,131.211 130.791,130.781 130.719 C 130.338 130.645,130.000 130.673,130.000 130.785 M269.531 134.873 C 269.053 135.237,269.070 135.417,269.583 135.417 C 269.861 135.417,270.000 135.278,270.000 135.000 C 270.000 134.513,270.004 134.514,269.531 134.873 M156.065 141.776 C 154.219 145.403,152.708 148.409,152.708 148.456 C 152.708 148.503,154.301 148.542,156.249 148.542 L 159.789 148.542 161.250 145.625 L 162.711 142.708 169.286 142.708 L 175.862 142.708 177.239 145.625 L 178.616 148.542 182.133 148.542 C 184.067 148.542,185.612 148.471,185.566 148.385 C 185.520 148.299,184.562 146.260,183.436 143.854 C 181.054 138.762,181.122 138.859,179.722 138.531 C 179.130 138.392,178.552 138.209,178.438 138.123 C 177.502 137.423,175.325 137.195,170.417 137.284 C 169.214 137.306,167.948 137.282,167.604 137.230 C 166.063 136.998,164.240 136.606,163.909 136.436 C 163.710 136.334,163.368 136.250,163.150 136.250 C 162.815 136.250,160.579 135.626,159.686 135.283 C 159.512 135.216,158.280 137.425,156.065 141.776 M253.229 138.524 L 251.563 138.865 251.507 143.704 L 251.451 148.542 261.975 148.542 L 272.500 148.542 272.500 145.417 L 272.500 142.292 265.208 142.292 L 257.917 142.292 257.917 140.208 L 257.917 138.125 256.406 138.154 C 255.576 138.170,254.146 138.336,253.229 138.524 M189.744 140.306 C 192.097 150.473,207.269 152.091,212.370 142.720 C 213.139 141.306,213.205 141.328,209.530 141.752 C 207.783 141.953,205.792 142.163,205.104 142.217 C 204.417 142.271,203.582 142.404,203.250 142.512 C 201.580 143.055,199.316 142.580,197.746 141.357 C 196.175 140.133,189.501 139.257,189.744 140.306 M227.017 140.755 C 226.236 140.923,225.111 141.280,224.517 141.548 C 223.923 141.817,223.133 142.102,222.760 142.181 C 221.904 142.363,221.902 142.347,223.024 143.660 C 228.316 149.854,238.260 150.940,244.957 146.054 L 245.851 145.402 243.936 143.215 C 241.585 140.530,241.966 140.708,240.369 141.541 C 237.192 143.196,231.462 142.741,229.766 140.698 C 229.477 140.350,228.844 140.363,227.017 140.755 " stroke="none" fill="#fa3636" fill-rule="evenodd"></path><path id="path3" d="M209.958 76.405 C 210.909 76.444,212.409 76.444,213.291 76.405 C 214.174 76.366,213.396 76.334,211.563 76.334 C 209.729 76.335,209.007 76.366,209.958 76.405 M226.105 76.406 C 227.343 76.442,229.312 76.442,230.480 76.405 C 231.648 76.368,230.635 76.338,228.229 76.338 C 225.823 76.338,224.867 76.369,226.105 76.406 M238.429 76.510 C 238.375 76.654,238.354 83.849,238.384 92.500 L 238.438 108.229 248.906 108.232 L 259.375 108.235 248.958 108.178 L 238.542 108.121 238.542 92.292 L 238.542 76.462 249.219 76.406 L 259.896 76.350 249.212 76.300 C 240.820 76.261,238.507 76.306,238.429 76.510 M270.573 76.406 C 273.924 76.438,279.409 76.438,282.760 76.406 C 286.112 76.374,283.370 76.348,276.667 76.348 C 269.964 76.348,267.221 76.374,270.573 76.406 M153.597 82.441 C 153.913 82.489,154.382 82.488,154.638 82.438 C 154.895 82.389,154.635 82.350,154.063 82.351 C 153.490 82.353,153.280 82.393,153.597 82.441 M244.874 85.729 C 244.874 87.333,244.907 87.962,244.947 87.126 C 244.986 86.291,244.986 84.978,244.946 84.210 C 244.906 83.441,244.874 84.125,244.874 85.729 M137.557 92.292 C 137.557 92.807,137.597 93.018,137.647 92.760 C 137.697 92.503,137.697 92.081,137.647 91.823 C 137.597 91.565,137.557 91.776,137.557 92.292 M129.883 92.760 L 129.271 93.438 129.948 92.826 C 130.320 92.489,130.625 92.184,130.625 92.149 C 130.625 91.988,130.453 92.129,129.883 92.760 M215.930 94.844 L 214.896 95.938 215.990 94.904 C 216.591 94.335,217.083 93.843,217.083 93.810 C 217.083 93.654,216.890 93.827,215.930 94.844 M244.888 98.333 L 244.896 101.771 252.188 101.775 L 259.479 101.779 252.245 101.720 L 245.010 101.661 244.945 98.279 L 244.879 94.896 244.888 98.333 M141.875 103.399 C 141.875 103.434,142.180 103.739,142.552 104.076 L 143.229 104.688 142.617 104.010 C 142.047 103.379,141.875 103.238,141.875 103.399 M128.490 108.280 C 129.435 108.319,130.982 108.319,131.927 108.280 C 132.872 108.241,132.099 108.210,130.208 108.210 C 128.318 108.210,127.544 108.241,128.490 108.280 M275.052 108.280 C 275.940 108.319,277.393 108.319,278.281 108.280 C 279.169 108.241,278.443 108.209,276.667 108.209 C 274.891 108.209,274.164 108.241,275.052 108.280 M168.673 116.831 C 168.617 116.922,168.916 116.964,169.338 116.924 C 170.626 116.802,170.778 116.716,169.752 116.691 C 169.214 116.678,168.729 116.741,168.673 116.831 M190.791 116.822 C 191.742 116.861,193.242 116.860,194.124 116.821 C 195.007 116.782,194.229 116.751,192.396 116.751 C 190.563 116.751,189.840 116.783,190.791 116.822 M207.389 116.922 C 207.333 117.068,207.313 121.641,207.344 127.083 L 207.400 136.979 207.450 126.927 L 207.500 116.875 210.623 116.875 L 213.746 116.875 213.803 126.823 L 213.860 136.771 213.857 126.771 L 213.854 116.771 210.673 116.713 C 208.242 116.669,207.467 116.719,207.389 116.922 M256.719 116.823 C 259.669 116.855,264.497 116.855,267.448 116.823 C 270.398 116.790,267.984 116.763,262.083 116.763 C 256.182 116.763,253.768 116.790,256.719 116.823 M270.084 132.188 C 270.085 134.021,270.116 134.743,270.155 133.792 C 270.194 132.841,270.194 131.341,270.155 130.459 C 270.116 129.576,270.084 130.354,270.084 132.188 M130.208 131.315 C 130.208 131.351,130.513 131.656,130.885 131.992 L 131.563 132.604 130.951 131.927 C 130.380 131.296,130.208 131.154,130.208 131.315 M129.989 139.948 L 129.271 140.729 130.052 140.011 C 130.482 139.616,130.833 139.265,130.833 139.230 C 130.833 139.071,130.657 139.221,129.989 139.948 M261.510 142.239 C 263.544 142.273,266.872 142.273,268.906 142.239 C 270.940 142.205,269.276 142.177,265.208 142.177 C 261.141 142.177,259.477 142.205,261.510 142.239 M138.490 142.855 C 138.747 142.905,139.169 142.905,139.427 142.855 C 139.685 142.806,139.474 142.765,138.958 142.765 C 138.443 142.765,138.232 142.806,138.490 142.855 M126.250 143.815 C 126.250 143.851,126.555 144.156,126.927 144.492 L 127.604 145.104 126.992 144.427 C 126.422 143.796,126.250 143.654,126.250 143.815 M192.292 145.065 C 192.292 145.101,192.596 145.406,192.969 145.742 L 193.646 146.354 193.034 145.677 C 192.464 145.046,192.292 144.904,192.292 145.065 M210.091 145.677 L 209.479 146.354 210.156 145.742 C 210.529 145.406,210.833 145.101,210.833 145.065 C 210.833 144.904,210.661 145.046,210.091 145.677 M152.682 148.599 C 152.771 148.688,154.430 148.734,156.370 148.703 L 159.896 148.645 156.208 148.541 C 154.179 148.484,152.593 148.510,152.682 148.599 M180.479 148.697 C 181.487 148.735,183.081 148.735,184.021 148.696 C 184.960 148.658,184.135 148.627,182.188 148.627 C 180.240 148.627,179.471 148.659,180.479 148.697 M256.733 148.698 C 259.692 148.730,264.473 148.730,267.358 148.698 C 270.244 148.665,267.823 148.638,261.979 148.638 C 256.135 148.638,253.775 148.665,256.733 148.698 M203.284 211.189 C 203.557 211.241,203.697 211.375,203.617 211.505 C 203.533 211.641,203.575 211.671,203.721 211.580 C 204.080 211.358,203.796 211.037,203.269 211.070 C 202.816 211.098,202.816 211.099,203.284 211.189 M201.250 211.709 C 201.250 211.800,201.695 211.868,202.240 211.859 C 203.329 211.840,203.241 211.739,202.031 211.619 C 201.602 211.577,201.250 211.617,201.250 211.709 M201.389 212.431 C 201.068 212.752,201.299 212.915,202.031 212.883 C 202.806 212.850,202.807 212.849,202.131 212.766 C 201.757 212.719,201.505 212.594,201.571 212.487 C 201.710 212.262,201.594 212.226,201.389 212.431 M202.309 214.866 C 202.357 214.907,202.724 215.000,203.125 215.074 C 203.638 215.168,203.762 215.147,203.542 215.003 C 203.259 214.818,202.102 214.689,202.309 214.866 M200.399 219.024 C 200.493 219.118,200.934 219.163,201.379 219.124 L 202.188 219.054 201.208 218.953 C 200.669 218.898,200.305 218.930,200.399 219.024 M199.792 220.031 C 199.792 220.128,200.378 220.201,201.094 220.192 C 202.573 220.173,202.491 220.075,200.885 219.943 C 200.284 219.893,199.792 219.933,199.792 220.031 M205.208 221.250 C 204.487 221.402,204.486 221.404,205.104 221.428 C 205.448 221.441,205.870 221.361,206.042 221.250 C 206.389 221.026,206.273 221.026,205.208 221.250 M193.594 221.602 C 193.794 221.654,194.122 221.654,194.323 221.602 C 194.523 221.550,194.359 221.507,193.958 221.507 C 193.557 221.507,193.393 221.550,193.594 221.602 M199.583 221.649 C 198.953 221.716,198.531 221.830,198.646 221.903 C 198.760 221.975,199.979 221.918,201.354 221.775 C 203.632 221.538,203.715 221.516,202.292 221.521 C 201.432 221.524,200.214 221.581,199.583 221.649 M199.844 222.227 C 200.044 222.279,200.372 222.279,200.573 222.227 C 200.773 222.175,200.609 222.132,200.208 222.132 C 199.807 222.132,199.643 222.175,199.844 222.227 M202.517 222.159 C 202.565 222.200,203.026 222.289,203.542 222.358 C 204.168 222.440,204.341 222.420,204.063 222.297 C 203.665 222.121,202.336 222.002,202.517 222.159 M201.719 222.644 C 201.919 222.696,202.247 222.696,202.448 222.644 C 202.648 222.591,202.484 222.548,202.083 222.548 C 201.682 222.548,201.518 222.591,201.719 222.644 M205.104 222.917 C 205.333 223.015,205.661 223.096,205.833 223.096 C 206.030 223.096,205.992 223.030,205.729 222.917 C 205.500 222.818,205.172 222.738,205.000 222.738 C 204.803 222.738,204.842 222.804,205.104 222.917 M206.250 223.528 C 206.250 223.650,206.443 223.750,206.679 223.750 C 206.962 223.750,207.058 223.839,206.961 224.010 C 206.844 224.217,206.871 224.218,207.091 224.014 C 207.410 223.718,207.363 223.647,206.719 223.449 C 206.435 223.362,206.250 223.393,206.250 223.528 M204.601 223.617 C 204.846 223.828,205.856 223.954,205.734 223.758 C 205.661 223.639,205.356 223.542,205.057 223.542 C 204.758 223.542,204.553 223.575,204.601 223.617 M195.299 224.427 L 194.688 225.104 195.365 224.492 C 195.996 223.922,196.137 223.750,195.976 223.750 C 195.941 223.750,195.636 224.055,195.299 224.427 M206.250 224.365 C 206.422 224.482,206.732 224.578,206.939 224.580 C 207.171 224.582,207.259 224.676,207.168 224.824 C 207.072 224.979,207.111 225.008,207.278 224.905 C 207.615 224.696,207.342 224.463,206.563 224.291 C 206.105 224.191,206.021 224.211,206.250 224.365 " stroke="none" fill="#7b7373" fill-rule="evenodd"></path><path id="path4" d="M111.346 76.510 C 111.291 76.654,111.271 83.849,111.302 92.500 L 111.357 108.229 111.408 92.347 L 111.458 76.464 117.760 76.406 L 124.063 76.348 117.754 76.299 C 112.862 76.261,111.423 76.308,111.346 76.510 M214.673 81.458 C 214.673 84.266,214.703 85.414,214.739 84.010 C 214.775 82.607,214.775 80.310,214.739 78.906 C 214.703 77.503,214.673 78.651,214.673 81.458 M264.667 79.583 C 264.667 81.359,264.699 82.086,264.738 81.198 C 264.777 80.310,264.777 78.857,264.738 77.969 C 264.699 77.081,264.667 77.807,264.667 79.583 M288.626 79.583 C 288.626 81.359,288.657 82.086,288.697 81.198 C 288.736 80.310,288.736 78.857,288.697 77.969 C 288.657 77.081,288.626 77.807,288.626 79.583 M142.383 80.677 L 141.771 81.354 142.448 80.742 C 142.820 80.406,143.125 80.101,143.125 80.065 C 143.125 79.904,142.953 80.046,142.383 80.677 M132.757 85.833 C 132.757 86.234,132.800 86.398,132.852 86.198 C 132.904 85.997,132.904 85.669,132.852 85.469 C 132.800 85.268,132.757 85.432,132.757 85.833 M119.228 89.113 C 120.122 89.153,121.528 89.152,122.353 89.113 C 123.179 89.073,122.448 89.041,120.729 89.042 C 119.010 89.042,118.335 89.074,119.228 89.113 M170.485 92.188 C 170.486 92.990,170.524 93.292,170.569 92.860 C 170.614 92.428,170.613 91.771,170.567 91.402 C 170.521 91.032,170.484 91.385,170.485 92.188 M182.771 92.292 C 182.771 92.922,182.810 93.180,182.858 92.865 C 182.905 92.549,182.905 92.034,182.858 91.719 C 182.810 91.404,182.771 91.661,182.771 92.292 M247.969 94.947 C 249.659 94.982,252.424 94.982,254.115 94.947 C 255.805 94.912,254.422 94.884,251.042 94.884 C 247.661 94.884,246.279 94.912,247.969 94.947 M214.675 102.083 C 214.675 105.464,214.704 106.846,214.739 105.156 C 214.774 103.466,214.774 100.701,214.739 99.010 C 214.704 97.320,214.675 98.703,214.675 102.083 M153.802 102.227 C 154.003 102.279,154.331 102.279,154.531 102.227 C 154.732 102.175,154.568 102.132,154.167 102.132 C 153.766 102.132,153.602 102.175,153.802 102.227 M165.614 103.906 L 164.896 104.688 165.677 103.970 C 166.404 103.301,166.554 103.125,166.395 103.125 C 166.360 103.125,166.009 103.477,165.614 103.906 M137.867 116.397 C 138.126 116.447,138.501 116.445,138.700 116.393 C 138.900 116.341,138.688 116.300,138.229 116.303 C 137.771 116.305,137.608 116.348,137.867 116.397 M189.263 127.292 C 189.263 133.078,189.290 135.445,189.323 132.552 C 189.355 129.659,189.355 124.924,189.323 122.031 C 189.290 119.138,189.263 121.505,189.263 127.292 M257.791 126.042 C 257.791 127.703,257.823 128.383,257.863 127.552 C 257.903 126.721,257.903 125.362,257.863 124.531 C 257.823 123.701,257.791 124.380,257.791 126.042 M225.893 132.813 C 225.894 133.385,225.935 133.595,225.983 133.278 C 226.031 132.962,226.029 132.493,225.980 132.237 C 225.931 131.980,225.891 132.240,225.893 132.813 M257.795 135.492 C 257.735 135.648,257.720 136.328,257.762 137.002 L 257.838 138.229 257.877 136.826 L 257.917 135.423 263.594 135.364 L 269.271 135.306 263.587 135.257 C 258.950 135.217,257.884 135.261,257.795 135.492 M169.375 136.250 L 165.938 136.370 169.311 136.414 C 171.384 136.441,172.733 136.378,172.813 136.250 C 172.883 136.135,172.912 136.062,172.877 136.086 C 172.841 136.110,171.266 136.184,169.375 136.250 M204.534 142.231 C 204.793 142.281,205.168 142.279,205.367 142.226 C 205.566 142.174,205.354 142.134,204.896 142.136 C 204.438 142.138,204.275 142.181,204.534 142.231 M201.667 209.167 C 201.667 209.281,201.924 209.374,202.240 209.372 C 202.686 209.369,202.744 209.324,202.500 209.167 C 202.092 208.903,201.667 208.903,201.667 209.167 M201.875 210.208 C 201.875 210.323,202.133 210.410,202.448 210.402 C 202.956 210.389,202.973 210.367,202.604 210.208 C 202.035 209.964,201.875 209.964,201.875 210.208 M201.771 211.442 C 201.485 211.554,201.659 211.598,202.324 211.584 C 202.857 211.572,203.250 211.492,203.197 211.406 C 203.075 211.209,202.318 211.228,201.771 211.442 M201.700 212.475 C 201.523 212.587,201.751 212.651,202.325 212.650 C 202.980 212.649,203.114 212.604,202.813 212.485 C 202.257 212.266,202.033 212.264,201.700 212.475 M203.525 213.353 C 203.859 213.486,204.101 213.482,204.244 213.340 C 204.391 213.192,204.233 213.129,203.740 213.138 C 203.064 213.151,203.051 213.164,203.525 213.353 M201.667 213.542 C 201.667 213.656,202.018 213.743,202.448 213.735 C 203.075 213.724,203.147 213.685,202.813 213.542 C 202.234 213.293,201.667 213.293,201.667 213.542 M202.813 214.583 C 203.435 214.851,203.956 214.851,203.542 214.583 C 203.370 214.472,203.042 214.387,202.813 214.393 L 202.396 214.404 202.813 214.583 M204.167 215.208 C 204.571 215.469,204.792 215.469,204.792 215.208 C 204.792 215.094,204.581 215.001,204.323 215.003 C 203.944 215.006,203.914 215.045,204.167 215.208 M202.813 215.417 C 203.435 215.684,203.956 215.684,203.542 215.417 C 203.370 215.306,203.042 215.220,202.813 215.226 L 202.396 215.238 202.813 215.417 M203.646 216.458 C 204.219 216.705,204.423 216.705,204.271 216.458 C 204.200 216.344,203.937 216.257,203.686 216.265 C 203.246 216.279,203.244 216.286,203.646 216.458 M201.489 216.643 C 201.310 216.757,201.575 216.824,202.219 216.830 C 202.952 216.836,203.115 216.791,202.813 216.663 C 202.262 216.431,201.834 216.425,201.489 216.643 M204.427 217.308 C 204.675 217.453,204.909 217.453,205.156 217.308 C 205.454 217.135,205.387 217.096,204.792 217.096 C 204.197 217.096,204.130 217.135,204.427 217.308 M203.021 217.500 C 203.250 217.598,203.625 217.679,203.854 217.679 L 204.271 217.679 203.854 217.500 C 203.625 217.402,203.250 217.321,203.021 217.321 L 202.604 217.321 203.021 217.500 M200.938 217.708 C 200.861 217.833,201.113 217.917,201.563 217.917 C 202.012 217.917,202.264 217.833,202.188 217.708 C 202.117 217.594,201.835 217.500,201.563 217.500 C 201.290 217.500,201.008 217.594,200.938 217.708 M204.635 218.350 C 204.883 218.494,205.117 218.494,205.365 218.350 C 205.662 218.177,205.595 218.138,205.000 218.138 C 204.405 218.138,204.338 218.177,204.635 218.350 M202.934 218.408 C 202.982 218.449,203.302 218.546,203.646 218.623 C 204.102 218.725,204.187 218.706,203.958 218.551 C 203.677 218.361,202.725 218.228,202.934 218.408 M201.042 218.742 C 200.667 218.857,200.873 218.903,201.771 218.907 C 202.618 218.911,202.887 218.858,202.604 218.742 C 202.097 218.534,201.724 218.534,201.042 218.742 M205.104 219.145 C 204.588 219.258,204.545 219.308,204.859 219.432 C 205.200 219.567,206.042 219.298,206.042 219.055 C 206.042 218.946,205.982 218.952,205.104 219.145 M207.308 219.308 C 207.299 219.557,207.128 219.804,206.927 219.856 C 206.585 219.946,206.586 219.953,206.934 219.976 C 207.338 220.002,207.603 219.547,207.432 219.121 C 207.373 218.974,207.317 219.058,207.308 219.308 M192.566 219.477 C 192.591 219.720,192.780 219.909,193.023 219.934 C 193.324 219.964,193.341 219.947,193.086 219.871 C 192.892 219.813,192.687 219.608,192.629 219.414 C 192.553 219.159,192.536 219.176,192.566 219.477 M194.479 219.375 C 194.550 219.490,194.749 219.583,194.920 219.583 C 195.092 219.583,195.175 219.490,195.104 219.375 C 195.033 219.260,194.835 219.167,194.663 219.167 C 194.491 219.167,194.408 219.260,194.479 219.375 M203.142 219.450 C 203.190 219.491,203.510 219.588,203.854 219.665 C 204.311 219.767,204.395 219.747,204.167 219.593 C 203.885 219.402,202.933 219.270,203.142 219.450 M201.042 219.783 C 200.667 219.897,200.863 219.942,201.739 219.943 C 202.489 219.944,202.849 219.877,202.676 219.767 C 202.346 219.558,201.764 219.564,201.042 219.783 M197.760 220.566 C 198.076 220.614,198.591 220.614,198.906 220.566 C 199.221 220.518,198.964 220.479,198.333 220.479 C 197.703 220.479,197.445 220.518,197.760 220.566 M202.450 220.564 C 202.709 220.614,203.084 220.612,203.284 220.560 C 203.483 220.508,203.271 220.467,202.813 220.469 C 202.354 220.472,202.191 220.514,202.450 220.564 M199.219 221.399 C 199.534 221.447,200.049 221.447,200.365 221.399 C 200.680 221.351,200.422 221.312,199.792 221.312 C 199.161 221.312,198.904 221.351,199.219 221.399 M205.938 221.458 C 205.867 221.573,205.949 221.667,206.121 221.667 C 206.293 221.667,206.492 221.573,206.563 221.458 C 206.633 221.344,206.551 221.250,206.379 221.250 C 206.207 221.250,206.008 221.344,205.938 221.458 M204.792 221.667 C 205.202 221.932,205.685 221.932,205.521 221.667 C 205.450 221.552,205.187 221.460,204.936 221.462 C 204.565 221.464,204.538 221.502,204.792 221.667 M202.309 221.744 C 202.357 221.787,202.865 221.879,203.438 221.948 C 204.139 222.034,204.343 222.013,204.063 221.886 C 203.666 221.705,202.126 221.581,202.309 221.744 M199.844 222.019 C 200.044 222.071,200.372 222.071,200.573 222.019 C 200.773 221.966,200.609 221.923,200.208 221.923 C 199.807 221.923,199.643 221.966,199.844 222.019 M206.042 222.292 C 206.042 222.406,206.182 222.500,206.354 222.500 C 206.526 222.500,206.667 222.406,206.667 222.292 C 206.667 222.177,206.526 222.083,206.354 222.083 C 206.182 222.083,206.042 222.177,206.042 222.292 M204.896 222.500 C 205.519 222.768,206.039 222.768,205.625 222.500 C 205.453 222.389,205.125 222.303,204.896 222.309 L 204.479 222.321 204.896 222.500 M199.531 222.651 C 199.904 222.697,200.513 222.697,200.885 222.651 C 201.258 222.604,200.953 222.567,200.208 222.567 C 199.464 222.567,199.159 222.604,199.531 222.651 M203.333 222.708 C 203.620 222.800,204.042 222.878,204.271 222.881 L 204.688 222.887 204.271 222.708 C 204.042 222.610,203.620 222.532,203.333 222.535 L 202.813 222.542 203.333 222.708 M193.733 223.192 C 193.841 223.299,194.079 223.283,194.303 223.152 C 194.640 222.955,194.618 222.932,194.118 222.967 C 193.787 222.990,193.626 223.084,193.733 223.192 M205.208 223.333 C 205.380 223.444,205.661 223.535,205.833 223.535 C 206.111 223.535,206.111 223.513,205.833 223.333 C 205.661 223.222,205.380 223.131,205.208 223.131 C 204.931 223.131,204.931 223.154,205.208 223.333 M206.205 224.010 C 206.493 224.147,206.755 224.161,206.871 224.045 C 206.986 223.930,206.799 223.840,206.395 223.819 C 205.770 223.785,205.759 223.797,206.205 224.010 " stroke="none" fill="#949494" fill-rule="evenodd"></path><path id="path5" d="M259.667 79.583 C 259.667 81.359,259.699 82.086,259.738 81.198 C 259.777 80.310,259.777 78.857,259.738 77.969 C 259.699 77.081,259.667 77.807,259.667 79.583 M279.890 95.521 C 279.890 102.510,279.916 105.340,279.948 101.808 C 279.980 98.276,279.980 92.557,279.948 89.100 C 279.916 85.642,279.890 88.531,279.890 95.521 M201.225 215.683 C 201.325 215.784,201.677 215.832,202.006 215.791 C 202.557 215.723,202.542 215.708,201.823 215.609 C 201.375 215.547,201.120 215.578,201.225 215.683 M199.943 220.567 C 200.313 220.613,200.969 220.614,201.402 220.569 C 201.834 220.524,201.531 220.486,200.729 220.485 C 199.927 220.484,199.573 220.521,199.943 220.567 M197.659 221.397 C 197.918 221.447,198.293 221.445,198.492 221.393 C 198.691 221.341,198.479 221.300,198.021 221.303 C 197.563 221.305,197.400 221.348,197.659 221.397 M201.198 222.230 C 201.456 222.280,201.878 222.280,202.135 222.230 C 202.393 222.181,202.182 222.140,201.667 222.140 C 201.151 222.140,200.940 222.181,201.198 222.230 " stroke="none" fill="#8c8c8c" fill-rule="evenodd"></path></g></svg>